<svg id="Layer_1" data-name="Layer 1" xmlns="http://www.w3.org/2000/svg" viewBox="0 0 414 736"><title>about-us-graphic-2</title><circle cx="207" cy="338.83" r="51.2" fill="#a5c09f"/><path d="M204.78,359.76c-4.27,0-8.34.12-12.34-.05a4.88,4.88,0,0,1-4.25-2.37c-1.8-3.36-15-29.19-15.49-30.22-.1-.2-.08-.89.79-.89,3.51,0,7,0,10.52,0,2.44,0,4.25.91,5.18,2.64,1.31,2.42,15.47,30.5,15.59,30.9Z" fill="#2b3036"/><path d="M228.34,359.76c-4.27,0-8.34.12-12.34-.05a4.88,4.88,0,0,1-4.25-2.37c-1.8-3.36-15-29.19-15.49-30.22-.11-.2-.08-.89.79-.89,3.51,0,7,0,10.52,0,2.44,0,4.25.91,5.18,2.64,1.31,2.42,15.47,30.5,15.59,30.9Z" fill="#2b3036"/><path d="M242,326.34h0c-.51-.09-3.85-.13-7.18-.14a5.76,5.76,0,0,0-5.34,3.34c-1.63,3.1-3.18,6.25-4.77,9.38a.76.76,0,0,0,.65,1.14c.51.09,3.85.13,7.18.14a5.75,5.75,0,0,0,5.34-3.34c1.63-3.1,3.18-6.25,4.77-9.38a.76.76,0,0,0-.65-1.14Z" fill="#2b3036"/><path d="M79.3,110.68a10.58,10.58,0,0,1-1.69-.14,10.86,10.86,0,0,1,4.64,3.2.11.11,0,0,1,0,.13.11.11,0,0,1-.12,0A14,14,0,0,1,77.62,112a6,6,0,0,1-1.47-1.38c0,.51,0,1.8,0,2.48s0,.78,0,.82a.41.41,0,0,1-.3.15.49.49,0,0,1-.29-.13s0,0,0-.89c0-.67.06-1.93,0-2.43A5.93,5.93,0,0,1,74.16,112a13.94,13.94,0,0,1-4.51,1.88.11.11,0,0,1-.12,0,.11.11,0,0,1,0-.13,10.89,10.89,0,0,1,4.64-3.2,10.41,10.41,0,0,1-8.54-2.43.11.11,0,0,1,0-.12.11.11,0,0,1,.09-.08,12.84,12.84,0,0,1,1.59-.09A19.86,19.86,0,0,1,74,109.16a17.86,17.86,0,0,1-3.47-2.53,14.59,14.59,0,0,1-4.3-7.44.12.12,0,0,1,0-.12.11.11,0,0,1,.12,0,25,25,0,0,1,8.81,9.43,17.88,17.88,0,0,1-.87-4.07,20.73,20.73,0,0,1,1.42-9.6.12.12,0,0,1,.11-.07.11.11,0,0,1,.1.07,20.72,20.72,0,0,1,1.42,9.6,18,18,0,0,1-.86,4.07,25,25,0,0,1,8.8-9.43.11.11,0,0,1,.12,0,.11.11,0,0,1,0,.12,14.59,14.59,0,0,1-4.3,7.44,17.86,17.86,0,0,1-3.47,2.53,19.86,19.86,0,0,1,6.74-1.34,12.91,12.91,0,0,1,1.59.09.12.12,0,0,1,.09.08.11.11,0,0,1,0,.12A10.62,10.62,0,0,1,79.3,110.68Z" fill="#a5c09f"/><rect x="64.95" y="115.22" width="21.84" height="1.77" rx="0.62" ry="0.62" fill="#6b141b"/><path d="M85.78,118l-2.87,13.67a.36.36,0,0,1-.36.29H69.18a.36.36,0,0,1-.36-.29L66,118a.37.37,0,0,1,.36-.44H85.43A.37.37,0,0,1,85.78,118Z" fill="#6b141b"/><path d="M45.36,110.68a10.66,10.66,0,0,1-1.7-.14,10.89,10.89,0,0,1,4.64,3.2.11.11,0,0,1,0,.13.11.11,0,0,1-.12,0A13.94,13.94,0,0,1,43.67,112a6,6,0,0,1-1.47-1.38c0,.51,0,1.8,0,2.48s0,.78,0,.82a.42.42,0,0,1-.3.15.49.49,0,0,1-.29-.13s0,0,0-.89c0-.67.06-1.93,0-2.43A5.93,5.93,0,0,1,40.21,112a14,14,0,0,1-4.51,1.88.11.11,0,0,1-.12,0,.11.11,0,0,1,0-.13,10.85,10.85,0,0,1,4.64-3.2,10.41,10.41,0,0,1-8.54-2.43.11.11,0,0,1,0-.12.12.12,0,0,1,.09-.08,12.91,12.91,0,0,1,1.59-.09,19.86,19.86,0,0,1,6.74,1.34,17.86,17.86,0,0,1-3.47-2.53,14.59,14.59,0,0,1-4.3-7.44.11.11,0,0,1,0-.12.11.11,0,0,1,.12,0,25,25,0,0,1,8.8,9.43,18.09,18.09,0,0,1-.86-4.07,20.73,20.73,0,0,1,1.42-9.6.11.11,0,0,1,.1-.07.12.12,0,0,1,.11.07,20.76,20.76,0,0,1,1.42,9.6,17.79,17.79,0,0,1-.87,4.07,25.05,25.05,0,0,1,8.81-9.43.11.11,0,0,1,.12,0,.11.11,0,0,1,0,.12,14.59,14.59,0,0,1-4.3,7.44,17.86,17.86,0,0,1-3.47,2.53,19.86,19.86,0,0,1,6.73-1.34,12.84,12.84,0,0,1,1.59.09.11.11,0,0,1,.09.08.11.11,0,0,1,0,.12A10.62,10.62,0,0,1,45.36,110.68Z" fill="#a5c09f"/><rect x="30.94" y="115.22" width="21.84" height="1.77" rx="0.62" ry="0.62" fill="#6b141b"/><path d="M51.77,118,48.9,131.66a.36.36,0,0,1-.36.29H35.17a.36.36,0,0,1-.36-.29L31.94,118a.37.37,0,0,1,.36-.44H51.42A.37.37,0,0,1,51.77,118Z" fill="#6b141b"/><path d="M113.25,110.68a10.58,10.58,0,0,1-1.69-.14,10.89,10.89,0,0,1,4.64,3.2.11.11,0,0,1,0,.13.11.11,0,0,1-.12,0,14,14,0,0,1-4.51-1.88,6,6,0,0,1-1.47-1.38c0,.51,0,1.8,0,2.48s0,.78,0,.82a.42.42,0,0,1-.3.15.49.49,0,0,1-.29-.13s0,0,0-.89c0-.67.06-1.93,0-2.43a5.86,5.86,0,0,1-1.47,1.38,13.94,13.94,0,0,1-4.51,1.88.11.11,0,0,1-.12,0,.11.11,0,0,1,0-.13,10.89,10.89,0,0,1,4.64-3.2,10.41,10.41,0,0,1-8.54-2.43.11.11,0,0,1,0-.12.11.11,0,0,1,.09-.08,12.87,12.87,0,0,1,1.59-.09,19.84,19.84,0,0,1,6.73,1.34,17.86,17.86,0,0,1-3.47-2.53,14.56,14.56,0,0,1-4.3-7.44.11.11,0,0,1,0-.12.11.11,0,0,1,.12,0,25,25,0,0,1,8.81,9.43,17.88,17.88,0,0,1-.87-4.07,20.78,20.78,0,0,1,1.43-9.6.11.11,0,0,1,.21,0,20.77,20.77,0,0,1,1.43,9.6,18,18,0,0,1-.87,4.07,25,25,0,0,1,8.81-9.43.11.11,0,0,1,.12,0,.11.11,0,0,1,0,.12,14.56,14.56,0,0,1-4.3,7.44,17.86,17.86,0,0,1-3.47,2.53,19.82,19.82,0,0,1,6.73-1.34,12.91,12.91,0,0,1,1.59.09.11.11,0,0,1,.09.08.11.11,0,0,1,0,.12A10.63,10.63,0,0,1,113.25,110.68Z" fill="#a5c09f"/><path d="M119.79,118l-2.87,13.67a.36.36,0,0,1-.36.29H103.19a.36.36,0,0,1-.35-.29L100,118a.36.36,0,0,1,.35-.44h19.12A.37.37,0,0,1,119.79,118Z" fill="#6b141b"/><rect x="98.96" y="115.22" width="21.84" height="1.77" rx="0.62" ry="0.62" fill="#6b141b"/><circle cx="75.87" cy="113.36" r="56.84" fill="none" stroke="#a5c09f" stroke-miterlimit="10" stroke-width="1.37"/><line x1="46.53" y1="124.56" x2="109.41" y2="124.56" fill="none" stroke="#6b141b" stroke-miterlimit="10" stroke-width="1.37"/><path d="M209.36,110.68a10.58,10.58,0,0,1-1.69-.14,10.86,10.86,0,0,1,4.64,3.2.11.11,0,0,1,0,.13.11.11,0,0,1-.12,0,14,14,0,0,1-4.51-1.88,6,6,0,0,1-1.47-1.38c0,.51,0,1.8,0,2.48s0,.78,0,.82a.41.41,0,0,1-.3.15.49.49,0,0,1-.29-.13s0,0,0-.89c0-.67.06-1.93,0-2.43a5.93,5.93,0,0,1-1.47,1.38,13.94,13.94,0,0,1-4.51,1.88.11.11,0,0,1-.12,0,.11.11,0,0,1,0-.13,10.89,10.89,0,0,1,4.64-3.2,10.41,10.41,0,0,1-8.54-2.43.11.11,0,0,1,0-.12.11.11,0,0,1,.09-.08,12.84,12.84,0,0,1,1.59-.09,19.86,19.86,0,0,1,6.73,1.34,17.86,17.86,0,0,1-3.47-2.53,14.59,14.59,0,0,1-4.3-7.44.12.12,0,0,1,0-.12.11.11,0,0,1,.12,0,25,25,0,0,1,8.81,9.43,17.88,17.88,0,0,1-.87-4.07,20.73,20.73,0,0,1,1.42-9.6.12.12,0,0,1,.11-.07.11.11,0,0,1,.1.07,20.72,20.72,0,0,1,1.42,9.6,18,18,0,0,1-.86,4.07,25,25,0,0,1,8.8-9.43.11.11,0,0,1,.12,0,.11.11,0,0,1,0,.12,14.59,14.59,0,0,1-4.3,7.44,17.86,17.86,0,0,1-3.47,2.53,19.86,19.86,0,0,1,6.74-1.34,12.91,12.91,0,0,1,1.59.09.12.12,0,0,1,.09.08.11.11,0,0,1,0,.12A10.62,10.62,0,0,1,209.36,110.68Z" fill="#a5c09f"/><rect x="195.01" y="115.22" width="21.84" height="1.77" rx="0.62" ry="0.62" fill="#ffeb36"/><path d="M215.85,118,213,131.66a.36.36,0,0,1-.36.29H199.25a.36.36,0,0,1-.36-.29L196,118a.37.37,0,0,1,.36-.44h19.12A.37.37,0,0,1,215.85,118Z" fill="#ffeb36"/><path d="M175.42,110.68a10.66,10.66,0,0,1-1.7-.14,10.89,10.89,0,0,1,4.64,3.2.11.11,0,0,1,0,.13.11.11,0,0,1-.12,0,13.94,13.94,0,0,1-4.51-1.88,6,6,0,0,1-1.47-1.38c0,.51,0,1.8,0,2.48s0,.78,0,.82a.42.42,0,0,1-.3.15.49.49,0,0,1-.29-.13s0,0,0-.89c0-.67.06-1.93,0-2.43a5.93,5.93,0,0,1-1.47,1.38,14,14,0,0,1-4.51,1.88.11.11,0,0,1-.12,0,.11.11,0,0,1,0-.13,10.85,10.85,0,0,1,4.64-3.2,10.41,10.41,0,0,1-8.54-2.43.11.11,0,0,1,0-.12.12.12,0,0,1,.09-.08,12.91,12.91,0,0,1,1.59-.09,19.86,19.86,0,0,1,6.74,1.34,17.86,17.86,0,0,1-3.47-2.53,14.59,14.59,0,0,1-4.3-7.44.11.11,0,0,1,0-.12.11.11,0,0,1,.12,0,25,25,0,0,1,8.8,9.43,18.09,18.09,0,0,1-.86-4.07,20.73,20.73,0,0,1,1.42-9.6.11.11,0,0,1,.1-.07.12.12,0,0,1,.11.07,20.76,20.76,0,0,1,1.42,9.6,17.79,17.79,0,0,1-.87,4.07,25.05,25.05,0,0,1,8.81-9.43.11.11,0,0,1,.12,0,.11.11,0,0,1,0,.12,14.59,14.59,0,0,1-4.3,7.44,17.86,17.86,0,0,1-3.47,2.53,19.86,19.86,0,0,1,6.73-1.34,12.84,12.84,0,0,1,1.59.09.11.11,0,0,1,.09.08.11.11,0,0,1,0,.12A10.62,10.62,0,0,1,175.42,110.68Z" fill="#a5c09f"/><rect x="161" y="115.22" width="21.84" height="1.77" rx="0.62" ry="0.62" fill="#ffeb36"/><path d="M181.84,118,179,131.66a.36.36,0,0,1-.36.29H165.24a.36.36,0,0,1-.36-.29L162,118a.37.37,0,0,1,.36-.44h19.12A.37.37,0,0,1,181.84,118Z" fill="#ffeb36"/><path d="M243.31,110.68a10.58,10.58,0,0,1-1.69-.14,10.89,10.89,0,0,1,4.64,3.2.11.11,0,0,1,0,.13.11.11,0,0,1-.12,0,14,14,0,0,1-4.51-1.88,6,6,0,0,1-1.47-1.38c0,.51,0,1.8,0,2.48s0,.78,0,.82a.42.42,0,0,1-.3.15.49.49,0,0,1-.29-.13s0,0,0-.89c0-.67.06-1.93,0-2.43a5.86,5.86,0,0,1-1.47,1.38,13.94,13.94,0,0,1-4.51,1.88.11.11,0,0,1-.12,0,.11.11,0,0,1,0-.13,10.89,10.89,0,0,1,4.64-3.2,10.41,10.41,0,0,1-8.54-2.43.11.11,0,0,1,0-.12.11.11,0,0,1,.09-.08,12.87,12.87,0,0,1,1.59-.09,19.84,19.84,0,0,1,6.73,1.34,17.86,17.86,0,0,1-3.47-2.53,14.56,14.56,0,0,1-4.3-7.44.11.11,0,0,1,0-.12.11.11,0,0,1,.12,0,25,25,0,0,1,8.81,9.43,17.88,17.88,0,0,1-.87-4.07,20.78,20.78,0,0,1,1.43-9.6.11.11,0,0,1,.21,0,20.77,20.77,0,0,1,1.43,9.6,18,18,0,0,1-.87,4.07,25,25,0,0,1,8.81-9.43.11.11,0,0,1,.12,0,.11.11,0,0,1,0,.12,14.56,14.56,0,0,1-4.3,7.44,17.86,17.86,0,0,1-3.47,2.53,19.82,19.82,0,0,1,6.73-1.34,12.91,12.91,0,0,1,1.59.09.11.11,0,0,1,.09.08.11.11,0,0,1,0,.12A10.63,10.63,0,0,1,243.31,110.68Z" fill="#a5c09f"/><path d="M249.85,118,247,131.66a.36.36,0,0,1-.36.29H233.25a.36.36,0,0,1-.35-.29L230,118a.36.36,0,0,1,.35-.44H249.5A.37.37,0,0,1,249.85,118Z" fill="#ffeb36"/><rect x="229.02" y="115.22" width="21.84" height="1.77" rx="0.62" ry="0.62" fill="#ffeb36"/><circle cx="205.93" cy="113.36" r="56.84" fill="none" stroke="#a5c09f" stroke-miterlimit="10" stroke-width="1.37"/><line x1="171.92" y1="124.56" x2="234.81" y2="124.56" fill="none" stroke="#ffeb36" stroke-miterlimit="10" stroke-width="1.37"/><path d="M339.43,110.68a10.58,10.58,0,0,1-1.69-.14,10.86,10.86,0,0,1,4.64,3.2.11.11,0,0,1,0,.13.11.11,0,0,1-.12,0,14,14,0,0,1-4.51-1.88,6,6,0,0,1-1.47-1.38c0,.51,0,1.8,0,2.48s0,.78,0,.82a.41.41,0,0,1-.3.15.49.49,0,0,1-.29-.13s0,0,0-.89c0-.67.06-1.93,0-2.43a5.93,5.93,0,0,1-1.47,1.38,13.94,13.94,0,0,1-4.51,1.88.11.11,0,0,1-.12,0,.11.11,0,0,1,0-.13,10.89,10.89,0,0,1,4.64-3.2,10.41,10.41,0,0,1-8.54-2.43.11.11,0,0,1,0-.12.11.11,0,0,1,.09-.08,12.84,12.84,0,0,1,1.59-.09,19.86,19.86,0,0,1,6.73,1.34,17.86,17.86,0,0,1-3.47-2.53,14.59,14.59,0,0,1-4.3-7.44.12.12,0,0,1,0-.12.11.11,0,0,1,.12,0,25,25,0,0,1,8.81,9.43,17.88,17.88,0,0,1-.87-4.07,20.73,20.73,0,0,1,1.42-9.6.12.12,0,0,1,.11-.07.11.11,0,0,1,.1.07,20.72,20.72,0,0,1,1.42,9.6,18,18,0,0,1-.86,4.07,25,25,0,0,1,8.8-9.43.11.11,0,0,1,.12,0,.11.11,0,0,1,0,.12,14.59,14.59,0,0,1-4.3,7.44,17.86,17.86,0,0,1-3.47,2.53,19.86,19.86,0,0,1,6.74-1.34,12.91,12.91,0,0,1,1.59.09.12.12,0,0,1,.09.08.11.11,0,0,1,0,.12A10.62,10.62,0,0,1,339.43,110.68Z" fill="#a5c09f"/><rect x="325.08" y="115.22" width="21.84" height="1.77" rx="0.62" ry="0.62" fill="#2b30ff"/><path d="M345.91,118,343,131.66a.36.36,0,0,1-.36.29H329.31a.36.36,0,0,1-.36-.29L326.08,118a.37.37,0,0,1,.36-.44h19.12A.37.37,0,0,1,345.91,118Z" fill="#2b30ff"/><path d="M305.48,110.68a10.66,10.66,0,0,1-1.7-.14,10.89,10.89,0,0,1,4.64,3.2.11.11,0,0,1,0,.13.11.11,0,0,1-.12,0A13.94,13.94,0,0,1,303.8,112a6,6,0,0,1-1.47-1.38c0,.51,0,1.8,0,2.48s0,.78,0,.82a.42.42,0,0,1-.3.15.49.49,0,0,1-.29-.13s0,0,0-.89c0-.67.06-1.93,0-2.43a5.93,5.93,0,0,1-1.47,1.38,14,14,0,0,1-4.51,1.88.11.11,0,0,1-.12,0,.11.11,0,0,1,0-.13,10.85,10.85,0,0,1,4.64-3.2,10.41,10.41,0,0,1-8.54-2.43.11.11,0,0,1,0-.12.12.12,0,0,1,.09-.08,12.91,12.91,0,0,1,1.59-.09,19.86,19.86,0,0,1,6.74,1.34,17.86,17.86,0,0,1-3.47-2.53,14.59,14.59,0,0,1-4.3-7.44.11.11,0,0,1,0-.12.11.11,0,0,1,.12,0,25,25,0,0,1,8.8,9.43,18.09,18.09,0,0,1-.86-4.07,20.73,20.73,0,0,1,1.42-9.6.11.11,0,0,1,.1-.07.12.12,0,0,1,.11.07,20.76,20.76,0,0,1,1.42,9.6,17.79,17.79,0,0,1-.87,4.07,25.05,25.05,0,0,1,8.81-9.43.11.11,0,0,1,.12,0,.11.11,0,0,1,0,.12,14.59,14.59,0,0,1-4.3,7.44,17.86,17.86,0,0,1-3.47,2.53,19.86,19.86,0,0,1,6.73-1.34,12.84,12.84,0,0,1,1.59.09.11.11,0,0,1,.09.08.11.11,0,0,1,0,.12A10.62,10.62,0,0,1,305.48,110.68Z" fill="#a5c09f"/><rect x="291.07" y="115.22" width="21.84" height="1.77" rx="0.62" ry="0.62" fill="#2b30ff"/><path d="M311.9,118,309,131.66a.36.36,0,0,1-.36.29H295.3a.36.36,0,0,1-.36-.29L292.07,118a.37.37,0,0,1,.36-.44h19.12A.37.37,0,0,1,311.9,118Z" fill="#2b30ff"/><path d="M373.37,110.68a10.58,10.58,0,0,1-1.69-.14,10.89,10.89,0,0,1,4.64,3.2.11.11,0,0,1,0,.13.11.11,0,0,1-.12,0,14,14,0,0,1-4.51-1.88,6,6,0,0,1-1.47-1.38c0,.51,0,1.8,0,2.48s0,.78,0,.82a.42.42,0,0,1-.3.15.49.49,0,0,1-.29-.13s0,0,0-.89c0-.67.06-1.93,0-2.43a5.86,5.86,0,0,1-1.47,1.38,13.94,13.94,0,0,1-4.51,1.88.11.11,0,0,1-.12,0,.11.11,0,0,1,0-.13,10.89,10.89,0,0,1,4.64-3.2,10.41,10.41,0,0,1-8.54-2.43.11.11,0,0,1,0-.12.11.11,0,0,1,.09-.08,12.87,12.87,0,0,1,1.59-.09,19.84,19.84,0,0,1,6.73,1.34,17.86,17.86,0,0,1-3.47-2.53,14.56,14.56,0,0,1-4.3-7.44.11.11,0,0,1,0-.12.11.11,0,0,1,.12,0,25,25,0,0,1,8.81,9.43,17.88,17.88,0,0,1-.87-4.07,20.78,20.78,0,0,1,1.43-9.6.11.11,0,0,1,.21,0,20.77,20.77,0,0,1,1.43,9.6,18,18,0,0,1-.87,4.07,25,25,0,0,1,8.81-9.43.11.11,0,0,1,.12,0,.11.11,0,0,1,0,.12,14.56,14.56,0,0,1-4.3,7.44,17.86,17.86,0,0,1-3.47,2.53,19.82,19.82,0,0,1,6.73-1.34,12.91,12.91,0,0,1,1.59.09.11.11,0,0,1,.09.08.11.11,0,0,1,0,.12A10.63,10.63,0,0,1,373.37,110.68Z" fill="#a5c09f"/><path d="M379.92,118,377,131.66a.36.36,0,0,1-.36.29H363.32a.36.36,0,0,1-.35-.29L360.09,118a.36.36,0,0,1,.35-.44h19.12A.37.37,0,0,1,379.92,118Z" fill="#2b30ff"/><rect x="359.08" y="115.22" width="21.84" height="1.77" rx="0.62" ry="0.62" fill="#2b30ff"/><circle cx="336" cy="113.36" r="56.84" fill="none" stroke="#a5c09f" stroke-miterlimit="10" stroke-width="1.37"/><line x1="305.78" y1="124.56" x2="368.67" y2="124.56" fill="none" stroke="#2b30ff" stroke-miterlimit="10" stroke-width="1.37"/><path d="M176.18,609.29v74.49h.58V609.29Z" fill="#2b3036"/><path d="M142.17,597.54h0l.42.43C142.45,597.82,142.32,597.68,142.17,597.54Zm3.6,45.21v33.74h0V642.76Z" fill="#2b3036"/><path d="M64,577.44v99H60.49V609.29h-41v74.49h153V577.44ZM51.8,666H28.41V633.58H51.8Zm64.7,10.52H91.55V642.76H116.5Zm29.28,0H120.84V642.76h24.94ZM133.4,618.73H104a12.41,12.41,0,0,1-8.79-3.63c-.28-.28-.55-.58-.8-.88a8.93,8.93,0,0,1-.72-1c-.12-.16-.23-.33-.33-.5a5.08,5.08,0,0,1-.29-.52,4.82,4.82,0,0,1-.27-.54c-.08-.15-.15-.32-.22-.48l0-.08a4.21,4.21,0,0,1-.21-.55,8.39,8.39,0,0,1-.36-1.17,5.32,5.32,0,0,1-.14-.6l-.11-.61a12.29,12.29,0,0,1,0-3.79,3.93,3.93,0,0,1,.11-.61,5.32,5.32,0,0,1,.14-.6,8.28,8.28,0,0,1,.36-1.17,4.72,4.72,0,0,1,.21-.55l0-.08c.07-.16.14-.33.22-.48a4.76,4.76,0,0,1,.27-.54,4.67,4.67,0,0,1,.29-.52,5.54,5.54,0,0,1,.33-.5,9.21,9.21,0,0,1,.72-1c.25-.3.52-.6.8-.88s.57-.55.88-.8.47-.37.72-.54l.34-.24c.26-.18.53-.33.8-.49l.39-.21.57-.27c.27-.12.54-.23.81-.33a11.76,11.76,0,0,1,1.17-.36l.55-.13.55-.11.26,0c.35,0,.7-.09,1.06-.1h30.1a12.36,12.36,0,0,1,8.77,3.64h0c.14.14.27.28.41.43l.39.45a10.77,10.77,0,0,1,.95,1.32c.12.18.23.37.33.55a8,8,0,0,1,.46.91c.07.16.14.31.2.47s.15.39.22.59.19.57.27.87.13.5.18.76a10.56,10.56,0,0,1,.2,1.45c0,.13,0,.27,0,.41s0,.37,0,.56A12.41,12.41,0,0,1,133.4,618.73Z" fill="#2b3036"/><rect x="176.18" y="609.29" width="41" height="74.49" fill="#2b3036"/><rect x="120.84" y="642.76" width="24.93" height="33.74" fill="#88987f"/><rect x="145.77" y="642.76" width="0.01" height="33.74" fill="#88987f"/><rect x="91.56" y="642.76" width="24.94" height="33.74" fill="#88987f"/><rect x="28.41" y="633.58" width="23.4" height="32.39" fill="#88987f"/><path d="M145.81,606.32a12.41,12.41,0,0,1-12.42,12.41H104a12.41,12.41,0,0,1-8.79-3.63c-.28-.28-.55-.58-.8-.88a10.92,10.92,0,0,1-.72-1l-.33-.5-.29-.52c-.1-.18-.19-.35-.27-.54s-.15-.32-.22-.48l0-.08c-.07-.18-.15-.36-.21-.55a11.37,11.37,0,0,1-.36-1.17c-.05-.2-.1-.4-.14-.6l-.11-.61a13,13,0,0,1,0-3.79l.11-.61c0-.2.09-.4.14-.6a11.77,11.77,0,0,1,.36-1.17c.07-.18.14-.37.21-.55l0-.08c.07-.16.14-.33.22-.48s.18-.36.27-.54.19-.35.29-.52l.33-.5a10.92,10.92,0,0,1,.72-1c.25-.3.52-.6.8-.88s.57-.55.88-.8.47-.37.72-.54l.34-.24c.26-.18.53-.33.8-.49l.39-.21.57-.27c.27-.12.54-.23.81-.33a11.76,11.76,0,0,1,1.17-.36l.55-.13.55-.11.26,0c.35,0,.7-.09,1.06-.1h30.1a12.36,12.36,0,0,1,8.77,3.64l.42.43.39.45a10.77,10.77,0,0,1,.95,1.32c.12.18.23.37.33.55a8,8,0,0,1,.46.91c.07.16.14.31.2.47s.15.39.22.59.19.57.27.87.13.5.18.76a10.56,10.56,0,0,1,.2,1.45c0,.13,0,.27,0,.41S145.81,606.13,145.81,606.32Z" fill="#88987f"/><path d="M142.58,598l-.42-.43h0C142.32,597.68,142.45,597.82,142.58,598Z" fill="#88987f"/><path d="M141.22,523.37H123.63a.87.87,0,0,1-.87-.87V504.9a1.46,1.46,0,0,0-1.46-1.46H110.52a1.46,1.46,0,0,0-1.46,1.46v17.59a.87.87,0,0,1-.87.87H90.6a1.46,1.46,0,0,0-1.46,1.46V535.6a1.46,1.46,0,0,0,1.46,1.46h17.59a.87.87,0,0,1,.87.87v17.59a1.46,1.46,0,0,0,1.46,1.46h10.77a1.46,1.46,0,0,0,1.46-1.46V537.94a.87.87,0,0,1,.87-.87h17.59a1.46,1.46,0,0,0,1.46-1.46V524.83A1.46,1.46,0,0,0,141.22,523.37Zm-18.13,8.51a7.26,7.26,0,0,1-6,1.7,7.54,7.54,0,0,1,3.24,2.24.08.08,0,0,1,0,.09.07.07,0,0,1-.08,0,9.9,9.9,0,0,1-3.16-1.32,4.25,4.25,0,0,1-1-1c0,.35,0,1.26,0,1.73s0,.55,0,.58a.28.28,0,0,1-.21.1.34.34,0,0,1-.21-.1s0,0,0-.61,0-1.35,0-1.7a4.34,4.34,0,0,1-1,1,9.85,9.85,0,0,1-3.15,1.32.08.08,0,0,1-.09,0,.08.08,0,0,1,0-.09,7.52,7.52,0,0,1,3.25-2.24,7.52,7.52,0,0,1-1.19.1,7.38,7.38,0,0,1-4.78-1.8.08.08,0,0,1,0-.08.07.07,0,0,1,.07-.05,9.15,9.15,0,0,1,1.12-.07,13.89,13.89,0,0,1,4.7.94,12.33,12.33,0,0,1-2.42-1.77,10.19,10.19,0,0,1-3-5.2.09.09,0,0,1,0-.08.07.07,0,0,1,.08,0,17.41,17.41,0,0,1,6.15,6.59,12.64,12.64,0,0,1-.61-2.85,14.48,14.48,0,0,1,1-6.71.07.07,0,0,1,.07-.05.07.07,0,0,1,.07.05,14.48,14.48,0,0,1,1,6.71,12.33,12.33,0,0,1-.61,2.85,17.47,17.47,0,0,1,6.15-6.59.08.08,0,0,1,.09,0,.09.09,0,0,1,0,.08,10.23,10.23,0,0,1-3,5.2,12.35,12.35,0,0,1-2.43,1.77,13.9,13.9,0,0,1,4.71-.94,9,9,0,0,1,1.11.07.07.07,0,0,1,.07.05A.07.07,0,0,1,123.09,531.88Z" fill="#a5c09f" stroke="#a5c09f" stroke-miterlimit="10" stroke-width="0.41"/><circle cx="196.67" cy="642.05" r="9.65" fill="#88987f"/><path d="M376.58,609.29H354.74v67.21h-3.52V608.25a30.81,30.81,0,0,0-30.82-30.81H273.53a30.81,30.81,0,0,0-30.82,30.81v75.52h153V628.46A19.17,19.17,0,0,0,376.58,609.29Zm-82.16,67.21H269.46V642.76h24.95Zm29.27,0H298.74V642.76h24.94ZM320,615.1a12.52,12.52,0,0,1-8.77,3.63H281.85a12.41,12.41,0,0,1-12.05-9.44,12.24,12.24,0,0,1-.36-3,12.42,12.42,0,0,1,12.42-12.42h29.43A12.41,12.41,0,0,1,320,615.1ZM386.84,666H363.44V633.58h23.41Z" fill="#a5c09f"/><rect x="363.44" y="633.58" width="23.41" height="32.39" fill="#88987f"/><rect x="298.74" y="642.76" width="24.94" height="33.74" fill="#88987f"/><rect x="269.46" y="642.76" width="24.95" height="33.74" fill="#88987f"/><path d="M323.68,606.32a12.35,12.35,0,0,1-6.79,11.05,12.25,12.25,0,0,1-5.62,1.35H281.85a12.41,12.41,0,0,1-12.05-9.44,12.24,12.24,0,0,1-.36-3,12.42,12.42,0,0,1,12.42-12.42h29.43a12.41,12.41,0,0,1,12.41,12.42Z" fill="#88987f"/><path d="M319.23,541.35l-10.52-10.52a.88.88,0,0,1,0-1.24l10.52-10.52,1.92-1.92a1.44,1.44,0,0,0,0-2.07l-1.92-1.92-5.69-5.7a1.45,1.45,0,0,0-2.07,0L299,519.91a.89.89,0,0,1-1.24,0l-12.43-12.44a1.46,1.46,0,0,0-2.08,0l-7.62,7.62a1.47,1.47,0,0,0,0,2.07L288.1,529.6a.86.86,0,0,1,0,1.24l-12.44,12.44a1.47,1.47,0,0,0,0,2.07l7.62,7.62a1.46,1.46,0,0,0,2.08,0l12.43-12.44a.88.88,0,0,1,1.24,0L311.48,553a1.45,1.45,0,0,0,2.07,0l5.69-5.69,1.92-1.92a1.44,1.44,0,0,0,0-2.07Zm-13.67-9.48a7.37,7.37,0,0,1-4.78,1.8,7.63,7.63,0,0,1-1.18-.09,7.49,7.49,0,0,1,3.23,2.24.06.06,0,0,1,0,.09.07.07,0,0,1-.08,0,10,10,0,0,1-3.16-1.32,4.06,4.06,0,0,1-1-1c0,.35,0,1.24,0,1.7s0,.6,0,.62a.32.32,0,0,1-.2.1.31.31,0,0,1-.21-.11s0,0,0-.57,0-1.38,0-1.73a4.4,4.4,0,0,1-1,1,9.89,9.89,0,0,1-3.15,1.32.08.08,0,0,1-.09,0,.06.06,0,0,1,0-.09,7.53,7.53,0,0,1,3.24-2.24,7.85,7.85,0,0,1-1.18.09,7.37,7.37,0,0,1-4.78-1.8.08.08,0,0,1,0-.08s0,0,.08,0a9,9,0,0,1,1.11-.07,13.89,13.89,0,0,1,4.71.94,12.52,12.52,0,0,1-2.43-1.77,10.1,10.1,0,0,1-3-5.2.08.08,0,0,1,0-.08.09.09,0,0,1,.09,0,17.52,17.52,0,0,1,6.15,6.59,12.23,12.23,0,0,1-.61-2.85,14.56,14.56,0,0,1,1-6.71s0-.05.07-.05a.1.1,0,0,1,.08.05,14.45,14.45,0,0,1,1,6.71,12.7,12.7,0,0,1-.6,2.85,17.46,17.46,0,0,1,6.15-6.59.1.1,0,0,1,.09,0s0,.05,0,.08a10.22,10.22,0,0,1-3,5.2,12.29,12.29,0,0,1-2.43,1.77,14,14,0,0,1,4.71-.94,8.94,8.94,0,0,1,1.11.07.08.08,0,0,1,.07,0A.07.07,0,0,1,305.56,531.88Z" fill="#2b3036"/><line x1="207" y1="287.62" x2="207" y2="170.2" fill="none" stroke="#a5c09f" stroke-miterlimit="10" stroke-width="1.37"/><polyline points="336 170.19 336 222.28 75.87 222.28 75.87 170.19" fill="none" stroke="#a5c09f" stroke-miterlimit="10" stroke-width="1.37"/><line x1="207" y1="287.62" x2="207" y2="170.2" fill="none" stroke="#a5c09f" stroke-miterlimit="10" stroke-width="1.37"/><polyline points="336 170.19 336 222.28 75.87 222.28 75.87 170.19" fill="none" stroke="#a5c09f" stroke-miterlimit="10" stroke-width="1.37"/><line x1="207" y1="376.13" x2="207" y2="441.91" fill="none" stroke="#a5c09f" stroke-miterlimit="10" stroke-width="1.37"/><polyline points="297.97 473.54 297.97 441.46 115.9 441.46 115.9 473.54" fill="none" stroke="#a5c09f" stroke-miterlimit="10" stroke-width="1.37"/></svg>