<svg id="Layer_1" data-name="Layer 1" xmlns="http://www.w3.org/2000/svg" viewBox="0 0 414 736"><title>about-us-graphic-4</title><path d="M210.33,89.34a10.25,10.25,0,0,1-1.64-.13,10.53,10.53,0,0,1,4.5,3.1.1.1,0,0,1,0,.12.1.1,0,0,1-.12,0,13.54,13.54,0,0,1-4.37-1.82,5.8,5.8,0,0,1-1.43-1.34c0,.49,0,1.75,0,2.41s0,.76,0,.8a.4.4,0,0,1-.29.15.47.47,0,0,1-.28-.13s0,0,0-.86c0-.64.06-1.87,0-2.36a5.74,5.74,0,0,1-1.43,1.34A13.51,13.51,0,0,1,201,92.49a.11.11,0,0,1-.12,0,.1.1,0,0,1,0-.12,10.55,10.55,0,0,1,4.5-3.1,10.09,10.09,0,0,1-8.28-2.36.1.1,0,0,1,0-.11.11.11,0,0,1,.09-.08,12.44,12.44,0,0,1,1.54-.09,19.25,19.25,0,0,1,6.53,1.3,17.31,17.31,0,0,1-3.36-2.45,14.14,14.14,0,0,1-4.17-7.21.11.11,0,0,1,0-.11.1.1,0,0,1,.12,0,24.26,24.26,0,0,1,8.54,9.14,17.33,17.33,0,0,1-.84-3.95,20.1,20.1,0,0,1,1.38-9.3.11.11,0,0,1,.1-.07.11.11,0,0,1,.1.07,20.08,20.08,0,0,1,1.38,9.3,17.45,17.45,0,0,1-.84,3.95,24.26,24.26,0,0,1,8.53-9.14.1.1,0,0,1,.12,0,.11.11,0,0,1,0,.11,14.14,14.14,0,0,1-4.17,7.21,17.31,17.31,0,0,1-3.36,2.45,19.25,19.25,0,0,1,6.53-1.3,12.51,12.51,0,0,1,1.54.09.12.12,0,0,1,.09.08.1.1,0,0,1,0,.11A10.29,10.29,0,0,1,210.33,89.34Z" fill="#a6c0a0"/><rect x="196.42" y="93.75" width="21.17" height="1.72" rx="0.6" ry="0.6" fill="#2c3136"/><path d="M216.61,96.44l-2.78,13.25a.35.35,0,0,1-.35.28h-13a.35.35,0,0,1-.35-.28l-2.78-13.25a.36.36,0,0,1,.35-.43h18.53A.36.36,0,0,1,216.61,96.44Z" fill="#2c3136"/><path d="M177.43,89.34a10.33,10.33,0,0,1-1.64-.13,10.55,10.55,0,0,1,4.5,3.1.1.1,0,0,1,0,.12.11.11,0,0,1-.12,0,13.51,13.51,0,0,1-4.37-1.82,5.8,5.8,0,0,1-1.43-1.34c0,.49,0,1.75,0,2.41s0,.76,0,.8a.41.41,0,0,1-.29.15.47.47,0,0,1-.28-.13s0,0,0-.86c0-.64.06-1.87,0-2.36a5.74,5.74,0,0,1-1.43,1.34,13.54,13.54,0,0,1-4.37,1.82.1.1,0,0,1-.12,0,.1.1,0,0,1,0-.12,10.52,10.52,0,0,1,4.5-3.1,10.09,10.09,0,0,1-8.28-2.36.1.1,0,0,1,0-.11.12.12,0,0,1,.09-.08,12.51,12.51,0,0,1,1.54-.09,19.25,19.25,0,0,1,6.53,1.3,17.31,17.31,0,0,1-3.36-2.45,14.14,14.14,0,0,1-4.17-7.21.11.11,0,0,1,0-.11.1.1,0,0,1,.12,0,24.24,24.24,0,0,1,8.53,9.14,17.53,17.53,0,0,1-.84-3.95A20.1,20.1,0,0,1,174,74a.11.11,0,0,1,.1-.07.11.11,0,0,1,.1.07,20.12,20.12,0,0,1,1.38,9.3,17.25,17.25,0,0,1-.84,3.95,24.28,24.28,0,0,1,8.54-9.14.1.1,0,0,1,.12,0,.11.11,0,0,1,0,.11,14.14,14.14,0,0,1-4.17,7.21,17.31,17.31,0,0,1-3.36,2.45,19.25,19.25,0,0,1,6.53-1.3,12.44,12.44,0,0,1,1.54.09.11.11,0,0,1,.09.08.1.1,0,0,1,0,.11A10.29,10.29,0,0,1,177.43,89.34Z" fill="#a6c0a0"/><rect x="163.45" y="93.75" width="21.17" height="1.72" rx="0.6" ry="0.6" fill="#2c3136"/><path d="M183.65,96.44l-2.78,13.25a.35.35,0,0,1-.35.28h-13a.35.35,0,0,1-.35-.28l-2.78-13.25a.36.36,0,0,1,.35-.43H183.3A.36.36,0,0,1,183.65,96.44Z" fill="#2c3136"/><path d="M243.23,89.34a10.25,10.25,0,0,1-1.64-.13,10.55,10.55,0,0,1,4.5,3.1.11.11,0,0,1,0,.12.1.1,0,0,1-.12,0,13.57,13.57,0,0,1-4.37-1.82,5.8,5.8,0,0,1-1.43-1.34c0,.49,0,1.75,0,2.41s0,.76,0,.8a.41.41,0,0,1-.29.15.47.47,0,0,1-.28-.13s0,0,0-.86c0-.64.06-1.87,0-2.36a5.68,5.68,0,0,1-1.43,1.34,13.51,13.51,0,0,1-4.37,1.82.1.1,0,0,1-.12,0,.11.11,0,0,1,0-.12,10.55,10.55,0,0,1,4.5-3.1A10.09,10.09,0,0,1,230,86.85a.11.11,0,0,1,0-.11.11.11,0,0,1,.09-.08,12.48,12.48,0,0,1,1.54-.09,19.23,19.23,0,0,1,6.53,1.3,17.31,17.31,0,0,1-3.36-2.45,14.11,14.11,0,0,1-4.16-7.21.11.11,0,0,1,0-.11.1.1,0,0,1,.12,0,24.23,24.23,0,0,1,8.54,9.14,17.33,17.33,0,0,1-.84-3.95,20.14,20.14,0,0,1,1.38-9.3.11.11,0,0,1,.2,0,20.13,20.13,0,0,1,1.38,9.3,17.42,17.42,0,0,1-.84,3.95,24.25,24.25,0,0,1,8.54-9.14.1.1,0,0,1,.12,0,.11.11,0,0,1,0,.11,14.11,14.11,0,0,1-4.16,7.21,17.31,17.31,0,0,1-3.36,2.45,19.21,19.21,0,0,1,6.53-1.3,12.51,12.51,0,0,1,1.54.09.11.11,0,0,1,.09.08.11.11,0,0,1,0,.11A10.3,10.3,0,0,1,243.23,89.34Z" fill="#a6c0a0"/><path d="M249.57,96.44l-2.78,13.25a.35.35,0,0,1-.35.28h-13a.35.35,0,0,1-.34-.28l-2.78-13.25a.35.35,0,0,1,.34-.43h18.53A.35.35,0,0,1,249.57,96.44Z" fill="#2c3136"/><rect x="229.38" y="93.75" width="21.17" height="1.72" rx="0.6" ry="0.6" fill="#2c3136"/><circle cx="207" cy="91.94" r="55.09" fill="none" stroke="#a6c0a0" stroke-miterlimit="10" stroke-width="1.33"/><line x1="174.04" y1="102.8" x2="234.99" y2="102.8" fill="none" stroke="#2c3136" stroke-miterlimit="10" stroke-width="1.33"/><path d="M44.78,485.16V545h59.83V485.16Zm49,36.73a19.33,19.33,0,0,1-15.86,4.52,20.2,20.2,0,0,1,8.62,6,.21.21,0,0,1,0,.24.21.21,0,0,1-.23.09,26.09,26.09,0,0,1-8.38-3.48,11.17,11.17,0,0,1-2.74-2.57c0,.94,0,3.35.08,4.61,0,1.46,0,1.46,0,1.53a.76.76,0,0,1-.55.28.91.91,0,0,1-.55-.26c-.06-.07-.06-.07,0-1.65,0-1.23.12-3.59.08-4.52a11,11,0,0,1-2.74,2.57,26,26,0,0,1-8.38,3.48.2.2,0,0,1-.21-.33,20.25,20.25,0,0,1,8.63-6,19.34,19.34,0,0,1-15.86-4.52.18.18,0,0,1-.07-.21.2.2,0,0,1,.17-.15,24,24,0,0,1,3-.17,36.77,36.77,0,0,1,12.51,2.5,33.46,33.46,0,0,1-6.44-4.7,27.09,27.09,0,0,1-8-13.82.22.22,0,0,1,.09-.22.2.2,0,0,1,.22,0c9.51,5.72,14.36,14,16.36,17.53a33.27,33.27,0,0,1-1.62-7.57,38.59,38.59,0,0,1,2.65-17.84.21.21,0,0,1,.2-.13.2.2,0,0,1,.19.13,38.47,38.47,0,0,1,2.65,17.83,33.17,33.17,0,0,1-1.61,7.57c2-3.55,6.86-11.8,16.36-17.52a.2.2,0,0,1,.22,0,.21.21,0,0,1,.09.22,27.09,27.09,0,0,1-8,13.82,33.26,33.26,0,0,1-6.44,4.7,36.78,36.78,0,0,1,12.51-2.5,24.19,24.19,0,0,1,3,.17.21.21,0,0,1,.17.15A.19.19,0,0,1,93.74,521.89Z" fill="#a6c0a0"/><path d="M169.17,584.33h0c-11.69,0-29.52,9.48-29.52,21.17v33.23H125.46V583.33a29.88,29.88,0,0,0-29.89-29.88H50.12a29.88,29.88,0,0,0-29.89,29.88v73.24H197.47V602.93C197.47,592.66,179.44,584.33,169.17,584.33Zm-98.8,65.18H46.17V616.79h24.2Zm28.39,0H74.56V616.79H98.75ZM95.23,590a12.14,12.14,0,0,1-8.51,3.52H58.18a12,12,0,0,1-11.69-9.16,11.87,11.87,0,0,1-.35-2.87,12,12,0,0,1,12-12H86.72A12,12,0,0,1,95.23,590Zm93.61,49.33H148.08V607.89h40.76Z" fill="#a6c0a0"/><rect x="148.08" y="607.89" width="40.76" height="31.41" fill="#88987f"/><rect x="74.56" y="616.79" width="24.19" height="32.72" fill="#88987f"/><rect x="46.17" y="616.79" width="24.2" height="32.72" fill="#88987f"/><path d="M98.75,581.46a12,12,0,0,1-6.58,10.72,11.88,11.88,0,0,1-5.45,1.31H58.18a12,12,0,0,1-11.69-9.16,11.87,11.87,0,0,1-.35-2.87,12,12,0,0,1,12-12H86.72a12,12,0,0,1,12,12Z" fill="#88987f"/><path d="M316.69,484.65a30.12,30.12,0,1,0,30.12,30.12A30.11,30.11,0,0,0,316.69,484.65Zm19,36.92a19.3,19.3,0,0,1-15.85,4.52,20.19,20.19,0,0,1,8.61,5.95.21.21,0,0,1,0,.24.19.19,0,0,1-.22.08,26.11,26.11,0,0,1-8.38-3.47,11.18,11.18,0,0,1-2.74-2.57c0,.94,0,3.35.08,4.61,0,1.46,0,1.46,0,1.53a.76.76,0,0,1-.56.29.89.89,0,0,1-.54-.26c-.06-.07-.06-.07,0-1.65,0-1.23.12-3.59.07-4.52a11.09,11.09,0,0,1-2.74,2.57,26,26,0,0,1-8.37,3.47.2.2,0,0,1-.23-.08.21.21,0,0,1,0-.24,20.26,20.26,0,0,1,8.62-5.95,19.31,19.31,0,0,1-15.86-4.52.19.19,0,0,1-.06-.21.2.2,0,0,1,.17-.15,24.66,24.66,0,0,1,3-.17,36.75,36.75,0,0,1,12.5,2.49,33.46,33.46,0,0,1-6.43-4.7,27,27,0,0,1-8-13.81.22.22,0,0,1,.08-.22.2.2,0,0,1,.23,0c9.5,5.72,14.35,14,16.35,17.51a32.93,32.93,0,0,1-1.61-7.56,38.49,38.49,0,0,1,2.64-17.82.22.22,0,0,1,.2-.13.21.21,0,0,1,.19.13,38.41,38.41,0,0,1,2.64,17.82,33.1,33.1,0,0,1-1.61,7.56c2-3.55,6.85-11.79,16.34-17.51a.2.2,0,0,1,.23,0,.22.22,0,0,1,.08.22,27,27,0,0,1-8,13.81,33.18,33.18,0,0,1-6.43,4.7A36.76,36.76,0,0,1,332.66,521a24.72,24.72,0,0,1,3,.17.21.21,0,0,1,.17.15A.19.19,0,0,1,335.72,521.57Z" fill="#2c3136"/><path d="M323,526.35a19.52,19.52,0,0,1-3.14-.26,20.19,20.19,0,0,1,8.61,5.95.21.21,0,0,1,0,.24.19.19,0,0,1-.22.08,26.11,26.11,0,0,1-8.38-3.47,11.18,11.18,0,0,1-2.74-2.57c0,.94,0,3.35.08,4.61,0,1.46,0,1.46,0,1.53a.76.76,0,0,1-.56.29.89.89,0,0,1-.54-.26c-.06-.07-.06-.07,0-1.65,0-1.23.12-3.59.07-4.52a11.09,11.09,0,0,1-2.74,2.57,26,26,0,0,1-8.37,3.47.2.2,0,0,1-.23-.08.21.21,0,0,1,0-.24,20.26,20.26,0,0,1,8.62-5.95,19.31,19.31,0,0,1-15.86-4.52.19.19,0,0,1-.06-.21.2.2,0,0,1,.17-.15,24.66,24.66,0,0,1,3-.17,36.75,36.75,0,0,1,12.5,2.49,33.46,33.46,0,0,1-6.43-4.7,27,27,0,0,1-8-13.81.22.22,0,0,1,.08-.22.2.2,0,0,1,.23,0c9.5,5.72,14.35,14,16.35,17.51a32.93,32.93,0,0,1-1.61-7.56,38.49,38.49,0,0,1,2.64-17.82.22.22,0,0,1,.2-.13.21.21,0,0,1,.19.13,38.41,38.41,0,0,1,2.64,17.82,33.1,33.1,0,0,1-1.61,7.56c2-3.55,6.85-11.79,16.34-17.51a.2.2,0,0,1,.23,0,.22.22,0,0,1,.08.22,27,27,0,0,1-8,13.81,33.18,33.18,0,0,1-6.43,4.7A36.76,36.76,0,0,1,332.66,521a24.72,24.72,0,0,1,3,.17.21.21,0,0,1,.17.15.19.19,0,0,1-.06.21A19.71,19.71,0,0,1,323,526.35Z" fill="#a6c0a0"/><path d="M257.83,584.28v72.18h.57V584.28Z" fill="#2c3136"/><path d="M291,573.31l.4-.41h0C291.21,573,291.08,573.17,291,573.31Zm-3.1,43.4V649.4h0V616.71Z" fill="#2c3136"/><path d="M370.36,584.28v54.36h-3.28V553.42H261.94v103H397V584.28ZM312,649.4H287.85V616.72H312Zm28.38,0H316.23V616.72H340.4Zm-.14-66.16c0,.19-.07.39-.1.59s-.09.38-.14.58a10.47,10.47,0,0,1-.35,1.13c-.07.17-.13.36-.21.52s0,.07,0,.08a3.67,3.67,0,0,1-.22.47,3,3,0,0,1-.26.52,4,4,0,0,1-.28.51c-.1.15-.2.33-.32.48a8,8,0,0,1-.7.94,11.33,11.33,0,0,1-.77.85,12,12,0,0,1-8.51,3.52h-28.5a12,12,0,0,1-12-12c0-.19,0-.36,0-.54s0-.26,0-.39a9.93,9.93,0,0,1,.2-1.41c0-.25.1-.49.16-.74s.16-.56.26-.84.14-.39.22-.58.12-.29.2-.45a6.76,6.76,0,0,1,.44-.89c.11-.17.21-.36.33-.53a10.48,10.48,0,0,1,.92-1.27c.12-.15.25-.29.38-.44s.25-.28.39-.41h0a12,12,0,0,1,8.5-3.53H329c.35,0,.7.05,1,.1l.25,0,.52.11.53.12c.39.1.76.22,1.13.35s.53.21.78.33l.56.26.38.2c.26.15.52.31.77.48s.22.15.33.23.47.34.7.52a12.26,12.26,0,0,1,1.62,1.62,8.35,8.35,0,0,1,.7.94,4.56,4.56,0,0,1,.32.48,11.4,11.4,0,0,1,.54,1,4.52,4.52,0,0,1,.22.47s0,.05,0,.08c.08.17.14.36.21.53a9.77,9.77,0,0,1,.35,1.13c.05.2.1.39.14.58a5.71,5.71,0,0,1,.1.6,11.23,11.23,0,0,1,.14,1.83A11.46,11.46,0,0,1,340.26,583.24Z" fill="#2c3136"/><rect x="218.67" y="584.28" width="39.73" height="72.18" fill="#2c3136"/><rect x="287.86" y="616.71" width="24.16" height="32.69" fill="#40464d"/><rect x="287.85" y="616.71" width="0.01" height="32.69" fill="#40464d"/><rect x="316.23" y="616.71" width="24.17" height="32.69" fill="#40464d"/><rect x="378.78" y="607.82" width="9.59" height="11.95" fill="#40464d"/><path d="M287.82,581.41a12,12,0,0,0,12,12h28.5a12,12,0,0,0,8.51-3.52c.27-.27.53-.56.77-.85a10.58,10.58,0,0,0,.7-.93l.32-.49.28-.5c.09-.17.19-.34.26-.53s.15-.31.22-.47l0-.08c.07-.17.14-.35.21-.53a11,11,0,0,0,.35-1.13c.05-.19.09-.39.14-.58l.11-.59a12.61,12.61,0,0,0,0-3.67l-.11-.59c0-.19-.09-.39-.14-.58a11.4,11.4,0,0,0-.35-1.13c-.06-.18-.13-.36-.21-.53l0-.08c-.07-.16-.14-.32-.22-.47s-.17-.35-.26-.52-.19-.34-.28-.5l-.32-.49a10.58,10.58,0,0,0-.7-.93c-.24-.29-.5-.58-.77-.85s-.56-.53-.85-.77-.46-.36-.7-.52l-.33-.23c-.25-.17-.51-.32-.77-.47l-.38-.2-.55-.26c-.26-.11-.52-.22-.79-.32a11.4,11.4,0,0,0-1.13-.35l-.53-.12-.53-.1-.25,0c-.34,0-.68-.08-1-.1H299.85a12,12,0,0,0-8.5,3.52l-.4.41-.38.44a10.43,10.43,0,0,0-.92,1.28c-.11.18-.22.36-.32.54a7.7,7.7,0,0,0-.44.89c-.07.15-.14.3-.19.45s-.15.38-.22.57-.19.56-.26.85-.12.49-.17.74a10.24,10.24,0,0,0-.19,1.4c0,.13,0,.26,0,.4S287.82,581.22,287.82,581.41Z" fill="#40464d"/><path d="M348.71,573.31l-.4-.41h0C348.45,573,348.58,573.17,348.71,573.31Z" fill="#40464d"/><circle cx="238.53" cy="616.03" r="9.36" fill="#40464d"/><circle cx="207" cy="309.02" r="70.02" fill="#a6c0a0"/><path d="M204,337.64c-5.84,0-11.41.17-16.88-.07a6.68,6.68,0,0,1-5.81-3.24c-2.46-4.6-20.45-39.92-21.19-41.33-.14-.28-.11-1.22,1.08-1.22,4.8,0,9.6,0,14.39,0,3.34,0,5.81,1.24,7.09,3.61,1.79,3.31,21.16,41.7,21.32,42.25Z" fill="#2c3136"/><path d="M236.18,337.64c-5.84,0-11.41.17-16.88-.07a6.68,6.68,0,0,1-5.81-3.24C211,329.73,193,294.41,192.3,293c-.14-.28-.11-1.22,1.08-1.22,4.8,0,9.6,0,14.39,0,3.34,0,5.81,1.24,7.09,3.61,1.79,3.31,21.16,41.7,21.32,42.25Z" fill="#2c3136"/><path d="M254.85,291.95h0c-.69-.12-5.26-.18-9.81-.19a7.87,7.87,0,0,0-7.3,4.57c-2.23,4.24-4.35,8.55-6.53,12.82a1,1,0,0,0,.89,1.56c.69.12,5.26.18,9.81.19a7.87,7.87,0,0,0,7.3-4.57c2.23-4.24,4.35-8.55,6.53-12.82a1,1,0,0,0-.89-1.56Z" fill="#2c3136"/><line x1="207" y1="239" x2="207" y2="146.95" fill="none" stroke="#a6c0a0" stroke-miterlimit="10" stroke-width="1.33"/><line x1="207" y1="379.04" x2="207" y2="426.21" fill="none" stroke="#a6c0a0" stroke-miterlimit="10" stroke-width="1.33"/><polyline points="74.3 485.99 74.3 426.11 316.69 426.11 316.69 502.07" fill="none" stroke="#a6c0a0" stroke-miterlimit="10" stroke-width="1.33"/></svg>