<svg id="Layer_1" data-name="Layer 1" xmlns="http://www.w3.org/2000/svg" viewBox="0 0 1818 1186"><title>about-us-graphic-1</title><circle cx="911.38" cy="442.36" r="52.27" fill="#a6c0a0" stroke="#a6c0a0" stroke-miterlimit="10"/><path d="M344,684.55l-4.72-4.71-4.71,4.71a3.53,3.53,0,0,0,0,5.08l4.71,4.72,4.72-4.72A3.54,3.54,0,0,0,344,684.55Zm0-69.12-4.72-4.71-4.71,4.71a3.53,3.53,0,0,0,0,5.08l4.71,4.72,4.72-4.72A3.54,3.54,0,0,0,344,615.43ZM854,928.55v82.74h0V928.55Zm5.22-106.39A26.77,26.77,0,0,1,861,819.8,22.6,22.6,0,0,0,859.21,822.16Zm0,34a21.91,21.91,0,0,0,1.76,2.36A26.77,26.77,0,0,1,859.21,856.2ZM855,831.57a28.86,28.86,0,0,1,.89-2.87A20.3,20.3,0,0,0,855,831.57Zm0,15.22a20.58,20.58,0,0,0,.89,2.86A27.88,27.88,0,0,1,855,846.79Zm-.62-12.25a30.15,30.15,0,0,0,0,9.29,31.9,31.9,0,0,1,0-9.29Zm745.47,4.65a30.2,30.2,0,0,0-2.4-11.86,30.37,30.37,0,0,1,2.39,11.86c0,.77,0,1.53-.08,2.29C1599.79,840.72,1599.82,840,1599.82,839.19Zm-.34,4.53c.11-.74.2-1.49.25-2.24C1599.67,842.23,1599.59,843,1599.48,843.72Zm-.41,2.19c.17-.72.3-1.45.41-2.19C1599.36,844.46,1599.23,845.19,1599.07,845.91Zm-8.17-28.25h0a28.66,28.66,0,0,1,2,2.15A28.53,28.53,0,0,0,1590.9,817.66ZM1369.25,906v79.44h0V906Z" fill="#2b3036"/><path d="M1599.81,839.19c0,.77,0,1.53-.08,2.29s-.14,1.5-.25,2.24-.25,1.47-.41,2.19-.35,1.43-.56,2.13a25.78,25.78,0,0,1-.87,2.47c-.21.54-.45,1.07-.69,1.59-.12.26-.25.52-.38.78s-.28.55-.43.82l-.45.8c-.31.53-.63,1-1,1.55s-.69,1-1.06,1.49-.75,1-1.15,1.43c-.19.23-.39.45-.6.68a30.37,30.37,0,0,1-22.54,10h-58.21l58.52-58.52,2.24-2.24a30.24,30.24,0,0,1,19,8.8,28.66,28.66,0,0,1,2,2.15c.62.75,1.2,1.53,1.75,2.34s1.06,1.65,1.53,2.51.9,1.76,1.28,2.67A30.37,30.37,0,0,1,1599.81,839.19Z" fill="none"/><path d="M1061.54,846.46v182.69H1063V846.46Z" fill="#2b3036"/><path d="M479.95,846.46H426.39v164.83h-8.63V843.92a75.56,75.56,0,0,0-75.58-75.56h-115a75.57,75.57,0,0,0-75.58,75.56v185.23H527V893.49A47,47,0,0,0,479.95,846.46ZM278.43,1011.29H217.24V928.55h61.19Zm71.79,0H289V928.55h61.18ZM341.3,860.72a30.7,30.7,0,0,1-21.51,8.9H247.62a30.45,30.45,0,0,1-29.56-23.16,30,30,0,0,1-.89-7.27,30.45,30.45,0,0,1,30.45-30.45h72.17a30.45,30.45,0,0,1,21.51,52ZM505.13,985.48H447.72V906h57.41Z" fill="#2b3036"/><rect x="447.72" y="906.04" width="57.41" height="79.44" fill="#89997e"/><rect x="289.04" y="928.55" width="61.18" height="82.74" fill="#89997e"/><rect x="217.24" y="928.55" width="61.19" height="82.74" fill="#89997e"/><path d="M350.22,839.19a30.3,30.3,0,0,1-16.65,27.11,30,30,0,0,1-13.78,3.32H247.62a30.45,30.45,0,0,1-29.56-23.16,30,30,0,0,1-.89-7.27,30.45,30.45,0,0,1,30.45-30.45h72.17a30.43,30.43,0,0,1,30.43,30.45Z" fill="#89997e"/><path d="M978.15,817.66h0q.52.51,1,1C978.82,818.35,978.5,818,978.15,817.66ZM987,928.55v82.74h0V928.55Z" fill="#2b3036"/><path d="M786.46,768.36v242.93h-8.65V846.46H677.26v182.69h375.33V768.36Zm-30,217.12H699.12V906H756.5Zm158.68,25.81H854V928.55h61.19Zm71.82,0H925.83V928.55H987ZM956.62,869.62H884.48a30.45,30.45,0,0,1-21.55-8.9c-.69-.69-1.34-1.42-2-2.16a21.91,21.91,0,0,1-1.76-2.36c-.29-.4-.56-.82-.8-1.23a12.45,12.45,0,0,1-.72-1.27,11.81,11.81,0,0,1-.67-1.33c-.2-.38-.38-.78-.55-1.18,0,0,0-.12-.09-.2a10.33,10.33,0,0,1-.52-1.34,20.58,20.58,0,0,1-.89-2.86,13.05,13.05,0,0,1-.35-1.47l-.27-1.49a30.15,30.15,0,0,1,0-9.29,9.63,9.63,0,0,1,.27-1.5,13.05,13.05,0,0,1,.35-1.47,20.3,20.3,0,0,1,.89-2.87,11.57,11.57,0,0,1,.52-1.34,1.22,1.22,0,0,0,.09-.2c.17-.4.35-.8.55-1.18a11.68,11.68,0,0,1,.67-1.32,11.46,11.46,0,0,1,.72-1.27,13.6,13.6,0,0,1,.8-1.23A22.6,22.6,0,0,1,861,819.8c.62-.74,1.27-1.47,2-2.16s1.41-1.34,2.16-2c.58-.47,1.16-.9,1.76-1.32.27-.2.54-.4.83-.58.64-.44,1.29-.82,2-1.2l1-.51c.45-.23.93-.45,1.4-.67.65-.29,1.32-.56,2-.81a28.84,28.84,0,0,1,2.87-.89c.45-.11.89-.22,1.34-.31s.89-.18,1.34-.26c.22,0,.44,0,.64-.09.85-.12,1.72-.21,2.61-.25l.29,0c.45,0,.92,0,1.4,0h72.14a30.32,30.32,0,0,1,21.51,8.92h0c.35.34.67.69,1,1s.65.73,1,1.11a26.41,26.41,0,0,1,2.32,3.23c.29.45.56.9.82,1.36a19.5,19.5,0,0,1,1.12,2.24c.18.39.35.77.49,1.15s.38,1,.55,1.45c.25.71.47,1.41.65,2.14s.31,1.23.43,1.87a25.91,25.91,0,0,1,.48,3.55c0,.33.05.65.07,1s0,.91,0,1.38A30.44,30.44,0,0,1,956.62,869.62Z" fill="#2b3036"/><rect x="1061.54" y="846.46" width="100.55" height="182.69" fill="#2b3036"/><rect x="925.83" y="928.55" width="61.15" height="82.74" fill="#89997e"/><rect x="986.98" y="928.55" width="0.02" height="82.74" fill="#89997e"/><rect x="854.01" y="928.55" width="61.17" height="82.74" fill="#89997e"/><rect x="699.12" y="906.04" width="57.38" height="79.44" fill="#89997e"/><path d="M987.08,839.19a30.44,30.44,0,0,1-30.46,30.43H884.48a30.45,30.45,0,0,1-21.55-8.9c-.69-.69-1.34-1.42-2-2.16a26.77,26.77,0,0,1-1.76-2.36c-.27-.4-.54-.82-.8-1.23s-.49-.84-.72-1.27-.47-.87-.67-1.33-.38-.78-.55-1.18c0,0,0-.12-.09-.2-.18-.43-.36-.88-.52-1.34a27.88,27.88,0,0,1-.89-2.86c-.13-.49-.24-1-.35-1.47l-.27-1.49a31.9,31.9,0,0,1,0-9.29l.27-1.5c.11-.49.22-1,.35-1.47a28.86,28.86,0,0,1,.89-2.87c.16-.45.34-.9.52-1.34a1.22,1.22,0,0,0,.09-.2c.17-.4.35-.8.55-1.18s.43-.89.67-1.32.47-.85.72-1.27.53-.83.8-1.23A26.77,26.77,0,0,1,861,819.8c.62-.74,1.27-1.47,2-2.16s1.41-1.34,2.16-2c.58-.47,1.16-.9,1.76-1.32.27-.2.54-.4.83-.58.64-.44,1.29-.82,2-1.2l1-.51c.45-.23.93-.45,1.4-.67.65-.29,1.32-.56,2-.81a28.84,28.84,0,0,1,2.87-.89c.45-.11.89-.22,1.34-.31l1.34-.26c.22,0,.44,0,.64-.09.85-.12,1.72-.21,2.61-.25l.29,0c.45,0,.92,0,1.4,0h72.14a30.32,30.32,0,0,1,21.51,8.92q.52.51,1,1t1,1.11a26.41,26.41,0,0,1,2.32,3.23c.29.45.56.9.82,1.36a19.5,19.5,0,0,1,1.12,2.24c.18.39.35.77.49,1.15s.38,1,.55,1.45c.25.71.47,1.41.65,2.14s.31,1.23.43,1.87a25.91,25.91,0,0,1,.48,3.55c0,.33.05.65.07,1S987.08,838.72,987.08,839.19Z" fill="#89997e"/><path d="M979.15,818.71q-.49-.54-1-1h0C978.5,818,978.82,818.35,979.15,818.71Z" fill="#89997e"/><path d="M1369.25,906v79.44h0V906Zm97.52,22.51v82.74h0V928.55Zm1.46-98.69a30.32,30.32,0,0,0-1.46,9.33c0,.4,0,.79,0,1.18,0-.39,0-.79,0-1.18A30.61,30.61,0,0,1,1468.23,829.86Zm-1.41,11c0,.26,0,.53,0,.79a1.22,1.22,0,0,0,0,.19C1466.86,841.48,1466.84,841.15,1466.82,840.82Zm61.11,87.73v82.74h0V928.55Zm10.64,0v82.74h0V928.55Zm60.91-84.83c.11-.74.2-1.49.25-2.24C1599.67,842.23,1599.59,843,1599.48,843.72Zm.34-4.53a30.2,30.2,0,0,0-2.4-11.86,30.37,30.37,0,0,1,2.39,11.86c0,.77,0,1.53-.08,2.29C1599.79,840.72,1599.82,840,1599.82,839.19Zm-.75,6.72c.17-.72.3-1.45.41-2.19C1599.36,844.46,1599.23,845.19,1599.07,845.91Z" fill="#2b3036"/><path d="M1399.25,768.36v242.93h-8.65V846.46H1290v182.69h375.33V768.36Zm-30,217.12h-57.39V906h57.39Zm99-155.62a30.16,30.16,0,0,1,3.75-7.7,30.45,30.45,0,0,1,25.23-13.42h52.61l-60,60a30.43,30.43,0,0,1-14.16-8h0c-.34-.34-.68-.7-1-1.06a29,29,0,0,1-1.86-2.26c-.58-.78-1.13-1.59-1.64-2.43a30,30,0,0,1-2.26-4.54,27.15,27.15,0,0,1-.92-2.67c-.1-.34-.19-.68-.28-1s-.19-.79-.28-1.19c0-.12,0-.24-.07-.37-.08-.4-.16-.8-.22-1.2q-.06-.32-.09-.63c0-.18-.05-.36-.07-.54s-.08-.64-.1-1v0a1.22,1.22,0,0,1,0-.19c0-.26,0-.53,0-.79a1,1,0,0,1,0-.25.34.34,0,0,1,0-.1.33.33,0,0,1,0-.1c0-.39,0-.78,0-1.18A30.32,30.32,0,0,1,1468.23,829.86Zm59.71,181.43h-61.17V928.55h61.17Zm71.81,0h-61.18V928.55h61.18Zm0-169.81c-.05.75-.14,1.5-.25,2.24s-.24,1.47-.41,2.19-.35,1.43-.56,2.13a25.78,25.78,0,0,1-.87,2.47c-.21.54-.45,1.07-.69,1.59-.12.26-.25.52-.38.78s-.28.55-.43.82l-.45.8c-.31.53-.63,1-1,1.55s-.69,1-1.06,1.49-.75,1-1.15,1.43c-.19.23-.39.45-.6.68a30.37,30.37,0,0,1-22.54,10h-58.21l58.52-58.52,2.24-2.24a30.24,30.24,0,0,1,19,8.8h0a28.53,28.53,0,0,1,2,2.15c.62.75,1.2,1.53,1.75,2.34s1.06,1.65,1.53,2.51.9,1.76,1.28,2.67a30.2,30.2,0,0,1,2.4,11.86C1599.82,840,1599.79,840.72,1599.73,841.48Z" fill="#2b3036"/><rect x="1311.88" y="906.04" width="57.37" height="79.44" fill="#89997e"/><path d="M1599.82,839.19c0,.77,0,1.53-.09,2.29s-.14,1.5-.25,2.24-.24,1.47-.41,2.19-.35,1.43-.56,2.13a25.78,25.78,0,0,1-.87,2.47c-.21.54-.45,1.07-.69,1.59-.12.26-.25.52-.38.78s-.28.55-.43.82l-.45.8c-.31.53-.63,1-1,1.55s-.69,1-1.06,1.49-.75,1-1.15,1.43c-.19.23-.39.45-.6.68a30.37,30.37,0,0,1-22.54,10h-58.21l58.52-58.52,2.24-2.24a30.24,30.24,0,0,1,19,8.8h0a28.53,28.53,0,0,1,2,2.15c.62.75,1.2,1.53,1.75,2.34s1.06,1.65,1.53,2.51.9,1.76,1.28,2.67A30.2,30.2,0,0,1,1599.82,839.19Z" fill="#89997e"/><path d="M1549.82,808.74l-60,60a30.43,30.43,0,0,1-14.16-8c-.34-.34-.68-.7-1-1.06-.65-.72-1.27-1.47-1.86-2.26s-1.13-1.59-1.64-2.43a30,30,0,0,1-2.26-4.54,27.15,27.15,0,0,1-.92-2.67c-.1-.34-.19-.68-.28-1s-.19-.79-.28-1.19c0-.12,0-.24-.07-.37-.08-.4-.16-.8-.22-1.2q-.06-.32-.09-.63c0-.18-.05-.36-.07-.54s-.07-.64-.1-1v0a1.22,1.22,0,0,1,0-.19c0-.26,0-.53,0-.79a1,1,0,0,1,0-.25.34.34,0,0,1,0-.1.33.33,0,0,1,0-.1c0-.39,0-.78,0-1.18a30.32,30.32,0,0,1,1.46-9.33,30.16,30.16,0,0,1,3.75-7.7,30.45,30.45,0,0,1,25.23-13.42Z" fill="#89997e"/><path d="M1599.48,843.72c-.11.74-.24,1.47-.41,2.19C1599.23,845.19,1599.36,844.46,1599.48,843.72Z" fill="#89997e"/><path d="M1599.73,841.48c-.05.75-.14,1.5-.25,2.24C1599.59,843,1599.67,842.23,1599.73,841.48Z" fill="#89997e"/><path d="M1599.73,841.48c.05-.76.08-1.52.08-2.29a30.37,30.37,0,0,0-2.39-11.86,30.2,30.2,0,0,1,2.4,11.86C1599.82,840,1599.79,840.72,1599.73,841.48Z" fill="#89997e"/><rect x="1538.58" y="928.55" width="61.17" height="82.74" fill="#89997e"/><rect x="1538.57" y="928.55" width="0.01" height="82.74" fill="#89997e"/><rect x="1466.78" y="928.55" width="60.34" height="82.74" fill="#89997e"/><rect x="1466.77" y="928.55" width="0.01" height="82.74" fill="#89997e"/><rect x="1527.12" y="928.55" width="0.82" height="82.74" fill="#89997e"/><rect x="1369.25" y="906.04" width="0.01" height="79.44" fill="#89997e"/><path d="M339.3,679.84,313.51,654a2.15,2.15,0,0,1,0-3l25.79-25.79,4.72-4.72a3.54,3.54,0,0,0,0-5.08l-4.72-4.71-14-14a3.57,3.57,0,0,0-5.07,0l-30.51,30.51a2.18,2.18,0,0,1-3.05,0l-30.49-30.51a3.59,3.59,0,0,0-5.09,0l-18.68,18.68a3.6,3.6,0,0,0,0,5.08L263,651a2.1,2.1,0,0,1,0,3l-30.5,30.5a3.6,3.6,0,0,0,0,5.08l18.68,18.68a3.57,3.57,0,0,0,5.09,0l30.49-30.5a2.16,2.16,0,0,1,3.05,0l30.51,30.5a3.55,3.55,0,0,0,5.07,0l14-14,4.72-4.72a3.54,3.54,0,0,0,0-5.08ZM305.77,656.6A18.09,18.09,0,0,1,294,661a18.71,18.71,0,0,1-2.9-.23,18.37,18.37,0,0,1,7.92,5.49.15.15,0,0,1,0,.22.18.18,0,0,1-.2.09,24.4,24.4,0,0,1-7.74-3.23,10,10,0,0,1-2.51-2.36c0,.86,0,3,.06,4.17,0,1.46,0,1.46,0,1.51a.79.79,0,0,1-.49.24.77.77,0,0,1-.52-.26c0-.07,0-.07,0-1.41,0-1.16.09-3.39.06-4.25a10.78,10.78,0,0,1-2.53,2.36,24.27,24.27,0,0,1-7.72,3.23.2.2,0,0,1-.22-.09.16.16,0,0,1,0-.22,18.47,18.47,0,0,1,7.94-5.49,19.26,19.26,0,0,1-2.9.23,18.07,18.07,0,0,1-11.72-4.41.19.19,0,0,1-.09-.2c.06-.07.09-.12.19-.12a22,22,0,0,1,2.73-.17A34.08,34.08,0,0,1,285,658.42a30.71,30.71,0,0,1-6-4.34,24.78,24.78,0,0,1-7.36-12.75.19.19,0,0,1,.07-.2.21.21,0,0,1,.22,0,43,43,0,0,1,15.09,16.16,30,30,0,0,1-1.49-7A35.71,35.71,0,0,1,288,633.86c0-.07.09-.13.18-.13a.25.25,0,0,1,.2.13,35.44,35.44,0,0,1,2.41,16.45,31.16,31.16,0,0,1-1.47,7,42.83,42.83,0,0,1,15.08-16.16.24.24,0,0,1,.23,0c0,.06.09.13.07.2a25.06,25.06,0,0,1-7.36,12.75,30.15,30.15,0,0,1-6,4.34,34.26,34.26,0,0,1,11.56-2.31,21.94,21.94,0,0,1,2.72.17.2.2,0,0,1,.18.12A.17.17,0,0,1,305.77,656.6Z" fill="#a6c0a0" stroke="#a6c0a0" stroke-miterlimit="10"/><path d="M975.81,635.72H932.66a2.14,2.14,0,0,1-2.14-2.14V590.44a3.59,3.59,0,0,0-3.59-3.59H900.52a3.59,3.59,0,0,0-3.59,3.59v43.15a2.14,2.14,0,0,1-2.14,2.14H851.64a3.59,3.59,0,0,0-3.59,3.59v26.43a3.59,3.59,0,0,0,3.59,3.59h43.15a2.14,2.14,0,0,1,2.14,2.14v43.15a3.59,3.59,0,0,0,3.59,3.59h26.41a3.59,3.59,0,0,0,3.59-3.59V671.47a2.14,2.14,0,0,1,2.14-2.14h43.15a3.59,3.59,0,0,0,3.59-3.59V639.31A3.59,3.59,0,0,0,975.81,635.72ZM931.34,656.6a17.81,17.81,0,0,1-14.62,4.17,18.5,18.5,0,0,1,7.94,5.5.19.19,0,0,1,0,.22.18.18,0,0,1-.2.09,24.28,24.28,0,0,1-7.74-3.23,10.42,10.42,0,0,1-2.52-2.36c0,.85,0,3.08.07,4.24,0,1.34,0,1.34,0,1.41a.69.69,0,0,1-.51.25.83.83,0,0,1-.51-.24c-.05-.05-.05-.05,0-1.51,0-1.14.09-3.32.07-4.17a10.64,10.64,0,0,1-2.54,2.36,24.16,24.16,0,0,1-7.73,3.23.21.21,0,0,1-.22-.09.19.19,0,0,1,0-.22,18.44,18.44,0,0,1,8-5.5,18.43,18.43,0,0,1-2.92.24,18.11,18.11,0,0,1-11.72-4.41.2.2,0,0,1-.07-.2.17.17,0,0,1,.16-.13,22.45,22.45,0,0,1,2.74-.16,34.07,34.07,0,0,1,11.54,2.3,30.25,30.25,0,0,1-5.93-4.33,25,25,0,0,1-7.38-12.75.23.23,0,0,1,.09-.2.16.16,0,0,1,.2,0,42.7,42.7,0,0,1,15.09,16.16,31,31,0,0,1-1.49-7,35.52,35.52,0,0,1,2.45-16.45.18.18,0,0,1,.18-.13.17.17,0,0,1,.16.13,35.51,35.51,0,0,1,2.45,16.45,30.24,30.24,0,0,1-1.49,7A42.86,42.86,0,0,1,930,641.13a.19.19,0,0,1,.22,0,.22.22,0,0,1,.07.2,25.09,25.09,0,0,1-7.36,12.75,30.29,30.29,0,0,1-5.95,4.33,34.09,34.09,0,0,1,11.55-2.3,22.15,22.15,0,0,1,2.72.16.17.17,0,0,1,.16.13A.17.17,0,0,1,931.34,656.6Z" fill="#a6c0a0" stroke="#a6c0a0" stroke-miterlimit="10"/><path d="M1588.81,635.72h-43.15a2.14,2.14,0,0,1-2.14-2.14V590.44a3.59,3.59,0,0,0-3.59-3.59h-26.41a3.59,3.59,0,0,0-3.59,3.59v43.15a2.14,2.14,0,0,1-2.14,2.14h-43.15a3.59,3.59,0,0,0-3.59,3.59v26.43a3.59,3.59,0,0,0,3.59,3.59h43.15a2.14,2.14,0,0,1,2.14,2.14v43.15a3.59,3.59,0,0,0,3.59,3.59h26.41a3.59,3.59,0,0,0,3.59-3.59V671.47a2.14,2.14,0,0,1,2.14-2.14h43.15a3.59,3.59,0,0,0,3.59-3.59V639.31A3.59,3.59,0,0,0,1588.81,635.72Zm-44.47,20.88a17.81,17.81,0,0,1-14.62,4.17,18.5,18.5,0,0,1,7.94,5.5.19.19,0,0,1,0,.22.18.18,0,0,1-.2.09,24.28,24.28,0,0,1-7.74-3.23,10.42,10.42,0,0,1-2.52-2.36c0,.85,0,3.08.07,4.24,0,1.34,0,1.34,0,1.41a.69.69,0,0,1-.51.25.83.83,0,0,1-.51-.24c-.05-.05-.05-.05,0-1.51,0-1.14.09-3.32.07-4.17a10.64,10.64,0,0,1-2.54,2.36,24.16,24.16,0,0,1-7.73,3.23.21.21,0,0,1-.22-.09.19.19,0,0,1,0-.22,18.43,18.43,0,0,1,8-5.5,18.43,18.43,0,0,1-2.92.24,18.11,18.11,0,0,1-11.72-4.41.2.2,0,0,1-.07-.2.17.17,0,0,1,.16-.13,22.45,22.45,0,0,1,2.74-.16,34.07,34.07,0,0,1,11.53,2.3,30.26,30.26,0,0,1-5.93-4.33,25,25,0,0,1-7.38-12.75.23.23,0,0,1,.09-.2.16.16,0,0,1,.2,0,42.7,42.7,0,0,1,15.09,16.16,31,31,0,0,1-1.49-7,35.51,35.51,0,0,1,2.45-16.45.18.18,0,0,1,.18-.13.17.17,0,0,1,.16.13,35.51,35.51,0,0,1,2.45,16.45,30.25,30.25,0,0,1-1.49,7A42.86,42.86,0,0,1,1543,641.13a.19.19,0,0,1,.22,0,.22.22,0,0,1,.07.2,25.09,25.09,0,0,1-7.36,12.75,30.29,30.29,0,0,1-5.95,4.33,34.09,34.09,0,0,1,11.55-2.3,22.15,22.15,0,0,1,2.72.16.17.17,0,0,1,.16.13A.17.17,0,0,1,1544.34,656.6Z" fill="#a6c0a0" stroke="#a6c0a0" stroke-miterlimit="10"/><path d="M735.88,214.71a60.16,60.16,0,0,1-9.58-.78A61.48,61.48,0,0,1,752.51,232a.6.6,0,0,1,.05.73.62.62,0,0,1-.69.27c-10.52-2.63-19.1-6.18-25.48-10.59a33.8,33.8,0,0,1-8.32-7.8c-.13,2.87.11,10.17.24,14,.15,4.43.15,4.43,0,4.64a2.36,2.36,0,0,1-1.7.85,2.76,2.76,0,0,1-1.63-.76c-.18-.24-.18-.24,0-5,.13-3.75.34-10.9.24-13.73a33.45,33.45,0,0,1-8.32,7.8c-6.4,4.41-15,8-25.48,10.59a.61.61,0,0,1-.69-.27.6.6,0,0,1,.05-.73,61.27,61.27,0,0,1,26.21-18.08,60.16,60.16,0,0,1-9.58.78c-13.87,0-26.88-4.88-38.63-14.51a.6.6,0,0,1-.22-.65.67.67,0,0,1,.53-.45,72.89,72.89,0,0,1,9-.53c15.43,0,29.65,4.46,38,7.58a100.84,100.84,0,0,1-19.57-14.27,82.37,82.37,0,0,1-24.27-42,.62.62,0,0,1,.25-.65.6.6,0,0,1,.69,0c28.86,17.38,43.64,42.44,49.69,53.25a102.1,102.1,0,0,1-4.88-23c-1.72-17.92,1-36.15,8-54.19a.63.63,0,0,1,.58-.4.66.66,0,0,1,.6.4c7,18,9.76,36.27,8,54.17a100.46,100.46,0,0,1-4.9,23c6.08-10.79,20.84-35.86,49.71-53.23a.6.6,0,0,1,.69,0,.62.62,0,0,1,.25.65,82.37,82.37,0,0,1-24.27,42,100.84,100.84,0,0,1-19.57,14.27c8.38-3.12,22.6-7.58,38-7.58a72.47,72.47,0,0,1,9,.53.62.62,0,0,1,.53.45.6.6,0,0,1-.2.65C762.76,209.84,749.75,214.71,735.88,214.71Z" fill="#a6c0a0" stroke="#a6c0a0" stroke-miterlimit="10"/><path d="M927.51,214.71a59.73,59.73,0,0,1-9.56-.78A61.33,61.33,0,0,1,944.14,232a.6.6,0,0,1,.05.73.61.61,0,0,1-.69.27c-10.52-2.63-19.08-6.18-25.48-10.59a33.8,33.8,0,0,1-8.32-7.8c-.11,2.87.11,10.17.24,14,.15,4.43.15,4.43,0,4.64a2.32,2.32,0,0,1-1.69.85,2.76,2.76,0,0,1-1.65-.76c-.18-.24-.18-.24,0-5,.13-3.75.34-10.9.24-13.73a33.45,33.45,0,0,1-8.32,7.8c-6.38,4.41-15,8-25.48,10.59a.62.62,0,0,1-.69-.27.6.6,0,0,1,.05-.73,61.48,61.48,0,0,1,26.21-18.08,60.16,60.16,0,0,1-9.58.78c-13.87,0-26.88-4.88-38.63-14.51a.6.6,0,0,1-.2-.65.62.62,0,0,1,.53-.45,72.47,72.47,0,0,1,9-.53c15.42,0,29.64,4.46,38,7.58a100.84,100.84,0,0,1-19.57-14.27,82.37,82.37,0,0,1-24.27-42,.66.66,0,0,1,.25-.65.6.6,0,0,1,.69,0c28.87,17.38,43.64,42.44,49.71,53.25a100.91,100.91,0,0,1-4.9-23c-1.72-17.92,1-36.15,8-54.19a.66.66,0,0,1,.6-.4.63.63,0,0,1,.58.4c7.06,18,9.76,36.27,8,54.17a101.63,101.63,0,0,1-4.88,23c6.06-10.79,20.84-35.86,49.69-53.23a.6.6,0,0,1,.69,0,.62.62,0,0,1,.25.65,82.37,82.37,0,0,1-24.27,42,100.84,100.84,0,0,1-19.57,14.27c8.38-3.12,22.6-7.58,38-7.58a72.89,72.89,0,0,1,9,.53.67.67,0,0,1,.53.45.6.6,0,0,1-.22.65C954.39,209.84,941.38,214.71,927.51,214.71Z" fill="#a6c0a0" stroke="#a6c0a0" stroke-miterlimit="10"/><path d="M969.78,243.86v3a3.51,3.51,0,0,1-3.5,3.52H850a3.51,3.51,0,0,1-3.5-3.52v-3a3.49,3.49,0,0,1,3.5-3.5H966.28A3.49,3.49,0,0,1,969.78,243.86Z" fill="#2b3036"/><path d="M964.1,256l-16.21,77.17a2.06,2.06,0,0,1-2,1.63H870.39a2.06,2.06,0,0,1-2-1.63L852.16,256a2.07,2.07,0,0,1,2-2.48H962.09A2.07,2.07,0,0,1,964.1,256Z" fill="#2b3036"/><path d="M777.79,243.86v3a3.51,3.51,0,0,1-3.5,3.52H658a3.51,3.51,0,0,1-3.5-3.52v-3a3.49,3.49,0,0,1,3.5-3.5H774.29A3.49,3.49,0,0,1,777.79,243.86Z" fill="#2b3036"/><path d="M772.11,256,755.9,333.18a2.06,2.06,0,0,1-2,1.63H678.4a2.06,2.06,0,0,1-2-1.63L660.17,256a2.07,2.07,0,0,1,2-2.48H770.1A2.07,2.07,0,0,1,772.11,256Z" fill="#2b3036"/><path d="M1119.14,214.71a59.73,59.73,0,0,1-9.56-.78A61.48,61.48,0,0,1,1135.79,232a.63.63,0,0,1,0,.73.61.61,0,0,1-.69.27c-10.5-2.63-19.08-6.18-25.48-10.59a33.8,33.8,0,0,1-8.32-7.8c-.11,2.87.13,10.17.25,14,.13,4.43.13,4.43,0,4.64a2.4,2.4,0,0,1-1.7.85,2.76,2.76,0,0,1-1.65-.76c-.18-.24-.18-.24,0-5,.13-3.75.36-10.9.24-13.73a33.1,33.1,0,0,1-8.32,7.8c-6.38,4.41-15,8-25.48,10.59a.6.6,0,0,1-.67-.27.63.63,0,0,1,0-.73,61.48,61.48,0,0,1,26.21-18.08,59.73,59.73,0,0,1-9.56.78c-13.89,0-26.9-4.88-38.65-14.51a.63.63,0,0,1-.2-.65.65.65,0,0,1,.53-.45,72.68,72.68,0,0,1,9-.53c15.43,0,29.64,4.46,38,7.58a100.84,100.84,0,0,1-19.57-14.27,82.21,82.21,0,0,1-24.25-42,.65.65,0,0,1,.24-.65.6.6,0,0,1,.69,0c28.87,17.38,43.66,42.44,49.71,53.25a100.92,100.92,0,0,1-4.9-23c-1.7-17.92,1-36.15,8.05-54.19a.62.62,0,0,1,1.16,0c7.06,18,9.76,36.27,8.05,54.17a101.44,101.44,0,0,1-4.9,23c6.06-10.79,20.84-35.86,49.71-53.23a.6.6,0,0,1,.69,0,.65.65,0,0,1,.24.65,82.21,82.21,0,0,1-24.25,42,100.84,100.84,0,0,1-19.57,14.27c8.36-3.12,22.58-7.58,38-7.58a72.89,72.89,0,0,1,9,.53.65.65,0,0,1,.53.45.63.63,0,0,1-.2.65C1146,209.84,1133,214.71,1119.14,214.71Z" fill="#a6c0a0" stroke="#a6c0a0" stroke-miterlimit="10"/><path d="M1156.09,256l-16.21,77.17a2,2,0,0,1-2,1.63h-75.49a2,2,0,0,1-2-1.63L1044.17,256a2.06,2.06,0,0,1,2-2.48h107.91A2.06,2.06,0,0,1,1156.09,256Z" fill="#2b3036"/><path d="M1161.78,243.86v3a3.52,3.52,0,0,1-3.52,3.52H1042a3.52,3.52,0,0,1-3.52-3.52v-3a3.51,3.51,0,0,1,3.52-3.5h116.28A3.51,3.51,0,0,1,1161.78,243.86Z" fill="#2b3036"/><polyline points="714.03 361.3 714.03 380.3 1102.93 380.3 1102.93 361.3" fill="none" stroke="#a6c0a0" stroke-linecap="round" stroke-linejoin="round" stroke-width="5.44"/><polyline points="911.11 361.29 911.11 441.77 296.06 441.77 296.06 542.73" fill="none" stroke="#a6c0a0" stroke-linecap="round" stroke-linejoin="round" stroke-width="5.44"/><circle cx="1111.81" cy="926.82" r="23.68" fill="#89997e"/><polyline points="1526.19 542.9 1526.19 441.77 911.11 441.77 911.11 542.46" fill="none" stroke="#a6c0a0" stroke-linecap="round" stroke-linejoin="round" stroke-width="5.44"/><path d="M909.12,463.73c-4.36,0-8.52.12-12.6-.05a5,5,0,0,1-4.34-2.42c-1.84-3.43-15.27-29.8-15.82-30.85-.11-.21-.08-.91.81-.91,3.58,0,7.17,0,10.74,0,2.49,0,4.34.93,5.29,2.7,1.33,2.47,15.79,31.13,15.91,31.54Z" fill="#2b3036"/><path d="M933.17,463.73c-4.36,0-8.52.12-12.6-.05a5,5,0,0,1-4.34-2.42c-1.84-3.43-15.27-29.8-15.82-30.85-.11-.21-.08-.91.81-.91,3.58,0,7.17,0,10.74,0,2.49,0,4.34.93,5.29,2.7,1.33,2.47,15.79,31.13,15.91,31.54Z" fill="#2b3036"/><path d="M947.1,429.62h0c-.52-.09-3.93-.13-7.33-.14a5.88,5.88,0,0,0-5.45,3.41c-1.66,3.17-3.25,6.38-4.87,9.57a.78.78,0,0,0,.66,1.16c.52.09,3.93.13,7.32.14a5.87,5.87,0,0,0,5.45-3.41c1.66-3.17,3.25-6.38,4.87-9.57a.78.78,0,0,0-.66-1.16Z" fill="#2b3036"/></svg>