<svg id="Layer_1" data-name="Layer 1" xmlns="http://www.w3.org/2000/svg" viewBox="0 0 414 736"><title>about-us-graphic-3</title><line x1="212.08" y1="87.43" x2="212.08" y2="199.79" fill="none" stroke="#a6c0a0" stroke-miterlimit="10" stroke-width="3"/><line x1="212.08" y1="297.87" x2="212.08" y2="410.23" fill="none" stroke="#a6c0a0" stroke-miterlimit="10" stroke-width="3"/><circle cx="212" cy="254.94" r="62.62" fill="#a6c0a0"/><path d="M209.29,280.54c-5.23,0-10.2.15-15.1-.07a6,6,0,0,1-5.2-2.9c-2.2-4.11-18.29-35.7-18.95-37-.13-.25-.1-1.09,1-1.09,4.29,0,8.59,0,12.87,0,3,0,5.19,1.11,6.34,3.23,1.6,3,18.92,37.3,19.06,37.79Z" fill="#2c3136"/><path d="M238.1,280.54c-5.23,0-10.2.15-15.1-.07a6,6,0,0,1-5.2-2.9c-2.2-4.11-18.29-35.7-18.95-37-.13-.25-.1-1.09,1-1.09,4.29,0,8.59,0,12.87,0,3,0,5.2,1.11,6.34,3.23,1.6,3,18.92,37.3,19.06,37.79Z" fill="#2c3136"/><path d="M254.8,239.67h0c-.62-.11-4.71-.16-8.78-.17a7,7,0,0,0-6.53,4.09c-2,3.79-3.89,7.64-5.84,11.47a.93.93,0,0,0,.79,1.39c.62.11,4.71.16,8.78.17a7,7,0,0,0,6.53-4.09c2-3.79,3.89-7.65,5.84-11.47a.93.93,0,0,0-.79-1.39Z" fill="#2c3136"/><path d="M222.62,76.79a32.71,32.71,0,0,1-5.23-.43,33.59,33.59,0,0,1,14.34,9.9.33.33,0,0,1,0,.4.33.33,0,0,1-.38.15,43.18,43.18,0,0,1-14-5.8,18.51,18.51,0,0,1-4.56-4.27c-.06,1.57.06,5.57.13,7.68.08,2.42.08,2.42,0,2.54a1.27,1.27,0,0,1-.92.47,1.51,1.51,0,0,1-.9-.42c-.1-.13-.1-.13,0-2.75.07-2.06.19-6,.13-7.52A18.32,18.32,0,0,1,206.72,81a43.08,43.08,0,0,1-14,5.8.34.34,0,0,1-.38-.15.33.33,0,0,1,0-.4,33.67,33.67,0,0,1,14.35-9.9,32.19,32.19,0,0,1-26.4-7.52.33.33,0,0,1-.11-.36.34.34,0,0,1,.29-.25,39.69,39.69,0,0,1,4.93-.29A61.39,61.39,0,0,1,206.3,72.1a55.22,55.22,0,0,1-10.72-7.82,45.11,45.11,0,0,1-13.29-23,.36.36,0,0,1,.14-.36.33.33,0,0,1,.38,0c15.81,9.52,23.9,23.24,27.23,29.16a55.27,55.27,0,0,1-2.68-12.59,64.1,64.1,0,0,1,4.4-29.68.36.36,0,0,1,.33-.22.35.35,0,0,1,.32.22,64.06,64.06,0,0,1,4.4,29.67,55.66,55.66,0,0,1-2.67,12.59c3.32-5.91,11.41-19.64,27.22-29.15a.33.33,0,0,1,.38,0,.34.34,0,0,1,.14.36,45.11,45.11,0,0,1-13.29,23,55.22,55.22,0,0,1-10.72,7.82,61.4,61.4,0,0,1,20.83-4.15,39.92,39.92,0,0,1,4.93.29.37.37,0,0,1,.29.25.33.33,0,0,1-.12.36A32.83,32.83,0,0,1,222.62,76.79Z" fill="#a6c0a0"/><path d="M245.77,92.75v1.63a1.92,1.92,0,0,1-1.92,1.93H180.16a1.92,1.92,0,0,1-1.92-1.93V92.75a1.91,1.91,0,0,1,1.92-1.92h63.69A1.91,1.91,0,0,1,245.77,92.75Z" fill="#2c3136"/><path d="M242.66,99.41l-8.88,42.26a1.13,1.13,0,0,1-1.1.89H191.33a1.13,1.13,0,0,1-1.1-.89l-8.88-42.26a1.13,1.13,0,0,1,1.1-1.36h59.1A1.13,1.13,0,0,1,242.66,99.41Z" fill="#2c3136"/><path d="M167.09,555.39a76.1,76.1,0,0,1-12.18-1c8.46,3.14,22.16,9.52,33.37,23a.77.77,0,0,1,.07.92.78.78,0,0,1-.88.35c-13.4-3.35-24.31-7.88-32.47-13.5a43.06,43.06,0,0,1-10.61-9.94c-.14,3.65.14,13,.3,17.86.18,5.64.18,5.64,0,5.92a3,3,0,0,1-2.15,1.09,3.52,3.52,0,0,1-2.1-1c-.23-.3-.23-.3,0-6.4.16-4.78.44-13.89.3-17.49a42.62,42.62,0,0,1-10.61,9.94c-8.13,5.62-19.06,10.14-32.47,13.5a.79.79,0,0,1-.88-.35.77.77,0,0,1,.07-.92c11.23-13.52,24.93-19.9,33.39-23a76.65,76.65,0,0,1-12.2,1c-17.68,0-34.25-6.22-49.22-18.49a.76.76,0,0,1-.25-.83.8.8,0,0,1,.67-.58,92.33,92.33,0,0,1,11.46-.67c19.64,0,37.76,5.68,48.44,9.66a128.48,128.48,0,0,1-24.93-18.19,105,105,0,0,1-30.92-53.52.84.84,0,0,1,.32-.83.76.76,0,0,1,.88,0c36.79,22.14,55.6,54.07,63.34,67.85a128.58,128.58,0,0,1-6.24-29.3c-2.2-22.83,1.25-46.06,10.24-69a.83.83,0,0,1,.76-.51.8.8,0,0,1,.74.51c9,23,12.43,46.22,10.24,69a129.49,129.49,0,0,1-6.22,29.3c7.72-13.75,26.55-45.69,63.32-67.82a.76.76,0,0,1,.88,0,.8.8,0,0,1,.32.83,105,105,0,0,1-30.92,53.52A128.48,128.48,0,0,1,156,544.48c10.68-4,28.79-9.66,48.46-9.66a92.87,92.87,0,0,1,11.46.67.86.86,0,0,1,.67.58.77.77,0,0,1-.28.83C201.33,549.18,184.76,555.39,167.09,555.39Z" fill="#88987f"/><path d="M195.45,555.39a76.1,76.1,0,0,1-12.18-1c8.46,3.14,22.16,9.52,33.37,23a.77.77,0,0,1,.07.92.78.78,0,0,1-.88.35c-13.4-3.35-24.31-7.88-32.47-13.5a43.06,43.06,0,0,1-10.61-9.94c-.14,3.65.14,13,.3,17.86.18,5.64.18,5.64,0,5.92a3,3,0,0,1-2.15,1.09,3.52,3.52,0,0,1-2.1-1c-.23-.3-.23-.3,0-6.4.16-4.78.44-13.89.3-17.49a42.62,42.62,0,0,1-10.61,9.94c-8.13,5.62-19.06,10.14-32.47,13.5a.79.79,0,0,1-.88-.35.77.77,0,0,1,.07-.92c11.23-13.52,24.93-19.9,33.39-23a76.65,76.65,0,0,1-12.2,1c-17.68,0-34.25-6.22-49.22-18.49a.76.76,0,0,1-.25-.83.8.8,0,0,1,.67-.58,92.33,92.33,0,0,1,11.46-.67c19.64,0,37.76,5.68,48.44,9.66a128.48,128.48,0,0,1-24.93-18.19,105,105,0,0,1-30.92-53.52.84.84,0,0,1,.32-.83.76.76,0,0,1,.88,0c36.79,22.14,55.6,54.07,63.34,67.85a128.58,128.58,0,0,1-6.24-29.3c-2.2-22.83,1.25-46.06,10.24-69a.83.83,0,0,1,.76-.51.8.8,0,0,1,.74.51c9,23,12.43,46.22,10.24,69a129.49,129.49,0,0,1-6.22,29.3c7.72-13.75,26.55-45.69,63.32-67.82a.76.76,0,0,1,.88,0,.8.8,0,0,1,.32.83,105,105,0,0,1-30.92,53.52,128.48,128.48,0,0,1-24.93,18.19c10.68-4,28.79-9.66,48.46-9.66a92.87,92.87,0,0,1,11.46.67.86.86,0,0,1,.67.58.77.77,0,0,1-.28.83C229.69,549.18,213.12,555.39,195.45,555.39Z" fill="#88987f"/><path d="M220.94,593.74V597c0,2.11-2,3.83-4.46,3.83H68.31c-2.47,0-4.46-1.72-4.46-3.83v-3.23c0-2.11,2-3.81,4.46-3.81H216.48C219,589.94,220.94,591.63,220.94,593.74Z" fill="#2c3136"/><path d="M213.71,608l-20.66,98.33a2.62,2.62,0,0,1-2.57,2.08H94.31a2.62,2.62,0,0,1-2.57-2.08L71.08,608a2.64,2.64,0,0,1,2.57-3.17h137.5A2.64,2.64,0,0,1,213.71,608Z" fill="#2c3136"/><path d="M296.29,555.39a76.1,76.1,0,0,1-12.18-1c8.46,3.14,22.16,9.52,33.37,23a.77.77,0,0,1,.07.92.78.78,0,0,1-.88.35c-13.4-3.35-24.31-7.88-32.47-13.5a43.06,43.06,0,0,1-10.61-9.94c-.14,3.65.14,13,.3,17.86.18,5.64.18,5.64,0,5.92a3,3,0,0,1-2.15,1.09,3.52,3.52,0,0,1-2.1-1c-.23-.3-.23-.3,0-6.4.16-4.78.44-13.89.3-17.49a42.62,42.62,0,0,1-10.61,9.94c-8.13,5.62-19.06,10.14-32.47,13.5a.79.79,0,0,1-.88-.35.77.77,0,0,1,.07-.92c11.23-13.52,24.93-19.9,33.39-23a76.65,76.65,0,0,1-12.2,1c-17.68,0-34.25-6.22-49.22-18.49a.76.76,0,0,1-.25-.83.8.8,0,0,1,.67-.58,92.33,92.33,0,0,1,11.46-.67c19.64,0,37.76,5.68,48.44,9.66a128.48,128.48,0,0,1-24.93-18.19,105,105,0,0,1-30.92-53.52.84.84,0,0,1,.32-.83.76.76,0,0,1,.88,0c36.79,22.14,55.6,54.07,63.34,67.85a128.58,128.58,0,0,1-6.24-29.3c-2.2-22.83,1.25-46.06,10.24-69a.83.83,0,0,1,.76-.51.8.8,0,0,1,.74.51c9,23,12.43,46.22,10.24,69a129.49,129.49,0,0,1-6.22,29.3c7.72-13.75,26.55-45.69,63.32-67.82a.76.76,0,0,1,.88,0,.8.8,0,0,1,.32.83,105,105,0,0,1-30.92,53.52,128.48,128.48,0,0,1-24.93,18.19c10.68-4,28.79-9.66,48.46-9.66a92.87,92.87,0,0,1,11.46.67.86.86,0,0,1,.67.58.77.77,0,0,1-.28.83C330.54,549.18,314,555.39,296.29,555.39Z" fill="#88987f"/><path d="M267.93,555.39a76.1,76.1,0,0,1-12.18-1c8.46,3.14,22.16,9.52,33.37,23a.77.77,0,0,1,.07.92.78.78,0,0,1-.88.35c-13.4-3.35-24.31-7.88-32.47-13.5a43.06,43.06,0,0,1-10.61-9.94c-.14,3.65.14,13,.3,17.86.18,5.64.18,5.64,0,5.92a3,3,0,0,1-2.15,1.09,3.52,3.52,0,0,1-2.1-1c-.23-.3-.23-.3,0-6.4.16-4.78.44-13.89.3-17.49A42.62,42.62,0,0,1,231,565.21c-8.13,5.62-19.06,10.14-32.47,13.5a.79.79,0,0,1-.88-.35.77.77,0,0,1,.07-.92c11.23-13.52,24.93-19.9,33.39-23a76.65,76.65,0,0,1-12.2,1c-17.68,0-34.25-6.22-49.22-18.49a.76.76,0,0,1-.25-.83.8.8,0,0,1,.67-.58,92.33,92.33,0,0,1,11.46-.67c19.64,0,37.76,5.68,48.44,9.66A128.48,128.48,0,0,1,205,526.3a105,105,0,0,1-30.92-53.52.84.84,0,0,1,.32-.83.76.76,0,0,1,.88,0c36.79,22.14,55.6,54.07,63.34,67.85a128.58,128.58,0,0,1-6.24-29.3c-2.2-22.83,1.25-46.06,10.24-69a.83.83,0,0,1,.76-.51.8.8,0,0,1,.74.51c9,23,12.43,46.22,10.24,69a129.49,129.49,0,0,1-6.22,29.3c7.72-13.75,26.55-45.69,63.32-67.82a.76.76,0,0,1,.88,0,.8.8,0,0,1,.32.83,105,105,0,0,1-30.92,53.52,128.48,128.48,0,0,1-24.93,18.19c10.68-4,28.79-9.66,48.46-9.66a92.87,92.87,0,0,1,11.46.67.86.86,0,0,1,.67.58.77.77,0,0,1-.28.83C302.18,549.18,285.61,555.39,267.93,555.39Z" fill="#88987f"/><path d="M350.15,593.93v3.15c0,2.05-2,3.73-4.46,3.73H197.52c-2.47,0-4.46-1.67-4.46-3.73v-3.15c0-2.05,2-3.71,4.46-3.71H345.69C348.16,590.22,350.15,591.87,350.15,593.93Z" fill="#2c3136"/><path d="M342.92,608l-20.66,98.33a2.62,2.62,0,0,1-2.57,2.08H223.51a2.62,2.62,0,0,1-2.57-2.08L200.29,608a2.64,2.64,0,0,1,2.57-3.17h137.5A2.64,2.64,0,0,1,342.92,608Z" fill="#2c3136"/><path d="M260.32,521.79a99.86,99.86,0,0,1-16-1.3c11.1,4.12,29.08,12.49,43.79,30.23a1,1,0,0,1,.09,1.21,1,1,0,0,1-1.15.45c-17.59-4.4-31.9-10.34-42.61-17.71a56.51,56.51,0,0,1-13.92-13c-.18,4.79.18,17,.39,23.44.24,7.4.24,7.4,0,7.76a3.89,3.89,0,0,1-2.82,1.43,4.62,4.62,0,0,1-2.76-1.27c-.3-.39-.3-.39-.06-8.4.21-6.28.58-18.22.39-23a55.93,55.93,0,0,1-13.92,13c-10.67,7.37-25,13.31-42.61,17.71a1,1,0,0,1-1.15-.45,1,1,0,0,1,.09-1.21c14.74-17.74,32.72-26.11,43.82-30.23a100.59,100.59,0,0,1-16,1.3c-23.2,0-44.94-8.16-64.59-24.26a1,1,0,0,1-.33-1.09,1,1,0,0,1,.88-.76,121.16,121.16,0,0,1,15-.88c25.78,0,49.55,7.46,63.56,12.68a168.6,168.6,0,0,1-32.72-23.87,137.72,137.72,0,0,1-40.57-70.23,1.1,1.1,0,0,1,.42-1.09,1,1,0,0,1,1.15,0c48.28,29.05,73,71,83.12,89a168.73,168.73,0,0,1-8.19-38.45c-2.88-30,1.64-60.44,13.43-90.61a1.1,1.1,0,0,1,1-.67,1.05,1.05,0,0,1,1,.67c11.8,30.14,16.31,60.65,13.43,90.58a169.93,169.93,0,0,1-8.16,38.45c10.13-18,34.84-60,83.09-89a1,1,0,0,1,1.15,0,1,1,0,0,1,.42,1.09,137.72,137.72,0,0,1-40.57,70.23,168.6,168.6,0,0,1-32.72,23.87c14-5.22,37.78-12.68,63.59-12.68a121.86,121.86,0,0,1,15,.88,1.12,1.12,0,0,1,.88.76,1,1,0,0,1-.36,1.09C305.26,513.63,283.52,521.79,260.32,521.79Z" fill="#9cb396"/><path d="M217.77,521.79a99.86,99.86,0,0,1-16-1.3c11.1,4.12,29.08,12.49,43.79,30.23a1,1,0,0,1,.09,1.21,1,1,0,0,1-1.15.45c-17.59-4.4-31.9-10.34-42.61-17.71a56.51,56.51,0,0,1-13.92-13c-.18,4.79.18,17,.39,23.44.24,7.4.24,7.4,0,7.76a3.89,3.89,0,0,1-2.82,1.43,4.62,4.62,0,0,1-2.76-1.27c-.3-.39-.3-.39-.06-8.4.21-6.28.58-18.22.39-23a55.93,55.93,0,0,1-13.92,13c-10.67,7.37-25,13.31-42.61,17.71a1,1,0,0,1-1.15-.45,1,1,0,0,1,.09-1.21c14.74-17.74,32.72-26.11,43.82-30.23a100.59,100.59,0,0,1-16,1.3c-23.2,0-44.94-8.16-64.59-24.26a1,1,0,0,1-.33-1.09,1,1,0,0,1,.88-.76,121.16,121.16,0,0,1,15-.88c25.78,0,49.55,7.46,63.56,12.68a168.6,168.6,0,0,1-32.72-23.87,137.72,137.72,0,0,1-40.57-70.23,1.1,1.1,0,0,1,.42-1.09,1,1,0,0,1,1.15,0c48.28,29.05,73,71,83.12,89a168.73,168.73,0,0,1-8.19-38.45c-2.88-30,1.64-60.44,13.43-90.61a1.1,1.1,0,0,1,1-.67,1.05,1.05,0,0,1,1,.67c11.8,30.14,16.31,60.65,13.43,90.58a169.93,169.93,0,0,1-8.16,38.45c10.13-18,34.84-60,83.09-89a1,1,0,0,1,1.15,0,1,1,0,0,1,.42,1.09,137.72,137.72,0,0,1-40.57,70.23,168.6,168.6,0,0,1-32.72,23.87c14-5.22,37.78-12.68,63.59-12.68a121.86,121.86,0,0,1,15,.88,1.12,1.12,0,0,1,.88.76,1,1,0,0,1-.36,1.09C262.72,513.63,241,521.79,217.77,521.79Z" fill="#9cb396"/><path d="M309.72,561.48v3.21c0,2.1-2.61,3.8-5.85,3.8H109.43c-3.24,0-5.85-1.7-5.85-3.8v-3.21c0-2.1,2.61-3.78,5.85-3.78H303.87C307.11,557.7,309.72,559.38,309.72,561.48Z" fill="#2c3136"/><path d="M300.23,576.66l-27.11,129a3.44,3.44,0,0,1-3.37,2.73H143.54a3.44,3.44,0,0,1-3.37-2.73l-27.11-129a3.46,3.46,0,0,1,3.37-4.15H296.86A3.46,3.46,0,0,1,300.23,576.66Z" fill="#2c3136"/><path d="M239,507.61a99.86,99.86,0,0,1-16-1.3c11.1,4.12,29.08,12.49,43.79,30.23a1,1,0,0,1,.09,1.21,1,1,0,0,1-1.15.45c-17.59-4.4-31.9-10.34-42.61-17.71a56.51,56.51,0,0,1-13.92-13c-.18,4.79.18,17,.39,23.44.24,7.4.24,7.4,0,7.76a3.89,3.89,0,0,1-2.82,1.43,4.62,4.62,0,0,1-2.76-1.27c-.3-.39-.3-.39-.06-8.4.21-6.28.58-18.22.39-23a55.93,55.93,0,0,1-13.92,13c-10.67,7.37-25,13.31-42.61,17.71a1,1,0,0,1-1.15-.45,1,1,0,0,1,.09-1.21c14.74-17.74,32.72-26.11,43.82-30.23a100.59,100.59,0,0,1-16,1.3c-23.2,0-44.94-8.16-64.59-24.26a1,1,0,0,1-.33-1.09,1,1,0,0,1,.88-.76,121.16,121.16,0,0,1,15-.88c25.78,0,49.55,7.46,63.56,12.68a168.6,168.6,0,0,1-32.72-23.87,137.72,137.72,0,0,1-40.57-70.23,1.1,1.1,0,0,1,.42-1.09,1,1,0,0,1,1.15,0c48.28,29.05,73,71,83.12,89a168.73,168.73,0,0,1-8.19-38.45c-2.88-30,1.64-60.44,13.43-90.61a1.1,1.1,0,0,1,1-.67,1.05,1.05,0,0,1,1,.67c11.8,30.14,16.31,60.65,13.43,90.58a169.93,169.93,0,0,1-8.16,38.45c10.13-18,34.84-60,83.09-89a1,1,0,0,1,1.15,0,1,1,0,0,1,.42,1.09,137.72,137.72,0,0,1-40.57,70.23,168.6,168.6,0,0,1-32.72,23.87c14-5.22,37.78-12.68,63.59-12.68a121.86,121.86,0,0,1,15,.88,1.12,1.12,0,0,1,.88.76,1,1,0,0,1-.36,1.09C284,499.45,262.24,507.61,239,507.61Z" fill="#a6c0a0"/></svg>