<svg id="Layer_1" data-name="Layer 1" xmlns="http://www.w3.org/2000/svg" viewBox="0 0 1818 1186"><title>about-us-graphic-4</title><circle cx="909" cy="601.57" r="76.17" fill="#a6c0a0"/><path d="M905.7,632.71c-6.36,0-12.41.18-18.37-.08A7.26,7.26,0,0,1,881,629.1c-2.68-5-22.25-43.43-23-45-.16-.3-.12-1.32,1.18-1.32,5.22,0,10.45-.05,15.66,0,3.63,0,6.32,1.35,7.71,3.93,1.94,3.6,23,45.37,23.19,46Z" fill="#2c3136"/><path d="M940.75,632.71c-6.36,0-12.41.18-18.37-.08a7.26,7.26,0,0,1-6.32-3.53c-2.68-5-22.25-43.43-23-45-.16-.3-.12-1.32,1.18-1.32,5.22,0,10.45-.05,15.65,0,3.63,0,6.32,1.35,7.71,3.93,1.94,3.6,23,45.37,23.19,46Z" fill="#2c3136"/><path d="M961.06,583h0c-.75-.13-5.73-.2-10.68-.21a8.56,8.56,0,0,0-7.94,5c-2.43,4.61-4.73,9.3-7.1,13.95a1.13,1.13,0,0,0,1,1.69c.75.13,5.73.2,10.68.21a8.56,8.56,0,0,0,7.94-5c2.43-4.62,4.73-9.3,7.1-14a1.13,1.13,0,0,0-1-1.69Z" fill="#2c3136"/><path d="M916.79,198a24,24,0,0,1-3.84-.31,24.67,24.67,0,0,1,10.53,7.27.24.24,0,0,1,0,.29.25.25,0,0,1-.28.11A31.71,31.71,0,0,1,913,201.08a13.59,13.59,0,0,1-3.35-3.14c0,1.15,0,4.09.09,5.64.06,1.78.06,1.78,0,1.87a.93.93,0,0,1-.68.34,1.11,1.11,0,0,1-.66-.31c-.07-.09-.07-.09,0-2,.05-1.51.14-4.38.09-5.52a13.45,13.45,0,0,1-3.35,3.14,31.64,31.64,0,0,1-10.25,4.26.25.25,0,0,1-.28-.11.24.24,0,0,1,0-.29,24.73,24.73,0,0,1,10.54-7.27,23.64,23.64,0,0,1-19.39-5.52.24.24,0,0,1-.08-.26.25.25,0,0,1,.21-.18,29.15,29.15,0,0,1,3.62-.21,45.09,45.09,0,0,1,15.29,3,40.56,40.56,0,0,1-7.87-5.74,33.13,33.13,0,0,1-9.76-16.89.26.26,0,0,1,.1-.26.24.24,0,0,1,.28,0c11.61,7,17.55,17.07,20,21.42a40.59,40.59,0,0,1-2-9.25,47.08,47.08,0,0,1,3.23-21.8.26.26,0,0,1,.24-.16.25.25,0,0,1,.23.16,47,47,0,0,1,3.23,21.79,40.88,40.88,0,0,1-2,9.25c2.44-4.34,8.38-14.42,20-21.41a.24.24,0,0,1,.28,0,.25.25,0,0,1,.1.26,33.13,33.13,0,0,1-9.76,16.89,40.56,40.56,0,0,1-7.87,5.74,45.1,45.1,0,0,1,15.3-3,29.31,29.31,0,0,1,3.62.21.27.27,0,0,1,.21.18.24.24,0,0,1-.09.26A24.11,24.11,0,0,1,916.79,198Z" fill="#a6c0a0"/><path d="M933.79,209.7v1.2a1.41,1.41,0,0,1-1.41,1.42H885.61a1.41,1.41,0,0,1-1.41-1.42v-1.2a1.4,1.4,0,0,1,1.41-1.41h46.77A1.4,1.4,0,0,1,933.79,209.7Z" fill="#2c3136"/><path d="M931.51,214.59l-6.52,31a.83.83,0,0,1-.81.66H893.82a.83.83,0,0,1-.81-.66l-6.52-31a.83.83,0,0,1,.81-1h43.4A.83.83,0,0,1,931.51,214.59Z" fill="#2c3136"/><path d="M839.72,198a24.2,24.2,0,0,1-3.85-.31,24.73,24.73,0,0,1,10.54,7.27.24.24,0,0,1,0,.29.25.25,0,0,1-.28.11,31.64,31.64,0,0,1-10.25-4.26,13.59,13.59,0,0,1-3.35-3.14c-.05,1.15,0,4.09.09,5.64.06,1.78.06,1.78,0,1.87a1,1,0,0,1-.69.34,1.11,1.11,0,0,1-.66-.31c-.07-.09-.07-.09,0-2,.05-1.51.14-4.38.09-5.52a13.45,13.45,0,0,1-3.35,3.14,31.71,31.71,0,0,1-10.25,4.26.25.25,0,0,1-.28-.11.24.24,0,0,1,0-.29,24.64,24.64,0,0,1,10.54-7.27,23.64,23.64,0,0,1-19.39-5.52.24.24,0,0,1-.09-.26.27.27,0,0,1,.21-.18,29.32,29.32,0,0,1,3.62-.21,45.1,45.1,0,0,1,15.3,3,40.56,40.56,0,0,1-7.87-5.74,33.13,33.13,0,0,1-9.76-16.89.25.25,0,0,1,.1-.26.24.24,0,0,1,.28,0c11.61,7,17.55,17.07,20,21.42a41.06,41.06,0,0,1-2-9.25,47.08,47.08,0,0,1,3.23-21.8.25.25,0,0,1,.23-.16.26.26,0,0,1,.24.16,47.14,47.14,0,0,1,3.23,21.79,40.4,40.4,0,0,1-2,9.25c2.44-4.34,8.38-14.42,20-21.41a.24.24,0,0,1,.28,0,.25.25,0,0,1,.1.26,33.13,33.13,0,0,1-9.76,16.89,40.56,40.56,0,0,1-7.87,5.74,45.09,45.09,0,0,1,15.29-3,29.15,29.15,0,0,1,3.62.21.25.25,0,0,1,.21.18.24.24,0,0,1-.08.26A24.11,24.11,0,0,1,839.72,198Z" fill="#a6c0a0"/><path d="M856.57,209.7v1.2a1.41,1.41,0,0,1-1.41,1.42H808.39A1.41,1.41,0,0,1,807,210.9v-1.2a1.4,1.4,0,0,1,1.41-1.41h46.77A1.4,1.4,0,0,1,856.57,209.7Z" fill="#2c3136"/><path d="M854.29,214.59l-6.52,31a.83.83,0,0,1-.81.66H816.6a.83.83,0,0,1-.81-.66l-6.52-31a.83.83,0,0,1,.81-1h43.4A.83.83,0,0,1,854.29,214.59Z" fill="#2c3136"/><path d="M993.87,198a24,24,0,0,1-3.84-.31,24.73,24.73,0,0,1,10.54,7.27.25.25,0,0,1,0,.29.25.25,0,0,1-.28.11,31.78,31.78,0,0,1-10.25-4.26,13.59,13.59,0,0,1-3.35-3.14c0,1.15.05,4.09.1,5.64.05,1.78.05,1.78,0,1.87a1,1,0,0,1-.69.34,1.11,1.11,0,0,1-.66-.31c-.07-.09-.07-.09,0-2,.05-1.51.15-4.38.09-5.52a13.31,13.31,0,0,1-3.35,3.14,31.64,31.64,0,0,1-10.25,4.26.24.24,0,0,1-.27-.11.25.25,0,0,1,0-.29,24.73,24.73,0,0,1,10.54-7.27,23.64,23.64,0,0,1-19.39-5.52.25.25,0,0,1-.08-.26.26.26,0,0,1,.21-.18,29.23,29.23,0,0,1,3.62-.21,45,45,0,0,1,15.29,3,40.56,40.56,0,0,1-7.87-5.74,33.06,33.06,0,0,1-9.75-16.89.26.26,0,0,1,.09-.26.24.24,0,0,1,.28,0c11.61,7,17.56,17.07,20,21.42a40.59,40.59,0,0,1-2-9.25,47.18,47.18,0,0,1,3.24-21.8.25.25,0,0,1,.47,0,47.15,47.15,0,0,1,3.24,21.79,40.8,40.8,0,0,1-2,9.25c2.44-4.34,8.38-14.42,20-21.41a.24.24,0,0,1,.28,0,.26.26,0,0,1,.09.26,33.06,33.06,0,0,1-9.75,16.89,40.56,40.56,0,0,1-7.87,5.74,45,45,0,0,1,15.29-3,29.32,29.32,0,0,1,3.62.21.26.26,0,0,1,.21.18.25.25,0,0,1-.08.26A24.13,24.13,0,0,1,993.87,198Z" fill="#a6c0a0"/><path d="M1008.73,214.59l-6.52,31a.82.82,0,0,1-.81.66H971a.82.82,0,0,1-.8-.66l-6.52-31a.83.83,0,0,1,.8-1h43.4A.83.83,0,0,1,1008.73,214.59Z" fill="#2c3136"/><path d="M1011,209.7v1.2a1.42,1.42,0,0,1-1.42,1.42H962.83a1.42,1.42,0,0,1-1.42-1.42v-1.2a1.41,1.41,0,0,1,1.42-1.41h46.77A1.41,1.41,0,0,1,1011,209.7Z" fill="#2c3136"/><circle cx="909" cy="204.06" r="129.06" fill="none" stroke="#a6c0a0" stroke-miterlimit="10" stroke-width="3.1"/><line x1="831.78" y1="229.5" x2="974.57" y2="229.5" fill="none" stroke="#2c3136" stroke-miterlimit="10" stroke-width="3.1"/><path d="M279.78,536.67V666.58h129.9V536.67Zm106.29,79.74c-8.39,6.89-17.68,10.37-27.6,10.37a42.57,42.57,0,0,1-6.83-.56,43.86,43.86,0,0,1,18.71,12.92.45.45,0,0,1,0,.53.45.45,0,0,1-.5.19c-7.52-1.88-13.62-4.42-18.2-7.56a24.26,24.26,0,0,1-5.95-5.58c-.09,2,.07,7.27.17,10,.1,3.17.1,3.17,0,3.32a1.65,1.65,0,0,1-1.2.61,2,2,0,0,1-1.18-.56c-.13-.16-.13-.16,0-3.58.1-2.68.26-7.79.17-9.81a24,24,0,0,1-5.95,5.58c-4.56,3.14-10.68,5.68-18.2,7.56a.44.44,0,0,1-.46-.71,44,44,0,0,1,18.73-12.92,42.91,42.91,0,0,1-6.85.56c-9.91,0-19.21-3.48-27.6-10.37a.4.4,0,0,1-.14-.46.43.43,0,0,1,.37-.33,52.19,52.19,0,0,1,6.43-.37c11,0,21.16,3.18,27.15,5.42a72.65,72.65,0,0,1-14-10.21,58.8,58.8,0,0,1-17.34-30A.48.48,0,0,1,306,580a.43.43,0,0,1,.48,0c20.64,12.42,31.18,30.33,35.53,38.05a72.24,72.24,0,0,1-3.51-16.43,83.77,83.77,0,0,1,5.75-38.72.45.45,0,0,1,.43-.29.43.43,0,0,1,.41.29,83.53,83.53,0,0,1,5.75,38.71A72,72,0,0,1,347.39,618c4.34-7.7,14.89-25.61,35.51-38a.43.43,0,0,1,.48,0,.45.45,0,0,1,.19.47,58.8,58.8,0,0,1-17.34,30,72.21,72.21,0,0,1-14,10.21c6-2.24,16.14-5.42,27.17-5.42a52.52,52.52,0,0,1,6.43.37.46.46,0,0,1,.37.33A.41.41,0,0,1,386.07,616.41Z" fill="#a6c0a0"/><path d="M652.15,834.5h0c-43.45,0-109.72,35.22-109.72,78.68v123.51H489.72V830.76a111,111,0,0,0-111.06-111H209.72a111.05,111.05,0,0,0-111.06,111V1103H757.33V903.61C757.33,865.44,690.32,834.5,652.15,834.5ZM285,1076.71H195.05V955.13H285Zm105.49,0h-89.9V955.13h89.9ZM377.36,855.45a45.12,45.12,0,0,1-31.61,13.08H239.7a44.74,44.74,0,0,1-43.44-34,44.13,44.13,0,0,1-1.31-10.68,44.75,44.75,0,0,1,44.75-44.75H345.75a44.74,44.74,0,0,1,31.61,76.38Zm347.89,183.33H573.77V922H725.25Z" fill="#a6c0a0"/><rect x="573.77" y="922.05" width="151.48" height="116.74" fill="#88987f"/><rect x="300.56" y="955.13" width="89.9" height="121.59" fill="#88987f"/><rect x="195.05" y="955.13" width="89.92" height="121.59" fill="#88987f"/><path d="M390.47,823.81A44.52,44.52,0,0,1,366,863.65a44.15,44.15,0,0,1-20.25,4.88H239.7a44.74,44.74,0,0,1-43.44-34,44.13,44.13,0,0,1-1.31-10.68,44.75,44.75,0,0,1,44.75-44.75H345.75a44.72,44.72,0,0,1,44.72,44.75Z" fill="#88987f"/><path d="M1370.36,536.09a65.43,65.43,0,1,0,65.44,65.43A65.42,65.42,0,0,0,1370.36,536.09Zm41.36,80.22c-8.4,6.89-17.7,10.37-27.61,10.37a42.42,42.42,0,0,1-6.83-.56A43.86,43.86,0,0,1,1396,639a.45.45,0,0,1,0,.53.42.42,0,0,1-.48.18c-7.52-1.88-13.64-4.42-18.21-7.55a24.29,24.29,0,0,1-6-5.58c-.09,2,.07,7.27.17,10,.1,3.17.1,3.17,0,3.32a1.66,1.66,0,0,1-1.21.62,1.93,1.93,0,0,1-1.18-.56c-.13-.16-.13-.16,0-3.58.09-2.68.25-7.79.16-9.81a24.09,24.09,0,0,1-6,5.58c-4.56,3.13-10.68,5.67-18.19,7.55a.44.44,0,0,1-.5-.18.45.45,0,0,1,0-.53,44,44,0,0,1,18.73-12.92,42.89,42.89,0,0,1-6.85.56c-9.91,0-19.21-3.48-27.6-10.37a.4.4,0,0,1-.14-.46.44.44,0,0,1,.37-.33,53.59,53.59,0,0,1,6.43-.37c11,0,21.17,3.18,27.16,5.42a72.7,72.7,0,0,1-14-10.21,58.75,58.75,0,0,1-17.34-30,.49.49,0,0,1,.18-.47.44.44,0,0,1,.49,0c20.64,12.42,31.18,30.33,35.53,38a71.54,71.54,0,0,1-3.5-16.43,83.62,83.62,0,0,1,5.73-38.72.47.47,0,0,1,.43-.29.45.45,0,0,1,.42.29,83.46,83.46,0,0,1,5.74,38.71,71.92,71.92,0,0,1-3.49,16.43c4.34-7.71,14.89-25.62,35.51-38a.44.44,0,0,1,.49,0,.47.47,0,0,1,.18.47,58.75,58.75,0,0,1-17.34,30,72.09,72.09,0,0,1-14,10.21c6-2.24,16.15-5.42,27.17-5.42a53.71,53.71,0,0,1,6.43.37.46.46,0,0,1,.37.33A.4.4,0,0,1,1411.72,616.31Z" fill="#2c3136"/><path d="M1384.11,626.68a42.42,42.42,0,0,1-6.83-.56A43.86,43.86,0,0,1,1396,639a.45.45,0,0,1,0,.53.42.42,0,0,1-.48.18c-7.52-1.88-13.64-4.42-18.21-7.55a24.29,24.29,0,0,1-6-5.58c-.09,2,.07,7.27.17,10,.1,3.17.1,3.17,0,3.32a1.66,1.66,0,0,1-1.21.62,1.93,1.93,0,0,1-1.18-.56c-.13-.16-.13-.16,0-3.58.09-2.68.25-7.79.16-9.81a24.09,24.09,0,0,1-6,5.58c-4.56,3.13-10.68,5.67-18.19,7.55a.44.44,0,0,1-.5-.18.45.45,0,0,1,0-.53,44,44,0,0,1,18.73-12.92,42.89,42.89,0,0,1-6.85.56c-9.91,0-19.21-3.48-27.6-10.37a.4.4,0,0,1-.14-.46.44.44,0,0,1,.37-.33,53.59,53.59,0,0,1,6.43-.37c11,0,21.17,3.18,27.16,5.42a72.7,72.7,0,0,1-14-10.21,58.75,58.75,0,0,1-17.34-30,.49.49,0,0,1,.18-.47.44.44,0,0,1,.49,0c20.64,12.42,31.18,30.33,35.53,38a71.54,71.54,0,0,1-3.5-16.43,83.62,83.62,0,0,1,5.73-38.72.47.47,0,0,1,.43-.29.45.45,0,0,1,.42.29,83.46,83.46,0,0,1,5.74,38.71,71.92,71.92,0,0,1-3.49,16.43c4.34-7.71,14.89-25.62,35.51-38a.44.44,0,0,1,.49,0,.47.47,0,0,1,.18.47,58.75,58.75,0,0,1-17.34,30,72.09,72.09,0,0,1-14,10.21c6-2.24,16.15-5.42,27.17-5.42a53.71,53.71,0,0,1,6.43.37.46.46,0,0,1,.37.33.4.4,0,0,1-.14.46C1403.32,623.2,1394,626.68,1384.11,626.68Z" fill="#a6c0a0"/><path d="M1117.5,834.39v268.46h2.11V834.39Z" fill="#2c3136"/><path d="M1240.69,793.61q.73-.79,1.5-1.54h0C1241.64,792.57,1241.17,793.08,1240.69,793.61ZM1229.15,955v121.59h0V955Z" fill="#2c3136"/><path d="M1132.77,719.62v383.23h591.58V834.39H1576.59v202.18h-52.74v-317ZM1607.9,921.94h84.32v116.74H1607.9ZM1334.69,955h89.92v121.59h-89.92Zm-105.54,0H1319v121.59h-89.89ZM1229,823.71c0-.69,0-1.37.06-2s.06-1,.1-1.47a38.07,38.07,0,0,1,.71-5.22c.18-.94.4-1.84.63-2.75.26-1.07.59-2.1,1-3.14.25-.72.51-1.44.81-2.13s.46-1.12.72-1.69a28.65,28.65,0,0,1,1.65-3.29c.38-.68.78-1.34,1.2-2a38.8,38.8,0,0,1,3.41-4.75q.68-.84,1.41-1.63c.48-.53,1-1,1.47-1.54h0A44.56,44.56,0,0,1,1273.8,779h106c.71,0,1.4,0,2.06,0l.43,0c1.31.06,2.59.19,3.84.37.29.06.62.09.94.13.66.12,1.31.22,2,.38s1.31.29,2,.46a42.38,42.38,0,0,1,4.22,1.31c1,.37,2,.76,2.92,1.19.69.32,1.4.65,2.06,1l1.41.75c1,.56,1.94,1.12,2.88,1.76.43.26.82.56,1.22.85.88.62,1.73,1.25,2.59,1.94,1.1.91,2.16,1.87,3.17,2.88s2,2.09,2.88,3.17a33.21,33.21,0,0,1,2.59,3.47,20,20,0,0,1,1.18,1.81,16.84,16.84,0,0,1,1.06,1.87,17.17,17.17,0,0,1,1,1.94c.29.56.56,1.15.81,1.73a1.79,1.79,0,0,0,.13.29,17,17,0,0,1,.76,2,29.83,29.83,0,0,1,1.31,4.22,19.18,19.18,0,0,1,.51,2.16,14.15,14.15,0,0,1,.4,2.2,44.3,44.3,0,0,1,0,13.65l-.4,2.19a19.18,19.18,0,0,1-.51,2.16,30.24,30.24,0,0,1-1.31,4.2,15.17,15.17,0,0,1-.76,2c-.06.12-.09.22-.13.29-.25.59-.51,1.18-.81,1.73a17.36,17.36,0,0,1-1,2,18.3,18.3,0,0,1-1.06,1.87c-.35.6-.75,1.22-1.18,1.81a32.2,32.2,0,0,1-2.59,3.47c-.91,1.09-1.87,2.16-2.88,3.17a44.74,44.74,0,0,1-31.67,13.08h-106A44.74,44.74,0,0,1,1229,823.71Z" fill="#2c3136"/><rect x="971.85" y="834.39" width="147.76" height="268.46" fill="#2c3136"/><rect x="1229.18" y="955.02" width="89.86" height="121.59" fill="#40464d"/><rect x="1229.15" y="955.02" width="0.03" height="121.59" fill="#40464d"/><rect x="1334.69" y="955.02" width="89.89" height="121.59" fill="#40464d"/><rect x="1607.9" y="921.94" width="84.32" height="116.74" fill="#40464d"/><path d="M1229,823.71a44.74,44.74,0,0,0,44.76,44.72h106a44.74,44.74,0,0,0,31.67-13.08c1-1,2-2.09,2.88-3.17a39.34,39.34,0,0,0,2.59-3.47c.4-.59.79-1.2,1.18-1.81s.72-1.23,1.06-1.87.69-1.28,1-2,.56-1.15.81-1.73c0-.07.07-.18.13-.29.26-.63.53-1.29.76-2a41,41,0,0,0,1.31-4.2c.19-.72.35-1.44.51-2.16l.4-2.19a46.88,46.88,0,0,0,0-13.65c-.13-.73-.26-1.45-.4-2.2s-.32-1.44-.51-2.16a42.41,42.41,0,0,0-1.31-4.22c-.24-.66-.5-1.32-.76-2a1.79,1.79,0,0,1-.13-.29c-.25-.59-.51-1.18-.81-1.73s-.63-1.31-1-1.94-.69-1.25-1.06-1.87-.78-1.22-1.18-1.81a39.35,39.35,0,0,0-2.59-3.47c-.91-1.09-1.87-2.16-2.88-3.17s-2.07-2-3.17-2.88c-.85-.69-1.7-1.32-2.59-1.94-.4-.29-.79-.59-1.22-.85-.94-.65-1.9-1.2-2.88-1.76l-1.41-.75c-.66-.34-1.37-.66-2.06-1-1-.43-1.94-.82-2.92-1.19a42.38,42.38,0,0,0-4.22-1.31c-.66-.16-1.31-.32-2-.46s-1.31-.26-2-.38c-.32,0-.65-.07-.94-.13-1.25-.18-2.53-.31-3.84-.37l-.43,0c-.66,0-1.35,0-2.06,0h-106a44.56,44.56,0,0,0-31.61,13.11q-.77.75-1.5,1.54t-1.41,1.63a38.8,38.8,0,0,0-3.41,4.75c-.43.66-.82,1.32-1.2,2a28.65,28.65,0,0,0-1.65,3.29c-.26.57-.51,1.13-.72,1.69s-.56,1.41-.81,2.13c-.37,1-.69,2.07-1,3.14-.24.91-.46,1.81-.63,2.75a38.07,38.07,0,0,0-.71,5.22c0,.48-.07,1-.1,1.47S1229,823,1229,823.71Z" fill="#40464d"/><path d="M1455.51,793.61q-.73-.79-1.5-1.54h0C1454.55,792.57,1455,793.08,1455.51,793.61Z" fill="#40464d"/><circle cx="1045.74" cy="952.49" r="34.79" fill="#40464d"/><line x1="909" y1="525.39" x2="909" y2="333.12" fill="none" stroke="#a6c0a0" stroke-miterlimit="10" stroke-width="3.1"/><line x1="985.17" y1="601.57" x2="1343.78" y2="601.57" fill="none" stroke="#a6c0a0" stroke-miterlimit="10" stroke-width="3.1"/><line x1="832.83" y1="601.57" x2="405.19" y2="601.57" fill="none" stroke="#a6c0a0" stroke-miterlimit="10" stroke-width="3.1"/></svg>