<svg xmlns="http://www.w3.org/2000/svg" viewBox="0 0 310.11 317.12"><defs><style>.cls-1{fill:#e6e7e8;}.cls-2{fill:#231f20;}</style></defs><title>Asset 2</title><g id="Layer_2" data-name="Layer 2"><g id="Layer_2-2" data-name="Layer 2"><path class="cls-1" d="M85,200.58c-.28-.59-.68,1.18-1.07,1.89a24.45,24.45,0,0,1-2.67,3.61c-2.5,3.07-5.13,6-7.75,9q-7.58,8.55-15.64,16.66l11.78,9.09A414.24,414.24,0,0,0,101.51,193c3.52-6.19-3.83-14.66-10.26-10.26A251.25,251.25,0,0,0,47,221l11.78,9.09,26-57c3.53-7.76-5.09-14.76-11.78-9.09A219.33,219.33,0,0,0,25.71,220.4l13,7.57,37.83-72c3.88-7.38-5.6-15.32-11.78-9.09A460.31,460.31,0,0,0,1.12,227.24c-4.55,7.28,5.79,15.07,11.78,9.09C28.49,220.77,36.38,198.73,45.1,179c9.9-22.44,19.34-45.08,28.8-67.71,1.26-3-.84-6.95-3.45-8.47-3.12-1.82-6.42-.9-9.09,1.17L47.67,114.59c-3.22,2.5-2.58,8,0,10.61,3.12,3.19,7.43,2.47,10.61,0L72,114.56l-12.54-7.3c-9,21.44-17.91,42.87-27.28,64.13C24,189.78,16.79,211.25,2.3,225.73l11.78,9.09a442.33,442.33,0,0,1,61.24-77.31l-11.78-9.09-37.83,72c-4.48,8.52,8,15.94,13,7.57a207.07,207.07,0,0,1,45-53.38l-11.78-9.09-26,57c-3.28,7.2,5.61,15.87,11.78,9.09a234.59,234.59,0,0,1,41.17-36L88.56,185.38a414.24,414.24,0,0,1-31.84,47.89c-5.27,6.84,5.93,15,11.78,9.09Q79.75,231,90.12,218.79c6.42-7.58,12.64-15.63,7.85-25.78-4.12-8.72-17.05-1.12-13,7.57Z"/></g><g id="Layer_1-2" data-name="Layer 1"><path class="cls-2" d="M104.06,32.3A65.23,65.23,0,0,0,62,35.83c-.53.23-.14,1.17.4.94a69.3,69.3,0,0,1,41.52-3.93c.35.08.5-.46.15-.54Z"/><path class="cls-2" d="M131.2,22.76a29.41,29.41,0,0,0-11.83-7.7c-.64-.22-.87.75-.27,1a40.24,40.24,0,0,1,11.64,7.17.33.33,0,0,0,.46-.46Z"/><path class="cls-2" d="M158.4,24.29l-4.54-5c-.32-.36-.85.17-.53.53l4.47,5.1c.36.41,1-.19.6-.6Z"/><path class="cls-2" d="M71.94,116.9c1.27.72,1.85-.16,2.32-1.46,1.11-3-2.69-8.52-3.83-11.15-3.14-7.2-3.57-13.21-.38-20.5,1.74-4,4-7.95,4.12-12.39.18-4.76-2.58-8.61-3.77-13C68.68,52,70.5,45.28,74,39.81c7-11.12,20.07-16,31.84-20.27.45-.16.26-.88-.2-.72-16.38,5.68-40.17,15.94-37,37.57.73,5,4.16,9.23,4.25,14.3.1,5.56-3.36,10.41-5.23,15.45a19.62,19.62,0,0,0-.44,13.3,51.29,51.29,0,0,0,2.57,6.2c.54,1.16,5.61,12.18,2.18,11.19a0,0,0,0,0,0,.09Z"/><path class="cls-2" d="M103.43,18l43-3.52c13-1.06,29.66-5.47,39.48,5.49,4.68,5.22,8.93,10.89,13.36,16.32l6.27,7.69c1,1.26,3.32,3.43,3.87,4.94.91,2.52,0,5-.73,7.38-3.51,10.71-5.25,24.6-1.21,35.4.26.68,1.46.66,1.38-.19-.73-7.76-2-14.92-1.06-22.75a63.54,63.54,0,0,1,2.7-12c.66-2,1.76-4.08,1.45-6.26-.27-1.88-1.49-3.31-2.62-4.75-2.46-3.1-5.09-6.09-7.63-9.12-5.08-6.07-9.93-12.49-15.37-18.24-9-9.52-22.33-6.43-34-5.33l-48.87,4.62c-.18,0-.18.3,0,.28Z"/><path class="cls-2" d="M201,102.32l-1-4c-.07-.29-.54-.16-.45.12l1.26,3.91a.09.09,0,0,0,.18,0Z"/><path class="cls-2" d="M166.58,42.27c3.21,6.64,12.25,10.53,18.78,13,9.27,3.44,19.17,5.16,28.94,6.49.64.09.94-.87.27-1-8.13-1.47-16.31-2.7-24.24-5.11C182.68,53.27,171,49.53,167,42c-.14-.27-.53,0-.4.24Z"/><path class="cls-2" d="M175.35,59.34A173.07,173.07,0,0,0,202,71.67c.46.16.64-.55.2-.72A224.64,224.64,0,0,1,175.54,59c-.21-.11-.4.21-.19.32Z"/><path class="cls-2" d="M181.51,75.79c5.65,2.78,11.26,5.65,17,8.21.38.17.71-.37.33-.57-5.61-2.86-11.38-5.41-17.1-8.05-.27-.12-.51.27-.24.4Z"/><path class="cls-2" d="M150.86,34.94A19.05,19.05,0,0,0,142,11.23c-.64-.34-1.21.64-.57,1A18.09,18.09,0,0,1,150,34.72c-.19.51.62.72.81.22Z"/><path class="cls-2" d="M174,29.34C176.56,14.89,163.68,6.1,152.62.07a.56.56,0,0,0-.57,1c10.27,6.15,23.09,14.2,21.22,28.1-.06.47.64.68.72.2Z"/><path class="cls-2" d="M111.5,111.83c-6.67-7.11-16-1.84-22.26,2.85-.28.21,0,.69.28.49,6.23-4.32,15.12-9.82,21.85-3.2a.09.09,0,0,0,.13-.13Z"/><path class="cls-2" d="M103.12,110.83a2.24,2.24,0,0,0-3.74-1.39c-1.72,1.47-.89,4.25.56,5.55,1.81,1.61,4.7,1.71,7,1.42,1.7-.22,4.7-1.16,4.46-3.35a1.1,1.1,0,0,0-1.36-1c-.71.14-1.1.63-1.74.92a5.11,5.11,0,0,1-2.42.28,12.81,12.81,0,0,1-2.43-.38c-.66-.17-1.6-.19-1.58-1.06,0-.19.24-1.18.78-.67a.28.28,0,0,0,.47-.27Z"/><path class="cls-2" d="M143.45,111.41a.05.05,0,0,0,0-.1.05.05,0,0,0,0,.1Z"/><path class="cls-2" d="M143.46,111.34c4.84-1.06,8.58-5,13.62-5,5.45-.07,11.63,3.81,16.72,5.85.2.08.34-.26.14-.34-4.89-2.14-11-6.08-16.41-6.16-5.18-.08-9.23,4.42-14.1,5.58-.06,0,0,.1,0,.09Z"/><path class="cls-2" d="M163.73,110.62l-12.95.49c-.42,0-.42.69,0,.66l12.95-1c.12,0,.12-.19,0-.19Z"/><path class="cls-2" d="M113.8,105.47c-8.2-4-17.27-6.86-25.38-1.21a.56.56,0,0,0,.57,1c7.88-4.05,16.55-1.25,24.56.84.35.09.6-.43.25-.6Z"/><path class="cls-2" d="M141.84,99.65c12.44-7.35,28.89-1.11,40.85,4.73a.33.33,0,0,0,.33-.57c-6.61-4.87-16.25-7.78-24.23-9.22-6.24-1.13-13.15-.61-17.21,4.8-.12.16.11.35.26.26Z"/><path class="cls-2" d="M144.41,131.33a13.05,13.05,0,0,1,5.33,11.73c-.38,3.74-2.89,3.18-5.6,3.28a17.89,17.89,0,0,0-5.84,1.35c-.33.13-.21.65.15.54a23.55,23.55,0,0,1,6.87-1,9.85,9.85,0,0,0,3,0c1.77-.58,2-2.54,2.15-4.18a13.42,13.42,0,0,0-6-11.81c-.05,0-.09,0,0,.08Z"/><path class="cls-2" d="M115,137.38a7.43,7.43,0,0,0,1.92,8.72c3.77,3.1,9.36,1.32,13,4.72a.66.66,0,0,0,.93-.93c-2-2.23-4.87-2.39-7.64-2.71-2.25-.26-4.68-.5-6.41-2.13a7,7,0,0,1-1.56-7.56c.06-.15-.19-.25-.26-.11Z"/><path class="cls-2" d="M136,111.87a22.26,22.26,0,0,0-1.13,10.18.23.23,0,1,0,.46-.06,22.07,22.07,0,0,1,.85-10.07c0-.12-.14-.16-.18,0Z"/><path class="cls-2" d="M113.17,168.27a81.63,81.63,0,0,1,24.08-1.55,47.34,47.34,0,0,0,8.81,0c1.82-.21,3.61-.62,5.41-1,2.32-.45,6-.28,8-1.17,2.2-1-.64-.4-1.87-.25s-2.49.35-3.72.58c-3.64.68-7.22,1.66-10.81,2.55-8.08,2-16.27,3.3-24.27.3-.56-.21-.81.7-.25.9,14.65,5.38,29-3.5,43.64-4a.33.33,0,0,0,0-.66c-8.43-.48-16.42,2.65-24.95,2.07a74,74,0,0,0-24.13,2,.09.09,0,0,0,0,.18Z"/><path class="cls-2" d="M211.39,90q3.32-.46,3.4,2.07.48,2.32.77,4.67a16.72,16.72,0,0,1-.35,6.15c-1,3.27-2.54,5.14-2.47,8.67.09,4.27.5,8.55.71,12.81.11,2.17.24,4.33.31,6.5q.11,1.81.06,3.62.18,9-9.61,3.17a.71.71,0,0,0-1.38.19,5.69,5.69,0,0,0,9.29,4.39c2.37-1.81,3.14-4.93,3.26-7.75.22-5.18-.54-10.52-.8-15.69-.12-2.4-.38-4.84-.36-7.24,0-2.63.84-4.37,1.69-6.75a18.57,18.57,0,0,0,.4-9.81c-.24-1.35-2.76-10-5.09-5.1a.09.09,0,0,0,.16.09Z"/><path class="cls-2" d="M198.51,153a84.72,84.72,0,0,0-6.6,14.74c0,.06.07.08.09,0A84.63,84.63,0,0,1,198.59,153a0,0,0,0,0-.08,0Z"/><path class="cls-2" d="M85.87,153c2.32,12.23,7.84,23.29,14.7,33.58,3.34,5,7.05,9.77,10.82,14.48,3.43,4.29,6.79,9.38,11.6,12.26,9,5.37,21.17,2.42,30-1.65,10.72-4.93,20.31-12.73,28.67-21,.53-.52-.25-1.24-.8-.8-8.28,6.77-16.2,14.14-25.87,19-10.19,5.08-25.08,8.57-34.3-.12-7.61-7.17-14.06-16.64-20.05-25.16-6.58-9.36-11.91-19.47-14.52-30.67,0-.18-.3-.1-.27.07Z"/><path class="cls-2" d="M165.51,156.31a13.93,13.93,0,0,1,5.95,11.39.23.23,0,0,0,.47,0,14.28,14.28,0,0,0-6.32-11.55c-.1-.07-.19.09-.09.16Z"/><path class="cls-2" d="M109.62,144c-3.21,4-8.51,5.49-11.49,9.71a15.35,15.35,0,0,0-2.13,13c.31,1,1.84.56,1.54-.42-1.92-6.23-.65-11.79,4.63-15.9,2.66-2.07,5.48-3.64,7.53-6.38,0,0,0-.1-.07-.06Z"/><path class="cls-2" d="M79.16,124.32c-.16,6.9-.77,14-.45,20.85.2,4.29,2,6.61,5.86,8.38.7.32,1.32-.7.62-1.05-4-2-5.08-4.23-5.57-8.84-.2-1.9-.05-3.9-.08-5.8l-.18-13.54a.09.09,0,0,0-.19,0Z"/><path class="cls-2" d="M201.09,150.26a54.22,54.22,0,0,0-.28,15.7c.73,5.28,6.78,16.74,1,20.5a.28.28,0,0,0,.28.49c4.9-2.57,3.78-7.38,2.25-11.86a58.12,58.12,0,0,1-3.07-24.8c0-.1-.17-.13-.18,0Z"/><path class="cls-2" d="M186.85,195.89,176,204.79c-.14.11.06.32.2.2l10.68-9s0-.1-.07-.07Z"/><path class="cls-2" d="M199.62,185.55q-15.6,15-31,30.19l-7.69,7.6c-1.62,1.61-3.82,3.31-4.84,5.44-2.12,4.47,1.37,9.21,3,13.26a94.7,94.7,0,0,1,7,37.28c-.27,13-3.79,25-8.7,36.94-.31.75.9,1.22,1.29.54,10.79-19.16,12.23-44.22,6.48-65.17a92.34,92.34,0,0,0-6-15.06c-2.6-5.49.2-8.84,3.82-12.56l7.54-7.75q14.74-15.15,29.26-30.51a.14.14,0,0,0-.2-.2Z"/><path class="cls-2" d="M206,181.26c11.36,1.42,13.33,14.51,19.49,22,5.72,6.9,15.29,9.84,23.2,13.39q30.28,13.59,60.72,26.8c.54.24,1-.56.47-.81-21.3-9.72-42.68-19.24-64.08-28.75-4.37-1.94-8.91-3.71-13-6.18-5.17-3.1-8.2-7.57-11-12.77-3.46-6.49-7.77-13.4-15.82-14-.24,0-.23.35,0,.38Z"/><path class="cls-2" d="M243.74,212.52A18.47,18.47,0,0,0,246.05,224c2.34,4.45,12.54,14.5,6.34,19.25-2.29,1.76-6.43,2.36-9.18,3a77.66,77.66,0,0,1-9.6,1.67c-3.42.39-6.83.53-9.11,3.42a.86.86,0,0,0,.17,1.33,272.3,272.3,0,0,1,27.93,18.12,23.76,23.76,0,0,1,3,2.23c1.69,1.75,1.6,2.21.89,4.06-.83,2.19-2.9,4.48-4.28,6.37a115.67,115.67,0,0,1-11.73,13.27c-.52.52.25,1.27.8.8a92.13,92.13,0,0,0,18.4-22.53.85.85,0,0,0-.13-1,274.52,274.52,0,0,0-34-22.75l.17,1.33c2.33-3,6.31-2.7,9.71-3.14a76.08,76.08,0,0,0,8.25-1.52c3.52-.86,9.58-1.79,11.85-5.12,2.49-3.67-.67-8.16-2.72-11.21-4-5.92-9-11.27-8.12-19,.06-.52-.85-.65-.92-.12Z"/><path class="cls-2" d="M181.9,299a39.57,39.57,0,0,0,1.38-3.84c.63-1.61,1.32-3.21,2-4.8,1.31-3,2.68-6,4-9,2.39-5.2,4.8-10.39,6.95-15.7a104.51,104.51,0,0,0,5.51-16.9c.61-2.81,1-4.56-.89-6.7-1.35-1.51-2,.27-4.38-2.73-.66-.83-1-2-1.62-2.89a21.31,21.31,0,0,0-4-4.48,28.92,28.92,0,0,0-11.53-5.8c-6.5-1.68-15.47-1.32-18.79,5.53a.52.52,0,0,0,.89.52c5.71-8.72,18.95-6,26.3-1,4,2.72,5.42,6.19,8.29,9.78a11.18,11.18,0,0,0,1.82,1.55c1.79,1.56.49-1.66,2.25,2.24,1.05,2.33.68,3,.07,5.4-2.47,9.77-6.64,19-10.84,28.1-2,4.37-4,8.72-5.93,13.15-.89,2.1-3.27,5.78-2.48,8.11a.4.4,0,0,0,.38.29l.52,0a.29.29,0,0,0,.27-.21l.1-.42c0-.17-.19-.34-.31-.18Z"/><path class="cls-2" d="M167.58,245a41.29,41.29,0,0,0,14.61-4.69c5.23-2.9,10-7.52,16.37-7,.42,0,.52-.68.1-.74-4.76-.64-8.27,1.37-12.13,4-5.91,4.06-11.83,7-19,8.26-.06,0,0,.1,0,.09Z"/><path class="cls-2" d="M200.79,234.25l2.11,4.37a.28.28,0,0,0,.51-.07c1.89-9.42,10.45-16.59,14.23-25.35,2.31-5.36,5.23-15.1.19-19.75-.62-.57-1.56.36-.93.93,4,3.56,2.29,11,.91,15.44a52.78,52.78,0,0,1-6.27,12.48c-2.16,3.38-4.72,6.59-6.6,10.14-.5.94-.83,2-1.33,2.93-1.4,2.55-1.34,1.05-2.66-1.22-.06-.11-.21,0-.16.09Z"/><path class="cls-2" d="M103.65,205.74A99.82,99.82,0,0,0,116,231.19c1.2,1.76,1.55,1.74,1,4.08-.83,3.82-.44.77-1.61,2.62-.63,1-1,1.07-1.19,2.31-.31,2.2,1.2,3.87,2.67,5.23,2.59,2.39,5.15,3.73,6,7.44a25.91,25.91,0,0,1,.22,7.85,52.55,52.55,0,0,0,.1,12.17c1.52,9.46,6.45,19.25,12,27a.38.38,0,0,0,.65-.38c-4.6-9.37-10.58-17.85-11.8-28.52-.79-6.93,2.58-16.14-1.85-22.3-.8-1.11-2.06-1.72-2.89-2.72-1.14-1.39-2.58-6.77-1.67-8.08.46-.66.71.09,1.06-.73.79-1.83.67-2.46-.48-4.32-5.53-9-10.9-17.07-14.44-27.14,0-.11-.22-.07-.18,0Z"/><path class="cls-2" d="M111.63,291.19c-.88,2.23-1,5.43-2.28,1.89a39.82,39.82,0,0,1-1.5-7.21,117,117,0,0,1-1.39-14.54c-.35-9.29.18-18.58.72-27.85a.5.5,0,0,0-.49-.49c-8.48-1-21.32-3.5-21.38-14.55-.05-9.78,9.72-15,17.27-18.82.27-.14,0-.53-.24-.4-7.39,3.55-16,8-17.71,16.88-1.36,7.11,3.67,12.77,9.93,15.3a34.27,34.27,0,0,0,7.1,1.88c2.38.41,3.94.23,4.37,3,.39,2.53-.32,5.76-.43,8.35-.13,3.1-.23,6.2-.25,9.3-.07,10.92.43,22.58,4.11,33a.39.39,0,0,0,.74,0l1.51-5.66c0-.06-.07-.08-.09,0Z"/><path class="cls-2" d="M91.05,231.53c-26.21,1.68-52.17,13.06-72.62,29.23-.78.62.28,2,1.08,1.4,21.3-16.39,45.3-25.49,71.64-29.89.42-.07.32-.76-.1-.74Z"/></g></g></svg>