<svg xmlns="http://www.w3.org/2000/svg" viewBox="0 0 306.62 290.75"><defs><style>.cls-1{fill:#e6e7e8;}.cls-2{fill:#231f20;}</style></defs><title>Asset 4</title><g id="Layer_2" data-name="Layer 2"><g id="Layer_2-2" data-name="Layer 2"><path class="cls-1" d="M96.72,152.72a156.15,156.15,0,0,0-25,17.74l11.78,9.09L104,142.64c3.36-6-3.89-15-10.26-10.26a206.11,206.11,0,0,0-48.66,51l13.71,5.78,25.57-75.07c2.35-6.91-7.72-13-12.54-7.3A770,770,0,0,0,9.53,192l13.71,5.78c13-36.89,32.2-71,51.33-105,4-7.18-6-15.72-11.78-9.09A414.26,414.26,0,0,0,8.44,163.3l13,7.57A1276,1276,0,0,0,71.6,52.61c2.29-6.26-5.7-11.7-11-8.47L56.37,46.7c-8.24,5-.71,18,7.57,13l4.21-2.56-11-8.47A1237,1237,0,0,1,8.44,163.3c-4.18,8.6,8.44,16.19,13,7.57a397.69,397.69,0,0,1,52-76.53L61.61,85.25C41.83,120.35,22.17,155.7,8.77,193.83c-2.9,8.27,9.33,12.74,13.71,5.78a741.79,741.79,0,0,1,60-82.19l-12.54-7.3L44.33,185.19C41.47,193.6,53.53,197.72,58,191a185.21,185.21,0,0,1,43.28-45.64L91.06,135.07,70.56,172c-4.26,7.67,5.43,14.58,11.78,9.09a136.24,136.24,0,0,1,22-15.4c8.39-4.77.84-17.73-7.57-13Z"/></g><g id="Layer_1-2" data-name="Layer 1"><path class="cls-2" d="M98.18,114.24c-.42,1.24-.17,1.83.68,2.87,2.3,2.84,5.14,3.44,5.9,7.54.56,3,.15,7.18,4.12,7.63.21,0,.26-.33,0-.37l-2.8-2.59-.25-2.1c-.06-1.11.09-2.2,0-3.31a8,8,0,0,0-.81-2.82c-1-1.86-6.47-4.8-6-6.62a.42.42,0,0,0-.81-.22Z"/><path class="cls-2" d="M121.14,134.57h1.47a.09.09,0,0,0,0-.19h-1.47a.09.09,0,0,0,0,.19Z"/><path class="cls-2" d="M113.3,135.46a100.9,100.9,0,0,0,17.42.12c4.11-.38,10.95-.21,14.43-2.51,2.33-1.54,2.17-4.39,2.45-6.92.32-2.92.63-5.84.94-8.76.17-1.63,1.2-4.5.1-6s-4.13-1.3-5.73-1.46a120.76,120.76,0,0,0-16.29-.5c-9.42.35-20.76,1.65-28.92,6.7a.89.89,0,0,0,.9,1.54c3.87-1.72,7.27-3.79,11.4-5a69.11,69.11,0,0,1,12.36-2.41c6.65-.7,14.87-1.16,21.4.5,4,1,4.41,2.37,4,5.7q-.42,3.41-.84,6.82c-.36,2.93-.36,7.67-3.25,9.31-1.28.72-3.5.71-4.9.93a153.79,153.79,0,0,1-25.47,1.8c-.12,0-.12.18,0,.19Z"/><path class="cls-2" d="M150.18,111.32c4.68-1.61,12.2.14,14.24-5.81a.33.33,0,0,0-.55-.32c-3.67,3.84-9.61,2.48-14.21,4.23-1.17.44-.69,2.31.52,1.9Z"/><path class="cls-2" d="M177.92,101a63,63,0,0,1,12-4.13c3.42-.78,9.05-2.6,12.49-1.48s2.62,7.72,2.74,10.8a59.86,59.86,0,0,1-.33,11.58c-.07.45.51.77.77.33a21.3,21.3,0,0,0,2.91-13.62,28.67,28.67,0,0,0-1.69-7.13c-.28-.8-.48-2.44-1.25-3-2.34-1.66-8.69.25-11.42.78a62.17,62.17,0,0,0-16.3,5.71c-.11.06,0,.21.09.16Z"/><path class="cls-2" d="M200,121.13a99,99,0,0,1-26.57,6.36c-5.7.49-10.17-1.15-12.27-6.81-1.16-3.12-1.73-6.22-3.62-9l-.78.78a25.92,25.92,0,0,1,8.83,6.5c.82.89,2.22-.51,1.33-1.33a35.08,35.08,0,0,0-9.58-6.16c-.47-.21-1.13.26-.78.78,4.2,6.29,3.18,15.35,12.68,16.19,4.28.38,8.7-.89,12.83-1.81a104.71,104.71,0,0,0,18-5.41c.05,0,0-.11,0-.09Z"/><path class="cls-2" d="M142.53,146.62c-2.67,3.48,3.22,4.15,5.39,3.63,3-.7,5-.39,8.09,0,1.6.22,1.58.51,3.25.37,3.24-.29,5.92-2.51,8.29-4.53.16-.14-.06-.42-.23-.29-1.9,1.41-4.35,3.54-6.77,3.84-2.66.33-4.74-.83-7.21-1.26s-10.86,2.59-10.73-1.75c0-.05-.06-.06-.09,0Z"/><path class="cls-2" d="M169.14,144.82c2.79-.35,6.39,1.49,8.4-1.34,1.73-2.44.48-6.13-1.38-8.11-.77-.82-1.91.22-1.47,1.14,1,2.15,3.86,4.91,1.43,7.25-1.71,1.64-4.83.51-7,1-.05,0,0,.1,0,.09Z"/><path class="cls-2" d="M216.65,86.3a37.49,37.49,0,0,0,5.65-1.76l-1-2.35c-6.47,4.36-14.05,10.33-18.13,17.08-.57,1,.69,1.81,1.47,1.14,2.9-2.51,5.33-5.62,8.17-8.22a116.32,116.32,0,0,1,9.78-7.78c1.07-.78.49-2.91-1-2.35A15.15,15.15,0,0,0,216,85.13a.71.71,0,0,0,.68,1.18Z"/><path class="cls-2" d="M222.85,82.22c1.37.14,4.57-.24,5.59,1,.71.87.48,4.37.41,5.59-.18,3.4-.83,6.77-1.13,10.16a122.47,122.47,0,0,0,0,21.47c.26,2.93.8,5.79,1.22,8.7.13.88,1.08,5.58.53,6.82-2.09,4.72-5.19.58-6.22-1.3-3.19-5.83-1-13.09-1.82-19.41-.06-.47-.87-.36-.83.11.7,7.56-3,17.91,3.92,23.65,7.6,6.27,8-5.4,7.59-10.31-1-11.92-2.07-23.34-.82-35.31.66-6.35.6-16.8-8.57-11.62a.24.24,0,0,0,.12.44Z"/><path class="cls-2" d="M221.53,101.1c2.9,19,1.68,38.15,0,57.16-.42,4.81-.67,9.65-2.55,14.15-1.53,3.64-3.89,6.83-5.74,10.29a45.56,45.56,0,0,0-5.65,20.37c0,.87,1.21.81,1.31,0,1.25-9.81,4.31-17.34,9.15-25.85,3.78-6.64,4.28-13.4,4.89-20.9,1.51-18.49,2.57-37-1.24-55.27,0-.12-.2-.07-.18,0Z"/><path class="cls-2" d="M88.39,109.86c.39-2.5-1.36-4-3.8-3.35a.59.59,0,0,0-.4.71c2,7.62,7.43,13.59,9.65,21.11,2.53,8.55,3.14,17.89,4.45,26.68.34,2.27.22,6.14,1.48,7.95a9.26,9.26,0,0,1,3.54,3.45q.78,1.14,1.49,2.33c.9,1.43,1.74,2.89,2.62,4.34A115.77,115.77,0,0,0,121.75,192c10,10.74,22.26,19.86,37.35,21.13,16.9,1.43,33.28-6.12,48.21-13.08.27-.13,0-.53-.24-.4-15.86,7.13-33.48,14.87-51.3,11.94-15.46-2.55-28-13.79-37.71-25.44a110.68,110.68,0,0,1-12.81-19.27c-1.28-2.41-3.73-4.16-4.6-6.68C99.5,156.8,99.52,152.57,99,149c-1.12-7.47-1.58-15.51-4.14-22.66a48.77,48.77,0,0,0-4.35-8.53c-.79-1.32-1.62-2.63-2.36-4q-.75-1.33-1.39-2.72-2.81-4.76,1.45-1.25c0,.1.17.14.18,0Z"/><path class="cls-2" d="M126.83,160.94c-.87,1.52-.43,3.82,0,5.43a11.44,11.44,0,0,0,3.23,5.19.47.47,0,0,0,.66-.66,12.53,12.53,0,0,1-3.11-5.07c-.51-1.62-.24-3.28-.65-4.86a.09.09,0,0,0-.17,0Z"/><path class="cls-2" d="M191.12,143.84c1.84,2.3,4.5,3.2,6.73,5,3.54,2.89,3.62,7.29,3.56,11.54a.33.33,0,0,0,.66,0c.18-3.37.29-7.05-1.78-9.94-2.27-3.16-6.51-3.83-9-6.75-.08-.09-.21,0-.13.13Z"/><path class="cls-2" d="M191.09,159.41c-3.18,2.87-5.57,6.46-8.71,9.37-4.55,4.22-10.21,5.47-16.18,6.24-10.52,1.35-21.61,2.4-30.75-4-.34-.24-.79.33-.45.59,9.13,7.14,21.22,5.73,32,4.35,4.57-.58,9.17-1.47,13-4.2,4.52-3.23,7.24-8.38,11.17-12.23,0,0,0-.11-.07-.07Z"/><path class="cls-2" d="M131.42,168.32a0,0,0,0,0,0-.09,0,0,0,0,0,0,.09Z"/><path class="cls-2" d="M131.41,168.31a81.46,81.46,0,0,0,18.14,3.45c.3,0,.3-.45,0-.47a81.15,81.15,0,0,1-18.12-3.07,0,0,0,0,0,0,.09Z"/><path class="cls-2" d="M149.55,172.45a71.37,71.37,0,0,0,24-4.82c7.84-3.09,15.23-6.74,23.61-8.18.46-.08.36-.88-.11-.83-7.32.85-14,4-20.7,6.84a81.05,81.05,0,0,1-26.82,6.71c-.18,0-.18.29,0,.28Z"/><path class="cls-2" d="M137,168.82c.48,2.42,1.56,3.68,3.36,5.3a.87.87,0,0,0,1.44-.38c.58-1.61.55-1.49.1-3.15l-1.52,1.52c5.89,2.46,12.12,4.46,18.2,6.41,1.24.4,1.66-1.43.52-1.9-5.92-2.45-12-5-18.07-6.9a1.25,1.25,0,0,0-1.52,1.52l.59,2.26,1.09-.83-4-3.91a.09.09,0,0,0-.18,0Z"/><path class="cls-2" d="M155.55,47.3c-13.7-5.52-29.66-7.2-44.22-9.13-.88-.12-1.1,1.43-.21,1.57,7.73,1.21,15.39,2.69,23.05,4.24,7,1.43,14.12,3.41,21.25,4.24.57.07.57-.74.12-.92Z"/><path class="cls-2" d="M163,36.54a190.88,190.88,0,0,0-41.86-2.37c-1.2.06-1.21,1.9,0,1.88a317.54,317.54,0,0,1,41.67,1.88c.78.08,1-1.25.19-1.38Z"/><path class="cls-2" d="M175.18,28.62a318.58,318.58,0,0,0-44.74-3.15.75.75,0,0,0,0,1.5c14.87.64,29.74,1.66,44.57,2.94.73.06.91-1.18.17-1.29Z"/><path class="cls-2" d="M190.72,28.23a69.76,69.76,0,0,1,19.82,5.16c.78.33,1.34-1,.58-1.37a56.37,56.37,0,0,0-20.4-5.47c-1.09-.09-1.06,1.58,0,1.69Z"/><path class="cls-2" d="M188.08,19.61a108.79,108.79,0,0,1,14.54,8.13c.65.44,1.26-.62.62-1.05a80.29,80.29,0,0,0-14.83-7.85c-.44-.18-.76.57-.33.77Z"/><path class="cls-2" d="M182.33,25.66c12.14,2.26,20.92,16.92,24.12,27.87,1.17,4,1.14,8.37,3.71,11.81,2.29,3.06,4.85,5.44,6.4,9A29.27,29.27,0,0,1,218.64,85a.52.52,0,0,0,1,0,24.53,24.53,0,0,0-5.23-16.67c-2.52-3.23-4.76-5.52-5.59-9.76a53.58,53.58,0,0,0-2.79-9.89c-3.92-9.74-12.43-21.77-23.6-23.47-.29,0-.42.4-.12.45Z"/><path class="cls-2" d="M224.37,80c-2.46-9.49-4.8-18.44-4.56-28.35.18-7.36,1.74-12.37-3.63-18.12-7.56-8.09-22-24.49-34.68-17.24-.49.28-.16,1.17.4.94,8.41-3.44,16.15,1.66,22.41,7,4.76,4.06,13.44,10.81,14.23,17.21.41,3.32-.45,6.86-.51,10.2a70.4,70.4,0,0,0,.69,10.88,52.16,52.16,0,0,0,5.22,17.65.24.24,0,0,0,.43-.18Z"/><path class="cls-2" d="M186.52,17c-3.85-5.56-11-7.67-17-10C160.92,3.74,152.06.84,142.86.13c-16.41-1.27-34.32,6.79-46.7,17.26-11.88,10-17.26,25.55-18,40.74-.47,9.6.82,19.2,2.68,28.6C82.26,94,83,104.09,88.72,109.38a.86.86,0,0,0,1.42-.83c-1.25-7.41-2.57-14.8-3.86-22.2-.07-.41-.79-.32-.74.1,1,7.52,1.94,15,3,22.55l1.42-.83c-3.5-3.34-4.11-8.13-5.16-12.63-.87-3.72-1.74-7.44-2.48-11.19a112.11,112.11,0,0,1-2.46-26.23c.6-14.52,5.5-29.42,16.71-39.2,11.6-10.13,29-18.22,44.55-17.51,8.46.39,16.68,2.79,24.6,5.64,6.62,2.38,15.93,4.51,20.49,10.18.17.21.52-.07.37-.28Z"/><path class="cls-2" d="M81,71.32a0,0,0,0,0,0-.09,0,0,0,0,0,0,.09Z"/><path class="cls-2" d="M85.73,62.24l-2.49,1.9a.28.28,0,1,0,.34.44l2.43-2c.2-.17-.07-.53-.28-.37Z"/><path class="cls-2" d="M85.7,61.87c-2.66,1-5.35,1.92-8,3-.59.25-.17,1.22.43,1C80.83,65.09,83.42,64,86,63c.73-.27.41-1.45-.32-1.18Z"/><path class="cls-2" d="M107.06,44.2,103.67,46a18.25,18.25,0,0,0-3,1.78c-.44.36,0,1.1.55.94a18.29,18.29,0,0,0,3.15-1.59l3.39-1.84c.74-.4.08-1.54-.66-1.13Z"/><path class="cls-2" d="M111.49,42.14c-2.57.76-5.24,1.38-7.73,2.35a.84.84,0,0,0,.45,1.63c2.66-.37,5.29-1.12,7.91-1.72,1.47-.33.83-2.69-.62-2.26Z"/><path class="cls-2" d="M139.19,115.41c-4.57-7.87-21.7-1.29-26.44,3.27-.43.42.12,1,.61.8a31.26,31.26,0,0,1,19.44-2.82c.47.08.67-.65.2-.72-6.71-1.05-12.25,0-18.61,2,4-1.26,7.9-3,12.1-3.84,4.64-.9,8.2-.13,12.58,1.49.08,0,.14-.07.11-.14Z"/><path class="cls-2" d="M130.12,115.08a5.77,5.77,0,0,1-1.8-1.2l-.48,1.15,1.85.23-.86-.66a2.8,2.8,0,0,0,.88,1.33l3.12-3.12c-.44-.35-.88-.7-1.34-1-1.9-1.36-4.51.48-4.51,2.59s2.61,4,4.51,2.59c.46-.33.9-.68,1.34-1a2.21,2.21,0,0,0-2.68-3.47,7.94,7.94,0,0,0-.74.57,3.06,3.06,0,0,0-.59,1.08l.86-.66-1.85.21c-.84.1-.89,1.36,0,1.35a5.75,5.75,0,0,1,2,.65c.35.14.57-.42.25-.6Z"/><path class="cls-2" d="M169.6,107.54c4.39-4.76,11.11-2.14,16.69-2,2.06,0,4-.34,6.09-.41,4.06-.13,6.56,1.4,9.31,4.16.21.21.54-.11.33-.33-1.88-2-3.88-4-6.67-4.58-3.19-.61-6.73.58-10,.46-5.57-.19-11.88-2.48-15.85,2.68,0,0,0,.1.07.06Z"/><path class="cls-2" d="M186.78,106c-3.21-.35-6.44-.64-9.64-1.07-1.38-.18-1.37,1.79-.3,2.23,1.77.73,3.44,1.76,5.39,1.38,1.33-.26,1.19-1.91.34-2.57-1.45-1.12-3.66-.91-5.42-1v2.27c3.2-.41,6.43-.68,9.64-1a.09.09,0,0,0,0-.19Z"/><path class="cls-2" d="M190.68,111.6a46.57,46.57,0,0,0-5.37.24c-1.79,0-3.6,0-5.4,0a.56.56,0,0,0,0,1.13c3.34.27,7.68.4,10.82-.92a.24.24,0,0,0-.06-.46Z"/><path class="cls-2" d="M187.78,116.91a16.26,16.26,0,0,1,5.85-.39c.18,0,.18-.26,0-.28a16.51,16.51,0,0,0-6,.31c-.23.06-.14.42.1.36Z"/><path class="cls-2" d="M115.29,125.54a11.56,11.56,0,0,0-6.49.94c-.16.07,0,.32.14.24a11.23,11.23,0,0,1,6.27-.91c.18,0,.25-.25.07-.27Z"/><path class="cls-2" d="M114.9,159.95a42,42,0,0,0,9.7,27.39c.46.56,1.24-.24.8-.8a43.24,43.24,0,0,1-9.74-26.6.38.38,0,0,0-.75,0Z"/><path class="cls-2" d="M216.31,156c.26,4.05-2.74,8.17-4.76,11.57q-2.56,4.31-5.37,8.47c-.17.25.23.48.4.24a108.74,108.74,0,0,0,6.76-11c1.56-2.93,3.46-5.88,3.16-9.29,0-.12-.2-.12-.19,0Z"/><path class="cls-2" d="M197.56,206.9c-3-.2-6.08-.5-9.11-.89l.33,1.24c9.15-4.14,17.43-10.15,26-15.27,6.85-4.08,11.17-8.15,13.18-16.07a1.13,1.13,0,0,0-2.17-.6c-3.15,8.55-9.85,13.07-17.16,17.91-6.75,4.47-13.52,8.87-20.55,12.88a.67.67,0,0,0,.33,1.24c3,.11,6.07.12,9.11,0a.23.23,0,0,0,0-.47Z"/><path class="cls-2" d="M226.74,144.9c4.06,4.29,10,8.23,15.19,11.08,6,3.31,12.37,3.71,18.76,5.69,7.77,2.41,15.22,6.42,22.66,9.7s14.58,6.43,21.91,9.56c1,.44,1.95-1,.9-1.54-13.55-6.67-27.16-14-41.17-19.61-7.09-2.86-14.66-2.85-21.58-6.32-5.53-2.78-10.52-7-16.26-9.26-.42-.16-.68.42-.41.71Z"/><path class="cls-2" d="M256,163.44c-.62,6.41,3,13.52,5.29,19.37,2.6,6.56,5.67,13.34,5.68,20.53,0,14.88-14,21.84-25.9,26.82-.71.3-1.15,1.47-.25,1.88,5.74,2.6,11.44,5.31,17.19,7.89,3.25,1.46,6.18,2.31,4.64,6.54-1,2.68-4,5.79-5.69,8.11L234.55,286c-.84,1.18,1.11,2.32,1.94,1.14,9.29-13.24,18.67-26.42,27.94-39.68,2.27-3.25,2.39-5.62-1.24-7.7-6.65-3.81-14.3-6.38-21.29-9.51V232c11.16-4.72,24.35-11.06,26.7-24.31,1.24-7-1-14-3.48-20.43-1.52-3.88-3.32-7.64-4.82-11.53-1.56-4-2.18-8.53-4.09-12.38,0-.09-.17,0-.17,0Z"/><path class="cls-2" d="M223.94,190.84c-.58-1.42-1.1-2.83-1.6-4.28a.47.47,0,0,0-.68-.28c-6.87,2.95-9.27,11.49-10.65,18.16-2,9.56,0,18.87-.88,28.42-.54,5.88-3.64,9.42-7,14-2.61,3.59-3.26,7.74-4.36,12a128.63,128.63,0,0,1-12.57,30.8c-.48.84.82,1.6,1.3.76a130.7,130.7,0,0,0,11.15-26.1c1.58-5.25,2.16-11.25,5.55-15.69,2.43-3.18,5.56-5.59,7.09-9.4,3.18-7.9.62-17.18,1-25.43a67.11,67.11,0,0,1,2.46-15.91,21.68,21.68,0,0,1,3.52-7.26c.84-1.07,1.42-2.08,2.89-2.16,1.79-.09,1.75.81,2.67,2.45,0,0,.11,0,.09,0Z"/><path class="cls-2" d="M166.2,285.51c5.44-2.91,8.88-10,11.32-15.37,3.1-6.84,5.77-13.89,8.62-20.83,2.06-5,3.68-8.93,8.06-12.27a25.16,25.16,0,0,0,6.12-6c4-6,6-13.47,7-20.57.07-.52-.71-.77-.81-.22-1.41,7.5-4.07,16.58-9.46,22.26-2.3,2.43-5.47,3.79-7.64,6.38a25.64,25.64,0,0,0-3.6,6.59c-3.14,7.38-6,14.87-9.23,22.22a87.31,87.31,0,0,1-4.22,8.64c-1.86,3.21-4.42,5.77-6.46,8.82-.14.2.13.42.32.32Z"/><path class="cls-2" d="M182.91,265.38c-6.12-4.88-10.88-11.08-17.39-15.54a59.47,59.47,0,0,0-20.91-8.92.92.92,0,0,0-1.15.88c.12,5.29,2.64,10.09,3.57,15.27a53.18,53.18,0,0,1,.89,9.85,18.06,18.06,0,0,1-.15,3.67c-1,4.33-3.5,3.87-7,4-.6,0-.8,1-.15,1.1,6.58,1,8.63-.58,8.89-6.94a54,54,0,0,0-.73-11.2c-.9-5.29-3.48-10.34-3.46-15.75l-1.15.88a68.31,68.31,0,0,1,21.12,9.24c6.22,4.14,11,9.93,17.22,14.05.35.23.79-.32.45-.59Z"/><path class="cls-2" d="M157.76,242.15c-6.83-7.46-13.21-14.8-18.23-23.66a110,110,0,0,1-6.29-13.68c-1.18-3-2.49-5.47-5.1-7.36a.8.8,0,0,0-1.17.48c-1.42,6.62.38,12.72,3.2,18.73,4,8.58,8.06,15.92,8.54,25.64.75,15.22-4,30.53.72,45.45a.38.38,0,0,0,.72-.2c-3.9-15,.59-30.09-.12-45.25a46.4,46.4,0,0,0-4.46-17.91c-3.93-8.32-9.26-16.42-7.06-26l-1.17.48c4.05,3,5,8.9,7,13.3a83,83,0,0,0,6.51,12.23c4.46,6.81,10,13.45,16.56,18.3.31.23.64-.25.4-.52Z"/><path class="cls-2" d="M102,174.69c-9.7,4.83-20.36,7.5-30.46,11.36a265.84,265.84,0,0,0-28.69,13.07c-8.36,4.4-18.48,8.84-25,15.92-3,3.28-5.22,7.12-8.44,10.23-3.42,3.32-6.88,6.21-9.42,10.3-.36.57.52,1.29,1,.74,2.85-3.64,6.48-6.51,9.78-9.72s5.41-7,8.43-10.24c6.89-7.52,18.05-12.32,27-16.94,9.48-4.89,19.25-9.29,29.15-13.25,9-3.6,18.38-6.33,27-10.9.37-.2,0-.75-.33-.57Z"/></g></g></svg>