<svg xmlns="http://www.w3.org/2000/svg" viewBox="0 0 186.73 34.3"><defs><style>.cls-1{fill:#a6c09a;}</style></defs><title>Asset 3</title><g id="Layer_2" data-name="Layer 2"><g id="Layer_1-2" data-name="Layer 1"><path class="cls-1" d="M99.4,8.18a3.51,3.51,0,0,1-3.61,3.29,3.69,3.69,0,0,1-3.74-4V5.31a3.69,3.69,0,0,1,3.74-4,3.48,3.48,0,0,1,3.6,3.2.23.23,0,0,1-.25.28h-1c-.11,0-.23-.07-.25-.28a2,2,0,0,0-2.05-1.79,2.27,2.27,0,0,0-2.22,2.56V7.5A2.27,2.27,0,0,0,95.79,10a2,2,0,0,0,2.07-1.83c0-.16.07-.3.25-.3h1.07a.23.23,0,0,1,.23.25"/><path class="cls-1" d="M111.26,11.1a.23.23,0,0,1-.24.23h-1a.29.29,0,0,1-.3-.18L109,9h-4l-.73,2.12a.28.28,0,0,1-.27.2h-1a.22.22,0,0,1-.24-.23,1,1,0,0,1,.08-.28l3.25-9.08a.37.37,0,0,1,.34-.25h1.17a.35.35,0,0,1,.32.25l3.26,9.07a1.84,1.84,0,0,1,.08.29m-2.76-3.46L107,3.24l-1.53,4.4Z"/><path class="cls-1" d="M122.46,1.82V11a.32.32,0,0,1-.34.32h-.77c-.13,0-.28,0-.51-.38l-4.27-7.06V11a.33.33,0,0,1-.34.32h-.82a.32.32,0,0,1-.32-.32V1.82a.32.32,0,0,1,.32-.34h1.08a.46.46,0,0,1,.38.27L121,8.57V1.82a.32.32,0,0,1,.32-.34h.81a.33.33,0,0,1,.34.34"/><path class="cls-1" d="M134.45,1.82V11a.32.32,0,0,1-.34.32h-.77c-.13,0-.28,0-.51-.38l-4.27-7.06V11a.33.33,0,0,1-.34.32h-.82a.32.32,0,0,1-.32-.32V1.82a.32.32,0,0,1,.32-.34h1.08a.46.46,0,0,1,.38.27L133,8.57V1.82a.32.32,0,0,1,.32-.34h.81a.33.33,0,0,1,.34.34"/><path class="cls-1" d="M146.78,11.1a.23.23,0,0,1-.24.23h-1a.29.29,0,0,1-.3-.18L144.48,9h-4l-.73,2.12a.28.28,0,0,1-.27.2h-1a.22.22,0,0,1-.24-.23,1,1,0,0,1,.08-.28l3.25-9.08a.37.37,0,0,1,.34-.25h1.17a.35.35,0,0,1,.32.25l3.26,9.07a1.84,1.84,0,0,1,.08.29M144,7.64l-1.52-4.4L141,7.64Z"/><path class="cls-1" d="M157.63,8.49v.14c0,2.15-1.66,2.7-3.47,2.7h-3.22a.32.32,0,0,1-.32-.32V1.82a.32.32,0,0,1,.32-.34h3.29c1.88,0,3.16.82,3.16,2.6V4.3a2.05,2.05,0,0,1-1.24,2,2.33,2.33,0,0,1,1.48,2.22m-5.51-2.91h2.08c.89,0,1.69-.2,1.69-1.22v-.2c0-1.08-.84-1.25-1.74-1.25h-2Zm4,2.84c0-1.05-.83-1.42-1.84-1.42h-2.17V9.91h2.17c1,0,1.84-.27,1.84-1.36Z"/><path class="cls-1" d="M161.84,11V1.82a.32.32,0,0,1,.32-.34H163a.32.32,0,0,1,.32.34V11a.32.32,0,0,1-.32.32h-.86a.32.32,0,0,1-.32-.32"/><path class="cls-1" d="M172.88,4c-.1-.67-.45-1.32-1.76-1.32-1.11,0-1.86.27-1.86,1.32,0,2.36,5.33.86,5.33,4.65,0,2.08-1.76,2.81-3.47,2.81-2.62,0-3.61-1.79-3.61-3a.32.32,0,0,1,.32-.32h.84a.32.32,0,0,1,.31.3,1.87,1.87,0,0,0,2.14,1.72c1.22,0,2-.39,2-1.48,0-2.32-5.33-.85-5.33-4.65,0-1.73,1.24-2.66,3.39-2.66,2.36,0,3.25,1.43,3.25,2.63a.33.33,0,0,1-.34.32h-.84a.32.32,0,0,1-.34-.29"/><path class="cls-1" d="M96.9,19.54a1.06,1.06,0,0,1-.08.33L93.4,32.41a.48.48,0,0,1-.45.35H91.45a.48.48,0,0,1-.44-.35L88.39,22.33,85.82,32.41a.44.44,0,0,1-.44.35H83.9a.45.45,0,0,1-.45-.35L80,20a3,3,0,0,1-.1-.43.31.31,0,0,1,.31-.33h1.43a.48.48,0,0,1,.48.45l2.51,10,2.61-10c.08-.31.23-.46.46-.46h1.37c.19,0,.39.1.49.46l2.61,10,2.5-10c.06-.21.18-.46.48-.46h1.39a.31.31,0,0,1,.33.33"/><path class="cls-1" d="M110,32.31V26.86h-5.67v5.46a.44.44,0,0,1-.44.45h-1.18a.44.44,0,0,1-.44-.45V19.68a.44.44,0,0,1,.44-.46h1.18a.44.44,0,0,1,.44.46V24.9H110V19.68a.44.44,0,0,1,.44-.46h1.18a.44.44,0,0,1,.45.46V32.31a.44.44,0,0,1-.45.45H110.4a.44.44,0,0,1-.44-.45"/><path class="cls-1" d="M126.36,21.17h-5.92v3.75h4.68a.44.44,0,0,1,.44.46v1a.44.44,0,0,1-.44.45h-4.68V30.8h5.92a.44.44,0,0,1,.44.45v1.06a.44.44,0,0,1-.44.45h-7.55a.44.44,0,0,1-.45-.45V19.68a.44.44,0,0,1,.45-.46h7.55a.44.44,0,0,1,.44.46v1a.44.44,0,0,1-.44.44"/><path class="cls-1" d="M143.13,32.45a.31.31,0,0,1-.33.31h-1.41a.39.39,0,0,1-.41-.25l-1-2.94h-5.47l-1,2.92a.39.39,0,0,1-.37.27h-1.35a.31.31,0,0,1-.33-.31,1.37,1.37,0,0,1,.11-.39L136,19.56a.51.51,0,0,1,.46-.35h1.6a.49.49,0,0,1,.45.35L143,32a2.55,2.55,0,0,1,.12.41m-3.79-4.76-2.09-6.05-2.11,6.05Z"/><path class="cls-1" d="M145.7,20.72v-1a.44.44,0,0,1,.44-.47h9.44a.44.44,0,0,1,.45.47v1a.44.44,0,0,1-.45.45h-3.67V32.31a.45.45,0,0,1-.47.44h-1.18a.44.44,0,0,1-.45-.44V21.17h-3.68a.44.44,0,0,1-.44-.45"/><path class="cls-1" d="M165.51,19a5.1,5.1,0,0,1,5.16,5.46v3A5.1,5.1,0,0,1,165.51,33c-2.94,0-5.15-2.17-5.15-5.46v-3c0-3.29,2.21-5.46,5.15-5.46m0,12c1.68,0,3.08-1.26,3.08-3.5v-3c0-2.24-1.39-3.52-3.08-3.52s-3.06,1.28-3.06,3.52v3c0,2.24,1.37,3.5,3.06,3.5"/><path class="cls-1" d="M186.73,19.68V32.31a.44.44,0,0,1-.46.45H185.2c-.17,0-.39,0-.7-.52l-5.88-9.71v9.79a.45.45,0,0,1-.46.45H177a.44.44,0,0,1-.45-.45V19.68a.44.44,0,0,1,.45-.46h1.49a.64.64,0,0,1,.52.37L184.7,29V19.68a.44.44,0,0,1,.44-.46h1.12a.45.45,0,0,1,.46.46"/><path class="cls-1" d="M32.8,34.25c-4.36,0-8.52.12-12.6-.05a5,5,0,0,1-4.34-2.42C14,28.34.59,2,0,.93-.06.72,0,0,.85,0,4.44,0,8,0,11.6,0c2.49,0,4.34.93,5.29,2.7C18.22,5.19,32.68,33.85,32.8,34.25"/><path class="cls-1" d="M56.85,34.25c-4.36,0-8.52.12-12.6-.05a5,5,0,0,1-4.34-2.42C38.07,28.34,24.64,2,24.1.93,24,.72,24,0,24.9,0c3.58,0,7.17,0,10.74,0,2.49,0,4.34.93,5.29,2.7,1.33,2.47,15.79,31.13,15.91,31.54"/><path class="cls-1" d="M70.79.14h0C70.27.05,66.86,0,63.46,0A5.88,5.88,0,0,0,58,3.41C56.35,6.58,54.76,9.79,53.14,13a.78.78,0,0,0,.66,1.16c.52.09,3.93.13,7.32.14a5.87,5.87,0,0,0,5.45-3.41c1.66-3.17,3.25-6.38,4.87-9.57A.78.78,0,0,0,70.79.14"/></g></g></svg>