<?xml version="1.0" encoding="utf-8"?>
<!-- Generator: Adobe Illustrator 21.0.2, SVG Export Plug-In . SVG Version: 6.00 Build 0)  -->
<!DOCTYPE svg PUBLIC "-//W3C//DTD SVG 1.1//EN" "http://www.w3.org/Graphics/SVG/1.1/DTD/svg11.dtd">
<svg version="1.1" id="Layer_1" xmlns="http://www.w3.org/2000/svg" xmlns:xlink="http://www.w3.org/1999/xlink" x="0px" y="0px"
	 viewBox="0 0 95.2 72.9" enable-background="new 0 0 95.2 72.9" xml:space="preserve">
<g>
	<g>
		<path fill="#A6C09A" d="M18.8,8.3c-0.1,1.4-1.3,2.8-3.1,2.8c-1.8,0-3.2-1.3-3.2-3.4V5.9c0-2,1.4-3.4,3.2-3.4
			c1.8,0,2.9,1.3,3.1,2.7c0,0.2-0.1,0.2-0.2,0.2h-0.9c-0.1,0-0.2-0.1-0.2-0.2c-0.1-0.8-0.7-1.5-1.7-1.5c-1.1,0-1.9,0.8-1.9,2.2v1.9
			c0,1.4,0.9,2.2,1.9,2.2c1,0,1.7-0.7,1.8-1.6c0-0.1,0.1-0.3,0.2-0.3h0.9C18.8,8.1,18.8,8.2,18.8,8.3"/>
		<path fill="#A6C09A" d="M28.9,10.8c0,0.1-0.1,0.2-0.2,0.2h-0.9c-0.2,0-0.2-0.1-0.3-0.2L27,9.1h-3.4L23,10.9c0,0.1-0.2,0.2-0.2,0.2
			h-0.8c-0.1,0-0.2-0.1-0.2-0.2c0-0.1,0-0.1,0.1-0.2l2.8-7.7c0-0.1,0.1-0.2,0.3-0.2h1c0.2,0,0.2,0.1,0.3,0.2l2.8,7.7
			C28.9,10.6,28.9,10.8,28.9,10.8 M26.6,7.9l-1.3-3.7L24,7.9H26.6z"/>
		<path fill="#A6C09A" d="M38.5,2.9v7.8c0,0.2-0.1,0.3-0.3,0.3h-0.7c-0.1,0-0.2,0-0.4-0.3l-3.6-6v6.1c0,0.2-0.1,0.3-0.3,0.3h-0.7
			c-0.2,0-0.3-0.1-0.3-0.3V2.9c0-0.2,0.1-0.3,0.3-0.3h0.9c0.2,0,0.3,0.1,0.3,0.2l3.5,5.8V2.9c0-0.2,0.1-0.3,0.3-0.3h0.7
			C38.3,2.7,38.5,2.8,38.5,2.9"/>
		<path fill="#A6C09A" d="M48.7,2.9v7.8c0,0.2-0.1,0.3-0.3,0.3h-0.7c-0.1,0-0.2,0-0.4-0.3l-3.6-6v6.1c0,0.2-0.1,0.3-0.3,0.3h-0.7
			c-0.2,0-0.3-0.1-0.3-0.3V2.9c0-0.2,0.1-0.3,0.3-0.3h0.9c0.2,0,0.3,0.1,0.3,0.2l3.5,5.8V2.9c0-0.2,0.1-0.3,0.3-0.3h0.7
			C48.5,2.7,48.7,2.8,48.7,2.9"/>
		<path fill="#A6C09A" d="M59.2,10.8c0,0.1-0.1,0.2-0.2,0.2h-0.9c-0.2,0-0.2-0.1-0.3-0.2l-0.6-1.8h-3.4l-0.6,1.8
			C53.2,11,53,11,53,11h-0.8c-0.1,0-0.2-0.1-0.2-0.2c0-0.1,0-0.1,0.1-0.2l2.8-7.7c0-0.1,0.1-0.2,0.3-0.2h1c0.2,0,0.2,0.1,0.3,0.2
			l2.8,7.7C59.1,10.6,59.2,10.8,59.2,10.8 M56.8,7.9l-1.3-3.7l-1.3,3.7H56.8z"/>
		<path fill="#A6C09A" d="M68.4,8.6v0.1c0,1.8-1.4,2.3-3,2.3h-2.7c-0.2,0-0.3-0.1-0.3-0.3V2.9c0-0.2,0.1-0.3,0.3-0.3h2.8
			c1.6,0,2.7,0.7,2.7,2.2V5c0,0.8-0.4,1.4-1.1,1.7C68,7.1,68.4,7.8,68.4,8.6 M63.7,6.1h1.8c0.8,0,1.4-0.2,1.4-1V4.9
			c0-0.9-0.7-1.1-1.5-1.1h-1.7V6.1z M67.1,8.6c0-0.9-0.7-1.2-1.6-1.2h-1.8v2.5h1.8c0.8,0,1.6-0.2,1.6-1.2V8.6z"/>
		<path fill="#A6C09A" d="M72,10.8V2.9c0-0.2,0.1-0.3,0.3-0.3H73c0.2,0,0.3,0.1,0.3,0.3v7.8c0,0.2-0.1,0.3-0.3,0.3h-0.7
			C72.1,11,72,10.9,72,10.8"/>
		<path fill="#A6C09A" d="M81.4,4.8c-0.1-0.6-0.4-1.1-1.5-1.1c-0.9,0-1.6,0.2-1.6,1.1c0,2,4.5,0.7,4.5,4c0,1.8-1.5,2.4-3,2.4
			c-2.2,0-3.1-1.5-3.1-2.6c0-0.2,0.1-0.3,0.3-0.3h0.7c0.2,0,0.3,0.1,0.3,0.3c0,0.4,0.3,1.5,1.8,1.5c1,0,1.7-0.3,1.7-1.3
			c0-2-4.5-0.7-4.5-4c0-1.5,1.1-2.3,2.9-2.3c2,0,2.8,1.2,2.8,2.2c0,0.2-0.1,0.3-0.3,0.3h-0.7C81.5,5,81.4,5,81.4,4.8"/>
		<path fill="#A6C09A" d="M16.7,18c0,0,0,0.1-0.1,0.3L13.7,29c0,0.1-0.2,0.3-0.4,0.3h-1.3c-0.2,0-0.3-0.1-0.4-0.3l-2.2-8.6L7.3,29
			c0,0.1-0.2,0.3-0.4,0.3H5.6c-0.2,0-0.3-0.1-0.4-0.3L2.3,18.4c0-0.1-0.1-0.3-0.1-0.4c0-0.2,0.1-0.3,0.3-0.3h1.2
			c0.1,0,0.3,0.1,0.4,0.4l2.1,8.5l2.2-8.5c0.1-0.3,0.2-0.4,0.4-0.4h1.2c0.2,0,0.3,0.1,0.4,0.4l2.2,8.5l2.1-8.5
			c0.1-0.2,0.1-0.4,0.4-0.4h1.2C16.6,17.7,16.7,17.9,16.7,18"/>
		<path fill="#A6C09A" d="M27.8,28.9v-4.6H23v4.6c0,0.2-0.2,0.4-0.4,0.4h-1c-0.2,0-0.4-0.2-0.4-0.4V18.1c0-0.2,0.2-0.4,0.4-0.4h1
			c0.2,0,0.4,0.2,0.4,0.4v4.4h4.8v-4.4c0-0.2,0.2-0.4,0.4-0.4h1c0.2,0,0.4,0.2,0.4,0.4v10.8c0,0.2-0.2,0.4-0.4,0.4h-1
			C28,29.3,27.8,29.1,27.8,28.9"/>
		<path fill="#A6C09A" d="M41.8,19.4h-5v3.2h4c0.2,0,0.4,0.2,0.4,0.4v0.9c0,0.2-0.2,0.4-0.4,0.4h-4v3.3h5c0.2,0,0.4,0.2,0.4,0.4v0.9
			c0,0.2-0.2,0.4-0.4,0.4h-6.4c-0.2,0-0.4-0.2-0.4-0.4V18.1c0-0.2,0.2-0.4,0.4-0.4h6.4c0.2,0,0.4,0.2,0.4,0.4V19
			C42.2,19.2,42,19.4,41.8,19.4"/>
		<path fill="#A6C09A" d="M56.1,29c0,0.1-0.1,0.3-0.3,0.3h-1.2c-0.2,0-0.3-0.1-0.3-0.2l-0.9-2.5h-4.7L47.8,29
			c-0.1,0.2-0.2,0.2-0.3,0.2h-1.2c-0.2,0-0.3-0.1-0.3-0.3c0-0.1,0-0.2,0.1-0.3L50,18c0-0.1,0.2-0.3,0.4-0.3h1.4
			c0.2,0,0.3,0.2,0.4,0.3L56,28.7C56,28.7,56.1,28.9,56.1,29 M52.8,25l-1.8-5.2L49.3,25H52.8z"/>
		<path fill="#A6C09A" d="M58.3,19v-0.9c0-0.2,0.2-0.4,0.4-0.4h8c0.2,0,0.4,0.2,0.4,0.4V19c0,0.2-0.2,0.4-0.4,0.4h-3.1v9.5
			c0,0.2-0.2,0.4-0.4,0.4h-1c-0.2,0-0.4-0.2-0.4-0.4v-9.5h-3.1C58.4,19.4,58.3,19.2,58.3,19"/>
		<path fill="#A6C09A" d="M75.1,17.6c2.5,0,4.4,1.8,4.4,4.6v2.6c0,2.8-1.9,4.6-4.4,4.6c-2.5,0-4.4-1.8-4.4-4.6v-2.6
			C70.7,19.4,72.6,17.6,75.1,17.6 M75.1,27.8c1.4,0,2.6-1.1,2.6-3v-2.6c0-1.9-1.2-3-2.6-3c-1.4,0-2.6,1.1-2.6,3v2.6
			C72.5,26.7,73.7,27.8,75.1,27.8"/>
		<path fill="#A6C09A" d="M93.2,18.1v10.8c0,0.2-0.2,0.4-0.4,0.4h-0.9c-0.1,0-0.3,0-0.6-0.4l-5-8.3v8.3c0,0.2-0.2,0.4-0.4,0.4h-1
			c-0.2,0-0.4-0.2-0.4-0.4V18.1c0-0.2,0.2-0.4,0.4-0.4h1.3c0.2,0,0.4,0.2,0.4,0.3l4.8,8v-7.9c0-0.2,0.2-0.4,0.4-0.4h1
			C93,17.7,93.2,17.9,93.2,18.1"/>
	</g>
	<g>
		<path fill="#A6C09A" d="M48.5,70.7c-3.7,0-7.3,0.1-10.7,0c-1.6-0.1-3-0.8-3.7-2.1c-1.6-2.9-13-25.4-13.5-26.3
			c-0.1-0.2-0.1-0.8,0.7-0.8c3.1,0,6.1,0,9.1,0c2.1,0,3.7,0.8,4.5,2.3C36.1,46,48.4,70.4,48.5,70.7"/>
		<path fill="#A6C09A" d="M69,70.7c-3.7,0-7.3,0.1-10.7,0c-1.6-0.1-3-0.8-3.7-2.1c-1.6-2.9-13-25.4-13.5-26.3
			c-0.1-0.2-0.1-0.8,0.7-0.8c3.1,0,6.1,0,9.1,0c2.1,0,3.7,0.8,4.5,2.3C56.5,46,68.9,70.4,69,70.7"/>
		<path fill="#A6C09A" d="M80.8,41.7L80.8,41.7c-0.4-0.1-3.3-0.1-6.2-0.1c-2.1,0-3.7,1-4.6,2.9c-1.4,2.7-2.8,5.4-4.1,8.2
			c-0.3,0.7,0.3,1,0.6,1c0.4,0.1,3.3,0.1,6.2,0.1c2.1,0,3.7-1,4.6-2.9c1.4-2.7,2.8-5.4,4.1-8.2C81.7,42,81.1,41.7,80.8,41.7"/>
	</g>
</g>
</svg>
