<svg xmlns="http://www.w3.org/2000/svg" xmlns:xlink="http://www.w3.org/1999/xlink" viewBox="0 0 2616 1540"><defs><clipPath id="clip-path"><rect x="1244.64" y="1057.11" width="136.25" height="128.09" fill="none"/></clipPath></defs><title>Asset 6</title><g id="Layer_2" data-name="Layer 2"><g id="Layer_1-2" data-name="Layer 1"><rect width="2616" height="1540" fill="#4b4e53"/><path d="M1291.75,354.76c-19.13,0-37.35.54-55.27-.24-8.4-.37-15.55-4.14-19-10.62-8.05-15.06-67-130.69-69.36-135.3-.47-.91-.36-4,3.55-4,15.71,0,31.44-.16,47.11,0,10.93.12,19,4.06,23.2,11.83,5.85,10.83,69.26,136.53,69.78,138.32" fill="#a5b993"/><path d="M1397.23,354.76c-19.13,0-37.35.54-55.27-.24-8.4-.37-15.55-4.14-19-10.62-8.05-15.06-67-130.69-69.36-135.3-.47-.91-.36-4,3.54-4,15.71,0,31.44-.16,47.11,0,10.94.12,19,4.06,23.21,11.83,5.85,10.83,69.26,136.53,69.78,138.32" fill="#a5b993"/><path d="M1458.35,205.15h0c-2.27-.4-17.24-.59-32.12-.62-10.69,0-18.81,5.27-23.91,15-7.3,13.88-14.24,28-21.37,42-1.77,3.49,1.66,5.07,2.9,5.09,2.27.4,17.24.59,32.12.62,10.69,0,18.81-5.27,23.91-15,7.3-13.89,14.24-28,21.37-42,1.77-3.49-1.66-5.07-2.9-5.09" fill="#a5b993"/><line x1="1308" y1="436.57" x2="1308" y2="598.53"/><rect x="1307" y="436.57" width="2" height="161.97" fill="#fff"/><line x1="372.28" y1="827.14" x2="372.28" y2="989.1"/><rect x="371.28" y="827.14" width="2" height="161.97" fill="#fff"/><line x1="695.33" y1="827.14" x2="695.33" y2="989.1"/><rect x="694.33" y="827.14" width="2" height="161.97" fill="#fff"/><line x1="979.74" y1="827.14" x2="979.74" y2="989.1"/><rect x="978.74" y="827.14" width="2" height="161.97" fill="#fff"/><line x1="1627.17" y1="827.14" x2="1627.17" y2="989.1"/><rect x="1626.17" y="827.14" width="2" height="161.97" fill="#fff"/><line x1="2215.23" y1="827.14" x2="2215.23" y2="989.1"/><rect x="2214.23" y="827.14" width="2" height="161.97" fill="#fff"/><line x1="1308" y1="827.14" x2="1308" y2="989.1"/><rect x="1307" y="827.14" width="2" height="161.97" fill="#fff"/><rect x="372.28" y="597.53" width="1842.94" height="2" fill="#fff"/><path d="M271.54,697.17q-.06,1.35-.06,2.52t.06,2.52a6.06,6.06,0,0,0,1.52,4,5.29,5.29,0,0,0,4.09,1.54,7.16,7.16,0,0,0,2.43-.36,5.05,5.05,0,0,0,1.64-.93,4,4,0,0,0,1-1.31,7.71,7.71,0,0,0,.52-1.48.73.73,0,0,1,.3-.5.85.85,0,0,1,.48-.17h1.38a.67.67,0,0,1,.66.66,6.25,6.25,0,0,1-.51,2.16,7,7,0,0,1-1.48,2.2A8,8,0,0,1,281,709.8a9.51,9.51,0,0,1-3.83.69,9.27,9.27,0,0,1-3.48-.61,7.86,7.86,0,0,1-2.62-1.69,7.51,7.51,0,0,1-1.69-2.57,9.47,9.47,0,0,1-.66-3.25q-.09-2.67,0-5.34a9.54,9.54,0,0,1,.66-3.24A7.48,7.48,0,0,1,271,691.2a7.87,7.87,0,0,1,2.63-1.69,9.27,9.27,0,0,1,3.48-.61,9.51,9.51,0,0,1,3.83.69,8,8,0,0,1,2.58,1.73,7,7,0,0,1,1.48,2.2,6.25,6.25,0,0,1,.51,2.16.67.67,0,0,1-.66.66h-1.38a.84.84,0,0,1-.48-.17.73.73,0,0,1-.3-.5,7.74,7.74,0,0,0-.52-1.48,4,4,0,0,0-1-1.31,5.06,5.06,0,0,0-1.64-.93,7.16,7.16,0,0,0-2.43-.36,5.29,5.29,0,0,0-4.09,1.54A6.06,6.06,0,0,0,271.54,697.17Z" fill="#fff"/><path d="M302.71,705.45H292.3l-1.56,4a1.52,1.52,0,0,1-.33.5,1.13,1.13,0,0,1-.84.25h-1.11a.67.67,0,0,1-.66-.66,1.14,1.14,0,0,1,.12-.42l7.35-18.93a2.57,2.57,0,0,1,.45-.66,1.16,1.16,0,0,1,.9-.33h1.8a1.16,1.16,0,0,1,.9.33,2.61,2.61,0,0,1,.45.66l7.32,18.93a1.15,1.15,0,0,1,.12.42.67.67,0,0,1-.66.66h-1.11a1.13,1.13,0,0,1-.84-.25,1.51,1.51,0,0,1-.33-.5Zm-9.36-2.7h8.31L297.52,692Z" fill="#fff"/><path d="M319.27,689.19a10,10,0,0,1,2.77.38,6.63,6.63,0,0,1,2.29,1.15,5.62,5.62,0,0,1,1.58,2,6.45,6.45,0,0,1,.58,2.85,6.55,6.55,0,0,1-.58,2.87,5.86,5.86,0,0,1-1.58,2,6.53,6.53,0,0,1-2.29,1.2,9.65,9.65,0,0,1-2.77.39h-5.52v7.35a.82.82,0,0,1-.81.81h-1.23a.82.82,0,0,1-.81-.81V690a.82.82,0,0,1,.81-.81Zm-5.52,10.14h5.37a5.3,5.3,0,0,0,3.35-.93,3.4,3.4,0,0,0,1.19-2.85,3.23,3.23,0,0,0-1.19-2.79,5.58,5.58,0,0,0-3.35-.87h-5.37Z" fill="#fff"/><path d="M331.51,710.19a.82.82,0,0,1-.81-.81V690a.82.82,0,0,1,.81-.81h1.23a.82.82,0,0,1,.81.81v19.38a.82.82,0,0,1-.81.81Z" fill="#fff"/><path d="M352.3,689.19a.82.82,0,0,1,.81.81v1.08a.82.82,0,0,1-.81.81h-5.61v17.49a.82.82,0,0,1-.81.81h-1.23a.82.82,0,0,1-.81-.81V691.89h-5.61a.82.82,0,0,1-.81-.81V690a.82.82,0,0,1,.81-.81Z" fill="#fff"/><path d="M367.63,705.45H357.22l-1.56,4a1.52,1.52,0,0,1-.33.5,1.13,1.13,0,0,1-.84.25h-1.11a.67.67,0,0,1-.66-.66,1.14,1.14,0,0,1,.12-.42l7.35-18.93a2.57,2.57,0,0,1,.45-.66,1.16,1.16,0,0,1,.9-.33h1.8a1.16,1.16,0,0,1,.9.33,2.61,2.61,0,0,1,.45.66L372,709.11a1.15,1.15,0,0,1,.12.42.67.67,0,0,1-.66.66h-1.11a1.13,1.13,0,0,1-.84-.25,1.51,1.51,0,0,1-.33-.5Zm-9.36-2.7h8.31L362.44,692Z" fill="#fff"/><path d="M388.84,707.49a.82.82,0,0,1,.81.81v1.08a.82.82,0,0,1-.81.81H376.63a.82.82,0,0,1-.81-.81V690a.82.82,0,0,1,.81-.81h1.23a.82.82,0,0,1,.81.81v17.49Z" fill="#fff"/><path d="M413.26,689.19a.82.82,0,0,1,.81.81v1.08a.82.82,0,0,1-.81.81h-9.87v6.93h9.27a.82.82,0,0,1,.81.81v1.08a.82.82,0,0,1-.81.81h-9.27v7.86a.82.82,0,0,1-.81.81h-1.23a.82.82,0,0,1-.81-.81V690a.82.82,0,0,1,.81-.81Z" fill="#fff"/><path d="M417.46,697a9.45,9.45,0,0,1,.58-3.17,7.44,7.44,0,0,1,1.61-2.58,7.62,7.62,0,0,1,2.58-1.74,9.87,9.87,0,0,1,7,0,7.63,7.63,0,0,1,2.58,1.74,7.46,7.46,0,0,1,1.6,2.58A9.45,9.45,0,0,1,434,697q.09,2.67,0,5.34a10,10,0,0,1-.61,3.17,7.62,7.62,0,0,1-1.6,2.6,7.39,7.39,0,0,1-2.56,1.74,10,10,0,0,1-7,0,7.37,7.37,0,0,1-2.56-1.74,7.59,7.59,0,0,1-1.6-2.6,10,10,0,0,1-.62-3.17Q417.37,699.69,417.46,697Zm13.71.15a7.75,7.75,0,0,0-.46-2.46,4.73,4.73,0,0,0-1.12-1.74,4.68,4.68,0,0,0-1.69-1,6.84,6.84,0,0,0-4.29,0,4.67,4.67,0,0,0-1.69,1,4.88,4.88,0,0,0-1.14,1.74,7,7,0,0,0-.45,2.46q-.06,1.35-.06,2.52t.06,2.52a7,7,0,0,0,.45,2.46,4.87,4.87,0,0,0,1.14,1.74,4.66,4.66,0,0,0,1.69,1,6.84,6.84,0,0,0,4.29,0,4.66,4.66,0,0,0,1.69-1,4.72,4.72,0,0,0,1.13-1.74,7.74,7.74,0,0,0,.46-2.46q.06-1.35.06-2.52T431.17,697.17Z" fill="#fff"/><path d="M447.07,689.19a10.4,10.4,0,0,1,2.77.36,6.72,6.72,0,0,1,2.3,1.11,5.39,5.39,0,0,1,1.57,1.92,6.25,6.25,0,0,1,.58,2.82,5.81,5.81,0,0,1-1.21,3.87,6.57,6.57,0,0,1-3.1,2l4.53,7.89a.75.75,0,0,1,.09.33.67.67,0,0,1-.66.66h-1.29a1.17,1.17,0,0,1-.88-.3,2.8,2.8,0,0,1-.41-.51L447,701.73h-5.16v7.65a.82.82,0,0,1-.81.81h-1.23a.82.82,0,0,1-.81-.81V690a.82.82,0,0,1,.81-.81ZM441.85,699h5.07a5.64,5.64,0,0,0,3.35-.85,3.19,3.19,0,0,0,1.18-2.77,3,3,0,0,0-1.18-2.71,6,6,0,0,0-3.35-.79h-5.07Z" fill="#fff"/><path d="M240.59,747.19a.82.82,0,0,1-.81-.81V727a.82.82,0,0,1,.81-.81h1.23a.82.82,0,0,1,.81.81v19.38a.82.82,0,0,1-.81.81Z" fill="#fff"/><path d="M262.19,747.19a1,1,0,0,1-.71-.29,3.56,3.56,0,0,1-.49-.61l-9.75-14.67v14.76a.82.82,0,0,1-.81.81H249.2a.82.82,0,0,1-.81-.81V727a.82.82,0,0,1,.81-.81h1a1,1,0,0,1,.71.29,3.62,3.62,0,0,1,.5.61l9.75,14.67V727a.82.82,0,0,1,.81-.81h1.23a.82.82,0,0,1,.81.81v19.38a.82.82,0,0,1-.81.81Z" fill="#fff"/><path d="M270.62,747.19a.82.82,0,0,1-.81-.81V727a.82.82,0,0,1,.81-.81h1.23a.82.82,0,0,1,.81.81v19.38a.82.82,0,0,1-.81.81Z" fill="#fff"/><path d="M291.41,726.19a.82.82,0,0,1,.81.81v1.08a.82.82,0,0,1-.81.81H285.8v17.49a.82.82,0,0,1-.81.81h-1.23a.82.82,0,0,1-.81-.81V728.89h-5.61a.82.82,0,0,1-.81-.81V727a.82.82,0,0,1,.81-.81Z" fill="#fff"/><path d="M296.9,747.19a.82.82,0,0,1-.81-.81V727a.82.82,0,0,1,.81-.81h1.23a.82.82,0,0,1,.81.81v19.38a.82.82,0,0,1-.81.81Z" fill="#fff"/><path d="M317.51,742.45H307.1l-1.56,4a1.52,1.52,0,0,1-.33.5,1.13,1.13,0,0,1-.84.25h-1.11a.67.67,0,0,1-.66-.66,1.14,1.14,0,0,1,.12-.42l7.35-18.93a2.57,2.57,0,0,1,.45-.66,1.16,1.16,0,0,1,.9-.33h1.8a1.16,1.16,0,0,1,.9.33,2.61,2.61,0,0,1,.45.66l7.32,18.93a1.15,1.15,0,0,1,.12.42.67.67,0,0,1-.66.66h-1.11a1.13,1.13,0,0,1-.84-.25,1.51,1.51,0,0,1-.33-.5Zm-9.36-2.7h8.31L312.32,729Z" fill="#fff"/><path d="M338.72,744.49a.82.82,0,0,1,.81.81v1.08a.82.82,0,0,1-.81.81H326.51a.82.82,0,0,1-.81-.81V727a.82.82,0,0,1,.81-.81h1.23a.82.82,0,0,1,.81.81v17.49Z" fill="#fff"/><path d="M351.23,747.19a.82.82,0,0,1-.81-.81V727a.82.82,0,0,1,.81-.81h8a7.56,7.56,0,0,1,3.18.58,6,6,0,0,1,2,1.44,5.17,5.17,0,0,1,1.06,1.85,5.91,5.91,0,0,1,.31,1.77,4.72,4.72,0,0,1-.3,1.74,5,5,0,0,1-.7,1.26,4.39,4.39,0,0,1-.8.81l-.58.42a7.54,7.54,0,0,1,2,2.05,5.24,5.24,0,0,1,.85,3,6.07,6.07,0,0,1-.42,2.22,5.94,5.94,0,0,1-1.25,2,6,6,0,0,1-2.07,1.4,7.35,7.35,0,0,1-2.87.52Zm2-18.3V735H359a4.87,4.87,0,0,0,3-.78,3,3,0,0,0,0-4.5,4.87,4.87,0,0,0-3-.78Zm0,8.76v6.84h6.14a5.29,5.29,0,0,0,1.76-.27,3.57,3.57,0,0,0,1.28-.75,3.18,3.18,0,0,0,.77-1.08,3.25,3.25,0,0,0,.26-1.29,3.59,3.59,0,0,0-.24-1.29,3,3,0,0,0-.74-1.11,3.6,3.6,0,0,0-1.26-.76,5.23,5.23,0,0,0-1.82-.29Z" fill="#fff"/><path d="M386.18,726.19a.82.82,0,0,1,.81.81v12a11.79,11.79,0,0,1-.46,3.4,7.33,7.33,0,0,1-1.44,2.69,6.47,6.47,0,0,1-2.5,1.77,11,11,0,0,1-7.35,0,6.47,6.47,0,0,1-2.5-1.77,7.14,7.14,0,0,1-1.42-2.69,12.13,12.13,0,0,1-.45-3.4V727a.82.82,0,0,1,.81-.81h1.23a.82.82,0,0,1,.81.81v12.15a6.06,6.06,0,0,0,1.38,4.37,5.91,5.91,0,0,0,7.7,0,6,6,0,0,0,1.4-4.37V727a.82.82,0,0,1,.81-.81Z" fill="#fff"/><path d="M393.38,747.19a.82.82,0,0,1-.81-.81V727a.82.82,0,0,1,.81-.81h1.23a.82.82,0,0,1,.81.81v19.38a.82.82,0,0,1-.81.81Z" fill="#fff"/><path d="M414.2,744.49a.82.82,0,0,1,.81.81v1.08a.82.82,0,0,1-.81.81H402a.82.82,0,0,1-.81-.81V727a.82.82,0,0,1,.81-.81h1.23a.82.82,0,0,1,.81.81v17.49Z" fill="#fff"/><path d="M435,734.32q0,1.35,0,2.37t0,2.37a9.19,9.19,0,0,1-.66,3.4,7.38,7.38,0,0,1-1.74,2.56,7.51,7.51,0,0,1-2.64,1.6,9.87,9.87,0,0,1-3.39.56h-7a.82.82,0,0,1-.81-.81V727a.82.82,0,0,1,.81-.81h6.87a10.26,10.26,0,0,1,3.44.56,7.76,7.76,0,0,1,2.72,1.6,7.36,7.36,0,0,1,1.78,2.56A9,9,0,0,1,435,734.32Zm-2.85.15a7.65,7.65,0,0,0-.35-2.08,4.72,4.72,0,0,0-2.8-3,7.08,7.08,0,0,0-2.73-.46h-4.71v15.6h4.86a7,7,0,0,0,2.71-.46,4.6,4.6,0,0,0,1.75-1.25,4.73,4.73,0,0,0,.95-1.78,8.48,8.48,0,0,0,.31-2.08q0-.66,0-1.19t0-1q0-.5,0-1T432.2,734.47Z" fill="#fff"/><path d="M447.14,734a9.45,9.45,0,0,1,.58-3.17,7.44,7.44,0,0,1,1.61-2.58,7.62,7.62,0,0,1,2.58-1.74,9.87,9.87,0,0,1,7,0,7.63,7.63,0,0,1,2.58,1.74,7.46,7.46,0,0,1,1.6,2.58,9.45,9.45,0,0,1,.58,3.17q.09,2.67,0,5.34a10,10,0,0,1-.61,3.17,7.62,7.62,0,0,1-1.6,2.6,7.39,7.39,0,0,1-2.56,1.74,10,10,0,0,1-7,0,7.37,7.37,0,0,1-2.56-1.74,7.59,7.59,0,0,1-1.6-2.6,10,10,0,0,1-.62-3.17Q447,736.69,447.14,734Zm13.71.15a7.75,7.75,0,0,0-.46-2.46,4.73,4.73,0,0,0-1.12-1.74,4.68,4.68,0,0,0-1.69-1,6.84,6.84,0,0,0-4.29,0,4.67,4.67,0,0,0-1.69,1,4.88,4.88,0,0,0-1.14,1.74,7,7,0,0,0-.45,2.46q-.06,1.35-.06,2.52t.06,2.52a7,7,0,0,0,.45,2.46,4.87,4.87,0,0,0,1.14,1.74,4.66,4.66,0,0,0,1.69,1,6.84,6.84,0,0,0,4.29,0,4.66,4.66,0,0,0,1.69-1,4.72,4.72,0,0,0,1.13-1.74,7.74,7.74,0,0,0,.46-2.46q.06-1.35.06-2.52T460.85,734.17Z" fill="#fff"/><path d="M476.75,726.19a10.4,10.4,0,0,1,2.77.36,6.72,6.72,0,0,1,2.3,1.11,5.39,5.39,0,0,1,1.57,1.92,6.25,6.25,0,0,1,.58,2.82,5.81,5.81,0,0,1-1.21,3.87,6.57,6.57,0,0,1-3.1,2l4.53,7.89a.75.75,0,0,1,.09.33.67.67,0,0,1-.66.66h-1.29a1.17,1.17,0,0,1-.88-.3,2.8,2.8,0,0,1-.41-.51l-4.35-7.65h-5.16v7.65a.82.82,0,0,1-.81.81h-1.23a.82.82,0,0,1-.81-.81V727a.82.82,0,0,1,.81-.81ZM471.53,736h5.07a5.64,5.64,0,0,0,3.35-.85,3.19,3.19,0,0,0,1.18-2.77,3,3,0,0,0-1.18-2.71,6,6,0,0,0-3.35-.79h-5.07Z" fill="#fff"/><path d="M292.72,781.49a.82.82,0,0,1,.81.81v1.08a.82.82,0,0,1-.81.81H280.6a.82.82,0,0,1-.81-.81V764a.82.82,0,0,1,.81-.81h11.88a.82.82,0,0,1,.81.81v1.08a.82.82,0,0,1-.81.81h-9.84v6.33h9.18a.82.82,0,0,1,.81.81v1.08a.82.82,0,0,1-.81.81h-9.18v6.57Z" fill="#fff"/><path d="M305.08,775.76l-5.64,7.74-.39.44a1.13,1.13,0,0,1-.84.25h-1.29a.67.67,0,0,1-.66-.66.68.68,0,0,1,0-.13.83.83,0,0,1,.07-.2l7.08-9.72-6.78-9.3a.75.75,0,0,1-.09-.33.67.67,0,0,1,.66-.66h1.41a1.12,1.12,0,0,1,.87.3l.39.45,5.34,7.32,5.22-7.29.39-.46a1.09,1.09,0,0,1,.87-.31H313a.67.67,0,0,1,.66.66.75.75,0,0,1-.09.33l-6.69,9.36,7,9.66a.86.86,0,0,1,.08.2.72.72,0,0,1,0,.13.67.67,0,0,1-.66.66h-1.41a1.12,1.12,0,0,1-.84-.25l-.39-.44Z" fill="#fff"/><path d="M326.26,763.19a10,10,0,0,1,2.77.38,6.63,6.63,0,0,1,2.29,1.15,5.62,5.62,0,0,1,1.58,2,6.45,6.45,0,0,1,.58,2.85,6.55,6.55,0,0,1-.58,2.87,5.86,5.86,0,0,1-1.58,2,6.53,6.53,0,0,1-2.29,1.2,9.65,9.65,0,0,1-2.77.39h-5.52v7.35a.82.82,0,0,1-.81.81H318.7a.82.82,0,0,1-.81-.81V764a.82.82,0,0,1,.81-.81Zm-5.52,10.14h5.37a5.3,5.3,0,0,0,3.35-.93,3.4,3.4,0,0,0,1.19-2.85,3.23,3.23,0,0,0-1.19-2.79,5.58,5.58,0,0,0-3.35-.87h-5.37Z" fill="#fff"/><path d="M349.27,779.45H338.86l-1.56,4a1.52,1.52,0,0,1-.33.5,1.13,1.13,0,0,1-.84.25H335a.67.67,0,0,1-.66-.66,1.14,1.14,0,0,1,.12-.42l7.35-18.93a2.57,2.57,0,0,1,.45-.66,1.16,1.16,0,0,1,.9-.33H345a1.16,1.16,0,0,1,.9.33,2.61,2.61,0,0,1,.45.66l7.32,18.93a1.15,1.15,0,0,1,.12.42.67.67,0,0,1-.66.66H352a1.13,1.13,0,0,1-.84-.25,1.51,1.51,0,0,1-.33-.5Zm-9.36-2.7h8.31L344.08,766Z" fill="#fff"/><path d="M371.26,784.19a1,1,0,0,1-.71-.29,3.56,3.56,0,0,1-.49-.61l-9.75-14.67v14.76a.82.82,0,0,1-.81.81h-1.23a.82.82,0,0,1-.81-.81V764a.82.82,0,0,1,.81-.81h1a1,1,0,0,1,.71.29,3.62,3.62,0,0,1,.5.61l9.75,14.67V764a.82.82,0,0,1,.81-.81h1.23a.82.82,0,0,1,.81.81v19.38a.82.82,0,0,1-.81.81Z" fill="#fff"/><path d="M385.32,762.89a8.48,8.48,0,0,1,3.23.57,8.79,8.79,0,0,1,2.37,1.4,6.21,6.21,0,0,1,1.48,1.77,4,4,0,0,1,.54,1.69.53.53,0,0,1-.18.47.69.69,0,0,1-.48.19h-1.23a1,1,0,0,1-.52-.12,1.32,1.32,0,0,1-.4-.54,5.64,5.64,0,0,0-.5-.76,4.46,4.46,0,0,0-.93-.9,5.79,5.79,0,0,0-1.42-.75,5.54,5.54,0,0,0-2-.31,6.48,6.48,0,0,0-1.6.2,4.55,4.55,0,0,0-1.36.58,3.07,3.07,0,0,0-1,1,2.55,2.55,0,0,0-.36,1.37,2.4,2.4,0,0,0,.34,1.32,3.08,3.08,0,0,0,1.11,1,9.76,9.76,0,0,0,1.94.79q1.17.36,2.85.81a18.28,18.28,0,0,1,2.9,1,7.55,7.55,0,0,1,1.94,1.21,4.08,4.08,0,0,1,1.09,1.56,5.46,5.46,0,0,1,.35,2,5.28,5.28,0,0,1-.58,2.47,5.82,5.82,0,0,1-1.64,1.94,7.83,7.83,0,0,1-2.53,1.26,11.42,11.42,0,0,1-3.31.45,9.73,9.73,0,0,1-3.21-.51,8.82,8.82,0,0,1-2.52-1.32,6.84,6.84,0,0,1-1.67-1.8,3.91,3.91,0,0,1-.65-1.95.67.67,0,0,1,.66-.66h1.23a1.1,1.1,0,0,1,.53.12,1.06,1.06,0,0,1,.4.54,4.43,4.43,0,0,0,.56.91,4.31,4.31,0,0,0,1,.93,6,6,0,0,0,1.53.73,6.75,6.75,0,0,0,2.13.3,8,8,0,0,0,2-.24,5.8,5.8,0,0,0,1.67-.69,3.7,3.7,0,0,0,1.14-1.08,2.49,2.49,0,0,0,.42-1.41,2,2,0,0,0-.48-1.33,4.41,4.41,0,0,0-1.38-1,13,13,0,0,0-2.21-.82q-1.31-.37-3-.79a11.82,11.82,0,0,1-2.55-.95,6.24,6.24,0,0,1-1.71-1.27,4.33,4.33,0,0,1-.95-1.59,6,6,0,0,1-.28-1.89,5.44,5.44,0,0,1,.45-2.16,5.38,5.38,0,0,1,1.33-1.86,6.69,6.69,0,0,1,2.22-1.31A9,9,0,0,1,385.32,762.89Z" fill="#fff"/><path d="M398.83,784.19a.82.82,0,0,1-.81-.81V764a.82.82,0,0,1,.81-.81h1.23a.82.82,0,0,1,.81.81v19.38a.82.82,0,0,1-.81.81Z" fill="#fff"/><path d="M405.84,771a9.45,9.45,0,0,1,.58-3.17,7.44,7.44,0,0,1,1.61-2.58,7.62,7.62,0,0,1,2.58-1.74,9.87,9.87,0,0,1,7,0,7.63,7.63,0,0,1,2.58,1.74,7.46,7.46,0,0,1,1.6,2.58,9.45,9.45,0,0,1,.58,3.17q.09,2.67,0,5.34a10,10,0,0,1-.61,3.17,7.62,7.62,0,0,1-1.6,2.6,7.39,7.39,0,0,1-2.56,1.74,10,10,0,0,1-7,0,7.37,7.37,0,0,1-2.56-1.74,7.59,7.59,0,0,1-1.6-2.6,10,10,0,0,1-.62-3.17Q405.76,773.69,405.84,771Zm13.71.15a7.75,7.75,0,0,0-.46-2.46A4.73,4.73,0,0,0,418,767a4.68,4.68,0,0,0-1.69-1,6.84,6.84,0,0,0-4.29,0,4.67,4.67,0,0,0-1.69,1,4.88,4.88,0,0,0-1.14,1.74,7,7,0,0,0-.45,2.46q-.06,1.35-.06,2.52t.06,2.52a7,7,0,0,0,.45,2.46,4.87,4.87,0,0,0,1.14,1.74,4.66,4.66,0,0,0,1.69,1,6.84,6.84,0,0,0,4.29,0,4.66,4.66,0,0,0,1.69-1,4.72,4.72,0,0,0,1.13-1.74,7.74,7.74,0,0,0,.46-2.46q.06-1.35.06-2.52T419.55,771.17Z" fill="#fff"/><path d="M441.18,784.19a1,1,0,0,1-.71-.29,3.56,3.56,0,0,1-.49-.61l-9.75-14.67v14.76a.82.82,0,0,1-.81.81H428.2a.82.82,0,0,1-.81-.81V764a.82.82,0,0,1,.81-.81h1a1,1,0,0,1,.71.29,3.62,3.62,0,0,1,.5.61l9.75,14.67V764a.82.82,0,0,1,.81-.81h1.23a.82.82,0,0,1,.81.81v19.38a.82.82,0,0,1-.81.81Z" fill="#fff"/><path d="M585.25,697.17q-.06,1.35-.06,2.52t.06,2.52a6.06,6.06,0,0,0,1.52,4,5.29,5.29,0,0,0,4.09,1.54,7.16,7.16,0,0,0,2.43-.36,5.05,5.05,0,0,0,1.64-.93,4,4,0,0,0,1-1.31,7.71,7.71,0,0,0,.52-1.48.73.73,0,0,1,.3-.5.85.85,0,0,1,.48-.17h1.38a.67.67,0,0,1,.66.66,6.25,6.25,0,0,1-.51,2.16,7,7,0,0,1-1.48,2.2,8,8,0,0,1-2.58,1.73,9.51,9.51,0,0,1-3.83.69,9.27,9.27,0,0,1-3.48-.61,7.86,7.86,0,0,1-2.62-1.69,7.51,7.51,0,0,1-1.69-2.57,9.47,9.47,0,0,1-.66-3.25q-.09-2.67,0-5.34a9.54,9.54,0,0,1,.66-3.24,7.48,7.48,0,0,1,1.69-2.58,7.87,7.87,0,0,1,2.63-1.69,9.27,9.27,0,0,1,3.48-.61,9.51,9.51,0,0,1,3.83.69,8,8,0,0,1,2.58,1.73,7,7,0,0,1,1.48,2.2,6.25,6.25,0,0,1,.51,2.16.67.67,0,0,1-.66.66h-1.38a.84.84,0,0,1-.48-.17.73.73,0,0,1-.3-.5,7.74,7.74,0,0,0-.52-1.48,4,4,0,0,0-1-1.31,5.06,5.06,0,0,0-1.64-.93,7.16,7.16,0,0,0-2.43-.36,5.29,5.29,0,0,0-4.09,1.54A6.06,6.06,0,0,0,585.25,697.17Z" fill="#fff"/><path d="M603,697a9.45,9.45,0,0,1,.58-3.17,7.44,7.44,0,0,1,1.61-2.58,7.62,7.62,0,0,1,2.58-1.74,9.87,9.87,0,0,1,7,0,7.63,7.63,0,0,1,2.58,1.74,7.46,7.46,0,0,1,1.6,2.58,9.45,9.45,0,0,1,.58,3.17q.09,2.67,0,5.34a10,10,0,0,1-.61,3.17,7.62,7.62,0,0,1-1.6,2.6,7.39,7.39,0,0,1-2.56,1.74,10,10,0,0,1-7,0,7.37,7.37,0,0,1-2.56-1.74,7.59,7.59,0,0,1-1.6-2.6,10,10,0,0,1-.62-3.17Q602.92,699.69,603,697Zm13.71.15a7.75,7.75,0,0,0-.46-2.46,4.73,4.73,0,0,0-1.12-1.74,4.68,4.68,0,0,0-1.69-1,6.84,6.84,0,0,0-4.29,0,4.67,4.67,0,0,0-1.69,1,4.88,4.88,0,0,0-1.14,1.74,7,7,0,0,0-.45,2.46q-.06,1.35-.06,2.52t.06,2.52a7,7,0,0,0,.45,2.46,4.87,4.87,0,0,0,1.14,1.74,4.66,4.66,0,0,0,1.69,1,6.84,6.84,0,0,0,4.29,0,4.66,4.66,0,0,0,1.69-1,4.72,4.72,0,0,0,1.13-1.74,7.74,7.74,0,0,0,.46-2.46q.06-1.35.06-2.52T616.72,697.17Z" fill="#fff"/><path d="M638.35,710.19a1,1,0,0,1-.71-.29,3.56,3.56,0,0,1-.49-.61l-9.75-14.67v14.76a.82.82,0,0,1-.81.81h-1.23a.82.82,0,0,1-.81-.81V690a.82.82,0,0,1,.81-.81h1a1,1,0,0,1,.71.29,3.62,3.62,0,0,1,.5.61l9.75,14.67V690a.82.82,0,0,1,.81-.81h1.23a.82.82,0,0,1,.81.81v19.38a.82.82,0,0,1-.81.81Z" fill="#fff"/><path d="M652.42,688.89a8.48,8.48,0,0,1,3.23.57,8.79,8.79,0,0,1,2.37,1.4,6.21,6.21,0,0,1,1.48,1.77,4,4,0,0,1,.54,1.69.53.53,0,0,1-.18.47.69.69,0,0,1-.48.19h-1.23a1,1,0,0,1-.52-.12,1.32,1.32,0,0,1-.4-.54,5.64,5.64,0,0,0-.5-.76,4.46,4.46,0,0,0-.93-.9,5.79,5.79,0,0,0-1.42-.75,5.54,5.54,0,0,0-2-.31,6.48,6.48,0,0,0-1.6.2,4.55,4.55,0,0,0-1.36.58,3.07,3.07,0,0,0-1,1,2.55,2.55,0,0,0-.36,1.37,2.4,2.4,0,0,0,.34,1.32,3.08,3.08,0,0,0,1.11,1,9.76,9.76,0,0,0,1.94.79q1.17.36,2.85.81a18.28,18.28,0,0,1,2.9,1,7.55,7.55,0,0,1,1.94,1.21,4.08,4.08,0,0,1,1.09,1.56,5.46,5.46,0,0,1,.35,2,5.28,5.28,0,0,1-.58,2.47,5.82,5.82,0,0,1-1.64,1.94,7.83,7.83,0,0,1-2.53,1.26,11.42,11.42,0,0,1-3.31.45,9.73,9.73,0,0,1-3.21-.51,8.82,8.82,0,0,1-2.52-1.32,6.84,6.84,0,0,1-1.67-1.8,3.91,3.91,0,0,1-.65-1.95.67.67,0,0,1,.66-.66h1.23a1.1,1.1,0,0,1,.53.12,1.06,1.06,0,0,1,.4.54,4.43,4.43,0,0,0,.56.91,4.31,4.31,0,0,0,1,.93,6,6,0,0,0,1.53.73,6.75,6.75,0,0,0,2.13.3,8,8,0,0,0,2-.24,5.8,5.8,0,0,0,1.67-.69,3.7,3.7,0,0,0,1.14-1.08,2.49,2.49,0,0,0,.42-1.41,2,2,0,0,0-.48-1.33,4.41,4.41,0,0,0-1.38-1,13,13,0,0,0-2.21-.82q-1.31-.37-3-.79a11.82,11.82,0,0,1-2.55-.95,6.24,6.24,0,0,1-1.71-1.27,4.33,4.33,0,0,1-.95-1.59,6,6,0,0,1-.28-1.89,5.44,5.44,0,0,1,.45-2.16,5.38,5.38,0,0,1,1.33-1.86,6.69,6.69,0,0,1,2.22-1.31A9,9,0,0,1,652.42,688.89Z" fill="#fff"/><path d="M677.83,689.19a.82.82,0,0,1,.81.81v1.08a.82.82,0,0,1-.81.81h-5.61v17.49a.82.82,0,0,1-.81.81h-1.23a.82.82,0,0,1-.81-.81V691.89h-5.61a.82.82,0,0,1-.81-.81V690a.82.82,0,0,1,.81-.81Z" fill="#fff"/><path d="M690.58,689.19a10.4,10.4,0,0,1,2.77.36,6.72,6.72,0,0,1,2.3,1.11,5.39,5.39,0,0,1,1.57,1.92,6.25,6.25,0,0,1,.58,2.82,5.81,5.81,0,0,1-1.21,3.87,6.57,6.57,0,0,1-3.1,2L698,709.2a.75.75,0,0,1,.09.33.67.67,0,0,1-.66.66h-1.29a1.17,1.17,0,0,1-.88-.3,2.8,2.8,0,0,1-.41-.51l-4.35-7.65h-5.16v7.65a.82.82,0,0,1-.81.81h-1.23a.82.82,0,0,1-.81-.81V690a.82.82,0,0,1,.81-.81ZM685.36,699h5.07a5.64,5.64,0,0,0,3.35-.85A3.19,3.19,0,0,0,695,695.4a3,3,0,0,0-1.18-2.71,6,6,0,0,0-3.35-.79h-5.07Z" fill="#fff"/><path d="M717.79,689.19a.82.82,0,0,1,.81.81v12a11.79,11.79,0,0,1-.46,3.4,7.33,7.33,0,0,1-1.44,2.69,6.47,6.47,0,0,1-2.5,1.77,11,11,0,0,1-7.35,0,6.47,6.47,0,0,1-2.5-1.77,7.14,7.14,0,0,1-1.42-2.69,12.13,12.13,0,0,1-.45-3.4V690a.82.82,0,0,1,.81-.81h1.23a.82.82,0,0,1,.81.81v12.15a6.06,6.06,0,0,0,1.38,4.37,5.91,5.91,0,0,0,7.7,0,6,6,0,0,0,1.4-4.37V690a.82.82,0,0,1,.81-.81Z" fill="#fff"/><path d="M726.25,697.17q-.06,1.35-.06,2.52t.06,2.52a6.06,6.06,0,0,0,1.52,4,5.29,5.29,0,0,0,4.09,1.54,7.16,7.16,0,0,0,2.43-.36,5.05,5.05,0,0,0,1.64-.93,4,4,0,0,0,1-1.31,7.71,7.71,0,0,0,.52-1.48.73.73,0,0,1,.3-.5.85.85,0,0,1,.48-.17h1.38a.67.67,0,0,1,.66.66,6.25,6.25,0,0,1-.51,2.16,7,7,0,0,1-1.48,2.2,8,8,0,0,1-2.58,1.73,9.51,9.51,0,0,1-3.83.69,9.27,9.27,0,0,1-3.48-.61,7.86,7.86,0,0,1-2.62-1.69,7.51,7.51,0,0,1-1.69-2.57,9.47,9.47,0,0,1-.66-3.25q-.09-2.67,0-5.34a9.54,9.54,0,0,1,.66-3.24,7.48,7.48,0,0,1,1.69-2.58,7.87,7.87,0,0,1,2.63-1.69,9.27,9.27,0,0,1,3.48-.61,9.51,9.51,0,0,1,3.83.69,8,8,0,0,1,2.58,1.73,7,7,0,0,1,1.48,2.2,6.25,6.25,0,0,1,.51,2.16.67.67,0,0,1-.66.66h-1.38a.84.84,0,0,1-.48-.17.73.73,0,0,1-.3-.5,7.74,7.74,0,0,0-.52-1.48,4,4,0,0,0-1-1.31,5.06,5.06,0,0,0-1.64-.93,7.16,7.16,0,0,0-2.43-.36,5.29,5.29,0,0,0-4.09,1.54A6.06,6.06,0,0,0,726.25,697.17Z" fill="#fff"/><path d="M757.77,689.19a.82.82,0,0,1,.81.81v1.08a.82.82,0,0,1-.81.81h-5.61v17.49a.82.82,0,0,1-.81.81h-1.23a.82.82,0,0,1-.81-.81V691.89H743.7a.82.82,0,0,1-.81-.81V690a.82.82,0,0,1,.81-.81Z" fill="#fff"/><path d="M763.26,710.19a.82.82,0,0,1-.81-.81V690a.82.82,0,0,1,.81-.81h1.23a.82.82,0,0,1,.81.81v19.38a.82.82,0,0,1-.81.81Z" fill="#fff"/><path d="M770.28,697a9.45,9.45,0,0,1,.58-3.17,7.44,7.44,0,0,1,1.61-2.58,7.62,7.62,0,0,1,2.58-1.74,9.87,9.87,0,0,1,7,0,7.63,7.63,0,0,1,2.58,1.74,7.46,7.46,0,0,1,1.6,2.58,9.45,9.45,0,0,1,.58,3.17q.09,2.67,0,5.34a10,10,0,0,1-.61,3.17,7.62,7.62,0,0,1-1.6,2.6,7.39,7.39,0,0,1-2.56,1.74,10,10,0,0,1-7,0,7.37,7.37,0,0,1-2.56-1.74,7.59,7.59,0,0,1-1.6-2.6,10,10,0,0,1-.62-3.17Q770.19,699.69,770.28,697Zm13.71.15a7.75,7.75,0,0,0-.46-2.46A4.73,4.73,0,0,0,782.4,693a4.68,4.68,0,0,0-1.69-1,6.84,6.84,0,0,0-4.29,0,4.67,4.67,0,0,0-1.69,1,4.88,4.88,0,0,0-1.14,1.74,7,7,0,0,0-.45,2.46q-.06,1.35-.06,2.52t.06,2.52a7,7,0,0,0,.45,2.46,4.87,4.87,0,0,0,1.14,1.74,4.66,4.66,0,0,0,1.69,1,6.84,6.84,0,0,0,4.29,0,4.66,4.66,0,0,0,1.69-1,4.72,4.72,0,0,0,1.13-1.74,7.74,7.74,0,0,0,.46-2.46q.06-1.35.06-2.52T784,697.17Z" fill="#fff"/><path d="M805.62,710.19a1,1,0,0,1-.71-.29,3.56,3.56,0,0,1-.49-.61l-9.75-14.67v14.76a.82.82,0,0,1-.81.81h-1.23a.82.82,0,0,1-.81-.81V690a.82.82,0,0,1,.81-.81h1a1,1,0,0,1,.71.29,3.62,3.62,0,0,1,.5.61l9.75,14.67V690a.82.82,0,0,1,.81-.81h1.23a.82.82,0,0,1,.81.81v19.38a.82.82,0,0,1-.81.81Z" fill="#fff"/><path d="M603.52,738.88l6.06-11.73a2.38,2.38,0,0,1,.49-.66,1.15,1.15,0,0,1,.83-.3H612a.82.82,0,0,1,.81.81v19.38a.82.82,0,0,1-.81.81h-1.23a.82.82,0,0,1-.81-.81V732.16l-4.68,9a2.74,2.74,0,0,1-.51.71,1,1,0,0,1-.72.25h-1.14a1,1,0,0,1-.72-.25,2.73,2.73,0,0,1-.51-.71l-4.68-9v14.22a.82.82,0,0,1-.81.81H595a.82.82,0,0,1-.81-.81V727a.82.82,0,0,1,.81-.81h1.14a1.15,1.15,0,0,1,.83.3,2.39,2.39,0,0,1,.5.66Z" fill="#fff"/><path d="M631.42,742.45H621l-1.56,4a1.52,1.52,0,0,1-.33.5,1.13,1.13,0,0,1-.84.25h-1.11a.67.67,0,0,1-.66-.66,1.14,1.14,0,0,1,.12-.42L624,727.18a2.57,2.57,0,0,1,.45-.66,1.16,1.16,0,0,1,.9-.33h1.8a1.16,1.16,0,0,1,.9.33,2.61,2.61,0,0,1,.45.66l7.32,18.93a1.15,1.15,0,0,1,.12.42.67.67,0,0,1-.66.66h-1.11a1.13,1.13,0,0,1-.84-.25,1.51,1.51,0,0,1-.33-.5Zm-9.36-2.7h8.31L626.23,729Z" fill="#fff"/><path d="M653.41,747.19a1,1,0,0,1-.71-.29,3.56,3.56,0,0,1-.49-.61l-9.75-14.67v14.76a.82.82,0,0,1-.81.81h-1.23a.82.82,0,0,1-.81-.81V727a.82.82,0,0,1,.81-.81h1a1,1,0,0,1,.71.29,3.62,3.62,0,0,1,.5.61l9.75,14.67V727a.82.82,0,0,1,.81-.81h1.23a.82.82,0,0,1,.81.81v19.38a.82.82,0,0,1-.81.81Z" fill="#fff"/><path d="M673.84,742.45H663.43l-1.56,4a1.52,1.52,0,0,1-.33.5,1.13,1.13,0,0,1-.84.25h-1.11a.67.67,0,0,1-.66-.66,1.14,1.14,0,0,1,.12-.42l7.35-18.93a2.57,2.57,0,0,1,.45-.66,1.16,1.16,0,0,1,.9-.33h1.8a1.16,1.16,0,0,1,.9.33,2.61,2.61,0,0,1,.45.66l7.32,18.93a1.15,1.15,0,0,1,.12.42.67.67,0,0,1-.66.66h-1.11a1.13,1.13,0,0,1-.84-.25,1.51,1.51,0,0,1-.33-.5Zm-9.36-2.7h8.31L668.65,729Z" fill="#fff"/><path d="M680.89,734a10.34,10.34,0,0,1,.58-3.12,7.16,7.16,0,0,1,1.59-2.58,7.39,7.39,0,0,1,2.65-1.74,10.16,10.16,0,0,1,3.75-.63,9.88,9.88,0,0,1,3.58.6,8.89,8.89,0,0,1,2.58,1.49,6.44,6.44,0,0,1,1.56,1.89,4.36,4.36,0,0,1,.56,1.82.53.53,0,0,1-.18.46.68.68,0,0,1-.48.19h-1.23q-.72,0-.87-.33a9.19,9.19,0,0,0-.82-1.35,4.88,4.88,0,0,0-1.1-1.08,5.19,5.19,0,0,0-1.52-.72,7.87,7.87,0,0,0-4.35.08,4.88,4.88,0,0,0-1.79,1,5,5,0,0,0-1.2,1.73,6.38,6.38,0,0,0-.48,2.42q-.06,1.35-.06,2.49t.06,2.49a6.9,6.9,0,0,0,.48,2.52,5.1,5.1,0,0,0,1.2,1.79,4.75,4.75,0,0,0,1.79,1,7.11,7.11,0,0,0,2.26.35,8.15,8.15,0,0,0,2.25-.3,4.75,4.75,0,0,0,1.83-1,4.49,4.49,0,0,0,1.21-1.76,7.08,7.08,0,0,0,.44-2.64v-.84h-4.32a.82.82,0,0,1-.81-.81v-1.08a.82.82,0,0,1,.81-.81h6.36a.82.82,0,0,1,.81.81v2.85a9.36,9.36,0,0,1-.57,3.32,7.26,7.26,0,0,1-1.67,2.61,7.61,7.61,0,0,1-2.7,1.71,10.14,10.14,0,0,1-3.65.61,9.94,9.94,0,0,1-3.75-.65,7.18,7.18,0,0,1-4.23-4.36,10.59,10.59,0,0,1-.6-3.24Q680.8,736.6,680.89,734Z" fill="#fff"/><path d="M715.71,744.49a.82.82,0,0,1,.81.81v1.08a.82.82,0,0,1-.81.81H703.59a.82.82,0,0,1-.81-.81V727a.82.82,0,0,1,.81-.81h11.88a.82.82,0,0,1,.81.81v1.08a.82.82,0,0,1-.81.81h-9.84v6.33h9.18a.82.82,0,0,1,.81.81v1.08a.82.82,0,0,1-.81.81h-9.18v6.57Z" fill="#fff"/><path d="M730.47,738.88l6.06-11.73a2.38,2.38,0,0,1,.49-.66,1.15,1.15,0,0,1,.83-.3H739a.82.82,0,0,1,.81.81v19.38a.82.82,0,0,1-.81.81h-1.23a.82.82,0,0,1-.81-.81V732.16l-4.68,9a2.74,2.74,0,0,1-.51.71,1,1,0,0,1-.72.25H729.9a1,1,0,0,1-.72-.25,2.73,2.73,0,0,1-.51-.71l-4.68-9v14.22a.82.82,0,0,1-.81.81H722a.82.82,0,0,1-.81-.81V727a.82.82,0,0,1,.81-.81h1.14a1.15,1.15,0,0,1,.83.3,2.39,2.39,0,0,1,.5.66Z" fill="#fff"/><path d="M758.49,744.49a.82.82,0,0,1,.81.81v1.08a.82.82,0,0,1-.81.81H746.37a.82.82,0,0,1-.81-.81V727a.82.82,0,0,1,.81-.81h11.88a.82.82,0,0,1,.81.81v1.08a.82.82,0,0,1-.81.81h-9.84v6.33h9.18a.82.82,0,0,1,.81.81v1.08a.82.82,0,0,1-.81.81h-9.18v6.57Z" fill="#fff"/><path d="M777.72,747.19a1,1,0,0,1-.71-.29,3.56,3.56,0,0,1-.49-.61l-9.75-14.67v14.76a.82.82,0,0,1-.81.81h-1.23a.82.82,0,0,1-.81-.81V727a.82.82,0,0,1,.81-.81h1a1,1,0,0,1,.71.29,3.62,3.62,0,0,1,.5.61l9.75,14.67V727a.82.82,0,0,1,.81-.81h1.23a.82.82,0,0,1,.81.81v19.38a.82.82,0,0,1-.81.81Z" fill="#fff"/><path d="M798.33,726.19a.82.82,0,0,1,.81.81v1.08a.82.82,0,0,1-.81.81h-5.61v17.49a.82.82,0,0,1-.81.81h-1.23a.82.82,0,0,1-.81-.81V728.89h-5.61a.82.82,0,0,1-.81-.81V727a.82.82,0,0,1,.81-.81Z" fill="#fff"/><path d="M894.5,697a10.34,10.34,0,0,1,.58-3.12,7.16,7.16,0,0,1,1.59-2.58,7.39,7.39,0,0,1,2.65-1.74,10.16,10.16,0,0,1,3.75-.63,9.88,9.88,0,0,1,3.58.6,8.89,8.89,0,0,1,2.58,1.49,6.44,6.44,0,0,1,1.56,1.89,4.36,4.36,0,0,1,.56,1.82.53.53,0,0,1-.18.46.68.68,0,0,1-.48.19h-1.23q-.72,0-.87-.33a9.19,9.19,0,0,0-.82-1.35,4.88,4.88,0,0,0-1.1-1.08,5.19,5.19,0,0,0-1.52-.72,7.87,7.87,0,0,0-4.35.08,4.88,4.88,0,0,0-1.79,1,5,5,0,0,0-1.2,1.73,6.38,6.38,0,0,0-.48,2.42q-.06,1.35-.06,2.49t.06,2.49a6.9,6.9,0,0,0,.48,2.52,5.1,5.1,0,0,0,1.2,1.79,4.75,4.75,0,0,0,1.79,1,7.11,7.11,0,0,0,2.26.35,8.15,8.15,0,0,0,2.25-.3,4.75,4.75,0,0,0,1.83-1,4.49,4.49,0,0,0,1.21-1.76,7.08,7.08,0,0,0,.44-2.64v-.84h-4.32a.82.82,0,0,1-.81-.81v-1.08a.82.82,0,0,1,.81-.81h6.36a.82.82,0,0,1,.81.81v2.85a9.36,9.36,0,0,1-.57,3.32,7.26,7.26,0,0,1-1.67,2.61,7.61,7.61,0,0,1-2.7,1.71,10.14,10.14,0,0,1-3.65.61,9.94,9.94,0,0,1-3.75-.65,7.18,7.18,0,0,1-4.23-4.36,10.59,10.59,0,0,1-.6-3.24Q894.41,699.6,894.5,697Z" fill="#fff"/><path d="M929.33,707.49a.82.82,0,0,1,.81.81v1.08a.82.82,0,0,1-.81.81H917.21a.82.82,0,0,1-.81-.81V690a.82.82,0,0,1,.81-.81h11.88a.82.82,0,0,1,.81.81v1.08a.82.82,0,0,1-.81.81h-9.84v6.33h9.18a.82.82,0,0,1,.81.81v1.08a.82.82,0,0,1-.81.81h-9.18v6.57Z" fill="#fff"/><path d="M948.56,710.19a1,1,0,0,1-.71-.29,3.56,3.56,0,0,1-.49-.61l-9.75-14.67v14.76a.82.82,0,0,1-.81.81h-1.23a.82.82,0,0,1-.81-.81V690a.82.82,0,0,1,.81-.81h1a1,1,0,0,1,.71.29,3.62,3.62,0,0,1,.5.61l9.75,14.67V690a.82.82,0,0,1,.81-.81h1.23a.82.82,0,0,1,.81.81v19.38a.82.82,0,0,1-.81.81Z" fill="#fff"/><path d="M969.11,707.49a.82.82,0,0,1,.81.81v1.08a.82.82,0,0,1-.81.81H957a.82.82,0,0,1-.81-.81V690a.82.82,0,0,1,.81-.81h11.88a.82.82,0,0,1,.81.81v1.08a.82.82,0,0,1-.81.81H959v6.33h9.18a.82.82,0,0,1,.81.81v1.08a.82.82,0,0,1-.81.81H959v6.57Z" fill="#fff"/><path d="M987.53,689.19a.82.82,0,0,1,.81.81v1.08a.82.82,0,0,1-.81.81h-5.61v17.49a.82.82,0,0,1-.81.81h-1.23a.82.82,0,0,1-.81-.81V691.89h-5.61a.82.82,0,0,1-.81-.81V690a.82.82,0,0,1,.81-.81Z" fill="#fff"/><path d="M993,710.19a.82.82,0,0,1-.81-.81V690a.82.82,0,0,1,.81-.81h1.23a.82.82,0,0,1,.81.81v19.38a.82.82,0,0,1-.81.81Z" fill="#fff"/><path d="M1002.89,697.17q-.06,1.35-.06,2.52t.06,2.52a6.06,6.06,0,0,0,1.52,4,5.29,5.29,0,0,0,4.09,1.54,7.16,7.16,0,0,0,2.43-.36,5.05,5.05,0,0,0,1.64-.93,4,4,0,0,0,1-1.31,7.71,7.71,0,0,0,.52-1.48.73.73,0,0,1,.3-.5.85.85,0,0,1,.48-.17h1.38a.67.67,0,0,1,.66.66,6.25,6.25,0,0,1-.51,2.16,7,7,0,0,1-1.48,2.2,8,8,0,0,1-2.58,1.73,9.51,9.51,0,0,1-3.83.69,9.27,9.27,0,0,1-3.48-.61,7.86,7.86,0,0,1-2.62-1.69,7.51,7.51,0,0,1-1.69-2.57,9.47,9.47,0,0,1-.66-3.25q-.09-2.67,0-5.34a9.54,9.54,0,0,1,.66-3.24,7.48,7.48,0,0,1,1.69-2.58,7.87,7.87,0,0,1,2.63-1.69,9.27,9.27,0,0,1,3.48-.61,9.51,9.51,0,0,1,3.83.69,8,8,0,0,1,2.58,1.73,7,7,0,0,1,1.48,2.2,6.25,6.25,0,0,1,.51,2.16.67.67,0,0,1-.66.66h-1.38a.84.84,0,0,1-.48-.17.73.73,0,0,1-.3-.5,7.74,7.74,0,0,0-.52-1.48,4,4,0,0,0-1-1.31,5.06,5.06,0,0,0-1.64-.93,7.16,7.16,0,0,0-2.43-.36,5.29,5.29,0,0,0-4.09,1.54A6.06,6.06,0,0,0,1002.89,697.17Z" fill="#fff"/><path d="M1027.88,688.89a8.48,8.48,0,0,1,3.23.57,8.79,8.79,0,0,1,2.37,1.4,6.21,6.21,0,0,1,1.48,1.77,4,4,0,0,1,.54,1.69.53.53,0,0,1-.18.47.69.69,0,0,1-.48.19h-1.23a1,1,0,0,1-.52-.12,1.32,1.32,0,0,1-.4-.54,5.64,5.64,0,0,0-.5-.76,4.46,4.46,0,0,0-.93-.9,5.79,5.79,0,0,0-1.42-.75,5.54,5.54,0,0,0-2-.31,6.48,6.48,0,0,0-1.6.2,4.55,4.55,0,0,0-1.36.58,3.07,3.07,0,0,0-1,1,2.55,2.55,0,0,0-.36,1.37,2.4,2.4,0,0,0,.34,1.32,3.08,3.08,0,0,0,1.11,1,9.76,9.76,0,0,0,1.94.79q1.17.36,2.85.81a18.28,18.28,0,0,1,2.9,1,7.55,7.55,0,0,1,1.94,1.21,4.08,4.08,0,0,1,1.09,1.56,5.46,5.46,0,0,1,.35,2,5.28,5.28,0,0,1-.58,2.47,5.82,5.82,0,0,1-1.64,1.94,7.83,7.83,0,0,1-2.53,1.26,11.42,11.42,0,0,1-3.31.45,9.73,9.73,0,0,1-3.21-.51,8.82,8.82,0,0,1-2.52-1.32,6.84,6.84,0,0,1-1.67-1.8,3.91,3.91,0,0,1-.65-1.95.67.67,0,0,1,.66-.66h1.23a1.1,1.1,0,0,1,.53.12,1.06,1.06,0,0,1,.4.54,4.43,4.43,0,0,0,.56.91,4.31,4.31,0,0,0,1,.93,6,6,0,0,0,1.53.73,6.75,6.75,0,0,0,2.13.3,8,8,0,0,0,2-.24,5.8,5.8,0,0,0,1.67-.69,3.7,3.7,0,0,0,1.14-1.08,2.49,2.49,0,0,0,.42-1.41,2,2,0,0,0-.48-1.33,4.41,4.41,0,0,0-1.38-1,13,13,0,0,0-2.21-.82q-1.31-.37-3-.79a11.82,11.82,0,0,1-2.55-.95,6.24,6.24,0,0,1-1.71-1.27,4.33,4.33,0,0,1-.95-1.59,6,6,0,0,1-.28-1.89,5.44,5.44,0,0,1,.45-2.16,5.38,5.38,0,0,1,1.33-1.86,6.69,6.69,0,0,1,2.22-1.31A9,9,0,0,1,1027.88,688.89Z" fill="#fff"/><path d="M1062.32,699.87a.82.82,0,0,1,.3-.47.76.76,0,0,1,.48-.19h1.38a.64.64,0,0,1,.51.21.57.57,0,0,1,.15.45,13,13,0,0,1-.57,3,11.44,11.44,0,0,1-1.65,3.34l3.12,3.06a.58.58,0,0,1,.18.42.49.49,0,0,1-.15.36.53.53,0,0,1-.39.15h-2.22a.85.85,0,0,1-.48-.1l-.27-.19-1.68-1.65a9.63,9.63,0,0,1-2.79,1.64,10,10,0,0,1-3.63.61,9.58,9.58,0,0,1-2.72-.37,6.77,6.77,0,0,1-2.22-1.09,5.17,5.17,0,0,1-1.49-1.77,5.24,5.24,0,0,1-.54-2.43A4.66,4.66,0,0,1,1048,703a6.53,6.53,0,0,1,.92-1.54,8.52,8.52,0,0,1,1.31-1.32,15.54,15.54,0,0,1,1.54-1.11q-.81-.9-1.35-1.57a7.31,7.31,0,0,1-.84-1.27,4.83,4.83,0,0,1-.42-1.17,5.77,5.77,0,0,1-.12-1.2,4.18,4.18,0,0,1,.52-2.12,5.13,5.13,0,0,1,1.35-1.54,5.89,5.89,0,0,1,1.83-.94,6.55,6.55,0,0,1,2-.31,5.79,5.79,0,0,1,1.94.34,6.13,6.13,0,0,1,1.77,1,5,5,0,0,1,1.29,1.54,4.25,4.25,0,0,1,.49,2.06,5,5,0,0,1-1.08,3.17,12.38,12.38,0,0,1-2.88,2.56l4.56,4.53A14.09,14.09,0,0,0,1062.32,699.87Zm-7.71,7.92a7.21,7.21,0,0,0,2.29-.37,6.32,6.32,0,0,0,2.08-1.19l-5.22-5.19q-.63.39-1.21.82a8.52,8.52,0,0,0-1,.9,4.72,4.72,0,0,0-.73,1,2.18,2.18,0,0,0-.29,1.08,2.4,2.4,0,0,0,.38,1.35,3,3,0,0,0,1,.93,4.48,4.48,0,0,0,1.33.52A6.51,6.51,0,0,0,1054.61,707.79Zm-2.73-14a2.84,2.84,0,0,0,.12.84,3.05,3.05,0,0,0,.41.81,8.4,8.4,0,0,0,.73.92l1.08,1.16q.54-.3,1.09-.68a6.79,6.79,0,0,0,1-.82,4,4,0,0,0,.73-1,2.62,2.62,0,0,0,.29-1.22,1.83,1.83,0,0,0-.2-.79,2.36,2.36,0,0,0-.54-.72,2.93,2.93,0,0,0-.84-.52,2.7,2.7,0,0,0-1.06-.21,3.18,3.18,0,0,0-2,.65A1.94,1.94,0,0,0,1051.88,693.84Z" fill="#fff"/><path d="M890.52,734.17q-.06,1.35-.06,2.52t.06,2.52a6.06,6.06,0,0,0,1.52,4,5.29,5.29,0,0,0,4.09,1.54,7.16,7.16,0,0,0,2.43-.36,5.05,5.05,0,0,0,1.64-.93,4,4,0,0,0,1-1.31,7.71,7.71,0,0,0,.52-1.48.73.73,0,0,1,.3-.5.85.85,0,0,1,.48-.17h1.38a.67.67,0,0,1,.66.66,6.25,6.25,0,0,1-.51,2.16,7,7,0,0,1-1.48,2.2A8,8,0,0,1,900,746.8a9.51,9.51,0,0,1-3.83.69,9.27,9.27,0,0,1-3.48-.61,7.86,7.86,0,0,1-2.62-1.69,7.51,7.51,0,0,1-1.69-2.57,9.47,9.47,0,0,1-.66-3.25q-.09-2.67,0-5.34a9.54,9.54,0,0,1,.66-3.24A7.48,7.48,0,0,1,890,728.2a7.87,7.87,0,0,1,2.63-1.69,9.27,9.27,0,0,1,3.48-.61,9.51,9.51,0,0,1,3.83.69,8,8,0,0,1,2.58,1.73,7,7,0,0,1,1.48,2.2,6.25,6.25,0,0,1,.51,2.16.67.67,0,0,1-.66.66h-1.38a.84.84,0,0,1-.48-.17.73.73,0,0,1-.3-.5,7.74,7.74,0,0,0-.52-1.48,4,4,0,0,0-1-1.31,5.06,5.06,0,0,0-1.64-.93,7.16,7.16,0,0,0-2.43-.36,5.29,5.29,0,0,0-4.09,1.54A6.06,6.06,0,0,0,890.52,734.17Z" fill="#fff"/><path d="M924.21,726.19a.82.82,0,0,1,.81.81v12a11.79,11.79,0,0,1-.46,3.4,7.33,7.33,0,0,1-1.44,2.69,6.47,6.47,0,0,1-2.5,1.77,11,11,0,0,1-7.35,0,6.47,6.47,0,0,1-2.5-1.77,7.14,7.14,0,0,1-1.42-2.69,12.13,12.13,0,0,1-.45-3.4V727a.82.82,0,0,1,.81-.81h1.23a.82.82,0,0,1,.81.81v12.15a6.06,6.06,0,0,0,1.38,4.37,5.91,5.91,0,0,0,7.7,0,6,6,0,0,0,1.4-4.37V727a.82.82,0,0,1,.81-.81Z" fill="#fff"/><path d="M943.62,744.49a.82.82,0,0,1,.81.81v1.08a.82.82,0,0,1-.81.81H931.41a.82.82,0,0,1-.81-.81V727a.82.82,0,0,1,.81-.81h1.23a.82.82,0,0,1,.81.81v17.49Z" fill="#fff"/><path d="M957.6,726.19a.82.82,0,0,1,.81.81v1.08a.82.82,0,0,1-.81.81H952v17.49a.82.82,0,0,1-.81.81H950a.82.82,0,0,1-.81-.81V728.89h-5.61a.82.82,0,0,1-.81-.81V727a.82.82,0,0,1,.81-.81Z" fill="#fff"/><path d="M963.09,747.19a.82.82,0,0,1-.81-.81V727a.82.82,0,0,1,.81-.81h1.23a.82.82,0,0,1,.81.81v19.38a.82.82,0,0,1-.81.81Z" fill="#fff"/><path d="M983.79,726.94a1.53,1.53,0,0,1,.33-.5,1.13,1.13,0,0,1,.84-.25h1.11a.67.67,0,0,1,.66.66.8.8,0,0,1-.06.3L980.19,746a1.84,1.84,0,0,1-.58.87,1.54,1.54,0,0,1-1,.33h-1.2a1.48,1.48,0,0,1-1-.33,1.89,1.89,0,0,1-.57-.87l-6.51-18.84a.79.79,0,0,1-.06-.3.67.67,0,0,1,.66-.66H971a1.13,1.13,0,0,1,.84.25,1.53,1.53,0,0,1,.33.5L978,744.19Z" fill="#fff"/><path d="M1002.3,742.45H991.89l-1.56,4a1.52,1.52,0,0,1-.33.5,1.13,1.13,0,0,1-.84.25h-1.11a.67.67,0,0,1-.66-.66,1.14,1.14,0,0,1,.12-.42l7.35-18.93a2.57,2.57,0,0,1,.45-.66,1.16,1.16,0,0,1,.9-.33H998a1.16,1.16,0,0,1,.9.33,2.61,2.61,0,0,1,.45.66l7.32,18.93a1.15,1.15,0,0,1,.12.42.67.67,0,0,1-.66.66H1005a1.13,1.13,0,0,1-.84-.25,1.51,1.51,0,0,1-.33-.5Zm-9.36-2.7h8.31L997.11,729Z" fill="#fff"/><path d="M1021.32,726.19a.82.82,0,0,1,.81.81v1.08a.82.82,0,0,1-.81.81h-5.61v17.49a.82.82,0,0,1-.81.81h-1.23a.82.82,0,0,1-.81-.81V728.89h-5.61a.82.82,0,0,1-.81-.81V727a.82.82,0,0,1,.81-.81Z" fill="#fff"/><path d="M1026.81,747.19a.82.82,0,0,1-.81-.81V727a.82.82,0,0,1,.81-.81H1028a.82.82,0,0,1,.81.81v19.38a.82.82,0,0,1-.81.81Z" fill="#fff"/><path d="M1033.83,734a9.45,9.45,0,0,1,.58-3.17,7.44,7.44,0,0,1,1.61-2.58,7.62,7.62,0,0,1,2.58-1.74,9.87,9.87,0,0,1,7,0,7.63,7.63,0,0,1,2.58,1.74,7.46,7.46,0,0,1,1.6,2.58,9.45,9.45,0,0,1,.58,3.17q.09,2.67,0,5.34a10,10,0,0,1-.61,3.17,7.62,7.62,0,0,1-1.6,2.6,7.39,7.39,0,0,1-2.56,1.74,10,10,0,0,1-7,0,7.37,7.37,0,0,1-2.56-1.74,7.59,7.59,0,0,1-1.6-2.6,10,10,0,0,1-.62-3.17Q1033.74,736.69,1033.83,734Zm13.71.15a7.75,7.75,0,0,0-.46-2.46A4.73,4.73,0,0,0,1046,730a4.68,4.68,0,0,0-1.69-1,6.84,6.84,0,0,0-4.29,0,4.67,4.67,0,0,0-1.69,1,4.88,4.88,0,0,0-1.14,1.74,7,7,0,0,0-.45,2.46q-.06,1.35-.06,2.52t.06,2.52a7,7,0,0,0,.45,2.46,4.87,4.87,0,0,0,1.14,1.74,4.66,4.66,0,0,0,1.69,1,6.84,6.84,0,0,0,4.29,0,4.66,4.66,0,0,0,1.69-1,4.72,4.72,0,0,0,1.13-1.74,7.74,7.74,0,0,0,.46-2.46q.06-1.35.06-2.52T1047.54,734.17Z" fill="#fff"/><path d="M1069.17,747.19a1,1,0,0,1-.71-.29,3.56,3.56,0,0,1-.49-.61l-9.75-14.67v14.76a.82.82,0,0,1-.81.81h-1.23a.82.82,0,0,1-.81-.81V727a.82.82,0,0,1,.81-.81h1a1,1,0,0,1,.71.29,3.62,3.62,0,0,1,.5.61l9.75,14.67V727a.82.82,0,0,1,.81-.81h1.23a.82.82,0,0,1,.81.81v19.38a.82.82,0,0,1-.81.81Z" fill="#fff"/><path d="M915.6,781.49a.82.82,0,0,1,.81.81v1.08a.82.82,0,0,1-.81.81H903.48a.82.82,0,0,1-.81-.81V764a.82.82,0,0,1,.81-.81h11.88a.82.82,0,0,1,.81.81v1.08a.82.82,0,0,1-.81.81h-9.84v6.33h9.18a.82.82,0,0,1,.81.81v1.08a.82.82,0,0,1-.81.81h-9.18v6.57Z" fill="#fff"/><path d="M928,775.76l-5.64,7.74-.39.44a1.13,1.13,0,0,1-.84.25H919.8a.67.67,0,0,1-.66-.66.68.68,0,0,1,0-.13.83.83,0,0,1,.07-.2l7.08-9.72-6.78-9.3a.75.75,0,0,1-.09-.33.67.67,0,0,1,.66-.66h1.41a1.12,1.12,0,0,1,.87.3l.39.45,5.34,7.32,5.22-7.29.39-.46a1.09,1.09,0,0,1,.87-.31h1.29a.67.67,0,0,1,.66.66.75.75,0,0,1-.09.33l-6.69,9.36,7,9.66a.86.86,0,0,1,.08.2.72.72,0,0,1,0,.13.67.67,0,0,1-.66.66h-1.41a1.12,1.12,0,0,1-.84-.25l-.39-.44Z" fill="#fff"/><path d="M949.14,763.19a10,10,0,0,1,2.77.38,6.63,6.63,0,0,1,2.29,1.15,5.62,5.62,0,0,1,1.58,2,6.45,6.45,0,0,1,.58,2.85,6.55,6.55,0,0,1-.58,2.87,5.86,5.86,0,0,1-1.58,2,6.53,6.53,0,0,1-2.29,1.2,9.65,9.65,0,0,1-2.77.39h-5.52v7.35a.82.82,0,0,1-.81.81h-1.23a.82.82,0,0,1-.81-.81V764a.82.82,0,0,1,.81-.81Zm-5.52,10.14H949a5.3,5.3,0,0,0,3.35-.93,3.4,3.4,0,0,0,1.19-2.85,3.23,3.23,0,0,0-1.19-2.79,5.58,5.58,0,0,0-3.35-.87h-5.37Z" fill="#fff"/><path d="M973.5,781.49a.82.82,0,0,1,.81.81v1.08a.82.82,0,0,1-.81.81H961.38a.82.82,0,0,1-.81-.81V764a.82.82,0,0,1,.81-.81h11.88a.82.82,0,0,1,.81.81v1.08a.82.82,0,0,1-.81.81h-9.84v6.33h9.18a.82.82,0,0,1,.81.81v1.08a.82.82,0,0,1-.81.81h-9.18v6.57Z" fill="#fff"/><path d="M987,763.19a10.4,10.4,0,0,1,2.77.36,6.72,6.72,0,0,1,2.3,1.11,5.39,5.39,0,0,1,1.57,1.92,6.25,6.25,0,0,1,.58,2.82,5.81,5.81,0,0,1-1.21,3.87,6.57,6.57,0,0,1-3.1,2l4.53,7.89a.75.75,0,0,1,.09.33.67.67,0,0,1-.66.66h-1.29a1.17,1.17,0,0,1-.88-.3,2.8,2.8,0,0,1-.41-.51l-4.35-7.65h-5.16v7.65a.82.82,0,0,1-.81.81h-1.23a.82.82,0,0,1-.81-.81V764a.82.82,0,0,1,.81-.81ZM981.78,773h5.07a5.64,5.64,0,0,0,3.35-.85,3.19,3.19,0,0,0,1.18-2.77,3,3,0,0,0-1.18-2.71,6,6,0,0,0-3.35-.79h-5.07Z" fill="#fff"/><path d="M1011.78,763.19a.82.82,0,0,1,.81.81v1.08a.82.82,0,0,1-.81.81h-5.61v17.49a.82.82,0,0,1-.81.81h-1.23a.82.82,0,0,1-.81-.81V765.89h-5.61a.82.82,0,0,1-.81-.81V764a.82.82,0,0,1,.81-.81Z" fill="#fff"/><path d="M1017.27,784.19a.82.82,0,0,1-.81-.81V764a.82.82,0,0,1,.81-.81h1.23a.82.82,0,0,1,.81.81v19.38a.82.82,0,0,1-.81.81Z" fill="#fff"/><path d="M1031.52,762.89a8.48,8.48,0,0,1,3.23.57,8.79,8.79,0,0,1,2.37,1.4,6.21,6.21,0,0,1,1.48,1.77,4,4,0,0,1,.54,1.69.53.53,0,0,1-.18.47.69.69,0,0,1-.48.19h-1.23a1,1,0,0,1-.52-.12,1.32,1.32,0,0,1-.4-.54,5.64,5.64,0,0,0-.5-.76,4.46,4.46,0,0,0-.93-.9,5.79,5.79,0,0,0-1.42-.75,5.54,5.54,0,0,0-2-.31,6.48,6.48,0,0,0-1.6.2,4.55,4.55,0,0,0-1.36.58,3.07,3.07,0,0,0-1,1,2.55,2.55,0,0,0-.36,1.37,2.4,2.4,0,0,0,.34,1.32,3.08,3.08,0,0,0,1.11,1,9.76,9.76,0,0,0,1.94.79q1.17.36,2.85.81a18.28,18.28,0,0,1,2.9,1,7.55,7.55,0,0,1,1.94,1.21,4.08,4.08,0,0,1,1.09,1.56,5.46,5.46,0,0,1,.35,2,5.28,5.28,0,0,1-.58,2.47,5.82,5.82,0,0,1-1.64,1.94A7.83,7.83,0,0,1,1035,784a11.42,11.42,0,0,1-3.31.45,9.73,9.73,0,0,1-3.21-.51,8.82,8.82,0,0,1-2.52-1.32,6.84,6.84,0,0,1-1.67-1.8,3.91,3.91,0,0,1-.65-1.95.67.67,0,0,1,.66-.66h1.23a1.1,1.1,0,0,1,.53.12,1.06,1.06,0,0,1,.4.54,4.43,4.43,0,0,0,.56.91,4.31,4.31,0,0,0,1,.93,6,6,0,0,0,1.53.73,6.75,6.75,0,0,0,2.13.3,8,8,0,0,0,2-.24,5.8,5.8,0,0,0,1.67-.69,3.7,3.7,0,0,0,1.14-1.08,2.49,2.49,0,0,0,.42-1.41,2,2,0,0,0-.48-1.33,4.41,4.41,0,0,0-1.38-1,13,13,0,0,0-2.21-.82q-1.31-.37-3-.79a11.82,11.82,0,0,1-2.55-.95,6.24,6.24,0,0,1-1.71-1.27,4.33,4.33,0,0,1-.95-1.59,6,6,0,0,1-.28-1.89,5.44,5.44,0,0,1,.45-2.16,5.38,5.38,0,0,1,1.33-1.86,6.69,6.69,0,0,1,2.22-1.31A9,9,0,0,1,1031.52,762.89Z" fill="#fff"/><path d="M1057.14,781.49a.82.82,0,0,1,.81.81v1.08a.82.82,0,0,1-.81.81H1045a.82.82,0,0,1-.81-.81V764a.82.82,0,0,1,.81-.81h11.88a.82.82,0,0,1,.81.81v1.08a.82.82,0,0,1-.81.81h-9.84v6.33h9.18a.82.82,0,0,1,.81.81v1.08a.82.82,0,0,1-.81.81h-9.18v6.57Z" fill="#fff"/><path d="M1504.34,710.19a.82.82,0,0,1-.81-.81V690a.82.82,0,0,1,.81-.81h8a7.56,7.56,0,0,1,3.18.58,6,6,0,0,1,2,1.44,5.17,5.17,0,0,1,1.06,1.85,5.91,5.91,0,0,1,.31,1.77,4.72,4.72,0,0,1-.3,1.74,5,5,0,0,1-.7,1.26,4.39,4.39,0,0,1-.8.81l-.58.42a7.54,7.54,0,0,1,2,2.05,5.24,5.24,0,0,1,.85,3,6.07,6.07,0,0,1-.42,2.22,5.94,5.94,0,0,1-1.25,2,6,6,0,0,1-2.07,1.4,7.35,7.35,0,0,1-2.87.52Zm2-18.3V698h5.7a4.87,4.87,0,0,0,3-.78,3,3,0,0,0,0-4.5,4.87,4.87,0,0,0-3-.78Zm0,8.76v6.84h6.14a5.29,5.29,0,0,0,1.76-.27,3.57,3.57,0,0,0,1.28-.75,3.18,3.18,0,0,0,.77-1.08,3.25,3.25,0,0,0,.26-1.29,3.59,3.59,0,0,0-.24-1.29,3,3,0,0,0-.74-1.11,3.6,3.6,0,0,0-1.26-.76,5.23,5.23,0,0,0-1.82-.29Z" fill="#fff"/><path d="M1532.21,689.19a10.4,10.4,0,0,1,2.77.36,6.72,6.72,0,0,1,2.3,1.11,5.39,5.39,0,0,1,1.57,1.92,6.25,6.25,0,0,1,.58,2.82,5.81,5.81,0,0,1-1.21,3.87,6.57,6.57,0,0,1-3.1,2l4.53,7.89a.75.75,0,0,1,.09.33.67.67,0,0,1-.66.66h-1.29a1.17,1.17,0,0,1-.88-.3,2.8,2.8,0,0,1-.41-.51l-4.35-7.65H1527v7.65a.82.82,0,0,1-.81.81h-1.23a.82.82,0,0,1-.81-.81V690a.82.82,0,0,1,.81-.81ZM1527,699h5.07a5.64,5.64,0,0,0,3.35-.85,3.19,3.19,0,0,0,1.18-2.77,3,3,0,0,0-1.18-2.71,6,6,0,0,0-3.35-.79H1527Z" fill="#fff"/><path d="M1557.08,705.45h-10.41l-1.56,4a1.52,1.52,0,0,1-.33.5,1.13,1.13,0,0,1-.84.25h-1.11a.67.67,0,0,1-.66-.66,1.14,1.14,0,0,1,.12-.42l7.35-18.93a2.57,2.57,0,0,1,.45-.66,1.16,1.16,0,0,1,.9-.33h1.8a1.16,1.16,0,0,1,.9.33,2.61,2.61,0,0,1,.45.66l7.32,18.93a1.15,1.15,0,0,1,.12.42.67.67,0,0,1-.66.66h-1.11a1.13,1.13,0,0,1-.84-.25,1.51,1.51,0,0,1-.33-.5Zm-9.36-2.7H1556L1551.89,692Z" fill="#fff"/><path d="M1579.07,710.19a1,1,0,0,1-.71-.29,3.56,3.56,0,0,1-.49-.61l-9.75-14.67v14.76a.82.82,0,0,1-.81.81h-1.23a.82.82,0,0,1-.81-.81V690a.82.82,0,0,1,.81-.81h1a1,1,0,0,1,.71.29,3.62,3.62,0,0,1,.5.61l9.75,14.67V690a.82.82,0,0,1,.81-.81h1.23a.82.82,0,0,1,.81.81v19.38a.82.82,0,0,1-.81.81Z" fill="#fff"/><path d="M1603,697.32q0,1.35,0,2.37t0,2.37a9.19,9.19,0,0,1-.66,3.4,7.38,7.38,0,0,1-1.74,2.56,7.51,7.51,0,0,1-2.64,1.6,9.87,9.87,0,0,1-3.39.56h-7a.82.82,0,0,1-.81-.81V690a.82.82,0,0,1,.81-.81h6.87a10.26,10.26,0,0,1,3.44.56,7.76,7.76,0,0,1,2.72,1.6,7.36,7.36,0,0,1,1.78,2.56A9,9,0,0,1,1603,697.32Zm-2.85.15a7.65,7.65,0,0,0-.35-2.08,4.72,4.72,0,0,0-2.8-3,7.08,7.08,0,0,0-2.73-.46h-4.71v15.6h4.86a7,7,0,0,0,2.71-.46,4.6,4.6,0,0,0,1.75-1.25,4.73,4.73,0,0,0,.95-1.78,8.48,8.48,0,0,0,.31-2.08q0-.66,0-1.19t0-1q0-.5,0-1T1600.13,697.47Z" fill="#fff"/><path d="M1616.66,710.19a.82.82,0,0,1-.81-.81V690a.82.82,0,0,1,.81-.81h8a7.56,7.56,0,0,1,3.18.58,6,6,0,0,1,2,1.44,5.17,5.17,0,0,1,1.06,1.85,5.91,5.91,0,0,1,.31,1.77,4.72,4.72,0,0,1-.3,1.74,5,5,0,0,1-.7,1.26,4.39,4.39,0,0,1-.8.81l-.58.42a7.54,7.54,0,0,1,2,2.05,5.24,5.24,0,0,1,.85,3,6.07,6.07,0,0,1-.42,2.22,5.94,5.94,0,0,1-1.25,2,6,6,0,0,1-2.07,1.4,7.35,7.35,0,0,1-2.87.52Zm2-18.3V698h5.7a4.87,4.87,0,0,0,3-.78,3,3,0,0,0,0-4.5,4.87,4.87,0,0,0-3-.78Zm0,8.76v6.84h6.14a5.29,5.29,0,0,0,1.76-.27,3.57,3.57,0,0,0,1.28-.75,3.18,3.18,0,0,0,.77-1.08,3.25,3.25,0,0,0,.26-1.29,3.59,3.59,0,0,0-.24-1.29,3,3,0,0,0-.74-1.11,3.6,3.6,0,0,0-1.26-.76,5.23,5.23,0,0,0-1.82-.29Z" fill="#fff"/><path d="M1651.61,689.19a.82.82,0,0,1,.81.81v12a11.79,11.79,0,0,1-.46,3.4,7.33,7.33,0,0,1-1.44,2.69,6.47,6.47,0,0,1-2.5,1.77,11,11,0,0,1-7.35,0,6.47,6.47,0,0,1-2.5-1.77,7.14,7.14,0,0,1-1.42-2.69,12.13,12.13,0,0,1-.45-3.4V690a.82.82,0,0,1,.81-.81h1.23a.82.82,0,0,1,.81.81v12.15a6.06,6.06,0,0,0,1.38,4.37,5.91,5.91,0,0,0,7.7,0,6,6,0,0,0,1.4-4.37V690a.82.82,0,0,1,.81-.81Z" fill="#fff"/><path d="M1658.8,710.19a.82.82,0,0,1-.81-.81V690a.82.82,0,0,1,.81-.81H1660a.82.82,0,0,1,.81.81v19.38a.82.82,0,0,1-.81.81Z" fill="#fff"/><path d="M1679.62,707.49a.82.82,0,0,1,.81.81v1.08a.82.82,0,0,1-.81.81h-12.21a.82.82,0,0,1-.81-.81V690a.82.82,0,0,1,.81-.81h1.23a.82.82,0,0,1,.81.81v17.49Z" fill="#fff"/><path d="M1700.47,697.32q0,1.35,0,2.37t0,2.37a9.19,9.19,0,0,1-.66,3.4,7.38,7.38,0,0,1-1.74,2.56,7.51,7.51,0,0,1-2.64,1.6,9.87,9.87,0,0,1-3.39.56h-7a.82.82,0,0,1-.81-.81V690a.82.82,0,0,1,.81-.81h6.87a10.26,10.26,0,0,1,3.44.56,7.76,7.76,0,0,1,2.72,1.6,7.36,7.36,0,0,1,1.78,2.56A9,9,0,0,1,1700.47,697.32Zm-2.85.15a7.65,7.65,0,0,0-.35-2.08,4.72,4.72,0,0,0-2.8-3,7.08,7.08,0,0,0-2.73-.46H1687v15.6h4.86a7,7,0,0,0,2.71-.46,4.6,4.6,0,0,0,1.75-1.25,4.73,4.73,0,0,0,.95-1.78,8.48,8.48,0,0,0,.31-2.08q0-.66,0-1.19t0-1q0-.5,0-1T1697.62,697.47Z" fill="#fff"/><path d="M1706.23,710.19a.82.82,0,0,1-.81-.81V690a.82.82,0,0,1,.81-.81h1.23a.82.82,0,0,1,.81.81v19.38a.82.82,0,0,1-.81.81Z" fill="#fff"/><path d="M1727.83,710.19a1,1,0,0,1-.71-.29,3.56,3.56,0,0,1-.49-.61l-9.75-14.67v14.76a.82.82,0,0,1-.81.81h-1.23a.82.82,0,0,1-.81-.81V690a.82.82,0,0,1,.81-.81h1a1,1,0,0,1,.71.29,3.62,3.62,0,0,1,.5.61l9.75,14.67V690a.82.82,0,0,1,.81-.81h1.23a.82.82,0,0,1,.81.81v19.38a.82.82,0,0,1-.81.81Z" fill="#fff"/><path d="M1734.67,697a10.34,10.34,0,0,1,.58-3.12,7.16,7.16,0,0,1,1.59-2.58,7.39,7.39,0,0,1,2.65-1.74,10.16,10.16,0,0,1,3.75-.63,9.88,9.88,0,0,1,3.58.6,8.89,8.89,0,0,1,2.58,1.49,6.44,6.44,0,0,1,1.56,1.89,4.36,4.36,0,0,1,.56,1.82.53.53,0,0,1-.18.46.68.68,0,0,1-.48.19h-1.23q-.72,0-.87-.33a9.19,9.19,0,0,0-.82-1.35,4.88,4.88,0,0,0-1.1-1.08,5.19,5.19,0,0,0-1.52-.72,7.87,7.87,0,0,0-4.35.08,4.88,4.88,0,0,0-1.79,1,5,5,0,0,0-1.2,1.73,6.38,6.38,0,0,0-.48,2.42q-.06,1.35-.06,2.49t.06,2.49a6.9,6.9,0,0,0,.48,2.52,5.1,5.1,0,0,0,1.2,1.79,4.75,4.75,0,0,0,1.79,1,7.11,7.11,0,0,0,2.26.35,8.15,8.15,0,0,0,2.25-.3,4.75,4.75,0,0,0,1.83-1,4.49,4.49,0,0,0,1.21-1.76,7.08,7.08,0,0,0,.44-2.64v-.84h-4.32a.82.82,0,0,1-.81-.81v-1.08a.82.82,0,0,1,.81-.81H1751a.82.82,0,0,1,.81.81v2.85a9.36,9.36,0,0,1-.57,3.32,7.26,7.26,0,0,1-1.67,2.61,7.61,7.61,0,0,1-2.7,1.71,10.14,10.14,0,0,1-3.65.61,9.94,9.94,0,0,1-3.75-.65,7.18,7.18,0,0,1-4.23-4.36,10.59,10.59,0,0,1-.6-3.24Q1734.58,699.6,1734.67,697Z" fill="#fff"/><path d="M1563,744.49a.82.82,0,0,1,.81.81v1.08a.82.82,0,0,1-.81.81h-12.12a.82.82,0,0,1-.81-.81V727a.82.82,0,0,1,.81-.81h11.88a.82.82,0,0,1,.81.81v1.08a.82.82,0,0,1-.81.81H1553v6.33h9.18a.82.82,0,0,1,.81.81v1.08a.82.82,0,0,1-.81.81H1553v6.57Z" fill="#fff"/><path d="M1575.39,738.76l-5.64,7.74-.39.44a1.13,1.13,0,0,1-.84.25h-1.29a.67.67,0,0,1-.66-.66.68.68,0,0,1,0-.13.83.83,0,0,1,.07-.2l7.08-9.72-6.78-9.3a.75.75,0,0,1-.09-.33.67.67,0,0,1,.66-.66h1.41a1.12,1.12,0,0,1,.87.3l.39.45,5.34,7.32,5.22-7.29.39-.46a1.09,1.09,0,0,1,.87-.31h1.29a.67.67,0,0,1,.66.66.75.75,0,0,1-.09.33l-6.69,9.36,7,9.66a.86.86,0,0,1,.08.2.72.72,0,0,1,0,.13.67.67,0,0,1-.66.66h-1.41a1.12,1.12,0,0,1-.84-.25l-.39-.44Z" fill="#fff"/><path d="M1596.57,726.19a10,10,0,0,1,2.77.38,6.63,6.63,0,0,1,2.29,1.15,5.62,5.62,0,0,1,1.58,2,6.45,6.45,0,0,1,.58,2.85,6.55,6.55,0,0,1-.58,2.87,5.86,5.86,0,0,1-1.58,2,6.53,6.53,0,0,1-2.29,1.2,9.65,9.65,0,0,1-2.77.39h-5.52v7.35a.82.82,0,0,1-.81.81H1589a.82.82,0,0,1-.81-.81V727a.82.82,0,0,1,.81-.81Zm-5.52,10.14h5.37a5.3,5.3,0,0,0,3.35-.93,3.4,3.4,0,0,0,1.19-2.85,3.23,3.23,0,0,0-1.19-2.79,5.58,5.58,0,0,0-3.35-.87h-5.37Z" fill="#fff"/><path d="M1620.93,744.49a.82.82,0,0,1,.81.81v1.08a.82.82,0,0,1-.81.81h-12.12a.82.82,0,0,1-.81-.81V727a.82.82,0,0,1,.81-.81h11.88a.82.82,0,0,1,.81.81v1.08a.82.82,0,0,1-.81.81h-9.84v6.33H1620a.82.82,0,0,1,.81.81v1.08a.82.82,0,0,1-.81.81h-9.18v6.57Z" fill="#fff"/><path d="M1634.43,726.19a10.4,10.4,0,0,1,2.77.36,6.72,6.72,0,0,1,2.3,1.11,5.39,5.39,0,0,1,1.57,1.92,6.25,6.25,0,0,1,.58,2.82,5.81,5.81,0,0,1-1.21,3.87,6.57,6.57,0,0,1-3.1,2l4.53,7.89a.75.75,0,0,1,.09.33.67.67,0,0,1-.66.66H1640a1.17,1.17,0,0,1-.88-.3,2.8,2.8,0,0,1-.41-.51l-4.35-7.65h-5.16v7.65a.82.82,0,0,1-.81.81h-1.23a.82.82,0,0,1-.81-.81V727a.82.82,0,0,1,.81-.81Zm-5.22,9.84h5.07a5.64,5.64,0,0,0,3.35-.85,3.19,3.19,0,0,0,1.18-2.77,3,3,0,0,0-1.18-2.71,6,6,0,0,0-3.35-.79h-5.07Z" fill="#fff"/><path d="M1659.21,726.19a.82.82,0,0,1,.81.81v1.08a.82.82,0,0,1-.81.81h-5.61v17.49a.82.82,0,0,1-.81.81h-1.23a.82.82,0,0,1-.81-.81V728.89h-5.61a.82.82,0,0,1-.81-.81V727a.82.82,0,0,1,.81-.81Z" fill="#fff"/><path d="M1664.7,747.19a.82.82,0,0,1-.81-.81V727a.82.82,0,0,1,.81-.81h1.23a.82.82,0,0,1,.81.81v19.38a.82.82,0,0,1-.81.81Z" fill="#fff"/><path d="M1678.95,725.89a8.48,8.48,0,0,1,3.23.57,8.79,8.79,0,0,1,2.37,1.4,6.21,6.21,0,0,1,1.48,1.77,4,4,0,0,1,.54,1.69.53.53,0,0,1-.18.47.69.69,0,0,1-.48.19h-1.23a1,1,0,0,1-.52-.12,1.32,1.32,0,0,1-.4-.54,5.64,5.64,0,0,0-.5-.76,4.46,4.46,0,0,0-.93-.9,5.79,5.79,0,0,0-1.42-.75,5.54,5.54,0,0,0-2-.31,6.48,6.48,0,0,0-1.6.2,4.55,4.55,0,0,0-1.36.58,3.07,3.07,0,0,0-1,1,2.55,2.55,0,0,0-.36,1.37A2.4,2.4,0,0,0,1675,733a3.08,3.08,0,0,0,1.11,1,9.76,9.76,0,0,0,1.94.79q1.17.36,2.85.81a18.28,18.28,0,0,1,2.9,1,7.55,7.55,0,0,1,1.94,1.21,4.08,4.08,0,0,1,1.09,1.56,5.46,5.46,0,0,1,.35,2,5.28,5.28,0,0,1-.58,2.47,5.82,5.82,0,0,1-1.64,1.94,7.83,7.83,0,0,1-2.53,1.26,11.42,11.42,0,0,1-3.31.45,9.73,9.73,0,0,1-3.21-.51,8.82,8.82,0,0,1-2.52-1.32,6.84,6.84,0,0,1-1.67-1.8,3.91,3.91,0,0,1-.65-1.95.67.67,0,0,1,.66-.66h1.23a1.1,1.1,0,0,1,.53.12,1.06,1.06,0,0,1,.4.54,4.43,4.43,0,0,0,.56.91,4.31,4.31,0,0,0,1,.93,6,6,0,0,0,1.53.73,6.75,6.75,0,0,0,2.13.3,8,8,0,0,0,2-.24,5.8,5.8,0,0,0,1.67-.69,3.7,3.7,0,0,0,1.14-1.08,2.49,2.49,0,0,0,.42-1.41,2,2,0,0,0-.48-1.33,4.41,4.41,0,0,0-1.38-1,13,13,0,0,0-2.21-.82q-1.31-.37-3-.79a11.82,11.82,0,0,1-2.55-.95,6.24,6.24,0,0,1-1.71-1.27,4.33,4.33,0,0,1-.95-1.59,6,6,0,0,1-.28-1.89,5.44,5.44,0,0,1,.45-2.16,5.38,5.38,0,0,1,1.33-1.86,6.69,6.69,0,0,1,2.22-1.31A9,9,0,0,1,1678.95,725.89Z" fill="#fff"/><path d="M1704.57,744.49a.82.82,0,0,1,.81.81v1.08a.82.82,0,0,1-.81.81h-12.12a.82.82,0,0,1-.81-.81V727a.82.82,0,0,1,.81-.81h11.88a.82.82,0,0,1,.81.81v1.08a.82.82,0,0,1-.81.81h-9.84v6.33h9.18a.82.82,0,0,1,.81.81v1.08a.82.82,0,0,1-.81.81h-9.18v6.57Z" fill="#fff"/><line x1="1911.58" y1="827.14" x2="1911.58" y2="989.1"/><rect x="1910.58" y="827.14" width="2" height="161.97" fill="#fff"/><path d="M1308,988.64" stroke="#fff" stroke-miterlimit="10" stroke-width="2"/><path d="M2215.23,826.67" stroke="#fff" stroke-miterlimit="10" stroke-width="2"/><path d="M1862.65,689.19a10,10,0,0,1,2.77.38,6.63,6.63,0,0,1,2.29,1.15,5.62,5.62,0,0,1,1.58,2,6.45,6.45,0,0,1,.58,2.85,6.55,6.55,0,0,1-.58,2.87,5.86,5.86,0,0,1-1.58,2,6.53,6.53,0,0,1-2.29,1.2,9.65,9.65,0,0,1-2.77.39h-5.52v7.35a.82.82,0,0,1-.81.81h-1.23a.82.82,0,0,1-.81-.81V690a.82.82,0,0,1,.81-.81Zm-5.52,10.14h5.37a5.3,5.3,0,0,0,3.35-.93,3.4,3.4,0,0,0,1.19-2.85,3.23,3.23,0,0,0-1.19-2.79,5.58,5.58,0,0,0-3.35-.87h-5.37Z" fill="#fff"/><path d="M1885.66,705.45h-10.41l-1.56,4a1.52,1.52,0,0,1-.33.5,1.13,1.13,0,0,1-.84.25h-1.11a.67.67,0,0,1-.66-.66,1.14,1.14,0,0,1,.12-.42l7.35-18.93a2.57,2.57,0,0,1,.45-.66,1.16,1.16,0,0,1,.9-.33h1.8a1.16,1.16,0,0,1,.9.33,2.61,2.61,0,0,1,.45.66l7.32,18.93a1.15,1.15,0,0,1,.12.42.67.67,0,0,1-.66.66h-1.11a1.13,1.13,0,0,1-.84-.25,1.51,1.51,0,0,1-.33-.5Zm-9.36-2.7h8.31L1880.47,692Z" fill="#fff"/><path d="M1904.68,689.19a.82.82,0,0,1,.81.81v1.08a.82.82,0,0,1-.81.81h-5.61v17.49a.82.82,0,0,1-.81.81H1897a.82.82,0,0,1-.81-.81V691.89h-5.61a.82.82,0,0,1-.81-.81V690a.82.82,0,0,1,.81-.81Z" fill="#fff"/><path d="M1910.17,710.19a.82.82,0,0,1-.81-.81V690a.82.82,0,0,1,.81-.81h1.23a.82.82,0,0,1,.81.81v19.38a.82.82,0,0,1-.81.81Z" fill="#fff"/><path d="M1930.9,707.49a.82.82,0,0,1,.81.81v1.08a.82.82,0,0,1-.81.81h-12.12a.82.82,0,0,1-.81-.81V690a.82.82,0,0,1,.81-.81h11.88a.82.82,0,0,1,.81.81v1.08a.82.82,0,0,1-.81.81h-9.84v6.33H1930a.82.82,0,0,1,.81.81v1.08a.82.82,0,0,1-.81.81h-9.18v6.57Z" fill="#fff"/><path d="M1950.13,710.19a1,1,0,0,1-.71-.29,3.56,3.56,0,0,1-.49-.61l-9.75-14.67v14.76a.82.82,0,0,1-.81.81h-1.23a.82.82,0,0,1-.81-.81V690a.82.82,0,0,1,.81-.81h1a1,1,0,0,1,.71.29,3.62,3.62,0,0,1,.5.61l9.75,14.67V690a.82.82,0,0,1,.81-.81h1.23a.82.82,0,0,1,.81.81v19.38a.82.82,0,0,1-.81.81Z" fill="#fff"/><path d="M1970.74,689.19a.82.82,0,0,1,.81.81v1.08a.82.82,0,0,1-.81.81h-5.61v17.49a.82.82,0,0,1-.81.81h-1.23a.82.82,0,0,1-.81-.81V691.89h-5.61a.82.82,0,0,1-.81-.81V690a.82.82,0,0,1,.81-.81Z" fill="#fff"/><path d="M1850.73,734a10.34,10.34,0,0,1,.58-3.12,7.16,7.16,0,0,1,1.59-2.58,7.39,7.39,0,0,1,2.65-1.74,10.16,10.16,0,0,1,3.75-.63,9.88,9.88,0,0,1,3.58.6,8.89,8.89,0,0,1,2.58,1.49,6.44,6.44,0,0,1,1.56,1.89,4.36,4.36,0,0,1,.56,1.82.53.53,0,0,1-.18.46.68.68,0,0,1-.48.19h-1.23q-.72,0-.87-.33a9.19,9.19,0,0,0-.82-1.35,4.88,4.88,0,0,0-1.1-1.08,5.19,5.19,0,0,0-1.52-.72,7.87,7.87,0,0,0-4.35.08,4.88,4.88,0,0,0-1.79,1,5,5,0,0,0-1.2,1.73,6.38,6.38,0,0,0-.48,2.42q-.06,1.35-.06,2.49t.06,2.49a6.9,6.9,0,0,0,.48,2.52,5.1,5.1,0,0,0,1.2,1.79,4.75,4.75,0,0,0,1.79,1,7.11,7.11,0,0,0,2.26.35,8.15,8.15,0,0,0,2.25-.3,4.75,4.75,0,0,0,1.83-1,4.49,4.49,0,0,0,1.21-1.76,7.08,7.08,0,0,0,.44-2.64v-.84h-4.32a.82.82,0,0,1-.81-.81v-1.08a.82.82,0,0,1,.81-.81h6.36a.82.82,0,0,1,.81.81v2.85a9.36,9.36,0,0,1-.57,3.32,7.26,7.26,0,0,1-1.67,2.61,7.61,7.61,0,0,1-2.7,1.71,10.14,10.14,0,0,1-3.65.61,9.94,9.94,0,0,1-3.75-.65,7.18,7.18,0,0,1-4.23-4.36,10.59,10.59,0,0,1-.6-3.24Q1850.64,736.6,1850.73,734Z" fill="#fff"/><path d="M1880.7,726.19a10.4,10.4,0,0,1,2.77.36,6.72,6.72,0,0,1,2.3,1.11,5.39,5.39,0,0,1,1.57,1.92,6.25,6.25,0,0,1,.58,2.82,5.81,5.81,0,0,1-1.21,3.87,6.57,6.57,0,0,1-3.1,2l4.53,7.89a.75.75,0,0,1,.09.33.67.67,0,0,1-.66.66h-1.29a1.17,1.17,0,0,1-.88-.3,2.8,2.8,0,0,1-.41-.51l-4.35-7.65h-5.16v7.65a.82.82,0,0,1-.81.81h-1.23a.82.82,0,0,1-.81-.81V727a.82.82,0,0,1,.81-.81Zm-5.22,9.84h5.07a5.64,5.64,0,0,0,3.35-.85,3.19,3.19,0,0,0,1.18-2.77,3,3,0,0,0-1.18-2.71,6,6,0,0,0-3.35-.79h-5.07Z" fill="#fff"/><path d="M1892,734a9.45,9.45,0,0,1,.58-3.17,7.44,7.44,0,0,1,1.61-2.58,7.62,7.62,0,0,1,2.58-1.74,9.87,9.87,0,0,1,7,0,7.63,7.63,0,0,1,2.58,1.74,7.46,7.46,0,0,1,1.6,2.58,9.45,9.45,0,0,1,.58,3.17q.09,2.67,0,5.34a10,10,0,0,1-.61,3.17,7.62,7.62,0,0,1-1.6,2.6,7.39,7.39,0,0,1-2.56,1.74,10,10,0,0,1-7,0,7.37,7.37,0,0,1-2.56-1.74,7.59,7.59,0,0,1-1.6-2.6,10,10,0,0,1-.62-3.17Q1891.89,736.69,1892,734Zm13.71.15a7.75,7.75,0,0,0-.46-2.46,4.73,4.73,0,0,0-1.12-1.74,4.68,4.68,0,0,0-1.69-1,6.84,6.84,0,0,0-4.29,0,4.67,4.67,0,0,0-1.69,1,4.88,4.88,0,0,0-1.14,1.74,7,7,0,0,0-.45,2.46q-.06,1.35-.06,2.52t.06,2.52a7,7,0,0,0,.45,2.46,4.87,4.87,0,0,0,1.14,1.74,4.66,4.66,0,0,0,1.69,1,6.84,6.84,0,0,0,4.29,0,4.66,4.66,0,0,0,1.69-1,4.72,4.72,0,0,0,1.13-1.74,7.74,7.74,0,0,0,.46-2.46q.06-1.35.06-2.52T1905.69,734.17Z" fill="#fff"/><path d="M1923.93,731.17a2.27,2.27,0,0,1,.27.54l3.3,11.88,3.06-16.59a.93.93,0,0,1,.36-.63,1,1,0,0,1,.57-.18h1.2a.67.67,0,0,1,.66.66,1.29,1.29,0,0,1,0,.24l-3.69,18.54a2.91,2.91,0,0,1-.45,1.16,1.19,1.19,0,0,1-1,.4H1927a1.2,1.2,0,0,1-1-.44,3.15,3.15,0,0,1-.51-1.12l-2.76-10-2.76,10a3.16,3.16,0,0,1-.51,1.13,1.2,1.2,0,0,1-1,.44h-1.2a1.19,1.19,0,0,1-1-.4,2.9,2.9,0,0,1-.45-1.16L1912,727.09a1.28,1.28,0,0,1,0-.24.67.67,0,0,1,.66-.66h1.2a1,1,0,0,1,.57.18.93.93,0,0,1,.36.63l3.06,16.59,3.3-11.88a2.22,2.22,0,0,1,.27-.54.82.82,0,0,1,.75-.33h1A.82.82,0,0,1,1923.93,731.17Z" fill="#fff"/><path d="M1950.72,726.19a.82.82,0,0,1,.81.81v1.08a.82.82,0,0,1-.81.81h-5.61v17.49a.82.82,0,0,1-.81.81h-1.23a.82.82,0,0,1-.81-.81V728.89h-5.61a.82.82,0,0,1-.81-.81V727a.82.82,0,0,1,.81-.81Z" fill="#fff"/><path d="M1970.85,726.19a.82.82,0,0,1,.81.81v19.38a.82.82,0,0,1-.81.81h-1.23a.82.82,0,0,1-.81-.81v-8.46h-10.56v8.46a.82.82,0,0,1-.81.81h-1.23a.81.81,0,0,1-.57-.23.76.76,0,0,1-.24-.58V727a.82.82,0,0,1,.81-.81h1.23a.82.82,0,0,1,.81.81v8.22h10.56V727a.82.82,0,0,1,.81-.81Z" fill="#fff"/><path d="M2112.57,707.49a.82.82,0,0,1,.81.81v1.08a.82.82,0,0,1-.81.81h-12.21a.82.82,0,0,1-.81-.81V690a.82.82,0,0,1,.81-.81h1.23a.82.82,0,0,1,.81.81v17.49Z" fill="#fff"/><path d="M2130.06,707.49a.82.82,0,0,1,.81.81v1.08a.82.82,0,0,1-.81.81h-12.12a.82.82,0,0,1-.81-.81V690a.82.82,0,0,1,.81-.81h11.88a.82.82,0,0,1,.81.81v1.08a.82.82,0,0,1-.81.81H2120v6.33h9.18a.82.82,0,0,1,.81.81v1.08a.82.82,0,0,1-.81.81H2120v6.57Z" fill="#fff"/><path d="M2134.5,697a10.34,10.34,0,0,1,.58-3.12,7.16,7.16,0,0,1,1.59-2.58,7.39,7.39,0,0,1,2.65-1.74,10.16,10.16,0,0,1,3.75-.63,9.88,9.88,0,0,1,3.58.6,8.89,8.89,0,0,1,2.58,1.49,6.44,6.44,0,0,1,1.56,1.89,4.36,4.36,0,0,1,.56,1.82.53.53,0,0,1-.18.46.68.68,0,0,1-.48.19h-1.23q-.72,0-.87-.33a9.19,9.19,0,0,0-.82-1.35,4.88,4.88,0,0,0-1.1-1.08,5.19,5.19,0,0,0-1.52-.72,7.87,7.87,0,0,0-4.35.08,4.88,4.88,0,0,0-1.79,1,5,5,0,0,0-1.2,1.73,6.38,6.38,0,0,0-.48,2.42q-.06,1.35-.06,2.49t.06,2.49a6.9,6.9,0,0,0,.48,2.52,5.1,5.1,0,0,0,1.2,1.79,4.75,4.75,0,0,0,1.79,1,7.11,7.11,0,0,0,2.26.35,8.15,8.15,0,0,0,2.25-.3,4.75,4.75,0,0,0,1.83-1,4.49,4.49,0,0,0,1.21-1.76,7.08,7.08,0,0,0,.44-2.64v-.84h-4.32a.82.82,0,0,1-.81-.81v-1.08a.82.82,0,0,1,.81-.81h6.36a.82.82,0,0,1,.81.81v2.85a9.36,9.36,0,0,1-.57,3.32,7.26,7.26,0,0,1-1.67,2.61,7.61,7.61,0,0,1-2.7,1.71,10.14,10.14,0,0,1-3.65.61,9.94,9.94,0,0,1-3.75-.65,7.18,7.18,0,0,1-4.23-4.36,10.59,10.59,0,0,1-.6-3.24Q2134.41,699.6,2134.5,697Z" fill="#fff"/><path d="M2168.85,705.45h-10.41l-1.56,4a1.52,1.52,0,0,1-.33.5,1.13,1.13,0,0,1-.84.25h-1.11a.67.67,0,0,1-.66-.66,1.14,1.14,0,0,1,.12-.42l7.35-18.93a2.57,2.57,0,0,1,.45-.66,1.16,1.16,0,0,1,.9-.33h1.8a1.16,1.16,0,0,1,.9.33,2.61,2.61,0,0,1,.45.66l7.32,18.93a1.15,1.15,0,0,1,.12.42.67.67,0,0,1-.66.66h-1.11a1.13,1.13,0,0,1-.84-.25,1.51,1.51,0,0,1-.33-.5Zm-9.36-2.7h8.31L2163.66,692Z" fill="#fff"/><path d="M2190.06,707.49a.82.82,0,0,1,.81.81v1.08a.82.82,0,0,1-.81.81h-12.21a.82.82,0,0,1-.81-.81V690a.82.82,0,0,1,.81-.81h1.23a.82.82,0,0,1,.81.81v17.49Z" fill="#fff"/><path d="M2215.59,699.87a.82.82,0,0,1,.3-.47.76.76,0,0,1,.48-.19h1.38a.64.64,0,0,1,.51.21.57.57,0,0,1,.15.45,13,13,0,0,1-.57,3,11.44,11.44,0,0,1-1.65,3.34l3.12,3.06a.58.58,0,0,1,.18.42.49.49,0,0,1-.15.36.53.53,0,0,1-.39.15h-2.22a.85.85,0,0,1-.48-.1l-.27-.19-1.68-1.65a9.63,9.63,0,0,1-2.79,1.64,10,10,0,0,1-3.63.61,9.58,9.58,0,0,1-2.72-.37,6.77,6.77,0,0,1-2.22-1.09,5.17,5.17,0,0,1-1.49-1.77,5.24,5.24,0,0,1-.54-2.43,4.66,4.66,0,0,1,.34-1.81,6.53,6.53,0,0,1,.92-1.54,8.52,8.52,0,0,1,1.31-1.32A15.54,15.54,0,0,1,2205,699q-.81-.9-1.35-1.57a7.31,7.31,0,0,1-.84-1.27,4.83,4.83,0,0,1-.42-1.17,5.77,5.77,0,0,1-.12-1.2,4.18,4.18,0,0,1,.52-2.12,5.13,5.13,0,0,1,1.35-1.54,5.89,5.89,0,0,1,1.83-.94,6.55,6.55,0,0,1,2-.31,5.79,5.79,0,0,1,1.94.34,6.13,6.13,0,0,1,1.77,1,5,5,0,0,1,1.29,1.54,4.25,4.25,0,0,1,.49,2.06,5,5,0,0,1-1.08,3.17,12.38,12.38,0,0,1-2.88,2.56l4.56,4.53A14.09,14.09,0,0,0,2215.59,699.87Zm-7.71,7.92a7.21,7.21,0,0,0,2.29-.37,6.32,6.32,0,0,0,2.08-1.19L2207,701q-.63.39-1.21.82a8.52,8.52,0,0,0-1,.9,4.72,4.72,0,0,0-.73,1,2.18,2.18,0,0,0-.29,1.08,2.4,2.4,0,0,0,.38,1.35,3,3,0,0,0,1,.93,4.48,4.48,0,0,0,1.33.52A6.51,6.51,0,0,0,2207.88,707.79Zm-2.73-14a2.84,2.84,0,0,0,.12.84,3.05,3.05,0,0,0,.41.81,8.4,8.4,0,0,0,.73.92l1.08,1.16q.54-.3,1.09-.68a6.79,6.79,0,0,0,1-.82,4,4,0,0,0,.73-1,2.62,2.62,0,0,0,.29-1.22,1.83,1.83,0,0,0-.2-.79,2.36,2.36,0,0,0-.54-.72,2.93,2.93,0,0,0-.84-.52,2.7,2.7,0,0,0-1.06-.21,3.18,3.18,0,0,0-2,.65A1.94,1.94,0,0,0,2205.15,693.84Z" fill="#fff"/><path d="M2243.88,689.19a.82.82,0,0,1,.81.81v1.08a.82.82,0,0,1-.81.81H2234v6.93h9.27a.82.82,0,0,1,.81.81v1.08a.82.82,0,0,1-.81.81H2234v7.86a.82.82,0,0,1-.81.81H2232a.82.82,0,0,1-.81-.81V690a.82.82,0,0,1,.81-.81Z" fill="#fff"/><path d="M2249.88,710.19a.82.82,0,0,1-.81-.81V690a.82.82,0,0,1,.81-.81h1.23a.82.82,0,0,1,.81.81v19.38a.82.82,0,0,1-.81.81Z" fill="#fff"/><path d="M2271.48,710.19a1,1,0,0,1-.71-.29,3.56,3.56,0,0,1-.49-.61l-9.75-14.67v14.76a.82.82,0,0,1-.81.81h-1.23a.82.82,0,0,1-.81-.81V690a.82.82,0,0,1,.81-.81h1a1,1,0,0,1,.71.29,3.62,3.62,0,0,1,.5.61l9.75,14.67V690a.82.82,0,0,1,.81-.81h1.23a.82.82,0,0,1,.81.81v19.38a.82.82,0,0,1-.81.81Z" fill="#fff"/><path d="M2291.91,705.45H2281.5l-1.56,4a1.52,1.52,0,0,1-.33.5,1.13,1.13,0,0,1-.84.25h-1.11a.67.67,0,0,1-.66-.66,1.14,1.14,0,0,1,.12-.42l7.35-18.93a2.57,2.57,0,0,1,.45-.66,1.16,1.16,0,0,1,.9-.33h1.8a1.16,1.16,0,0,1,.9.33,2.61,2.61,0,0,1,.45.66l7.32,18.93a1.15,1.15,0,0,1,.12.42.67.67,0,0,1-.66.66h-1.11a1.13,1.13,0,0,1-.84-.25,1.51,1.51,0,0,1-.33-.5Zm-9.36-2.7h8.31L2286.72,692Z" fill="#fff"/><path d="M2313.9,710.19a1,1,0,0,1-.71-.29,3.56,3.56,0,0,1-.49-.61l-9.75-14.67v14.76a.82.82,0,0,1-.81.81h-1.23a.82.82,0,0,1-.81-.81V690a.82.82,0,0,1,.81-.81h1a1,1,0,0,1,.71.29,3.62,3.62,0,0,1,.5.61l9.75,14.67V690a.82.82,0,0,1,.81-.81h1.23a.82.82,0,0,1,.81.81v19.38a.82.82,0,0,1-.81.81Z" fill="#fff"/><path d="M2321.79,702.48a.82.82,0,0,1-.81-.81v-1a.82.82,0,0,1,.81-.81h8.85a.82.82,0,0,1,.81.81v1a.82.82,0,0,1-.81.81Z" fill="#fff"/><path d="M2102.76,734.17q-.06,1.35-.06,2.52t.06,2.52a6.06,6.06,0,0,0,1.52,4,5.29,5.29,0,0,0,4.09,1.54,7.16,7.16,0,0,0,2.43-.36,5.05,5.05,0,0,0,1.64-.93,4,4,0,0,0,1-1.31,7.71,7.71,0,0,0,.52-1.48.73.73,0,0,1,.3-.5.85.85,0,0,1,.48-.17h1.38a.67.67,0,0,1,.66.66,6.25,6.25,0,0,1-.51,2.16,7,7,0,0,1-1.48,2.2,8,8,0,0,1-2.58,1.73,9.51,9.51,0,0,1-3.83.69,9.27,9.27,0,0,1-3.48-.61,7.86,7.86,0,0,1-2.62-1.69,7.51,7.51,0,0,1-1.69-2.57,9.47,9.47,0,0,1-.66-3.25q-.09-2.67,0-5.34a9.54,9.54,0,0,1,.66-3.24,7.48,7.48,0,0,1,1.69-2.58,7.87,7.87,0,0,1,2.63-1.69,9.27,9.27,0,0,1,3.48-.61,9.51,9.51,0,0,1,3.83.69,8,8,0,0,1,2.58,1.73,7,7,0,0,1,1.48,2.2,6.25,6.25,0,0,1,.51,2.16.67.67,0,0,1-.66.66h-1.38a.84.84,0,0,1-.48-.17.73.73,0,0,1-.3-.5,7.74,7.74,0,0,0-.52-1.48,4,4,0,0,0-1-1.31,5.06,5.06,0,0,0-1.64-.93,7.16,7.16,0,0,0-2.43-.36,5.29,5.29,0,0,0-4.09,1.54A6.06,6.06,0,0,0,2102.76,734.17Z" fill="#fff"/><path d="M2122.11,747.19a.82.82,0,0,1-.81-.81V727a.82.82,0,0,1,.81-.81h1.23a.82.82,0,0,1,.81.81v19.38a.82.82,0,0,1-.81.81Z" fill="#fff"/><path d="M2142.72,742.45h-10.41l-1.56,4a1.52,1.52,0,0,1-.33.5,1.13,1.13,0,0,1-.84.25h-1.11a.67.67,0,0,1-.66-.66,1.14,1.14,0,0,1,.12-.42l7.35-18.93a2.57,2.57,0,0,1,.45-.66,1.16,1.16,0,0,1,.9-.33h1.8a1.16,1.16,0,0,1,.9.33,2.61,2.61,0,0,1,.45.66l7.32,18.93a1.15,1.15,0,0,1,.12.42.67.67,0,0,1-.66.66h-1.11a1.13,1.13,0,0,1-.84-.25,1.51,1.51,0,0,1-.33-.5Zm-9.36-2.7h8.31L2137.53,729Z" fill="#fff"/><path d="M2163.93,744.49a.82.82,0,0,1,.81.81v1.08a.82.82,0,0,1-.81.81h-12.21a.82.82,0,0,1-.81-.81V727a.82.82,0,0,1,.81-.81h1.23a.82.82,0,0,1,.81.81v17.49Z" fill="#fff"/><path d="M2188.56,744.49a.82.82,0,0,1,.81.81v1.08a.82.82,0,0,1-.81.81h-12.12a.82.82,0,0,1-.81-.81V727a.82.82,0,0,1,.81-.81h11.88a.82.82,0,0,1,.81.81v1.08a.82.82,0,0,1-.81.81h-9.84v6.33h9.18a.82.82,0,0,1,.81.81v1.08a.82.82,0,0,1-.81.81h-9.18v6.57Z" fill="#fff"/><path d="M2200.92,738.76l-5.64,7.74-.39.44a1.13,1.13,0,0,1-.84.25h-1.29a.67.67,0,0,1-.66-.66.68.68,0,0,1,0-.13.83.83,0,0,1,.07-.2l7.08-9.72-6.78-9.3a.75.75,0,0,1-.09-.33.67.67,0,0,1,.66-.66h1.41a1.12,1.12,0,0,1,.87.3l.39.45,5.34,7.32,5.22-7.29.39-.46a1.09,1.09,0,0,1,.87-.31h1.29a.67.67,0,0,1,.66.66.75.75,0,0,1-.09.33l-6.69,9.36,7,9.66a.86.86,0,0,1,.08.2.72.72,0,0,1,0,.13.67.67,0,0,1-.66.66h-1.41a1.12,1.12,0,0,1-.84-.25l-.39-.44Z" fill="#fff"/><path d="M2222.1,726.19a10,10,0,0,1,2.77.38,6.63,6.63,0,0,1,2.29,1.15,5.62,5.62,0,0,1,1.58,2,6.45,6.45,0,0,1,.58,2.85,6.55,6.55,0,0,1-.58,2.87,5.86,5.86,0,0,1-1.58,2,6.53,6.53,0,0,1-2.29,1.2,9.65,9.65,0,0,1-2.77.39h-5.52v7.35a.82.82,0,0,1-.81.81h-1.23a.82.82,0,0,1-.81-.81V727a.82.82,0,0,1,.81-.81Zm-5.52,10.14h5.37a5.3,5.3,0,0,0,3.35-.93,3.4,3.4,0,0,0,1.19-2.85,3.23,3.23,0,0,0-1.19-2.79,5.58,5.58,0,0,0-3.35-.87h-5.37Z" fill="#fff"/><path d="M2246.46,744.49a.82.82,0,0,1,.81.81v1.08a.82.82,0,0,1-.81.81h-12.12a.82.82,0,0,1-.81-.81V727a.82.82,0,0,1,.81-.81h11.88a.82.82,0,0,1,.81.81v1.08a.82.82,0,0,1-.81.81h-9.84v6.33h9.18a.82.82,0,0,1,.81.81v1.08a.82.82,0,0,1-.81.81h-9.18v6.57Z" fill="#fff"/><path d="M2260,726.19a10.4,10.4,0,0,1,2.77.36,6.72,6.72,0,0,1,2.3,1.11,5.39,5.39,0,0,1,1.57,1.92,6.25,6.25,0,0,1,.58,2.82,5.81,5.81,0,0,1-1.21,3.87,6.57,6.57,0,0,1-3.1,2l4.53,7.89a.75.75,0,0,1,.09.33.67.67,0,0,1-.66.66h-1.29a1.17,1.17,0,0,1-.88-.3,2.8,2.8,0,0,1-.41-.51l-4.35-7.65h-5.16v7.65a.82.82,0,0,1-.81.81h-1.23a.82.82,0,0,1-.81-.81V727a.82.82,0,0,1,.81-.81Zm-5.22,9.84h5.07a5.64,5.64,0,0,0,3.35-.85,3.19,3.19,0,0,0,1.18-2.77,3,3,0,0,0-1.18-2.71,6,6,0,0,0-3.35-.79h-5.07Z" fill="#fff"/><path d="M2284.74,726.19a.82.82,0,0,1,.81.81v1.08a.82.82,0,0,1-.81.81h-5.61v17.49a.82.82,0,0,1-.81.81h-1.23a.82.82,0,0,1-.81-.81V728.89h-5.61a.82.82,0,0,1-.81-.81V727a.82.82,0,0,1,.81-.81Z" fill="#fff"/><path d="M2290.23,747.19a.82.82,0,0,1-.81-.81V727a.82.82,0,0,1,.81-.81h1.23a.82.82,0,0,1,.81.81v19.38a.82.82,0,0,1-.81.81Z" fill="#fff"/><path d="M2304.48,725.89a8.48,8.48,0,0,1,3.23.57,8.79,8.79,0,0,1,2.37,1.4,6.21,6.21,0,0,1,1.48,1.77,4,4,0,0,1,.54,1.69.53.53,0,0,1-.18.47.69.69,0,0,1-.48.19h-1.23a1,1,0,0,1-.52-.12,1.32,1.32,0,0,1-.4-.54,5.64,5.64,0,0,0-.5-.76,4.46,4.46,0,0,0-.93-.9,5.79,5.79,0,0,0-1.42-.75,5.54,5.54,0,0,0-2-.31,6.48,6.48,0,0,0-1.6.2,4.55,4.55,0,0,0-1.36.58,3.07,3.07,0,0,0-1,1,2.55,2.55,0,0,0-.36,1.37,2.4,2.4,0,0,0,.34,1.32,3.08,3.08,0,0,0,1.11,1,9.76,9.76,0,0,0,1.94.79q1.17.36,2.85.81a18.28,18.28,0,0,1,2.9,1,7.55,7.55,0,0,1,1.94,1.21,4.08,4.08,0,0,1,1.09,1.56,5.46,5.46,0,0,1,.35,2,5.28,5.28,0,0,1-.58,2.47,5.82,5.82,0,0,1-1.64,1.94,7.83,7.83,0,0,1-2.53,1.26,11.42,11.42,0,0,1-3.31.45,9.73,9.73,0,0,1-3.21-.51,8.82,8.82,0,0,1-2.52-1.32,6.84,6.84,0,0,1-1.67-1.8,3.91,3.91,0,0,1-.65-1.95.67.67,0,0,1,.66-.66h1.23a1.1,1.1,0,0,1,.53.12,1.06,1.06,0,0,1,.4.54,4.43,4.43,0,0,0,.56.91,4.31,4.31,0,0,0,1,.93,6,6,0,0,0,1.53.73,6.75,6.75,0,0,0,2.13.3,8,8,0,0,0,2-.24,5.8,5.8,0,0,0,1.67-.69,3.7,3.7,0,0,0,1.14-1.08,2.49,2.49,0,0,0,.42-1.41,2,2,0,0,0-.48-1.33,4.41,4.41,0,0,0-1.38-1,13,13,0,0,0-2.21-.82q-1.31-.37-3-.79a11.82,11.82,0,0,1-2.55-.95,6.24,6.24,0,0,1-1.71-1.27,4.33,4.33,0,0,1-.95-1.59,6,6,0,0,1-.28-1.89,5.44,5.44,0,0,1,.45-2.16,5.38,5.38,0,0,1,1.33-1.86,6.69,6.69,0,0,1,2.22-1.31A9,9,0,0,1,2304.48,725.89Z" fill="#fff"/><path d="M2330.1,744.49a.82.82,0,0,1,.81.81v1.08a.82.82,0,0,1-.81.81H2318a.82.82,0,0,1-.81-.81V727a.82.82,0,0,1,.81-.81h11.88a.82.82,0,0,1,.81.81v1.08a.82.82,0,0,1-.81.81H2320v6.33h9.18a.82.82,0,0,1,.81.81v1.08a.82.82,0,0,1-.81.81H2320v6.57Z" fill="#fff"/><path d="M1200.84,705.45h-10.41l-1.56,4a1.52,1.52,0,0,1-.33.5,1.13,1.13,0,0,1-.84.25h-1.11a.67.67,0,0,1-.66-.66,1.14,1.14,0,0,1,.12-.42l7.35-18.93a2.57,2.57,0,0,1,.45-.66,1.16,1.16,0,0,1,.9-.33h1.8a1.16,1.16,0,0,1,.9.33,2.61,2.61,0,0,1,.45.66l7.32,18.93a1.15,1.15,0,0,1,.12.42.67.67,0,0,1-.66.66h-1.11a1.13,1.13,0,0,1-.84-.25,1.51,1.51,0,0,1-.33-.5Zm-9.36-2.7h8.31L1195.65,692Z" fill="#fff"/><path d="M1210.74,697.17q-.06,1.35-.06,2.52t.06,2.52a6.06,6.06,0,0,0,1.52,4,5.29,5.29,0,0,0,4.09,1.54,7.16,7.16,0,0,0,2.43-.36,5.05,5.05,0,0,0,1.64-.93,4,4,0,0,0,1-1.31,7.71,7.71,0,0,0,.52-1.48.73.73,0,0,1,.3-.5.85.85,0,0,1,.48-.17h1.38a.67.67,0,0,1,.66.66,6.25,6.25,0,0,1-.51,2.16,7,7,0,0,1-1.48,2.2,8,8,0,0,1-2.58,1.73,9.51,9.51,0,0,1-3.83.69,9.27,9.27,0,0,1-3.48-.61,7.87,7.87,0,0,1-2.62-1.69,7.51,7.51,0,0,1-1.69-2.57,9.47,9.47,0,0,1-.66-3.25q-.09-2.67,0-5.34a9.54,9.54,0,0,1,.66-3.24,7.48,7.48,0,0,1,1.69-2.58,7.87,7.87,0,0,1,2.63-1.69,9.27,9.27,0,0,1,3.48-.61,9.51,9.51,0,0,1,3.83.69,8,8,0,0,1,2.58,1.73,7,7,0,0,1,1.48,2.2,6.25,6.25,0,0,1,.51,2.16.67.67,0,0,1-.66.66h-1.38a.84.84,0,0,1-.48-.17.73.73,0,0,1-.3-.5,7.74,7.74,0,0,0-.52-1.48,4,4,0,0,0-1-1.31,5.06,5.06,0,0,0-1.64-.93,7.16,7.16,0,0,0-2.43-.36,5.29,5.29,0,0,0-4.09,1.54A6.06,6.06,0,0,0,1210.74,697.17Z" fill="#fff"/><path d="M1231.35,697.17q-.06,1.35-.06,2.52t.06,2.52a6.06,6.06,0,0,0,1.52,4,5.29,5.29,0,0,0,4.09,1.54,7.16,7.16,0,0,0,2.43-.36,5.05,5.05,0,0,0,1.64-.93,4,4,0,0,0,1-1.31,7.71,7.71,0,0,0,.52-1.48.73.73,0,0,1,.3-.5.85.85,0,0,1,.48-.17h1.38a.67.67,0,0,1,.66.66,6.25,6.25,0,0,1-.51,2.16,7,7,0,0,1-1.48,2.2,8,8,0,0,1-2.58,1.73,9.51,9.51,0,0,1-3.83.69,9.27,9.27,0,0,1-3.48-.61,7.86,7.86,0,0,1-2.62-1.69,7.51,7.51,0,0,1-1.69-2.57,9.47,9.47,0,0,1-.66-3.25q-.09-2.67,0-5.34a9.54,9.54,0,0,1,.66-3.24,7.48,7.48,0,0,1,1.69-2.58,7.87,7.87,0,0,1,2.63-1.69,9.27,9.27,0,0,1,3.48-.61,9.51,9.51,0,0,1,3.83.69,8,8,0,0,1,2.58,1.73,7,7,0,0,1,1.48,2.2,6.25,6.25,0,0,1,.51,2.16.67.67,0,0,1-.66.66h-1.38a.84.84,0,0,1-.48-.17.73.73,0,0,1-.3-.5,7.74,7.74,0,0,0-.52-1.48,4,4,0,0,0-1-1.31,5.06,5.06,0,0,0-1.64-.93,7.16,7.16,0,0,0-2.43-.36,5.29,5.29,0,0,0-4.09,1.54A6.06,6.06,0,0,0,1231.35,697.17Z" fill="#fff"/><path d="M1262.82,707.49a.82.82,0,0,1,.81.81v1.08a.82.82,0,0,1-.81.81H1250.7a.82.82,0,0,1-.81-.81V690a.82.82,0,0,1,.81-.81h11.88a.82.82,0,0,1,.81.81v1.08a.82.82,0,0,1-.81.81h-9.84v6.33h9.18a.82.82,0,0,1,.81.81v1.08a.82.82,0,0,1-.81.81h-9.18v6.57Z" fill="#fff"/><path d="M1274.7,688.89a8.48,8.48,0,0,1,3.23.57,8.79,8.79,0,0,1,2.37,1.4,6.21,6.21,0,0,1,1.48,1.77,4,4,0,0,1,.54,1.69.53.53,0,0,1-.18.47.69.69,0,0,1-.48.19h-1.23a1,1,0,0,1-.52-.12,1.32,1.32,0,0,1-.4-.54,5.64,5.64,0,0,0-.5-.76,4.46,4.46,0,0,0-.93-.9,5.79,5.79,0,0,0-1.42-.75,5.54,5.54,0,0,0-2-.31,6.48,6.48,0,0,0-1.6.2,4.55,4.55,0,0,0-1.36.58,3.07,3.07,0,0,0-1,1,2.55,2.55,0,0,0-.36,1.37,2.4,2.4,0,0,0,.34,1.32,3.08,3.08,0,0,0,1.11,1,9.76,9.76,0,0,0,1.94.79q1.17.36,2.85.81a18.28,18.28,0,0,1,2.9,1,7.55,7.55,0,0,1,1.94,1.21,4.08,4.08,0,0,1,1.09,1.56,5.46,5.46,0,0,1,.35,2,5.28,5.28,0,0,1-.58,2.47,5.82,5.82,0,0,1-1.64,1.94,7.83,7.83,0,0,1-2.53,1.26,11.42,11.42,0,0,1-3.31.45,9.73,9.73,0,0,1-3.21-.51,8.82,8.82,0,0,1-2.52-1.32,6.84,6.84,0,0,1-1.67-1.8,3.91,3.91,0,0,1-.65-1.95.67.67,0,0,1,.66-.66h1.23a1.1,1.1,0,0,1,.53.12,1.06,1.06,0,0,1,.4.54,4.43,4.43,0,0,0,.56.91,4.31,4.31,0,0,0,1,.93,6,6,0,0,0,1.53.73,6.75,6.75,0,0,0,2.13.3,8,8,0,0,0,2-.24,5.8,5.8,0,0,0,1.67-.69,3.7,3.7,0,0,0,1.14-1.08,2.49,2.49,0,0,0,.42-1.41,2,2,0,0,0-.48-1.33,4.41,4.41,0,0,0-1.38-1,13,13,0,0,0-2.21-.82q-1.31-.37-3-.79a11.82,11.82,0,0,1-2.55-.95,6.24,6.24,0,0,1-1.71-1.27,4.33,4.33,0,0,1-.95-1.59,6,6,0,0,1-.28-1.89,5.44,5.44,0,0,1,.45-2.16,5.38,5.38,0,0,1,1.33-1.86,6.69,6.69,0,0,1,2.22-1.31A9,9,0,0,1,1274.7,688.89Z" fill="#fff"/><path d="M1293.84,688.89a8.48,8.48,0,0,1,3.23.57,8.79,8.79,0,0,1,2.37,1.4,6.21,6.21,0,0,1,1.48,1.77,4,4,0,0,1,.54,1.69.53.53,0,0,1-.18.47.69.69,0,0,1-.48.19h-1.23a1,1,0,0,1-.52-.12,1.32,1.32,0,0,1-.4-.54,5.64,5.64,0,0,0-.5-.76,4.46,4.46,0,0,0-.93-.9,5.79,5.79,0,0,0-1.42-.75,5.54,5.54,0,0,0-2-.31,6.48,6.48,0,0,0-1.6.2,4.55,4.55,0,0,0-1.36.58,3.07,3.07,0,0,0-1,1,2.55,2.55,0,0,0-.36,1.37,2.4,2.4,0,0,0,.34,1.32,3.08,3.08,0,0,0,1.11,1,9.76,9.76,0,0,0,1.94.79q1.17.36,2.85.81a18.28,18.28,0,0,1,2.9,1,7.55,7.55,0,0,1,1.94,1.21,4.08,4.08,0,0,1,1.09,1.56,5.46,5.46,0,0,1,.35,2,5.28,5.28,0,0,1-.58,2.47,5.82,5.82,0,0,1-1.64,1.94,7.83,7.83,0,0,1-2.53,1.26,11.42,11.42,0,0,1-3.31.45,9.73,9.73,0,0,1-3.21-.51,8.82,8.82,0,0,1-2.52-1.32,6.84,6.84,0,0,1-1.67-1.8,3.91,3.91,0,0,1-.65-1.95.67.67,0,0,1,.66-.66h1.23a1.1,1.1,0,0,1,.53.12,1.06,1.06,0,0,1,.4.54,4.43,4.43,0,0,0,.56.91,4.31,4.31,0,0,0,1,.93,6,6,0,0,0,1.53.73,6.75,6.75,0,0,0,2.13.3,8,8,0,0,0,2-.24,5.8,5.8,0,0,0,1.67-.69,3.7,3.7,0,0,0,1.14-1.08,2.49,2.49,0,0,0,.42-1.41,2,2,0,0,0-.48-1.33,4.41,4.41,0,0,0-1.38-1,13,13,0,0,0-2.21-.82q-1.31-.37-3-.79a11.82,11.82,0,0,1-2.55-.95,6.24,6.24,0,0,1-1.71-1.27,4.33,4.33,0,0,1-.95-1.59,6,6,0,0,1-.28-1.89,5.44,5.44,0,0,1,.45-2.16,5.38,5.38,0,0,1,1.33-1.86,6.69,6.69,0,0,1,2.22-1.31A9,9,0,0,1,1293.84,688.89Z" fill="#fff"/><path d="M1326.66,689.19a.82.82,0,0,1,.81.81v1.08a.82.82,0,0,1-.81.81h-5.61v17.49a.82.82,0,0,1-.81.81H1319a.82.82,0,0,1-.81-.81V691.89h-5.61a.82.82,0,0,1-.81-.81V690a.82.82,0,0,1,.81-.81Z" fill="#fff"/><path d="M1330,697a9.45,9.45,0,0,1,.58-3.17,7.44,7.44,0,0,1,1.61-2.58,7.62,7.62,0,0,1,2.58-1.74,9.87,9.87,0,0,1,7,0,7.63,7.63,0,0,1,2.58,1.74,7.46,7.46,0,0,1,1.6,2.58,9.45,9.45,0,0,1,.58,3.17q.09,2.67,0,5.34a10,10,0,0,1-.61,3.17,7.62,7.62,0,0,1-1.6,2.6,7.39,7.39,0,0,1-2.56,1.74,10,10,0,0,1-7,0,7.37,7.37,0,0,1-2.56-1.74,7.59,7.59,0,0,1-1.6-2.6,10,10,0,0,1-.62-3.17Q1330,699.69,1330,697Zm13.71.15a7.75,7.75,0,0,0-.46-2.46,4.73,4.73,0,0,0-1.12-1.74,4.68,4.68,0,0,0-1.69-1,6.84,6.84,0,0,0-4.29,0,4.67,4.67,0,0,0-1.69,1,4.88,4.88,0,0,0-1.14,1.74,7,7,0,0,0-.45,2.46q-.06,1.35-.06,2.52t.06,2.52a7,7,0,0,0,.45,2.46,4.87,4.87,0,0,0,1.14,1.74,4.66,4.66,0,0,0,1.69,1,6.84,6.84,0,0,0,4.29,0,4.66,4.66,0,0,0,1.69-1,4.72,4.72,0,0,0,1.13-1.74,7.74,7.74,0,0,0,.46-2.46q.06-1.35.06-2.52T1343.76,697.17Z" fill="#fff"/><path d="M1372.53,707.49a.82.82,0,0,1,.81.81v1.08a.82.82,0,0,1-.81.81h-12.21a.82.82,0,0,1-.81-.81V690a.82.82,0,0,1,.81-.81h1.23a.82.82,0,0,1,.81.81v17.49Z" fill="#fff"/><path d="M1390,707.49a.82.82,0,0,1,.81.81v1.08a.82.82,0,0,1-.81.81H1377.9a.82.82,0,0,1-.81-.81V690a.82.82,0,0,1,.81-.81h11.88a.82.82,0,0,1,.81.81v1.08a.82.82,0,0,1-.81.81h-9.84v6.33h9.18a.82.82,0,0,1,.81.81v1.08a.82.82,0,0,1-.81.81h-9.18v6.57Z" fill="#fff"/><path d="M1401.9,688.89a8.48,8.48,0,0,1,3.23.57,8.79,8.79,0,0,1,2.37,1.4,6.21,6.21,0,0,1,1.48,1.77,4,4,0,0,1,.54,1.69.53.53,0,0,1-.18.47.69.69,0,0,1-.48.19h-1.23a1,1,0,0,1-.52-.12,1.32,1.32,0,0,1-.4-.54,5.64,5.64,0,0,0-.5-.76,4.46,4.46,0,0,0-.93-.9,5.79,5.79,0,0,0-1.42-.75,5.54,5.54,0,0,0-2-.31,6.48,6.48,0,0,0-1.6.2,4.55,4.55,0,0,0-1.36.58,3.07,3.07,0,0,0-1,1,2.55,2.55,0,0,0-.36,1.37A2.4,2.4,0,0,0,1398,696a3.08,3.08,0,0,0,1.11,1,9.76,9.76,0,0,0,1.94.79q1.17.36,2.85.81a18.28,18.28,0,0,1,2.9,1,7.55,7.55,0,0,1,1.94,1.21,4.08,4.08,0,0,1,1.09,1.56,5.46,5.46,0,0,1,.35,2,5.28,5.28,0,0,1-.58,2.47,5.82,5.82,0,0,1-1.64,1.94,7.83,7.83,0,0,1-2.53,1.26,11.42,11.42,0,0,1-3.31.45,9.73,9.73,0,0,1-3.21-.51,8.82,8.82,0,0,1-2.52-1.32,6.84,6.84,0,0,1-1.67-1.8,3.91,3.91,0,0,1-.65-1.95.67.67,0,0,1,.66-.66h1.23a1.1,1.1,0,0,1,.53.12,1.06,1.06,0,0,1,.4.54,4.43,4.43,0,0,0,.56.91,4.31,4.31,0,0,0,1,.93,6,6,0,0,0,1.53.73,6.75,6.75,0,0,0,2.13.3,8,8,0,0,0,2-.24,5.8,5.8,0,0,0,1.67-.69,3.7,3.7,0,0,0,1.14-1.08,2.49,2.49,0,0,0,.42-1.41,2,2,0,0,0-.48-1.33,4.41,4.41,0,0,0-1.38-1,13,13,0,0,0-2.21-.82q-1.31-.37-3-.79a11.82,11.82,0,0,1-2.55-.95,6.24,6.24,0,0,1-1.71-1.27,4.33,4.33,0,0,1-.95-1.59,6,6,0,0,1-.28-1.89,5.44,5.44,0,0,1,.45-2.16,5.38,5.38,0,0,1,1.33-1.86,6.69,6.69,0,0,1,2.22-1.31A9,9,0,0,1,1401.9,688.89Z" fill="#fff"/><path d="M1421,688.89a8.48,8.48,0,0,1,3.23.57,8.79,8.79,0,0,1,2.37,1.4,6.21,6.21,0,0,1,1.48,1.77,4,4,0,0,1,.54,1.69.53.53,0,0,1-.18.47.69.69,0,0,1-.48.19h-1.23a1,1,0,0,1-.52-.12,1.32,1.32,0,0,1-.4-.54,5.64,5.64,0,0,0-.5-.76,4.46,4.46,0,0,0-.93-.9,5.79,5.79,0,0,0-1.42-.75,5.54,5.54,0,0,0-2-.31,6.48,6.48,0,0,0-1.6.2,4.55,4.55,0,0,0-1.36.58,3.07,3.07,0,0,0-1,1,2.55,2.55,0,0,0-.36,1.37,2.4,2.4,0,0,0,.34,1.32,3.08,3.08,0,0,0,1.11,1,9.76,9.76,0,0,0,1.94.79q1.17.36,2.85.81a18.28,18.28,0,0,1,2.9,1,7.55,7.55,0,0,1,1.94,1.21,4.08,4.08,0,0,1,1.09,1.56,5.46,5.46,0,0,1,.35,2,5.28,5.28,0,0,1-.58,2.47,5.82,5.82,0,0,1-1.64,1.94,7.83,7.83,0,0,1-2.53,1.26,11.42,11.42,0,0,1-3.31.45A9.73,9.73,0,0,1,1418,710a8.82,8.82,0,0,1-2.52-1.32,6.84,6.84,0,0,1-1.67-1.8,3.91,3.91,0,0,1-.65-1.95.67.67,0,0,1,.66-.66H1415a1.1,1.1,0,0,1,.53.12,1.06,1.06,0,0,1,.4.54,4.43,4.43,0,0,0,.56.91,4.31,4.31,0,0,0,1,.93,6,6,0,0,0,1.53.73,6.75,6.75,0,0,0,2.13.3,8,8,0,0,0,2-.24,5.8,5.8,0,0,0,1.67-.69,3.7,3.7,0,0,0,1.14-1.08,2.49,2.49,0,0,0,.42-1.41,2,2,0,0,0-.48-1.33,4.41,4.41,0,0,0-1.38-1,13,13,0,0,0-2.21-.82q-1.31-.37-3-.79a11.82,11.82,0,0,1-2.55-.95,6.24,6.24,0,0,1-1.71-1.27,4.33,4.33,0,0,1-.95-1.59,6,6,0,0,1-.28-1.89,5.44,5.44,0,0,1,.45-2.16,5.38,5.38,0,0,1,1.33-1.86,6.69,6.69,0,0,1,2.22-1.31A9,9,0,0,1,1421,688.89Z" fill="#fff"/><path d="M1190.06,734.32q0,1.35,0,2.37t0,2.37a9.19,9.19,0,0,1-.66,3.4,7.38,7.38,0,0,1-1.74,2.56,7.51,7.51,0,0,1-2.64,1.6,9.87,9.87,0,0,1-3.39.56h-7a.82.82,0,0,1-.81-.81V727a.82.82,0,0,1,.81-.81h6.87a10.26,10.26,0,0,1,3.44.56,7.76,7.76,0,0,1,2.72,1.6,7.36,7.36,0,0,1,1.78,2.56A9,9,0,0,1,1190.06,734.32Zm-2.85.15a7.65,7.65,0,0,0-.35-2.08,4.72,4.72,0,0,0-2.8-3,7.08,7.08,0,0,0-2.73-.46h-4.71v15.6h4.86a7,7,0,0,0,2.71-.46,4.6,4.6,0,0,0,1.75-1.25,4.73,4.73,0,0,0,.95-1.78,8.48,8.48,0,0,0,.31-2.08q0-.66,0-1.19t0-1q0-.5,0-1T1187.21,734.47Z" fill="#fff"/><path d="M1195.82,747.19a.82.82,0,0,1-.81-.81V727a.82.82,0,0,1,.81-.81H1197a.82.82,0,0,1,.81.81v19.38a.82.82,0,0,1-.81.81Z" fill="#fff"/><path d="M1216.64,744.49a.82.82,0,0,1,.81.81v1.08a.82.82,0,0,1-.81.81h-12.21a.82.82,0,0,1-.81-.81V727a.82.82,0,0,1,.81-.81h1.23a.82.82,0,0,1,.81.81v17.49Z" fill="#fff"/><path d="M1235.78,726.19a.82.82,0,0,1,.81.81v12a11.79,11.79,0,0,1-.46,3.4,7.33,7.33,0,0,1-1.44,2.69,6.47,6.47,0,0,1-2.5,1.77,11,11,0,0,1-7.35,0,6.47,6.47,0,0,1-2.5-1.77,7.14,7.14,0,0,1-1.42-2.69,12.13,12.13,0,0,1-.45-3.4V727a.82.82,0,0,1,.81-.81h1.23a.82.82,0,0,1,.81.81v12.15a6.06,6.06,0,0,0,1.38,4.37,5.91,5.91,0,0,0,7.7,0,6,6,0,0,0,1.4-4.37V727a.82.82,0,0,1,.81-.81Z" fill="#fff"/><path d="M1255.16,726.19a.82.82,0,0,1,.81.81v1.08a.82.82,0,0,1-.81.81h-5.61v17.49a.82.82,0,0,1-.81.81h-1.23a.82.82,0,0,1-.81-.81V728.89h-5.61a.82.82,0,0,1-.81-.81V727a.82.82,0,0,1,.81-.81Z" fill="#fff"/><path d="M1260.65,747.19a.82.82,0,0,1-.81-.81V727a.82.82,0,0,1,.81-.81h1.23a.82.82,0,0,1,.81.81v19.38a.82.82,0,0,1-.81.81Z" fill="#fff"/><path d="M1281.35,726.94a1.53,1.53,0,0,1,.33-.5,1.13,1.13,0,0,1,.84-.25h1.11a.67.67,0,0,1,.66.66.8.8,0,0,1-.06.3L1277.75,746a1.84,1.84,0,0,1-.58.87,1.54,1.54,0,0,1-1,.33H1275a1.48,1.48,0,0,1-1-.33,1.89,1.89,0,0,1-.57-.87l-6.51-18.84a.79.79,0,0,1-.06-.3.67.67,0,0,1,.66-.66h1.11a1.13,1.13,0,0,1,.84.25,1.53,1.53,0,0,1,.33.5l5.79,17.25Z" fill="#fff"/><path d="M1301.39,744.49a.82.82,0,0,1,.81.81v1.08a.82.82,0,0,1-.81.81h-12.12a.82.82,0,0,1-.81-.81V727a.82.82,0,0,1,.81-.81h11.88a.82.82,0,0,1,.81.81v1.08a.82.82,0,0,1-.81.81h-9.84v6.33h9.18a.82.82,0,0,1,.81.81v1.08a.82.82,0,0,1-.81.81h-9.18v6.57Z" fill="#fff"/><path d="M1327.45,726.19a.82.82,0,0,1,.81.81v1.08a.82.82,0,0,1-.81.81h-9.87v6.93h9.27a.82.82,0,0,1,.81.81v1.08a.82.82,0,0,1-.81.81h-9.27v7.86a.82.82,0,0,1-.81.81h-1.23a.82.82,0,0,1-.81-.81V727a.82.82,0,0,1,.81-.81Z" fill="#fff"/><path d="M1347.79,726.19a.82.82,0,0,1,.81.81v12a11.79,11.79,0,0,1-.46,3.4,7.33,7.33,0,0,1-1.44,2.69,6.47,6.47,0,0,1-2.5,1.77,11,11,0,0,1-7.35,0,6.47,6.47,0,0,1-2.5-1.77,7.14,7.14,0,0,1-1.42-2.69,12.13,12.13,0,0,1-.45-3.4V727a.82.82,0,0,1,.81-.81h1.23a.82.82,0,0,1,.81.81v12.15a6.06,6.06,0,0,0,1.38,4.37,5.91,5.91,0,0,0,7.7,0,6,6,0,0,0,1.4-4.37V727a.82.82,0,0,1,.81-.81Z" fill="#fff"/><path d="M1368,747.19a1,1,0,0,1-.71-.29,3.56,3.56,0,0,1-.49-.61L1357,731.62v14.76a.82.82,0,0,1-.81.81H1355a.82.82,0,0,1-.81-.81V727a.82.82,0,0,1,.81-.81h1a1,1,0,0,1,.71.29,3.62,3.62,0,0,1,.5.61l9.75,14.67V727a.82.82,0,0,1,.81-.81H1369a.82.82,0,0,1,.81.81v19.38a.82.82,0,0,1-.81.81Z" fill="#fff"/><path d="M1391.89,734.32q0,1.35,0,2.37t0,2.37a9.19,9.19,0,0,1-.66,3.4,7.38,7.38,0,0,1-1.74,2.56,7.51,7.51,0,0,1-2.64,1.6,9.87,9.87,0,0,1-3.39.56h-7a.82.82,0,0,1-.81-.81V727a.82.82,0,0,1,.81-.81h6.87a10.26,10.26,0,0,1,3.44.56,7.76,7.76,0,0,1,2.72,1.6,7.36,7.36,0,0,1,1.78,2.56A9,9,0,0,1,1391.89,734.32Zm-2.85.15a7.65,7.65,0,0,0-.35-2.08,4.72,4.72,0,0,0-2.8-3,7.08,7.08,0,0,0-2.73-.46h-4.71v15.6h4.86A7,7,0,0,0,1386,744a4.6,4.6,0,0,0,1.75-1.25,4.73,4.73,0,0,0,.95-1.78,8.48,8.48,0,0,0,.31-2.08q0-.66,0-1.19t0-1q0-.5,0-1T1389,734.47Z" fill="#fff"/><path d="M1397.65,747.19a.82.82,0,0,1-.81-.81V727a.82.82,0,0,1,.81-.81h1.23a.82.82,0,0,1,.81.81v19.38a.82.82,0,0,1-.81.81Z" fill="#fff"/><path d="M1419.25,747.19a1,1,0,0,1-.71-.29,3.56,3.56,0,0,1-.49-.61l-9.75-14.67v14.76a.82.82,0,0,1-.81.81h-1.23a.82.82,0,0,1-.81-.81V727a.82.82,0,0,1,.81-.81h1a1,1,0,0,1,.71.29,3.62,3.62,0,0,1,.5.61l9.75,14.67V727a.82.82,0,0,1,.81-.81h1.23a.82.82,0,0,1,.81.81v19.38a.82.82,0,0,1-.81.81Z" fill="#fff"/><path d="M1426.09,734a10.34,10.34,0,0,1,.58-3.12,7.16,7.16,0,0,1,1.59-2.58,7.39,7.39,0,0,1,2.65-1.74,10.16,10.16,0,0,1,3.75-.63,9.88,9.88,0,0,1,3.58.6,8.89,8.89,0,0,1,2.58,1.49,6.44,6.44,0,0,1,1.56,1.89,4.36,4.36,0,0,1,.56,1.82.53.53,0,0,1-.18.46.68.68,0,0,1-.48.19h-1.23q-.72,0-.87-.33a9.19,9.19,0,0,0-.82-1.35,4.88,4.88,0,0,0-1.1-1.08,5.19,5.19,0,0,0-1.52-.72,7.87,7.87,0,0,0-4.35.08,4.88,4.88,0,0,0-1.79,1,5,5,0,0,0-1.2,1.73,6.38,6.38,0,0,0-.48,2.42q-.06,1.35-.06,2.49t.06,2.49a6.9,6.9,0,0,0,.48,2.52,5.1,5.1,0,0,0,1.2,1.79,4.75,4.75,0,0,0,1.79,1,7.11,7.11,0,0,0,2.26.35,8.15,8.15,0,0,0,2.25-.3,4.75,4.75,0,0,0,1.83-1,4.49,4.49,0,0,0,1.21-1.76,7.08,7.08,0,0,0,.44-2.64v-.84h-4.32a.82.82,0,0,1-.81-.81v-1.08a.82.82,0,0,1,.81-.81h6.36a.82.82,0,0,1,.81.81v2.85a9.36,9.36,0,0,1-.57,3.32,7.26,7.26,0,0,1-1.67,2.61,7.61,7.61,0,0,1-2.7,1.71,10.14,10.14,0,0,1-3.65.61,9.94,9.94,0,0,1-3.75-.65,7.18,7.18,0,0,1-4.23-4.36,10.59,10.59,0,0,1-.6-3.24Q1426,736.6,1426.09,734Z" fill="#fff"/><path d="M1231.53,1231.85a8.48,8.48,0,0,1,3.23.57,8.79,8.79,0,0,1,2.37,1.4,6.21,6.21,0,0,1,1.48,1.77,4,4,0,0,1,.54,1.69.53.53,0,0,1-.18.47.69.69,0,0,1-.48.19h-1.23a1,1,0,0,1-.52-.12,1.32,1.32,0,0,1-.4-.54,5.64,5.64,0,0,0-.5-.76,4.46,4.46,0,0,0-.93-.9,5.79,5.79,0,0,0-1.42-.75,5.54,5.54,0,0,0-2-.31,6.48,6.48,0,0,0-1.6.2,4.55,4.55,0,0,0-1.36.58,3.07,3.07,0,0,0-1,1,2.55,2.55,0,0,0-.36,1.37,2.4,2.4,0,0,0,.34,1.32,3.08,3.08,0,0,0,1.11,1,9.76,9.76,0,0,0,1.94.79q1.17.36,2.85.81a18.28,18.28,0,0,1,2.9,1,7.55,7.55,0,0,1,1.94,1.21,4.08,4.08,0,0,1,1.09,1.56,5.46,5.46,0,0,1,.35,2,5.28,5.28,0,0,1-.58,2.47,5.82,5.82,0,0,1-1.64,1.94A7.83,7.83,0,0,1,1235,1253a11.42,11.42,0,0,1-3.31.45,9.73,9.73,0,0,1-3.21-.51,8.82,8.82,0,0,1-2.52-1.32,6.84,6.84,0,0,1-1.67-1.8,3.91,3.91,0,0,1-.65-1.95.67.67,0,0,1,.66-.66h1.23a1.1,1.1,0,0,1,.53.12,1.06,1.06,0,0,1,.4.54,4.43,4.43,0,0,0,.56.91,4.31,4.31,0,0,0,1,.93,6,6,0,0,0,1.53.73,6.75,6.75,0,0,0,2.13.3,8,8,0,0,0,2-.24,5.8,5.8,0,0,0,1.67-.69,3.7,3.7,0,0,0,1.14-1.08,2.49,2.49,0,0,0,.42-1.41,2,2,0,0,0-.48-1.33,4.41,4.41,0,0,0-1.38-1,13,13,0,0,0-2.21-.82q-1.31-.37-3-.79a11.82,11.82,0,0,1-2.55-.95,6.24,6.24,0,0,1-1.71-1.27,4.33,4.33,0,0,1-.95-1.59,6,6,0,0,1-.28-1.89,5.44,5.44,0,0,1,.45-2.16,5.38,5.38,0,0,1,1.33-1.86,6.69,6.69,0,0,1,2.22-1.31A9,9,0,0,1,1231.53,1231.85Z" fill="#a5b993"/><path d="M1256.94,1232.15a.82.82,0,0,1,.81.81V1234a.82.82,0,0,1-.81.81h-5.61v17.49a.82.82,0,0,1-.81.81h-1.23a.82.82,0,0,1-.81-.81v-17.49h-5.61a.82.82,0,0,1-.81-.81V1233a.82.82,0,0,1,.81-.81Z" fill="#a5b993"/><path d="M1269.69,1232.15a10.4,10.4,0,0,1,2.77.36,6.72,6.72,0,0,1,2.3,1.11,5.39,5.39,0,0,1,1.57,1.92,6.25,6.25,0,0,1,.58,2.82,5.81,5.81,0,0,1-1.21,3.87,6.57,6.57,0,0,1-3.1,2l4.53,7.89a.75.75,0,0,1,.09.33.67.67,0,0,1-.66.66h-1.29a1.17,1.17,0,0,1-.88-.3,2.8,2.8,0,0,1-.41-.51l-4.35-7.65h-5.16v7.65a.82.82,0,0,1-.81.81h-1.23a.82.82,0,0,1-.81-.81V1233a.82.82,0,0,1,.81-.81Zm-5.22,9.84h5.07a5.64,5.64,0,0,0,3.35-.85,3.19,3.19,0,0,0,1.18-2.77,3,3,0,0,0-1.18-2.71,6,6,0,0,0-3.35-.79h-5.07Z" fill="#a5b993"/><path d="M1294.68,1250.45a.82.82,0,0,1,.81.81v1.08a.82.82,0,0,1-.81.81h-12.12a.82.82,0,0,1-.81-.81V1233a.82.82,0,0,1,.81-.81h11.88a.82.82,0,0,1,.81.81V1234a.82.82,0,0,1-.81.81h-9.84v6.33h9.18a.82.82,0,0,1,.81.81v1.08a.82.82,0,0,1-.81.81h-9.18v6.57Z" fill="#a5b993"/><path d="M1312.92,1248.41h-10.41l-1.56,4a1.52,1.52,0,0,1-.33.5,1.13,1.13,0,0,1-.84.25h-1.11a.67.67,0,0,1-.66-.66,1.14,1.14,0,0,1,.12-.42l7.35-18.93a2.57,2.57,0,0,1,.45-.66,1.16,1.16,0,0,1,.9-.33h1.8a1.16,1.16,0,0,1,.9.33,2.61,2.61,0,0,1,.45.66l7.32,18.93a1.15,1.15,0,0,1,.12.42.67.67,0,0,1-.66.66h-1.11a1.13,1.13,0,0,1-.84-.25,1.51,1.51,0,0,1-.33-.5Zm-9.36-2.7h8.31l-4.14-10.71Z" fill="#a5b993"/><path d="M1330.44,1244.84l6.06-11.73a2.38,2.38,0,0,1,.49-.66,1.15,1.15,0,0,1,.83-.3H1339a.82.82,0,0,1,.81.81v19.38a.82.82,0,0,1-.81.81h-1.23a.82.82,0,0,1-.81-.81v-14.22l-4.68,9a2.74,2.74,0,0,1-.51.71,1,1,0,0,1-.72.25h-1.14a1,1,0,0,1-.72-.25,2.73,2.73,0,0,1-.51-.71l-4.68-9v14.22a.82.82,0,0,1-.81.81h-1.23a.82.82,0,0,1-.81-.81V1233a.82.82,0,0,1,.81-.81h1.14a1.15,1.15,0,0,1,.83.3,2.39,2.39,0,0,1,.5.66Z" fill="#a5b993"/><path d="M1346.34,1253.15a.82.82,0,0,1-.81-.81V1233a.82.82,0,0,1,.81-.81h1.23a.82.82,0,0,1,.81.81v19.38a.82.82,0,0,1-.81.81Z" fill="#a5b993"/><path d="M1367.94,1253.15a1,1,0,0,1-.71-.29,3.56,3.56,0,0,1-.49-.61l-9.75-14.67v14.76a.82.82,0,0,1-.81.81h-1.23a.82.82,0,0,1-.81-.81V1233a.82.82,0,0,1,.81-.81h1a1,1,0,0,1,.71.29,3.62,3.62,0,0,1,.5.61l9.75,14.67V1233a.82.82,0,0,1,.81-.81H1369a.82.82,0,0,1,.81.81v19.38a.82.82,0,0,1-.81.81Z" fill="#a5b993"/><path d="M1374.78,1239.92a10.34,10.34,0,0,1,.58-3.12,7.16,7.16,0,0,1,1.59-2.58,7.39,7.39,0,0,1,2.65-1.74,10.16,10.16,0,0,1,3.75-.63,9.88,9.88,0,0,1,3.58.6,8.89,8.89,0,0,1,2.58,1.49,6.44,6.44,0,0,1,1.56,1.89,4.36,4.36,0,0,1,.56,1.82.53.53,0,0,1-.18.46.68.68,0,0,1-.48.19h-1.23q-.72,0-.87-.33a9.19,9.19,0,0,0-.82-1.35,4.88,4.88,0,0,0-1.1-1.08,5.19,5.19,0,0,0-1.52-.72,7.87,7.87,0,0,0-4.35.08,4.88,4.88,0,0,0-1.79,1,5,5,0,0,0-1.2,1.73,6.38,6.38,0,0,0-.48,2.42q-.06,1.35-.06,2.49t.06,2.49a6.9,6.9,0,0,0,.48,2.52,5.1,5.1,0,0,0,1.2,1.79,4.75,4.75,0,0,0,1.79,1,7.11,7.11,0,0,0,2.26.35,8.15,8.15,0,0,0,2.25-.3,4.75,4.75,0,0,0,1.83-1,4.49,4.49,0,0,0,1.21-1.76,7.08,7.08,0,0,0,.44-2.64v-.84h-4.32a.82.82,0,0,1-.81-.81v-1.08a.82.82,0,0,1,.81-.81h6.36a.82.82,0,0,1,.81.81v2.85a9.36,9.36,0,0,1-.57,3.32,7.26,7.26,0,0,1-1.67,2.61,7.61,7.61,0,0,1-2.7,1.71,10.14,10.14,0,0,1-3.65.61,9.94,9.94,0,0,1-3.75-.65,7.18,7.18,0,0,1-4.23-4.36,10.59,10.59,0,0,1-.6-3.24Q1374.69,1242.56,1374.78,1239.92Z" fill="#a5b993"/><path d="M1250.75,1269.15a10,10,0,0,1,2.77.38,6.63,6.63,0,0,1,2.29,1.15,5.62,5.62,0,0,1,1.58,2,6.45,6.45,0,0,1,.58,2.85,6.55,6.55,0,0,1-.58,2.87,5.86,5.86,0,0,1-1.58,2,6.53,6.53,0,0,1-2.29,1.2,9.65,9.65,0,0,1-2.77.39h-5.52v7.35a.82.82,0,0,1-.81.81h-1.23a.82.82,0,0,1-.81-.81V1270a.82.82,0,0,1,.81-.81Zm-5.52,10.14h5.37a5.3,5.3,0,0,0,3.35-.93,3.4,3.4,0,0,0,1.19-2.85,3.23,3.23,0,0,0-1.19-2.79,5.58,5.58,0,0,0-3.35-.87h-5.37Z" fill="#a5b993"/><path d="M1273.76,1285.41h-10.41l-1.56,4a1.52,1.52,0,0,1-.33.5,1.13,1.13,0,0,1-.84.25h-1.11a.67.67,0,0,1-.66-.66,1.14,1.14,0,0,1,.12-.42l7.35-18.93a2.57,2.57,0,0,1,.45-.66,1.16,1.16,0,0,1,.9-.33h1.8a1.16,1.16,0,0,1,.9.33,2.61,2.61,0,0,1,.45.66l7.32,18.93a1.15,1.15,0,0,1,.12.42.67.67,0,0,1-.66.66h-1.11a1.13,1.13,0,0,1-.84-.25,1.51,1.51,0,0,1-.33-.5Zm-9.36-2.7h8.31l-4.14-10.71Z" fill="#a5b993"/><path d="M1290,1269.15a10.4,10.4,0,0,1,2.77.36,6.72,6.72,0,0,1,2.3,1.11,5.39,5.39,0,0,1,1.57,1.92,6.25,6.25,0,0,1,.58,2.82,5.81,5.81,0,0,1-1.21,3.87,6.57,6.57,0,0,1-3.1,2l4.53,7.89a.75.75,0,0,1,.09.33.67.67,0,0,1-.66.66h-1.29a1.17,1.17,0,0,1-.88-.3,2.8,2.8,0,0,1-.41-.51l-4.35-7.65h-5.16v7.65a.82.82,0,0,1-.81.81h-1.23a.82.82,0,0,1-.81-.81V1270a.82.82,0,0,1,.81-.81Zm-5.22,9.84h5.07a5.64,5.64,0,0,0,3.35-.85,3.19,3.19,0,0,0,1.18-2.77,3,3,0,0,0-1.18-2.71,6,6,0,0,0-3.35-.79h-5.07Z" fill="#a5b993"/><path d="M1314.8,1269.15a.82.82,0,0,1,.81.81V1271a.82.82,0,0,1-.81.81h-5.61v17.49a.82.82,0,0,1-.81.81h-1.23a.82.82,0,0,1-.81-.81v-17.49h-5.61a.82.82,0,0,1-.81-.81V1270a.82.82,0,0,1,.81-.81Z" fill="#a5b993"/><path d="M1333.28,1290.15a1,1,0,0,1-.71-.29,3.56,3.56,0,0,1-.49-.61l-9.75-14.67v14.76a.82.82,0,0,1-.81.81h-1.23a.82.82,0,0,1-.81-.81V1270a.82.82,0,0,1,.81-.81h1a1,1,0,0,1,.71.29,3.62,3.62,0,0,1,.5.61l9.75,14.67V1270a.82.82,0,0,1,.81-.81h1.23a.82.82,0,0,1,.81.81v19.38a.82.82,0,0,1-.81.81Z" fill="#a5b993"/><path d="M1353.82,1287.45a.82.82,0,0,1,.81.81v1.08a.82.82,0,0,1-.81.81h-12.12a.82.82,0,0,1-.81-.81V1270a.82.82,0,0,1,.81-.81h11.88a.82.82,0,0,1,.81.81V1271a.82.82,0,0,1-.81.81h-9.84v6.33h9.18a.82.82,0,0,1,.81.81v1.08a.82.82,0,0,1-.81.81h-9.18v6.57Z" fill="#a5b993"/><path d="M1367.32,1269.15a10.4,10.4,0,0,1,2.77.36,6.72,6.72,0,0,1,2.3,1.11,5.39,5.39,0,0,1,1.57,1.92,6.25,6.25,0,0,1,.58,2.82,5.81,5.81,0,0,1-1.21,3.87,6.57,6.57,0,0,1-3.1,2l4.53,7.89a.75.75,0,0,1,.09.33.67.67,0,0,1-.66.66h-1.29a1.17,1.17,0,0,1-.88-.3,2.8,2.8,0,0,1-.41-.51l-4.35-7.65h-5.16v7.65a.82.82,0,0,1-.81.81h-1.23a.82.82,0,0,1-.81-.81V1270a.82.82,0,0,1,.81-.81Zm-5.22,9.84h5.07a5.64,5.64,0,0,0,3.35-.85,3.19,3.19,0,0,0,1.18-2.77,3,3,0,0,0-1.18-2.71,6,6,0,0,0-3.35-.79h-5.07Z" fill="#a5b993"/><line x1="1308" y1="827.14" x2="1308" y2="989.1"/><rect x="1307" y="827.14" width="2" height="161.97" fill="#fff"/><g clip-path="url(#clip-path)"><path d="M1250.12,1085.63a.74.74,0,0,0-1.1.8,96.38,96.38,0,0,0,28.44,49.23,118.69,118.69,0,0,0,22.94,16.74c-9.82-3.65-26.48-8.9-44.57-8.9a86.25,86.25,0,0,0-10.54.63.73.73,0,0,0-.38,1.3c13.78,11.29,29,17,45.29,17a70.45,70.45,0,0,0,11.21-.91c-7.78,2.87-20.39,8.75-30.71,21.18a.74.74,0,0,0,.74,1.18c12.32-3.09,22.37-7.27,29.87-12.42a39.41,39.41,0,0,0,9.76-9.16c.13,3.32-.14,11.7-.28,16.11-.18,5.6-.18,5.6,0,5.87a3.16,3.16,0,0,0,1.93.9,2.78,2.78,0,0,0,2-1c.14-.25.14-.25,0-5.45-.15-4.5-.42-13.08-.28-16.43a39.49,39.49,0,0,0,9.76,9.15c7.5,5.15,17.55,9.33,29.87,12.42a.74.74,0,0,0,.75-1.18c-10.32-12.43-22.93-18.31-30.71-21.18a70.4,70.4,0,0,0,11.21.91c16.27,0,31.51-5.72,45.29-17a.73.73,0,0,0-.38-1.3,86.25,86.25,0,0,0-10.54-.63c-18.09,0-34.75,5.25-44.57,8.9a118.7,118.7,0,0,0,22.94-16.74,96.43,96.43,0,0,0,28.44-49.24.74.74,0,0,0-1.1-.8c-33.84,20.37-51.15,49.75-58.26,62.41a118.84,118.84,0,0,0,5.73-27c2-21-1.16-42.37-9.43-63.51a.73.73,0,0,0-1.37,0c-8.27,21.15-11.44,42.52-9.43,63.52a118.84,118.84,0,0,0,5.73,27c-7.11-12.66-24.42-42-58.26-62.42" fill="#fff"/></g><polygon points="1308 807.76 1292.85 834.01 1323.15 834.01 1308 807.76" fill="#fff"/><polygon points="1308 1004.52 1323.15 978.27 1292.85 978.27 1308 1004.52" fill="#fff"/><polygon points="979.74 1004.52 994.9 978.27 964.59 978.27 979.74 1004.52" fill="#fff"/><polygon points="695.33 1004.52 710.49 978.27 680.17 978.27 695.33 1004.52" fill="#fff"/><polygon points="1627.17 1004.52 1642.33 978.27 1612.02 978.27 1627.17 1004.52" fill="#fff"/><polygon points="1911.58 1004.52 1926.74 978.27 1896.43 978.27 1911.58 1004.52" fill="#fff"/><polygon points="2215.23 1004.52 2230.39 978.27 2200.07 978.27 2215.23 1004.52" fill="#fff"/><polygon points="372.29 1004.52 387.44 978.27 357.13 978.27 372.29 1004.52" fill="#fff"/><rect x="371.28" y="598.53" width="2" height="60.53" fill="#fff"/><rect x="2214.23" y="598.53" width="2" height="60.53" fill="#fff"/></g></g></svg>