<?xml version="1.0" encoding="utf-8"?>
<!-- Generator: Adobe Illustrator 20.1.0, SVG Export Plug-In . SVG Version: 6.00 Build 0)  -->
<!DOCTYPE svg PUBLIC "-//W3C//DTD SVG 1.1//EN" "http://www.w3.org/Graphics/SVG/1.1/DTD/svg11.dtd">
<svg version="1.1" id="Layer_1" xmlns="http://www.w3.org/2000/svg" xmlns:xlink="http://www.w3.org/1999/xlink" x="0px" y="0px"
	 viewBox="0 0 2346.2 1540" style="enable-background:new 0 0 2346.2 1540;" xml:space="preserve">
<style type="text/css">
	.st0{fill:#A5B993;}
	.st1{fill:#FFFFFF;}
	.st2{clip-path:url(#SVGID_2_);fill:#A5B993;}
	.st3{fill:none;stroke:#FFFFFF;stroke-width:0.8405;stroke-miterlimit:10;}
	.st4{stroke:#FFFFFF;stroke-width:2;stroke-miterlimit:10;}
	.st5{fill:none;stroke:#FFFFFF;stroke-width:2;stroke-miterlimit:10;}
	.st6{clip-path:url(#SVGID_4_);fill:#A5B993;}
	.st7{clip-path:url(#SVGID_6_);fill:#A5B993;}
</style>
<g>
	<path class="st0" d="M1162.6,244.9c-10.7,0-20.9,0.3-31-0.1c-4.7-0.2-8.7-2.3-10.7-6c-4.5-8.4-37.5-73.2-38.9-75.8
		c-0.3-0.5-0.2-2.2,2-2.2c8.8,0,17.6-0.1,26.4,0c6.1,0.1,10.7,2.3,13,6.6C1126.8,173.5,1162.3,243.9,1162.6,244.9"/>
	<path class="st0" d="M1221.7,244.9c-10.7,0-20.9,0.3-31-0.1c-4.7-0.2-8.7-2.3-10.7-6c-4.5-8.4-37.5-73.2-38.9-75.8
		c-0.3-0.5-0.2-2.2,2-2.2c8.8,0,17.6-0.1,26.4,0c6.1,0.1,10.7,2.3,13,6.6C1185.9,173.5,1221.4,243.9,1221.7,244.9"/>
	<path class="st0" d="M1256,161.1L1256,161.1c-1.3-0.2-9.7-0.3-18-0.3c-6,0-10.5,3-13.4,8.4c-4.1,7.8-8,15.7-12,23.5
		c-1,2,0.9,2.8,1.6,2.9c1.3,0.2,9.7,0.3,18,0.3c6,0,10.5-3,13.4-8.4c4.1-7.8,8-15.7,12-23.5C1258.6,162,1256.7,161.1,1256,161.1"/>
</g>
<line class="st4" x1="1173.1" y1="317.6" x2="1173.1" y2="581.3"/>
<line class="st4" x1="1173.1" y1="809.9" x2="1173.1" y2="1022.7"/>
<line class="st5" x1="2080.4" y1="581.3" x2="246.8" y2="581.3"/>
<g>
	<path class="st1" d="M163.4,685.9c-0.2,3.7-3.2,7-7.5,7c-4.4,0-7.7-3.2-7.7-8.2v-5.2c0-5,3.3-8.2,7.7-8.2c4.4,0,7.1,3,7.5,6.7
		c0,0.3-0.1,0.5-0.4,0.5h-1.5c-0.2,0-0.3-0.1-0.4-0.5c-0.4-2.5-2.2-4.6-5.2-4.6s-5.4,2.2-5.4,6.1v5.2c0,3.8,2.4,6.1,5.4,6.1
		c3,0,4.9-2,5.2-4.9c0-0.2,0.1-0.4,0.4-0.4h1.6C163.3,685.5,163.4,685.7,163.4,685.9z"/>
	<path class="st1" d="M183.7,692.3c0,0.2-0.1,0.3-0.4,0.3h-1.5c-0.3,0-0.4-0.1-0.5-0.3l-1.9-5.3h-9.1l-1.9,5.3
		c-0.1,0.3-0.3,0.3-0.4,0.3h-1.5c-0.2,0-0.4-0.1-0.4-0.3c0-0.1,0.1-0.4,0.2-0.6l7.1-19.6c0.1-0.3,0.2-0.5,0.5-0.5h1.7
		c0.3,0,0.5,0.2,0.5,0.5l7.3,19.8C183.6,692,183.7,692.2,183.7,692.3z M178.7,684.9l-3.8-10.7l-3.8,10.7H178.7z"/>
	<path class="st1" d="M195.3,684.7h-5.4v7.4c0,0.3-0.2,0.5-0.5,0.5h-1.3c-0.3,0-0.5-0.2-0.5-0.5v-20c0-0.3,0.2-0.5,0.5-0.5h7.2
		c3.8,0,6.5,2.1,6.5,6.1v0.6C201.8,682.3,199.1,684.7,195.3,684.7z M189.9,673.7v8.8h5.3c2.2,0,4.3-1.3,4.3-4.2v-0.6
		c0-3-2.1-4-4.3-4H189.9z"/>
	<path class="st1" d="M206.1,692.1v-20c0-0.3,0.2-0.5,0.5-0.5h1.3c0.3,0,0.5,0.2,0.5,0.5v20c0,0.3-0.2,0.5-0.5,0.5h-1.3
		C206.3,692.6,206.1,692.4,206.1,692.1z"/>
	<path class="st1" d="M212.2,673.3v-1.1c0-0.3,0.2-0.5,0.5-0.5h14.9c0.3,0,0.5,0.2,0.5,0.5v1.1c0,0.3-0.2,0.5-0.5,0.5h-6.3v18.4
		c0,0.3-0.2,0.5-0.5,0.5h-1.3c-0.3,0-0.5-0.2-0.5-0.5v-18.4h-6.3C212.4,673.7,212.2,673.5,212.2,673.3z"/>
	<path class="st1" d="M245,692.3c0,0.2-0.1,0.3-0.4,0.3h-1.5c-0.3,0-0.4-0.1-0.5-0.3l-1.9-5.3h-9.1l-1.9,5.3
		c-0.1,0.3-0.3,0.3-0.4,0.3h-1.5c-0.2,0-0.4-0.1-0.4-0.3c0-0.1,0.1-0.4,0.2-0.6l7.1-19.6c0.1-0.3,0.2-0.5,0.5-0.5h1.7
		c0.3,0,0.5,0.2,0.5,0.5l7.3,19.8C244.9,692,245,692.2,245,692.3z M239.9,684.9l-3.8-10.7l-3.8,10.7H239.9z"/>
	<path class="st1" d="M261.5,692.6h-12.1c-0.3,0-0.5-0.2-0.5-0.5v-20c0-0.3,0.2-0.5,0.5-0.5h1.3c0.3,0,0.5,0.2,0.5,0.5v18.4h10.4
		c0.3,0,0.5,0.2,0.5,0.5v1.1C262,692.4,261.8,692.6,261.5,692.6z"/>
	<path class="st1" d="M285.9,673.7h-10.2v7.8h8.2c0.3,0,0.5,0.2,0.5,0.5v1.1c0,0.3-0.2,0.5-0.5,0.5h-8.2v8.4c0,0.3-0.2,0.5-0.5,0.5
		H274c-0.3,0-0.5-0.2-0.5-0.5v-20c0-0.3,0.2-0.5,0.5-0.5h11.9c0.3,0,0.5,0.2,0.5,0.5v1.1C286.4,673.5,286.2,673.7,285.9,673.7z"/>
	<path class="st1" d="M297,671.3c4.4,0,7.7,3.2,7.7,8.2v5.2c0,5-3.4,8.2-7.7,8.2c-4.4,0-7.7-3.2-7.7-8.2v-5.2
		C289.3,674.5,292.6,671.3,297,671.3z M297,690.8c3,0,5.4-2.2,5.4-6.1v-5.2c0-3.9-2.4-6.1-5.4-6.1s-5.4,2.2-5.4,6.1v5.2
		C291.6,688.6,294,690.8,297,690.8z"/>
	<path class="st1" d="M311.5,692.6h-1.3c-0.3,0-0.5-0.2-0.5-0.5v-20c0-0.3,0.2-0.5,0.5-0.5h7.2c3.8,0,6.5,2,6.5,6v0.4
		c0,2.6-1.4,4.8-4.5,5.7l4.3,8.1c0.1,0.2,0.1,0.3,0.1,0.4c0,0.2-0.1,0.3-0.3,0.3h-1.7c-0.3,0-0.4-0.2-0.5-0.4l-4.2-8.1h-5v8
		C312,692.4,311.8,692.6,311.5,692.6z M317.3,682c2.2,0,4.3-1.2,4.3-3.8v-0.5c0-3-2.1-3.9-4.3-3.9H312v8.2H317.3z"/>
	<path class="st1" d="M120.2,729.1v-20c0-0.3,0.2-0.5,0.5-0.5h1.3c0.3,0,0.5,0.2,0.5,0.5v20c0,0.3-0.2,0.5-0.5,0.5h-1.3
		C120.4,729.6,120.2,729.4,120.2,729.1z"/>
	<path class="st1" d="M143.3,709.1v20c0,0.3-0.2,0.5-0.5,0.5h-1c-0.2,0-0.5,0-0.8-0.6l-10.5-16.6v16.7c0,0.3-0.2,0.5-0.5,0.5h-1.2
		c-0.3,0-0.5-0.2-0.5-0.5v-20c0-0.3,0.2-0.5,0.5-0.5h1.5c0.3,0,0.5,0.2,0.6,0.4l10.3,16.3v-16.2c0-0.3,0.2-0.5,0.5-0.5h1.2
		C143,708.6,143.3,708.9,143.3,709.1z"/>
	<path class="st1" d="M149,729.1v-20c0-0.3,0.2-0.5,0.5-0.5h1.3c0.3,0,0.5,0.2,0.5,0.5v20c0,0.3-0.2,0.5-0.5,0.5h-1.3
		C149.2,729.6,149,729.4,149,729.1z"/>
	<path class="st1" d="M155,710.3v-1.1c0-0.3,0.2-0.5,0.5-0.5h14.9c0.3,0,0.5,0.2,0.5,0.5v1.1c0,0.3-0.2,0.5-0.5,0.5h-6.3v18.4
		c0,0.3-0.2,0.5-0.5,0.5h-1.3c-0.3,0-0.5-0.2-0.5-0.5v-18.4h-6.3C155.2,710.7,155,710.5,155,710.3z"/>
	<path class="st1" d="M174.7,729.1v-20c0-0.3,0.2-0.5,0.5-0.5h1.3c0.3,0,0.5,0.2,0.5,0.5v20c0,0.3-0.2,0.5-0.5,0.5h-1.3
		C174.9,729.6,174.7,729.4,174.7,729.1z"/>
	<path class="st1" d="M198.4,729.3c0,0.2-0.1,0.3-0.4,0.3h-1.5c-0.3,0-0.4-0.1-0.5-0.3l-1.9-5.3H185l-1.9,5.3
		c-0.1,0.3-0.3,0.3-0.4,0.3h-1.5c-0.2,0-0.4-0.1-0.4-0.3c0-0.1,0.1-0.4,0.2-0.6l7.1-19.6c0.1-0.3,0.2-0.5,0.5-0.5h1.7
		c0.3,0,0.5,0.2,0.5,0.5l7.3,19.8C198.3,729,198.4,729.2,198.4,729.3z M193.4,721.9l-3.8-10.7l-3.8,10.7H193.4z"/>
	<path class="st1" d="M214.9,729.6h-12.1c-0.3,0-0.5-0.2-0.5-0.5v-20c0-0.3,0.2-0.5,0.5-0.5h1.3c0.3,0,0.5,0.2,0.5,0.5v18.4h10.4
		c0.3,0,0.5,0.2,0.5,0.5v1.1C215.4,729.4,215.2,729.6,214.9,729.6z"/>
	<path class="st1" d="M241.7,723.6v0.4c0,4.3-3.4,5.6-7.1,5.6h-7.2c-0.3,0-0.5-0.2-0.5-0.5v-20c0-0.3,0.2-0.5,0.5-0.5h7.1
		c3.9,0,6.6,1.6,6.6,5.3v0.5c0,2-0.9,3.5-2.8,4.3C240.5,719.5,241.7,721.4,241.7,723.6z M229.2,717.7h5.5c2.2,0,4.2-0.7,4.2-3.2V714
		c0-2.6-2.1-3.2-4.4-3.2h-5.2V717.7z M239.4,723.6c0-2.9-2.3-3.8-4.7-3.8h-5.5v7.7h5.5c2.3,0,4.7-0.7,4.7-3.6V723.6z"/>
	<path class="st1" d="M259.1,708.6h1.3c0.3,0,0.5,0.2,0.5,0.5v12.7c0,5-3.1,8.1-7.4,8.1c-4.3,0-7.4-3.1-7.4-8.1v-12.7
		c0-0.3,0.2-0.5,0.5-0.5h1.3c0.3,0,0.5,0.2,0.5,0.5v12.7c0,3.8,2.1,6,5.1,6c2.9,0,5.1-2.2,5.1-6v-12.7
		C258.6,708.9,258.8,708.6,259.1,708.6z"/>
	<path class="st1" d="M266.3,729.1v-20c0-0.3,0.2-0.5,0.5-0.5h1.3c0.3,0,0.5,0.2,0.5,0.5v20c0,0.3-0.2,0.5-0.5,0.5h-1.3
		C266.5,729.6,266.3,729.4,266.3,729.1z"/>
	<path class="st1" d="M286.9,729.6h-12.1c-0.3,0-0.5-0.2-0.5-0.5v-20c0-0.3,0.2-0.5,0.5-0.5h1.3c0.3,0,0.5,0.2,0.5,0.5v18.4h10.4
		c0.3,0,0.5,0.2,0.5,0.5v1.1C287.4,729.4,287.2,729.6,286.9,729.6z"/>
	<path class="st1" d="M291.4,729.1v-20c0-0.3,0.2-0.5,0.5-0.5h6.6c4.4,0,7.7,3.2,7.7,8.2v4.6c0,5-3.4,8.2-7.7,8.2h-6.6
		C291.6,729.6,291.4,729.4,291.4,729.1z M293.7,727.5h4.8c3,0,5.4-2.2,5.4-6.1v-4.6c0-3.8-2.4-6.1-5.4-6.1h-4.8V727.5z"/>
	<path class="st1" d="M325.7,708.3c4.4,0,7.7,3.2,7.7,8.2v5.2c0,5-3.4,8.2-7.7,8.2c-4.4,0-7.7-3.2-7.7-8.2v-5.2
		C318,711.5,321.4,708.3,325.7,708.3z M325.7,727.8c3,0,5.4-2.2,5.4-6.1v-5.2c0-3.9-2.4-6.1-5.4-6.1s-5.4,2.2-5.4,6.1v5.2
		C320.3,725.6,322.7,727.8,325.7,727.8z"/>
	<path class="st1" d="M340.2,729.6h-1.3c-0.3,0-0.5-0.2-0.5-0.5v-20c0-0.3,0.2-0.5,0.5-0.5h7.2c3.8,0,6.5,2,6.5,6v0.4
		c0,2.6-1.4,4.8-4.5,5.7l4.3,8.1c0.1,0.2,0.1,0.3,0.1,0.4c0,0.2-0.1,0.3-0.3,0.3h-1.7c-0.3,0-0.4-0.2-0.5-0.4l-4.2-8.1h-5v8
		C340.7,729.4,340.5,729.6,340.2,729.6z M346,719c2.2,0,4.3-1.2,4.3-3.8v-0.5c0-3-2.1-3.9-4.3-3.9h-5.3v8.2H346z"/>
	<path class="st1" d="M171.4,747.7h-10.2v7.2h8.2c0.3,0,0.5,0.2,0.5,0.5v1.1c0,0.3-0.2,0.5-0.5,0.5h-8.2v7.4h10.2
		c0.3,0,0.5,0.2,0.5,0.5v1.1c0,0.3-0.2,0.5-0.5,0.5h-11.9c-0.3,0-0.5-0.2-0.5-0.5v-20c0-0.3,0.2-0.5,0.5-0.5h11.9
		c0.3,0,0.5,0.2,0.5,0.5v1.1C171.9,747.5,171.7,747.7,171.4,747.7z"/>
	<path class="st1" d="M190.6,766.3c0,0.2-0.1,0.3-0.3,0.3h-1.6c-0.4,0-0.6-0.2-0.8-0.4l-5.4-8.3l-5.4,8.3c-0.1,0.2-0.3,0.4-0.7,0.4
		H175c-0.2,0-0.3-0.1-0.3-0.3c0-0.1,0.1-0.3,0.2-0.4l6.4-9.8l-6.2-9.5c-0.1-0.2-0.3-0.4-0.3-0.6c0-0.2,0.1-0.3,0.4-0.3h1.6
		c0.3,0,0.5,0.2,0.7,0.5l5.3,8.1l5.3-8.1c0.2-0.3,0.4-0.5,0.7-0.5h1.5c0.2,0,0.3,0.2,0.3,0.3s-0.1,0.4-0.2,0.5L184,756l6.4,9.7
		C190.4,765.9,190.6,766.1,190.6,766.3z"/>
	<path class="st1" d="M202.2,758.7h-5.4v7.4c0,0.3-0.2,0.5-0.5,0.5H195c-0.3,0-0.5-0.2-0.5-0.5v-20c0-0.3,0.2-0.5,0.5-0.5h7.2
		c3.8,0,6.5,2.1,6.5,6.1v0.6C208.7,756.3,206,758.7,202.2,758.7z M196.8,747.7v8.8h5.3c2.2,0,4.3-1.3,4.3-4.2v-0.6c0-3-2.1-4-4.3-4
		H196.8z"/>
	<path class="st1" d="M226.9,766.3c0,0.2-0.1,0.3-0.4,0.3H225c-0.3,0-0.4-0.1-0.5-0.3l-1.9-5.3h-9.1l-1.9,5.3
		c-0.1,0.3-0.3,0.3-0.4,0.3h-1.5c-0.2,0-0.4-0.1-0.4-0.3c0-0.1,0.1-0.4,0.2-0.6l7.1-19.6c0.1-0.3,0.2-0.5,0.5-0.5h1.7
		c0.3,0,0.5,0.2,0.5,0.5l7.3,19.8C226.8,766,226.9,766.2,226.9,766.3z M221.9,758.9l-3.8-10.7l-3.8,10.7H221.9z"/>
	<path class="st1" d="M245.9,746.1v20c0,0.3-0.2,0.5-0.5,0.5h-1c-0.2,0-0.5,0-0.8-0.6L233,749.4v16.7c0,0.3-0.2,0.5-0.5,0.5h-1.2
		c-0.3,0-0.5-0.2-0.5-0.5v-20c0-0.3,0.2-0.5,0.5-0.5h1.5c0.3,0,0.5,0.2,0.6,0.4l10.3,16.3v-16.2c0-0.3,0.2-0.5,0.5-0.5h1.2
		C245.7,745.6,245.9,745.9,245.9,746.1z"/>
	<path class="st1" d="M262.6,750.8c-0.1-1.8-1-3.4-4.5-3.4c-2.7,0-4.6,0.7-4.6,3.5c0,6.1,11.9,2.3,11.9,10.2c0,4.3-3.7,5.8-7.2,5.8
		c-5.7,0-7.6-4-7.6-6.4c0-0.3,0.2-0.5,0.5-0.5h1.3c0.3,0,0.5,0.2,0.5,0.5c0.1,1.3,0.9,4.4,5.3,4.4c2.8,0,4.9-1,4.9-3.8
		c0-5.6-11.9-1.9-11.9-10.2c0-3.8,2.9-5.5,6.9-5.5c5.3,0,6.7,3.3,6.7,5.5c0,0.3-0.2,0.5-0.5,0.5h-1.3
		C262.8,751.3,262.6,751.1,262.6,750.8z"/>
	<path class="st1" d="M270,766.1v-20c0-0.3,0.2-0.5,0.5-0.5h1.3c0.3,0,0.5,0.2,0.5,0.5v20c0,0.3-0.2,0.5-0.5,0.5h-1.3
		C270.2,766.6,270,766.4,270,766.1z"/>
	<path class="st1" d="M285,745.3c4.4,0,7.7,3.2,7.7,8.2v5.2c0,5-3.4,8.2-7.7,8.2c-4.4,0-7.7-3.2-7.7-8.2v-5.2
		C277.3,748.5,280.6,745.3,285,745.3z M285,764.8c3,0,5.4-2.2,5.4-6.1v-5.2c0-3.9-2.4-6.1-5.4-6.1s-5.4,2.2-5.4,6.1v5.2
		C279.6,762.6,282,764.8,285,764.8z"/>
	<path class="st1" d="M312.8,746.1v20c0,0.3-0.2,0.5-0.5,0.5h-1c-0.2,0-0.5,0-0.8-0.6L300,749.4v16.7c0,0.3-0.2,0.5-0.5,0.5h-1.2
		c-0.3,0-0.5-0.2-0.5-0.5v-20c0-0.3,0.2-0.5,0.5-0.5h1.5c0.3,0,0.5,0.2,0.6,0.4l10.3,16.3v-16.2c0-0.3,0.2-0.5,0.5-0.5h1.2
		C312.6,745.6,312.8,745.9,312.8,746.1z"/>
</g>
<g>
	<path class="st1" d="M467.9,685.9c-0.2,3.7-3.2,7-7.5,7c-4.4,0-7.7-3.2-7.7-8.2v-5.2c0-5,3.3-8.2,7.7-8.2c4.4,0,7.1,3,7.5,6.7
		c0,0.3-0.1,0.5-0.4,0.5h-1.5c-0.2,0-0.3-0.1-0.4-0.5c-0.4-2.5-2.2-4.6-5.2-4.6s-5.4,2.2-5.4,6.1v5.2c0,3.8,2.4,6.1,5.4,6.1
		c3,0,4.9-2,5.2-4.9c0-0.2,0.1-0.4,0.4-0.4h1.6C467.7,685.5,467.9,685.7,467.9,685.9z"/>
	<path class="st1" d="M479.7,671.3c4.4,0,7.7,3.2,7.7,8.2v5.2c0,5-3.4,8.2-7.7,8.2c-4.4,0-7.7-3.2-7.7-8.2v-5.2
		C472,674.5,475.4,671.3,479.7,671.3z M479.7,690.8c3,0,5.4-2.2,5.4-6.1v-5.2c0-3.9-2.4-6.1-5.4-6.1s-5.4,2.2-5.4,6.1v5.2
		C474.3,688.6,476.7,690.8,479.7,690.8z"/>
	<path class="st1" d="M507.5,672.1v20c0,0.3-0.2,0.5-0.5,0.5h-1c-0.2,0-0.5,0-0.8-0.6l-10.5-16.6v16.7c0,0.3-0.2,0.5-0.5,0.5h-1.2
		c-0.3,0-0.5-0.2-0.5-0.5v-20c0-0.3,0.2-0.5,0.5-0.5h1.5c0.3,0,0.5,0.2,0.6,0.4l10.3,16.3v-16.2c0-0.3,0.2-0.5,0.5-0.5h1.2
		C507.3,671.6,507.5,671.9,507.5,672.1z"/>
	<path class="st1" d="M524.2,676.8c-0.1-1.8-1-3.4-4.5-3.4c-2.7,0-4.6,0.7-4.6,3.5c0,6.1,11.9,2.3,11.9,10.2c0,4.3-3.7,5.8-7.2,5.8
		c-5.7,0-7.6-4-7.6-6.4c0-0.3,0.2-0.5,0.5-0.5h1.3c0.3,0,0.5,0.2,0.5,0.5c0.1,1.3,0.9,4.4,5.3,4.4c2.8,0,4.9-1,4.9-3.8
		c0-5.6-11.9-1.9-11.9-10.2c0-3.8,2.9-5.5,6.9-5.5c5.3,0,6.7,3.3,6.7,5.5c0,0.3-0.2,0.5-0.5,0.5h-1.3
		C524.4,677.3,524.3,677.1,524.2,676.8z"/>
	<path class="st1" d="M529.5,673.3v-1.1c0-0.3,0.2-0.5,0.5-0.5h14.9c0.3,0,0.5,0.2,0.5,0.5v1.1c0,0.3-0.2,0.5-0.5,0.5h-6.3v18.4
		c0,0.3-0.2,0.5-0.5,0.5h-1.3c-0.3,0-0.5-0.2-0.5-0.5v-18.4H530C529.7,673.7,529.5,673.5,529.5,673.3z"/>
	<path class="st1" d="M551,692.6h-1.3c-0.3,0-0.5-0.2-0.5-0.5v-20c0-0.3,0.2-0.5,0.5-0.5h7.2c3.8,0,6.5,2,6.5,6v0.4
		c0,2.6-1.4,4.8-4.5,5.7l4.3,8.1c0.1,0.2,0.1,0.3,0.1,0.4c0,0.2-0.1,0.3-0.3,0.3h-1.7c-0.3,0-0.4-0.2-0.5-0.4l-4.2-8.1h-5v8
		C551.5,692.4,551.3,692.6,551,692.6z M556.7,682c2.2,0,4.3-1.2,4.3-3.8v-0.5c0-3-2.1-3.9-4.3-3.9h-5.3v8.2H556.7z"/>
	<path class="st1" d="M580.8,671.6h1.3c0.3,0,0.5,0.2,0.5,0.5v12.7c0,5-3.1,8.1-7.4,8.1s-7.4-3.1-7.4-8.1v-12.7
		c0-0.3,0.2-0.5,0.5-0.5h1.3c0.3,0,0.5,0.2,0.5,0.5v12.7c0,3.8,2.1,6,5.1,6c2.9,0,5.1-2.2,5.1-6v-12.7
		C580.3,671.9,580.5,671.6,580.8,671.6z"/>
	<path class="st1" d="M602.5,685.9c-0.2,3.7-3.2,7-7.5,7c-4.4,0-7.7-3.2-7.7-8.2v-5.2c0-5,3.3-8.2,7.7-8.2c4.4,0,7.1,3,7.5,6.7
		c0,0.3-0.1,0.5-0.4,0.5h-1.5c-0.2,0-0.3-0.1-0.4-0.5c-0.4-2.5-2.2-4.6-5.2-4.6s-5.4,2.2-5.4,6.1v5.2c0,3.8,2.4,6.1,5.4,6.1
		c3,0,4.9-2,5.2-4.9c0-0.2,0.1-0.4,0.4-0.4h1.6C602.4,685.5,602.5,685.7,602.5,685.9z"/>
	<path class="st1" d="M605.1,673.3v-1.1c0-0.3,0.2-0.5,0.5-0.5h14.9c0.3,0,0.5,0.2,0.5,0.5v1.1c0,0.3-0.2,0.5-0.5,0.5h-6.3v18.4
		c0,0.3-0.2,0.5-0.5,0.5h-1.3c-0.3,0-0.5-0.2-0.5-0.5v-18.4h-6.3C605.3,673.7,605.1,673.5,605.1,673.3z"/>
	<path class="st1" d="M624.8,692.1v-20c0-0.3,0.2-0.5,0.5-0.5h1.3c0.3,0,0.5,0.2,0.5,0.5v20c0,0.3-0.2,0.5-0.5,0.5h-1.3
		C625,692.6,624.8,692.4,624.8,692.1z"/>
	<path class="st1" d="M639.7,671.3c4.4,0,7.7,3.2,7.7,8.2v5.2c0,5-3.4,8.2-7.7,8.2c-4.4,0-7.7-3.2-7.7-8.2v-5.2
		C632,674.5,635.4,671.3,639.7,671.3z M639.8,690.8c3,0,5.4-2.2,5.4-6.1v-5.2c0-3.9-2.4-6.1-5.4-6.1s-5.4,2.2-5.4,6.1v5.2
		C634.3,688.6,636.8,690.8,639.8,690.8z"/>
	<path class="st1" d="M667.6,672.1v20c0,0.3-0.2,0.5-0.5,0.5h-1c-0.2,0-0.5,0-0.8-0.6l-10.5-16.6v16.7c0,0.3-0.2,0.5-0.5,0.5H653
		c-0.3,0-0.5-0.2-0.5-0.5v-20c0-0.3,0.2-0.5,0.5-0.5h1.5c0.3,0,0.5,0.2,0.6,0.4l10.3,16.3v-16.2c0-0.3,0.2-0.5,0.5-0.5h1.2
		C667.3,671.6,667.6,671.9,667.6,672.1z"/>
	<path class="st1" d="M481,709.1v20c0,0.3-0.2,0.5-0.5,0.5h-1.2c-0.3,0-0.5-0.2-0.5-0.5v-17.3l-6.7,17.4c-0.1,0.2-0.3,0.4-0.5,0.4
		h-1.2c-0.3,0-0.4-0.1-0.5-0.3l-6.7-17.5v17.3c0,0.3-0.2,0.5-0.5,0.5h-1.2c-0.3,0-0.5-0.2-0.5-0.5v-20c0-0.3,0.2-0.5,0.5-0.5h2.4
		c0.2,0,0.4,0.1,0.4,0.3l6.6,17.5l6.7-17.5c0.1-0.2,0.2-0.3,0.4-0.3h2.3C480.8,708.6,481,708.9,481,709.1z"/>
	<path class="st1" d="M502.5,729.3c0,0.2-0.1,0.3-0.4,0.3h-1.5c-0.3,0-0.4-0.1-0.5-0.3l-1.9-5.3h-9.1l-1.9,5.3
		c-0.1,0.3-0.3,0.3-0.4,0.3h-1.5c-0.2,0-0.4-0.1-0.4-0.3c0-0.1,0.1-0.4,0.2-0.6l7.1-19.6c0.1-0.3,0.2-0.5,0.5-0.5h1.7
		c0.3,0,0.5,0.2,0.5,0.5l7.3,19.8C502.4,729,502.5,729.2,502.5,729.3z M497.5,721.9l-3.8-10.7l-3.8,10.7H497.5z"/>
	<path class="st1" d="M521.5,709.1v20c0,0.3-0.2,0.5-0.5,0.5h-1c-0.2,0-0.5,0-0.8-0.6l-10.5-16.6v16.7c0,0.3-0.2,0.5-0.5,0.5h-1.2
		c-0.3,0-0.5-0.2-0.5-0.5v-20c0-0.3,0.2-0.5,0.5-0.5h1.5c0.3,0,0.5,0.2,0.6,0.4l10.3,16.3v-16.2c0-0.3,0.2-0.5,0.5-0.5h1.2
		C521.2,708.6,521.5,708.9,521.5,709.1z"/>
	<path class="st1" d="M542.8,729.3c0,0.2-0.1,0.3-0.4,0.3H541c-0.3,0-0.4-0.1-0.5-0.3l-1.9-5.3h-9.1l-1.9,5.3
		c-0.1,0.3-0.3,0.3-0.4,0.3h-1.5c-0.2,0-0.4-0.1-0.4-0.3c0-0.1,0.1-0.4,0.2-0.6l7.1-19.6c0.1-0.3,0.2-0.5,0.5-0.5h1.7
		c0.3,0,0.5,0.2,0.5,0.5l7.3,19.8C542.8,729,542.8,729.2,542.8,729.3z M537.8,721.9l-3.8-10.7l-3.8,10.7H537.8z"/>
	<path class="st1" d="M552.9,720.5v-1.1c0-0.3,0.2-0.5,0.5-0.5h6.8c0.3,0,0.5,0.2,0.5,0.5v9.7c0,0.3-0.2,0.5-0.5,0.5h-1
		c-0.3,0-0.5-0.2-0.5-0.5V727c-1,1.8-3.1,2.9-5.5,2.9c-4.8,0-7.6-3.7-7.6-8.2v-5.2c0-5,3.3-8.2,7.7-8.2c4.4,0,6.9,2.9,7.5,6.4
		c0.1,0.2,0.1,0.4,0.1,0.5c0,0.2-0.1,0.3-0.3,0.3h-1.6c-0.2,0-0.4-0.1-0.4-0.5c-0.3-2.2-2-4.6-5.2-4.6c-3,0-5.4,2.2-5.4,6.1v5.2
		c0,3.8,2.5,6.1,5.5,6.1c3.8,0,5.3-3.1,5.3-5.2V721h-5.2C553.1,721,552.9,720.8,552.9,720.5z"/>
	<path class="st1" d="M578.7,710.7h-10.2v7.2h8.2c0.3,0,0.5,0.2,0.5,0.5v1.1c0,0.3-0.2,0.5-0.5,0.5h-8.2v7.4h10.2
		c0.3,0,0.5,0.2,0.5,0.5v1.1c0,0.3-0.2,0.5-0.5,0.5h-11.9c-0.3,0-0.5-0.2-0.5-0.5v-20c0-0.3,0.2-0.5,0.5-0.5h11.9
		c0.3,0,0.5,0.2,0.5,0.5v1.1C579.2,710.5,579,710.7,578.7,710.7z"/>
	<path class="st1" d="M603.7,709.1v20c0,0.3-0.2,0.5-0.5,0.5H602c-0.3,0-0.5-0.2-0.5-0.5v-17.3l-6.7,17.4c-0.1,0.2-0.3,0.4-0.5,0.4
		h-1.2c-0.3,0-0.4-0.1-0.5-0.3l-6.7-17.5v17.3c0,0.3-0.2,0.5-0.5,0.5h-1.2c-0.3,0-0.5-0.2-0.5-0.5v-20c0-0.3,0.2-0.5,0.5-0.5h2.4
		c0.2,0,0.4,0.1,0.4,0.3l6.6,17.5l6.7-17.5c0.1-0.2,0.2-0.3,0.4-0.3h2.3C603.5,708.6,603.7,708.9,603.7,709.1z"/>
	<path class="st1" d="M621.9,710.7h-10.2v7.2h8.2c0.3,0,0.5,0.2,0.5,0.5v1.1c0,0.3-0.2,0.5-0.5,0.5h-8.2v7.4h10.2
		c0.3,0,0.5,0.2,0.5,0.5v1.1c0,0.3-0.2,0.5-0.5,0.5H610c-0.3,0-0.5-0.2-0.5-0.5v-20c0-0.3,0.2-0.5,0.5-0.5h11.9
		c0.3,0,0.5,0.2,0.5,0.5v1.1C622.4,710.5,622.2,710.7,621.9,710.7z"/>
	<path class="st1" d="M642.1,709.1v20c0,0.3-0.2,0.5-0.5,0.5h-1c-0.2,0-0.5,0-0.8-0.6l-10.5-16.6v16.7c0,0.3-0.2,0.5-0.5,0.5h-1.2
		c-0.3,0-0.5-0.2-0.5-0.5v-20c0-0.3,0.2-0.5,0.5-0.5h1.5c0.3,0,0.5,0.2,0.6,0.4l10.3,16.3v-16.2c0-0.3,0.2-0.5,0.5-0.5h1.2
		C641.8,708.6,642.1,708.9,642.1,709.1z"/>
	<path class="st1" d="M645.8,710.3v-1.1c0-0.3,0.2-0.5,0.5-0.5h14.9c0.3,0,0.5,0.2,0.5,0.5v1.1c0,0.3-0.2,0.5-0.5,0.5h-6.3v18.4
		c0,0.3-0.2,0.5-0.5,0.5h-1.3c-0.3,0-0.5-0.2-0.5-0.5v-18.4h-6.3C646,710.7,645.8,710.5,645.8,710.3z"/>
</g>
<g>
	<path class="st1" d="M771.2,683.5v-1.1c0-0.3,0.2-0.5,0.5-0.5h6.8c0.3,0,0.5,0.2,0.5,0.5v9.7c0,0.3-0.2,0.5-0.5,0.5h-1
		c-0.3,0-0.5-0.2-0.5-0.5V690c-1,1.8-3.1,2.9-5.5,2.9c-4.8,0-7.6-3.7-7.6-8.2v-5.2c0-5,3.3-8.2,7.7-8.2c4.4,0,6.9,2.9,7.5,6.4
		c0.1,0.2,0.1,0.4,0.1,0.5c0,0.2-0.1,0.3-0.3,0.3h-1.6c-0.2,0-0.4-0.1-0.4-0.5c-0.3-2.2-2-4.6-5.2-4.6c-3,0-5.4,2.2-5.4,6.1v5.2
		c0,3.8,2.5,6.1,5.5,6.1c3.8,0,5.3-3.1,5.3-5.2V684h-5.2C771.4,684,771.2,683.8,771.2,683.5z"/>
	<path class="st1" d="M797,673.7h-10.2v7.2h8.2c0.3,0,0.5,0.2,0.5,0.5v1.1c0,0.3-0.2,0.5-0.5,0.5h-8.2v7.4H797
		c0.3,0,0.5,0.2,0.5,0.5v1.1c0,0.3-0.2,0.5-0.5,0.5h-11.9c-0.3,0-0.5-0.2-0.5-0.5v-20c0-0.3,0.2-0.5,0.5-0.5H797
		c0.3,0,0.5,0.2,0.5,0.5v1.1C797.5,673.5,797.3,673.7,797,673.7z"/>
	<path class="st1" d="M817.2,672.1v20c0,0.3-0.2,0.5-0.5,0.5h-1c-0.2,0-0.5,0-0.8-0.6l-10.5-16.6v16.7c0,0.3-0.2,0.5-0.5,0.5h-1.2
		c-0.3,0-0.5-0.2-0.5-0.5v-20c0-0.3,0.2-0.5,0.5-0.5h1.5c0.3,0,0.5,0.2,0.6,0.4l10.3,16.3v-16.2c0-0.3,0.2-0.5,0.5-0.5h1.2
		C817,671.6,817.2,671.9,817.2,672.1z"/>
	<path class="st1" d="M835.3,673.7h-10.2v7.2h8.2c0.3,0,0.5,0.2,0.5,0.5v1.1c0,0.3-0.2,0.5-0.5,0.5h-8.2v7.4h10.2
		c0.3,0,0.5,0.2,0.5,0.5v1.1c0,0.3-0.2,0.5-0.5,0.5h-11.9c-0.3,0-0.5-0.2-0.5-0.5v-20c0-0.3,0.2-0.5,0.5-0.5h11.9
		c0.3,0,0.5,0.2,0.5,0.5v1.1C835.9,673.5,835.6,673.7,835.3,673.7z"/>
	<path class="st1" d="M838.5,673.3v-1.1c0-0.3,0.2-0.5,0.5-0.5h14.9c0.3,0,0.5,0.2,0.5,0.5v1.1c0,0.3-0.2,0.5-0.5,0.5h-6.3v18.4
		c0,0.3-0.2,0.5-0.5,0.5h-1.3c-0.3,0-0.5-0.2-0.5-0.5v-18.4h-6.3C838.7,673.7,838.5,673.5,838.5,673.3z"/>
	<path class="st1" d="M858.1,692.1v-20c0-0.3,0.2-0.5,0.5-0.5h1.3c0.3,0,0.5,0.2,0.5,0.5v20c0,0.3-0.2,0.5-0.5,0.5h-1.3
		C858.4,692.6,858.1,692.4,858.1,692.1z"/>
	<path class="st1" d="M880.7,685.9c-0.2,3.7-3.2,7-7.5,7c-4.4,0-7.7-3.2-7.7-8.2v-5.2c0-5,3.3-8.2,7.7-8.2c4.4,0,7.1,3,7.5,6.7
		c0,0.3-0.1,0.5-0.4,0.5h-1.5c-0.2,0-0.3-0.1-0.4-0.5c-0.4-2.5-2.2-4.6-5.2-4.6s-5.4,2.2-5.4,6.1v5.2c0,3.8,2.4,6.1,5.4,6.1
		c3,0,4.9-2,5.2-4.9c0-0.2,0.1-0.4,0.4-0.4h1.6C880.5,685.5,880.7,685.7,880.7,685.9z"/>
	<path class="st1" d="M896.5,676.8c-0.1-1.8-1-3.4-4.5-3.4c-2.7,0-4.6,0.7-4.6,3.5c0,6.1,11.9,2.3,11.9,10.2c0,4.3-3.7,5.8-7.2,5.8
		c-5.7,0-7.6-4-7.6-6.4c0-0.3,0.2-0.5,0.5-0.5h1.3c0.3,0,0.5,0.2,0.5,0.5c0.1,1.3,0.9,4.4,5.3,4.4c2.8,0,4.9-1,4.9-3.8
		c0-5.6-11.9-1.9-11.9-10.2c0-3.8,2.9-5.5,6.9-5.5c5.3,0,6.7,3.3,6.7,5.5c0,0.3-0.2,0.5-0.5,0.5H897
		C896.7,677.3,896.5,677.1,896.5,676.8z"/>
	<path class="st1" d="M917.4,692.9c-5.1,0-6.8-3.1-6.8-5.6c0-2.9,1.8-4.5,4-5.9c-1-1.2-2.5-2.9-2.5-5.2c0-3.7,3-4.9,5.5-4.9
		c3.2,0,5.1,2.2,5.1,4.8c0,2.9-2.5,4.3-5,5.7l4.9,5.5c0.8-1.7,0.9-3.8,0.9-4.9c0-0.3,0.2-0.5,0.5-0.5h1.1c0.3,0,0.5,0.2,0.5,0.5
		c0,1.3-0.2,4.2-1.5,6.7l2.4,2.7c0.1,0.1,0.3,0.3,0.3,0.5c0,0.2-0.1,0.3-0.3,0.3h-1.7c-0.2,0-0.3-0.1-0.5-0.2l-1.5-1.7
		C921.6,692,919.8,692.9,917.4,692.9z M915.9,682.9c-1.8,1.1-3.1,2.3-3.1,4.3c0,1.8,1.2,3.6,4.6,3.6c1.8,0,3.1-0.7,4.1-1.7
		L915.9,682.9z M920.5,676.1c0-2-1.4-2.8-2.9-2.8c-2.5,0-3.3,1.4-3.3,2.9c0,1.4,0.6,2.5,2.1,4.2
		C918.5,679.2,920.5,678.2,920.5,676.1z"/>
	<path class="st1" d="M772.5,722.9c-0.2,3.7-3.2,7-7.5,7c-4.4,0-7.7-3.2-7.7-8.2v-5.2c0-5,3.3-8.2,7.7-8.2c4.4,0,7.1,3,7.5,6.7
		c0,0.3-0.1,0.5-0.4,0.5h-1.5c-0.2,0-0.3-0.1-0.4-0.5c-0.4-2.5-2.2-4.6-5.2-4.6s-5.4,2.2-5.4,6.1v5.2c0,3.8,2.4,6.1,5.4,6.1
		c3,0,4.9-2,5.2-4.9c0-0.2,0.1-0.4,0.4-0.4h1.6C772.3,722.5,772.5,722.7,772.5,722.9z"/>
	<path class="st1" d="M790,708.6h1.3c0.3,0,0.5,0.2,0.5,0.5v12.7c0,5-3.1,8.1-7.4,8.1s-7.4-3.1-7.4-8.1v-12.7c0-0.3,0.2-0.5,0.5-0.5
		h1.3c0.3,0,0.5,0.2,0.5,0.5v12.7c0,3.8,2.1,6,5.1,6c2.9,0,5.1-2.2,5.1-6v-12.7C789.5,708.9,789.7,708.6,790,708.6z"/>
	<path class="st1" d="M809.9,729.6h-12.1c-0.3,0-0.5-0.2-0.5-0.5v-20c0-0.3,0.2-0.5,0.5-0.5h1.3c0.3,0,0.5,0.2,0.5,0.5v18.4h10.4
		c0.3,0,0.5,0.2,0.5,0.5v1.1C810.4,729.4,810.2,729.6,809.9,729.6z"/>
	<path class="st1" d="M809.5,710.3v-1.1c0-0.3,0.2-0.5,0.5-0.5h14.9c0.3,0,0.5,0.2,0.5,0.5v1.1c0,0.3-0.2,0.5-0.5,0.5h-6.3v18.4
		c0,0.3-0.2,0.5-0.5,0.5h-1.3c-0.3,0-0.5-0.2-0.5-0.5v-18.4H810C809.8,710.7,809.5,710.5,809.5,710.3z"/>
	<path class="st1" d="M829.2,729.1v-20c0-0.3,0.2-0.5,0.5-0.5h1.3c0.3,0,0.5,0.2,0.5,0.5v20c0,0.3-0.2,0.5-0.5,0.5h-1.3
		C829.4,729.6,829.2,729.4,829.2,729.1z"/>
	<path class="st1" d="M852.7,708.9c0,0.1-0.1,0.4-0.1,0.6l-7.3,19.7c-0.1,0.2-0.2,0.4-0.5,0.4h-1.6c-0.2,0-0.4-0.1-0.5-0.4
		l-7.3-19.9c0-0.1-0.1-0.3-0.1-0.4c0-0.2,0.1-0.3,0.3-0.3h1.5c0.3,0,0.5,0.2,0.6,0.6l6.3,17.6l6.4-17.7c0.1-0.3,0.2-0.5,0.5-0.5h1.5
		C852.6,708.6,852.7,708.8,852.7,708.9z"/>
	<path class="st1" d="M869.9,729.3c0,0.2-0.1,0.3-0.4,0.3H868c-0.3,0-0.4-0.1-0.5-0.3l-1.9-5.3h-9.1l-1.9,5.3
		c-0.1,0.3-0.3,0.3-0.4,0.3h-1.5c-0.2,0-0.4-0.1-0.4-0.3c0-0.1,0.1-0.4,0.2-0.6l7.1-19.6c0.1-0.3,0.2-0.5,0.5-0.5h1.7
		c0.3,0,0.5,0.2,0.5,0.5l7.3,19.8C869.8,729,869.9,729.2,869.9,729.3z M864.9,721.9l-3.8-10.7l-3.8,10.7H864.9z"/>
	<path class="st1" d="M869.3,710.3v-1.1c0-0.3,0.2-0.5,0.5-0.5h14.9c0.3,0,0.5,0.2,0.5,0.5v1.1c0,0.3-0.2,0.5-0.5,0.5h-6.3v18.4
		c0,0.3-0.2,0.5-0.5,0.5h-1.3c-0.3,0-0.5-0.2-0.5-0.5v-18.4h-6.3C869.5,710.7,869.3,710.5,869.3,710.3z"/>
	<path class="st1" d="M889,729.1v-20c0-0.3,0.2-0.5,0.5-0.5h1.3c0.3,0,0.5,0.2,0.5,0.5v20c0,0.3-0.2,0.5-0.5,0.5h-1.3
		C889.2,729.6,889,729.4,889,729.1z"/>
	<path class="st1" d="M903.9,708.3c4.4,0,7.7,3.2,7.7,8.2v5.2c0,5-3.4,8.2-7.7,8.2c-4.4,0-7.7-3.2-7.7-8.2v-5.2
		C896.3,711.5,899.6,708.3,903.9,708.3z M904,727.8c3,0,5.4-2.2,5.4-6.1v-5.2c0-3.9-2.4-6.1-5.4-6.1s-5.4,2.2-5.4,6.1v5.2
		C898.5,725.6,901,727.8,904,727.8z"/>
	<path class="st1" d="M931.8,709.1v20c0,0.3-0.2,0.5-0.5,0.5h-1c-0.2,0-0.5,0-0.8-0.6l-10.5-16.6v16.7c0,0.3-0.2,0.5-0.5,0.5h-1.2
		c-0.3,0-0.5-0.2-0.5-0.5v-20c0-0.3,0.2-0.5,0.5-0.5h1.5c0.3,0,0.5,0.2,0.6,0.4l10.3,16.3v-16.2c0-0.3,0.2-0.5,0.5-0.5h1.2
		C931.5,708.6,931.8,708.9,931.8,709.1z"/>
	<path class="st1" d="M784.2,747.7h-10.2v7.2h8.2c0.3,0,0.5,0.2,0.5,0.5v1.1c0,0.3-0.2,0.5-0.5,0.5h-8.2v7.4h10.2
		c0.3,0,0.5,0.2,0.5,0.5v1.1c0,0.3-0.2,0.5-0.5,0.5h-11.9c-0.3,0-0.5-0.2-0.5-0.5v-20c0-0.3,0.2-0.5,0.5-0.5h11.9
		c0.3,0,0.5,0.2,0.5,0.5v1.1C784.7,747.5,784.5,747.7,784.2,747.7z"/>
	<path class="st1" d="M803.4,766.3c0,0.2-0.1,0.3-0.3,0.3h-1.6c-0.4,0-0.6-0.2-0.8-0.4l-5.4-8.3l-5.4,8.3c-0.1,0.2-0.3,0.4-0.7,0.4
		h-1.4c-0.2,0-0.3-0.1-0.3-0.3c0-0.1,0.1-0.3,0.2-0.4l6.4-9.8l-6.2-9.5c-0.1-0.2-0.3-0.4-0.3-0.6c0-0.2,0.1-0.3,0.4-0.3h1.6
		c0.3,0,0.5,0.2,0.7,0.5l5.3,8.1l5.3-8.1c0.2-0.3,0.4-0.5,0.7-0.5h1.5c0.2,0,0.3,0.2,0.3,0.3s-0.1,0.4-0.2,0.5l-6.3,9.6l6.4,9.7
		C803.2,765.9,803.4,766.1,803.4,766.3z"/>
	<path class="st1" d="M815,758.7h-5.4v7.4c0,0.3-0.2,0.5-0.5,0.5h-1.3c-0.3,0-0.5-0.2-0.5-0.5v-20c0-0.3,0.2-0.5,0.5-0.5h7.2
		c3.8,0,6.5,2.1,6.5,6.1v0.6C821.5,756.3,818.8,758.7,815,758.7z M809.6,747.7v8.8h5.3c2.2,0,4.3-1.3,4.3-4.2v-0.6c0-3-2.1-4-4.3-4
		H809.6z"/>
	<path class="st1" d="M838.3,747.7h-10.2v7.2h8.2c0.3,0,0.5,0.2,0.5,0.5v1.1c0,0.3-0.2,0.5-0.5,0.5h-8.2v7.4h10.2
		c0.3,0,0.5,0.2,0.5,0.5v1.1c0,0.3-0.2,0.5-0.5,0.5h-11.9c-0.3,0-0.5-0.2-0.5-0.5v-20c0-0.3,0.2-0.5,0.5-0.5h11.9
		c0.3,0,0.5,0.2,0.5,0.5v1.1C838.8,747.5,838.6,747.7,838.3,747.7z"/>
	<path class="st1" d="M845.1,766.6h-1.3c-0.3,0-0.5-0.2-0.5-0.5v-20c0-0.3,0.2-0.5,0.5-0.5h7.2c3.8,0,6.5,2,6.5,6v0.4
		c0,2.6-1.4,4.8-4.5,5.7l4.3,8.1c0.1,0.2,0.1,0.3,0.1,0.4c0,0.2-0.1,0.3-0.3,0.3h-1.7c-0.3,0-0.4-0.2-0.5-0.4l-4.2-8.1h-5v8
		C845.6,766.4,845.4,766.6,845.1,766.6z M850.9,756c2.2,0,4.3-1.2,4.3-3.8v-0.5c0-3-2.1-3.9-4.3-3.9h-5.3v8.2H850.9z"/>
	<path class="st1" d="M860.1,747.3v-1.1c0-0.3,0.2-0.5,0.5-0.5h14.9c0.3,0,0.5,0.2,0.5,0.5v1.1c0,0.3-0.2,0.5-0.5,0.5h-6.3v18.4
		c0,0.3-0.2,0.5-0.5,0.5h-1.3c-0.3,0-0.5-0.2-0.5-0.5v-18.4h-6.3C860.3,747.7,860.1,747.5,860.1,747.3z"/>
	<path class="st1" d="M879.8,766.1v-20c0-0.3,0.2-0.5,0.5-0.5h1.3c0.3,0,0.5,0.2,0.5,0.5v20c0,0.3-0.2,0.5-0.5,0.5h-1.3
		C880,766.6,879.8,766.4,879.8,766.1z"/>
	<path class="st1" d="M898.7,750.8c-0.1-1.8-1-3.4-4.5-3.4c-2.7,0-4.6,0.7-4.6,3.5c0,6.1,11.9,2.3,11.9,10.2c0,4.3-3.7,5.8-7.2,5.8
		c-5.7,0-7.6-4-7.6-6.4c0-0.3,0.2-0.5,0.5-0.5h1.3c0.3,0,0.5,0.2,0.5,0.5c0.1,1.3,0.9,4.4,5.3,4.4c2.8,0,4.9-1,4.9-3.8
		c0-5.6-11.9-1.9-11.9-10.2c0-3.8,2.9-5.5,6.9-5.5c5.3,0,6.7,3.3,6.7,5.5c0,0.3-0.2,0.5-0.5,0.5h-1.3
		C898.9,751.3,898.8,751.1,898.7,750.8z"/>
	<path class="st1" d="M918.6,747.7h-10.2v7.2h8.2c0.3,0,0.5,0.2,0.5,0.5v1.1c0,0.3-0.2,0.5-0.5,0.5h-8.2v7.4h10.2
		c0.3,0,0.5,0.2,0.5,0.5v1.1c0,0.3-0.2,0.5-0.5,0.5h-11.9c-0.3,0-0.5-0.2-0.5-0.5v-20c0-0.3,0.2-0.5,0.5-0.5h11.9
		c0.3,0,0.5,0.2,0.5,0.5v1.1C919.1,747.5,918.9,747.7,918.6,747.7z"/>
</g>
<g>
	<path class="st1" d="M1390.3,686.6v0.4c0,4.3-3.5,5.6-7.1,5.6h-7.2c-0.3,0-0.5-0.2-0.5-0.5v-20c0-0.3,0.2-0.5,0.5-0.5h7.1
		c3.9,0,6.6,1.6,6.6,5.3v0.5c0,2-0.9,3.5-2.8,4.3C1389.1,682.5,1390.3,684.4,1390.3,686.6z M1377.8,680.7h5.5c2.2,0,4.2-0.7,4.2-3.2
		V677c0-2.6-2.1-3.2-4.4-3.2h-5.2V680.7z M1388,686.6c0-2.9-2.3-3.8-4.7-3.8h-5.5v7.7h5.5c2.3,0,4.7-0.7,4.7-3.6V686.6z"/>
	<path class="st1" d="M1396.8,692.6h-1.3c-0.3,0-0.5-0.2-0.5-0.5v-20c0-0.3,0.2-0.5,0.5-0.5h7.2c3.8,0,6.5,2,6.5,6v0.4
		c0,2.6-1.4,4.8-4.5,5.7l4.3,8.1c0.1,0.2,0.1,0.3,0.1,0.4c0,0.2-0.1,0.3-0.3,0.3h-1.7c-0.3,0-0.4-0.2-0.5-0.4l-4.2-8.1h-5v8
		C1397.3,692.4,1397.1,692.6,1396.8,692.6z M1402.6,682c2.2,0,4.3-1.2,4.3-3.8v-0.5c0-3-2.1-3.9-4.3-3.9h-5.3v8.2H1402.6z"/>
	<path class="st1" d="M1429.5,692.3c0,0.2-0.1,0.3-0.4,0.3h-1.5c-0.3,0-0.4-0.1-0.5-0.3l-1.9-5.3h-9.1l-1.9,5.3
		c-0.1,0.3-0.3,0.3-0.4,0.3h-1.5c-0.2,0-0.4-0.1-0.4-0.3c0-0.1,0.1-0.4,0.2-0.6l7.1-19.6c0.1-0.3,0.2-0.5,0.5-0.5h1.7
		c0.3,0,0.5,0.2,0.5,0.5l7.3,19.8C1429.4,692,1429.5,692.2,1429.5,692.3z M1424.5,684.9l-3.8-10.7l-3.8,10.7H1424.5z"/>
	<path class="st1" d="M1448.5,672.1v20c0,0.3-0.2,0.5-0.5,0.5h-1c-0.2,0-0.5,0-0.8-0.6l-10.5-16.6v16.7c0,0.3-0.2,0.5-0.5,0.5h-1.2
		c-0.3,0-0.5-0.2-0.5-0.5v-20c0-0.3,0.2-0.5,0.5-0.5h1.5c0.3,0,0.5,0.2,0.6,0.4l10.3,16.3v-16.2c0-0.3,0.2-0.5,0.5-0.5h1.2
		C1448.3,671.6,1448.5,671.9,1448.5,672.1z"/>
	<path class="st1" d="M1454.2,692.1v-20c0-0.3,0.2-0.5,0.5-0.5h6.6c4.3,0,7.7,3.2,7.7,8.2v4.6c0,5-3.4,8.2-7.7,8.2h-6.6
		C1454.4,692.6,1454.2,692.4,1454.2,692.1z M1456.5,690.5h4.8c3,0,5.4-2.2,5.4-6.1v-4.6c0-3.8-2.4-6.1-5.4-6.1h-4.8V690.5z"/>
	<path class="st1" d="M1496.3,686.6v0.4c0,4.3-3.4,5.6-7.1,5.6h-7.2c-0.3,0-0.5-0.2-0.5-0.5v-20c0-0.3,0.2-0.5,0.5-0.5h7.1
		c3.9,0,6.6,1.6,6.6,5.3v0.5c0,2-0.9,3.5-2.8,4.3C1495.1,682.5,1496.3,684.4,1496.3,686.6z M1483.8,680.7h5.5c2.2,0,4.2-0.7,4.2-3.2
		V677c0-2.6-2.1-3.2-4.4-3.2h-5.2V680.7z M1494,686.6c0-2.9-2.3-3.8-4.7-3.8h-5.5v7.7h5.5c2.3,0,4.7-0.7,4.7-3.6V686.6z"/>
	<path class="st1" d="M1513.7,671.6h1.3c0.3,0,0.5,0.2,0.5,0.5v12.7c0,5-3.1,8.1-7.4,8.1c-4.3,0-7.4-3.1-7.4-8.1v-12.7
		c0-0.3,0.2-0.5,0.5-0.5h1.3c0.3,0,0.5,0.2,0.5,0.5v12.7c0,3.8,2.1,6,5.1,6c2.9,0,5.1-2.2,5.1-6v-12.7
		C1513.2,671.9,1513.4,671.6,1513.7,671.6z"/>
	<path class="st1" d="M1520.9,692.1v-20c0-0.3,0.2-0.5,0.5-0.5h1.3c0.3,0,0.5,0.2,0.5,0.5v20c0,0.3-0.2,0.5-0.5,0.5h-1.3
		C1521.1,692.6,1520.9,692.4,1520.9,692.1z"/>
	<path class="st1" d="M1541.6,692.6h-12.1c-0.3,0-0.5-0.2-0.5-0.5v-20c0-0.3,0.2-0.5,0.5-0.5h1.3c0.3,0,0.5,0.2,0.5,0.5v18.4h10.4
		c0.3,0,0.5,0.2,0.5,0.5v1.1C1542.1,692.4,1541.9,692.6,1541.6,692.6z"/>
	<path class="st1" d="M1546.1,692.1v-20c0-0.3,0.2-0.5,0.5-0.5h6.6c4.4,0,7.7,3.2,7.7,8.2v4.6c0,5-3.4,8.2-7.7,8.2h-6.6
		C1546.3,692.6,1546.1,692.4,1546.1,692.1z M1548.3,690.5h4.8c3,0,5.4-2.2,5.4-6.1v-4.6c0-3.8-2.4-6.1-5.4-6.1h-4.8V690.5z"/>
	<path class="st1" d="M1565.9,692.1v-20c0-0.3,0.2-0.5,0.5-0.5h1.3c0.3,0,0.5,0.2,0.5,0.5v20c0,0.3-0.2,0.5-0.5,0.5h-1.3
		C1566.1,692.6,1565.9,692.4,1565.9,692.1z"/>
	<path class="st1" d="M1589,672.1v20c0,0.3-0.2,0.5-0.5,0.5h-1c-0.2,0-0.5,0-0.8-0.6l-10.5-16.6v16.7c0,0.3-0.2,0.5-0.5,0.5h-1.2
		c-0.3,0-0.5-0.2-0.5-0.5v-20c0-0.3,0.2-0.5,0.5-0.5h1.5c0.3,0,0.5,0.2,0.6,0.4l10.3,16.3v-16.2c0-0.3,0.2-0.5,0.5-0.5h1.2
		C1588.7,671.6,1589,671.9,1589,672.1z"/>
	<path class="st1" d="M1601.3,683.5v-1.1c0-0.3,0.2-0.5,0.5-0.5h6.8c0.3,0,0.5,0.2,0.5,0.5v9.7c0,0.3-0.2,0.5-0.5,0.5h-1
		c-0.3,0-0.5-0.2-0.5-0.5V690c-1,1.8-3.1,2.9-5.5,2.9c-4.8,0-7.6-3.7-7.6-8.2v-5.2c0-5,3.3-8.2,7.7-8.2c4.4,0,6.9,2.9,7.5,6.4
		c0.1,0.2,0.1,0.4,0.1,0.5c0,0.2-0.1,0.3-0.3,0.3h-1.6c-0.2,0-0.4-0.1-0.4-0.5c-0.3-2.2-2-4.6-5.2-4.6c-3,0-5.4,2.2-5.4,6.1v5.2
		c0,3.8,2.5,6.1,5.5,6.1c3.8,0,5.3-3.1,5.3-5.2V684h-5.2C1601.6,684,1601.3,683.8,1601.3,683.5z"/>
	<path class="st1" d="M1431.7,710.7h-10.2v7.2h8.2c0.3,0,0.5,0.2,0.5,0.5v1.1c0,0.3-0.2,0.5-0.5,0.5h-8.2v7.4h10.2
		c0.3,0,0.5,0.2,0.5,0.5v1.1c0,0.3-0.2,0.5-0.5,0.5h-11.9c-0.3,0-0.5-0.2-0.5-0.5v-20c0-0.3,0.2-0.5,0.5-0.5h11.9
		c0.3,0,0.5,0.2,0.5,0.5v1.1C1432.2,710.5,1432,710.7,1431.7,710.7z"/>
	<path class="st1" d="M1450.8,729.3c0,0.2-0.1,0.3-0.3,0.3h-1.6c-0.4,0-0.6-0.2-0.8-0.4l-5.4-8.3l-5.4,8.3c-0.1,0.2-0.3,0.4-0.7,0.4
		h-1.4c-0.2,0-0.3-0.1-0.3-0.3c0-0.1,0.1-0.3,0.2-0.4l6.4-9.8l-6.2-9.5c-0.1-0.2-0.3-0.4-0.3-0.6c0-0.2,0.2-0.3,0.4-0.3h1.6
		c0.3,0,0.5,0.2,0.7,0.5l5.3,8.1l5.3-8.1c0.2-0.3,0.4-0.5,0.7-0.5h1.5c0.2,0,0.3,0.2,0.3,0.3s-0.1,0.4-0.2,0.5l-6.3,9.6l6.4,9.7
		C1450.7,728.9,1450.8,729.1,1450.8,729.3z"/>
	<path class="st1" d="M1462.4,721.7h-5.4v7.4c0,0.3-0.2,0.5-0.5,0.5h-1.3c-0.3,0-0.5-0.2-0.5-0.5v-20c0-0.3,0.2-0.5,0.5-0.5h7.2
		c3.8,0,6.5,2.1,6.5,6.1v0.6C1468.9,719.3,1466.3,721.7,1462.4,721.7z M1457,710.7v8.8h5.3c2.2,0,4.3-1.3,4.3-4.2v-0.6
		c0-3-2.1-4-4.3-4H1457z"/>
	<path class="st1" d="M1485.7,710.7h-10.2v7.2h8.2c0.3,0,0.5,0.2,0.5,0.5v1.1c0,0.3-0.2,0.5-0.5,0.5h-8.2v7.4h10.2
		c0.3,0,0.5,0.2,0.5,0.5v1.1c0,0.3-0.2,0.5-0.5,0.5h-11.9c-0.3,0-0.5-0.2-0.5-0.5v-20c0-0.3,0.2-0.5,0.5-0.5h11.9
		c0.3,0,0.5,0.2,0.5,0.5v1.1C1486.2,710.5,1486,710.7,1485.7,710.7z"/>
	<path class="st1" d="M1492.5,729.6h-1.3c-0.3,0-0.5-0.2-0.5-0.5v-20c0-0.3,0.2-0.5,0.5-0.5h7.2c3.8,0,6.5,2,6.5,6v0.4
		c0,2.6-1.4,4.8-4.5,5.7l4.3,8.1c0.1,0.2,0.2,0.3,0.2,0.4c0,0.2-0.2,0.3-0.3,0.3h-1.7c-0.3,0-0.4-0.2-0.5-0.4l-4.2-8.1h-5v8
		C1493,729.4,1492.8,729.6,1492.5,729.6z M1498.3,719c2.2,0,4.3-1.2,4.3-3.8v-0.5c0-3-2.1-3.9-4.3-3.9h-5.3v8.2H1498.3z"/>
	<path class="st1" d="M1507.5,710.3v-1.1c0-0.3,0.2-0.5,0.5-0.5h14.9c0.3,0,0.5,0.2,0.5,0.5v1.1c0,0.3-0.2,0.5-0.5,0.5h-6.3v18.4
		c0,0.3-0.2,0.5-0.5,0.5h-1.3c-0.3,0-0.5-0.2-0.5-0.5v-18.4h-6.3C1507.7,710.7,1507.5,710.5,1507.5,710.3z"/>
	<path class="st1" d="M1527.2,729.1v-20c0-0.3,0.2-0.5,0.5-0.5h1.3c0.3,0,0.5,0.2,0.5,0.5v20c0,0.3-0.2,0.5-0.5,0.5h-1.3
		C1527.4,729.6,1527.2,729.4,1527.2,729.1z"/>
	<path class="st1" d="M1546.2,713.8c-0.2-1.8-1-3.4-4.5-3.4c-2.7,0-4.6,0.7-4.6,3.5c0,6.1,11.9,2.3,11.9,10.2c0,4.3-3.7,5.8-7.2,5.8
		c-5.7,0-7.6-4-7.6-6.4c0-0.3,0.2-0.5,0.5-0.5h1.3c0.3,0,0.5,0.2,0.5,0.5c0.1,1.3,0.9,4.4,5.3,4.4c2.8,0,4.9-1,4.9-3.8
		c0-5.6-11.9-1.9-11.9-10.2c0-3.8,2.9-5.5,6.9-5.5c5.3,0,6.7,3.3,6.7,5.5c0,0.3-0.2,0.5-0.5,0.5h-1.3
		C1546.4,714.3,1546.2,714.1,1546.2,713.8z"/>
	<path class="st1" d="M1566,710.7h-10.2v7.2h8.2c0.3,0,0.5,0.2,0.5,0.5v1.1c0,0.3-0.2,0.5-0.5,0.5h-8.2v7.4h10.2
		c0.3,0,0.5,0.2,0.5,0.5v1.1c0,0.3-0.2,0.5-0.5,0.5h-11.9c-0.3,0-0.5-0.2-0.5-0.5v-20c0-0.3,0.2-0.5,0.5-0.5h11.9
		c0.3,0,0.5,0.2,0.5,0.5v1.1C1566.6,710.5,1566.3,710.7,1566,710.7z"/>
</g>
<g>
	<path class="st1" d="M1729.5,684.7h-5.4v7.4c0,0.3-0.2,0.5-0.5,0.5h-1.3c-0.3,0-0.5-0.2-0.5-0.5v-20c0-0.3,0.2-0.5,0.5-0.5h7.2
		c3.8,0,6.5,2.1,6.5,6.1v0.6C1736,682.3,1733.3,684.7,1729.5,684.7z M1724.1,673.7v8.8h5.3c2.2,0,4.3-1.3,4.3-4.2v-0.6
		c0-3-2.1-4-4.3-4H1724.1z"/>
	<path class="st1" d="M1754.2,692.3c0,0.2-0.1,0.3-0.4,0.3h-1.5c-0.3,0-0.4-0.1-0.5-0.3l-1.9-5.3h-9.1l-1.9,5.3
		c-0.1,0.3-0.3,0.3-0.4,0.3h-1.5c-0.2,0-0.4-0.1-0.4-0.3c0-0.1,0.1-0.4,0.2-0.6l7.1-19.6c0.1-0.3,0.2-0.5,0.5-0.5h1.7
		c0.3,0,0.5,0.2,0.5,0.5l7.3,19.8C1754.1,692,1754.2,692.2,1754.2,692.3z M1749.2,684.9l-3.8-10.7l-3.8,10.7H1749.2z"/>
	<path class="st1" d="M1753.6,673.3v-1.1c0-0.3,0.2-0.5,0.5-0.5h14.9c0.3,0,0.5,0.2,0.5,0.5v1.1c0,0.3-0.2,0.5-0.5,0.5h-6.3v18.4
		c0,0.3-0.2,0.5-0.5,0.5h-1.3c-0.3,0-0.5-0.2-0.5-0.5v-18.4h-6.3C1753.8,673.7,1753.6,673.5,1753.6,673.3z"/>
	<path class="st1" d="M1773.3,692.1v-20c0-0.3,0.2-0.5,0.5-0.5h1.3c0.3,0,0.5,0.2,0.5,0.5v20c0,0.3-0.2,0.5-0.5,0.5h-1.3
		C1773.5,692.6,1773.3,692.4,1773.3,692.1z"/>
	<path class="st1" d="M1793.7,673.7h-10.2v7.2h8.2c0.3,0,0.5,0.2,0.5,0.5v1.1c0,0.3-0.2,0.5-0.5,0.5h-8.2v7.4h10.2
		c0.3,0,0.5,0.2,0.5,0.5v1.1c0,0.3-0.2,0.5-0.5,0.5h-11.9c-0.3,0-0.5-0.2-0.5-0.5v-20c0-0.3,0.2-0.5,0.5-0.5h11.9
		c0.3,0,0.5,0.2,0.5,0.5v1.1C1794.2,673.5,1794,673.7,1793.7,673.7z"/>
	<path class="st1" d="M1813.8,672.1v20c0,0.3-0.2,0.5-0.5,0.5h-1c-0.2,0-0.5,0-0.8-0.6l-10.5-16.6v16.7c0,0.3-0.2,0.5-0.5,0.5h-1.2
		c-0.3,0-0.5-0.2-0.5-0.5v-20c0-0.3,0.2-0.5,0.5-0.5h1.5c0.3,0,0.5,0.2,0.6,0.4l10.3,16.3v-16.2c0-0.3,0.2-0.5,0.5-0.5h1.2
		C1813.6,671.6,1813.8,671.9,1813.8,672.1z"/>
	<path class="st1" d="M1817.6,673.3v-1.1c0-0.3,0.2-0.5,0.5-0.5h14.9c0.3,0,0.5,0.2,0.5,0.5v1.1c0,0.3-0.2,0.5-0.5,0.5h-6.3v18.4
		c0,0.3-0.2,0.5-0.5,0.5h-1.3c-0.3,0-0.5-0.2-0.5-0.5v-18.4h-6.3C1817.8,673.7,1817.6,673.5,1817.6,673.3z"/>
	<path class="st1" d="M1724,720.5v-1.1c0-0.3,0.2-0.5,0.5-0.5h6.8c0.3,0,0.5,0.2,0.5,0.5v9.7c0,0.3-0.2,0.5-0.5,0.5h-1
		c-0.3,0-0.5-0.2-0.5-0.5V727c-1,1.8-3.1,2.9-5.5,2.9c-4.8,0-7.7-3.7-7.7-8.2v-5.2c0-5,3.3-8.2,7.7-8.2s6.9,2.9,7.5,6.4
		c0.1,0.2,0.1,0.4,0.1,0.5c0,0.2-0.1,0.3-0.3,0.3h-1.6c-0.2,0-0.4-0.1-0.4-0.5c-0.3-2.2-2-4.6-5.2-4.6c-3,0-5.4,2.2-5.4,6.1v5.2
		c0,3.8,2.5,6.1,5.5,6.1c3.8,0,5.3-3.1,5.3-5.2V721h-5.2C1724.2,721,1724,720.8,1724,720.5z"/>
	<path class="st1" d="M1739.2,729.6h-1.3c-0.3,0-0.5-0.2-0.5-0.5v-20c0-0.3,0.2-0.5,0.5-0.5h7.2c3.8,0,6.5,2,6.5,6v0.4
		c0,2.6-1.4,4.8-4.5,5.7l4.3,8.1c0.1,0.2,0.1,0.3,0.1,0.4c0,0.2-0.1,0.3-0.3,0.3h-1.7c-0.3,0-0.4-0.2-0.5-0.4l-4.2-8.1h-5v8
		C1739.7,729.4,1739.5,729.6,1739.2,729.6z M1745,719c2.2,0,4.3-1.2,4.3-3.8v-0.5c0-3-2.1-3.9-4.3-3.9h-5.3v8.2H1745z"/>
	<path class="st1" d="M1763.3,708.3c4.4,0,7.7,3.2,7.7,8.2v5.2c0,5-3.4,8.2-7.7,8.2s-7.7-3.2-7.7-8.2v-5.2
		C1755.6,711.5,1758.9,708.3,1763.3,708.3z M1763.3,727.8c3,0,5.4-2.2,5.4-6.1v-5.2c0-3.9-2.4-6.1-5.4-6.1s-5.4,2.2-5.4,6.1v5.2
		C1757.9,725.6,1760.3,727.8,1763.3,727.8z"/>
	<path class="st1" d="M1799.7,708.9c0,0.1,0,0.2-0.1,0.5l-5.5,19.8c-0.1,0.2-0.2,0.4-0.5,0.4h-1.7c-0.2,0-0.4-0.1-0.5-0.4l-4.6-17.1
		l-4.6,17.1c0,0.2-0.2,0.4-0.5,0.4h-1.7c-0.2,0-0.4-0.1-0.5-0.4l-5.5-19.8c0-0.2-0.1-0.4-0.1-0.5c0-0.2,0.1-0.3,0.3-0.3h1.6
		c0.2,0,0.5,0.1,0.5,0.5l4.6,17.3l4.6-17.3c0.1-0.3,0.2-0.5,0.5-0.5h1.5c0.2,0,0.5,0.2,0.5,0.5l4.6,17.3l4.6-17.3
		c0.1-0.2,0.2-0.5,0.5-0.5h1.5C1799.5,708.6,1799.7,708.8,1799.7,708.9z"/>
	<path class="st1" d="M1801.7,710.3v-1.1c0-0.3,0.2-0.5,0.5-0.5h14.9c0.3,0,0.5,0.2,0.5,0.5v1.1c0,0.3-0.2,0.5-0.5,0.5h-6.3v18.4
		c0,0.3-0.2,0.5-0.5,0.5h-1.3c-0.3,0-0.5-0.2-0.5-0.5v-18.4h-6.3C1801.9,710.7,1801.7,710.5,1801.7,710.3z"/>
	<path class="st1" d="M1833.8,729.1v-9.2h-10.2v9.2c0,0.3-0.2,0.5-0.5,0.5h-1.3c-0.3,0-0.5-0.2-0.5-0.5v-20c0-0.3,0.2-0.5,0.5-0.5
		h1.3c0.3,0,0.5,0.2,0.5,0.5v8.6h10.2v-8.6c0-0.3,0.2-0.5,0.5-0.5h1.3c0.3,0,0.5,0.2,0.5,0.5v20c0,0.3-0.2,0.5-0.5,0.5h-1.3
		C1834,729.6,1833.8,729.4,1833.8,729.1z"/>
</g>
<g>
	<path class="st1" d="M1948.4,692.6h-12.1c-0.3,0-0.5-0.2-0.5-0.5v-20c0-0.3,0.2-0.5,0.5-0.5h1.3c0.3,0,0.5,0.2,0.5,0.5v18.4h10.4
		c0.3,0,0.5,0.2,0.5,0.5v1.1C1948.9,692.4,1948.7,692.6,1948.4,692.6z"/>
	<path class="st1" d="M1965.3,673.7h-10.2v7.2h8.2c0.3,0,0.5,0.2,0.5,0.5v1.1c0,0.3-0.2,0.5-0.5,0.5h-8.2v7.4h10.2
		c0.3,0,0.5,0.2,0.5,0.5v1.1c0,0.3-0.2,0.5-0.5,0.5h-11.9c-0.3,0-0.5-0.2-0.5-0.5v-20c0-0.3,0.2-0.5,0.5-0.5h11.9
		c0.3,0,0.5,0.2,0.5,0.5v1.1C1965.8,673.5,1965.6,673.7,1965.3,673.7z"/>
	<path class="st1" d="M1976.6,683.5v-1.1c0-0.3,0.2-0.5,0.5-0.5h6.8c0.3,0,0.5,0.2,0.5,0.5v9.7c0,0.3-0.2,0.5-0.5,0.5h-1
		c-0.3,0-0.5-0.2-0.5-0.5V690c-1,1.8-3.1,2.9-5.5,2.9c-4.8,0-7.6-3.7-7.6-8.2v-5.2c0-5,3.3-8.2,7.7-8.2c4.4,0,6.9,2.9,7.5,6.4
		c0.1,0.2,0.1,0.4,0.1,0.5c0,0.2-0.1,0.3-0.3,0.3h-1.6c-0.2,0-0.4-0.1-0.4-0.5c-0.3-2.2-2-4.6-5.2-4.6c-3,0-5.4,2.2-5.4,6.1v5.2
		c0,3.8,2.5,6.1,5.5,6.1c3.8,0,5.3-3.1,5.3-5.2V684h-5.2C1976.8,684,1976.6,683.8,1976.6,683.5z"/>
	<path class="st1" d="M2005.7,692.3c0,0.2-0.1,0.3-0.4,0.3h-1.5c-0.3,0-0.4-0.1-0.5-0.3l-1.9-5.3h-9.1l-1.9,5.3
		c-0.1,0.3-0.3,0.3-0.4,0.3h-1.5c-0.2,0-0.4-0.1-0.4-0.3c0-0.1,0.1-0.4,0.2-0.6l7.1-19.6c0.1-0.3,0.2-0.5,0.5-0.5h1.7
		c0.3,0,0.5,0.2,0.5,0.5l7.3,19.8C2005.6,692,2005.7,692.2,2005.7,692.3z M2000.6,684.9l-3.8-10.7l-3.8,10.7H2000.6z"/>
	<path class="st1" d="M2022.2,692.6H2010c-0.3,0-0.5-0.2-0.5-0.5v-20c0-0.3,0.2-0.5,0.5-0.5h1.3c0.3,0,0.5,0.2,0.5,0.5v18.4h10.4
		c0.3,0,0.5,0.2,0.5,0.5v1.1C2022.7,692.4,2022.5,692.6,2022.2,692.6z"/>
	<path class="st1" d="M2040.2,692.9c-5.1,0-6.8-3.1-6.8-5.6c0-2.9,1.8-4.5,4-5.9c-1-1.2-2.5-2.9-2.5-5.2c0-3.7,3-4.9,5.5-4.9
		c3.2,0,5.1,2.2,5.1,4.8c0,2.9-2.5,4.3-5,5.7l4.9,5.5c0.8-1.7,0.9-3.8,0.9-4.9c0-0.3,0.2-0.5,0.5-0.5h1.1c0.3,0,0.5,0.2,0.5,0.5
		c0,1.3-0.2,4.2-1.5,6.7l2.4,2.7c0.2,0.1,0.3,0.3,0.3,0.5c0,0.2-0.1,0.3-0.3,0.3h-1.7c-0.2,0-0.3-0.1-0.4-0.2l-1.5-1.7
		C2044.3,692,2042.6,692.9,2040.2,692.9z M2038.7,682.9c-1.8,1.1-3.1,2.3-3.1,4.3c0,1.8,1.2,3.6,4.6,3.6c1.8,0,3.1-0.7,4.1-1.7
		L2038.7,682.9z M2043.3,676.1c0-2-1.4-2.8-2.9-2.8c-2.5,0-3.3,1.4-3.3,2.9c0,1.4,0.6,2.5,2.1,4.2
		C2041.3,679.2,2043.3,678.2,2043.3,676.1z"/>
	<path class="st1" d="M2073.6,673.7h-10.2v7.8h8.2c0.3,0,0.5,0.2,0.5,0.5v1.1c0,0.3-0.2,0.5-0.5,0.5h-8.2v8.4c0,0.3-0.2,0.5-0.5,0.5
		h-1.3c-0.3,0-0.5-0.2-0.5-0.5v-20c0-0.3,0.2-0.5,0.5-0.5h11.9c0.3,0,0.5,0.2,0.5,0.5v1.1C2074.1,673.5,2073.9,673.7,2073.6,673.7z"
		/>
	<path class="st1" d="M2078.2,692.1v-20c0-0.3,0.2-0.5,0.5-0.5h1.3c0.3,0,0.5,0.2,0.5,0.5v20c0,0.3-0.2,0.5-0.5,0.5h-1.3
		C2078.4,692.6,2078.2,692.4,2078.2,692.1z"/>
	<path class="st1" d="M2101.3,672.1v20c0,0.3-0.2,0.5-0.5,0.5h-1c-0.2,0-0.5,0-0.8-0.6l-10.5-16.6v16.7c0,0.3-0.2,0.5-0.5,0.5h-1.2
		c-0.3,0-0.5-0.2-0.5-0.5v-20c0-0.3,0.2-0.5,0.5-0.5h1.5c0.3,0,0.5,0.2,0.6,0.4l10.3,16.3v-16.2c0-0.3,0.2-0.5,0.5-0.5h1.2
		C2101.1,671.6,2101.3,671.9,2101.3,672.1z"/>
	<path class="st1" d="M2122.7,692.3c0,0.2-0.2,0.3-0.4,0.3h-1.5c-0.3,0-0.4-0.1-0.5-0.3l-1.9-5.3h-9.1l-1.9,5.3
		c-0.1,0.3-0.3,0.3-0.4,0.3h-1.5c-0.2,0-0.4-0.1-0.4-0.3c0-0.1,0.1-0.4,0.2-0.6l7.1-19.6c0.1-0.3,0.2-0.5,0.5-0.5h1.7
		c0.3,0,0.5,0.2,0.5,0.5l7.3,19.8C2122.6,692,2122.7,692.2,2122.7,692.3z M2117.7,684.9l-3.8-10.7l-3.8,10.7H2117.7z"/>
	<path class="st1" d="M2141.7,672.1v20c0,0.3-0.2,0.5-0.5,0.5h-1c-0.2,0-0.5,0-0.8-0.6l-10.5-16.6v16.7c0,0.3-0.2,0.5-0.5,0.5h-1.2
		c-0.3,0-0.5-0.2-0.5-0.5v-20c0-0.3,0.2-0.5,0.5-0.5h1.5c0.3,0,0.5,0.2,0.6,0.4l10.3,16.3v-16.2c0-0.3,0.2-0.5,0.5-0.5h1.2
		C2141.5,671.6,2141.7,671.9,2141.7,672.1z"/>
	<path class="st1" d="M2161.9,685.9c-0.2,3.7-3.2,7-7.5,7s-7.7-3.2-7.7-8.2v-5.2c0-5,3.3-8.2,7.7-8.2c4.4,0,7.1,3,7.5,6.7
		c0,0.3-0.2,0.5-0.4,0.5h-1.5c-0.2,0-0.3-0.1-0.4-0.5c-0.4-2.5-2.2-4.6-5.2-4.6s-5.4,2.2-5.4,6.1v5.2c0,3.8,2.4,6.1,5.4,6.1
		c3,0,4.9-2,5.2-4.9c0-0.2,0.1-0.4,0.4-0.4h1.6C2161.8,685.5,2161.9,685.7,2161.9,685.9z"/>
	<path class="st1" d="M2166.8,692.1v-20c0-0.3,0.2-0.5,0.5-0.5h1.3c0.3,0,0.5,0.2,0.5,0.5v20c0,0.3-0.2,0.5-0.5,0.5h-1.3
		C2167,692.6,2166.8,692.4,2166.8,692.1z"/>
	<path class="st1" d="M2190.4,692.3c0,0.2-0.2,0.3-0.4,0.3h-1.5c-0.3,0-0.4-0.1-0.5-0.3l-1.9-5.3h-9.1l-1.9,5.3
		c-0.1,0.3-0.3,0.3-0.4,0.3h-1.5c-0.2,0-0.4-0.1-0.4-0.3c0-0.1,0.1-0.4,0.2-0.6l7.1-19.6c0.1-0.3,0.2-0.5,0.5-0.5h1.7
		c0.3,0,0.5,0.2,0.5,0.5l7.3,19.8C2190.4,692,2190.4,692.2,2190.4,692.3z M2185.4,684.9l-3.8-10.7l-3.8,10.7H2185.4z"/>
	<path class="st1" d="M2207,692.6h-12.1c-0.3,0-0.5-0.2-0.5-0.5v-20c0-0.3,0.2-0.5,0.5-0.5h1.3c0.3,0,0.5,0.2,0.5,0.5v18.4h10.4
		c0.3,0,0.5,0.2,0.5,0.5v1.1C2207.5,692.4,2207.3,692.6,2207,692.6z"/>
	<path class="st1" d="M2010.1,710.7h-10.2v7.2h8.2c0.3,0,0.5,0.2,0.5,0.5v1.1c0,0.3-0.2,0.5-0.5,0.5h-8.2v7.4h10.2
		c0.3,0,0.5,0.2,0.5,0.5v1.1c0,0.3-0.2,0.5-0.5,0.5h-11.9c-0.3,0-0.5-0.2-0.5-0.5v-20c0-0.3,0.2-0.5,0.5-0.5h11.9
		c0.3,0,0.5,0.2,0.5,0.5v1.1C2010.6,710.5,2010.4,710.7,2010.1,710.7z"/>
	<path class="st1" d="M2029.3,729.3c0,0.2-0.1,0.3-0.3,0.3h-1.6c-0.4,0-0.6-0.2-0.8-0.4l-5.4-8.3l-5.4,8.3c-0.1,0.2-0.3,0.4-0.7,0.4
		h-1.4c-0.2,0-0.3-0.1-0.3-0.3c0-0.1,0.1-0.3,0.2-0.4l6.4-9.8l-6.2-9.5c-0.1-0.2-0.3-0.4-0.3-0.6c0-0.2,0.1-0.3,0.4-0.3h1.6
		c0.3,0,0.5,0.2,0.7,0.5l5.3,8.1l5.3-8.1c0.2-0.3,0.4-0.5,0.7-0.5h1.5c0.2,0,0.3,0.2,0.3,0.3s-0.1,0.4-0.2,0.5l-6.3,9.6l6.4,9.7
		C2029.1,728.9,2029.3,729.1,2029.3,729.3z"/>
	<path class="st1" d="M2040.9,721.7h-5.4v7.4c0,0.3-0.2,0.5-0.5,0.5h-1.3c-0.3,0-0.5-0.2-0.5-0.5v-20c0-0.3,0.2-0.5,0.5-0.5h7.2
		c3.8,0,6.5,2.1,6.5,6.1v0.6C2047.4,719.3,2044.7,721.7,2040.9,721.7z M2035.5,710.7v8.8h5.3c2.2,0,4.3-1.3,4.3-4.2v-0.6
		c0-3-2.1-4-4.3-4H2035.5z"/>
	<path class="st1" d="M2064.2,710.7H2054v7.2h8.2c0.3,0,0.5,0.2,0.5,0.5v1.1c0,0.3-0.2,0.5-0.5,0.5h-8.2v7.4h10.2
		c0.3,0,0.5,0.2,0.5,0.5v1.1c0,0.3-0.2,0.5-0.5,0.5h-11.9c-0.3,0-0.5-0.2-0.5-0.5v-20c0-0.3,0.2-0.5,0.5-0.5h11.9
		c0.3,0,0.5,0.2,0.5,0.5v1.1C2064.7,710.5,2064.5,710.7,2064.2,710.7z"/>
	<path class="st1" d="M2071,729.6h-1.3c-0.3,0-0.5-0.2-0.5-0.5v-20c0-0.3,0.2-0.5,0.5-0.5h7.2c3.8,0,6.5,2,6.5,6v0.4
		c0,2.6-1.4,4.8-4.5,5.7l4.3,8.1c0.1,0.2,0.1,0.3,0.1,0.4c0,0.2-0.1,0.3-0.3,0.3h-1.7c-0.3,0-0.4-0.2-0.5-0.4l-4.2-8.1h-5v8
		C2071.5,729.4,2071.3,729.6,2071,729.6z M2076.8,719c2.2,0,4.3-1.2,4.3-3.8v-0.5c0-3-2.1-3.9-4.3-3.9h-5.3v8.2H2076.8z"/>
	<path class="st1" d="M2086,710.3v-1.1c0-0.3,0.2-0.5,0.5-0.5h14.9c0.3,0,0.5,0.2,0.5,0.5v1.1c0,0.3-0.2,0.5-0.5,0.5h-6.3v18.4
		c0,0.3-0.2,0.5-0.5,0.5h-1.3c-0.3,0-0.5-0.2-0.5-0.5v-18.4h-6.3C2086.2,710.7,2086,710.5,2086,710.3z"/>
	<path class="st1" d="M2105.6,729.1v-20c0-0.3,0.2-0.5,0.5-0.5h1.3c0.3,0,0.5,0.2,0.5,0.5v20c0,0.3-0.2,0.5-0.5,0.5h-1.3
		C2105.9,729.6,2105.6,729.4,2105.6,729.1z"/>
	<path class="st1" d="M2124.6,713.8c-0.2-1.8-1-3.4-4.5-3.4c-2.7,0-4.6,0.7-4.6,3.5c0,6.1,11.9,2.3,11.9,10.2c0,4.3-3.7,5.8-7.2,5.8
		c-5.7,0-7.6-4-7.6-6.4c0-0.3,0.2-0.5,0.5-0.5h1.3c0.3,0,0.5,0.2,0.5,0.5c0.1,1.3,0.9,4.4,5.3,4.4c2.8,0,4.9-1,4.9-3.8
		c0-5.6-11.9-1.9-11.9-10.2c0-3.8,2.9-5.5,6.9-5.5c5.3,0,6.7,3.3,6.7,5.5c0,0.3-0.2,0.5-0.5,0.5h-1.3
		C2124.8,714.3,2124.6,714.1,2124.6,713.8z"/>
	<path class="st1" d="M2144.5,710.7h-10.2v7.2h8.2c0.3,0,0.5,0.2,0.5,0.5v1.1c0,0.3-0.2,0.5-0.5,0.5h-8.2v7.4h10.2
		c0.3,0,0.5,0.2,0.5,0.5v1.1c0,0.3-0.2,0.5-0.5,0.5h-11.9c-0.3,0-0.5-0.2-0.5-0.5v-20c0-0.3,0.2-0.5,0.5-0.5h11.9
		c0.3,0,0.5,0.2,0.5,0.5v1.1C2145,710.5,2144.8,710.7,2144.5,710.7z"/>
</g>
<g>
	<path class="st1" d="M1074.6,692.3c0,0.2-0.2,0.3-0.4,0.3h-1.5c-0.3,0-0.4-0.1-0.5-0.3l-1.9-5.3h-9.1l-1.9,5.3
		c-0.1,0.3-0.3,0.3-0.4,0.3h-1.5c-0.2,0-0.4-0.1-0.4-0.3c0-0.1,0.1-0.4,0.2-0.6l7.1-19.6c0.1-0.3,0.2-0.5,0.5-0.5h1.7
		c0.3,0,0.5,0.2,0.5,0.5l7.3,19.8C1074.5,692,1074.6,692.2,1074.6,692.3z M1069.6,684.9l-3.8-10.7l-3.8,10.7H1069.6z"/>
	<path class="st1" d="M1092.5,685.9c-0.2,3.7-3.2,7-7.5,7s-7.7-3.2-7.7-8.2v-5.2c0-5,3.3-8.2,7.7-8.2c4.4,0,7.1,3,7.5,6.7
		c0,0.3-0.2,0.5-0.4,0.5h-1.5c-0.2,0-0.3-0.1-0.4-0.5c-0.4-2.5-2.2-4.6-5.2-4.6s-5.4,2.2-5.4,6.1v5.2c0,3.8,2.4,6.1,5.4,6.1
		c3,0,4.9-2,5.2-4.9c0-0.2,0.2-0.4,0.4-0.4h1.6C1092.4,685.5,1092.5,685.7,1092.5,685.9z"/>
	<path class="st1" d="M1111.9,685.9c-0.2,3.7-3.2,7-7.5,7s-7.7-3.2-7.7-8.2v-5.2c0-5,3.3-8.2,7.7-8.2c4.4,0,7.1,3,7.5,6.7
		c0,0.3-0.2,0.5-0.4,0.5h-1.5c-0.2,0-0.3-0.1-0.4-0.5c-0.4-2.5-2.2-4.6-5.2-4.6s-5.4,2.2-5.4,6.1v5.2c0,3.8,2.4,6.1,5.4,6.1
		c3,0,4.9-2,5.2-4.9c0-0.2,0.2-0.4,0.4-0.4h1.6C1111.8,685.5,1111.9,685.7,1111.9,685.9z"/>
	<path class="st1" d="M1129.2,673.7H1119v7.2h8.2c0.3,0,0.5,0.2,0.5,0.5v1.1c0,0.3-0.2,0.5-0.5,0.5h-8.2v7.4h10.2
		c0.3,0,0.5,0.2,0.5,0.5v1.1c0,0.3-0.2,0.5-0.5,0.5h-11.9c-0.3,0-0.5-0.2-0.5-0.5v-20c0-0.3,0.2-0.5,0.5-0.5h11.9
		c0.3,0,0.5,0.2,0.5,0.5v1.1C1129.7,673.5,1129.5,673.7,1129.2,673.7z"/>
	<path class="st1" d="M1144.9,676.8c-0.2-1.8-1-3.4-4.5-3.4c-2.7,0-4.6,0.7-4.6,3.5c0,6.1,11.9,2.3,11.9,10.2c0,4.3-3.7,5.8-7.2,5.8
		c-5.7,0-7.6-4-7.6-6.4c0-0.3,0.2-0.5,0.5-0.5h1.3c0.3,0,0.5,0.2,0.5,0.5c0.1,1.3,0.9,4.4,5.3,4.4c2.8,0,4.9-1,4.9-3.8
		c0-5.6-11.9-1.9-11.9-10.2c0-3.8,2.9-5.5,6.9-5.5c5.3,0,6.7,3.3,6.7,5.5c0,0.3-0.2,0.5-0.5,0.5h-1.3
		C1145.1,677.3,1145,677.1,1144.9,676.8z"/>
	<path class="st1" d="M1163,676.8c-0.2-1.8-1-3.4-4.5-3.4c-2.7,0-4.6,0.7-4.6,3.5c0,6.1,11.9,2.3,11.9,10.2c0,4.3-3.7,5.8-7.2,5.8
		c-5.7,0-7.6-4-7.6-6.4c0-0.3,0.2-0.5,0.5-0.5h1.3c0.3,0,0.5,0.2,0.5,0.5c0.1,1.3,0.9,4.4,5.3,4.4c2.8,0,4.9-1,4.9-3.8
		c0-5.6-11.9-1.9-11.9-10.2c0-3.8,2.9-5.5,6.9-5.5c5.3,0,6.7,3.3,6.7,5.5c0,0.3-0.2,0.5-0.5,0.5h-1.3
		C1163.3,677.3,1163.1,677.1,1163,676.8z"/>
	<path class="st1" d="M1176.1,673.3v-1.1c0-0.3,0.2-0.5,0.5-0.5h14.9c0.3,0,0.5,0.2,0.5,0.5v1.1c0,0.3-0.2,0.5-0.5,0.5h-6.3v18.4
		c0,0.3-0.2,0.5-0.5,0.5h-1.3c-0.3,0-0.5-0.2-0.5-0.5v-18.4h-6.3C1176.3,673.7,1176.1,673.5,1176.1,673.3z"/>
	<path class="st1" d="M1201.9,671.3c4.4,0,7.7,3.2,7.7,8.2v5.2c0,5-3.4,8.2-7.7,8.2s-7.7-3.2-7.7-8.2v-5.2
		C1194.2,674.5,1197.5,671.3,1201.9,671.3z M1201.9,690.8c3,0,5.4-2.2,5.4-6.1v-5.2c0-3.9-2.4-6.1-5.4-6.1s-5.4,2.2-5.4,6.1v5.2
		C1196.5,688.6,1198.9,690.8,1201.9,690.8z"/>
	<path class="st1" d="M1234.8,692.6h-12.1c-0.3,0-0.5-0.2-0.5-0.5v-20c0-0.3,0.2-0.5,0.5-0.5h1.3c0.3,0,0.5,0.2,0.5,0.5v18.4h10.4
		c0.3,0,0.5,0.2,0.5,0.5v1.1C1235.3,692.4,1235.1,692.6,1234.8,692.6z"/>
	<path class="st1" d="M1251.7,673.7h-10.2v7.2h8.2c0.3,0,0.5,0.2,0.5,0.5v1.1c0,0.3-0.2,0.5-0.5,0.5h-8.2v7.4h10.2
		c0.3,0,0.5,0.2,0.5,0.5v1.1c0,0.3-0.2,0.5-0.5,0.5h-11.9c-0.3,0-0.5-0.2-0.5-0.5v-20c0-0.3,0.2-0.5,0.5-0.5h11.9
		c0.3,0,0.5,0.2,0.5,0.5v1.1C1252.2,673.5,1252,673.7,1251.7,673.7z"/>
	<path class="st1" d="M1267.4,676.8c-0.2-1.8-1-3.4-4.5-3.4c-2.7,0-4.6,0.7-4.6,3.5c0,6.1,11.9,2.3,11.9,10.2c0,4.3-3.7,5.8-7.2,5.8
		c-5.7,0-7.6-4-7.6-6.4c0-0.3,0.2-0.5,0.5-0.5h1.3c0.3,0,0.5,0.2,0.5,0.5c0.1,1.3,0.9,4.4,5.3,4.4c2.8,0,4.9-1,4.9-3.8
		c0-5.6-11.9-1.9-11.9-10.2c0-3.8,2.9-5.5,6.9-5.5c5.3,0,6.7,3.3,6.7,5.5c0,0.3-0.2,0.5-0.5,0.5h-1.3
		C1267.7,677.3,1267.5,677.1,1267.4,676.8z"/>
	<path class="st1" d="M1285.6,676.8c-0.1-1.8-1-3.4-4.5-3.4c-2.7,0-4.6,0.7-4.6,3.5c0,6.1,11.9,2.3,11.9,10.2c0,4.3-3.7,5.8-7.2,5.8
		c-5.7,0-7.6-4-7.6-6.4c0-0.3,0.2-0.5,0.5-0.5h1.3c0.3,0,0.5,0.2,0.5,0.5c0.1,1.3,0.9,4.4,5.3,4.4c2.8,0,5-1,5-3.8
		c0-5.6-11.9-1.9-11.9-10.2c0-3.8,2.9-5.5,6.9-5.5c5.3,0,6.7,3.3,6.7,5.5c0,0.3-0.2,0.5-0.5,0.5h-1.3
		C1285.8,677.3,1285.6,677.1,1285.6,676.8z"/>
	<path class="st1" d="M1045.6,729.1v-20c0-0.3,0.2-0.5,0.5-0.5h6.6c4.4,0,7.7,3.2,7.7,8.2v4.6c0,5-3.4,8.2-7.7,8.2h-6.6
		C1045.8,729.6,1045.6,729.4,1045.6,729.1z M1047.8,727.5h4.8c3,0,5.4-2.2,5.4-6.1v-4.6c0-3.8-2.4-6.1-5.4-6.1h-4.8V727.5z"/>
	<path class="st1" d="M1065.4,729.1v-20c0-0.3,0.2-0.5,0.5-0.5h1.3c0.3,0,0.5,0.2,0.5,0.5v20c0,0.3-0.2,0.5-0.5,0.5h-1.3
		C1065.6,729.6,1065.4,729.4,1065.4,729.1z"/>
	<path class="st1" d="M1086,729.6h-12.1c-0.3,0-0.5-0.2-0.5-0.5v-20c0-0.3,0.2-0.5,0.5-0.5h1.3c0.3,0,0.5,0.2,0.5,0.5v18.4h10.4
		c0.3,0,0.5,0.2,0.5,0.5v1.1C1086.5,729.4,1086.3,729.6,1086,729.6z"/>
	<path class="st1" d="M1102.7,708.6h1.3c0.3,0,0.5,0.2,0.5,0.5v12.7c0,5-3.1,8.1-7.4,8.1c-4.3,0-7.4-3.1-7.4-8.1v-12.7
		c0-0.3,0.2-0.5,0.5-0.5h1.3c0.3,0,0.5,0.2,0.5,0.5v12.7c0,3.8,2.1,6,5.1,6c2.9,0,5.1-2.2,5.1-6v-12.7
		C1102.2,708.9,1102.5,708.6,1102.7,708.6z"/>
	<path class="st1" d="M1108,710.3v-1.1c0-0.3,0.2-0.5,0.5-0.5h14.9c0.3,0,0.5,0.2,0.5,0.5v1.1c0,0.3-0.2,0.5-0.5,0.5h-6.3v18.4
		c0,0.3-0.2,0.5-0.5,0.5h-1.3c-0.3,0-0.5-0.2-0.5-0.5v-18.4h-6.3C1108.2,710.7,1108,710.5,1108,710.3z"/>
	<path class="st1" d="M1127.7,729.1v-20c0-0.3,0.2-0.5,0.5-0.5h1.3c0.3,0,0.5,0.2,0.5,0.5v20c0,0.3-0.2,0.5-0.5,0.5h-1.3
		C1127.9,729.6,1127.7,729.4,1127.7,729.1z"/>
	<path class="st1" d="M1151.2,708.9c0,0.1-0.1,0.4-0.2,0.6l-7.3,19.7c-0.1,0.2-0.2,0.4-0.5,0.4h-1.7c-0.2,0-0.4-0.1-0.5-0.4
		l-7.3-19.9c0-0.1-0.1-0.3-0.1-0.4c0-0.2,0.1-0.3,0.3-0.3h1.5c0.3,0,0.5,0.2,0.6,0.6l6.3,17.6l6.4-17.7c0.1-0.3,0.2-0.5,0.5-0.5h1.5
		C1151.1,708.6,1151.2,708.8,1151.2,708.9z"/>
	<path class="st1" d="M1167.4,710.7h-10.2v7.2h8.2c0.3,0,0.5,0.2,0.5,0.5v1.1c0,0.3-0.2,0.5-0.5,0.5h-8.2v7.4h10.2
		c0.3,0,0.5,0.2,0.5,0.5v1.1c0,0.3-0.2,0.5-0.5,0.5h-11.9c-0.3,0-0.5-0.2-0.5-0.5v-20c0-0.3,0.2-0.5,0.5-0.5h11.9
		c0.3,0,0.5,0.2,0.5,0.5v1.1C1167.9,710.5,1167.7,710.7,1167.4,710.7z"/>
	<path class="st1" d="M1192.4,710.7h-10.2v7.8h8.2c0.3,0,0.5,0.2,0.5,0.5v1.1c0,0.3-0.2,0.5-0.5,0.5h-8.2v8.4c0,0.3-0.2,0.5-0.5,0.5
		h-1.3c-0.3,0-0.5-0.2-0.5-0.5v-20c0-0.3,0.2-0.5,0.5-0.5h11.9c0.3,0,0.5,0.2,0.5,0.5v1.1C1192.9,710.5,1192.7,710.7,1192.4,710.7z"
		/>
	<path class="st1" d="M1209.7,708.6h1.3c0.3,0,0.5,0.2,0.5,0.5v12.7c0,5-3.1,8.1-7.4,8.1c-4.3,0-7.4-3.1-7.4-8.1v-12.7
		c0-0.3,0.2-0.5,0.5-0.5h1.3c0.3,0,0.5,0.2,0.5,0.5v12.7c0,3.8,2.1,6,5.1,6c2.9,0,5.1-2.2,5.1-6v-12.7
		C1209.2,708.9,1209.4,708.6,1209.7,708.6z"/>
	<path class="st1" d="M1232,709.1v20c0,0.3-0.2,0.5-0.5,0.5h-1c-0.2,0-0.5,0-0.8-0.6l-10.5-16.6v16.7c0,0.3-0.2,0.5-0.5,0.5h-1.2
		c-0.3,0-0.5-0.2-0.5-0.5v-20c0-0.3,0.2-0.5,0.5-0.5h1.5c0.3,0,0.5,0.2,0.6,0.4l10.3,16.3v-16.2c0-0.3,0.2-0.5,0.5-0.5h1.2
		C1231.8,708.6,1232,708.9,1232,709.1z"/>
	<path class="st1" d="M1237.7,729.1v-20c0-0.3,0.2-0.5,0.5-0.5h6.6c4.4,0,7.7,3.2,7.7,8.2v4.6c0,5-3.4,8.2-7.7,8.2h-6.6
		C1237.9,729.6,1237.7,729.4,1237.7,729.1z M1240,727.5h4.8c3,0,5.4-2.2,5.4-6.1v-4.6c0-3.8-2.4-6.1-5.4-6.1h-4.8V727.5z"/>
	<path class="st1" d="M1257.5,729.1v-20c0-0.3,0.2-0.5,0.5-0.5h1.3c0.3,0,0.5,0.2,0.5,0.5v20c0,0.3-0.2,0.5-0.5,0.5h-1.3
		C1257.7,729.6,1257.5,729.4,1257.5,729.1z"/>
	<path class="st1" d="M1280.6,709.1v20c0,0.3-0.2,0.5-0.5,0.5h-1c-0.2,0-0.5,0-0.8-0.6l-10.5-16.6v16.7c0,0.3-0.2,0.5-0.5,0.5h-1.2
		c-0.3,0-0.5-0.2-0.5-0.5v-20c0-0.3,0.2-0.5,0.5-0.5h1.5c0.3,0,0.5,0.2,0.6,0.4l10.3,16.3v-16.2c0-0.3,0.2-0.5,0.5-0.5h1.2
		C1280.4,708.6,1280.6,708.9,1280.6,709.1z"/>
	<path class="st1" d="M1293,720.5v-1.1c0-0.3,0.2-0.5,0.5-0.5h6.8c0.3,0,0.5,0.2,0.5,0.5v9.7c0,0.3-0.2,0.5-0.5,0.5h-1
		c-0.3,0-0.5-0.2-0.5-0.5V727c-1,1.8-3.1,2.9-5.5,2.9c-4.8,0-7.6-3.7-7.6-8.2v-5.2c0-5,3.3-8.2,7.7-8.2c4.4,0,6.9,2.9,7.5,6.4
		c0.1,0.2,0.1,0.4,0.1,0.5c0,0.2-0.1,0.3-0.3,0.3h-1.6c-0.2,0-0.4-0.1-0.4-0.5c-0.3-2.2-2-4.6-5.2-4.6c-3,0-5.4,2.2-5.4,6.1v5.2
		c0,3.8,2.5,6.1,5.5,6.1c3.8,0,5.3-3.1,5.3-5.2V721h-5.2C1293.2,721,1293,720.8,1293,720.5z"/>
</g>
<g>
	<path class="st0" d="M1103.7,1307.3c-0.2-1.8-1-3.5-4.5-3.5c-2.7,0-4.6,0.7-4.6,3.5c0,6.1,11.9,2.3,11.9,10.2
		c0,4.3-3.7,5.8-7.2,5.8c-5.7,0-7.6-4-7.6-6.4c0-0.3,0.2-0.5,0.5-0.5h1.3c0.3,0,0.5,0.2,0.5,0.5c0.1,1.3,0.9,4.4,5.3,4.4
		c2.8,0,4.9-1,4.9-3.8c0-5.6-11.9-2-11.9-10.2c0-3.8,2.9-5.5,6.9-5.5c5.3,0,6.7,3.3,6.7,5.5c0,0.3-0.2,0.5-0.5,0.5h-1.3
		C1103.9,1307.8,1103.8,1307.6,1103.7,1307.3z"/>
	<path class="st0" d="M1109,1303.8v-1.1c0-0.3,0.2-0.5,0.5-0.5h14.9c0.3,0,0.5,0.2,0.5,0.5v1.1c0,0.3-0.2,0.5-0.5,0.5h-6.3v18.4
		c0,0.3-0.2,0.5-0.5,0.5h-1.3c-0.3,0-0.5-0.2-0.5-0.5v-18.4h-6.3C1109.2,1304.3,1109,1304.1,1109,1303.8z"/>
	<path class="st0" d="M1130.5,1323.1h-1.3c-0.3,0-0.5-0.2-0.5-0.5v-20c0-0.3,0.2-0.5,0.5-0.5h7.2c3.8,0,6.5,2,6.5,6v0.4
		c0,2.6-1.4,4.8-4.5,5.7l4.3,8.1c0.1,0.2,0.1,0.3,0.1,0.4c0,0.2-0.1,0.3-0.3,0.3h-1.7c-0.3,0-0.4-0.2-0.5-0.4l-4.2-8.1h-5v8
		C1131,1322.9,1130.8,1323.1,1130.5,1323.1z M1136.3,1312.5c2.2,0,4.3-1.2,4.3-3.8v-0.5c0-3-2.1-3.9-4.3-3.9h-5.3v8.2H1136.3z"/>
	<path class="st0" d="M1160,1304.3h-10.2v7.2h8.2c0.3,0,0.5,0.2,0.5,0.5v1.1c0,0.3-0.2,0.5-0.5,0.5h-8.2v7.4h10.2
		c0.3,0,0.5,0.2,0.5,0.5v1.1c0,0.3-0.2,0.5-0.5,0.5h-11.9c-0.3,0-0.5-0.2-0.5-0.5v-20c0-0.3,0.2-0.5,0.5-0.5h11.9
		c0.3,0,0.5,0.2,0.5,0.5v1.1C1160.6,1304.1,1160.3,1304.3,1160,1304.3z"/>
	<path class="st0" d="M1180.8,1322.8c0,0.2-0.2,0.3-0.4,0.3h-1.5c-0.3,0-0.4-0.2-0.5-0.3l-1.9-5.3h-9.1l-1.9,5.3
		c-0.1,0.3-0.3,0.3-0.4,0.3h-1.5c-0.2,0-0.4-0.2-0.4-0.3c0-0.2,0.1-0.4,0.2-0.6l7.1-19.6c0.1-0.3,0.2-0.5,0.5-0.5h1.7
		c0.3,0,0.5,0.2,0.5,0.5l7.3,19.8C1180.7,1322.5,1180.8,1322.7,1180.8,1322.8z M1175.8,1315.5l-3.8-10.7l-3.8,10.7H1175.8z"/>
	<path class="st0" d="M1204.6,1302.6v20c0,0.3-0.2,0.5-0.5,0.5h-1.2c-0.3,0-0.5-0.2-0.5-0.5v-17.3l-6.7,17.4
		c-0.1,0.2-0.3,0.4-0.5,0.4h-1.2c-0.3,0-0.4-0.2-0.5-0.3l-6.7-17.5v17.3c0,0.3-0.2,0.5-0.5,0.5h-1.2c-0.3,0-0.5-0.2-0.5-0.5v-20
		c0-0.3,0.2-0.5,0.5-0.5h2.4c0.2,0,0.4,0.1,0.4,0.3l6.6,17.5l6.7-17.5c0.1-0.2,0.2-0.3,0.4-0.3h2.3
		C1204.4,1302.1,1204.6,1302.4,1204.6,1302.6z"/>
	<path class="st0" d="M1210.3,1322.6v-20c0-0.3,0.2-0.5,0.5-0.5h1.3c0.3,0,0.5,0.2,0.5,0.5v20c0,0.3-0.2,0.5-0.5,0.5h-1.3
		C1210.5,1323.1,1210.3,1322.9,1210.3,1322.6z"/>
	<path class="st0" d="M1233.4,1302.6v20c0,0.3-0.2,0.5-0.5,0.5h-1c-0.2,0-0.5,0-0.8-0.6l-10.5-16.6v16.7c0,0.3-0.2,0.5-0.5,0.5h-1.2
		c-0.3,0-0.5-0.2-0.5-0.5v-20c0-0.3,0.2-0.5,0.5-0.5h1.5c0.3,0,0.5,0.2,0.6,0.4l10.3,16.3v-16.2c0-0.3,0.2-0.5,0.5-0.5h1.2
		C1233.2,1302.1,1233.4,1302.4,1233.4,1302.6z"/>
	<path class="st0" d="M1245.8,1314v-1.1c0-0.3,0.2-0.5,0.5-0.5h6.8c0.3,0,0.5,0.2,0.5,0.5v9.7c0,0.3-0.2,0.5-0.5,0.5h-1
		c-0.3,0-0.5-0.2-0.5-0.5v-2.1c-1,1.8-3.1,2.9-5.5,2.9c-4.8,0-7.6-3.7-7.6-8.2v-5.2c0-5,3.3-8.2,7.7-8.2c4.4,0,6.9,2.9,7.5,6.4
		c0.1,0.2,0.1,0.4,0.1,0.5c0,0.2-0.1,0.3-0.3,0.3h-1.6c-0.2,0-0.4-0.1-0.4-0.4c-0.3-2.2-2-4.6-5.2-4.6c-3,0-5.4,2.2-5.4,6.1v5.2
		c0,3.8,2.5,6.1,5.5,6.1c3.8,0,5.3-3.2,5.3-5.2v-1.6h-5.2C1246,1314.6,1245.8,1314.3,1245.8,1314z"/>
	<path class="st0" d="M1118.7,1352.2h-5.4v7.4c0,0.3-0.2,0.5-0.5,0.5h-1.3c-0.3,0-0.5-0.2-0.5-0.5v-20c0-0.3,0.2-0.5,0.5-0.5h7.2
		c3.8,0,6.5,2.1,6.5,6.1v0.6C1125.2,1349.8,1122.5,1352.2,1118.7,1352.2z M1113.3,1341.3v8.8h5.3c2.2,0,4.3-1.3,4.3-4.2v-0.6
		c0-3-2.1-4-4.3-4H1113.3z"/>
	<path class="st0" d="M1143.4,1359.8c0,0.2-0.2,0.3-0.4,0.3h-1.5c-0.3,0-0.4-0.2-0.5-0.3l-1.9-5.3h-9.1l-1.9,5.3
		c-0.1,0.3-0.3,0.3-0.4,0.3h-1.5c-0.2,0-0.4-0.2-0.4-0.3c0-0.2,0.1-0.4,0.2-0.6l7.1-19.6c0.1-0.3,0.2-0.5,0.5-0.5h1.7
		c0.3,0,0.5,0.2,0.5,0.5l7.3,19.8C1143.3,1359.5,1143.4,1359.7,1143.4,1359.8z M1138.4,1352.5l-3.8-10.7l-3.8,10.7H1138.4z"/>
	<path class="st0" d="M1149,1360.1h-1.3c-0.3,0-0.5-0.2-0.5-0.5v-20c0-0.3,0.2-0.5,0.5-0.5h7.2c3.8,0,6.5,2,6.5,6v0.4
		c0,2.6-1.4,4.8-4.5,5.7l4.3,8.1c0.1,0.2,0.2,0.3,0.2,0.4c0,0.2-0.2,0.3-0.3,0.3h-1.7c-0.3,0-0.4-0.2-0.5-0.4l-4.2-8.1h-5v8
		C1149.6,1359.9,1149.3,1360.1,1149,1360.1z M1154.8,1349.5c2.2,0,4.3-1.2,4.3-3.8v-0.5c0-3-2.1-3.9-4.3-3.9h-5.3v8.2H1154.8z"/>
	<path class="st0" d="M1164,1340.8v-1.1c0-0.3,0.2-0.5,0.5-0.5h14.9c0.3,0,0.5,0.2,0.5,0.5v1.1c0,0.3-0.2,0.5-0.5,0.5h-6.3v18.4
		c0,0.3-0.2,0.5-0.5,0.5h-1.3c-0.3,0-0.5-0.2-0.5-0.5v-18.4h-6.3C1164.3,1341.3,1164,1341.1,1164,1340.8z"/>
	<path class="st0" d="M1198.8,1339.6v20c0,0.3-0.2,0.5-0.5,0.5h-1c-0.2,0-0.5,0-0.8-0.6l-10.5-16.6v16.7c0,0.3-0.2,0.5-0.5,0.5h-1.2
		c-0.3,0-0.5-0.2-0.5-0.5v-20c0-0.3,0.2-0.5,0.5-0.5h1.5c0.3,0,0.5,0.2,0.6,0.4l10.3,16.3v-16.2c0-0.3,0.2-0.5,0.5-0.5h1.2
		C1198.6,1339.1,1198.8,1339.4,1198.8,1339.6z"/>
	<path class="st0" d="M1217,1341.3h-10.2v7.2h8.2c0.3,0,0.5,0.2,0.5,0.5v1.1c0,0.3-0.2,0.5-0.5,0.5h-8.2v7.4h10.2
		c0.3,0,0.5,0.2,0.5,0.5v1.1c0,0.3-0.2,0.5-0.5,0.5h-11.9c-0.3,0-0.5-0.2-0.5-0.5v-20c0-0.3,0.2-0.5,0.5-0.5h11.9
		c0.3,0,0.5,0.2,0.5,0.5v1.1C1217.5,1341.1,1217.3,1341.3,1217,1341.3z"/>
	<path class="st0" d="M1223.8,1360.1h-1.3c-0.3,0-0.5-0.2-0.5-0.5v-20c0-0.3,0.2-0.5,0.5-0.5h7.2c3.8,0,6.5,2,6.5,6v0.4
		c0,2.6-1.4,4.8-4.5,5.7l4.3,8.1c0.1,0.2,0.2,0.3,0.2,0.4c0,0.2-0.2,0.3-0.3,0.3h-1.7c-0.3,0-0.4-0.2-0.5-0.4l-4.2-8.1h-5v8
		C1224.3,1359.9,1224.1,1360.1,1223.8,1360.1z M1229.6,1349.5c2.2,0,4.3-1.2,4.3-3.8v-0.5c0-3-2.1-3.9-4.3-3.9h-5.3v8.2H1229.6z"/>
</g>
<line class="st4" x1="1173.1" y1="809.9" x2="1173.1" y2="1022.7"/>
<g>
	<defs>
		<rect id="SVGID_3_" x="1114.4" y="1144.6" width="114.4" height="107.6"/>
	</defs>
	<clipPath id="SVGID_2_">
		<use xlink:href="#SVGID_3_"  style="overflow:visible;"/>
	</clipPath>
	<path class="st2" d="M1119,1168.6c-0.2-0.1-0.5-0.1-0.7,0c-0.2,0.1-0.3,0.4-0.2,0.6c3.7,16,11.7,29.9,23.9,41.4
		c7.1,6.7,14.2,11.2,19.3,14.1c-8.2-3.1-22.2-7.5-37.4-7.5c-3,0-6,0.2-8.9,0.5c-0.2,0-0.5,0.2-0.5,0.4c-0.1,0.2,0,0.5,0.2,0.7
		c11.6,9.5,24.4,14.3,38,14.3c3.7,0,6.9-0.4,9.4-0.8c-6.5,2.4-17.1,7.4-25.8,17.8c-0.2,0.2-0.2,0.5,0,0.7c0.1,0.2,0.4,0.3,0.7,0.3
		c10.4-2.6,18.8-6.1,25.1-10.4c4.8-3.3,7.1-6.2,8.2-7.7c0.1,2.8-0.1,9.8-0.2,13.5c-0.1,4.7-0.1,4.7,0,4.9c0.2,0.3,1.1,0.8,1.6,0.8
		c0.5,0,1.4-0.4,1.7-0.8c0.1-0.2,0.1-0.2,0-4.6c-0.1-3.8-0.4-11-0.2-13.8c1.1,1.5,3.4,4.4,8.2,7.7c6.3,4.3,14.7,7.8,25.1,10.4
		c0.3,0.1,0.5,0,0.7-0.3c0.1-0.2,0.1-0.5,0-0.7c-8.7-10.4-19.3-15.4-25.8-17.8c2.5,0.4,5.7,0.8,9.4,0.8c13.7,0,26.5-4.8,38-14.3
		c0.2-0.2,0.3-0.4,0.2-0.7c-0.1-0.2-0.3-0.4-0.5-0.4c-2.9-0.4-5.8-0.5-8.9-0.5c-15.2,0-29.2,4.4-37.4,7.5c5-2.8,12.2-7.4,19.3-14.1
		c12.2-11.5,20.2-25.4,23.9-41.4c0.1-0.2,0-0.5-0.2-0.6c-0.2-0.1-0.5-0.2-0.7,0c-28.4,17.1-43,41.8-48.9,52.4
		c1.6-4.8,3.9-12.6,4.8-22.6c1.7-17.6-1-35.6-7.9-53.3c-0.1-0.2-0.3-0.4-0.6-0.4c-0.3,0-0.5,0.2-0.6,0.4
		c-6.9,17.8-9.6,35.7-7.9,53.4c1,10,3.2,17.9,4.8,22.6C1162,1210.4,1147.4,1185.7,1119,1168.6"/>
</g>
<polygon class="st1" points="1173.1,790.5 1158,816.7 1188.3,816.7 "/>
<polygon class="st1" points="1173.1,1038.1 1188.3,1011.9 1158,1011.9 "/>
<line class="st5" x1="246.8" y1="581.3" x2="246.8" y2="630.3"/>
<line class="st5" x1="560.5" y1="581.3" x2="560.5" y2="630.3"/>
<line class="st5" x1="844.9" y1="581.3" x2="844.9" y2="630.3"/>
<line class="st5" x1="1173.1" y1="581.3" x2="1173.1" y2="630.3"/>
<line class="st5" x1="1488" y1="581.3" x2="1488" y2="630.3"/>
<line class="st5" x1="1772.4" y1="581.3" x2="1772.4" y2="630.3"/>
<line class="st5" x1="2080.4" y1="581.3" x2="2080.4" y2="630.3"/>
<g>
	<g>
		<path class="st5" d="M246.8,809.9c0,128.4,56.3,373.9,520.3,373.9h219.6"/>
	</g>
	<g>
		<polygon class="st1" points="1008,1183.8 981.8,1198.9 981.8,1168.6 		"/>
		<path class="st5" d="M560.5,809.9c0,128.4,30.7,373.9,426.3,373.9"/>
	</g>
	<path class="st5" d="M844.9,809.9c0,128.4,12,373.9,136.9,373.9"/>
</g>
<g>
	<g>
		<path class="st5" d="M2080.4,809.9c0,128.4-56.3,373.9-520.3,373.9h-219.6"/>
	</g>
	<g>
		<polygon class="st1" points="1319.1,1183.8 1345.3,1198.9 1345.3,1168.6 		"/>
		<path class="st5" d="M1772.4,809.9c0,128.4-36.4,373.9-432,373.9"/>
	</g>
	<path class="st5" d="M1488,809.9c0,128.4-17.8,373.9-142.7,373.9"/>
</g>
</svg>
