<svg xmlns="http://www.w3.org/2000/svg" xmlns:xlink="http://www.w3.org/1999/xlink" viewBox="0 0 565.71 1060.76"><defs><clipPath id="clip-path"><rect x="472.34" y="474.72" width="46.14" height="43.37" fill="none"/></clipPath></defs><title>Asset 10</title><g id="Layer_2" data-name="Layer 2"><g id="Layer_1-2" data-name="Layer 1"><rect width="565.71" height="1060.76" fill="#4b4e53"/><path d="M64.42,532.32c-3.8,0-7.41.11-11,0a4.34,4.34,0,0,1-3.78-2.11c-1.6-3-13.29-25.94-13.77-26.86-.09-.18-.07-.79.7-.79,3.12,0,6.24,0,9.35,0,2.17,0,3.77.81,4.61,2.35C51.73,507,64.32,532,64.42,532.32" fill="#a5b993"/><path d="M85.35,532.32c-3.8,0-7.41.11-11,0a4.34,4.34,0,0,1-3.78-2.11c-1.6-3-13.29-25.94-13.77-26.86-.09-.18-.07-.79.7-.79,3.12,0,6.24,0,9.35,0,2.17,0,3.78.81,4.61,2.35C72.66,507,85.25,532,85.35,532.32" fill="#a5b993"/><path d="M97.49,502.63h0c-.45-.08-3.42-.12-6.38-.12a5.11,5.11,0,0,0-4.74,3c-1.45,2.76-2.83,5.55-4.24,8.33a.67.67,0,0,0,.58,1c.45.08,3.42.12,6.38.12a5.11,5.11,0,0,0,4.74-3c1.45-2.76,2.83-5.56,4.24-8.33a.67.67,0,0,0-.58-1" fill="#a5b993"/><path d="M235.14,70.61a6.74,6.74,0,0,1-6.94,6.32c-4.1,0-7.18-3-7.18-7.61V65.11c0-4.59,3.08-7.61,7.18-7.61a6.68,6.68,0,0,1,6.91,6.15.45.45,0,0,1-.49.54h-2c-.22,0-.43-.13-.49-.54a3.86,3.86,0,0,0-3.94-3.43c-2.37,0-4.26,1.78-4.26,4.91v4.18c0,3.13,1.92,4.89,4.26,4.89a3.79,3.79,0,0,0,4-3.51c0-.3.13-.57.49-.57h2.05A.44.44,0,0,1,235.14,70.61Z" fill="#fff"/><path d="M248.08,76.66h-1.46A.61.61,0,0,1,246,76v-.89a3.72,3.72,0,0,1-3.43,1.78h-.43c-2.27,0-4.35-1.08-4.35-4.08,0-3.81,3.56-4.1,5.43-4.1H246v-.7c0-1.62-.65-2.67-2.65-2.67-1.73,0-2.08.7-2.27,1.51a.52.52,0,0,1-.51.43h-1.7a.47.47,0,0,1-.51-.49,2,2,0,0,1,.05-.32c.3-1.43,1.11-3.62,4.94-3.62,4.56,0,5.34,2.67,5.34,5.24V76A.61.61,0,0,1,248.08,76.66Zm-7.58-3.81c0,1.35,1.11,1.78,2.21,1.78h.43c2.51,0,2.86-1.62,2.86-3.08v-.67h-2.7C241.6,70.88,240.49,71.29,240.49,72.85Z" fill="#fff"/><path d="M255,82.06h-1.65a.61.61,0,0,1-.62-.62V63.81a.62.62,0,0,1,.62-.65H255a.62.62,0,0,1,.62.65v.86a4.29,4.29,0,0,1,3.78-1.78c3,0,4.94,2.13,4.94,6.15v1.62c0,4.1-2,6.26-4.94,6.26a4.26,4.26,0,0,1-3.78-1.78v6.29A.61.61,0,0,1,255,82.06Zm3.54-7.61c1.94,0,2.92-1.4,2.92-3.32v-2.4c0-1.92-1-3.35-2.92-3.35s-2.92,1.4-2.92,3.27v2.48C255.61,73,256.61,74.45,258.53,74.45Z" fill="#fff"/><path d="M271.25,59.36a1.77,1.77,0,1,1-1.78-1.75A1.69,1.69,0,0,1,271.25,59.36ZM268,76V63.81a.62.62,0,0,1,.62-.65h1.65a.62.62,0,0,1,.62.65V76a.61.61,0,0,1-.62.62h-1.65A.61.61,0,0,1,268,76Z" fill="#fff"/><path d="M275.89,72.34V65.73H274a.61.61,0,0,1-.62-.62v-1.3a.62.62,0,0,1,.62-.65c1.32,0,1.89-.3,1.89-1.7V60.3a.62.62,0,0,1,.62-.65h1.57a.64.64,0,0,1,.65.65v2.86h2.73a.62.62,0,0,1,.62.65v1.3a.61.61,0,0,1-.62.62h-2.73v6.18c0,1.54.19,2.11,1.78,2.11h.94a.63.63,0,0,1,.62.65V76a.61.61,0,0,1-.62.62H280C276.81,76.66,275.89,75.12,275.89,72.34Z" fill="#fff"/><path d="M294.76,76.66H293.3a.61.61,0,0,1-.62-.62v-.89a3.72,3.72,0,0,1-3.43,1.78h-.43c-2.27,0-4.35-1.08-4.35-4.08,0-3.81,3.56-4.1,5.43-4.1h2.78v-.7c0-1.62-.65-2.67-2.65-2.67-1.73,0-2.08.7-2.27,1.51a.52.52,0,0,1-.51.43h-1.7a.47.47,0,0,1-.51-.49,2,2,0,0,1,.05-.32c.3-1.43,1.11-3.62,4.94-3.62,4.56,0,5.34,2.67,5.34,5.24V76A.61.61,0,0,1,294.76,76.66Zm-7.58-3.81c0,1.35,1.11,1.78,2.21,1.78h.43c2.51,0,2.86-1.62,2.86-3.08v-.67H290C288.28,70.88,287.18,71.29,287.18,72.85Z" fill="#fff"/><path d="M299.49,76V58.41a.62.62,0,0,1,.62-.65h1.65a.62.62,0,0,1,.62.65V76a.61.61,0,0,1-.62.62h-1.65A.61.61,0,0,1,299.49,76Z" fill="#fff"/><path d="M319.63,65.73H317V76a.63.63,0,0,1-.65.62h-1.65A.61.61,0,0,1,314,76V65.73h-1.86a.61.61,0,0,1-.62-.62v-1.3a.62.62,0,0,1,.62-.65H314V62.6c0-3.56,1.35-4.83,4.72-4.83h.86a.62.62,0,0,1,.62.65v1.32a.61.61,0,0,1-.62.62h-.86c-1.51,0-1.81.43-1.81,2.21v.59h2.67a.62.62,0,0,1,.62.65v1.3A.61.61,0,0,1,319.63,65.73Z" fill="#fff"/><path d="M328.4,62.89c3.24,0,5.8,2.38,5.8,6.15V70.8c0,3.78-2.56,6.13-5.8,6.13s-5.8-2.35-5.8-6.13V69C322.6,65.27,325.14,62.89,328.4,62.89Zm0,11.55c1.67,0,2.89-1.16,2.89-3.32V68.7c0-2.16-1.21-3.32-2.89-3.32s-2.92,1.16-2.92,3.32v2.43C325.49,73.29,326.73,74.45,328.4,74.45Z" fill="#fff"/><path d="M337.77,76V63.81a.62.62,0,0,1,.62-.65h1.49a.64.64,0,0,1,.65.65v1.38a4,4,0,0,1,3.59-2h.35a.62.62,0,0,1,.62.65v1.62a.61.61,0,0,1-.62.62h-.41c-2.24,0-3.43,1.35-3.43,3.89V76a.62.62,0,0,1-.65.62h-1.59A.61.61,0,0,1,337.77,76Z" fill="#fff"/><path d="M201,113V95.41a.62.62,0,0,1,.62-.65h1.65a.62.62,0,0,1,.62.65V113a.61.61,0,0,1-.62.62h-1.65A.61.61,0,0,1,201,113Z" fill="#fff"/><path d="M208.28,113V100.81a.62.62,0,0,1,.62-.65h1.65a.62.62,0,0,1,.62.65v.89a4.13,4.13,0,0,1,3.73-1.81c3.32,0,4.91,2.48,4.91,6.15v7a.61.61,0,0,1-.62.62h-1.65a.61.61,0,0,1-.62-.62V105.7c0-2.16-1.21-3.32-2.89-3.32s-2.86,1.16-2.86,3.32V113a.61.61,0,0,1-.62.62H208.9A.61.61,0,0,1,208.28,113Z" fill="#fff"/><path d="M227.18,96.36a1.77,1.77,0,1,1-1.78-1.75A1.69,1.69,0,0,1,227.18,96.36ZM224,113V100.81a.62.62,0,0,1,.62-.65h1.65a.62.62,0,0,1,.62.65V113a.61.61,0,0,1-.62.62h-1.65A.61.61,0,0,1,224,113Z" fill="#fff"/><path d="M231.83,109.34v-6.61H230a.61.61,0,0,1-.62-.62v-1.3a.62.62,0,0,1,.62-.65c1.32,0,1.89-.3,1.89-1.7V97.3a.62.62,0,0,1,.62-.65H234a.64.64,0,0,1,.65.65v2.86h2.73a.62.62,0,0,1,.62.65v1.3a.61.61,0,0,1-.62.62h-2.73v6.18c0,1.54.19,2.11,1.78,2.11h.94a.63.63,0,0,1,.62.65V113a.61.61,0,0,1-.62.62H236C232.74,113.66,231.83,112.12,231.83,109.34Z" fill="#fff"/><path d="M244.73,96.36A1.77,1.77,0,1,1,243,94.6,1.69,1.69,0,0,1,244.73,96.36ZM241.52,113V100.81a.62.62,0,0,1,.62-.65h1.65a.62.62,0,0,1,.62.65V113a.61.61,0,0,1-.62.62h-1.65A.61.61,0,0,1,241.52,113Z" fill="#fff"/><path d="M258.15,113.66h-1.46a.61.61,0,0,1-.62-.62v-.89a3.72,3.72,0,0,1-3.43,1.78h-.43c-2.27,0-4.35-1.08-4.35-4.08,0-3.81,3.56-4.1,5.43-4.1h2.78v-.7c0-1.62-.65-2.67-2.65-2.67-1.73,0-2.08.7-2.27,1.51a.52.52,0,0,1-.51.43h-1.7a.47.47,0,0,1-.51-.49,2,2,0,0,1,.05-.32c.3-1.43,1.11-3.62,4.94-3.62,4.56,0,5.34,2.67,5.34,5.24V113A.61.61,0,0,1,258.15,113.66Zm-7.58-3.81c0,1.35,1.11,1.78,2.21,1.78h.43c2.51,0,2.86-1.62,2.86-3.08v-.67h-2.7C251.67,107.88,250.56,108.29,250.56,109.85Z" fill="#fff"/><path d="M262.88,113V95.41a.62.62,0,0,1,.62-.65h1.65a.62.62,0,0,1,.62.65V113a.61.61,0,0,1-.62.62H263.5A.61.61,0,0,1,262.88,113Z" fill="#fff"/><path d="M279.1,113.66h-1.65a.61.61,0,0,1-.62-.62V95.41a.62.62,0,0,1,.62-.65h1.65a.62.62,0,0,1,.62.65v6.26a4.29,4.29,0,0,1,3.78-1.78c3,0,4.94,2.13,4.94,6.15v1.62c0,4.1-2,6.26-4.94,6.26a4.26,4.26,0,0,1-3.78-1.78V113A.61.61,0,0,1,279.1,113.66Zm3.54-2.21c1.94,0,2.92-1.4,2.92-3.32v-2.4c0-1.92-1-3.35-2.92-3.35s-2.92,1.4-2.92,3.27v2.48C279.72,110,280.72,111.45,282.64,111.45Z" fill="#fff"/><path d="M303.08,100.81V113a.61.61,0,0,1-.62.62h-1.65a.61.61,0,0,1-.62-.62v-.84a4,4,0,0,1-3.62,1.73c-3.16,0-4.7-2.35-4.7-6.13v-7a.62.62,0,0,1,.62-.65h1.65a.62.62,0,0,1,.62.65v7.31c0,2.16,1,3.32,2.67,3.32s2.75-1.16,2.75-3.32v-7.31a.62.62,0,0,1,.62-.65h1.65A.62.62,0,0,1,303.08,100.81Z" fill="#fff"/><path d="M310.59,96.36a1.77,1.77,0,1,1-1.78-1.75A1.69,1.69,0,0,1,310.59,96.36ZM307.37,113V100.81a.62.62,0,0,1,.62-.65h1.65a.62.62,0,0,1,.62.65V113a.61.61,0,0,1-.62.62H308A.61.61,0,0,1,307.37,113Z" fill="#fff"/><path d="M314.64,113V95.41a.62.62,0,0,1,.62-.65h1.65a.62.62,0,0,1,.62.65V113a.61.61,0,0,1-.62.62h-1.65A.61.61,0,0,1,314.64,113Z" fill="#fff"/><path d="M329.89,113v-.89a4.26,4.26,0,0,1-3.78,1.78c-2.94,0-4.94-2.16-4.94-6.26V106c0-4,1.92-6.15,4.94-6.15a4.29,4.29,0,0,1,3.78,1.78V95.41a.62.62,0,0,1,.62-.65h1.65a.62.62,0,0,1,.62.65V113a.61.61,0,0,1-.62.62h-1.65A.61.61,0,0,1,329.89,113Zm0-4.91v-2.48c0-1.86-1-3.27-2.92-3.27s-2.92,1.43-2.92,3.35v2.4c0,1.92,1,3.32,2.89,3.32S329.89,110,329.89,108.13Z" fill="#fff"/><path d="M349,99.89c3.24,0,5.8,2.37,5.8,6.15v1.75c0,3.78-2.56,6.13-5.8,6.13s-5.8-2.35-5.8-6.13V106C343.17,102.27,345.71,99.89,349,99.89Zm0,11.55c1.67,0,2.89-1.16,2.89-3.32V105.7c0-2.16-1.21-3.32-2.89-3.32s-2.92,1.16-2.92,3.32v2.43C346.06,110.29,347.3,111.45,349,111.45Z" fill="#fff"/><path d="M358.35,113V100.81a.62.62,0,0,1,.62-.65h1.48a.64.64,0,0,1,.65.65v1.38a4,4,0,0,1,3.59-2H365a.62.62,0,0,1,.62.65v1.62a.61.61,0,0,1-.62.62h-.41c-2.24,0-3.43,1.35-3.43,3.89V113a.62.62,0,0,1-.65.62H359A.61.61,0,0,1,358.35,113Z" fill="#fff"/><path d="M228.8,148.45a2.6,2.6,0,0,0,2.65-1.62.77.77,0,0,1,.65-.38h1.73a.41.41,0,0,1,.43.43,1.4,1.4,0,0,1-.11.46,5.55,5.55,0,0,1-5.34,3.59A5.74,5.74,0,0,1,223,144.8V143c0-3.78,2.56-6.15,5.8-6.15a5.74,5.74,0,0,1,5.75,6.07v1.27a.63.63,0,0,1-.65.62h-8v.38A3,3,0,0,0,228.8,148.45Zm2.89-5.94a2.92,2.92,0,1,0-5.83,0v.3h5.83Z" fill="#fff"/><path d="M236.25,150.23a1.32,1.32,0,0,1,.3-.62l3.89-5.72-3.75-5.56a1.64,1.64,0,0,1-.38-.7.45.45,0,0,1,.46-.46h1.81a1,1,0,0,1,.89.54l2.64,4.1,2.65-4.1a1,1,0,0,1,.89-.54h1.65a.44.44,0,0,1,.46.46,1.4,1.4,0,0,1-.35.65l-3.7,5.53,3.75,5.64c.22.35.41.57.41.78a.43.43,0,0,1-.46.43h-1.78a1,1,0,0,1-.89-.51L242,145.91l-2.75,4.24a1,1,0,0,1-.84.51h-1.7A.43.43,0,0,1,236.25,150.23Z" fill="#fff"/><path d="M252.86,156.06h-1.65a.61.61,0,0,1-.62-.62V137.81a.62.62,0,0,1,.62-.65h1.65a.62.62,0,0,1,.62.65v.86a4.29,4.29,0,0,1,3.78-1.78c3,0,4.94,2.13,4.94,6.15v1.62c0,4.1-2,6.26-4.94,6.26a4.26,4.26,0,0,1-3.78-1.78v6.29A.61.61,0,0,1,252.86,156.06Zm3.54-7.61c1.94,0,2.92-1.4,2.92-3.32v-2.4c0-1.92-1-3.35-2.92-3.35s-2.92,1.4-2.92,3.27v2.48C253.48,147,254.48,148.45,256.4,148.45Z" fill="#fff"/><path d="M275.21,150.66h-1.46a.61.61,0,0,1-.62-.62v-.89a3.72,3.72,0,0,1-3.43,1.78h-.43c-2.27,0-4.35-1.08-4.35-4.08,0-3.81,3.56-4.1,5.43-4.1h2.78v-.7c0-1.62-.65-2.67-2.65-2.67-1.73,0-2.08.7-2.27,1.51a.52.52,0,0,1-.51.43H266a.47.47,0,0,1-.51-.49,2,2,0,0,1,.05-.32c.3-1.43,1.11-3.62,4.94-3.62,4.56,0,5.34,2.67,5.34,5.24V150A.61.61,0,0,1,275.21,150.66Zm-7.58-3.81c0,1.35,1.11,1.78,2.21,1.78h.43c2.51,0,2.86-1.62,2.86-3.08v-.67h-2.7C268.74,144.88,267.63,145.29,267.63,146.85Z" fill="#fff"/><path d="M279.86,150V137.81a.62.62,0,0,1,.62-.65h1.65a.62.62,0,0,1,.62.65v.89a4.13,4.13,0,0,1,3.73-1.81c3.32,0,4.91,2.48,4.91,6.15v7a.61.61,0,0,1-.62.62h-1.65a.61.61,0,0,1-.62-.62V142.7c0-2.16-1.21-3.32-2.89-3.32s-2.86,1.16-2.86,3.32V150a.61.61,0,0,1-.62.62h-1.65A.61.61,0,0,1,279.86,150Z" fill="#fff"/><path d="M294.74,147.18a.9.9,0,0,1,0-.38.42.42,0,0,1,.46-.43h1.67a.5.5,0,0,1,.51.41c.19.73.78,1.81,2.73,1.81,1.54,0,2.51-.49,2.51-1.7,0-2.81-7.67-.54-7.67-6,0-2.78,2.4-3.94,5.1-3.94a4.79,4.79,0,0,1,5,3.59,1.43,1.43,0,0,1,.05.38.48.48,0,0,1-.49.46H303c-.32,0-.41-.14-.51-.43a2.27,2.27,0,0,0-2.54-1.65c-1.16,0-2.21.35-2.21,1.46,0,3,7.64.7,7.64,6.1,0,3.05-2.48,4.13-5.29,4.13C296.76,150.93,295,149,294.74,147.18Z" fill="#fff"/><path d="M312.21,133.36a1.77,1.77,0,1,1-1.78-1.75A1.69,1.69,0,0,1,312.21,133.36ZM309,150V137.81a.62.62,0,0,1,.62-.65h1.65a.62.62,0,0,1,.62.65V150a.61.61,0,0,1-.62.62h-1.65A.61.61,0,0,1,309,150Z" fill="#fff"/><path d="M321.38,136.89c3.24,0,5.8,2.38,5.8,6.15v1.75c0,3.78-2.56,6.13-5.8,6.13s-5.8-2.35-5.8-6.13V143C315.58,139.27,318.12,136.89,321.38,136.89Zm0,11.55c1.67,0,2.89-1.16,2.89-3.32V142.7c0-2.16-1.21-3.32-2.89-3.32s-2.92,1.16-2.92,3.32v2.43C318.47,147.29,319.71,148.45,321.38,148.45Z" fill="#fff"/><path d="M330.75,150V137.81a.62.62,0,0,1,.62-.65H333a.62.62,0,0,1,.62.65v.89a4.13,4.13,0,0,1,3.72-1.81c3.32,0,4.91,2.48,4.91,6.15v7a.61.61,0,0,1-.62.62H340a.61.61,0,0,1-.62-.62V142.7c0-2.16-1.21-3.32-2.89-3.32s-2.86,1.16-2.86,3.32V150a.61.61,0,0,1-.62.62h-1.65A.61.61,0,0,1,330.75,150Z" fill="#fff"/><path d="M219.21,232.59a6.74,6.74,0,0,1-6.94,6.32c-4.1,0-7.18-3-7.18-7.61v-4.21c0-4.59,3.08-7.61,7.18-7.61a6.68,6.68,0,0,1,6.91,6.15.45.45,0,0,1-.49.54h-2c-.22,0-.43-.13-.49-.54a3.86,3.86,0,0,0-3.94-3.43c-2.37,0-4.26,1.78-4.26,4.91v4.18c0,3.13,1.92,4.89,4.26,4.89a3.79,3.79,0,0,0,4-3.51c0-.3.13-.57.49-.57h2.05A.44.44,0,0,1,219.21,232.59Z" fill="#fff"/><path d="M228,224.87c3.24,0,5.8,2.38,5.8,6.15v1.75c0,3.78-2.56,6.13-5.8,6.13s-5.8-2.35-5.8-6.13V231C222.24,227.24,224.78,224.87,228,224.87Zm0,11.55c1.67,0,2.89-1.16,2.89-3.32v-2.43c0-2.16-1.21-3.32-2.89-3.32s-2.92,1.16-2.92,3.32v2.43C225.13,235.26,226.37,236.42,228,236.42Z" fill="#fff"/><path d="M237.42,238V225.78a.62.62,0,0,1,.62-.65h1.65a.62.62,0,0,1,.62.65v.89a4.13,4.13,0,0,1,3.72-1.81c3.32,0,4.91,2.48,4.91,6.15v7a.61.61,0,0,1-.62.62h-1.65a.61.61,0,0,1-.62-.62v-7.34c0-2.16-1.21-3.32-2.89-3.32s-2.86,1.16-2.86,3.32V238a.61.61,0,0,1-.62.62H238A.61.61,0,0,1,237.42,238Z" fill="#fff"/><path d="M252.29,235.15a.89.89,0,0,1,0-.38.42.42,0,0,1,.46-.43h1.67a.5.5,0,0,1,.51.4c.19.73.78,1.81,2.73,1.81,1.54,0,2.51-.49,2.51-1.7,0-2.81-7.67-.54-7.67-6,0-2.78,2.4-3.94,5.1-3.94a4.79,4.79,0,0,1,5,3.59,1.4,1.4,0,0,1,.05.38.48.48,0,0,1-.49.46h-1.67c-.32,0-.41-.14-.51-.43a2.27,2.27,0,0,0-2.54-1.65c-1.16,0-2.21.35-2.21,1.46,0,3,7.64.7,7.64,6.1,0,3.05-2.48,4.13-5.29,4.13C254.32,238.9,252.59,237,252.29,235.15Z" fill="#fff"/><path d="M267,234.31V227.7h-1.86a.61.61,0,0,1-.62-.62v-1.3a.62.62,0,0,1,.62-.65c1.32,0,1.89-.3,1.89-1.7v-1.16a.62.62,0,0,1,.62-.65h1.57a.64.64,0,0,1,.65.65v2.86h2.73a.62.62,0,0,1,.62.65v1.3a.61.61,0,0,1-.62.62H269.9v6.18c0,1.54.19,2.1,1.78,2.1h.94a.63.63,0,0,1,.62.65V238a.61.61,0,0,1-.62.62h-1.43C268,238.63,267,237.09,267,234.31Z" fill="#fff"/><path d="M276.59,238V225.78a.62.62,0,0,1,.62-.65h1.48a.64.64,0,0,1,.65.65v1.38a4,4,0,0,1,3.59-2h.35a.62.62,0,0,1,.62.65v1.62a.61.61,0,0,1-.62.62h-.41c-2.24,0-3.43,1.35-3.43,3.89V238a.62.62,0,0,1-.65.62h-1.59A.61.61,0,0,1,276.59,238Z" fill="#fff"/><path d="M298.32,225.78V238a.61.61,0,0,1-.62.62h-1.65a.61.61,0,0,1-.62-.62v-.84a4,4,0,0,1-3.62,1.73c-3.16,0-4.7-2.35-4.7-6.13v-7a.62.62,0,0,1,.62-.65h1.65a.62.62,0,0,1,.62.65v7.31c0,2.16,1,3.32,2.67,3.32s2.75-1.16,2.75-3.32v-7.31a.62.62,0,0,1,.62-.65h1.65A.62.62,0,0,1,298.32,225.78Z" fill="#fff"/><path d="M307.64,236.42a2.64,2.64,0,0,0,2.75-2.35.46.46,0,0,1,.46-.4h1.86a.43.43,0,0,1,.43.46,2.09,2.09,0,0,1,0,.4,5.47,5.47,0,0,1-5.48,4.37c-3.21,0-5.75-2.35-5.75-6.13V231c0-3.78,2.54-6.15,5.72-6.15a5.5,5.5,0,0,1,5.51,4.45,3,3,0,0,1,.05.35.4.4,0,0,1-.43.43h-1.84a.47.47,0,0,1-.49-.4,2.72,2.72,0,0,0-2.81-2.35c-1.67,0-2.92,1.16-2.92,3.32v2.43C304.7,235.26,306,236.42,307.64,236.42Z" fill="#fff"/><path d="M317.36,234.31V227.7H315.5a.61.61,0,0,1-.62-.62v-1.3a.62.62,0,0,1,.62-.65c1.32,0,1.89-.3,1.89-1.7v-1.16a.62.62,0,0,1,.62-.65h1.57a.64.64,0,0,1,.65.65v2.86h2.73a.62.62,0,0,1,.62.65v1.3a.61.61,0,0,1-.62.62h-2.73v6.18c0,1.54.19,2.1,1.78,2.1h.95a.63.63,0,0,1,.62.65V238a.61.61,0,0,1-.62.62h-1.43C318.28,238.63,317.36,237.09,317.36,234.31Z" fill="#fff"/><path d="M330.27,221.33a1.77,1.77,0,1,1-1.78-1.75A1.69,1.69,0,0,1,330.27,221.33ZM327.05,238V225.78a.62.62,0,0,1,.62-.65h1.65a.62.62,0,0,1,.62.65V238a.61.61,0,0,1-.62.62h-1.65A.61.61,0,0,1,327.05,238Z" fill="#fff"/><path d="M339.45,224.87c3.24,0,5.8,2.38,5.8,6.15v1.75c0,3.78-2.56,6.13-5.8,6.13s-5.8-2.35-5.8-6.13V231C333.64,227.24,336.18,224.87,339.45,224.87Zm0,11.55c1.67,0,2.89-1.16,2.89-3.32v-2.43c0-2.16-1.21-3.32-2.89-3.32s-2.92,1.16-2.92,3.32v2.43C336.53,235.26,337.77,236.42,339.45,236.42Z" fill="#fff"/><path d="M348.82,238V225.78a.62.62,0,0,1,.62-.65h1.65a.62.62,0,0,1,.62.65v.89a4.13,4.13,0,0,1,3.73-1.81c3.32,0,4.91,2.48,4.91,6.15v7a.61.61,0,0,1-.62.62h-1.65a.61.61,0,0,1-.62-.62v-7.34c0-2.16-1.21-3.32-2.89-3.32s-2.86,1.16-2.86,3.32V238a.61.61,0,0,1-.62.62h-1.65A.61.61,0,0,1,348.82,238Z" fill="#fff"/><path d="M224,257.39V275a.63.63,0,0,1-.65.62h-1.54a.61.61,0,0,1-.62-.62v-13.9l-5.21,14.09a.57.57,0,0,1-.57.43h-1.51a.53.53,0,0,1-.54-.4l-5.26-14.14V275a.61.61,0,0,1-.62.62h-1.51a.61.61,0,0,1-.62-.62V257.39a.62.62,0,0,1,.62-.65h2.89a.5.5,0,0,1,.51.32l5.32,14.52,5.37-14.5a.5.5,0,0,1,.49-.35h2.81A.64.64,0,0,1,224,257.39Z" fill="#fff"/><path d="M237.72,275.63h-1.46a.61.61,0,0,1-.62-.62v-.89a3.72,3.72,0,0,1-3.43,1.78h-.43c-2.27,0-4.35-1.08-4.35-4.08,0-3.81,3.56-4.1,5.43-4.1h2.78V267c0-1.62-.65-2.67-2.65-2.67-1.73,0-2.08.7-2.27,1.51a.52.52,0,0,1-.51.43h-1.7a.47.47,0,0,1-.51-.49,2,2,0,0,1,.05-.32c.3-1.43,1.11-3.62,4.94-3.62,4.56,0,5.34,2.67,5.34,5.24V275A.61.61,0,0,1,237.72,275.63Zm-7.58-3.81c0,1.35,1.11,1.78,2.21,1.78h.43c2.51,0,2.86-1.62,2.86-3.08v-.67h-2.7C231.25,269.86,230.14,270.26,230.14,271.83Z" fill="#fff"/><path d="M242.37,275V262.78a.62.62,0,0,1,.62-.65h1.65a.62.62,0,0,1,.62.65v.89a4.13,4.13,0,0,1,3.72-1.81c3.32,0,4.91,2.48,4.91,6.15v7a.61.61,0,0,1-.62.62h-1.65A.61.61,0,0,1,251,275v-7.34c0-2.16-1.21-3.32-2.89-3.32s-2.86,1.16-2.86,3.32V275a.61.61,0,0,1-.62.62H243A.61.61,0,0,1,242.37,275Z" fill="#fff"/><path d="M267.37,275.63h-1.46a.61.61,0,0,1-.62-.62v-.89a3.72,3.72,0,0,1-3.43,1.78h-.43c-2.27,0-4.35-1.08-4.35-4.08,0-3.81,3.56-4.1,5.43-4.1h2.78V267c0-1.62-.65-2.67-2.65-2.67-1.73,0-2.08.7-2.27,1.51a.52.52,0,0,1-.51.43h-1.7a.47.47,0,0,1-.51-.49,2,2,0,0,1,.05-.32c.3-1.43,1.11-3.62,4.94-3.62,4.56,0,5.34,2.67,5.34,5.24V275A.61.61,0,0,1,267.37,275.63Zm-7.58-3.81c0,1.35,1.11,1.78,2.21,1.78h.43c2.51,0,2.86-1.62,2.86-3.08v-.67h-2.7C260.89,269.86,259.79,270.26,259.79,271.83Z" fill="#fff"/><path d="M283.71,277.17c0,2.29-1.67,4.13-4.72,4.13h-3.13c-3,0-4.72-1.86-4.72-4.13a3.3,3.3,0,0,1,1.81-3.13,2.1,2.1,0,0,1-1.24-2,2.12,2.12,0,0,1,1.86-2.21,3.7,3.7,0,0,1-1.75-3.32c0-2.83,2.13-4.62,5.18-4.62h.67a4.74,4.74,0,0,1,2.75.86V261a.63.63,0,0,1,.62-.65h1.35a.66.66,0,0,1,.65.65v5.51c0,3-2.11,4.62-5.13,4.62h-2.62c-.65,0-1.11.32-1.11,1s.41.94,1.32.94H279C282,273,283.71,274.85,283.71,277.17Zm-2.73,0c0-1.19-.65-2-2.51-2h-2.13c-1.86,0-2.48.81-2.48,2s.62,1.86,2.48,1.86h2.13C280.33,279.06,281,278.36,281,277.2Zm-6.45-10.72a2.28,2.28,0,0,0,2.54,2.35h.7a2.36,2.36,0,1,0,0-4.7h-.7A2.29,2.29,0,0,0,274.53,266.48Z" fill="#fff"/><path d="M291.89,273.42a2.6,2.6,0,0,0,2.65-1.62.77.77,0,0,1,.65-.38h1.73a.41.41,0,0,1,.43.43,1.4,1.4,0,0,1-.11.46,5.55,5.55,0,0,1-5.34,3.59,5.74,5.74,0,0,1-5.83-6.13V268c0-3.78,2.56-6.15,5.8-6.15a5.74,5.74,0,0,1,5.75,6.07v1.27a.63.63,0,0,1-.65.62h-8v.38A3,3,0,0,0,291.89,273.42Zm2.89-5.94a2.92,2.92,0,1,0-5.83,0v.3h5.83Z" fill="#fff"/><path d="M320.45,268.37V275a.61.61,0,0,1-.62.62h-1.65a.61.61,0,0,1-.62-.62V268.1c0-2.29-.38-3.75-2.59-3.75s-2.73,1.43-2.73,3.75V275a.61.61,0,0,1-.62.62H310a.61.61,0,0,1-.62-.62V268.1c0-2.46-.49-3.75-2.56-3.75-2.29,0-2.75,1.57-2.75,3.78V275a.61.61,0,0,1-.62.62h-1.65a.61.61,0,0,1-.62-.62V262.78a.62.62,0,0,1,.62-.65h1.65a.62.62,0,0,1,.62.65v.89a3.87,3.87,0,0,1,3.51-1.84,4.28,4.28,0,0,1,4,2.21,4.75,4.75,0,0,1,4.21-2.19C319.69,261.87,320.45,264.49,320.45,268.37Z" fill="#fff"/><path d="M329.71,273.42a2.6,2.6,0,0,0,2.65-1.62.77.77,0,0,1,.65-.38h1.73a.41.41,0,0,1,.43.43,1.42,1.42,0,0,1-.11.46,5.55,5.55,0,0,1-5.34,3.59,5.74,5.74,0,0,1-5.83-6.13V268c0-3.78,2.56-6.15,5.8-6.15a5.74,5.74,0,0,1,5.75,6.07v1.27a.63.63,0,0,1-.65.62h-8v.38A3,3,0,0,0,329.71,273.42Zm2.89-5.94a2.92,2.92,0,1,0-5.83,0v.3h5.83Z" fill="#fff"/><path d="M339,275V262.78a.62.62,0,0,1,.62-.65h1.65a.62.62,0,0,1,.62.65v.89a4.13,4.13,0,0,1,3.73-1.81c3.32,0,4.91,2.48,4.91,6.15v7a.61.61,0,0,1-.62.62h-1.65a.61.61,0,0,1-.62-.62v-7.34c0-2.16-1.21-3.32-2.89-3.32s-2.86,1.16-2.86,3.32V275a.61.61,0,0,1-.62.62H339.6A.61.61,0,0,1,339,275Z" fill="#fff"/><path d="M355.2,271.31V264.7h-1.86a.61.61,0,0,1-.62-.62v-1.3a.62.62,0,0,1,.62-.65c1.32,0,1.89-.3,1.89-1.7v-1.16a.62.62,0,0,1,.62-.65h1.57a.64.64,0,0,1,.65.65v2.86h2.73a.62.62,0,0,1,.62.65v1.3a.61.61,0,0,1-.62.62h-2.73v6.18c0,1.54.19,2.1,1.78,2.1h.95a.63.63,0,0,1,.62.65V275a.61.61,0,0,1-.62.62h-1.43C356.12,275.63,355.2,274.09,355.2,271.31Z" fill="#fff"/><path d="M225.71,361.74v-1.38a.63.63,0,0,1,.62-.65h6a.66.66,0,0,1,.65.65v8.85a.63.63,0,0,1-.65.62h-1.29a.61.61,0,0,1-.62-.62V367.9a5.23,5.23,0,0,1-4.59,2.21c-4.37,0-7.07-3.29-7.07-7.61v-4.21c0-4.59,3.08-7.61,7.23-7.61a6.66,6.66,0,0,1,6.91,5.88,2.45,2.45,0,0,1,.05.4.4.4,0,0,1-.43.4h-2.05c-.27,0-.43-.16-.49-.54a3.88,3.88,0,0,0-4-3.43c-2.4,0-4.32,1.78-4.32,4.91v4.18c0,3.13,1.92,4.89,4.32,4.89a4.05,4.05,0,0,0,4.18-3.94v-1.08h-3.89A.61.61,0,0,1,225.71,361.74Z" fill="#fff"/><path d="M242.31,367.63A2.6,2.6,0,0,0,245,366a.77.77,0,0,1,.65-.38h1.73a.41.41,0,0,1,.43.43,1.42,1.42,0,0,1-.11.46,5.55,5.55,0,0,1-5.34,3.59,5.74,5.74,0,0,1-5.83-6.13v-1.75c0-3.78,2.56-6.15,5.8-6.15a5.74,5.74,0,0,1,5.75,6.07v1.27a.63.63,0,0,1-.65.62h-8v.38A3,3,0,0,0,242.31,367.63Zm2.89-5.94a2.92,2.92,0,1,0-5.83,0v.3h5.83Z" fill="#fff"/><path d="M251.58,369.22V357a.62.62,0,0,1,.62-.65h1.65a.62.62,0,0,1,.62.65v.89a4.13,4.13,0,0,1,3.73-1.81c3.32,0,4.91,2.48,4.91,6.15v7a.61.61,0,0,1-.62.62h-1.65a.61.61,0,0,1-.62-.62v-7.34c0-2.16-1.21-3.32-2.89-3.32s-2.86,1.16-2.86,3.32v7.34a.61.61,0,0,1-.62.62H252.2A.61.61,0,0,1,251.58,369.22Z" fill="#fff"/><path d="M272.37,367.63A2.6,2.6,0,0,0,275,366a.77.77,0,0,1,.65-.38h1.73a.41.41,0,0,1,.43.43,1.4,1.4,0,0,1-.11.46,5.55,5.55,0,0,1-5.34,3.59,5.74,5.74,0,0,1-5.83-6.13v-1.75c0-3.78,2.56-6.15,5.8-6.15a5.74,5.74,0,0,1,5.75,6.07v1.27a.63.63,0,0,1-.65.62h-8v.38A3,3,0,0,0,272.37,367.63Zm2.89-5.94a2.92,2.92,0,1,0-5.83,0v.3h5.83Z" fill="#fff"/><path d="M282.17,365.52v-6.61h-1.86a.61.61,0,0,1-.62-.62V357a.62.62,0,0,1,.62-.65c1.32,0,1.89-.3,1.89-1.7v-1.16a.62.62,0,0,1,.62-.65h1.57a.64.64,0,0,1,.65.65v2.86h2.73a.62.62,0,0,1,.62.65v1.3a.61.61,0,0,1-.62.62H285v6.18c0,1.54.19,2.11,1.78,2.11h.95a.63.63,0,0,1,.62.65v1.38a.61.61,0,0,1-.62.62h-1.43C283.09,369.84,282.17,368.3,282.17,365.52Z" fill="#fff"/><path d="M295.07,352.54a1.77,1.77,0,1,1-1.78-1.75A1.69,1.69,0,0,1,295.07,352.54Zm-3.21,16.68V357a.62.62,0,0,1,.62-.65h1.65a.62.62,0,0,1,.62.65v12.23a.61.61,0,0,1-.62.62h-1.65A.61.61,0,0,1,291.86,369.22Z" fill="#fff"/><path d="M304.2,367.63a2.64,2.64,0,0,0,2.75-2.35.46.46,0,0,1,.46-.4h1.86a.43.43,0,0,1,.43.46,2.09,2.09,0,0,1,0,.4,5.47,5.47,0,0,1-5.48,4.37c-3.21,0-5.75-2.35-5.75-6.13v-1.75c0-3.78,2.54-6.15,5.72-6.15a5.5,5.5,0,0,1,5.51,4.45,3,3,0,0,1,.05.35.4.4,0,0,1-.43.43h-1.84a.47.47,0,0,1-.49-.4,2.72,2.72,0,0,0-2.81-2.35c-1.67,0-2.92,1.16-2.92,3.32v2.43C301.26,366.46,302.53,367.63,304.2,367.63Z" fill="#fff"/><path d="M312.52,366.36a.9.9,0,0,1,0-.38.42.42,0,0,1,.46-.43h1.67a.5.5,0,0,1,.51.41c.19.73.78,1.81,2.73,1.81,1.54,0,2.51-.49,2.51-1.7,0-2.81-7.67-.54-7.67-6,0-2.78,2.4-3.94,5.1-3.94a4.79,4.79,0,0,1,5,3.59,1.43,1.43,0,0,1,.05.38.48.48,0,0,1-.49.46h-1.67c-.32,0-.41-.14-.51-.43a2.27,2.27,0,0,0-2.54-1.65c-1.16,0-2.21.35-2.21,1.46,0,3,7.64.7,7.64,6.1,0,3.05-2.48,4.13-5.29,4.13C314.54,370.11,312.81,368.17,312.52,366.36Z" fill="#fff"/><path d="M339.22,370.11c-4.94,0-6.29-3-6.29-5.18,0-2.38,1.35-3.81,3.27-5.13-1-1.27-2.16-2.73-2.16-4.56,0-3.4,2.75-4.56,5.21-4.56,2.83,0,5,1.75,5,4.48,0,2.54-2.13,3.89-4.29,5.13l3.59,4a10.52,10.52,0,0,0,.57-3.54.61.61,0,0,1,.62-.62h1.4a.63.63,0,0,1,.65.62,13.08,13.08,0,0,1-1.32,5.75l2,2.27c.19.22.32.32.32.59a.41.41,0,0,1-.43.43H345.4a.67.67,0,0,1-.51-.24l-1-1.13A7,7,0,0,1,339.22,370.11Zm-1.43-8.48c-1.27.94-2.13,1.81-2.13,3.13,0,1.57,1.11,2.81,3.56,2.81a4.39,4.39,0,0,0,2.92-1.05Zm3.72-6.45a2,2,0,0,0-2.27-2.13c-1.59,0-2.51.84-2.51,2.16a4.8,4.8,0,0,0,1.62,3.27C340.05,357.56,341.51,356.69,341.51,355.18Z" fill="#fff"/><path d="M225.26,404.63a2.64,2.64,0,0,0,2.75-2.35.46.46,0,0,1,.46-.4h1.86a.43.43,0,0,1,.43.46,2.09,2.09,0,0,1,0,.4,5.47,5.47,0,0,1-5.48,4.37c-3.21,0-5.75-2.35-5.75-6.13v-1.75c0-3.78,2.54-6.15,5.72-6.15a5.5,5.5,0,0,1,5.51,4.45,3,3,0,0,1,.05.35.4.4,0,0,1-.43.43h-1.84a.47.47,0,0,1-.49-.4,2.72,2.72,0,0,0-2.81-2.35c-1.67,0-2.92,1.16-2.92,3.32v2.43C222.32,403.46,223.59,404.63,225.26,404.63Z" fill="#fff"/><path d="M245.32,394v12.23a.61.61,0,0,1-.62.62h-1.65a.61.61,0,0,1-.62-.62v-.84a4,4,0,0,1-3.62,1.73c-3.16,0-4.7-2.35-4.7-6.13v-7a.62.62,0,0,1,.62-.65h1.65a.62.62,0,0,1,.62.65v7.31c0,2.16,1,3.32,2.67,3.32s2.75-1.16,2.75-3.32V394a.62.62,0,0,1,.62-.65h1.65A.62.62,0,0,1,245.32,394Z" fill="#fff"/><path d="M249.57,406.22V388.59a.62.62,0,0,1,.62-.65h1.65a.62.62,0,0,1,.62.65v17.63a.61.61,0,0,1-.62.62h-1.65A.61.61,0,0,1,249.57,406.22Z" fill="#fff"/><path d="M257.37,402.52v-6.61h-1.86a.61.61,0,0,1-.62-.62V394a.62.62,0,0,1,.62-.65c1.32,0,1.89-.3,1.89-1.7v-1.16a.62.62,0,0,1,.62-.65h1.57a.64.64,0,0,1,.65.65v2.86H263a.62.62,0,0,1,.62.65v1.3a.61.61,0,0,1-.62.62h-2.73v6.18c0,1.54.19,2.11,1.78,2.11H263a.63.63,0,0,1,.62.65v1.38a.61.61,0,0,1-.62.62h-1.43C258.29,406.84,257.37,405.3,257.37,402.52Z" fill="#fff"/><path d="M270.27,389.54a1.77,1.77,0,1,1-1.78-1.75A1.69,1.69,0,0,1,270.27,389.54Zm-3.21,16.68V394a.62.62,0,0,1,.62-.65h1.65a.62.62,0,0,1,.62.65v12.23a.61.61,0,0,1-.62.62h-1.65A.61.61,0,0,1,267.06,406.22Z" fill="#fff"/><path d="M285.55,393.8a2.07,2.07,0,0,1-.16.54l-4.67,12.12a.61.61,0,0,1-.59.38h-1.81a.58.58,0,0,1-.57-.38l-4.7-12.12a2.07,2.07,0,0,1-.16-.54.44.44,0,0,1,.46-.46h1.86a.58.58,0,0,1,.62.38l3.48,9.74,3.35-9.74a.52.52,0,0,1,.57-.38h1.89A.43.43,0,0,1,285.55,393.8Z" fill="#fff"/><path d="M297.43,406.84H296a.61.61,0,0,1-.62-.62v-.89a3.72,3.72,0,0,1-3.43,1.78h-.43c-2.27,0-4.35-1.08-4.35-4.08,0-3.81,3.56-4.1,5.43-4.1h2.78v-.7c0-1.62-.65-2.67-2.65-2.67-1.73,0-2.08.7-2.27,1.51a.52.52,0,0,1-.51.43h-1.7a.47.47,0,0,1-.51-.49,2,2,0,0,1,.05-.32c.3-1.43,1.11-3.62,4.94-3.62,4.56,0,5.34,2.67,5.34,5.24v7.91A.61.61,0,0,1,297.43,406.84ZM289.85,403c0,1.35,1.11,1.78,2.21,1.78h.43c2.51,0,2.86-1.62,2.86-3.08v-.67h-2.7C291,401.06,289.85,401.47,289.85,403Z" fill="#fff"/><path d="M302.75,402.52v-6.61h-1.86a.61.61,0,0,1-.62-.62V394a.62.62,0,0,1,.62-.65c1.32,0,1.89-.3,1.89-1.7v-1.16a.62.62,0,0,1,.62-.65H305a.64.64,0,0,1,.65.65v2.86h2.73a.62.62,0,0,1,.62.65v1.3a.61.61,0,0,1-.62.62h-2.73v6.18c0,1.54.19,2.11,1.78,2.11h.94a.63.63,0,0,1,.62.65v1.38a.61.61,0,0,1-.62.62h-1.43C303.67,406.84,302.75,405.3,302.75,402.52Z" fill="#fff"/><path d="M315.66,389.54a1.77,1.77,0,1,1-1.78-1.75A1.69,1.69,0,0,1,315.66,389.54Zm-3.21,16.68V394a.62.62,0,0,1,.62-.65h1.65a.62.62,0,0,1,.62.65v12.23a.61.61,0,0,1-.62.62h-1.65A.61.61,0,0,1,312.45,406.22Z" fill="#fff"/><path d="M324.84,393.07c3.24,0,5.8,2.38,5.8,6.15V401c0,3.78-2.56,6.13-5.8,6.13S319,404.76,319,401v-1.75C319,395.45,321.57,393.07,324.84,393.07Zm0,11.55c1.67,0,2.89-1.16,2.89-3.32v-2.43c0-2.16-1.21-3.32-2.89-3.32s-2.92,1.16-2.92,3.32v2.43C321.92,403.46,323.17,404.63,324.84,404.63Z" fill="#fff"/><path d="M334.21,406.22V394a.62.62,0,0,1,.62-.65h1.65a.62.62,0,0,1,.62.65v.89a4.13,4.13,0,0,1,3.72-1.81c3.32,0,4.91,2.48,4.91,6.15v7a.61.61,0,0,1-.62.62h-1.65a.61.61,0,0,1-.62-.62v-7.34c0-2.16-1.21-3.32-2.89-3.32s-2.86,1.16-2.86,3.32v7.34a.61.61,0,0,1-.62.62h-1.65A.61.61,0,0,1,334.21,406.22Z" fill="#fff"/><path d="M233.74,441.63a2.6,2.6,0,0,0,2.65-1.62.77.77,0,0,1,.65-.38h1.73a.41.41,0,0,1,.43.43,1.42,1.42,0,0,1-.11.46,5.55,5.55,0,0,1-5.34,3.59,5.74,5.74,0,0,1-5.83-6.13v-1.75c0-3.78,2.56-6.15,5.8-6.15a5.74,5.74,0,0,1,5.75,6.07v1.27a.63.63,0,0,1-.65.62h-8v.38A3,3,0,0,0,233.74,441.63Zm2.89-5.94a2.92,2.92,0,1,0-5.83,0v.3h5.83Z" fill="#fff"/><path d="M241.2,443.41a1.32,1.32,0,0,1,.3-.62l3.89-5.72-3.75-5.56a1.64,1.64,0,0,1-.38-.7.45.45,0,0,1,.46-.46h1.81a1,1,0,0,1,.89.54l2.65,4.1,2.65-4.1a1,1,0,0,1,.89-.54h1.65a.44.44,0,0,1,.46.46,1.41,1.41,0,0,1-.35.65l-3.7,5.53,3.75,5.64c.22.35.4.57.4.78a.43.43,0,0,1-.46.43h-1.78a1,1,0,0,1-.89-.51l-2.75-4.24-2.75,4.24a1,1,0,0,1-.84.51h-1.7A.43.43,0,0,1,241.2,443.41Z" fill="#fff"/><path d="M257.8,449.24h-1.65a.61.61,0,0,1-.62-.62V431a.62.62,0,0,1,.62-.65h1.65a.62.62,0,0,1,.62.65v.86a4.29,4.29,0,0,1,3.78-1.78c3,0,4.94,2.13,4.94,6.15v1.62c0,4.1-2,6.26-4.94,6.26a4.26,4.26,0,0,1-3.78-1.78v6.29A.61.61,0,0,1,257.8,449.24Zm3.54-7.61c1.94,0,2.92-1.4,2.92-3.32v-2.4c0-1.92-1-3.35-2.92-3.35s-2.92,1.4-2.92,3.27v2.48C258.42,440.22,259.42,441.63,261.34,441.63Z" fill="#fff"/><path d="M275.94,441.63a2.6,2.6,0,0,0,2.65-1.62.77.77,0,0,1,.65-.38H281a.41.41,0,0,1,.43.43,1.42,1.42,0,0,1-.11.46,5.55,5.55,0,0,1-5.34,3.59,5.74,5.74,0,0,1-5.83-6.13v-1.75c0-3.78,2.56-6.15,5.8-6.15a5.74,5.74,0,0,1,5.75,6.07v1.27a.63.63,0,0,1-.65.62h-8v.38A3,3,0,0,0,275.94,441.63Zm2.89-5.94a2.92,2.92,0,1,0-5.83,0v.3h5.83Z" fill="#fff"/><path d="M285.21,443.22V431a.62.62,0,0,1,.62-.65h1.49a.64.64,0,0,1,.65.65v1.38a4,4,0,0,1,3.59-2h.35a.62.62,0,0,1,.62.65v1.62a.61.61,0,0,1-.62.62h-.41c-2.24,0-3.43,1.35-3.43,3.89v6.1a.62.62,0,0,1-.65.62h-1.59A.61.61,0,0,1,285.21,443.22Z" fill="#fff"/><path d="M296.55,439.52v-6.61h-1.86a.61.61,0,0,1-.62-.62V431a.62.62,0,0,1,.62-.65c1.32,0,1.89-.3,1.89-1.7v-1.16a.62.62,0,0,1,.62-.65h1.57a.64.64,0,0,1,.65.65v2.86h2.73a.62.62,0,0,1,.62.65v1.3a.61.61,0,0,1-.62.62h-2.73v6.18c0,1.54.19,2.11,1.78,2.11h.94a.63.63,0,0,1,.62.65v1.38a.61.61,0,0,1-.62.62H300.7C297.46,443.84,296.55,442.3,296.55,439.52Z" fill="#fff"/><path d="M309.45,426.54a1.77,1.77,0,1,1-1.78-1.75A1.69,1.69,0,0,1,309.45,426.54Zm-3.21,16.68V431a.62.62,0,0,1,.62-.65h1.65a.62.62,0,0,1,.62.65v12.23a.61.61,0,0,1-.62.62h-1.65A.61.61,0,0,1,306.24,443.22Z" fill="#fff"/><path d="M312.75,440.36a.9.9,0,0,1,0-.38.42.42,0,0,1,.46-.43h1.67a.5.5,0,0,1,.51.41c.19.73.78,1.81,2.73,1.81,1.54,0,2.51-.49,2.51-1.7,0-2.81-7.67-.54-7.67-6,0-2.78,2.4-3.94,5.1-3.94a4.79,4.79,0,0,1,5,3.59,1.43,1.43,0,0,1,.05.38.48.48,0,0,1-.49.46H321c-.32,0-.41-.14-.51-.43a2.27,2.27,0,0,0-2.54-1.65c-1.16,0-2.21.35-2.21,1.46,0,3,7.64.7,7.64,6.1,0,3.05-2.48,4.13-5.29,4.13C314.77,444.11,313,442.17,312.75,440.36Z" fill="#fff"/><path d="M332.1,441.63a2.6,2.6,0,0,0,2.65-1.62.77.77,0,0,1,.65-.38h1.73a.41.41,0,0,1,.43.43,1.42,1.42,0,0,1-.11.46,5.55,5.55,0,0,1-5.34,3.59,5.74,5.74,0,0,1-5.83-6.13v-1.75c0-3.78,2.56-6.15,5.8-6.15a5.74,5.74,0,0,1,5.75,6.07v1.27a.63.63,0,0,1-.65.62h-8v.38A3,3,0,0,0,332.1,441.63Zm2.89-5.94a2.92,2.92,0,1,0-5.83,0v.3H335Z" fill="#fff"/><path d="M210.16,669.06v.27c0,4.13-3.18,5.18-6.67,5.18h-6.18a.61.61,0,0,1-.62-.62V656.26a.62.62,0,0,1,.62-.65h6.32c3.62,0,6.07,1.57,6.07,5v.4a3.94,3.94,0,0,1-2.37,3.78A4.48,4.48,0,0,1,210.16,669.06Zm-10.58-5.59h4c1.7,0,3.24-.38,3.24-2.35v-.38c0-2.08-1.62-2.4-3.35-2.4h-3.89Zm7.69,5.45c0-2-1.59-2.73-3.54-2.73h-4.16v5.59h4.16c1.92,0,3.54-.51,3.54-2.62Z" fill="#fff"/><path d="M213.72,673.89V661.66a.62.62,0,0,1,.62-.65h1.48a.64.64,0,0,1,.65.65V663a4,4,0,0,1,3.59-2h.35a.62.62,0,0,1,.62.65v1.62a.61.61,0,0,1-.62.62H220c-2.24,0-3.43,1.35-3.43,3.89v6.1a.62.62,0,0,1-.65.62h-1.59A.61.61,0,0,1,213.72,673.89Z" fill="#fff"/><path d="M233.4,674.51h-1.46a.61.61,0,0,1-.62-.62V673a3.72,3.72,0,0,1-3.43,1.78h-.43c-2.27,0-4.35-1.08-4.35-4.08,0-3.81,3.56-4.1,5.43-4.1h2.78v-.7c0-1.62-.65-2.67-2.65-2.67-1.73,0-2.08.7-2.27,1.51a.52.52,0,0,1-.51.43h-1.7a.47.47,0,0,1-.51-.49,2,2,0,0,1,.05-.32c.3-1.43,1.11-3.62,4.94-3.62,4.56,0,5.35,2.67,5.35,5.24v7.91A.61.61,0,0,1,233.4,674.51Zm-7.59-3.81c0,1.35,1.11,1.78,2.21,1.78h.43c2.51,0,2.86-1.62,2.86-3.08v-.67h-2.7C226.93,668.74,225.82,669.14,225.82,670.71Z" fill="#fff"/><path d="M238.05,673.89V661.66a.62.62,0,0,1,.62-.65h1.65a.62.62,0,0,1,.62.65v.89a4.13,4.13,0,0,1,3.72-1.81c3.32,0,4.91,2.48,4.91,6.15v7a.61.61,0,0,1-.62.62h-1.65a.61.61,0,0,1-.62-.62v-7.34c0-2.16-1.21-3.32-2.89-3.32s-2.86,1.16-2.86,3.32v7.34a.61.61,0,0,1-.62.62h-1.65A.61.61,0,0,1,238.05,673.89Z" fill="#fff"/><path d="M261.73,673.89V673a4.26,4.26,0,0,1-3.78,1.78c-2.94,0-4.94-2.16-4.94-6.26V666.9c0-4,1.92-6.15,4.94-6.15a4.29,4.29,0,0,1,3.78,1.78v-6.26a.62.62,0,0,1,.62-.65H264a.62.62,0,0,1,.62.65v17.63a.61.61,0,0,1-.62.62h-1.65A.61.61,0,0,1,261.73,673.89Zm0-4.91v-2.48c0-1.86-1-3.27-2.92-3.27s-2.92,1.43-2.92,3.35V669c0,1.92,1,3.32,2.89,3.32S261.73,670.89,261.73,669Z" fill="#fff"/><path d="M278,674.51h-1.65a.61.61,0,0,1-.62-.62V656.26a.62.62,0,0,1,.62-.65H278a.62.62,0,0,1,.62.65v6.26a4.29,4.29,0,0,1,3.78-1.78c3,0,4.94,2.13,4.94,6.15v1.62c0,4.1-2,6.26-4.94,6.26a4.26,4.26,0,0,1-3.78-1.78v.89A.61.61,0,0,1,278,674.51Zm3.54-2.21c1.94,0,2.92-1.4,2.92-3.32v-2.4c0-1.92-1-3.35-2.92-3.35s-2.92,1.4-2.92,3.27V669C278.58,670.89,279.58,672.3,281.49,672.3Z" fill="#fff"/><path d="M301.93,661.66v12.23a.61.61,0,0,1-.62.62h-1.65a.61.61,0,0,1-.62-.62v-.84a4,4,0,0,1-3.62,1.73c-3.16,0-4.7-2.35-4.7-6.13v-7a.62.62,0,0,1,.62-.65H293a.62.62,0,0,1,.62.65V669c0,2.16,1,3.32,2.67,3.32S299,671.14,299,669v-7.31a.62.62,0,0,1,.62-.65h1.65A.62.62,0,0,1,301.93,661.66Z" fill="#fff"/><path d="M309.44,657.21a1.77,1.77,0,1,1-1.78-1.75A1.69,1.69,0,0,1,309.44,657.21Zm-3.21,16.68V661.66a.62.62,0,0,1,.62-.65h1.65a.62.62,0,0,1,.62.65v12.23a.61.61,0,0,1-.62.62h-1.65A.61.61,0,0,1,306.22,673.89Z" fill="#fff"/><path d="M313.49,673.89V656.26a.62.62,0,0,1,.62-.65h1.65a.62.62,0,0,1,.62.65v17.63a.61.61,0,0,1-.62.62h-1.65A.61.61,0,0,1,313.49,673.89Z" fill="#fff"/><path d="M328.74,673.89V673a4.26,4.26,0,0,1-3.78,1.78c-2.94,0-4.94-2.16-4.94-6.26V666.9c0-4,1.92-6.15,4.94-6.15a4.29,4.29,0,0,1,3.78,1.78v-6.26a.62.62,0,0,1,.62-.65H331a.62.62,0,0,1,.62.65v17.63a.61.61,0,0,1-.62.62h-1.65A.61.61,0,0,1,328.74,673.89Zm0-4.91v-2.48c0-1.86-1-3.27-2.92-3.27s-2.92,1.43-2.92,3.35V669c0,1.92,1,3.32,2.89,3.32S328.74,670.89,328.74,669Z" fill="#fff"/><path d="M339.22,657.21a1.77,1.77,0,1,1-1.78-1.75A1.69,1.69,0,0,1,339.22,657.21ZM336,673.89V661.66a.62.62,0,0,1,.62-.65h1.65a.62.62,0,0,1,.62.65v12.23a.61.61,0,0,1-.62.62h-1.65A.61.61,0,0,1,336,673.89Z" fill="#fff"/><path d="M343.19,673.89V661.66a.62.62,0,0,1,.62-.65h1.65a.62.62,0,0,1,.62.65v.89a4.13,4.13,0,0,1,3.72-1.81c3.32,0,4.91,2.48,4.91,6.15v7a.61.61,0,0,1-.62.62h-1.65a.61.61,0,0,1-.62-.62v-7.34c0-2.16-1.21-3.32-2.89-3.32s-2.86,1.16-2.86,3.32v7.34a.61.61,0,0,1-.62.62h-1.65A.61.61,0,0,1,343.19,673.89Z" fill="#fff"/><path d="M370.43,676.05c0,2.29-1.67,4.13-4.72,4.13h-3.13c-3,0-4.72-1.86-4.72-4.13a3.3,3.3,0,0,1,1.81-3.13,2.1,2.1,0,0,1-1.24-2,2.12,2.12,0,0,1,1.86-2.21,3.7,3.7,0,0,1-1.75-3.32c0-2.83,2.13-4.62,5.18-4.62h.67a4.74,4.74,0,0,1,2.75.86v-1.75a.63.63,0,0,1,.62-.65h1.35a.66.66,0,0,1,.65.65v5.51c0,3-2.11,4.62-5.13,4.62H362c-.65,0-1.11.32-1.11,1s.41.94,1.32.94h3.48C368.75,671.89,370.43,673.73,370.43,676.05Zm-2.73,0c0-1.19-.65-2-2.51-2h-2.13c-1.86,0-2.48.81-2.48,2s.62,1.86,2.48,1.86h2.13C367.05,677.94,367.7,677.24,367.7,676.08Zm-6.45-10.72a2.28,2.28,0,0,0,2.54,2.35h.7a2.36,2.36,0,1,0,0-4.7h-.7A2.29,2.29,0,0,0,361.25,665.36Z" fill="#fff"/><path d="M239.18,695.34h-8.26v5.24h6.53a.62.62,0,0,1,.62.65v1.46a.61.61,0,0,1-.62.62h-6.53v5.48h8.26a.61.61,0,0,1,.62.62v1.48a.61.61,0,0,1-.62.62H228.65a.61.61,0,0,1-.62-.62V693.26a.62.62,0,0,1,.62-.65h10.53a.62.62,0,0,1,.62.65v1.46A.61.61,0,0,1,239.18,695.34Z" fill="#fff"/><path d="M241.86,711.08a1.32,1.32,0,0,1,.3-.62l3.89-5.72-3.75-5.56a1.64,1.64,0,0,1-.38-.7.45.45,0,0,1,.46-.46h1.81a1,1,0,0,1,.89.54l2.65,4.1,2.64-4.1a1,1,0,0,1,.89-.54h1.65a.44.44,0,0,1,.46.46,1.4,1.4,0,0,1-.35.65l-3.7,5.53,3.75,5.64c.22.35.41.57.41.78a.43.43,0,0,1-.46.43h-1.78a1,1,0,0,1-.89-.51l-2.75-4.24L244.83,711a1,1,0,0,1-.84.51h-1.7A.43.43,0,0,1,241.86,711.08Z" fill="#fff"/><path d="M258.46,716.91h-1.65a.61.61,0,0,1-.62-.62V698.66a.62.62,0,0,1,.62-.65h1.65a.62.62,0,0,1,.62.65v.86a4.29,4.29,0,0,1,3.78-1.78c3,0,4.94,2.13,4.94,6.15v1.62c0,4.1-2,6.26-4.94,6.26a4.26,4.26,0,0,1-3.78-1.78v6.29A.61.61,0,0,1,258.46,716.91ZM262,709.3c1.94,0,2.92-1.4,2.92-3.32v-2.4c0-1.92-1-3.35-2.92-3.35s-2.92,1.4-2.92,3.27V706C259.08,707.89,260.08,709.3,262,709.3Z" fill="#fff"/><path d="M276.6,709.3a2.6,2.6,0,0,0,2.65-1.62.77.77,0,0,1,.65-.38h1.73a.41.41,0,0,1,.43.43,1.42,1.42,0,0,1-.11.46,5.55,5.55,0,0,1-5.35,3.59,5.74,5.74,0,0,1-5.83-6.13V703.9c0-3.78,2.56-6.15,5.8-6.15a5.74,5.74,0,0,1,5.75,6.07v1.27a.63.63,0,0,1-.65.62h-8v.38A3,3,0,0,0,276.6,709.3Zm2.89-5.94a2.92,2.92,0,1,0-5.83,0v.3h5.83Z" fill="#fff"/><path d="M285.87,710.89V698.66a.62.62,0,0,1,.62-.65H288a.64.64,0,0,1,.65.65V700a4,4,0,0,1,3.59-2h.35a.62.62,0,0,1,.62.65v1.62a.61.61,0,0,1-.62.62h-.4c-2.24,0-3.43,1.35-3.43,3.89v6.1a.62.62,0,0,1-.65.62h-1.59A.61.61,0,0,1,285.87,710.89Z" fill="#fff"/><path d="M297.21,707.19v-6.61h-1.86a.61.61,0,0,1-.62-.62v-1.3a.62.62,0,0,1,.62-.65c1.32,0,1.89-.3,1.89-1.7v-1.16a.62.62,0,0,1,.62-.65h1.57a.64.64,0,0,1,.65.65V698h2.73a.62.62,0,0,1,.62.65V700a.61.61,0,0,1-.62.62h-2.73v6.18c0,1.54.19,2.1,1.78,2.1h.94a.63.63,0,0,1,.62.65v1.38a.61.61,0,0,1-.62.62h-1.43C298.12,711.51,297.21,710,297.21,707.19Z" fill="#fff"/><path d="M310.11,694.21a1.77,1.77,0,1,1-1.78-1.75A1.69,1.69,0,0,1,310.11,694.21Zm-3.21,16.68V698.66a.62.62,0,0,1,.62-.65h1.65a.62.62,0,0,1,.62.65v12.23a.61.61,0,0,1-.62.62h-1.65A.61.61,0,0,1,306.9,710.89Z" fill="#fff"/><path d="M313.41,708a.89.89,0,0,1,0-.38.42.42,0,0,1,.46-.43h1.67a.5.5,0,0,1,.51.4c.19.73.78,1.81,2.73,1.81,1.54,0,2.51-.49,2.51-1.7,0-2.81-7.67-.54-7.67-6,0-2.78,2.4-3.94,5.1-3.94a4.79,4.79,0,0,1,5,3.59,1.39,1.39,0,0,1,.05.38.48.48,0,0,1-.49.46h-1.67c-.32,0-.4-.14-.51-.43a2.27,2.27,0,0,0-2.54-1.65c-1.16,0-2.21.35-2.21,1.46,0,3,7.64.7,7.64,6.1,0,3.05-2.48,4.13-5.29,4.13C315.43,711.78,313.7,709.84,313.41,708Z" fill="#fff"/><path d="M332.76,709.3a2.6,2.6,0,0,0,2.64-1.62.77.77,0,0,1,.65-.38h1.73a.41.41,0,0,1,.43.43,1.4,1.4,0,0,1-.11.46,5.55,5.55,0,0,1-5.34,3.59,5.74,5.74,0,0,1-5.83-6.13V703.9c0-3.78,2.56-6.15,5.8-6.15a5.74,5.74,0,0,1,5.75,6.07v1.27a.63.63,0,0,1-.65.62h-8v.38A3,3,0,0,0,332.76,709.3Zm2.89-5.94a2.92,2.92,0,1,0-5.83,0v.3h5.83Z" fill="#fff"/><path d="M248.5,806.35H244v5.94a.61.61,0,0,1-.62.62h-1.65a.61.61,0,0,1-.62-.62V794.66a.62.62,0,0,1,.62-.65h6.8c3.43,0,5.83,2,5.83,5.7v.67A5.56,5.56,0,0,1,248.5,806.35ZM244,796.74v6.88h4.35a3,3,0,0,0,3.13-3.27v-.49a2.89,2.89,0,0,0-3.13-3.13Z" fill="#fff"/><path d="M266.51,812.91H265a.61.61,0,0,1-.62-.62v-.89a3.72,3.72,0,0,1-3.43,1.78h-.43c-2.27,0-4.35-1.08-4.35-4.08,0-3.81,3.56-4.1,5.43-4.1h2.78v-.7c0-1.62-.65-2.67-2.65-2.67-1.73,0-2.08.7-2.27,1.51a.52.52,0,0,1-.51.43h-1.7a.47.47,0,0,1-.51-.49,2,2,0,0,1,.05-.32c.3-1.43,1.11-3.62,4.94-3.62,4.56,0,5.35,2.67,5.35,5.24v7.91A.61.61,0,0,1,266.51,812.91Zm-7.59-3.81c0,1.35,1.11,1.78,2.21,1.78h.43c2.51,0,2.86-1.62,2.86-3.08v-.67h-2.7C260,807.13,258.92,807.54,258.92,809.1Z" fill="#fff"/><path d="M271.83,808.59V802H270a.61.61,0,0,1-.62-.62v-1.3a.62.62,0,0,1,.62-.65c1.32,0,1.89-.3,1.89-1.7v-1.16a.62.62,0,0,1,.62-.65H274a.64.64,0,0,1,.65.65v2.86h2.73a.62.62,0,0,1,.62.65v1.3a.61.61,0,0,1-.62.62h-2.73v6.18c0,1.54.19,2.1,1.78,2.1h.94a.63.63,0,0,1,.62.65v1.38a.61.61,0,0,1-.62.62H276C272.74,812.91,271.83,811.37,271.83,808.59Z" fill="#fff"/><path d="M284.73,795.61a1.77,1.77,0,1,1-1.78-1.75A1.69,1.69,0,0,1,284.73,795.61Zm-3.21,16.68V800.06a.62.62,0,0,1,.62-.65h1.65a.62.62,0,0,1,.62.65v12.23a.61.61,0,0,1-.62.62h-1.65A.61.61,0,0,1,281.52,812.29Z" fill="#fff"/><path d="M293.94,810.7a2.6,2.6,0,0,0,2.65-1.62.77.77,0,0,1,.65-.38H299a.41.41,0,0,1,.43.43,1.4,1.4,0,0,1-.11.46,5.55,5.55,0,0,1-5.34,3.59,5.74,5.74,0,0,1-5.83-6.13V805.3c0-3.78,2.56-6.15,5.8-6.15a5.74,5.74,0,0,1,5.75,6.07v1.27a.63.63,0,0,1-.65.62h-8v.38A3,3,0,0,0,293.94,810.7Zm2.89-5.94a2.92,2.92,0,1,0-5.83,0v.3h5.83Z" fill="#fff"/><path d="M303.2,812.29V800.06a.62.62,0,0,1,.62-.65h1.65a.62.62,0,0,1,.62.65V801a4.13,4.13,0,0,1,3.72-1.81c3.32,0,4.91,2.48,4.91,6.15v7a.61.61,0,0,1-.62.62h-1.65a.61.61,0,0,1-.62-.62v-7.34c0-2.16-1.21-3.32-2.89-3.32s-2.86,1.16-2.86,3.32v7.34a.61.61,0,0,1-.62.62h-1.65A.61.61,0,0,1,303.2,812.29Z" fill="#fff"/><path d="M319.43,808.59V802h-1.86a.61.61,0,0,1-.62-.62v-1.3a.62.62,0,0,1,.62-.65c1.32,0,1.89-.3,1.89-1.7v-1.16a.62.62,0,0,1,.62-.65h1.57a.64.64,0,0,1,.65.65v2.86H325a.62.62,0,0,1,.62.65v1.3a.61.61,0,0,1-.62.62h-2.73v6.18c0,1.54.19,2.1,1.78,2.1H325a.63.63,0,0,1,.62.65v1.38a.61.61,0,0,1-.62.62h-1.43C320.35,812.91,319.43,811.37,319.43,808.59Z" fill="#fff"/><path d="M253.79,851.45c0,2.29-1.67,4.13-4.72,4.13h-3.13c-3.05,0-4.72-1.86-4.72-4.13a3.3,3.3,0,0,1,1.81-3.13,2.1,2.1,0,0,1-1.24-2,2.12,2.12,0,0,1,1.86-2.21,3.7,3.7,0,0,1-1.75-3.32c0-2.83,2.13-4.62,5.18-4.62h.68a4.74,4.74,0,0,1,2.75.86v-1.75a.63.63,0,0,1,.62-.65h1.35a.66.66,0,0,1,.65.65v5.51c0,3-2.11,4.62-5.13,4.62h-2.62c-.65,0-1.11.32-1.11,1s.4.94,1.32.94h3.48C252.11,847.29,253.79,849.13,253.79,851.45Zm-2.73,0c0-1.19-.65-2-2.51-2h-2.13c-1.86,0-2.48.81-2.48,2s.62,1.86,2.48,1.86h2.13C250.41,853.34,251.06,852.63,251.06,851.47Zm-6.45-10.72a2.28,2.28,0,0,0,2.54,2.35h.7a2.36,2.36,0,1,0,0-4.7h-.7A2.29,2.29,0,0,0,244.61,840.76Z" fill="#fff"/><path d="M256.73,849.29V837.06a.62.62,0,0,1,.62-.65h1.49a.64.64,0,0,1,.65.65v1.38a4,4,0,0,1,3.59-2h.35a.62.62,0,0,1,.62.65v1.62a.61.61,0,0,1-.62.62H263c-2.24,0-3.43,1.35-3.43,3.89v6.1a.62.62,0,0,1-.65.62h-1.59A.61.61,0,0,1,256.73,849.29Z" fill="#fff"/><path d="M272.34,836.14c3.24,0,5.8,2.38,5.8,6.15v1.75c0,3.78-2.56,6.13-5.8,6.13s-5.8-2.35-5.8-6.13V842.3C266.54,838.52,269.07,836.14,272.34,836.14Zm0,11.55c1.67,0,2.89-1.16,2.89-3.32v-2.43c0-2.16-1.21-3.32-2.89-3.32s-2.91,1.16-2.91,3.32v2.43C269.42,846.53,270.67,847.7,272.34,847.7Z" fill="#fff"/><path d="M299.17,836.87a3.11,3.11,0,0,1-.19.7l-3.81,11.9a.63.63,0,0,1-.62.43H293a.65.65,0,0,1-.62-.49l-2.81-9.37-2.75,9.39a.6.6,0,0,1-.62.46h-1.57a.63.63,0,0,1-.62-.43l-3.89-12a2.68,2.68,0,0,1-.16-.65.44.44,0,0,1,.46-.46h1.84c.32,0,.57.22.67.65l2.56,9,2.59-9c.08-.35.24-.65.68-.65h1.67c.35,0,.54.22.67.65l2.67,8.8,2.38-8.8c.11-.43.32-.65.67-.65h1.86A.43.43,0,0,1,299.17,836.87Z" fill="#fff"/><path d="M302.58,845.59V839h-1.86a.61.61,0,0,1-.62-.62v-1.3a.62.62,0,0,1,.62-.65c1.32,0,1.89-.3,1.89-1.7v-1.16a.62.62,0,0,1,.62-.65h1.57a.64.64,0,0,1,.65.65v2.86h2.73a.62.62,0,0,1,.62.65v1.3a.61.61,0,0,1-.62.62h-2.73v6.18c0,1.54.19,2.1,1.78,2.1h.94a.63.63,0,0,1,.62.65v1.38a.61.61,0,0,1-.62.62h-1.43C303.5,849.91,302.58,848.37,302.58,845.59Z" fill="#fff"/><path d="M312.22,849.29V831.66a.62.62,0,0,1,.62-.65h1.65a.62.62,0,0,1,.62.65V838a4.13,4.13,0,0,1,3.72-1.81c3.32,0,4.91,2.48,4.91,6.15v7a.61.61,0,0,1-.62.62h-1.65a.61.61,0,0,1-.62-.62v-7.34c0-2.16-1.19-3.32-2.89-3.32s-2.86,1.16-2.86,3.32v7.34a.61.61,0,0,1-.62.62h-1.65A.61.61,0,0,1,312.22,849.29Z" fill="#fff"/><path d="M196.3,932.12H185.67a.61.61,0,0,1-.62-.62V913.87a.62.62,0,0,1,.62-.65h1.65a.62.62,0,0,1,.62.65v15.52h8.37a.63.63,0,0,1,.62.65v1.46A.61.61,0,0,1,196.3,932.12Z" fill="#fff"/><path d="M204.84,929.9a2.6,2.6,0,0,0,2.65-1.62.77.77,0,0,1,.65-.38h1.73a.41.41,0,0,1,.43.43,1.4,1.4,0,0,1-.11.46,5.55,5.55,0,0,1-5.34,3.59,5.74,5.74,0,0,1-5.83-6.13V924.5c0-3.78,2.56-6.15,5.8-6.15a5.74,5.74,0,0,1,5.75,6.07v1.27a.63.63,0,0,1-.65.62h-8v.38A3,3,0,0,0,204.84,929.9Zm2.89-5.94a2.92,2.92,0,1,0-5.83,0v.3h5.83Z" fill="#fff"/><path d="M225.71,933.65c0,2.29-1.67,4.13-4.72,4.13h-3.13c-3,0-4.72-1.86-4.72-4.13a3.3,3.3,0,0,1,1.81-3.13,2.1,2.1,0,0,1-1.24-2,2.12,2.12,0,0,1,1.86-2.21A3.7,3.7,0,0,1,213.8,923c0-2.83,2.13-4.62,5.18-4.62h.67a4.74,4.74,0,0,1,2.75.86v-1.75a.63.63,0,0,1,.62-.65h1.35a.66.66,0,0,1,.65.65V923c0,3-2.11,4.62-5.13,4.62h-2.62c-.65,0-1.11.32-1.11,1s.41.94,1.32.94H221C224,929.5,225.71,931.33,225.71,933.65Zm-2.73,0c0-1.19-.65-2-2.51-2h-2.13c-1.86,0-2.48.81-2.48,2s.62,1.86,2.48,1.86h2.13C222.33,935.54,223,934.84,223,933.68ZM216.53,923a2.28,2.28,0,0,0,2.54,2.35h.7a2.36,2.36,0,1,0,0-4.7h-.7A2.29,2.29,0,0,0,216.53,923Z" fill="#fff"/><path d="M237.83,932.12h-1.46a.61.61,0,0,1-.62-.62v-.89a3.72,3.72,0,0,1-3.43,1.78h-.43c-2.27,0-4.35-1.08-4.35-4.08,0-3.81,3.56-4.1,5.43-4.1h2.78v-.7c0-1.62-.65-2.67-2.65-2.67-1.73,0-2.08.7-2.27,1.51a.52.52,0,0,1-.51.43h-1.7a.47.47,0,0,1-.51-.49,2,2,0,0,1,.05-.32c.3-1.43,1.11-3.62,4.94-3.62,4.56,0,5.34,2.67,5.34,5.24v7.91A.61.61,0,0,1,237.83,932.12Zm-7.58-3.81c0,1.35,1.11,1.78,2.21,1.78h.43c2.51,0,2.86-1.62,2.86-3.08v-.67h-2.7C231.35,926.34,230.25,926.74,230.25,928.31Z" fill="#fff"/><path d="M242.56,931.5V913.87a.62.62,0,0,1,.62-.65h1.65a.62.62,0,0,1,.62.65V931.5a.61.61,0,0,1-.62.62h-1.65A.61.61,0,0,1,242.56,931.5Z" fill="#fff"/><path d="M262.27,932.39c-4.94,0-6.29-3-6.29-5.18,0-2.38,1.35-3.81,3.27-5.13-1-1.27-2.16-2.73-2.16-4.56,0-3.4,2.75-4.56,5.21-4.56,2.83,0,5,1.75,5,4.48,0,2.54-2.13,3.89-4.29,5.13l3.59,4a10.52,10.52,0,0,0,.57-3.54.61.61,0,0,1,.62-.62h1.4a.63.63,0,0,1,.65.62,13.07,13.07,0,0,1-1.32,5.75l2,2.27c.19.22.32.32.32.59a.41.41,0,0,1-.43.43h-1.94a.67.67,0,0,1-.51-.24l-1-1.13A7,7,0,0,1,262.27,932.39Zm-1.43-8.48c-1.27.94-2.13,1.81-2.13,3.13,0,1.57,1.11,2.81,3.56,2.81a4.39,4.39,0,0,0,2.92-1.05Zm3.73-6.45a2,2,0,0,0-2.27-2.13c-1.59,0-2.51.84-2.51,2.16a4.8,4.8,0,0,0,1.62,3.27C263.1,919.83,264.56,919,264.56,917.46Z" fill="#fff"/><path d="M292.78,919.27V931.5a.63.63,0,0,1-.65.62h-1.65a.61.61,0,0,1-.62-.62V921.18h-5.72V931.5a.63.63,0,0,1-.65.62h-1.65a.61.61,0,0,1-.62-.62V921.18h-1.86a.61.61,0,0,1-.62-.62v-1.3a.62.62,0,0,1,.62-.65h1.86v-.57c0-3.56,1.35-4.83,4.72-4.83h.7a.62.62,0,0,1,.62.65v1.32a.61.61,0,0,1-.62.62h-.7c-1.51,0-1.81.43-1.81,2.21v.59h8A.64.64,0,0,1,292.78,919.27Zm-3.24-4.45a1.77,1.77,0,1,1,1.75,1.75A1.69,1.69,0,0,1,289.54,914.81Z" fill="#fff"/><path d="M297,931.5V919.27a.62.62,0,0,1,.62-.65h1.65a.62.62,0,0,1,.62.65v.89a4.13,4.13,0,0,1,3.73-1.81c3.32,0,4.91,2.48,4.91,6.15v7a.61.61,0,0,1-.62.62H306.3a.61.61,0,0,1-.62-.62v-7.34c0-2.16-1.21-3.32-2.89-3.32s-2.86,1.16-2.86,3.32v7.34a.61.61,0,0,1-.62.62h-1.65A.61.61,0,0,1,297,931.5Z" fill="#fff"/><path d="M322,932.12h-1.46a.61.61,0,0,1-.62-.62v-.89a3.72,3.72,0,0,1-3.43,1.78h-.43c-2.27,0-4.35-1.08-4.35-4.08,0-3.81,3.56-4.1,5.43-4.1H320v-.7c0-1.62-.65-2.67-2.65-2.67-1.73,0-2.08.7-2.27,1.51a.52.52,0,0,1-.51.43h-1.7a.47.47,0,0,1-.51-.49,2,2,0,0,1,.05-.32c.3-1.43,1.11-3.62,4.94-3.62,4.56,0,5.34,2.67,5.34,5.24v7.91A.61.61,0,0,1,322,932.12Zm-7.58-3.81c0,1.35,1.11,1.78,2.21,1.78h.43c2.51,0,2.86-1.62,2.86-3.08v-.67h-2.7C315.57,926.34,314.46,926.74,314.46,928.31Z" fill="#fff"/><path d="M326.69,931.5V919.27a.62.62,0,0,1,.62-.65H329a.62.62,0,0,1,.62.65v.89a4.13,4.13,0,0,1,3.73-1.81c3.32,0,4.91,2.48,4.91,6.15v7a.61.61,0,0,1-.62.62h-1.65a.61.61,0,0,1-.62-.62v-7.34c0-2.16-1.21-3.32-2.89-3.32s-2.86,1.16-2.86,3.32v7.34a.61.61,0,0,1-.62.62h-1.65A.61.61,0,0,1,326.69,931.5Z" fill="#fff"/><path d="M347.4,929.9a2.64,2.64,0,0,0,2.75-2.35.46.46,0,0,1,.46-.4h1.86a.43.43,0,0,1,.43.46,2.09,2.09,0,0,1,0,.4,5.47,5.47,0,0,1-5.48,4.37c-3.21,0-5.75-2.35-5.75-6.13V924.5c0-3.78,2.54-6.15,5.72-6.15a5.5,5.5,0,0,1,5.51,4.45,3,3,0,0,1,.05.35.4.4,0,0,1-.43.43h-1.84a.47.47,0,0,1-.49-.4,2.72,2.72,0,0,0-2.81-2.35c-1.67,0-2.92,1.16-2.92,3.32v2.43C344.46,928.74,345.73,929.9,347.4,929.9Z" fill="#fff"/><path d="M359.74,914.81a1.77,1.77,0,1,1-1.78-1.75A1.69,1.69,0,0,1,359.74,914.81Zm-3.21,16.68V919.27a.62.62,0,0,1,.62-.65h1.65a.62.62,0,0,1,.62.65V931.5a.61.61,0,0,1-.62.62h-1.65A.61.61,0,0,1,356.53,931.5Z" fill="#fff"/><path d="M373.16,932.12H371.7a.61.61,0,0,1-.62-.62v-.89a3.72,3.72,0,0,1-3.43,1.78h-.43c-2.27,0-4.35-1.08-4.35-4.08,0-3.81,3.56-4.1,5.43-4.1h2.78v-.7c0-1.62-.65-2.67-2.65-2.67-1.73,0-2.08.7-2.27,1.51a.52.52,0,0,1-.51.43H364a.47.47,0,0,1-.51-.49,2,2,0,0,1,.05-.32c.3-1.43,1.11-3.62,4.94-3.62,4.56,0,5.34,2.67,5.34,5.24v7.91A.61.61,0,0,1,373.16,932.12Zm-7.58-3.81c0,1.35,1.11,1.78,2.21,1.78h.43c2.51,0,2.86-1.62,2.86-3.08v-.67h-2.7C366.68,926.34,365.57,926.74,365.57,928.31Z" fill="#fff"/><path d="M377.88,931.5V913.87a.62.62,0,0,1,.62-.65h1.65a.62.62,0,0,1,.62.65V931.5a.61.61,0,0,1-.62.62H378.5A.61.61,0,0,1,377.88,931.5Z" fill="#fff"/><path d="M233.74,966.9a2.6,2.6,0,0,0,2.65-1.62.77.77,0,0,1,.65-.38h1.73a.41.41,0,0,1,.43.43,1.42,1.42,0,0,1-.11.46,5.55,5.55,0,0,1-5.34,3.59,5.74,5.74,0,0,1-5.83-6.13V961.5c0-3.78,2.56-6.15,5.8-6.15a5.74,5.74,0,0,1,5.75,6.07v1.27a.63.63,0,0,1-.65.62h-8v.38A3,3,0,0,0,233.74,966.9Zm2.89-5.94a2.92,2.92,0,1,0-5.83,0v.3h5.83Z" fill="#fff"/><path d="M241.2,968.68a1.32,1.32,0,0,1,.3-.62l3.89-5.72-3.75-5.56a1.64,1.64,0,0,1-.38-.7.45.45,0,0,1,.46-.46h1.81a1,1,0,0,1,.89.54l2.65,4.1,2.65-4.1a1,1,0,0,1,.89-.54h1.65a.44.44,0,0,1,.46.46,1.41,1.41,0,0,1-.35.65l-3.7,5.53,3.75,5.64c.22.35.4.57.4.78a.43.43,0,0,1-.46.43h-1.78a1,1,0,0,1-.89-.51l-2.75-4.24-2.75,4.24a1,1,0,0,1-.84.51h-1.7A.43.43,0,0,1,241.2,968.68Z" fill="#fff"/><path d="M257.8,974.51h-1.65a.61.61,0,0,1-.62-.62V956.27a.62.62,0,0,1,.62-.65h1.65a.62.62,0,0,1,.62.65v.86a4.29,4.29,0,0,1,3.78-1.78c3,0,4.94,2.13,4.94,6.15v1.62c0,4.1-2,6.26-4.94,6.26a4.26,4.26,0,0,1-3.78-1.78v6.29A.61.61,0,0,1,257.8,974.51Zm3.54-7.61c1.94,0,2.92-1.4,2.92-3.32v-2.4c0-1.92-1-3.35-2.92-3.35s-2.92,1.4-2.92,3.27v2.48C258.42,965.5,259.42,966.9,261.34,966.9Z" fill="#fff"/><path d="M275.94,966.9a2.6,2.6,0,0,0,2.65-1.62.77.77,0,0,1,.65-.38H281a.41.41,0,0,1,.43.43,1.42,1.42,0,0,1-.11.46,5.55,5.55,0,0,1-5.34,3.59,5.74,5.74,0,0,1-5.83-6.13V961.5c0-3.78,2.56-6.15,5.8-6.15a5.74,5.74,0,0,1,5.75,6.07v1.27a.63.63,0,0,1-.65.62h-8v.38A3,3,0,0,0,275.94,966.9Zm2.89-5.94a2.92,2.92,0,1,0-5.83,0v.3h5.83Z" fill="#fff"/><path d="M285.21,968.5V956.27a.62.62,0,0,1,.62-.65h1.49a.64.64,0,0,1,.65.65v1.38a4,4,0,0,1,3.59-2h.35a.62.62,0,0,1,.62.65v1.62a.61.61,0,0,1-.62.62h-.41c-2.24,0-3.43,1.35-3.43,3.89v6.1a.62.62,0,0,1-.65.62h-1.59A.61.61,0,0,1,285.21,968.5Z" fill="#fff"/><path d="M296.55,964.8v-6.61h-1.86a.61.61,0,0,1-.62-.62v-1.3a.62.62,0,0,1,.62-.65c1.32,0,1.89-.3,1.89-1.7v-1.16a.62.62,0,0,1,.62-.65h1.57a.64.64,0,0,1,.65.65v2.86h2.73a.62.62,0,0,1,.62.65v1.3a.61.61,0,0,1-.62.62h-2.73v6.18c0,1.54.19,2.1,1.78,2.1h.94a.63.63,0,0,1,.62.65v1.38a.61.61,0,0,1-.62.62H300.7C297.46,969.12,296.55,967.58,296.55,964.8Z" fill="#fff"/><path d="M309.45,951.81a1.77,1.77,0,1,1-1.78-1.75A1.69,1.69,0,0,1,309.45,951.81Zm-3.21,16.68V956.27a.62.62,0,0,1,.62-.65h1.65a.62.62,0,0,1,.62.65V968.5a.61.61,0,0,1-.62.62h-1.65A.61.61,0,0,1,306.24,968.5Z" fill="#fff"/><path d="M312.74,965.63a.9.9,0,0,1,0-.38.42.42,0,0,1,.46-.43h1.67a.5.5,0,0,1,.51.4c.19.73.78,1.81,2.73,1.81,1.54,0,2.51-.49,2.51-1.7,0-2.81-7.67-.54-7.67-6,0-2.78,2.4-3.94,5.1-3.94a4.79,4.79,0,0,1,5,3.59,1.44,1.44,0,0,1,.05.38.48.48,0,0,1-.49.46H321c-.32,0-.41-.14-.51-.43a2.27,2.27,0,0,0-2.54-1.65c-1.16,0-2.21.35-2.21,1.46,0,3,7.64.7,7.64,6.1,0,3.05-2.48,4.13-5.29,4.13C314.77,969.39,313,967.44,312.74,965.63Z" fill="#fff"/><path d="M332.1,966.9a2.6,2.6,0,0,0,2.65-1.62.77.77,0,0,1,.65-.38h1.73a.41.41,0,0,1,.43.43,1.42,1.42,0,0,1-.11.46,5.55,5.55,0,0,1-5.34,3.59,5.74,5.74,0,0,1-5.83-6.13V961.5c0-3.78,2.56-6.15,5.8-6.15a5.74,5.74,0,0,1,5.75,6.07v1.27a.63.63,0,0,1-.65.62h-8v.38A3,3,0,0,0,332.1,966.9ZM335,961a2.92,2.92,0,1,0-5.83,0v.3H335Z" fill="#fff"/><path d="M212.88,537.8a.43.43,0,0,1-.46.43h-2a.54.54,0,0,1-.57-.35l-1.43-4.1h-7.64l-1.4,4.08a.54.54,0,0,1-.51.38H197a.43.43,0,0,1-.46-.43,2,2,0,0,1,.16-.54l6.24-17.44a.71.71,0,0,1,.65-.49h2.24a.67.67,0,0,1,.62.49l6.26,17.41A3.54,3.54,0,0,1,212.88,537.8Zm-5.29-6.64-2.92-8.45-2.94,8.45Z" fill="#fff"/><path d="M220.71,536a2.64,2.64,0,0,0,2.75-2.35.46.46,0,0,1,.46-.4h1.86a.43.43,0,0,1,.43.46,2,2,0,0,1,0,.4,5.47,5.47,0,0,1-5.48,4.37c-3.21,0-5.75-2.35-5.75-6.13v-1.75c0-3.78,2.54-6.15,5.72-6.15a5.5,5.5,0,0,1,5.51,4.45,2.8,2.8,0,0,1,.05.35.4.4,0,0,1-.43.43H224a.48.48,0,0,1-.49-.4,2.72,2.72,0,0,0-2.81-2.35c-1.67,0-2.92,1.16-2.92,3.32v2.43C217.77,534.86,219,536,220.71,536Z" fill="#fff"/><path d="M234.86,536a2.64,2.64,0,0,0,2.75-2.35.46.46,0,0,1,.46-.4h1.86a.43.43,0,0,1,.43.46,2,2,0,0,1,0,.4,5.47,5.47,0,0,1-5.48,4.37c-3.21,0-5.75-2.35-5.75-6.13v-1.75c0-3.78,2.54-6.15,5.72-6.15a5.5,5.5,0,0,1,5.51,4.45,2.76,2.76,0,0,1,.05.35.4.4,0,0,1-.43.43h-1.83a.47.47,0,0,1-.49-.4,2.72,2.72,0,0,0-2.81-2.35c-1.67,0-2.92,1.16-2.92,3.32v2.43C231.92,534.86,233.19,536,234.86,536Z" fill="#fff"/><path d="M249.09,536a2.6,2.6,0,0,0,2.65-1.62.77.77,0,0,1,.65-.38h1.73a.41.41,0,0,1,.43.43,1.4,1.4,0,0,1-.11.46,5.55,5.55,0,0,1-5.34,3.59,5.74,5.74,0,0,1-5.83-6.13v-1.75c0-3.78,2.56-6.15,5.8-6.15a5.74,5.74,0,0,1,5.75,6.07v1.27a.63.63,0,0,1-.65.62h-8v.38A3,3,0,0,0,249.09,536Zm2.89-5.94a2.92,2.92,0,1,0-5.83,0v.3H252Z" fill="#fff"/><path d="M257.68,534.75a.9.9,0,0,1,0-.38.42.42,0,0,1,.46-.43h1.67a.5.5,0,0,1,.51.4c.19.73.78,1.81,2.73,1.81,1.54,0,2.51-.49,2.51-1.7,0-2.81-7.67-.54-7.67-6,0-2.78,2.4-3.94,5.1-3.94a4.79,4.79,0,0,1,5,3.59,1.44,1.44,0,0,1,.05.38.48.48,0,0,1-.49.46h-1.67c-.32,0-.41-.14-.51-.43a2.27,2.27,0,0,0-2.54-1.65c-1.16,0-2.21.35-2.21,1.46,0,3,7.64.7,7.64,6.1,0,3.05-2.48,4.13-5.29,4.13C259.7,538.5,258,536.56,257.68,534.75Z" fill="#fff"/><path d="M271.21,534.75a.9.9,0,0,1,0-.38.42.42,0,0,1,.46-.43h1.67a.5.5,0,0,1,.51.4c.19.73.78,1.81,2.73,1.81,1.54,0,2.51-.49,2.51-1.7,0-2.81-7.67-.54-7.67-6,0-2.78,2.4-3.94,5.1-3.94a4.79,4.79,0,0,1,5,3.59,1.44,1.44,0,0,1,.05.38.48.48,0,0,1-.49.46h-1.67c-.32,0-.41-.14-.51-.43a2.27,2.27,0,0,0-2.54-1.65c-1.16,0-2.21.35-2.21,1.46,0,3,7.64.7,7.64,6.1,0,3.05-2.48,4.13-5.29,4.13C273.23,538.5,271.5,536.56,271.21,534.75Z" fill="#fff"/><path d="M292.75,533.91V527.3h-1.86a.61.61,0,0,1-.62-.62v-1.3a.62.62,0,0,1,.62-.65c1.32,0,1.89-.3,1.89-1.7v-1.16a.62.62,0,0,1,.62-.65H295a.64.64,0,0,1,.65.65v2.86h2.73a.62.62,0,0,1,.62.65v1.3a.61.61,0,0,1-.62.62h-2.73v6.18c0,1.54.19,2.1,1.78,2.1h.95a.63.63,0,0,1,.62.65v1.38a.61.61,0,0,1-.62.62h-1.43C293.67,538.23,292.75,536.69,292.75,533.91Z" fill="#fff"/><path d="M307.19,524.46c3.24,0,5.8,2.38,5.8,6.15v1.75c0,3.78-2.56,6.13-5.8,6.13s-5.8-2.35-5.8-6.13v-1.75C301.39,526.84,303.93,524.46,307.19,524.46Zm0,11.55c1.67,0,2.89-1.16,2.89-3.32v-2.43c0-2.16-1.21-3.32-2.89-3.32s-2.92,1.16-2.92,3.32v2.43C304.28,534.86,305.52,536,307.19,536Z" fill="#fff"/><path d="M323.4,537.61V520a.62.62,0,0,1,.62-.65h1.65a.62.62,0,0,1,.62.65v17.63a.61.61,0,0,1-.62.62H324A.61.61,0,0,1,323.4,537.61Z" fill="#fff"/><path d="M335.76,536a2.6,2.6,0,0,0,2.65-1.62.77.77,0,0,1,.65-.38h1.73a.41.41,0,0,1,.43.43,1.42,1.42,0,0,1-.11.46,5.55,5.55,0,0,1-5.34,3.59,5.74,5.74,0,0,1-5.83-6.13v-1.75c0-3.78,2.56-6.15,5.8-6.15a5.74,5.74,0,0,1,5.75,6.07v1.27a.63.63,0,0,1-.65.62h-8v.38A3,3,0,0,0,335.76,536Zm2.89-5.94a2.92,2.92,0,1,0-5.83,0v.3h5.83Z" fill="#fff"/><path d="M344.35,534.75a.89.89,0,0,1,0-.38.42.42,0,0,1,.46-.43h1.67a.5.5,0,0,1,.51.4c.19.73.78,1.81,2.73,1.81,1.54,0,2.51-.49,2.51-1.7,0-2.81-7.67-.54-7.67-6,0-2.78,2.4-3.94,5.1-3.94a4.79,4.79,0,0,1,5,3.59,1.39,1.39,0,0,1,.05.38.48.48,0,0,1-.49.46h-1.67c-.32,0-.4-.14-.51-.43a2.27,2.27,0,0,0-2.54-1.65c-1.16,0-2.21.35-2.21,1.46,0,3,7.64.7,7.64,6.1,0,3.05-2.48,4.13-5.29,4.13C346.37,538.5,344.64,536.56,344.35,534.75Z" fill="#fff"/><path d="M357.87,534.75a.9.9,0,0,1,0-.38.42.42,0,0,1,.46-.43H360a.5.5,0,0,1,.51.4c.19.73.78,1.81,2.73,1.81,1.54,0,2.51-.49,2.51-1.7,0-2.81-7.67-.54-7.67-6,0-2.78,2.4-3.94,5.1-3.94a4.79,4.79,0,0,1,5,3.59,1.44,1.44,0,0,1,.05.38.48.48,0,0,1-.49.46h-1.67c-.32,0-.41-.14-.51-.43a2.27,2.27,0,0,0-2.54-1.65c-1.16,0-2.21.35-2.21,1.46,0,3,7.64.7,7.64,6.1,0,3.05-2.48,4.13-5.29,4.13C359.9,538.5,358.17,536.56,357.87,534.75Z" fill="#fff"/><path d="M197.41,574.61v-.89a4.26,4.26,0,0,1-3.78,1.78c-2.94,0-4.94-2.16-4.94-6.26v-1.62c0-4,1.92-6.15,4.94-6.15a4.29,4.29,0,0,1,3.78,1.78V557a.62.62,0,0,1,.62-.65h1.65a.62.62,0,0,1,.62.65v17.63a.61.61,0,0,1-.62.62H198A.61.61,0,0,1,197.41,574.61Zm0-4.91v-2.48c0-1.86-1-3.27-2.92-3.27s-2.92,1.43-2.92,3.35v2.4c0,1.92,1,3.32,2.89,3.32S197.41,571.61,197.41,569.7Z" fill="#fff"/><path d="M207.89,557.93a1.77,1.77,0,1,1-1.78-1.75A1.69,1.69,0,0,1,207.89,557.93Zm-3.21,16.68V562.38a.62.62,0,0,1,.62-.65h1.65a.62.62,0,0,1,.62.65v12.23a.61.61,0,0,1-.62.62H205.3A.61.61,0,0,1,204.68,574.61Z" fill="#fff"/><path d="M211.94,574.61V557a.62.62,0,0,1,.62-.65h1.65a.62.62,0,0,1,.62.65v17.63a.61.61,0,0,1-.62.62h-1.65A.61.61,0,0,1,211.94,574.61Z" fill="#fff"/><path d="M230.14,562.38v12.23a.61.61,0,0,1-.62.62h-1.65a.61.61,0,0,1-.62-.62v-.84a4,4,0,0,1-3.62,1.73c-3.16,0-4.7-2.35-4.7-6.13v-7a.62.62,0,0,1,.62-.65h1.65a.62.62,0,0,1,.62.65v7.31c0,2.16,1,3.32,2.67,3.32s2.75-1.16,2.75-3.32v-7.31a.62.62,0,0,1,.62-.65h1.65A.62.62,0,0,1,230.14,562.38Z" fill="#fff"/><path d="M235,570.91V564.3h-1.86a.61.61,0,0,1-.62-.62v-1.3a.62.62,0,0,1,.62-.65c1.32,0,1.89-.3,1.89-1.7v-1.16a.62.62,0,0,1,.62-.65h1.57a.64.64,0,0,1,.65.65v2.86h2.73a.62.62,0,0,1,.62.65v1.3a.61.61,0,0,1-.62.62h-2.73v6.18c0,1.54.19,2.1,1.78,2.1h.94a.63.63,0,0,1,.62.65v1.38a.61.61,0,0,1-.62.62h-1.43C235.89,575.23,235,573.69,235,570.91Z" fill="#fff"/><path d="M247.88,557.93a1.77,1.77,0,1,1-1.78-1.75A1.69,1.69,0,0,1,247.88,557.93Zm-3.21,16.68V562.38a.62.62,0,0,1,.62-.65h1.65a.62.62,0,0,1,.62.65v12.23a.61.61,0,0,1-.62.62h-1.65A.61.61,0,0,1,244.66,574.61Z" fill="#fff"/><path d="M263.16,562.19a2,2,0,0,1-.16.54l-4.67,12.12a.61.61,0,0,1-.59.38h-1.81a.58.58,0,0,1-.57-.38l-4.7-12.12a2.1,2.1,0,0,1-.16-.54.44.44,0,0,1,.46-.46h1.86a.58.58,0,0,1,.62.38l3.48,9.74,3.35-9.74a.52.52,0,0,1,.57-.38h1.89A.43.43,0,0,1,263.16,562.19Z" fill="#fff"/><path d="M270.93,573a2.6,2.6,0,0,0,2.64-1.62.77.77,0,0,1,.65-.38H276a.41.41,0,0,1,.43.43,1.4,1.4,0,0,1-.11.46,5.55,5.55,0,0,1-5.34,3.59,5.74,5.74,0,0,1-5.83-6.13v-1.75c0-3.78,2.56-6.15,5.8-6.15a5.74,5.74,0,0,1,5.75,6.07v1.27a.63.63,0,0,1-.65.62h-8v.38A3,3,0,0,0,270.93,573Zm2.89-5.94a2.92,2.92,0,1,0-5.83,0v.3h5.83Z" fill="#fff"/><path d="M293.21,564.3h-2.67v10.31a.63.63,0,0,1-.65.62h-1.65a.61.61,0,0,1-.62-.62V564.3h-1.86a.61.61,0,0,1-.62-.62v-1.3a.62.62,0,0,1,.62-.65h1.86v-.57c0-3.56,1.35-4.83,4.72-4.83h.86a.62.62,0,0,1,.62.65v1.32a.61.61,0,0,1-.62.62h-.86c-1.51,0-1.81.43-1.81,2.21v.59h2.67a.62.62,0,0,1,.62.65v1.3A.61.61,0,0,1,293.21,564.3Z" fill="#fff"/><path d="M308.11,562.38v12.23a.61.61,0,0,1-.62.62h-1.65a.61.61,0,0,1-.62-.62v-.84a4,4,0,0,1-3.62,1.73c-3.16,0-4.7-2.35-4.7-6.13v-7a.62.62,0,0,1,.62-.65h1.65a.62.62,0,0,1,.62.65v7.31c0,2.16,1,3.32,2.67,3.32s2.75-1.16,2.75-3.32v-7.31a.62.62,0,0,1,.62-.65h1.65A.62.62,0,0,1,308.11,562.38Z" fill="#fff"/><path d="M312.27,574.61V562.38a.62.62,0,0,1,.62-.65h1.65a.62.62,0,0,1,.62.65v.89a4.13,4.13,0,0,1,3.72-1.81c3.32,0,4.91,2.48,4.91,6.15v7a.61.61,0,0,1-.62.62h-1.65a.61.61,0,0,1-.62-.62v-7.34c0-2.16-1.21-3.32-2.89-3.32s-2.86,1.16-2.86,3.32v7.34a.61.61,0,0,1-.62.62h-1.65A.61.61,0,0,1,312.27,574.61Z" fill="#fff"/><path d="M335.95,574.61v-.89a4.27,4.27,0,0,1-3.78,1.78c-2.94,0-4.94-2.16-4.94-6.26v-1.62c0-4,1.92-6.15,4.94-6.15a4.29,4.29,0,0,1,3.78,1.78V557a.62.62,0,0,1,.62-.65h1.65a.62.62,0,0,1,.62.65v17.63a.61.61,0,0,1-.62.62h-1.65A.61.61,0,0,1,335.95,574.61Zm0-4.91v-2.48c0-1.86-1-3.27-2.92-3.27s-2.91,1.43-2.91,3.35v2.4c0,1.92,1,3.32,2.89,3.32S335.95,571.61,335.95,569.7Z" fill="#fff"/><path d="M346.43,557.93a1.77,1.77,0,1,1-1.78-1.75A1.69,1.69,0,0,1,346.43,557.93Zm-3.21,16.68V562.38a.62.62,0,0,1,.62-.65h1.65a.62.62,0,0,1,.62.65v12.23a.61.61,0,0,1-.62.62h-1.65A.61.61,0,0,1,343.21,574.61Z" fill="#fff"/><path d="M350.4,574.61V562.38a.62.62,0,0,1,.62-.65h1.65a.62.62,0,0,1,.62.65v.89a4.13,4.13,0,0,1,3.73-1.81c3.32,0,4.91,2.48,4.91,6.15v7a.61.61,0,0,1-.62.62h-1.65a.61.61,0,0,1-.62-.62v-7.34c0-2.16-1.21-3.32-2.89-3.32s-2.86,1.16-2.86,3.32v7.34a.61.61,0,0,1-.62.62H351A.61.61,0,0,1,350.4,574.61Z" fill="#fff"/><path d="M377.64,576.77c0,2.29-1.67,4.13-4.72,4.13h-3.13c-3.05,0-4.72-1.86-4.72-4.13a3.3,3.3,0,0,1,1.81-3.13,2.1,2.1,0,0,1-1.24-2,2.12,2.12,0,0,1,1.86-2.21,3.7,3.7,0,0,1-1.75-3.32c0-2.83,2.13-4.62,5.18-4.62h.67a4.74,4.74,0,0,1,2.75.86v-1.75a.63.63,0,0,1,.62-.65h1.35a.66.66,0,0,1,.65.65v5.51c0,3-2.11,4.62-5.13,4.62h-2.62c-.65,0-1.11.32-1.11,1s.41.94,1.32.94h3.48C376,572.61,377.64,574.45,377.64,576.77Zm-2.73,0c0-1.19-.65-2-2.51-2h-2.13c-1.86,0-2.48.81-2.48,2s.62,1.86,2.48,1.86h2.13C374.26,578.66,374.91,578,374.91,576.8Zm-6.45-10.72a2.28,2.28,0,0,0,2.54,2.35h.7a2.36,2.36,0,1,0,0-4.7H371A2.29,2.29,0,0,0,368.46,566.08Z" fill="#fff"/><path d="M462.39,537.61c-.11-.77-.51-1.5-2-1.5-1.26,0-2.11.3-2.11,1.5,0,2.69,6.07,1,6.07,5.3,0,2.37-2,3.2-4,3.2-3,0-4.11-2-4.11-3.44a.36.36,0,0,1,.37-.37h1a.37.37,0,0,1,.35.34,2.13,2.13,0,0,0,2.43,2c1.39,0,2.24-.45,2.24-1.68,0-2.64-6.07-1-6.07-5.3,0-2,1.41-3,3.86-3,2.69,0,3.7,1.63,3.7,3a.38.38,0,0,1-.38.37h-1A.37.37,0,0,1,462.39,537.61Z" fill="#a5b993"/><path d="M465.54,536v-.86a.37.37,0,0,1,.37-.38h7.81a.37.37,0,0,1,.37.38V536a.36.36,0,0,1-.37.37h-3v9.22a.38.38,0,0,1-.38.37h-1a.36.36,0,0,1-.37-.37v-9.22h-3A.36.36,0,0,1,465.54,536Z" fill="#a5b993"/><path d="M477.19,545.95h-1a.36.36,0,0,1-.37-.37V535.12a.37.37,0,0,1,.37-.38h4c2,0,3.46,1.1,3.46,3.28v.35a2.92,2.92,0,0,1-2.21,3l2.08,3.94a.63.63,0,0,1,.13.34.25.25,0,0,1-.26.26h-1.23a.45.45,0,0,1-.4-.3l-2-3.94h-2.24v3.87A.36.36,0,0,1,477.19,545.95Zm2.95-5.86a1.66,1.66,0,0,0,1.86-1.73v-.24a1.64,1.64,0,0,0-1.86-1.76h-2.58v3.73Z" fill="#a5b993"/><path d="M492.53,536.36h-4.9v3.11h3.87a.37.37,0,0,1,.37.38v.86a.36.36,0,0,1-.37.37h-3.87v3.25h4.9a.36.36,0,0,1,.37.37v.88a.36.36,0,0,1-.37.37h-6.24a.36.36,0,0,1-.37-.37V535.12a.37.37,0,0,1,.37-.38h6.24a.37.37,0,0,1,.37.38V536A.36.36,0,0,1,492.53,536.36Z" fill="#a5b993"/><path d="M503.85,545.69a.26.26,0,0,1-.27.26H502.4a.32.32,0,0,1-.34-.21l-.85-2.43h-4.53l-.83,2.42a.32.32,0,0,1-.3.22h-1.12a.26.26,0,0,1-.27-.26,1.12,1.12,0,0,1,.1-.32L498,535a.42.42,0,0,1,.38-.29h1.33a.4.4,0,0,1,.37.29l3.71,10.32A2,2,0,0,1,503.85,545.69Zm-3.14-3.94-1.73-5-1.74,5Z" fill="#a5b993"/><path d="M516.69,535.12v10.45a.38.38,0,0,1-.38.37h-.91a.36.36,0,0,1-.37-.37v-8.24l-3.09,8.36a.34.34,0,0,1-.34.26h-.9a.31.31,0,0,1-.32-.24l-3.12-8.39v8.26a.36.36,0,0,1-.37.37H506a.36.36,0,0,1-.37-.37V535.12a.37.37,0,0,1,.37-.38h1.71a.3.3,0,0,1,.3.19l3.15,8.61,3.19-8.6a.3.3,0,0,1,.29-.21h1.67A.38.38,0,0,1,516.69,535.12Z" fill="#a5b993"/><path d="M519.36,545.58V535.12a.37.37,0,0,1,.37-.38h1a.37.37,0,0,1,.37.38v10.45a.36.36,0,0,1-.37.37h-1A.36.36,0,0,1,519.36,545.58Z" fill="#a5b993"/><path d="M532.15,535.12v10.45a.37.37,0,0,1-.38.37h-.88c-.14,0-.32,0-.58-.43l-4.87-8v8.1a.38.38,0,0,1-.38.37h-.93a.36.36,0,0,1-.37-.37V535.12a.37.37,0,0,1,.37-.38h1.23a.53.53,0,0,1,.43.3l4.67,7.76v-7.68a.37.37,0,0,1,.37-.38h.93A.37.37,0,0,1,532.15,535.12Z" fill="#a5b993"/><path d="M538.58,541.14v-.82a.38.38,0,0,1,.37-.38h3.59a.39.39,0,0,1,.38.38v5.25a.38.38,0,0,1-.38.37h-.77a.36.36,0,0,1-.37-.37v-.78a3.1,3.1,0,0,1-2.72,1.31c-2.59,0-4.19-2-4.19-4.51v-2.5a4.21,4.21,0,0,1,4.29-4.51,4,4,0,0,1,4.1,3.49,1.46,1.46,0,0,1,0,.24.24.24,0,0,1-.26.24h-1.22c-.16,0-.26-.1-.29-.32a2.3,2.3,0,0,0-2.37-2,2.6,2.6,0,0,0-2.56,2.91v2.48a2.59,2.59,0,0,0,2.56,2.9,2.4,2.4,0,0,0,2.48-2.34v-.64h-2.3A.36.36,0,0,1,538.58,541.14Z" fill="#a5b993"/><path d="M470.89,559.06H468.2v3.52a.36.36,0,0,1-.37.37h-1a.36.36,0,0,1-.37-.37V552.12a.37.37,0,0,1,.37-.38h4a3.17,3.17,0,0,1,3.46,3.38v.4A3.3,3.3,0,0,1,470.89,559.06Zm-2.69-5.7v4.08h2.58a1.78,1.78,0,0,0,1.86-1.94v-.29a1.71,1.71,0,0,0-1.86-1.86Z" fill="#a5b993"/><path d="M484.25,562.69a.26.26,0,0,1-.27.26h-1.17a.32.32,0,0,1-.34-.21l-.85-2.43H477.1l-.83,2.42a.32.32,0,0,1-.3.22h-1.12a.26.26,0,0,1-.27-.26,1.12,1.12,0,0,1,.1-.32l3.7-10.34a.42.42,0,0,1,.38-.29h1.33a.4.4,0,0,1,.37.29l3.71,10.32A2,2,0,0,1,484.25,562.69Zm-3.14-3.94-1.73-5-1.74,5Z" fill="#a5b993"/><path d="M487.39,562.95h-1a.36.36,0,0,1-.37-.37V552.12a.37.37,0,0,1,.37-.38h4c2,0,3.46,1.1,3.46,3.28v.35a2.92,2.92,0,0,1-2.21,3l2.08,3.94a.63.63,0,0,1,.13.34.25.25,0,0,1-.26.26h-1.23a.45.45,0,0,1-.4-.3l-2-3.94h-2.24v3.87A.36.36,0,0,1,487.39,562.95Zm2.95-5.86a1.66,1.66,0,0,0,1.86-1.73v-.24a1.64,1.64,0,0,0-1.86-1.76h-2.58v3.73Z" fill="#a5b993"/><path d="M495.13,553v-.86a.37.37,0,0,1,.37-.38h7.81a.37.37,0,0,1,.37.38V553a.36.36,0,0,1-.37.37h-3v9.22a.38.38,0,0,1-.38.37h-1a.36.36,0,0,1-.37-.37v-9.22h-3A.36.36,0,0,1,495.13,553Z" fill="#a5b993"/><path d="M513.82,552.12v10.45a.37.37,0,0,1-.38.37h-.88c-.14,0-.32,0-.58-.43l-4.87-8v8.1a.38.38,0,0,1-.38.37h-.93a.36.36,0,0,1-.37-.37V552.12a.37.37,0,0,1,.37-.38H507a.53.53,0,0,1,.43.3l4.67,7.76v-7.68a.37.37,0,0,1,.37-.38h.93A.37.37,0,0,1,513.82,552.12Z" fill="#a5b993"/><path d="M523.12,553.36h-4.9v3.11h3.87a.37.37,0,0,1,.37.38v.86a.36.36,0,0,1-.37.37h-3.87v3.25h4.9a.36.36,0,0,1,.37.37v.88a.36.36,0,0,1-.37.37h-6.24a.36.36,0,0,1-.37-.37V552.12a.37.37,0,0,1,.37-.38h6.24a.37.37,0,0,1,.37.38V553A.36.36,0,0,1,523.12,553.36Z" fill="#a5b993"/><path d="M527,562.95h-1a.36.36,0,0,1-.37-.37V552.12a.37.37,0,0,1,.37-.38h4c2,0,3.46,1.1,3.46,3.28v.35a2.92,2.92,0,0,1-2.21,3l2.08,3.94a.63.63,0,0,1,.13.34.25.25,0,0,1-.26.26H532a.45.45,0,0,1-.4-.3l-2-3.94h-2.24v3.87A.36.36,0,0,1,527,562.95Zm2.95-5.86a1.66,1.66,0,0,0,1.86-1.73v-.24a1.64,1.64,0,0,0-1.86-1.76h-2.58v3.73Z" fill="#a5b993"/><g clip-path="url(#clip-path)"><path d="M474.19,484.38a.25.25,0,0,0-.37.27,32.64,32.64,0,0,0,9.63,16.67,40.19,40.19,0,0,0,7.77,5.67,44.48,44.48,0,0,0-15.09-3,29.21,29.21,0,0,0-3.57.21.25.25,0,0,0-.13.44,23.34,23.34,0,0,0,19.13,5.45,24.32,24.32,0,0,0-10.4,7.17.25.25,0,0,0,.25.4,31.44,31.44,0,0,0,10.11-4.2,13.35,13.35,0,0,0,3.3-3.1c0,1.12,0,4-.09,5.46-.06,1.9-.06,1.9,0,2a1.07,1.07,0,0,0,.65.3.94.94,0,0,0,.67-.34c0-.08,0-.08,0-1.85,0-1.53-.14-4.43-.1-5.57a13.37,13.37,0,0,0,3.3,3.1,31.44,31.44,0,0,0,10.12,4.21.25.25,0,0,0,.25-.4,24.33,24.33,0,0,0-10.4-7.17,23.34,23.34,0,0,0,19.13-5.45.25.25,0,0,0-.13-.44,29.21,29.21,0,0,0-3.57-.21,44.49,44.49,0,0,0-15.09,3,40.19,40.19,0,0,0,7.77-5.67A32.66,32.66,0,0,0,517,484.65a.25.25,0,0,0-.37-.27c-11.46,6.9-17.32,16.85-19.73,21.13a40.24,40.24,0,0,0,1.94-9.13,46.51,46.51,0,0,0-3.19-21.51.25.25,0,0,0-.46,0A46.5,46.5,0,0,0,492,496.39a40.24,40.24,0,0,0,1.94,9.13c-2.41-4.29-8.27-14.24-19.73-21.14" fill="#fff"/></g><rect x="114.22" y="515.67" width="23.42" height="1" fill="#fff"/><rect x="431.03" y="515.67" width="23.42" height="1" fill="#fff"/><polygon points="151.31 951.49 137.15 951.49 137.15 101.86 149.94 101.86 149.94 102.86 138.15 102.86 138.15 950.49 151.31 950.49 151.31 951.49" fill="#fff"/><polygon points="430.89 951.49 416.73 951.49 416.73 950.49 429.89 950.49 429.89 102.86 418.09 102.86 418.09 101.86 430.89 101.86 430.89 951.49" fill="#fff"/><polygon points="453.06 512.06 460.21 516.19 453.06 520.32 453.06 512.06" fill="#fff"/></g></g></svg>