<?xml version="1.0" encoding="utf-8"?>
<!-- Generator: Adobe Illustrator 20.1.0, SVG Export Plug-In . SVG Version: 6.00 Build 0)  -->
<!DOCTYPE svg PUBLIC "-//W3C//DTD SVG 1.1//EN" "http://www.w3.org/Graphics/SVG/1.1/DTD/svg11.dtd">
<svg version="1.1" id="Layer_1" xmlns="http://www.w3.org/2000/svg" xmlns:xlink="http://www.w3.org/1999/xlink" x="0px" y="0px"
	 viewBox="0 0 475.5 891.5" style="enable-background:new 0 0 475.5 891.5;" xml:space="preserve">
<style type="text/css">
	.st0{fill:#A5B993;}
	.st1{fill:#FFFFFF;}
	.st2{clip-path:url(#SVGID_2_);fill:#A5B993;}
	.st3{fill:none;stroke:#FFFFFF;stroke-width:0.8405;stroke-miterlimit:10;}
	.st4{stroke:#FFFFFF;stroke-width:2;stroke-miterlimit:10;}
	.st5{fill:none;stroke:#FFFFFF;stroke-width:2;stroke-miterlimit:10;}
	.st6{clip-path:url(#SVGID_4_);fill:#A5B993;}
	.st7{clip-path:url(#SVGID_6_);fill:#A5B993;}
</style>
<g>
	<path class="st0" d="M54.1,447.4c-3.2,0-6.2,0.1-9.2,0c-1.4-0.1-2.6-0.7-3.2-1.8c-1.3-2.5-11.2-21.8-11.6-22.6
		c-0.1-0.2-0.1-0.7,0.6-0.7c2.6,0,5.2,0,7.9,0c1.8,0,3.2,0.7,3.9,2C43.5,426.1,54.1,447.1,54.1,447.4"/>
	<path class="st0" d="M71.7,447.4c-3.2,0-6.2,0.1-9.2,0c-1.4-0.1-2.6-0.7-3.2-1.8c-1.3-2.5-11.2-21.8-11.6-22.6
		c-0.1-0.2-0.1-0.7,0.6-0.7c2.6,0,5.2,0,7.9,0c1.8,0,3.2,0.7,3.9,2C61.1,426.1,71.7,447.1,71.7,447.4"/>
	<path class="st0" d="M81.9,422.4L81.9,422.4c-0.4-0.1-2.9-0.1-5.4-0.1c-1.8,0-3.1,0.9-4,2.5c-1.2,2.3-2.4,4.7-3.6,7
		c-0.3,0.6,0.3,0.8,0.5,0.8c0.4,0.1,2.9,0.1,5.4,0.1c1.8,0,3.1-0.9,4-2.5c1.2-2.3,2.4-4.7,3.6-7C82.7,422.7,82.1,422.4,81.9,422.4"
		/>
</g>
<g>
	<g>
		<path class="st1" d="M195.3,66c-0.1,2.2-1.9,4.2-4.5,4.2c-2.6,0-4.6-1.9-4.6-4.9v-3.1c0-3,2-4.9,4.6-4.9c2.6,0,4.2,1.8,4.5,4
			c0,0.2-0.1,0.3-0.3,0.3h-0.9c-0.1,0-0.2-0.1-0.2-0.3c-0.2-1.5-1.3-2.7-3.1-2.7c-1.8,0-3.2,1.3-3.2,3.6v3.1c0,2.3,1.5,3.6,3.3,3.6
			c1.8,0,2.9-1.2,3.1-2.9c0-0.1,0.1-0.2,0.2-0.2h1C195.2,65.7,195.3,65.8,195.3,66z"/>
		<path class="st1" d="M207.2,69.8c0,0.1-0.1,0.2-0.2,0.2h-0.9c-0.2,0-0.3-0.1-0.3-0.2l-1.1-3.2h-5.5l-1.1,3.2
			c-0.1,0.2-0.2,0.2-0.3,0.2h-0.9c-0.1,0-0.2-0.1-0.2-0.2c0-0.1,0.1-0.2,0.1-0.4l4.3-11.7c0.1-0.2,0.1-0.3,0.3-0.3h1
			c0.2,0,0.3,0.1,0.3,0.3l4.4,11.9C207.2,69.6,207.2,69.7,207.2,69.8z M204.2,65.4l-2.3-6.4l-2.3,6.4H204.2z"/>
		<path class="st1" d="M214,65.2h-3.2v4.4c0,0.2-0.1,0.3-0.3,0.3h-0.8c-0.2,0-0.3-0.1-0.3-0.3v-12c0-0.2,0.1-0.3,0.3-0.3h4.3
			c2.3,0,3.9,1.3,3.9,3.7v0.4C217.8,63.8,216.3,65.2,214,65.2z M210.7,58.7V64h3.2c1.3,0,2.6-0.8,2.6-2.5V61c0-1.8-1.2-2.4-2.6-2.4
			H210.7z"/>
		<path class="st1" d="M220.3,69.7v-12c0-0.2,0.1-0.3,0.3-0.3h0.8c0.2,0,0.3,0.1,0.3,0.3v12c0,0.2-0.1,0.3-0.3,0.3h-0.8
			C220.4,70,220.3,69.9,220.3,69.7z"/>
		<path class="st1" d="M223.7,58.4v-0.7c0-0.2,0.1-0.3,0.3-0.3h8.9c0.2,0,0.3,0.1,0.3,0.3v0.7c0,0.2-0.1,0.3-0.3,0.3h-3.8v11
			c0,0.2-0.1,0.3-0.3,0.3h-0.8c-0.2,0-0.3-0.1-0.3-0.3v-11H224C223.8,58.7,223.7,58.5,223.7,58.4z"/>
		<path class="st1" d="M243.2,69.8c0,0.1-0.1,0.2-0.2,0.2H242c-0.2,0-0.3-0.1-0.3-0.2l-1.1-3.2h-5.5l-1.1,3.2
			c-0.1,0.2-0.2,0.2-0.3,0.2h-0.9c-0.1,0-0.2-0.1-0.2-0.2c0-0.1,0.1-0.2,0.1-0.4l4.3-11.7c0.1-0.2,0.1-0.3,0.3-0.3h1
			c0.2,0,0.3,0.1,0.3,0.3l4.4,11.9C243.1,69.6,243.2,69.7,243.2,69.8z M240.2,65.4l-2.3-6.4l-2.3,6.4H240.2z"/>
		<path class="st1" d="M252.9,70h-7.3c-0.2,0-0.3-0.1-0.3-0.3v-12c0-0.2,0.1-0.3,0.3-0.3h0.8c0.2,0,0.3,0.1,0.3,0.3v11h6.2
			c0.2,0,0.3,0.1,0.3,0.3v0.7C253.2,69.9,253.1,70,252.9,70z"/>
		<path class="st1" d="M267.2,58.7h-6.1v4.7h4.9c0.2,0,0.3,0.1,0.3,0.3v0.7c0,0.2-0.1,0.3-0.3,0.3h-4.9v5c0,0.2-0.1,0.3-0.3,0.3H260
			c-0.2,0-0.3-0.1-0.3-0.3v-12c0-0.2,0.1-0.3,0.3-0.3h7.2c0.2,0,0.3,0.1,0.3,0.3v0.7C267.5,58.5,267.3,58.7,267.2,58.7z"/>
		<path class="st1" d="M273.6,57.2c2.6,0,4.6,1.9,4.6,4.9v3.1c0,3-2,4.9-4.6,4.9c-2.6,0-4.6-1.9-4.6-4.9v-3.1
			C269,59.1,271,57.2,273.6,57.2z M273.6,68.9c1.8,0,3.2-1.3,3.2-3.6v-3.1c0-2.3-1.5-3.7-3.3-3.7c-1.8,0-3.2,1.4-3.2,3.7v3.1
			C270.3,67.5,271.8,68.9,273.6,68.9z"/>
		<path class="st1" d="M282.1,70h-0.8c-0.2,0-0.3-0.1-0.3-0.3v-12c0-0.2,0.1-0.3,0.3-0.3h4.3c2.3,0,3.9,1.2,3.9,3.6v0.3
			c0,1.6-0.9,2.9-2.7,3.4l2.6,4.8c0.1,0.1,0.1,0.2,0.1,0.3c0,0.1-0.1,0.2-0.2,0.2h-1c-0.2,0-0.3-0.1-0.3-0.3l-2.5-4.9h-3v4.8
			C282.4,69.9,282.3,70,282.1,70z M285.6,63.6c1.3,0,2.6-0.7,2.6-2.3V61c0-1.8-1.2-2.3-2.6-2.3h-3.2v4.9H285.6z"/>
		<path class="st1" d="M169.8,91.3v-12c0-0.2,0.1-0.3,0.3-0.3h0.8c0.2,0,0.3,0.1,0.3,0.3v12c0,0.2-0.1,0.3-0.3,0.3h-0.8
			C169.9,91.6,169.8,91.5,169.8,91.3z"/>
		<path class="st1" d="M183.4,79.3v12c0,0.2-0.1,0.3-0.3,0.3h-0.6c-0.1,0-0.3,0-0.5-0.3l-6.3-10v10c0,0.2-0.1,0.3-0.3,0.3h-0.7
			c-0.2,0-0.3-0.1-0.3-0.3v-12c0-0.2,0.1-0.3,0.3-0.3h0.9c0.2,0,0.3,0.1,0.3,0.3l6.2,9.8v-9.7c0-0.2,0.1-0.3,0.3-0.3h0.7
			C183.3,79,183.4,79.1,183.4,79.3z"/>
		<path class="st1" d="M186.7,91.3v-12c0-0.2,0.1-0.3,0.3-0.3h0.8c0.2,0,0.3,0.1,0.3,0.3v12c0,0.2-0.1,0.3-0.3,0.3H187
			C186.8,91.6,186.7,91.5,186.7,91.3z"/>
		<path class="st1" d="M190.1,80v-0.7c0-0.2,0.1-0.3,0.3-0.3h8.9c0.2,0,0.3,0.1,0.3,0.3V80c0,0.2-0.1,0.3-0.3,0.3h-3.8v11
			c0,0.2-0.1,0.3-0.3,0.3h-0.8c-0.2,0-0.3-0.1-0.3-0.3v-11h-3.8C190.2,80.3,190.1,80.1,190.1,80z"/>
		<path class="st1" d="M201.7,91.3v-12c0-0.2,0.1-0.3,0.3-0.3h0.8c0.2,0,0.3,0.1,0.3,0.3v12c0,0.2-0.1,0.3-0.3,0.3H202
			C201.8,91.6,201.7,91.5,201.7,91.3z"/>
		<path class="st1" d="M215.7,91.4c0,0.1-0.1,0.2-0.2,0.2h-0.9c-0.2,0-0.3-0.1-0.3-0.2l-1.1-3.2h-5.5l-1.1,3.2
			c-0.1,0.2-0.2,0.2-0.3,0.2h-0.9c-0.1,0-0.2-0.1-0.2-0.2c0-0.1,0.1-0.2,0.1-0.4l4.3-11.7c0.1-0.2,0.1-0.3,0.3-0.3h1
			c0.2,0,0.3,0.1,0.3,0.3l4.4,11.9C215.7,91.2,215.7,91.3,215.7,91.4z M212.7,87l-2.3-6.4l-2.3,6.4H212.7z"/>
		<path class="st1" d="M225.4,91.6h-7.3c-0.2,0-0.3-0.1-0.3-0.3v-12c0-0.2,0.1-0.3,0.3-0.3h0.8c0.2,0,0.3,0.1,0.3,0.3v11h6.2
			c0.2,0,0.3,0.1,0.3,0.3v0.7C225.7,91.5,225.6,91.6,225.4,91.6z"/>
		<path class="st1" d="M241.1,88v0.2c0,2.6-2.1,3.4-4.2,3.4h-4.3c-0.2,0-0.3-0.1-0.3-0.3v-12c0-0.2,0.1-0.3,0.3-0.3h4.2
			c2.3,0,4,0.9,4,3.2v0.3c0,1.2-0.6,2.1-1.7,2.6C240.4,85.5,241.1,86.7,241.1,88z M233.6,84.4h3.3c1.3,0,2.5-0.4,2.5-1.9v-0.3
			c0-1.6-1.3-1.9-2.6-1.9h-3.1V84.4z M239.7,88c0-1.7-1.4-2.3-2.8-2.3h-3.3v4.6h3.3c1.4,0,2.8-0.4,2.8-2.1V88z"/>
		<path class="st1" d="M251.4,79h0.8c0.2,0,0.3,0.1,0.3,0.3v7.6c0,3-1.8,4.9-4.4,4.9s-4.4-1.9-4.4-4.9v-7.6c0-0.2,0.1-0.3,0.3-0.3
			h0.8c0.2,0,0.3,0.1,0.3,0.3v7.6c0,2.3,1.3,3.6,3.1,3.6c1.8,0,3.1-1.3,3.1-3.6v-7.6C251.1,79.1,251.2,79,251.4,79z"/>
		<path class="st1" d="M255.5,91.3v-12c0-0.2,0.1-0.3,0.3-0.3h0.8c0.2,0,0.3,0.1,0.3,0.3v12c0,0.2-0.1,0.3-0.3,0.3h-0.8
			C255.6,91.6,255.5,91.5,255.5,91.3z"/>
		<path class="st1" d="M267.7,91.6h-7.3c-0.2,0-0.3-0.1-0.3-0.3v-12c0-0.2,0.1-0.3,0.3-0.3h0.8c0.2,0,0.3,0.1,0.3,0.3v11h6.2
			c0.2,0,0.3,0.1,0.3,0.3v0.7C268,91.5,267.8,91.6,267.7,91.6z"/>
		<path class="st1" d="M270.2,91.3v-12c0-0.2,0.1-0.3,0.3-0.3h3.9c2.6,0,4.6,1.9,4.6,4.9v2.8c0,3-2,4.9-4.6,4.9h-3.9
			C270.3,91.6,270.2,91.5,270.2,91.3z M271.5,90.3h2.9c1.8,0,3.2-1.4,3.2-3.6v-2.8c0-2.3-1.5-3.6-3.2-3.6h-2.9V90.3z"/>
		<path class="st1" d="M290.3,78.8c2.6,0,4.6,1.9,4.6,4.9v3.1c0,3-2,4.9-4.6,4.9c-2.6,0-4.6-1.9-4.6-4.9v-3.1
			C285.7,80.7,287.7,78.8,290.3,78.8z M290.4,90.5c1.8,0,3.2-1.3,3.2-3.6v-3.1c0-2.3-1.5-3.7-3.3-3.7c-1.8,0-3.2,1.4-3.2,3.7v3.1
			C287.1,89.1,288.6,90.5,290.4,90.5z"/>
		<path class="st1" d="M298.8,91.6h-0.8c-0.2,0-0.3-0.1-0.3-0.3v-12c0-0.2,0.1-0.3,0.3-0.3h4.3c2.3,0,3.9,1.2,3.9,3.6v0.3
			c0,1.6-0.9,2.9-2.7,3.4l2.6,4.8c0.1,0.1,0.1,0.2,0.1,0.3c0,0.1-0.1,0.2-0.2,0.2h-1c-0.2,0-0.3-0.1-0.3-0.3l-2.5-4.9h-3v4.8
			C299.1,91.5,299,91.6,298.8,91.6z M302.3,85.2c1.3,0,2.6-0.7,2.6-2.3v-0.3c0-1.8-1.2-2.3-2.6-2.3h-3.2v4.9H302.3z"/>
		<path class="st1" d="M199.8,101.9h-6.1v4.3h4.9c0.2,0,0.3,0.1,0.3,0.3v0.7c0,0.2-0.1,0.3-0.3,0.3h-4.9v4.5h6.1
			c0.2,0,0.3,0.1,0.3,0.3v0.7c0,0.2-0.1,0.3-0.3,0.3h-7.2c-0.2,0-0.3-0.1-0.3-0.3v-12c0-0.2,0.1-0.3,0.3-0.3h7.2
			c0.2,0,0.3,0.1,0.3,0.3v0.7C200.1,101.7,200,101.9,199.8,101.9z"/>
		<path class="st1" d="M211.1,113c0,0.1-0.1,0.2-0.2,0.2H210c-0.3,0-0.4-0.1-0.5-0.3l-3.2-5l-3.2,5c-0.1,0.1-0.2,0.3-0.4,0.3h-0.9
			c-0.1,0-0.2-0.1-0.2-0.2c0-0.1,0-0.2,0.1-0.3l3.8-5.9l-3.7-5.7c-0.1-0.1-0.2-0.3-0.2-0.4c0-0.1,0.1-0.2,0.2-0.2h1
			c0.2,0,0.3,0.1,0.4,0.3l3.2,4.9l3.2-4.9c0.1-0.2,0.2-0.3,0.4-0.3h0.9c0.1,0,0.2,0.1,0.2,0.2c0,0.1-0.1,0.3-0.1,0.3l-3.8,5.7
			l3.8,5.8C211.1,112.8,211.1,112.9,211.1,113z"/>
		<path class="st1" d="M217.9,108.4h-3.2v4.4c0,0.2-0.1,0.3-0.3,0.3h-0.8c-0.2,0-0.3-0.1-0.3-0.3v-12c0-0.2,0.1-0.3,0.3-0.3h4.3
			c2.3,0,3.9,1.3,3.9,3.7v0.4C221.8,107,220.2,108.4,217.9,108.4z M214.7,101.9v5.3h3.2c1.3,0,2.6-0.8,2.6-2.5v-0.4
			c0-1.8-1.2-2.4-2.6-2.4H214.7z"/>
		<path class="st1" d="M232.5,113c0,0.1-0.1,0.2-0.2,0.2h-0.9c-0.2,0-0.3-0.1-0.3-0.2l-1.1-3.2h-5.5l-1.1,3.2
			c-0.1,0.2-0.2,0.2-0.3,0.2h-0.9c-0.1,0-0.2-0.1-0.2-0.2c0-0.1,0.1-0.2,0.1-0.4l4.3-11.7c0.1-0.2,0.1-0.3,0.3-0.3h1
			c0.2,0,0.3,0.1,0.3,0.3l4.4,11.9C232.5,112.8,232.5,112.9,232.5,113z M229.5,108.6l-2.3-6.4l-2.3,6.4H229.5z"/>
		<path class="st1" d="M243.7,100.9v12c0,0.2-0.1,0.3-0.3,0.3h-0.6c-0.1,0-0.3,0-0.5-0.3l-6.3-10v10c0,0.2-0.1,0.3-0.3,0.3H235
			c-0.2,0-0.3-0.1-0.3-0.3v-12c0-0.2,0.1-0.3,0.3-0.3h0.9c0.2,0,0.3,0.1,0.3,0.3l6.2,9.8v-9.7c0-0.2,0.1-0.3,0.3-0.3h0.7
			C243.6,100.6,243.7,100.7,243.7,100.9z"/>
		<path class="st1" d="M253.5,103.7c-0.1-1.1-0.6-2.1-2.7-2.1c-1.6,0-2.8,0.4-2.8,2.1c0,3.6,7.1,1.4,7.1,6.1c0,2.6-2.2,3.5-4.3,3.5
			c-3.4,0-4.6-2.4-4.6-3.9c0-0.2,0.1-0.3,0.3-0.3h0.8c0.2,0,0.3,0.1,0.3,0.3c0,0.8,0.6,2.6,3.2,2.6c1.7,0,3-0.6,3-2.3
			c0-3.3-7.1-1.2-7.1-6.1c0-2.3,1.7-3.3,4.2-3.3c3.2,0,4,2,4,3.3c0,0.2-0.1,0.3-0.3,0.3h-0.8C253.7,104,253.6,103.9,253.5,103.7z"/>
		<path class="st1" d="M257.8,112.9v-12c0-0.2,0.1-0.3,0.3-0.3h0.8c0.2,0,0.3,0.1,0.3,0.3v12c0,0.2-0.1,0.3-0.3,0.3h-0.8
			C257.9,113.2,257.8,113.1,257.8,112.9z"/>
		<path class="st1" d="M266.6,100.4c2.6,0,4.6,1.9,4.6,4.9v3.1c0,3-2,4.9-4.6,4.9c-2.6,0-4.6-1.9-4.6-4.9v-3.1
			C262,102.3,264,100.4,266.6,100.4z M266.6,112.1c1.8,0,3.2-1.3,3.2-3.6v-3.1c0-2.3-1.5-3.7-3.3-3.7c-1.8,0-3.2,1.4-3.2,3.7v3.1
			C263.4,110.7,264.8,112.1,266.6,112.1z"/>
		<path class="st1" d="M283.1,100.9v12c0,0.2-0.1,0.3-0.3,0.3h-0.6c-0.1,0-0.3,0-0.5-0.3l-6.3-10v10c0,0.2-0.1,0.3-0.3,0.3h-0.7
			c-0.2,0-0.3-0.1-0.3-0.3v-12c0-0.2,0.1-0.3,0.3-0.3h0.9c0.2,0,0.3,0.1,0.3,0.3l6.2,9.8v-9.7c0-0.2,0.1-0.3,0.3-0.3h0.7
			C283,100.6,283.1,100.7,283.1,100.9z"/>
	</g>
</g>
<g>
	<g>
		<path class="st1" d="M183.3,193.3c-0.1,2.2-1.9,4.2-4.5,4.2c-2.6,0-4.6-1.9-4.6-4.9v-3.1c0-3,2-4.9,4.6-4.9c2.6,0,4.2,1.8,4.5,4
			c0,0.2-0.1,0.3-0.3,0.3h-0.9c-0.1,0-0.2-0.1-0.2-0.3c-0.2-1.5-1.3-2.7-3.1-2.7s-3.2,1.3-3.2,3.6v3.1c0,2.3,1.5,3.6,3.3,3.6
			c1.8,0,2.9-1.2,3.1-2.9c0-0.1,0.1-0.2,0.2-0.2h1C183.2,193,183.3,193.1,183.3,193.3z"/>
		<path class="st1" d="M190.2,184.5c2.6,0,4.6,1.9,4.6,4.9v3.1c0,3-2,4.9-4.6,4.9c-2.6,0-4.6-1.9-4.6-4.9v-3.1
			C185.6,186.4,187.6,184.5,190.2,184.5z M190.2,196.2c1.8,0,3.2-1.3,3.2-3.6v-3.1c0-2.3-1.5-3.7-3.3-3.7c-1.8,0-3.2,1.4-3.2,3.7
			v3.1C186.9,194.8,188.4,196.2,190.2,196.2z"/>
		<path class="st1" d="M206.7,185v12c0,0.2-0.1,0.3-0.3,0.3h-0.6c-0.1,0-0.3,0-0.5-0.3l-6.3-10v10c0,0.2-0.1,0.3-0.3,0.3h-0.7
			c-0.2,0-0.3-0.1-0.3-0.3v-12c0-0.2,0.1-0.3,0.3-0.3h0.9c0.2,0,0.3,0.1,0.3,0.3l6.2,9.8V185c0-0.2,0.1-0.3,0.3-0.3h0.7
			C206.5,184.7,206.7,184.8,206.7,185z"/>
		<path class="st1" d="M216.5,187.8c-0.1-1.1-0.6-2.1-2.7-2.1c-1.6,0-2.8,0.4-2.8,2.1c0,3.6,7.1,1.4,7.1,6.1c0,2.6-2.2,3.5-4.3,3.5
			c-3.4,0-4.6-2.4-4.6-3.9c0-0.2,0.1-0.3,0.3-0.3h0.8c0.2,0,0.3,0.1,0.3,0.3c0,0.8,0.6,2.6,3.2,2.6c1.7,0,3-0.6,3-2.3
			c0-3.3-7.1-1.2-7.1-6.1c0-2.3,1.7-3.3,4.2-3.3c3.2,0,4,2,4,3.3c0,0.2-0.1,0.3-0.3,0.3h-0.8C216.6,188.1,216.5,188,216.5,187.8z"/>
		<path class="st1" d="M219.5,185.7V185c0-0.2,0.1-0.3,0.3-0.3h8.9c0.2,0,0.3,0.1,0.3,0.3v0.7c0,0.2-0.1,0.3-0.3,0.3h-3.8v11
			c0,0.2-0.1,0.3-0.3,0.3h-0.8c-0.2,0-0.3-0.1-0.3-0.3v-11h-3.8C219.6,186,219.5,185.8,219.5,185.7z"/>
		<path class="st1" d="M232.1,197.3h-0.8c-0.2,0-0.3-0.1-0.3-0.3v-12c0-0.2,0.1-0.3,0.3-0.3h4.3c2.3,0,3.9,1.2,3.9,3.6v0.3
			c0,1.6-0.9,2.9-2.7,3.4l2.6,4.8c0.1,0.1,0.1,0.2,0.1,0.3c0,0.1-0.1,0.2-0.2,0.2h-1c-0.2,0-0.3-0.1-0.3-0.3l-2.5-4.9h-3v4.8
			C232.4,197.2,232.3,197.3,232.1,197.3z M235.6,190.9c1.4,0,2.6-0.7,2.6-2.3v-0.3c0-1.8-1.2-2.3-2.6-2.3h-3.2v4.9H235.6z"/>
		<path class="st1" d="M249.8,184.7h0.8c0.2,0,0.3,0.1,0.3,0.3v7.6c0,3-1.8,4.9-4.4,4.9s-4.4-1.9-4.4-4.9V185c0-0.2,0.1-0.3,0.3-0.3
			h0.8c0.2,0,0.3,0.1,0.3,0.3v7.6c0,2.3,1.3,3.6,3.1,3.6c1.8,0,3.1-1.3,3.1-3.6V185C249.5,184.8,249.7,184.7,249.8,184.7z"/>
		<path class="st1" d="M262.7,193.3c-0.1,2.2-1.9,4.2-4.5,4.2c-2.6,0-4.6-1.9-4.6-4.9v-3.1c0-3,2-4.9,4.6-4.9c2.6,0,4.2,1.8,4.5,4
			c0,0.2-0.1,0.3-0.3,0.3h-0.9c-0.1,0-0.2-0.1-0.2-0.3c-0.2-1.5-1.3-2.7-3.1-2.7c-1.8,0-3.2,1.3-3.2,3.6v3.1c0,2.3,1.5,3.6,3.3,3.6
			c1.8,0,2.9-1.2,3.1-2.9c0-0.1,0.1-0.2,0.2-0.2h1C262.6,193,262.7,193.1,262.7,193.3z"/>
		<path class="st1" d="M264,185.7V185c0-0.2,0.1-0.3,0.3-0.3h8.9c0.2,0,0.3,0.1,0.3,0.3v0.7c0,0.2-0.1,0.3-0.3,0.3h-3.8v11
			c0,0.2-0.1,0.3-0.3,0.3h-0.8c-0.2,0-0.3-0.1-0.3-0.3v-11h-3.8C264.1,186,264,185.8,264,185.7z"/>
		<path class="st1" d="M275.6,197v-12c0-0.2,0.1-0.3,0.3-0.3h0.8c0.2,0,0.3,0.1,0.3,0.3v12c0,0.2-0.1,0.3-0.3,0.3h-0.8
			C275.7,197.3,275.6,197.2,275.6,197z"/>
		<path class="st1" d="M284.4,184.5c2.6,0,4.6,1.9,4.6,4.9v3.1c0,3-2,4.9-4.6,4.9c-2.6,0-4.6-1.9-4.6-4.9v-3.1
			C279.8,186.4,281.8,184.5,284.4,184.5z M284.4,196.2c1.8,0,3.2-1.3,3.2-3.6v-3.1c0-2.3-1.5-3.7-3.3-3.7s-3.2,1.4-3.2,3.7v3.1
			C281.2,194.8,282.6,196.2,284.4,196.2z"/>
		<path class="st1" d="M300.9,185v12c0,0.2-0.1,0.3-0.3,0.3H300c-0.1,0-0.3,0-0.5-0.3l-6.3-10v10c0,0.2-0.1,0.3-0.3,0.3h-0.7
			c-0.2,0-0.3-0.1-0.3-0.3v-12c0-0.2,0.1-0.3,0.3-0.3h0.9c0.2,0,0.3,0.1,0.3,0.3l6.2,9.8V185c0-0.2,0.1-0.3,0.3-0.3h0.7
			C300.8,184.7,300.9,184.8,300.9,185z"/>
		<path class="st1" d="M191,206.6v12c0,0.2-0.1,0.3-0.3,0.3H190c-0.2,0-0.3-0.1-0.3-0.3v-10.4l-4,10.5c-0.1,0.1-0.2,0.2-0.3,0.2
			h-0.7c-0.2,0-0.2-0.1-0.3-0.2l-4-10.5v10.4c0,0.2-0.1,0.3-0.3,0.3h-0.7c-0.2,0-0.3-0.1-0.3-0.3v-12c0-0.2,0.1-0.3,0.3-0.3h1.4
			c0.1,0,0.2,0.1,0.3,0.2l4,10.5l4-10.5c0.1-0.1,0.1-0.2,0.3-0.2h1.4C190.9,206.3,191,206.4,191,206.6z"/>
		<path class="st1" d="M203.6,218.7c0,0.1-0.1,0.2-0.2,0.2h-0.9c-0.2,0-0.3-0.1-0.3-0.2l-1.1-3.2h-5.5l-1.1,3.2
			c-0.1,0.2-0.2,0.2-0.3,0.2h-0.9c-0.1,0-0.2-0.1-0.2-0.2c0-0.1,0.1-0.2,0.1-0.4l4.3-11.7c0.1-0.2,0.1-0.3,0.3-0.3h1
			c0.2,0,0.3,0.1,0.3,0.3l4.4,11.9C203.6,218.5,203.6,218.6,203.6,218.7z M200.6,214.3l-2.3-6.4l-2.3,6.4H200.6z"/>
		<path class="st1" d="M214.8,206.6v12c0,0.2-0.1,0.3-0.3,0.3h-0.6c-0.1,0-0.3,0-0.5-0.3l-6.3-10v10c0,0.2-0.1,0.3-0.3,0.3h-0.7
			c-0.2,0-0.3-0.1-0.3-0.3v-12c0-0.2,0.1-0.3,0.3-0.3h0.9c0.2,0,0.3,0.1,0.3,0.3l6.2,9.8v-9.7c0-0.2,0.1-0.3,0.3-0.3h0.7
			C214.7,206.3,214.8,206.4,214.8,206.6z"/>
		<path class="st1" d="M227.5,218.7c0,0.1-0.1,0.2-0.2,0.2h-0.9c-0.2,0-0.3-0.1-0.3-0.2l-1.1-3.2h-5.5l-1.1,3.2
			c-0.1,0.2-0.2,0.2-0.3,0.2h-0.9c-0.1,0-0.2-0.1-0.2-0.2c0-0.1,0.1-0.2,0.1-0.4l4.3-11.7c0.1-0.2,0.1-0.3,0.3-0.3h1
			c0.2,0,0.3,0.1,0.3,0.3l4.4,11.9C227.4,218.5,227.5,218.6,227.5,218.7z M224.5,214.3l-2.3-6.4l-2.3,6.4H224.5z"/>
		<path class="st1" d="M233.3,213.4v-0.6c0-0.2,0.1-0.3,0.3-0.3h4.1c0.2,0,0.3,0.1,0.3,0.3v5.8c0,0.2-0.1,0.3-0.3,0.3h-0.6
			c-0.2,0-0.3-0.1-0.3-0.3v-1.3c-0.6,1.1-1.9,1.7-3.3,1.7c-2.9,0-4.6-2.2-4.6-4.9V211c0-3,2-4.9,4.6-4.9s4.1,1.7,4.5,3.8
			c0,0.1,0,0.2,0,0.3c0,0.1-0.1,0.2-0.2,0.2h-1c-0.1,0-0.2-0.1-0.2-0.3c-0.2-1.3-1.2-2.7-3.2-2.7c-1.8,0-3.3,1.4-3.3,3.7v3.1
			c0,2.3,1.5,3.6,3.3,3.6c2.2,0,3.2-1.9,3.2-3.1v-0.9h-3.1C233.4,213.7,233.3,213.6,233.3,213.4z"/>
		<path class="st1" d="M248.6,207.6h-6.1v4.3h4.9c0.2,0,0.3,0.1,0.3,0.3v0.7c0,0.2-0.1,0.3-0.3,0.3h-4.9v4.5h6.1
			c0.2,0,0.3,0.1,0.3,0.3v0.7c0,0.2-0.1,0.3-0.3,0.3h-7.2c-0.2,0-0.3-0.1-0.3-0.3v-12c0-0.2,0.1-0.3,0.3-0.3h7.2
			c0.2,0,0.3,0.1,0.3,0.3v0.7C248.9,207.4,248.8,207.6,248.6,207.6z"/>
		<path class="st1" d="M263.4,206.6v12c0,0.2-0.1,0.3-0.3,0.3h-0.7c-0.2,0-0.3-0.1-0.3-0.3v-10.4l-4,10.5c-0.1,0.1-0.2,0.2-0.3,0.2
			h-0.7c-0.2,0-0.2-0.1-0.3-0.2l-4-10.5v10.4c0,0.2-0.1,0.3-0.3,0.3h-0.7c-0.2,0-0.3-0.1-0.3-0.3v-12c0-0.2,0.1-0.3,0.3-0.3h1.4
			c0.1,0,0.2,0.1,0.3,0.2l4,10.5l4-10.5c0.1-0.1,0.1-0.2,0.3-0.2h1.4C263.3,206.3,263.4,206.4,263.4,206.6z"/>
		<path class="st1" d="M274.1,207.6H268v4.3h4.9c0.2,0,0.3,0.1,0.3,0.3v0.7c0,0.2-0.1,0.3-0.3,0.3H268v4.5h6.1
			c0.2,0,0.3,0.1,0.3,0.3v0.7c0,0.2-0.1,0.3-0.3,0.3h-7.2c-0.2,0-0.3-0.1-0.3-0.3v-12c0-0.2,0.1-0.3,0.3-0.3h7.2
			c0.2,0,0.3,0.1,0.3,0.3v0.7C274.4,207.4,274.3,207.6,274.1,207.6z"/>
		<path class="st1" d="M286,206.6v12c0,0.2-0.1,0.3-0.3,0.3h-0.6c-0.1,0-0.3,0-0.5-0.3l-6.3-10v10c0,0.2-0.1,0.3-0.3,0.3h-0.7
			c-0.2,0-0.3-0.1-0.3-0.3v-12c0-0.2,0.1-0.3,0.3-0.3h0.9c0.2,0,0.3,0.1,0.3,0.3l6.2,9.8v-9.7c0-0.2,0.1-0.3,0.3-0.3h0.7
			C285.9,206.3,286,206.4,286,206.6z"/>
		<path class="st1" d="M288.1,207.3v-0.7c0-0.2,0.1-0.3,0.3-0.3h8.9c0.2,0,0.3,0.1,0.3,0.3v0.7c0,0.2-0.1,0.3-0.3,0.3h-3.8v11
			c0,0.2-0.1,0.3-0.3,0.3h-0.8c-0.2,0-0.3-0.1-0.3-0.3v-11h-3.8C288.2,207.6,288.1,207.4,288.1,207.3z"/>
	</g>
</g>
<g>
	<g>
		<path class="st1" d="M194.4,302.1v-0.6c0-0.2,0.1-0.3,0.3-0.3h4.1c0.2,0,0.3,0.1,0.3,0.3v5.8c0,0.2-0.1,0.3-0.3,0.3h-0.6
			c-0.2,0-0.3-0.1-0.3-0.3V306c-0.6,1.1-1.9,1.7-3.3,1.7c-2.9,0-4.6-2.2-4.6-4.9v-3.1c0-3,2-4.9,4.6-4.9s4.1,1.7,4.5,3.8
			c0,0.1,0,0.2,0,0.3c0,0.1-0.1,0.2-0.2,0.2h-1c-0.1,0-0.2-0.1-0.2-0.3c-0.2-1.3-1.2-2.7-3.2-2.7c-1.8,0-3.3,1.4-3.3,3.7v3.1
			c0,2.3,1.5,3.6,3.3,3.6c2.2,0,3.2-1.9,3.2-3.1v-0.9h-3.1C194.6,302.4,194.4,302.3,194.4,302.1z"/>
		<path class="st1" d="M209.7,296.2h-6.1v4.3h4.9c0.2,0,0.3,0.1,0.3,0.3v0.7c0,0.2-0.1,0.3-0.3,0.3h-4.9v4.5h6.1
			c0.2,0,0.3,0.1,0.3,0.3v0.7c0,0.2-0.1,0.3-0.3,0.3h-7.2c-0.2,0-0.3-0.1-0.3-0.3v-12c0-0.2,0.1-0.3,0.3-0.3h7.2
			c0.2,0,0.3,0.1,0.3,0.3v0.7C210,296.1,209.9,296.2,209.7,296.2z"/>
		<path class="st1" d="M221.6,295.3v12c0,0.2-0.1,0.3-0.3,0.3h-0.6c-0.1,0-0.3,0-0.5-0.3l-6.3-10v10c0,0.2-0.1,0.3-0.3,0.3h-0.7
			c-0.2,0-0.3-0.1-0.3-0.3v-12c0-0.2,0.1-0.3,0.3-0.3h0.9c0.2,0,0.3,0.1,0.3,0.3l6.2,9.8v-9.7c0-0.2,0.1-0.3,0.3-0.3h0.7
			C221.5,294.9,221.6,295.1,221.6,295.3z"/>
		<path class="st1" d="M232.3,296.2h-6.1v4.3h4.9c0.2,0,0.3,0.1,0.3,0.3v0.7c0,0.2-0.1,0.3-0.3,0.3h-4.9v4.5h6.1
			c0.2,0,0.3,0.1,0.3,0.3v0.7c0,0.2-0.1,0.3-0.3,0.3h-7.2c-0.2,0-0.3-0.1-0.3-0.3v-12c0-0.2,0.1-0.3,0.3-0.3h7.2
			c0.2,0,0.3,0.1,0.3,0.3v0.7C232.6,296.1,232.5,296.2,232.3,296.2z"/>
		<path class="st1" d="M234,295.9v-0.7c0-0.2,0.1-0.3,0.3-0.3h8.9c0.2,0,0.3,0.1,0.3,0.3v0.7c0,0.2-0.1,0.3-0.3,0.3h-3.8v11
			c0,0.2-0.1,0.3-0.3,0.3h-0.8c-0.2,0-0.3-0.1-0.3-0.3v-11h-3.8C234.1,296.2,234,296.1,234,295.9z"/>
		<path class="st1" d="M245.6,307.2v-12c0-0.2,0.1-0.3,0.3-0.3h0.8c0.2,0,0.3,0.1,0.3,0.3v12c0,0.2-0.1,0.3-0.3,0.3h-0.8
			C245.7,307.6,245.6,307.4,245.6,307.2z"/>
		<path class="st1" d="M258.9,303.5c-0.1,2.2-1.9,4.2-4.5,4.2c-2.6,0-4.6-1.9-4.6-4.9v-3.1c0-3,2-4.9,4.6-4.9c2.6,0,4.2,1.8,4.5,4
			c0,0.2-0.1,0.3-0.3,0.3h-0.9c-0.1,0-0.2-0.1-0.2-0.3c-0.2-1.5-1.3-2.7-3.1-2.7c-1.8,0-3.2,1.3-3.2,3.6v3.1c0,2.3,1.5,3.6,3.3,3.6
			c1.8,0,2.9-1.2,3.1-2.9c0-0.1,0.1-0.2,0.2-0.2h1C258.8,303.3,258.9,303.4,258.9,303.5z"/>
		<path class="st1" d="M268.2,298.1c-0.1-1.1-0.6-2.1-2.7-2.1c-1.6,0-2.8,0.4-2.8,2.1c0,3.6,7.1,1.4,7.1,6.1c0,2.6-2.2,3.5-4.3,3.5
			c-3.4,0-4.6-2.4-4.6-3.9c0-0.2,0.1-0.3,0.3-0.3h0.8c0.2,0,0.3,0.1,0.3,0.3c0,0.8,0.6,2.6,3.2,2.6c1.7,0,3-0.6,3-2.3
			c0-3.3-7.1-1.2-7.1-6.1c0-2.3,1.7-3.3,4.2-3.3c3.2,0,4,2,4,3.3c0,0.2-0.1,0.3-0.3,0.3h-0.8C268.3,298.4,268.2,298.2,268.2,298.1z"
			/>
		<path class="st1" d="M280.4,307.7c-3.1,0-4.1-1.9-4.1-3.4c0-1.7,1.1-2.7,2.4-3.5c-0.6-0.7-1.5-1.7-1.5-3.1c0-2.2,1.8-2.9,3.3-2.9
			c1.9,0,3.1,1.3,3.1,2.9c0,1.7-1.5,2.6-3,3.4l3,3.3c0.5-1,0.5-2.3,0.5-3c0-0.2,0.1-0.3,0.3-0.3h0.7c0.2,0,0.3,0.1,0.3,0.3
			c0,0.8-0.1,2.5-0.9,4l1.5,1.6c0.1,0.1,0.2,0.2,0.2,0.3c0,0.1-0.1,0.2-0.2,0.2h-1c-0.1,0-0.2-0.1-0.3-0.1l-0.9-1
			C282.9,307.2,281.8,307.7,280.4,307.7z M279.5,301.7c-1.1,0.7-1.9,1.4-1.9,2.6c0,1.1,0.7,2.2,2.8,2.2c1.1,0,1.9-0.4,2.4-1
			L279.5,301.7z M282.2,297.7c0-1.2-0.8-1.7-1.8-1.7c-1.5,0-2,0.8-2,1.7c0,0.9,0.4,1.5,1.3,2.5C281,299.5,282.2,298.9,282.2,297.7z"
			/>
		<path class="st1" d="M195.3,325.1c-0.1,2.2-1.9,4.2-4.5,4.2c-2.6,0-4.6-1.9-4.6-4.9v-3.1c0-3,2-4.9,4.6-4.9c2.6,0,4.2,1.8,4.5,4
			c0,0.2-0.1,0.3-0.3,0.3h-0.9c-0.1,0-0.2-0.1-0.2-0.3c-0.2-1.5-1.3-2.7-3.1-2.7c-1.8,0-3.2,1.3-3.2,3.6v3.1c0,2.3,1.5,3.6,3.3,3.6
			c1.8,0,2.9-1.2,3.1-2.9c0-0.1,0.1-0.2,0.2-0.2h1C195.2,324.9,195.3,325,195.3,325.1z"/>
		<path class="st1" d="M205.6,316.5h0.8c0.2,0,0.3,0.1,0.3,0.3v7.6c0,3-1.8,4.9-4.4,4.9s-4.4-1.9-4.4-4.9v-7.6
			c0-0.2,0.1-0.3,0.3-0.3h0.8c0.2,0,0.3,0.1,0.3,0.3v7.6c0,2.3,1.3,3.6,3.1,3.6c1.8,0,3.1-1.3,3.1-3.6v-7.6
			C205.3,316.7,205.5,316.5,205.6,316.5z"/>
		<path class="st1" d="M217.3,329.2H210c-0.2,0-0.3-0.1-0.3-0.3v-12c0-0.2,0.1-0.3,0.3-0.3h0.8c0.2,0,0.3,0.1,0.3,0.3v11h6.2
			c0.2,0,0.3,0.1,0.3,0.3v0.7C217.6,329,217.5,329.2,217.3,329.2z"/>
		<path class="st1" d="M216.9,317.5v-0.7c0-0.2,0.1-0.3,0.3-0.3h8.9c0.2,0,0.3,0.1,0.3,0.3v0.7c0,0.2-0.1,0.3-0.3,0.3h-3.8v11
			c0,0.2-0.1,0.3-0.3,0.3h-0.8c-0.2,0-0.3-0.1-0.3-0.3v-11h-3.8C217.1,317.8,216.9,317.7,216.9,317.5z"/>
		<path class="st1" d="M228.5,328.8v-12c0-0.2,0.1-0.3,0.3-0.3h0.8c0.2,0,0.3,0.1,0.3,0.3v12c0,0.2-0.1,0.3-0.3,0.3h-0.8
			C228.7,329.2,228.5,329,228.5,328.8z"/>
		<path class="st1" d="M242.5,316.7c0,0.1-0.1,0.3-0.1,0.4l-4.4,11.8c-0.1,0.1-0.1,0.2-0.3,0.2h-1c-0.1,0-0.2-0.1-0.3-0.2L232,317
			c0,0-0.1-0.2-0.1-0.3c0-0.1,0.1-0.2,0.2-0.2h0.9c0.2,0,0.3,0.1,0.4,0.4l3.8,10.6l3.8-10.6c0.1-0.2,0.1-0.3,0.3-0.3h0.9
			C242.4,316.5,242.5,316.6,242.5,316.7z"/>
		<path class="st1" d="M252.6,329c0,0.1-0.1,0.2-0.2,0.2h-0.9c-0.2,0-0.3-0.1-0.3-0.2l-1.1-3.2h-5.5l-1.1,3.2
			c-0.1,0.2-0.2,0.2-0.3,0.2h-0.9c-0.1,0-0.2-0.1-0.2-0.2c0-0.1,0.1-0.2,0.1-0.4l4.3-11.7c0.1-0.2,0.1-0.3,0.3-0.3h1
			c0.2,0,0.3,0.1,0.3,0.3l4.4,11.9C252.5,328.8,252.6,328.9,252.6,329z M249.6,324.5l-2.3-6.4l-2.3,6.4H249.6z"/>
		<path class="st1" d="M252,317.5v-0.7c0-0.2,0.1-0.3,0.3-0.3h8.9c0.2,0,0.3,0.1,0.3,0.3v0.7c0,0.2-0.1,0.3-0.3,0.3h-3.8v11
			c0,0.2-0.1,0.3-0.3,0.3h-0.8c-0.2,0-0.3-0.1-0.3-0.3v-11h-3.8C252.1,317.8,252,317.7,252,317.5z"/>
		<path class="st1" d="M263.6,328.8v-12c0-0.2,0.1-0.3,0.3-0.3h0.8c0.2,0,0.3,0.1,0.3,0.3v12c0,0.2-0.1,0.3-0.3,0.3h-0.8
			C263.7,329.2,263.6,329,263.6,328.8z"/>
		<path class="st1" d="M272.4,316.4c2.6,0,4.6,1.9,4.6,4.9v3.1c0,3-2,4.9-4.6,4.9c-2.6,0-4.6-1.9-4.6-4.9v-3.1
			C267.8,318.3,269.8,316.4,272.4,316.4z M272.4,328.1c1.8,0,3.2-1.3,3.2-3.6v-3.1c0-2.3-1.5-3.7-3.3-3.7c-1.8,0-3.2,1.4-3.2,3.7
			v3.1C269.2,326.7,270.6,328.1,272.4,328.1z"/>
		<path class="st1" d="M288.9,316.9v12c0,0.2-0.1,0.3-0.3,0.3H288c-0.1,0-0.3,0-0.5-0.3l-6.3-10v10c0,0.2-0.1,0.3-0.3,0.3h-0.7
			c-0.2,0-0.3-0.1-0.3-0.3v-12c0-0.2,0.1-0.3,0.3-0.3h0.9c0.2,0,0.3,0.1,0.3,0.3l6.2,9.8v-9.7c0-0.2,0.1-0.3,0.3-0.3h0.7
			C288.8,316.5,288.9,316.7,288.9,316.9z"/>
		<path class="st1" d="M202.1,339.4H196v4.3h4.9c0.2,0,0.3,0.1,0.3,0.3v0.7c0,0.2-0.1,0.3-0.3,0.3H196v4.5h6.1
			c0.2,0,0.3,0.1,0.3,0.3v0.7c0,0.2-0.1,0.3-0.3,0.3H195c-0.2,0-0.3-0.1-0.3-0.3v-12c0-0.2,0.1-0.3,0.3-0.3h7.2
			c0.2,0,0.3,0.1,0.3,0.3v0.7C202.4,339.3,202.3,339.4,202.1,339.4z"/>
		<path class="st1" d="M213.4,350.6c0,0.1-0.1,0.2-0.2,0.2h-0.9c-0.3,0-0.4-0.1-0.5-0.3l-3.2-5l-3.2,5c-0.1,0.1-0.2,0.3-0.4,0.3
			h-0.9c-0.1,0-0.2-0.1-0.2-0.2c0-0.1,0-0.2,0.1-0.3l3.8-5.9l-3.7-5.7c-0.1-0.1-0.2-0.3-0.2-0.4c0-0.1,0.1-0.2,0.2-0.2h1
			c0.2,0,0.3,0.1,0.4,0.3l3.2,4.9l3.2-4.9c0.1-0.2,0.2-0.3,0.4-0.3h0.9c0.1,0,0.2,0.1,0.2,0.2c0,0.1-0.1,0.3-0.1,0.3l-3.8,5.7
			l3.8,5.8C213.4,350.3,213.4,350.4,213.4,350.6z"/>
		<path class="st1" d="M220.2,346H217v4.4c0,0.2-0.1,0.3-0.3,0.3h-0.8c-0.2,0-0.3-0.1-0.3-0.3v-12c0-0.2,0.1-0.3,0.3-0.3h4.3
			c2.3,0,3.9,1.3,3.9,3.7v0.4C224.1,344.6,222.5,346,220.2,346z M217,339.4v5.3h3.2c1.4,0,2.6-0.8,2.6-2.5v-0.4
			c0-1.8-1.2-2.4-2.6-2.4H217z"/>
		<path class="st1" d="M234,339.4h-6.1v4.3h4.9c0.2,0,0.3,0.1,0.3,0.3v0.7c0,0.2-0.1,0.3-0.3,0.3h-4.9v4.5h6.1
			c0.2,0,0.3,0.1,0.3,0.3v0.7c0,0.2-0.1,0.3-0.3,0.3h-7.2c-0.2,0-0.3-0.1-0.3-0.3v-12c0-0.2,0.1-0.3,0.3-0.3h7.2
			c0.2,0,0.3,0.1,0.3,0.3v0.7C234.3,339.3,234.2,339.4,234,339.4z"/>
		<path class="st1" d="M237.9,350.8h-0.8c-0.2,0-0.3-0.1-0.3-0.3v-12c0-0.2,0.1-0.3,0.3-0.3h4.3c2.3,0,3.9,1.2,3.9,3.6v0.3
			c0,1.6-0.9,2.9-2.7,3.4l2.6,4.8c0.1,0.1,0.1,0.2,0.1,0.3c0,0.1-0.1,0.2-0.2,0.2h-1c-0.2,0-0.3-0.1-0.3-0.3l-2.5-4.9h-3v4.8
			C238.2,350.6,238,350.8,237.9,350.8z M241.3,344.4c1.4,0,2.6-0.7,2.6-2.3v-0.3c0-1.8-1.2-2.3-2.6-2.3h-3.2v4.9H241.3z"/>
		<path class="st1" d="M246.7,339.1v-0.7c0-0.2,0.1-0.3,0.3-0.3h8.9c0.2,0,0.3,0.1,0.3,0.3v0.7c0,0.2-0.1,0.3-0.3,0.3h-3.8v11
			c0,0.2-0.1,0.3-0.3,0.3h-0.8c-0.2,0-0.3-0.1-0.3-0.3v-11H247C246.8,339.4,246.7,339.3,246.7,339.1z"/>
		<path class="st1" d="M258.3,350.4v-12c0-0.2,0.1-0.3,0.3-0.3h0.8c0.2,0,0.3,0.1,0.3,0.3v12c0,0.2-0.1,0.3-0.3,0.3h-0.8
			C258.4,350.8,258.3,350.6,258.3,350.4z"/>
		<path class="st1" d="M269.5,341.3c-0.1-1.1-0.6-2.1-2.7-2.1c-1.6,0-2.8,0.4-2.8,2.1c0,3.6,7.1,1.4,7.1,6.1c0,2.6-2.2,3.5-4.3,3.5
			c-3.4,0-4.6-2.4-4.6-3.9c0-0.2,0.1-0.3,0.3-0.3h0.8c0.2,0,0.3,0.1,0.3,0.3c0,0.8,0.6,2.6,3.2,2.6c1.7,0,3-0.6,3-2.3
			c0-3.3-7.1-1.2-7.1-6.1c0-2.3,1.7-3.3,4.2-3.3c3.2,0,4,2,4,3.3c0,0.2-0.1,0.3-0.3,0.3h-0.8C269.6,341.6,269.5,341.4,269.5,341.3z"
			/>
		<path class="st1" d="M281.2,339.4h-6.1v4.3h4.9c0.2,0,0.3,0.1,0.3,0.3v0.7c0,0.2-0.1,0.3-0.3,0.3h-4.9v4.5h6.1
			c0.2,0,0.3,0.1,0.3,0.3v0.7c0,0.2-0.1,0.3-0.3,0.3H274c-0.2,0-0.3-0.1-0.3-0.3v-12c0-0.2,0.1-0.3,0.3-0.3h7.2
			c0.2,0,0.3,0.1,0.3,0.3v0.7C281.5,339.3,281.4,339.4,281.2,339.4z"/>
	</g>
</g>
<g>
	<g>
		<path class="st1" d="M177.8,560v0.2c0,2.6-2.1,3.4-4.2,3.4h-4.3c-0.2,0-0.3-0.1-0.3-0.3v-12c0-0.2,0.1-0.3,0.3-0.3h4.2
			c2.3,0,4,0.9,4,3.2v0.3c0,1.2-0.6,2.1-1.7,2.6C177.1,557.6,177.8,558.7,177.8,560z M170.4,556.5h3.3c1.3,0,2.5-0.4,2.5-1.9v-0.3
			c0-1.6-1.3-1.9-2.6-1.9h-3.1V556.5z M176.5,560c0-1.7-1.4-2.3-2.8-2.3h-3.3v4.6h3.3c1.4,0,2.8-0.4,2.8-2.1V560z"/>
		<path class="st1" d="M181.5,563.6h-0.8c-0.2,0-0.3-0.1-0.3-0.3v-12c0-0.2,0.1-0.3,0.3-0.3h4.3c2.3,0,3.9,1.2,3.9,3.6v0.3
			c0,1.6-0.9,2.9-2.7,3.4l2.6,4.8c0.1,0.1,0.1,0.2,0.1,0.3c0,0.1-0.1,0.2-0.2,0.2h-1c-0.2,0-0.3-0.1-0.3-0.3l-2.5-4.9h-3v4.8
			C181.9,563.5,181.7,563.6,181.5,563.6z M185,557.2c1.4,0,2.6-0.7,2.6-2.3v-0.3c0-1.8-1.2-2.3-2.6-2.3h-3.2v4.9H185z"/>
		<path class="st1" d="M201,563.4c0,0.1-0.1,0.2-0.2,0.2h-0.9c-0.2,0-0.3-0.1-0.3-0.2l-1.1-3.2h-5.5l-1.1,3.2
			c-0.1,0.2-0.2,0.2-0.3,0.2h-0.9c-0.1,0-0.2-0.1-0.2-0.2c0-0.1,0.1-0.2,0.1-0.4l4.3-11.7c0.1-0.2,0.1-0.3,0.3-0.3h1
			c0.2,0,0.3,0.1,0.3,0.3l4.4,11.9C200.9,563.2,201,563.4,201,563.4z M198,559l-2.3-6.4l-2.3,6.4H198z"/>
		<path class="st1" d="M212.2,551.3v12c0,0.2-0.1,0.3-0.3,0.3h-0.6c-0.1,0-0.3,0-0.5-0.3l-6.3-10v10c0,0.2-0.1,0.3-0.3,0.3h-0.7
			c-0.2,0-0.3-0.1-0.3-0.3v-12c0-0.2,0.1-0.3,0.3-0.3h0.9c0.2,0,0.3,0.1,0.3,0.3l6.2,9.8v-9.7c0-0.2,0.1-0.3,0.3-0.3h0.7
			C212,551,212.2,551.2,212.2,551.3z"/>
		<path class="st1" d="M215.4,563.3v-12c0-0.2,0.1-0.3,0.3-0.3h3.9c2.6,0,4.6,1.9,4.6,4.9v2.8c0,3-2,4.9-4.6,4.9h-3.9
			C215.5,563.6,215.4,563.5,215.4,563.3z M216.8,562.3h2.9c1.8,0,3.2-1.3,3.2-3.6v-2.8c0-2.3-1.5-3.6-3.2-3.6h-2.9V562.3z"/>
		<path class="st1" d="M240.2,560v0.2c0,2.6-2.1,3.4-4.2,3.4h-4.3c-0.2,0-0.3-0.1-0.3-0.3v-12c0-0.2,0.1-0.3,0.3-0.3h4.2
			c2.3,0,4,0.9,4,3.2v0.3c0,1.2-0.6,2.1-1.7,2.6C239.5,557.6,240.2,558.7,240.2,560z M232.7,556.5h3.3c1.3,0,2.5-0.4,2.5-1.9v-0.3
			c0-1.6-1.3-1.9-2.6-1.9h-3.1V556.5z M238.9,560c0-1.7-1.4-2.3-2.8-2.3h-3.3v4.6h3.3c1.4,0,2.8-0.4,2.8-2.1V560z"/>
		<path class="st1" d="M250.5,551h0.8c0.2,0,0.3,0.1,0.3,0.3v7.6c0,3-1.8,4.9-4.4,4.9s-4.4-1.9-4.4-4.9v-7.6c0-0.2,0.1-0.3,0.3-0.3
			h0.8c0.2,0,0.3,0.1,0.3,0.3v7.6c0,2.3,1.3,3.6,3.1,3.6c1.8,0,3.1-1.3,3.1-3.6v-7.6C250.2,551.2,250.3,551,250.5,551z"/>
		<path class="st1" d="M254.6,563.3v-12c0-0.2,0.1-0.3,0.3-0.3h0.8c0.2,0,0.3,0.1,0.3,0.3v12c0,0.2-0.1,0.3-0.3,0.3h-0.8
			C254.7,563.6,254.6,563.5,254.6,563.3z"/>
		<path class="st1" d="M266.8,563.6h-7.3c-0.2,0-0.3-0.1-0.3-0.3v-12c0-0.2,0.1-0.3,0.3-0.3h0.8c0.2,0,0.3,0.1,0.3,0.3v11h6.2
			c0.2,0,0.3,0.1,0.3,0.3v0.7C267.1,563.5,267,563.6,266.8,563.6z"/>
		<path class="st1" d="M269.3,563.3v-12c0-0.2,0.1-0.3,0.3-0.3h3.9c2.6,0,4.6,1.9,4.6,4.9v2.8c0,3-2,4.9-4.6,4.9h-3.9
			C269.4,563.6,269.3,563.5,269.3,563.3z M270.7,562.3h2.9c1.8,0,3.2-1.3,3.2-3.6v-2.8c0-2.3-1.5-3.6-3.2-3.6h-2.9V562.3z"/>
		<path class="st1" d="M281,563.3v-12c0-0.2,0.1-0.3,0.3-0.3h0.8c0.2,0,0.3,0.1,0.3,0.3v12c0,0.2-0.1,0.3-0.3,0.3h-0.8
			C281.1,563.6,281,563.5,281,563.3z"/>
		<path class="st1" d="M294.6,551.3v12c0,0.2-0.1,0.3-0.3,0.3h-0.6c-0.1,0-0.3,0-0.5-0.3l-6.3-10v10c0,0.2-0.1,0.3-0.3,0.3h-0.7
			c-0.2,0-0.3-0.1-0.3-0.3v-12c0-0.2,0.1-0.3,0.3-0.3h0.9c0.2,0,0.3,0.1,0.3,0.3l6.2,9.8v-9.7c0-0.2,0.1-0.3,0.3-0.3h0.7
			C294.5,551,294.6,551.2,294.6,551.3z"/>
		<path class="st1" d="M301.9,558.2v-0.6c0-0.2,0.1-0.3,0.3-0.3h4.1c0.2,0,0.3,0.1,0.3,0.3v5.8c0,0.2-0.1,0.3-0.3,0.3h-0.6
			c-0.2,0-0.3-0.1-0.3-0.3v-1.3c-0.6,1.1-1.9,1.7-3.3,1.7c-2.9,0-4.6-2.2-4.6-4.9v-3.1c0-3,2-4.9,4.6-4.9s4.1,1.7,4.5,3.8
			c0,0.1,0,0.2,0,0.3c0,0.1-0.1,0.2-0.2,0.2h-1c-0.1,0-0.2-0.1-0.2-0.3c-0.2-1.3-1.2-2.7-3.2-2.7c-1.8,0-3.3,1.4-3.3,3.7v3.1
			c0,2.3,1.5,3.6,3.3,3.6c2.3,0,3.2-1.9,3.2-3.1v-0.9h-3.1C302,558.5,301.9,558.3,301.9,558.2z"/>
		<path class="st1" d="M202.1,573.9H196v4.3h4.9c0.2,0,0.3,0.1,0.3,0.3v0.7c0,0.2-0.1,0.3-0.3,0.3H196v4.5h6.1
			c0.2,0,0.3,0.1,0.3,0.3v0.7c0,0.2-0.1,0.3-0.3,0.3H195c-0.2,0-0.3-0.1-0.3-0.3v-12c0-0.2,0.1-0.3,0.3-0.3h7.2
			c0.2,0,0.3,0.1,0.3,0.3v0.7C202.4,573.8,202.3,573.9,202.1,573.9z"/>
		<path class="st1" d="M213.4,585c0,0.1-0.1,0.2-0.2,0.2h-0.9c-0.3,0-0.4-0.1-0.5-0.3l-3.2-5l-3.2,5c-0.1,0.1-0.2,0.3-0.4,0.3h-0.9
			c-0.1,0-0.2-0.1-0.2-0.2c0-0.1,0-0.2,0.1-0.3l3.8-5.9l-3.7-5.7c-0.1-0.1-0.2-0.3-0.2-0.4c0-0.1,0.1-0.2,0.2-0.2h1
			c0.2,0,0.3,0.1,0.4,0.3l3.2,4.9l3.2-4.9c0.1-0.2,0.2-0.3,0.4-0.3h0.9c0.1,0,0.2,0.1,0.2,0.2c0,0.1-0.1,0.3-0.1,0.3l-3.8,5.7
			l3.8,5.8C213.4,584.8,213.4,584.9,213.4,585z"/>
		<path class="st1" d="M220.2,580.5H217v4.4c0,0.2-0.1,0.3-0.3,0.3h-0.8c-0.2,0-0.3-0.1-0.3-0.3v-12c0-0.2,0.1-0.3,0.3-0.3h4.3
			c2.3,0,3.9,1.3,3.9,3.7v0.4C224.1,579,222.5,580.5,220.2,580.5z M217,573.9v5.3h3.2c1.4,0,2.6-0.8,2.6-2.5v-0.4
			c0-1.8-1.2-2.4-2.6-2.4H217z"/>
		<path class="st1" d="M234,573.9h-6.1v4.3h4.9c0.2,0,0.3,0.1,0.3,0.3v0.7c0,0.2-0.1,0.3-0.3,0.3h-4.9v4.5h6.1
			c0.2,0,0.3,0.1,0.3,0.3v0.7c0,0.2-0.1,0.3-0.3,0.3h-7.2c-0.2,0-0.3-0.1-0.3-0.3v-12c0-0.2,0.1-0.3,0.3-0.3h7.2
			c0.2,0,0.3,0.1,0.3,0.3v0.7C234.3,573.8,234.2,573.9,234,573.9z"/>
		<path class="st1" d="M237.9,585.2h-0.8c-0.2,0-0.3-0.1-0.3-0.3v-12c0-0.2,0.1-0.3,0.3-0.3h4.3c2.3,0,3.9,1.2,3.9,3.6v0.3
			c0,1.6-0.9,2.9-2.7,3.4l2.6,4.8c0.1,0.1,0.1,0.2,0.1,0.3c0,0.1-0.1,0.2-0.2,0.2h-1c-0.2,0-0.3-0.1-0.3-0.3l-2.5-4.9h-3v4.8
			C238.2,585.1,238,585.2,237.9,585.2z M241.3,578.8c1.4,0,2.6-0.7,2.6-2.3v-0.3c0-1.8-1.2-2.3-2.6-2.3h-3.2v4.9H241.3z"/>
		<path class="st1" d="M246.7,573.6v-0.7c0-0.2,0.1-0.3,0.3-0.3h8.9c0.2,0,0.3,0.1,0.3,0.3v0.7c0,0.2-0.1,0.3-0.3,0.3h-3.8v11
			c0,0.2-0.1,0.3-0.3,0.3h-0.8c-0.2,0-0.3-0.1-0.3-0.3v-11H247C246.8,573.9,246.7,573.8,246.7,573.6z"/>
		<path class="st1" d="M258.3,584.9v-12c0-0.2,0.1-0.3,0.3-0.3h0.8c0.2,0,0.3,0.1,0.3,0.3v12c0,0.2-0.1,0.3-0.3,0.3h-0.8
			C258.4,585.2,258.3,585.1,258.3,584.9z"/>
		<path class="st1" d="M269.5,575.7c-0.1-1.1-0.6-2.1-2.7-2.1c-1.6,0-2.8,0.4-2.8,2.1c0,3.6,7.1,1.4,7.1,6.1c0,2.6-2.2,3.5-4.3,3.5
			c-3.4,0-4.6-2.4-4.6-3.9c0-0.2,0.1-0.3,0.3-0.3h0.8c0.2,0,0.3,0.1,0.3,0.3c0,0.8,0.6,2.6,3.2,2.6c1.7,0,3-0.6,3-2.3
			c0-3.3-7.1-1.2-7.1-6.1c0-2.3,1.7-3.3,4.2-3.3c3.2,0,4,2,4,3.3c0,0.2-0.1,0.3-0.3,0.3h-0.8C269.6,576,269.5,575.9,269.5,575.7z"/>
		<path class="st1" d="M281.2,573.9h-6.1v4.3h4.9c0.2,0,0.3,0.1,0.3,0.3v0.7c0,0.2-0.1,0.3-0.3,0.3h-4.9v4.5h6.1
			c0.2,0,0.3,0.1,0.3,0.3v0.7c0,0.2-0.1,0.3-0.3,0.3H274c-0.2,0-0.3-0.1-0.3-0.3v-12c0-0.2,0.1-0.3,0.3-0.3h7.2
			c0.2,0,0.3,0.1,0.3,0.3v0.7C281.5,573.8,281.4,573.9,281.2,573.9z"/>
	</g>
</g>
<g>
	<g>
		<path class="st1" d="M210,675.2h-3.2v4.4c0,0.2-0.1,0.3-0.3,0.3h-0.8c-0.2,0-0.3-0.1-0.3-0.3v-12c0-0.2,0.1-0.3,0.3-0.3h4.3
			c2.3,0,3.9,1.3,3.9,3.7v0.4C213.9,673.7,212.3,675.2,210,675.2z M206.8,668.6v5.3h3.2c1.4,0,2.6-0.8,2.6-2.5V671
			c0-1.8-1.2-2.4-2.6-2.4H206.8z"/>
		<path class="st1" d="M224.6,679.7c0,0.1-0.1,0.2-0.2,0.2h-0.9c-0.2,0-0.3-0.1-0.3-0.2l-1.1-3.2h-5.5l-1.1,3.2
			c-0.1,0.2-0.2,0.2-0.3,0.2h-0.9c-0.1,0-0.2-0.1-0.2-0.2c0-0.1,0.1-0.2,0.1-0.4l4.3-11.7c0.1-0.2,0.1-0.3,0.3-0.3h1
			c0.2,0,0.3,0.1,0.3,0.3l4.4,11.9C224.6,679.5,224.6,679.7,224.6,679.7z M221.6,675.3l-2.3-6.4l-2.3,6.4H221.6z"/>
		<path class="st1" d="M224.1,668.3v-0.7c0-0.2,0.1-0.3,0.3-0.3h8.9c0.2,0,0.3,0.1,0.3,0.3v0.7c0,0.2-0.1,0.3-0.3,0.3h-3.8v11
			c0,0.2-0.1,0.3-0.3,0.3h-0.8c-0.2,0-0.3-0.1-0.3-0.3v-11h-3.8C224.2,668.6,224.1,668.5,224.1,668.3z"/>
		<path class="st1" d="M235.7,679.6v-12c0-0.2,0.1-0.3,0.3-0.3h0.8c0.2,0,0.3,0.1,0.3,0.3v12c0,0.2-0.1,0.3-0.3,0.3H236
			C235.8,679.9,235.7,679.8,235.7,679.6z"/>
		<path class="st1" d="M247.7,668.6h-6.1v4.3h4.9c0.2,0,0.3,0.1,0.3,0.3v0.7c0,0.2-0.1,0.3-0.3,0.3h-4.9v4.5h6.1
			c0.2,0,0.3,0.1,0.3,0.3v0.7c0,0.2-0.1,0.3-0.3,0.3h-7.2c-0.2,0-0.3-0.1-0.3-0.3v-12c0-0.2,0.1-0.3,0.3-0.3h7.2
			c0.2,0,0.3,0.1,0.3,0.3v0.7C248,668.5,247.9,668.6,247.7,668.6z"/>
		<path class="st1" d="M259.6,667.6v12c0,0.2-0.1,0.3-0.3,0.3h-0.6c-0.1,0-0.3,0-0.5-0.3l-6.3-10v10c0,0.2-0.1,0.3-0.3,0.3h-0.7
			c-0.2,0-0.3-0.1-0.3-0.3v-12c0-0.2,0.1-0.3,0.3-0.3h0.9c0.2,0,0.3,0.1,0.3,0.3l6.2,9.8v-9.7c0-0.2,0.1-0.3,0.3-0.3h0.7
			C259.5,667.3,259.6,667.5,259.6,667.6z"/>
		<path class="st1" d="M261.7,668.3v-0.7c0-0.2,0.1-0.3,0.3-0.3h8.9c0.2,0,0.3,0.1,0.3,0.3v0.7c0,0.2-0.1,0.3-0.3,0.3h-3.8v11
			c0,0.2-0.1,0.3-0.3,0.3h-0.8c-0.2,0-0.3-0.1-0.3-0.3v-11H262C261.8,668.6,261.7,668.5,261.7,668.3z"/>
		<path class="st1" d="M206.6,696.1v-0.6c0-0.2,0.1-0.3,0.3-0.3h4.1c0.2,0,0.3,0.1,0.3,0.3v5.8c0,0.2-0.1,0.3-0.3,0.3h-0.6
			c-0.2,0-0.3-0.1-0.3-0.3V700c-0.6,1.1-1.9,1.7-3.3,1.7c-2.9,0-4.6-2.2-4.6-4.9v-3.1c0-3,2-4.9,4.6-4.9s4.1,1.7,4.5,3.8
			c0,0.1,0,0.2,0,0.3c0,0.1-0.1,0.2-0.2,0.2h-1c-0.1,0-0.2-0.1-0.2-0.3c-0.2-1.3-1.2-2.7-3.2-2.7c-1.8,0-3.3,1.4-3.3,3.7v3.1
			c0,2.3,1.5,3.6,3.3,3.6c2.3,0,3.2-1.9,3.2-3.1v-0.9h-3.1C206.7,696.4,206.6,696.3,206.6,696.1z"/>
		<path class="st1" d="M215.5,701.5h-0.8c-0.2,0-0.3-0.1-0.3-0.3v-12c0-0.2,0.1-0.3,0.3-0.3h4.3c2.3,0,3.9,1.2,3.9,3.6v0.3
			c0,1.6-0.9,2.9-2.7,3.4l2.6,4.8c0.1,0.1,0.1,0.2,0.1,0.3c0,0.1-0.1,0.2-0.2,0.2h-1c-0.2,0-0.3-0.1-0.3-0.3l-2.5-4.9h-3v4.8
			C215.8,701.4,215.7,701.5,215.5,701.5z M219,695.1c1.3,0,2.6-0.7,2.6-2.3v-0.3c0-1.8-1.2-2.3-2.6-2.3h-3.2v4.9H219z"/>
		<path class="st1" d="M229.8,688.8c2.6,0,4.6,1.9,4.6,4.9v3.1c0,3-2,4.9-4.6,4.9c-2.6,0-4.6-1.9-4.6-4.9v-3.1
			C225.2,690.7,227.2,688.8,229.8,688.8z M229.8,700.4c1.8,0,3.2-1.3,3.2-3.6v-3.1c0-2.3-1.5-3.7-3.3-3.7c-1.8,0-3.2,1.4-3.2,3.7
			v3.1C226.5,699.1,228,700.4,229.8,700.4z"/>
		<path class="st1" d="M251.4,689.1c0,0.1,0,0.1-0.1,0.3l-3.3,11.9c0,0.1-0.1,0.2-0.3,0.2h-1c-0.1,0-0.3-0.1-0.3-0.2l-2.7-10.3
			l-2.7,10.3c0,0.1-0.1,0.2-0.3,0.2h-1c-0.1,0-0.3-0.1-0.3-0.2l-3.3-11.9c0-0.1-0.1-0.2-0.1-0.3c0-0.1,0.1-0.2,0.2-0.2h0.9
			c0.1,0,0.3,0.1,0.3,0.3l2.8,10.4l2.8-10.4c0.1-0.2,0.1-0.3,0.3-0.3h0.9c0.1,0,0.3,0.1,0.3,0.3l2.8,10.4l2.8-10.4
			c0-0.1,0.1-0.3,0.3-0.3h0.9C251.3,688.9,251.4,689,251.4,689.1z"/>
		<path class="st1" d="M252.4,689.9v-0.7c0-0.2,0.1-0.3,0.3-0.3h8.9c0.2,0,0.3,0.1,0.3,0.3v0.7c0,0.2-0.1,0.3-0.3,0.3h-3.8v11
			c0,0.2-0.1,0.3-0.3,0.3h-0.8c-0.2,0-0.3-0.1-0.3-0.3v-11h-3.8C252.5,690.2,252.4,690.1,252.4,689.9z"/>
		<path class="st1" d="M271.5,701.2v-5.5h-6.1v5.5c0,0.2-0.1,0.3-0.3,0.3h-0.8c-0.2,0-0.3-0.1-0.3-0.3v-12c0-0.2,0.1-0.3,0.3-0.3
			h0.8c0.2,0,0.3,0.1,0.3,0.3v5.2h6.1v-5.2c0-0.2,0.1-0.3,0.3-0.3h0.8c0.2,0,0.3,0.1,0.3,0.3v12c0,0.2-0.1,0.3-0.3,0.3h-0.8
			C271.6,701.5,271.5,701.4,271.5,701.2z"/>
	</g>
</g>
<g>
	<g>
		<path class="st1" d="M165.9,786.4h-7.3c-0.2,0-0.3-0.1-0.3-0.3v-12c0-0.2,0.1-0.3,0.3-0.3h0.8c0.2,0,0.3,0.1,0.3,0.3v11h6.2
			c0.2,0,0.3,0.1,0.3,0.3v0.7C166.2,786.3,166.1,786.4,165.9,786.4z"/>
		<path class="st1" d="M175.9,775.1h-6.1v4.3h4.9c0.2,0,0.3,0.1,0.3,0.3v0.7c0,0.2-0.1,0.3-0.3,0.3h-4.9v4.5h6.1
			c0.2,0,0.3,0.1,0.3,0.3v0.7c0,0.2-0.1,0.3-0.3,0.3h-7.2c-0.2,0-0.3-0.1-0.3-0.3v-12c0-0.2,0.1-0.3,0.3-0.3h7.2
			c0.2,0,0.3,0.1,0.3,0.3v0.7C176.2,775,176,775.1,175.9,775.1z"/>
		<path class="st1" d="M182.4,781v-0.6c0-0.2,0.1-0.3,0.3-0.3h4.1c0.2,0,0.3,0.1,0.3,0.3v5.8c0,0.2-0.1,0.3-0.3,0.3h-0.6
			c-0.2,0-0.3-0.1-0.3-0.3v-1.3c-0.6,1.1-1.9,1.7-3.3,1.7c-2.9,0-4.6-2.2-4.6-4.9v-3.1c0-3,2-4.9,4.6-4.9s4.1,1.7,4.5,3.8
			c0,0.1,0,0.2,0,0.3c0,0.1-0.1,0.2-0.2,0.2h-1c-0.1,0-0.2-0.1-0.2-0.3c-0.2-1.3-1.2-2.7-3.2-2.7c-1.8,0-3.3,1.3-3.3,3.7v3.1
			c0,2.3,1.5,3.6,3.3,3.6c2.2,0,3.2-1.9,3.2-3.1v-0.9h-3.1C182.6,781.3,182.4,781.2,182.4,781z"/>
		<path class="st1" d="M199.7,786.2c0,0.1-0.1,0.2-0.2,0.2h-0.9c-0.2,0-0.3-0.1-0.3-0.2l-1.1-3.2h-5.5l-1.1,3.2
			c-0.1,0.2-0.2,0.2-0.3,0.2h-0.9c-0.1,0-0.2-0.1-0.2-0.2c0-0.1,0.1-0.2,0.1-0.4l4.3-11.7c0.1-0.2,0.1-0.3,0.3-0.3h1
			c0.2,0,0.3,0.1,0.3,0.3l4.4,11.9C199.6,786,199.7,786.2,199.7,786.2z M196.7,781.8l-2.3-6.4l-2.3,6.4H196.7z"/>
		<path class="st1" d="M209.4,786.4h-7.3c-0.2,0-0.3-0.1-0.3-0.3v-12c0-0.2,0.1-0.3,0.3-0.3h0.8c0.2,0,0.3,0.1,0.3,0.3v11h6.2
			c0.2,0,0.3,0.1,0.3,0.3v0.7C209.7,786.3,209.6,786.4,209.4,786.4z"/>
		<path class="st1" d="M219.8,786.6c-3.1,0-4.1-1.9-4.1-3.4c0-1.7,1.1-2.7,2.4-3.5c-0.6-0.7-1.5-1.7-1.5-3.1c0-2.2,1.8-2.9,3.3-2.9
			c1.9,0,3.1,1.3,3.1,2.9c0,1.7-1.5,2.6-3,3.4l3,3.3c0.5-1,0.5-2.3,0.5-3c0-0.2,0.1-0.3,0.3-0.3h0.7c0.2,0,0.3,0.1,0.3,0.3
			c0,0.8-0.1,2.5-0.9,4l1.5,1.6c0.1,0.1,0.2,0.2,0.2,0.3c0,0.1-0.1,0.2-0.2,0.2h-1c-0.1,0-0.2-0.1-0.3-0.1l-0.9-1
			C222.3,786.1,221.2,786.6,219.8,786.6z M218.9,780.6c-1.1,0.7-1.9,1.4-1.9,2.6c0,1.1,0.7,2.2,2.8,2.2c1.1,0,1.9-0.4,2.4-1
			L218.9,780.6z M221.7,776.6c0-1.2-0.8-1.7-1.8-1.7c-1.5,0-2,0.8-2,1.7c0,0.9,0.4,1.5,1.3,2.5C220.5,778.4,221.7,777.8,221.7,776.6
			z"/>
		<path class="st1" d="M239.5,775.1h-6.1v4.7h4.9c0.2,0,0.3,0.1,0.3,0.3v0.7c0,0.2-0.1,0.3-0.3,0.3h-4.9v5c0,0.2-0.1,0.3-0.3,0.3
			h-0.8c-0.2,0-0.3-0.1-0.3-0.3v-12c0-0.2,0.1-0.3,0.3-0.3h7.2c0.2,0,0.3,0.1,0.3,0.3v0.7C239.8,775,239.7,775.1,239.5,775.1z"/>
		<path class="st1" d="M242,786.1v-12c0-0.2,0.1-0.3,0.3-0.3h0.8c0.2,0,0.3,0.1,0.3,0.3v12c0,0.2-0.1,0.3-0.3,0.3h-0.8
			C242.2,786.4,242,786.3,242,786.1z"/>
		<path class="st1" d="M255.7,774.1v12c0,0.2-0.1,0.3-0.3,0.3h-0.6c-0.1,0-0.3,0-0.5-0.3l-6.3-10v10c0,0.2-0.1,0.3-0.3,0.3h-0.7
			c-0.2,0-0.3-0.1-0.3-0.3v-12c0-0.2,0.1-0.3,0.3-0.3h0.9c0.2,0,0.3,0.1,0.3,0.3l6.2,9.8v-9.7c0-0.2,0.1-0.3,0.3-0.3h0.7
			C255.5,773.8,255.7,774,255.7,774.1z"/>
		<path class="st1" d="M268.3,786.2c0,0.1-0.1,0.2-0.2,0.2h-0.9c-0.2,0-0.3-0.1-0.3-0.2l-1.1-3.2h-5.5l-1.1,3.2
			c-0.1,0.2-0.2,0.2-0.3,0.2H258c-0.1,0-0.2-0.1-0.2-0.2c0-0.1,0.1-0.2,0.1-0.4l4.3-11.7c0.1-0.2,0.1-0.3,0.3-0.3h1
			c0.2,0,0.3,0.1,0.3,0.3l4.4,11.9C268.3,786,268.3,786.2,268.3,786.2z M265.3,781.8l-2.3-6.4l-2.3,6.4H265.3z"/>
		<path class="st1" d="M279.5,774.1v12c0,0.2-0.1,0.3-0.3,0.3h-0.6c-0.1,0-0.3,0-0.5-0.3l-6.3-10v10c0,0.2-0.1,0.3-0.3,0.3h-0.7
			c-0.2,0-0.3-0.1-0.3-0.3v-12c0-0.2,0.1-0.3,0.3-0.3h0.9c0.2,0,0.3,0.1,0.3,0.3l6.2,9.8v-9.7c0-0.2,0.1-0.3,0.3-0.3h0.7
			C279.4,773.8,279.5,774,279.5,774.1z"/>
		<path class="st1" d="M291.5,782.4c-0.1,2.2-1.9,4.2-4.5,4.2c-2.6,0-4.6-1.9-4.6-4.9v-3.1c0-3,2-4.9,4.6-4.9c2.6,0,4.2,1.8,4.5,4
			c0,0.2-0.1,0.3-0.3,0.3h-0.9c-0.1,0-0.2-0.1-0.2-0.3c-0.2-1.5-1.3-2.7-3.1-2.7s-3.2,1.3-3.2,3.6v3.1c0,2.3,1.5,3.6,3.3,3.6
			c1.8,0,2.9-1.2,3.1-2.9c0-0.1,0.1-0.2,0.2-0.2h1C291.4,782.2,291.5,782.3,291.5,782.4z"/>
		<path class="st1" d="M294.2,786.1v-12c0-0.2,0.1-0.3,0.3-0.3h0.8c0.2,0,0.3,0.1,0.3,0.3v12c0,0.2-0.1,0.3-0.3,0.3h-0.8
			C294.3,786.4,294.2,786.3,294.2,786.1z"/>
		<path class="st1" d="M308.2,786.2c0,0.1-0.1,0.2-0.2,0.2H307c-0.2,0-0.3-0.1-0.3-0.2l-1.1-3.2h-5.5l-1.1,3.2
			c-0.1,0.2-0.2,0.2-0.3,0.2h-0.9c-0.1,0-0.2-0.1-0.2-0.2c0-0.1,0.1-0.2,0.1-0.4l4.3-11.7c0.1-0.2,0.1-0.3,0.3-0.3h1
			c0.2,0,0.3,0.1,0.3,0.3l4.4,11.9C308.1,786,308.2,786.2,308.2,786.2z M305.2,781.8l-2.3-6.4l-2.3,6.4H305.2z"/>
		<path class="st1" d="M317.9,786.4h-7.3c-0.2,0-0.3-0.1-0.3-0.3v-12c0-0.2,0.1-0.3,0.3-0.3h0.8c0.2,0,0.3,0.1,0.3,0.3v11h6.2
			c0.2,0,0.3,0.1,0.3,0.3v0.7C318.2,786.3,318.1,786.4,317.9,786.4z"/>
		<path class="st1" d="M202.1,796.7H196v4.3h4.9c0.2,0,0.3,0.1,0.3,0.3v0.7c0,0.2-0.1,0.3-0.3,0.3H196v4.5h6.1
			c0.2,0,0.3,0.1,0.3,0.3v0.7c0,0.2-0.1,0.3-0.3,0.3H195c-0.2,0-0.3-0.1-0.3-0.3v-12c0-0.2,0.1-0.3,0.3-0.3h7.2
			c0.2,0,0.3,0.1,0.3,0.3v0.7C202.4,796.6,202.3,796.7,202.1,796.7z"/>
		<path class="st1" d="M213.4,807.8c0,0.1-0.1,0.2-0.2,0.2h-0.9c-0.3,0-0.4-0.1-0.5-0.3l-3.2-5l-3.2,5c-0.1,0.1-0.2,0.3-0.4,0.3
			h-0.9c-0.1,0-0.2-0.1-0.2-0.2c0-0.1,0-0.2,0.1-0.3l3.8-5.9l-3.7-5.7c-0.1-0.1-0.2-0.3-0.2-0.4c0-0.1,0.1-0.2,0.2-0.2h1
			c0.2,0,0.3,0.1,0.4,0.3l3.2,4.9l3.2-4.9c0.1-0.2,0.2-0.3,0.4-0.3h0.9c0.1,0,0.2,0.1,0.2,0.2c0,0.1-0.1,0.3-0.1,0.3l-3.8,5.7
			l3.8,5.8C213.4,807.6,213.4,807.7,213.4,807.8z"/>
		<path class="st1" d="M220.2,803.3H217v4.4c0,0.2-0.1,0.3-0.3,0.3h-0.8c-0.2,0-0.3-0.1-0.3-0.3v-12c0-0.2,0.1-0.3,0.3-0.3h4.3
			c2.3,0,3.9,1.3,3.9,3.7v0.4C224.1,801.8,222.5,803.3,220.2,803.3z M217,796.7v5.3h3.2c1.4,0,2.6-0.8,2.6-2.5v-0.4
			c0-1.8-1.2-2.4-2.6-2.4H217z"/>
		<path class="st1" d="M234,796.7h-6.1v4.3h4.9c0.2,0,0.3,0.1,0.3,0.3v0.7c0,0.2-0.1,0.3-0.3,0.3h-4.9v4.5h6.1
			c0.2,0,0.3,0.1,0.3,0.3v0.7c0,0.2-0.1,0.3-0.3,0.3h-7.2c-0.2,0-0.3-0.1-0.3-0.3v-12c0-0.2,0.1-0.3,0.3-0.3h7.2
			c0.2,0,0.3,0.1,0.3,0.3v0.7C234.3,796.6,234.2,796.7,234,796.7z"/>
		<path class="st1" d="M237.9,808h-0.8c-0.2,0-0.3-0.1-0.3-0.3v-12c0-0.2,0.1-0.3,0.3-0.3h4.3c2.3,0,3.9,1.2,3.9,3.6v0.3
			c0,1.6-0.9,2.9-2.7,3.4l2.6,4.8c0.1,0.1,0.1,0.2,0.1,0.3c0,0.1-0.1,0.2-0.2,0.2h-1c-0.2,0-0.3-0.1-0.3-0.3l-2.5-4.9h-3v4.8
			C238.2,807.9,238,808,237.9,808z M241.3,801.7c1.4,0,2.6-0.7,2.6-2.3v-0.3c0-1.8-1.2-2.3-2.6-2.3h-3.2v4.9H241.3z"/>
		<path class="st1" d="M246.7,796.4v-0.7c0-0.2,0.1-0.3,0.3-0.3h8.9c0.2,0,0.3,0.1,0.3,0.3v0.7c0,0.2-0.1,0.3-0.3,0.3h-3.8v11
			c0,0.2-0.1,0.3-0.3,0.3h-0.8c-0.2,0-0.3-0.1-0.3-0.3v-11H247C246.8,796.7,246.7,796.6,246.7,796.4z"/>
		<path class="st1" d="M258.3,807.7v-12c0-0.2,0.1-0.3,0.3-0.3h0.8c0.2,0,0.3,0.1,0.3,0.3v12c0,0.2-0.1,0.3-0.3,0.3h-0.8
			C258.4,808,258.3,807.9,258.3,807.7z"/>
		<path class="st1" d="M269.5,798.6c-0.1-1.1-0.6-2.1-2.7-2.1c-1.6,0-2.8,0.4-2.8,2.1c0,3.6,7.1,1.4,7.1,6.1c0,2.6-2.2,3.5-4.3,3.5
			c-3.4,0-4.6-2.4-4.6-3.9c0-0.2,0.1-0.3,0.3-0.3h0.8c0.2,0,0.3,0.1,0.3,0.3c0,0.8,0.6,2.6,3.2,2.6c1.7,0,3-0.6,3-2.3
			c0-3.3-7.1-1.2-7.1-6.1c0-2.3,1.7-3.3,4.2-3.3c3.2,0,4,2,4,3.3c0,0.2-0.1,0.3-0.3,0.3h-0.8C269.6,798.8,269.5,798.7,269.5,798.6z"
			/>
		<path class="st1" d="M281.2,796.7h-6.1v4.3h4.9c0.2,0,0.3,0.1,0.3,0.3v0.7c0,0.2-0.1,0.3-0.3,0.3h-4.9v4.5h6.1
			c0.2,0,0.3,0.1,0.3,0.3v0.7c0,0.2-0.1,0.3-0.3,0.3H274c-0.2,0-0.3-0.1-0.3-0.3v-12c0-0.2,0.1-0.3,0.3-0.3h7.2
			c0.2,0,0.3,0.1,0.3,0.3v0.7C281.5,796.6,281.4,796.7,281.2,796.7z"/>
	</g>
</g>
<g>
	<g>
		<path class="st1" d="M179.9,438.3c0,0.1-0.1,0.2-0.2,0.2h-0.9c-0.2,0-0.3-0.1-0.3-0.2l-1.1-3.2h-5.5l-1.1,3.2
			c-0.1,0.2-0.2,0.2-0.3,0.2h-0.9c-0.1,0-0.2-0.1-0.2-0.2c0-0.1,0.1-0.2,0.1-0.4l4.3-11.7c0.1-0.2,0.1-0.3,0.3-0.3h1
			c0.2,0,0.3,0.1,0.3,0.3l4.4,11.9C179.9,438.1,179.9,438.2,179.9,438.3z M176.9,433.9l-2.3-6.4l-2.3,6.4H176.9z"/>
		<path class="st1" d="M190.5,434.5c-0.1,2.2-1.9,4.2-4.5,4.2c-2.6,0-4.6-1.9-4.6-4.9v-3.1c0-3,2-4.9,4.6-4.9c2.6,0,4.2,1.8,4.5,4
			c0,0.2-0.1,0.3-0.3,0.3h-0.9c-0.1,0-0.2-0.1-0.2-0.3c-0.2-1.5-1.3-2.7-3.1-2.7c-1.8,0-3.2,1.3-3.2,3.6v3.1c0,2.3,1.5,3.6,3.3,3.6
			c1.8,0,2.9-1.2,3.1-2.9c0-0.1,0.1-0.2,0.2-0.2h1C190.4,434.2,190.5,434.3,190.5,434.5z"/>
		<path class="st1" d="M201.9,434.5c-0.1,2.2-1.9,4.2-4.5,4.2c-2.6,0-4.6-1.9-4.6-4.9v-3.1c0-3,2-4.9,4.6-4.9c2.6,0,4.2,1.8,4.5,4
			c0,0.2-0.1,0.3-0.3,0.3h-0.9c-0.1,0-0.2-0.1-0.2-0.3c-0.2-1.5-1.3-2.7-3.1-2.7s-3.2,1.3-3.2,3.6v3.1c0,2.3,1.5,3.6,3.3,3.6
			c1.8,0,2.9-1.2,3.1-2.9c0-0.1,0.1-0.2,0.2-0.2h1C201.8,434.2,201.9,434.3,201.9,434.5z"/>
		<path class="st1" d="M212.1,427.1H206v4.3h4.9c0.2,0,0.3,0.1,0.3,0.3v0.7c0,0.2-0.1,0.3-0.3,0.3H206v4.5h6.1
			c0.2,0,0.3,0.1,0.3,0.3v0.7c0,0.2-0.1,0.3-0.3,0.3h-7.2c-0.2,0-0.3-0.1-0.3-0.3v-12c0-0.2,0.1-0.3,0.3-0.3h7.2
			c0.2,0,0.3,0.1,0.3,0.3v0.7C212.4,427,212.3,427.1,212.1,427.1z"/>
		<path class="st1" d="M221.3,429c-0.1-1.1-0.6-2.1-2.7-2.1c-1.6,0-2.8,0.4-2.8,2.1c0,3.6,7.1,1.4,7.1,6.1c0,2.6-2.2,3.5-4.3,3.5
			c-3.4,0-4.6-2.4-4.6-3.9c0-0.2,0.1-0.3,0.3-0.3h0.8c0.2,0,0.3,0.1,0.3,0.3c0,0.8,0.6,2.6,3.2,2.6c1.7,0,3-0.6,3-2.3
			c0-3.3-7.1-1.2-7.1-6.1c0-2.3,1.7-3.3,4.2-3.3c3.2,0,4,2,4,3.3c0,0.2-0.1,0.3-0.3,0.3h-0.8C221.4,429.3,221.3,429.2,221.3,429z"/>
		<path class="st1" d="M232,429c-0.1-1.1-0.6-2.1-2.7-2.1c-1.6,0-2.8,0.4-2.8,2.1c0,3.6,7.1,1.4,7.1,6.1c0,2.6-2.2,3.5-4.3,3.5
			c-3.4,0-4.6-2.4-4.6-3.9c0-0.2,0.1-0.3,0.3-0.3h0.8c0.2,0,0.3,0.1,0.3,0.3c0,0.8,0.6,2.6,3.2,2.6c1.7,0,3-0.6,3-2.3
			c0-3.3-7.1-1.2-7.1-6.1c0-2.3,1.7-3.3,4.2-3.3c3.2,0,4,2,4,3.3c0,0.2-0.1,0.3-0.3,0.3h-0.8C232.1,429.3,232,429.2,232,429z"/>
		<path class="st1" d="M239.4,426.9v-0.7c0-0.2,0.1-0.3,0.3-0.3h8.9c0.2,0,0.3,0.1,0.3,0.3v0.7c0,0.2-0.1,0.3-0.3,0.3h-3.8v11
			c0,0.2-0.1,0.3-0.3,0.3h-0.8c-0.2,0-0.3-0.1-0.3-0.3v-11h-3.8C239.5,427.1,239.4,427,239.4,426.9z"/>
		<path class="st1" d="M254.7,425.7c2.6,0,4.6,1.9,4.6,4.9v3.1c0,3-2,4.9-4.6,4.9c-2.6,0-4.6-1.9-4.6-4.9v-3.1
			C250.1,427.6,252.1,425.7,254.7,425.7z M254.7,437.4c1.8,0,3.2-1.3,3.2-3.6v-3.1c0-2.3-1.5-3.7-3.3-3.7c-1.8,0-3.2,1.3-3.2,3.7
			v3.1C251.5,436,252.9,437.4,254.7,437.4z"/>
		<path class="st1" d="M274,438.5h-7.3c-0.2,0-0.3-0.1-0.3-0.3v-12c0-0.2,0.1-0.3,0.3-0.3h0.8c0.2,0,0.3,0.1,0.3,0.3v11h6.2
			c0.2,0,0.3,0.1,0.3,0.3v0.7C274.3,438.3,274.2,438.5,274,438.5z"/>
		<path class="st1" d="M284,427.1h-6.1v4.3h4.9c0.2,0,0.3,0.1,0.3,0.3v0.7c0,0.2-0.1,0.3-0.3,0.3h-4.9v4.5h6.1
			c0.2,0,0.3,0.1,0.3,0.3v0.7c0,0.2-0.1,0.3-0.3,0.3h-7.2c-0.2,0-0.3-0.1-0.3-0.3v-12c0-0.2,0.1-0.3,0.3-0.3h7.2
			c0.2,0,0.3,0.1,0.3,0.3v0.7C284.3,427,284.2,427.1,284,427.1z"/>
		<path class="st1" d="M293.2,429c-0.1-1.1-0.6-2.1-2.7-2.1c-1.6,0-2.8,0.4-2.8,2.1c0,3.6,7.1,1.4,7.1,6.1c0,2.6-2.2,3.5-4.3,3.5
			c-3.4,0-4.6-2.4-4.6-3.9c0-0.2,0.1-0.3,0.3-0.3h0.8c0.2,0,0.3,0.1,0.3,0.3c0,0.8,0.6,2.6,3.2,2.6c1.7,0,3-0.6,3-2.3
			c0-3.3-7.1-1.2-7.1-6.1c0-2.3,1.7-3.3,4.2-3.3c3.2,0,4,2,4,3.3c0,0.2-0.1,0.3-0.3,0.3h-0.8C293.4,429.3,293.3,429.2,293.2,429z"/>
		<path class="st1" d="M303.9,429c-0.1-1.1-0.6-2.1-2.7-2.1c-1.6,0-2.8,0.4-2.8,2.1c0,3.6,7.1,1.4,7.1,6.1c0,2.6-2.2,3.5-4.3,3.5
			c-3.4,0-4.6-2.4-4.6-3.9c0-0.2,0.1-0.3,0.3-0.3h0.8c0.2,0,0.3,0.1,0.3,0.3c0,0.8,0.6,2.6,3.2,2.6c1.7,0,3-0.6,3-2.3
			c0-3.3-7.1-1.2-7.1-6.1c0-2.3,1.7-3.3,4.2-3.3c3.2,0,4,2,4,3.3c0,0.2-0.1,0.3-0.3,0.3h-0.8C304,429.3,303.9,429.2,303.9,429z"/>
		<path class="st1" d="M162.7,459.8v-12c0-0.2,0.1-0.3,0.3-0.3h3.9c2.6,0,4.6,1.9,4.6,4.9v2.8c0,3-2,4.9-4.6,4.9H163
			C162.8,460.1,162.7,459.9,162.7,459.8z M164,458.8h2.9c1.8,0,3.2-1.3,3.2-3.6v-2.8c0-2.3-1.5-3.6-3.2-3.6H164V458.8z"/>
		<path class="st1" d="M174.4,459.8v-12c0-0.2,0.1-0.3,0.3-0.3h0.8c0.2,0,0.3,0.1,0.3,0.3v12c0,0.2-0.1,0.3-0.3,0.3h-0.8
			C174.5,460.1,174.4,459.9,174.4,459.8z"/>
		<path class="st1" d="M186.5,460.1h-7.3c-0.2,0-0.3-0.1-0.3-0.3v-12c0-0.2,0.1-0.3,0.3-0.3h0.8c0.2,0,0.3,0.1,0.3,0.3v11h6.2
			c0.2,0,0.3,0.1,0.3,0.3v0.7C186.8,459.9,186.7,460.1,186.5,460.1z"/>
		<path class="st1" d="M196.4,447.5h0.8c0.2,0,0.3,0.1,0.3,0.3v7.6c0,3-1.8,4.9-4.4,4.9s-4.4-1.9-4.4-4.9v-7.6
			c0-0.2,0.1-0.3,0.3-0.3h0.8c0.2,0,0.3,0.1,0.3,0.3v7.6c0,2.3,1.3,3.6,3.1,3.6c1.8,0,3.1-1.3,3.1-3.6v-7.6
			C196.1,447.6,196.2,447.5,196.4,447.5z"/>
		<path class="st1" d="M199.4,448.5v-0.7c0-0.2,0.1-0.3,0.3-0.3h8.9c0.2,0,0.3,0.1,0.3,0.3v0.7c0,0.2-0.1,0.3-0.3,0.3h-3.8v11
			c0,0.2-0.1,0.3-0.3,0.3h-0.8c-0.2,0-0.3-0.1-0.3-0.3v-11h-3.8C199.5,448.7,199.4,448.6,199.4,448.5z"/>
		<path class="st1" d="M211,459.8v-12c0-0.2,0.1-0.3,0.3-0.3h0.8c0.2,0,0.3,0.1,0.3,0.3v12c0,0.2-0.1,0.3-0.3,0.3h-0.8
			C211.1,460.1,211,459.9,211,459.8z"/>
		<path class="st1" d="M224.9,447.7c0,0.1-0.1,0.3-0.1,0.4l-4.4,11.8c-0.1,0.1-0.1,0.2-0.3,0.2h-1c-0.1,0-0.2-0.1-0.3-0.2l-4.4-11.9
			c0,0-0.1-0.2-0.1-0.3c0-0.1,0.1-0.2,0.2-0.2h0.9c0.2,0,0.3,0.1,0.4,0.4l3.8,10.6l3.8-10.6c0.1-0.2,0.1-0.3,0.3-0.3h0.9
			C224.8,447.5,224.9,447.6,224.9,447.7z"/>
		<path class="st1" d="M234.4,448.7h-6.1v4.3h4.9c0.2,0,0.3,0.1,0.3,0.3v0.7c0,0.2-0.1,0.3-0.3,0.3h-4.9v4.5h6.1
			c0.2,0,0.3,0.1,0.3,0.3v0.7c0,0.2-0.1,0.3-0.3,0.3h-7.2c-0.2,0-0.3-0.1-0.3-0.3v-12c0-0.2,0.1-0.3,0.3-0.3h7.2
			c0.2,0,0.3,0.1,0.3,0.3v0.7C234.7,448.6,234.6,448.7,234.4,448.7z"/>
		<path class="st1" d="M249,448.7h-6.1v4.7h4.9c0.2,0,0.3,0.1,0.3,0.3v0.7c0,0.2-0.1,0.3-0.3,0.3h-4.9v5c0,0.2-0.1,0.3-0.3,0.3h-0.8
			c-0.2,0-0.3-0.1-0.3-0.3v-12c0-0.2,0.1-0.3,0.3-0.3h7.2c0.2,0,0.3,0.1,0.3,0.3v0.7C249.3,448.6,249.2,448.7,249,448.7z"/>
		<path class="st1" d="M259.2,447.5h0.8c0.2,0,0.3,0.1,0.3,0.3v7.6c0,3-1.8,4.9-4.4,4.9s-4.4-1.9-4.4-4.9v-7.6
			c0-0.2,0.1-0.3,0.3-0.3h0.8c0.2,0,0.3,0.1,0.3,0.3v7.6c0,2.3,1.3,3.6,3.1,3.6c1.8,0,3.1-1.3,3.1-3.6v-7.6
			C258.9,447.6,259,447.5,259.2,447.5z"/>
		<path class="st1" d="M272.4,447.8v12c0,0.2-0.1,0.3-0.3,0.3h-0.6c-0.1,0-0.3,0-0.5-0.3l-6.3-10v10c0,0.2-0.1,0.3-0.3,0.3h-0.7
			c-0.2,0-0.3-0.1-0.3-0.3v-12c0-0.2,0.1-0.3,0.3-0.3h0.9c0.2,0,0.3,0.1,0.3,0.3l6.2,9.8v-9.7c0-0.2,0.1-0.3,0.3-0.3h0.7
			C272.2,447.5,272.4,447.6,272.4,447.8z"/>
		<path class="st1" d="M275.6,459.8v-12c0-0.2,0.1-0.3,0.3-0.3h3.9c2.6,0,4.6,1.9,4.6,4.9v2.8c0,3-2,4.9-4.6,4.9h-3.9
			C275.7,460.1,275.6,459.9,275.6,459.8z M277,458.8h2.9c1.8,0,3.2-1.3,3.2-3.6v-2.8c0-2.3-1.5-3.6-3.2-3.6H277V458.8z"/>
		<path class="st1" d="M287.3,459.8v-12c0-0.2,0.1-0.3,0.3-0.3h0.8c0.2,0,0.3,0.1,0.3,0.3v12c0,0.2-0.1,0.3-0.3,0.3h-0.8
			C287.4,460.1,287.3,459.9,287.3,459.8z"/>
		<path class="st1" d="M301,447.8v12c0,0.2-0.1,0.3-0.3,0.3H300c-0.1,0-0.3,0-0.5-0.3l-6.3-10v10c0,0.2-0.1,0.3-0.3,0.3h-0.7
			c-0.2,0-0.3-0.1-0.3-0.3v-12c0-0.2,0.1-0.3,0.3-0.3h0.9c0.2,0,0.3,0.1,0.3,0.3l6.2,9.8v-9.7c0-0.2,0.1-0.3,0.3-0.3h0.7
			C300.8,447.5,301,447.6,301,447.8z"/>
		<path class="st1" d="M308.2,454.6V454c0-0.2,0.1-0.3,0.3-0.3h4.1c0.2,0,0.3,0.1,0.3,0.3v5.8c0,0.2-0.1,0.3-0.3,0.3H312
			c-0.2,0-0.3-0.1-0.3-0.3v-1.3c-0.6,1.1-1.9,1.7-3.3,1.7c-2.9,0-4.6-2.2-4.6-4.9v-3.1c0-3,2-4.9,4.6-4.9s4.1,1.7,4.5,3.8
			c0,0.1,0,0.2,0,0.3c0,0.1-0.1,0.2-0.2,0.2h-1c-0.1,0-0.2-0.1-0.2-0.3c-0.2-1.3-1.2-2.7-3.2-2.7c-1.8,0-3.3,1.4-3.3,3.7v3.1
			c0,2.3,1.5,3.6,3.3,3.6c2.3,0,3.2-1.9,3.2-3.1v-0.9h-3.1C308.3,454.9,308.2,454.8,308.2,454.6z"/>
	</g>
</g>
<g>
	<path class="st0" d="M388.6,451.8c-0.1-0.6-0.4-1.3-1.7-1.3c-1.1,0-1.8,0.3-1.8,1.3c0,2.3,5.1,0.8,5.1,4.5c0,2-1.7,2.7-3.3,2.7
		c-2.5,0-3.5-1.7-3.5-2.9c0-0.2,0.1-0.3,0.3-0.3h0.8c0.2,0,0.3,0.1,0.3,0.3c0,0.4,0.3,1.6,2,1.6c1.2,0,1.9-0.4,1.9-1.4
		c0-2.2-5.1-0.8-5.1-4.5c0-1.7,1.2-2.5,3.2-2.5c2.3,0,3.1,1.4,3.1,2.5c0,0.2-0.1,0.3-0.3,0.3h-0.8
		C388.8,452.1,388.7,452,388.6,451.8z"/>
	<path class="st0" d="M391.3,450.5v-0.7c0-0.2,0.1-0.3,0.3-0.3h6.6c0.2,0,0.3,0.1,0.3,0.3v0.7c0,0.2-0.1,0.3-0.3,0.3h-2.6v7.7
		c0,0.2-0.1,0.3-0.3,0.3h-0.8c-0.2,0-0.3-0.1-0.3-0.3v-7.7h-2.6C391.4,450.8,391.3,450.7,391.3,450.5z"/>
	<path class="st0" d="M401.1,458.9h-0.8c-0.2,0-0.3-0.1-0.3-0.3v-8.8c0-0.2,0.1-0.3,0.3-0.3h3.4c1.7,0,2.9,0.9,2.9,2.8v0.3
		c0,1.2-0.6,2.2-1.9,2.6l1.7,3.3c0.1,0.1,0.1,0.2,0.1,0.3c0,0.1-0.1,0.2-0.2,0.2h-1c-0.2,0-0.3-0.1-0.3-0.3l-1.7-3.3h-1.9v3.3
		C401.4,458.7,401.2,458.9,401.1,458.9z M403.5,453.9c0.8,0,1.6-0.4,1.6-1.5v-0.2c0-1.1-0.7-1.5-1.6-1.5h-2.2v3.1H403.5z"/>
	<path class="st0" d="M414,450.8h-4.1v2.6h3.3c0.2,0,0.3,0.1,0.3,0.3v0.7c0,0.2-0.1,0.3-0.3,0.3h-3.3v2.7h4.1c0.2,0,0.3,0.1,0.3,0.3
		v0.7c0,0.2-0.1,0.3-0.3,0.3h-5.2c-0.2,0-0.3-0.1-0.3-0.3v-8.8c0-0.2,0.1-0.3,0.3-0.3h5.2c0.2,0,0.3,0.1,0.3,0.3v0.7
		C414.3,450.7,414.1,450.8,414,450.8z"/>
	<path class="st0" d="M423.5,458.6c0,0.1-0.1,0.2-0.2,0.2h-1c-0.2,0-0.3-0.1-0.3-0.2l-0.7-2h-3.8l-0.7,2c-0.1,0.1-0.2,0.2-0.3,0.2
		h-0.9c-0.1,0-0.2-0.1-0.2-0.2c0-0.1,0-0.2,0.1-0.3l3.1-8.7c0-0.1,0.1-0.2,0.3-0.2h1.1c0.2,0,0.3,0.1,0.3,0.2l3.1,8.7
		C423.4,458.4,423.5,458.6,423.5,458.6z M420.8,455.3l-1.5-4.2l-1.5,4.2H420.8z"/>
	<path class="st0" d="M434.3,449.8v8.8c0,0.2-0.1,0.3-0.3,0.3h-0.8c-0.2,0-0.3-0.1-0.3-0.3v-6.9l-2.6,7c-0.1,0.1-0.1,0.2-0.3,0.2
		h-0.8c-0.1,0-0.2-0.1-0.3-0.2l-2.6-7v6.9c0,0.2-0.1,0.3-0.3,0.3h-0.8c-0.2,0-0.3-0.1-0.3-0.3v-8.8c0-0.2,0.1-0.3,0.3-0.3h1.4
		c0.1,0,0.2,0.1,0.3,0.2l2.6,7.2l2.7-7.2c0-0.1,0.1-0.2,0.2-0.2h1.4C434.1,449.4,434.3,449.6,434.3,449.8z"/>
	<path class="st0" d="M436.5,458.5v-8.8c0-0.2,0.1-0.3,0.3-0.3h0.8c0.2,0,0.3,0.1,0.3,0.3v8.8c0,0.2-0.1,0.3-0.3,0.3h-0.8
		C436.6,458.9,436.5,458.7,436.5,458.5z"/>
	<path class="st0" d="M447.3,449.8v8.8c0,0.2-0.1,0.3-0.3,0.3h-0.7c-0.1,0-0.3,0-0.5-0.4l-4.1-6.7v6.8c0,0.2-0.1,0.3-0.3,0.3h-0.8
		c-0.2,0-0.3-0.1-0.3-0.3v-8.8c0-0.2,0.1-0.3,0.3-0.3h1c0.2,0,0.3,0.1,0.4,0.3l3.9,6.5v-6.5c0-0.2,0.1-0.3,0.3-0.3h0.8
		C447.1,449.4,447.3,449.6,447.3,449.8z"/>
	<path class="st0" d="M452.7,454.8v-0.7c0-0.2,0.1-0.3,0.3-0.3h3c0.2,0,0.3,0.1,0.3,0.3v4.4c0,0.2-0.1,0.3-0.3,0.3h-0.6
		c-0.2,0-0.3-0.1-0.3-0.3v-0.7c-0.4,0.7-1.3,1.1-2.3,1.1c-2.2,0-3.5-1.6-3.5-3.8v-2.1c0-2.3,1.5-3.8,3.6-3.8c2.1,0,3.2,1.4,3.4,2.9
		c0,0.1,0,0.1,0,0.2c0,0.1-0.1,0.2-0.2,0.2h-1c-0.1,0-0.2-0.1-0.2-0.3c-0.1-0.8-0.7-1.7-2-1.7c-1.2,0-2.2,0.9-2.2,2.4v2.1
		c0,1.6,1,2.4,2.2,2.4c1.4,0,2.1-1.2,2.1-2v-0.5H453C452.8,455.1,452.7,455,452.7,454.8z"/>
	<path class="st0" d="M395.8,469.9h-2.3v3c0,0.2-0.1,0.3-0.3,0.3h-0.8c-0.2,0-0.3-0.1-0.3-0.3v-8.8c0-0.2,0.1-0.3,0.3-0.3h3.4
		c1.7,0,2.9,1,2.9,2.8v0.3C398.7,468.7,397.5,469.9,395.8,469.9z M393.5,465.1v3.4h2.2c0.8,0,1.6-0.5,1.6-1.6v-0.2
		c0-1.1-0.7-1.6-1.6-1.6H393.5z"/>
	<path class="st0" d="M407,472.9c0,0.1-0.1,0.2-0.2,0.2h-1c-0.2,0-0.3-0.1-0.3-0.2l-0.7-2H401l-0.7,2c-0.1,0.1-0.2,0.2-0.3,0.2h-0.9
		c-0.1,0-0.2-0.1-0.2-0.2c0-0.1,0-0.2,0.1-0.3l3.1-8.7c0-0.1,0.1-0.2,0.3-0.2h1.1c0.2,0,0.3,0.1,0.3,0.2l3.1,8.7
		C406.9,472.7,407,472.9,407,472.9z M404.4,469.6l-1.5-4.2l-1.5,4.2H404.4z"/>
	<path class="st0" d="M409.6,473.1h-0.8c-0.2,0-0.3-0.1-0.3-0.3v-8.8c0-0.2,0.1-0.3,0.3-0.3h3.4c1.7,0,2.9,0.9,2.9,2.8v0.3
		c0,1.2-0.6,2.2-1.9,2.6l1.7,3.3c0.1,0.1,0.1,0.2,0.1,0.3c0,0.1-0.1,0.2-0.2,0.2h-1c-0.2,0-0.3-0.1-0.3-0.3l-1.7-3.3h-1.9v3.3
		C409.9,473,409.8,473.1,409.6,473.1z M412.1,468.2c0.8,0,1.6-0.4,1.6-1.5v-0.2c0-1.1-0.7-1.5-1.6-1.5h-2.2v3.1H412.1z"/>
	<path class="st0" d="M416.1,464.8v-0.7c0-0.2,0.1-0.3,0.3-0.3h6.6c0.2,0,0.3,0.1,0.3,0.3v0.7c0,0.2-0.1,0.3-0.3,0.3h-2.6v7.7
		c0,0.2-0.1,0.3-0.3,0.3h-0.8c-0.2,0-0.3-0.1-0.3-0.3v-7.7h-2.6C416.3,465.1,416.1,465,416.1,464.8z"/>
	<path class="st0" d="M431.8,464.1v8.8c0,0.2-0.1,0.3-0.3,0.3h-0.7c-0.1,0-0.3,0-0.5-0.4l-4.1-6.7v6.8c0,0.2-0.1,0.3-0.3,0.3h-0.8
		c-0.2,0-0.3-0.1-0.3-0.3v-8.8c0-0.2,0.1-0.3,0.3-0.3h1c0.2,0,0.3,0.1,0.4,0.3l3.9,6.5v-6.5c0-0.2,0.1-0.3,0.3-0.3h0.8
		C431.7,463.7,431.8,463.9,431.8,464.1z"/>
	<path class="st0" d="M439.7,465.1h-4.1v2.6h3.3c0.2,0,0.3,0.1,0.3,0.3v0.7c0,0.2-0.1,0.3-0.3,0.3h-3.3v2.7h4.1
		c0.2,0,0.3,0.1,0.3,0.3v0.7c0,0.2-0.1,0.3-0.3,0.3h-5.2c-0.2,0-0.3-0.1-0.3-0.3v-8.8c0-0.2,0.1-0.3,0.3-0.3h5.2
		c0.2,0,0.3,0.1,0.3,0.3v0.7C440,465,439.8,465.1,439.7,465.1z"/>
	<path class="st0" d="M442.9,473.1h-0.8c-0.2,0-0.3-0.1-0.3-0.3v-8.8c0-0.2,0.1-0.3,0.3-0.3h3.4c1.7,0,2.9,0.9,2.9,2.8v0.3
		c0,1.2-0.6,2.2-1.9,2.6l1.7,3.3c0.1,0.1,0.1,0.2,0.1,0.3c0,0.1-0.1,0.2-0.2,0.2h-1c-0.2,0-0.3-0.1-0.3-0.3l-1.7-3.3h-1.9v3.3
		C443.2,473,443.1,473.1,442.9,473.1z M445.4,468.2c0.8,0,1.6-0.4,1.6-1.5v-0.2c0-1.1-0.7-1.5-1.6-1.5h-2.2v3.1H445.4z"/>
</g>
<g>
	<defs>
		<rect id="SVGID_1_" x="397" y="399" width="38.8" height="36.5"/>
	</defs>
	<clipPath id="SVGID_2_">
		<use xlink:href="#SVGID_1_"  style="overflow:visible;"/>
	</clipPath>
	<path class="st2" d="M398.5,407.1c-0.1,0-0.2,0-0.2,0c-0.1,0-0.1,0.1-0.1,0.2c1.2,5.4,4,10.1,8.1,14c2.4,2.3,4.8,3.8,6.5,4.8
		c-2.8-1-7.5-2.5-12.7-2.5c-1,0-2,0.1-3,0.2c-0.1,0-0.2,0.1-0.2,0.1c0,0.1,0,0.2,0.1,0.2c3.9,3.2,8.3,4.8,12.9,4.8
		c1.2,0,2.3-0.1,3.2-0.3c-2.2,0.8-5.8,2.5-8.7,6c-0.1,0.1-0.1,0.2,0,0.2c0,0.1,0.1,0.1,0.2,0.1c3.5-0.9,6.4-2.1,8.5-3.5
		c1.6-1.1,2.4-2.1,2.8-2.6c0,0.9,0,3.3-0.1,4.6c-0.1,1.6-0.1,1.6,0,1.7c0.1,0.1,0.4,0.3,0.5,0.3c0.2,0,0.5-0.1,0.6-0.3
		c0-0.1,0-0.1,0-1.6c0-1.3-0.1-3.7-0.1-4.7c0.4,0.5,1.2,1.5,2.8,2.6c2.1,1.5,5,2.7,8.5,3.5c0.1,0,0.2,0,0.2-0.1c0-0.1,0-0.2,0-0.2
		c-2.9-3.5-6.5-5.2-8.7-6c0.9,0.1,1.9,0.3,3.2,0.3c4.6,0,9-1.6,12.9-4.8c0.1-0.1,0.1-0.1,0.1-0.2c0-0.1-0.1-0.1-0.2-0.1
		c-1-0.1-2-0.2-3-0.2c-5.1,0-9.9,1.5-12.7,2.5c1.7-1,4.1-2.5,6.5-4.8c4.1-3.9,6.8-8.6,8.1-14c0-0.1,0-0.2-0.1-0.2
		c-0.1,0-0.2-0.1-0.2,0c-9.6,5.8-14.6,14.2-16.6,17.8c0.6-1.6,1.3-4.3,1.6-7.7c0.6-6-0.3-12.1-2.7-18.1c0-0.1-0.1-0.1-0.2-0.1
		c-0.1,0-0.2,0.1-0.2,0.1c-2.4,6-3.3,12.1-2.7,18.1c0.3,3.4,1.1,6.1,1.6,7.7C413.1,421.3,408.2,412.9,398.5,407.1"/>
</g>
<line class="st3" x1="96" y1="433.8" x2="115.7" y2="433.8"/>
<line class="st3" x1="362.3" y1="433.8" x2="382" y2="433.8"/>
<polyline class="st3" points="127.2,799.3 115.7,799.3 115.7,86 126,86 "/>
<polyline class="st3" points="350.2,799.3 361.7,799.3 361.7,86 351.4,86 "/>
<polygon class="st1" points="380.8,430.4 386.8,433.8 380.8,437.3 "/>
</svg>
