<?xml version="1.0" encoding="utf-8"?>
<!-- Generator: Adobe Illustrator 20.1.0, SVG Export Plug-In . SVG Version: 6.00 Build 0)  -->
<!DOCTYPE svg PUBLIC "-//W3C//DTD SVG 1.1//EN" "http://www.w3.org/Graphics/SVG/1.1/DTD/svg11.dtd">
<svg version="1.1" id="Layer_1" xmlns="http://www.w3.org/2000/svg" xmlns:xlink="http://www.w3.org/1999/xlink" x="0px" y="0px"
	 viewBox="0 0 475.9 892.2" style="enable-background:new 0 0 475.9 892.2;" xml:space="preserve">
<style type="text/css">
	.st0{fill:#A5B993;}
	.st1{fill:#FFFFFF;}
	.st2{clip-path:url(#SVGID_2_);fill:#A5B993;}
	.st3{fill:none;stroke:#FFFFFF;stroke-width:0.8405;stroke-miterlimit:10;}
</style>
<title>Asset 1</title>
<g>
	<path class="st0" d="M53.8,447.8c-3.2,0-6.2,0.1-9.2,0c-1.4-0.1-2.6-0.7-3.2-1.8c-1.3-2.5-11.2-21.8-11.6-22.6
		c-0.1-0.2-0.1-0.7,0.6-0.7c2.6,0,5.2,0,7.9,0c1.8,0,3.2,0.7,3.9,2C43.1,426.5,53.7,447.5,53.8,447.8"/>
	<path class="st0" d="M71.4,447.8c-3.2,0-6.2,0.1-9.2,0c-1.4-0.1-2.6-0.7-3.2-1.8c-1.3-2.5-11.2-21.8-11.6-22.6
		c-0.1-0.2-0.1-0.7,0.6-0.7c2.6,0,5.2,0,7.9,0c1.8,0,3.2,0.7,3.9,2C60.7,426.5,71.3,447.5,71.4,447.8"/>
	<path class="st0" d="M81.6,422.8L81.6,422.8c-0.4-0.1-2.9-0.1-5.4-0.1c-1.8,0-3.1,0.9-4,2.5c-1.2,2.3-2.4,4.7-3.6,7
		c-0.3,0.6,0.3,0.8,0.5,0.8c0.4,0.1,2.9,0.1,5.4,0.1c1.8,0,3.1-0.9,4-2.5c1.2-2.3,2.4-4.7,3.6-7C82.4,423.1,81.8,422.8,81.6,422.8"
		/>
</g>
<g>
	<g>
		<path class="st1" d="M194.9,66.3c-0.1,2.2-1.9,4.2-4.5,4.2s-4.6-1.9-4.6-4.9v-3.1c0-3,2-4.9,4.6-4.9s4.2,1.8,4.5,4
			c0,0.2-0.1,0.3-0.3,0.3h-0.9c-0.1,0-0.2-0.1-0.2-0.3c-0.2-1.5-1.3-2.7-3.1-2.7c-1.8,0-3.2,1.3-3.2,3.6v3.1c0,2.3,1.5,3.6,3.3,3.6
			c1.8,0,2.9-1.2,3.1-2.9c0-0.1,0.1-0.2,0.2-0.2h1C194.8,66.1,194.9,66.2,194.9,66.3z"/>
		<path class="st1" d="M206.9,70.1c0,0.1-0.1,0.2-0.2,0.2h-0.9c-0.2,0-0.3-0.1-0.3-0.2l-1.1-3.2h-5.5l-1.1,3.2
			c-0.1,0.2-0.2,0.2-0.3,0.2h-0.9c-0.1,0-0.2-0.1-0.2-0.2c0-0.1,0.1-0.2,0.1-0.4l4.3-11.7c0.1-0.2,0.1-0.3,0.3-0.3h1
			c0.2,0,0.3,0.1,0.3,0.3l4.4,11.9C206.8,69.9,206.9,70.1,206.9,70.1z M203.9,65.7l-2.3-6.4l-2.3,6.4H203.9z"/>
		<path class="st1" d="M213.6,65.6h-3.2V70c0,0.2-0.1,0.3-0.3,0.3h-0.8c-0.2,0-0.3-0.1-0.3-0.3V58c0-0.2,0.1-0.3,0.3-0.3h4.3
			c2.3,0,3.9,1.3,3.9,3.7v0.4C217.5,64.1,215.9,65.6,213.6,65.6z M210.4,59v5.3h3.2c1.4,0,2.6-0.8,2.6-2.5v-0.4
			c0-1.8-1.2-2.4-2.6-2.4H210.4z"/>
		<path class="st1" d="M219.9,70V58c0-0.2,0.1-0.3,0.3-0.3h0.8c0.2,0,0.3,0.1,0.3,0.3v12c0,0.2-0.1,0.3-0.3,0.3h-0.8
			C220,70.3,219.9,70.2,219.9,70z"/>
		<path class="st1" d="M223.4,58.7V58c0-0.2,0.1-0.3,0.3-0.3h8.9c0.2,0,0.3,0.1,0.3,0.3v0.7c0,0.2-0.1,0.3-0.3,0.3h-3.8v11
			c0,0.2-0.1,0.3-0.3,0.3h-0.8c-0.2,0-0.3-0.1-0.3-0.3V59h-3.8C223.5,59,223.4,58.9,223.4,58.7z"/>
		<path class="st1" d="M242.8,70.1c0,0.1-0.1,0.2-0.2,0.2h-0.9c-0.2,0-0.3-0.1-0.3-0.2l-1.1-3.2h-5.5l-1.1,3.2
			c-0.1,0.2-0.2,0.2-0.3,0.2h-0.9c-0.1,0-0.2-0.1-0.2-0.2c0-0.1,0.1-0.2,0.1-0.4l4.3-11.7c0.1-0.2,0.1-0.3,0.3-0.3h1
			c0.2,0,0.3,0.1,0.3,0.3l4.4,11.9C242.8,69.9,242.8,70.1,242.8,70.1z M239.8,65.7l-2.3-6.4l-2.3,6.4H239.8z"/>
		<path class="st1" d="M252.6,70.3h-7.3c-0.2,0-0.3-0.1-0.3-0.3V58c0-0.2,0.1-0.3,0.3-0.3h0.8c0.2,0,0.3,0.1,0.3,0.3v11h6.2
			c0.2,0,0.3,0.1,0.3,0.3V70C252.9,70.2,252.7,70.3,252.6,70.3z"/>
		<path class="st1" d="M266.8,59h-6.1v4.7h4.9c0.2,0,0.3,0.1,0.3,0.3v0.7c0,0.2-0.1,0.3-0.3,0.3h-4.9v5c0,0.2-0.1,0.3-0.3,0.3h-0.8
			c-0.2,0-0.3-0.1-0.3-0.3V58c0-0.2,0.1-0.3,0.3-0.3h7.2c0.2,0,0.3,0.1,0.3,0.3v0.7C267.1,58.9,267,59,266.8,59z"/>
		<path class="st1" d="M273.3,57.5c2.6,0,4.6,1.9,4.6,4.9v3.1c0,3-2,4.9-4.6,4.9c-2.6,0-4.6-1.9-4.6-4.9v-3.1
			C268.6,59.5,270.6,57.5,273.3,57.5z M273.3,69.2c1.8,0,3.2-1.3,3.2-3.6v-3.1c0-2.3-1.5-3.7-3.3-3.7s-3.2,1.4-3.2,3.7v3.1
			C270,67.9,271.5,69.2,273.3,69.2z"/>
		<path class="st1" d="M281.8,70.3H281c-0.2,0-0.3-0.1-0.3-0.3V58c0-0.2,0.1-0.3,0.3-0.3h4.3c2.3,0,3.9,1.2,3.9,3.6v0.3
			c0,1.6-0.9,2.9-2.7,3.4l2.6,4.8c0.1,0.1,0.1,0.2,0.1,0.3c0,0.1-0.1,0.2-0.2,0.2h-1c-0.2,0-0.3-0.1-0.3-0.3l-2.5-4.9h-3V70
			C282.1,70.2,281.9,70.3,281.8,70.3z M285.2,63.9c1.3,0,2.6-0.7,2.6-2.3v-0.3c0-1.8-1.2-2.3-2.6-2.3h-3.2v4.9H285.2z"/>
		<path class="st1" d="M169.4,91.6v-12c0-0.2,0.1-0.3,0.3-0.3h0.8c0.2,0,0.3,0.1,0.3,0.3v12c0,0.2-0.1,0.3-0.3,0.3h-0.8
			C169.6,91.9,169.4,91.8,169.4,91.6z"/>
		<path class="st1" d="M183.1,79.6v12c0,0.2-0.1,0.3-0.3,0.3h-0.6c-0.1,0-0.3,0-0.5-0.3l-6.3-10v10c0,0.2-0.1,0.3-0.3,0.3h-0.7
			c-0.2,0-0.3-0.1-0.3-0.3v-12c0-0.2,0.1-0.3,0.3-0.3h0.9c0.2,0,0.3,0.1,0.3,0.3l6.2,9.8v-9.7c0-0.2,0.1-0.3,0.3-0.3h0.7
			C183,79.3,183.1,79.5,183.1,79.6z"/>
		<path class="st1" d="M186.3,91.6v-12c0-0.2,0.1-0.3,0.3-0.3h0.8c0.2,0,0.3,0.1,0.3,0.3v12c0,0.2-0.1,0.3-0.3,0.3h-0.8
			C186.5,91.9,186.3,91.8,186.3,91.6z"/>
		<path class="st1" d="M189.8,80.3v-0.7c0-0.2,0.1-0.3,0.3-0.3h8.9c0.2,0,0.3,0.1,0.3,0.3v0.7c0,0.2-0.1,0.3-0.3,0.3h-3.8v11
			c0,0.2-0.1,0.3-0.3,0.3h-0.8c-0.2,0-0.3-0.1-0.3-0.3v-11h-3.8C189.9,80.6,189.8,80.5,189.8,80.3z"/>
		<path class="st1" d="M201.4,91.6v-12c0-0.2,0.1-0.3,0.3-0.3h0.8c0.2,0,0.3,0.1,0.3,0.3v12c0,0.2-0.1,0.3-0.3,0.3h-0.8
			C201.5,91.9,201.4,91.8,201.4,91.6z"/>
		<path class="st1" d="M215.4,91.7c0,0.1-0.1,0.2-0.2,0.2h-0.9c-0.2,0-0.3-0.1-0.3-0.2l-1.1-3.2h-5.5l-1.1,3.2
			c-0.1,0.2-0.2,0.2-0.3,0.2h-0.9c-0.1,0-0.2-0.1-0.2-0.2c0-0.1,0.1-0.2,0.1-0.4l4.3-11.7c0.1-0.2,0.1-0.3,0.3-0.3h1
			c0.2,0,0.3,0.1,0.3,0.3l4.4,11.9C215.3,91.5,215.4,91.7,215.4,91.7z M212.4,87.3l-2.3-6.4l-2.3,6.4H212.4z"/>
		<path class="st1" d="M225.1,91.9h-7.3c-0.2,0-0.3-0.1-0.3-0.3v-12c0-0.2,0.1-0.3,0.3-0.3h0.8c0.2,0,0.3,0.1,0.3,0.3v11h6.2
			c0.2,0,0.3,0.1,0.3,0.3v0.7C225.4,91.8,225.3,91.9,225.1,91.9z"/>
		<path class="st1" d="M240.8,88.3v0.2c0,2.6-2.1,3.4-4.2,3.4h-4.3c-0.2,0-0.3-0.1-0.3-0.3v-12c0-0.2,0.1-0.3,0.3-0.3h4.2
			c2.3,0,4,0.9,4,3.2v0.3c0,1.2-0.6,2.1-1.7,2.6C240,85.9,240.8,87,240.8,88.3z M233.3,84.8h3.3c1.3,0,2.5-0.4,2.5-1.9v-0.3
			c0-1.6-1.3-1.9-2.6-1.9h-3.1V84.8z M239.4,88.3c0-1.7-1.4-2.3-2.8-2.3h-3.3v4.6h3.3c1.4,0,2.8-0.4,2.8-2.1V88.3z"/>
		<path class="st1" d="M251,79.3h0.8c0.2,0,0.3,0.1,0.3,0.3v7.6c0,3-1.8,4.9-4.4,4.9s-4.4-1.9-4.4-4.9v-7.6c0-0.2,0.1-0.3,0.3-0.3
			h0.8c0.2,0,0.3,0.1,0.3,0.3v7.6c0,2.3,1.3,3.6,3.1,3.6c1.8,0,3.1-1.3,3.1-3.6v-7.6C250.7,79.5,250.9,79.3,251,79.3z"/>
		<path class="st1" d="M255.1,91.6v-12c0-0.2,0.1-0.3,0.3-0.3h0.8c0.2,0,0.3,0.1,0.3,0.3v12c0,0.2-0.1,0.3-0.3,0.3h-0.8
			C255.3,91.9,255.1,91.8,255.1,91.6z"/>
		<path class="st1" d="M267.3,91.9H260c-0.2,0-0.3-0.1-0.3-0.3v-12c0-0.2,0.1-0.3,0.3-0.3h0.8c0.2,0,0.3,0.1,0.3,0.3v11h6.2
			c0.2,0,0.3,0.1,0.3,0.3v0.7C267.6,91.8,267.5,91.9,267.3,91.9z"/>
		<path class="st1" d="M269.8,91.6v-12c0-0.2,0.1-0.3,0.3-0.3h3.9c2.6,0,4.6,1.9,4.6,4.9V87c0,3-2,4.9-4.6,4.9h-3.9
			C270,91.9,269.8,91.8,269.8,91.6z M271.2,90.7h2.9c1.8,0,3.2-1.4,3.2-3.6v-2.8c0-2.3-1.5-3.6-3.2-3.6h-2.9V90.7z"/>
		<path class="st1" d="M290,79.1c2.6,0,4.6,1.9,4.6,4.9v3.1c0,3-2,4.9-4.6,4.9c-2.6,0-4.6-1.9-4.6-4.9v-3.1
			C285.4,81.1,287.4,79.1,290,79.1z M290,90.8c1.8,0,3.2-1.3,3.2-3.6v-3.1c0-2.3-1.5-3.7-3.3-3.7s-3.2,1.4-3.2,3.7v3.1
			C286.8,89.5,288.2,90.8,290,90.8z"/>
		<path class="st1" d="M298.5,91.9h-0.8c-0.2,0-0.3-0.1-0.3-0.3v-12c0-0.2,0.1-0.3,0.3-0.3h4.3c2.3,0,3.9,1.2,3.9,3.6v0.3
			c0,1.6-0.9,2.9-2.7,3.4l2.6,4.8c0.1,0.1,0.1,0.2,0.1,0.3c0,0.1-0.1,0.2-0.2,0.2h-1c-0.2,0-0.3-0.1-0.3-0.3l-2.5-4.9h-3v4.8
			C298.8,91.8,298.7,91.9,298.5,91.9z M302,85.5c1.3,0,2.6-0.7,2.6-2.3v-0.3c0-1.8-1.2-2.3-2.6-2.3h-3.2v4.9H302z"/>
		<path class="st1" d="M199.5,102.2h-6.1v4.3h4.9c0.2,0,0.3,0.1,0.3,0.3v0.7c0,0.2-0.1,0.3-0.3,0.3h-4.9v4.5h6.1
			c0.2,0,0.3,0.1,0.3,0.3v0.7c0,0.2-0.1,0.3-0.3,0.3h-7.2c-0.2,0-0.3-0.1-0.3-0.3v-12c0-0.2,0.1-0.3,0.3-0.3h7.2
			c0.2,0,0.3,0.1,0.3,0.3v0.7C199.8,102.1,199.7,102.2,199.5,102.2z"/>
		<path class="st1" d="M210.8,113.3c0,0.1-0.1,0.2-0.2,0.2h-0.9c-0.3,0-0.4-0.1-0.4-0.3l-3.2-5l-3.2,5c-0.1,0.1-0.2,0.3-0.4,0.3
			h-0.9c-0.1,0-0.2-0.1-0.2-0.2c0-0.1,0-0.2,0.1-0.3l3.8-5.9l-3.7-5.7c-0.1-0.1-0.2-0.3-0.2-0.4c0-0.1,0.1-0.2,0.2-0.2h1
			c0.2,0,0.3,0.1,0.4,0.3l3.2,4.9l3.2-4.9c0.1-0.2,0.2-0.3,0.4-0.3h0.9c0.1,0,0.2,0.1,0.2,0.2c0,0.1-0.1,0.3-0.1,0.3l-3.8,5.7
			l3.8,5.8C210.7,113.1,210.8,113.2,210.8,113.3z"/>
		<path class="st1" d="M217.6,108.8h-3.2v4.4c0,0.2-0.1,0.3-0.3,0.3h-0.8c-0.2,0-0.3-0.1-0.3-0.3v-12c0-0.2,0.1-0.3,0.3-0.3h4.3
			c2.3,0,3.9,1.3,3.9,3.7v0.4C221.5,107.3,219.9,108.8,217.6,108.8z M214.3,102.2v5.3h3.2c1.4,0,2.6-0.8,2.6-2.5v-0.4
			c0-1.8-1.2-2.4-2.6-2.4H214.3z"/>
		<path class="st1" d="M232.2,113.3c0,0.1-0.1,0.2-0.2,0.2h-0.9c-0.2,0-0.3-0.1-0.3-0.2l-1.1-3.2h-5.5l-1.1,3.2
			c-0.1,0.2-0.2,0.2-0.3,0.2h-0.9c-0.1,0-0.2-0.1-0.2-0.2c0-0.1,0.1-0.2,0.1-0.4l4.3-11.7c0.1-0.2,0.1-0.3,0.3-0.3h1
			c0.2,0,0.3,0.1,0.3,0.3l4.4,11.9C232.2,113.1,232.2,113.3,232.2,113.3z M229.2,108.9l-2.3-6.4l-2.3,6.4H229.2z"/>
		<path class="st1" d="M243.4,101.2v12c0,0.2-0.1,0.3-0.3,0.3h-0.6c-0.1,0-0.3,0-0.5-0.3l-6.3-10v10c0,0.2-0.1,0.3-0.3,0.3h-0.7
			c-0.2,0-0.3-0.1-0.3-0.3v-12c0-0.2,0.1-0.3,0.3-0.3h0.9c0.2,0,0.3,0.1,0.3,0.3l6.2,9.8v-9.7c0-0.2,0.1-0.3,0.3-0.3h0.7
			C243.3,100.9,243.4,101.1,243.4,101.2z"/>
		<path class="st1" d="M253.2,104c-0.1-1.1-0.6-2.1-2.7-2.1c-1.6,0-2.8,0.4-2.8,2.1c0,3.6,7.1,1.4,7.1,6.1c0,2.6-2.2,3.5-4.3,3.5
			c-3.4,0-4.6-2.4-4.6-3.9c0-0.2,0.1-0.3,0.3-0.3h0.8c0.2,0,0.3,0.1,0.3,0.3c0,0.8,0.6,2.6,3.2,2.6c1.7,0,3-0.6,3-2.3
			c0-3.3-7.1-1.2-7.1-6.1c0-2.3,1.7-3.3,4.2-3.3c3.2,0,4,2,4,3.3c0,0.2-0.1,0.3-0.3,0.3h-0.8C253.3,104.3,253.2,104.2,253.2,104z"/>
		<path class="st1" d="M257.5,113.2v-12c0-0.2,0.1-0.3,0.3-0.3h0.8c0.2,0,0.3,0.1,0.3,0.3v12c0,0.2-0.1,0.3-0.3,0.3h-0.8
			C257.6,113.5,257.5,113.4,257.5,113.2z"/>
		<path class="st1" d="M266.3,100.7c2.6,0,4.6,1.9,4.6,4.9v3.1c0,3-2,4.9-4.6,4.9c-2.6,0-4.6-1.9-4.6-4.9v-3.1
			C261.7,102.7,263.7,100.7,266.3,100.7z M266.3,112.4c1.8,0,3.2-1.3,3.2-3.6v-3.1c0-2.3-1.5-3.7-3.3-3.7s-3.2,1.4-3.2,3.7v3.1
			C263,111.1,264.5,112.4,266.3,112.4z"/>
		<path class="st1" d="M282.8,101.2v12c0,0.2-0.1,0.3-0.3,0.3h-0.6c-0.1,0-0.3,0-0.5-0.3l-6.3-10v10c0,0.2-0.1,0.3-0.3,0.3H274
			c-0.2,0-0.3-0.1-0.3-0.3v-12c0-0.2,0.1-0.3,0.3-0.3h0.9c0.2,0,0.3,0.1,0.3,0.3l6.2,9.8v-9.7c0-0.2,0.1-0.3,0.3-0.3h0.7
			C282.6,100.9,282.8,101.1,282.8,101.2z"/>
	</g>
</g>
<g>
	<g>
		<path class="st1" d="M183,193.6c-0.1,2.2-1.9,4.2-4.5,4.2s-4.6-1.9-4.6-4.9v-3.1c0-3,2-4.9,4.6-4.9s4.2,1.8,4.5,4
			c0,0.2-0.1,0.3-0.3,0.3h-0.9c-0.1,0-0.2-0.1-0.2-0.3c-0.2-1.5-1.3-2.7-3.1-2.7c-1.8,0-3.2,1.3-3.2,3.6v3.1c0,2.3,1.5,3.6,3.3,3.6
			c1.8,0,2.9-1.2,3.1-2.9c0-0.1,0.1-0.2,0.2-0.2h1C182.9,193.4,183,193.5,183,193.6z"/>
		<path class="st1" d="M189.8,184.8c2.6,0,4.6,1.9,4.6,4.9v3.1c0,3-2,4.9-4.6,4.9s-4.6-1.9-4.6-4.9v-3.1
			C185.2,186.8,187.2,184.8,189.8,184.8z M189.9,196.5c1.8,0,3.2-1.3,3.2-3.6v-3.1c0-2.3-1.5-3.7-3.3-3.7c-1.8,0-3.2,1.4-3.2,3.7
			v3.1C186.6,195.2,188.1,196.5,189.9,196.5z"/>
		<path class="st1" d="M206.4,185.3v12c0,0.2-0.1,0.3-0.3,0.3h-0.6c-0.1,0-0.3,0-0.5-0.3l-6.3-10v10c0,0.2-0.1,0.3-0.3,0.3h-0.7
			c-0.2,0-0.3-0.1-0.3-0.3v-12c0-0.2,0.1-0.3,0.3-0.3h0.9c0.2,0,0.3,0.1,0.3,0.3l6.2,9.8v-9.7c0-0.2,0.1-0.3,0.3-0.3h0.7
			C206.2,185,206.4,185.2,206.4,185.3z"/>
		<path class="st1" d="M216.2,188.1c-0.1-1.1-0.6-2.1-2.7-2.1c-1.6,0-2.8,0.4-2.8,2.1c0,3.6,7.1,1.4,7.1,6.1c0,2.6-2.2,3.5-4.3,3.5
			c-3.4,0-4.6-2.4-4.6-3.9c0-0.2,0.1-0.3,0.3-0.3h0.8c0.2,0,0.3,0.1,0.3,0.3c0,0.8,0.6,2.6,3.2,2.6c1.7,0,3-0.6,3-2.3
			c0-3.3-7.1-1.2-7.1-6.1c0-2.3,1.7-3.3,4.2-3.3c3.2,0,4,2,4,3.3c0,0.2-0.1,0.3-0.3,0.3h-0.8C216.3,188.4,216.2,188.3,216.2,188.1z"
			/>
		<path class="st1" d="M219.1,186v-0.7c0-0.2,0.1-0.3,0.3-0.3h8.9c0.2,0,0.3,0.1,0.3,0.3v0.7c0,0.2-0.1,0.3-0.3,0.3h-3.8v11
			c0,0.2-0.1,0.3-0.3,0.3h-0.8c-0.2,0-0.3-0.1-0.3-0.3v-11h-3.8C219.3,186.3,219.1,186.2,219.1,186z"/>
		<path class="st1" d="M231.8,197.6H231c-0.2,0-0.3-0.1-0.3-0.3v-12c0-0.2,0.1-0.3,0.3-0.3h4.3c2.3,0,3.9,1.2,3.9,3.6v0.3
			c0,1.6-0.9,2.9-2.7,3.4l2.6,4.8c0.1,0.1,0.1,0.2,0.1,0.3c0,0.1-0.1,0.2-0.2,0.2h-1c-0.2,0-0.3-0.1-0.3-0.3l-2.5-4.9h-3v4.8
			C232.1,197.5,232,197.6,231.8,197.6z M235.3,191.2c1.4,0,2.6-0.7,2.6-2.3v-0.3c0-1.8-1.2-2.3-2.6-2.3h-3.2v4.9H235.3z"/>
		<path class="st1" d="M249.5,185h0.8c0.2,0,0.3,0.1,0.3,0.3v7.6c0,3-1.8,4.9-4.4,4.9s-4.4-1.9-4.4-4.9v-7.6c0-0.2,0.1-0.3,0.3-0.3
			h0.8c0.2,0,0.3,0.1,0.3,0.3v7.6c0,2.3,1.3,3.6,3.1,3.6c1.8,0,3.1-1.3,3.1-3.6v-7.6C249.2,185.2,249.3,185,249.5,185z"/>
		<path class="st1" d="M262.4,193.6c-0.1,2.2-1.9,4.2-4.5,4.2c-2.6,0-4.6-1.9-4.6-4.9v-3.1c0-3,2-4.9,4.6-4.9s4.2,1.8,4.5,4
			c0,0.2-0.1,0.3-0.3,0.3h-0.9c-0.1,0-0.2-0.1-0.2-0.3c-0.2-1.5-1.3-2.7-3.1-2.7c-1.8,0-3.2,1.3-3.2,3.6v3.1c0,2.3,1.5,3.6,3.3,3.6
			c1.8,0,2.9-1.2,3.1-2.9c0-0.1,0.1-0.2,0.2-0.2h1C262.3,193.4,262.4,193.5,262.4,193.6z"/>
		<path class="st1" d="M263.7,186v-0.7c0-0.2,0.1-0.3,0.3-0.3h8.9c0.2,0,0.3,0.1,0.3,0.3v0.7c0,0.2-0.1,0.3-0.3,0.3h-3.8v11
			c0,0.2-0.1,0.3-0.3,0.3h-0.8c-0.2,0-0.3-0.1-0.3-0.3v-11H264C263.8,186.3,263.7,186.2,263.7,186z"/>
		<path class="st1" d="M275.3,197.3v-12c0-0.2,0.1-0.3,0.3-0.3h0.8c0.2,0,0.3,0.1,0.3,0.3v12c0,0.2-0.1,0.3-0.3,0.3h-0.8
			C275.4,197.6,275.3,197.5,275.3,197.3z"/>
		<path class="st1" d="M284.1,184.8c2.6,0,4.6,1.9,4.6,4.9v3.1c0,3-2,4.9-4.6,4.9s-4.6-1.9-4.6-4.9v-3.1
			C279.5,186.8,281.5,184.8,284.1,184.8z M284.1,196.5c1.8,0,3.2-1.3,3.2-3.6v-3.1c0-2.3-1.5-3.7-3.3-3.7s-3.2,1.4-3.2,3.7v3.1
			C280.8,195.2,282.3,196.5,284.1,196.5z"/>
		<path class="st1" d="M300.6,185.3v12c0,0.2-0.1,0.3-0.3,0.3h-0.6c-0.1,0-0.3,0-0.5-0.3l-6.3-10v10c0,0.2-0.1,0.3-0.3,0.3h-0.7
			c-0.2,0-0.3-0.1-0.3-0.3v-12c0-0.2,0.1-0.3,0.3-0.3h0.9c0.2,0,0.3,0.1,0.3,0.3l6.2,9.8v-9.7c0-0.2,0.1-0.3,0.3-0.3h0.7
			C300.4,185,300.6,185.2,300.6,185.3z"/>
		<path class="st1" d="M190.6,206.9v12c0,0.2-0.1,0.3-0.3,0.3h-0.7c-0.2,0-0.3-0.1-0.3-0.3v-10.4l-4,10.5c-0.1,0.1-0.2,0.2-0.3,0.2
			h-0.7c-0.2,0-0.2-0.1-0.3-0.2l-4-10.5v10.4c0,0.2-0.1,0.3-0.3,0.3H179c-0.2,0-0.3-0.1-0.3-0.3v-12c0-0.2,0.1-0.3,0.3-0.3h1.4
			c0.1,0,0.2,0.1,0.3,0.2l4,10.5l4-10.5c0.1-0.1,0.1-0.2,0.3-0.2h1.4C190.5,206.6,190.6,206.8,190.6,206.9z"/>
		<path class="st1" d="M203.3,219c0,0.1-0.1,0.2-0.2,0.2h-0.9c-0.2,0-0.3-0.1-0.3-0.2l-1.1-3.2h-5.5l-1.1,3.2
			c-0.1,0.2-0.2,0.2-0.3,0.2H193c-0.1,0-0.2-0.1-0.2-0.2c0-0.1,0.1-0.2,0.1-0.4l4.3-11.7c0.1-0.2,0.1-0.3,0.3-0.3h1
			c0.2,0,0.3,0.1,0.3,0.3l4.4,11.9C203.2,218.8,203.3,219,203.3,219z M200.3,214.6l-2.3-6.4l-2.3,6.4H200.3z"/>
		<path class="st1" d="M214.5,206.9v12c0,0.2-0.1,0.3-0.3,0.3h-0.6c-0.1,0-0.3,0-0.5-0.3l-6.3-10v10c0,0.2-0.1,0.3-0.3,0.3h-0.7
			c-0.2,0-0.3-0.1-0.3-0.3v-12c0-0.2,0.1-0.3,0.3-0.3h0.9c0.2,0,0.3,0.1,0.3,0.3l6.2,9.8v-9.7c0-0.2,0.1-0.3,0.3-0.3h0.7
			C214.4,206.6,214.5,206.8,214.5,206.9z"/>
		<path class="st1" d="M227.1,219c0,0.1-0.1,0.2-0.2,0.2H226c-0.2,0-0.3-0.1-0.3-0.2l-1.1-3.2h-5.5L218,219
			c-0.1,0.2-0.2,0.2-0.3,0.2h-0.9c-0.1,0-0.2-0.1-0.2-0.2c0-0.1,0.1-0.2,0.1-0.4l4.3-11.7c0.1-0.2,0.1-0.3,0.3-0.3h1
			c0.2,0,0.3,0.1,0.3,0.3l4.4,11.9C227.1,218.8,227.1,219,227.1,219z M224.1,214.6l-2.3-6.4l-2.3,6.4H224.1z"/>
		<path class="st1" d="M233,213.8v-0.6c0-0.2,0.1-0.3,0.3-0.3h4.1c0.2,0,0.3,0.1,0.3,0.3v5.8c0,0.2-0.1,0.3-0.3,0.3h-0.6
			c-0.2,0-0.3-0.1-0.3-0.3v-1.3c-0.6,1.1-1.9,1.7-3.3,1.7c-2.9,0-4.6-2.2-4.6-4.9v-3.1c0-3,2-4.9,4.6-4.9s4.1,1.7,4.5,3.8
			c0,0.1,0,0.2,0,0.3c0,0.1-0.1,0.2-0.2,0.2h-1c-0.1,0-0.2-0.1-0.2-0.3c-0.2-1.3-1.2-2.7-3.2-2.7c-1.8,0-3.3,1.4-3.3,3.7v3.1
			c0,2.3,1.5,3.6,3.3,3.6c2.3,0,3.2-1.9,3.2-3.1v-0.9h-3.1C233.1,214.1,233,214,233,213.8z"/>
		<path class="st1" d="M248.3,207.9h-6.1v4.3h4.9c0.2,0,0.3,0.1,0.3,0.3v0.7c0,0.2-0.1,0.3-0.3,0.3h-4.9v4.5h6.1
			c0.2,0,0.3,0.1,0.3,0.3v0.7c0,0.2-0.1,0.3-0.3,0.3h-7.2c-0.2,0-0.3-0.1-0.3-0.3v-12c0-0.2,0.1-0.3,0.3-0.3h7.2
			c0.2,0,0.3,0.1,0.3,0.3v0.7C248.6,207.8,248.4,207.9,248.3,207.9z"/>
		<path class="st1" d="M263.1,206.9v12c0,0.2-0.1,0.3-0.3,0.3H262c-0.2,0-0.3-0.1-0.3-0.3v-10.4l-4,10.5c-0.1,0.1-0.2,0.2-0.3,0.2
			h-0.7c-0.2,0-0.2-0.1-0.3-0.2l-4-10.5v10.4c0,0.2-0.1,0.3-0.3,0.3h-0.7c-0.2,0-0.3-0.1-0.3-0.3v-12c0-0.2,0.1-0.3,0.3-0.3h1.4
			c0.1,0,0.2,0.1,0.3,0.2l4,10.5l4-10.5c0.1-0.1,0.1-0.2,0.3-0.2h1.4C262.9,206.6,263.1,206.8,263.1,206.9z"/>
		<path class="st1" d="M273.8,207.9h-6.1v4.3h4.9c0.2,0,0.3,0.1,0.3,0.3v0.7c0,0.2-0.1,0.3-0.3,0.3h-4.9v4.5h6.1
			c0.2,0,0.3,0.1,0.3,0.3v0.7c0,0.2-0.1,0.3-0.3,0.3h-7.2c-0.2,0-0.3-0.1-0.3-0.3v-12c0-0.2,0.1-0.3,0.3-0.3h7.2
			c0.2,0,0.3,0.1,0.3,0.3v0.7C274.1,207.8,274,207.9,273.8,207.9z"/>
		<path class="st1" d="M285.7,206.9v12c0,0.2-0.1,0.3-0.3,0.3h-0.6c-0.1,0-0.3,0-0.5-0.3l-6.3-10v10c0,0.2-0.1,0.3-0.3,0.3h-0.7
			c-0.2,0-0.3-0.1-0.3-0.3v-12c0-0.2,0.1-0.3,0.3-0.3h0.9c0.2,0,0.3,0.1,0.3,0.3l6.2,9.8v-9.7c0-0.2,0.1-0.3,0.3-0.3h0.7
			C285.5,206.6,285.7,206.8,285.7,206.9z"/>
		<path class="st1" d="M287.7,207.6v-0.7c0-0.2,0.1-0.3,0.3-0.3h8.9c0.2,0,0.3,0.1,0.3,0.3v0.7c0,0.2-0.1,0.3-0.3,0.3h-3.8v11
			c0,0.2-0.1,0.3-0.3,0.3h-0.8c-0.2,0-0.3-0.1-0.3-0.3v-11H288C287.9,207.9,287.7,207.8,287.7,207.6z"/>
	</g>
</g>
<g>
	<g>
		<path class="st1" d="M194.1,302.5v-0.6c0-0.2,0.1-0.3,0.3-0.3h4.1c0.2,0,0.3,0.1,0.3,0.3v5.8c0,0.2-0.1,0.3-0.3,0.3h-0.6
			c-0.2,0-0.3-0.1-0.3-0.3v-1.3c-0.6,1.1-1.9,1.7-3.3,1.7c-2.9,0-4.6-2.2-4.6-4.9V300c0-3,2-4.9,4.6-4.9s4.1,1.7,4.5,3.8
			c0,0.1,0,0.2,0,0.3c0,0.1-0.1,0.2-0.2,0.2h-1c-0.1,0-0.2-0.1-0.2-0.3c-0.2-1.3-1.2-2.7-3.2-2.7c-1.8,0-3.3,1.4-3.3,3.7v3.1
			c0,2.3,1.5,3.6,3.3,3.6c2.3,0,3.2-1.9,3.2-3.1v-0.9h-3.1C194.2,302.8,194.1,302.6,194.1,302.5z"/>
		<path class="st1" d="M209.4,296.6h-6.1v4.3h4.9c0.2,0,0.3,0.1,0.3,0.3v0.7c0,0.2-0.1,0.3-0.3,0.3h-4.9v4.5h6.1
			c0.2,0,0.3,0.1,0.3,0.3v0.7c0,0.2-0.1,0.3-0.3,0.3h-7.2c-0.2,0-0.3-0.1-0.3-0.3v-12c0-0.2,0.1-0.3,0.3-0.3h7.2
			c0.2,0,0.3,0.1,0.3,0.3v0.7C209.7,296.5,209.6,296.6,209.4,296.6z"/>
		<path class="st1" d="M221.3,295.6v12c0,0.2-0.1,0.3-0.3,0.3h-0.6c-0.1,0-0.3,0-0.5-0.3l-6.3-10v10c0,0.2-0.1,0.3-0.3,0.3h-0.7
			c-0.2,0-0.3-0.1-0.3-0.3v-12c0-0.2,0.1-0.3,0.3-0.3h0.9c0.2,0,0.3,0.1,0.3,0.3l6.2,9.8v-9.7c0-0.2,0.1-0.3,0.3-0.3h0.7
			C221.1,295.3,221.3,295.4,221.3,295.6z"/>
		<path class="st1" d="M232,296.6h-6.1v4.3h4.9c0.2,0,0.3,0.1,0.3,0.3v0.7c0,0.2-0.1,0.3-0.3,0.3h-4.9v4.5h6.1
			c0.2,0,0.3,0.1,0.3,0.3v0.7c0,0.2-0.1,0.3-0.3,0.3h-7.2c-0.2,0-0.3-0.1-0.3-0.3v-12c0-0.2,0.1-0.3,0.3-0.3h7.2
			c0.2,0,0.3,0.1,0.3,0.3v0.7C232.3,296.5,232.2,296.6,232,296.6z"/>
		<path class="st1" d="M233.7,296.3v-0.7c0-0.2,0.1-0.3,0.3-0.3h8.9c0.2,0,0.3,0.1,0.3,0.3v0.7c0,0.2-0.1,0.3-0.3,0.3h-3.8v11
			c0,0.2-0.1,0.3-0.3,0.3H238c-0.2,0-0.3-0.1-0.3-0.3v-11h-3.8C233.8,296.6,233.7,296.5,233.7,296.3z"/>
		<path class="st1" d="M245.3,307.6v-12c0-0.2,0.1-0.3,0.3-0.3h0.8c0.2,0,0.3,0.1,0.3,0.3v12c0,0.2-0.1,0.3-0.3,0.3h-0.8
			C245.4,307.9,245.3,307.8,245.3,307.6z"/>
		<path class="st1" d="M258.6,303.9c-0.1,2.2-1.9,4.2-4.5,4.2c-2.6,0-4.6-1.9-4.6-4.9V300c0-3,2-4.9,4.6-4.9s4.2,1.8,4.5,4
			c0,0.2-0.1,0.3-0.3,0.3h-0.9c-0.1,0-0.2-0.1-0.2-0.3c-0.2-1.5-1.3-2.7-3.1-2.7c-1.8,0-3.2,1.3-3.2,3.6v3.1c0,2.3,1.5,3.6,3.3,3.6
			c1.8,0,2.9-1.2,3.1-2.9c0-0.1,0.1-0.2,0.2-0.2h1C258.5,303.7,258.6,303.7,258.6,303.9z"/>
		<path class="st1" d="M267.9,298.4c-0.1-1.1-0.6-2.1-2.7-2.1c-1.6,0-2.8,0.4-2.8,2.1c0,3.6,7.1,1.4,7.1,6.1c0,2.6-2.2,3.5-4.3,3.5
			c-3.4,0-4.6-2.4-4.6-3.9c0-0.2,0.1-0.3,0.3-0.3h0.8c0.2,0,0.3,0.1,0.3,0.3c0,0.8,0.6,2.6,3.2,2.6c1.7,0,3-0.6,3-2.3
			c0-3.3-7.1-1.2-7.1-6.1c0-2.3,1.7-3.3,4.2-3.3c3.2,0,4,2,4,3.3c0,0.2-0.1,0.3-0.3,0.3h-0.8C268,298.7,267.9,298.6,267.9,298.4z"/>
		<path class="st1" d="M280,308.1c-3.1,0-4.1-1.9-4.1-3.4c0-1.7,1.1-2.7,2.4-3.5c-0.6-0.7-1.5-1.7-1.5-3.1c0-2.2,1.8-2.9,3.3-2.9
			c1.9,0,3.1,1.3,3.1,2.9c0,1.7-1.5,2.6-3,3.4l3,3.3c0.5-1,0.5-2.3,0.5-3c0-0.2,0.1-0.3,0.3-0.3h0.7c0.2,0,0.3,0.1,0.3,0.3
			c0,0.8-0.1,2.5-0.9,4l1.5,1.6c0.1,0.1,0.2,0.2,0.2,0.3c0,0.1-0.1,0.2-0.2,0.2h-1c-0.1,0-0.2-0.1-0.3-0.1l-0.9-1
			C282.5,307.6,281.5,308.1,280,308.1z M279.1,302.1c-1.1,0.7-1.9,1.4-1.9,2.6c0,1.1,0.7,2.2,2.8,2.2c1.1,0,1.9-0.4,2.4-1
			L279.1,302.1z M281.9,298c0-1.2-0.8-1.7-1.8-1.7c-1.5,0-2,0.8-2,1.7c0,0.9,0.4,1.5,1.3,2.5C280.7,299.9,281.9,299.2,281.9,298z"/>
		<path class="st1" d="M195,325.5c-0.1,2.2-1.9,4.2-4.5,4.2s-4.6-1.9-4.6-4.9v-3.1c0-3,2-4.9,4.6-4.9s4.2,1.8,4.5,4
			c0,0.2-0.1,0.3-0.3,0.3h-0.9c-0.1,0-0.2-0.1-0.2-0.3c-0.2-1.5-1.3-2.7-3.1-2.7c-1.8,0-3.2,1.3-3.2,3.6v3.1c0,2.3,1.5,3.6,3.3,3.6
			c1.8,0,2.9-1.2,3.1-2.9c0-0.1,0.1-0.2,0.2-0.2h1C194.9,325.3,195,325.3,195,325.5z"/>
		<path class="st1" d="M205.3,316.9h0.8c0.2,0,0.3,0.1,0.3,0.3v7.6c0,3-1.8,4.9-4.4,4.9s-4.4-1.9-4.4-4.9v-7.6
			c0-0.2,0.1-0.3,0.3-0.3h0.8c0.2,0,0.3,0.1,0.3,0.3v7.6c0,2.3,1.3,3.6,3.1,3.6c1.8,0,3.1-1.3,3.1-3.6v-7.6
			C205,317,205.1,316.9,205.3,316.9z"/>
		<path class="st1" d="M217,329.5h-7.3c-0.2,0-0.3-0.1-0.3-0.3v-12c0-0.2,0.1-0.3,0.3-0.3h0.8c0.2,0,0.3,0.1,0.3,0.3v11h6.2
			c0.2,0,0.3,0.1,0.3,0.3v0.7C217.3,329.4,217.2,329.5,217,329.5z"/>
		<path class="st1" d="M216.6,317.9v-0.7c0-0.2,0.1-0.3,0.3-0.3h8.9c0.2,0,0.3,0.1,0.3,0.3v0.7c0,0.2-0.1,0.3-0.3,0.3h-3.8v11
			c0,0.2-0.1,0.3-0.3,0.3H221c-0.2,0-0.3-0.1-0.3-0.3v-11h-3.8C216.7,318.2,216.6,318.1,216.6,317.9z"/>
		<path class="st1" d="M228.2,329.2v-12c0-0.2,0.1-0.3,0.3-0.3h0.8c0.2,0,0.3,0.1,0.3,0.3v12c0,0.2-0.1,0.3-0.3,0.3h-0.8
			C228.3,329.5,228.2,329.4,228.2,329.2z"/>
		<path class="st1" d="M242.1,317.1c0,0.1-0.1,0.3-0.1,0.4l-4.4,11.8c-0.1,0.1-0.1,0.2-0.3,0.2h-1c-0.1,0-0.2-0.1-0.3-0.2l-4.4-11.9
			c0,0-0.1-0.2-0.1-0.3c0-0.1,0.1-0.2,0.2-0.2h0.9c0.2,0,0.3,0.1,0.4,0.4l3.8,10.6l3.8-10.6c0.1-0.2,0.1-0.3,0.3-0.3h0.9
			C242,316.9,242.1,317,242.1,317.1z"/>
		<path class="st1" d="M252.2,329.3c0,0.1-0.1,0.2-0.2,0.2h-0.9c-0.2,0-0.3-0.1-0.3-0.2l-1.1-3.2h-5.5l-1.1,3.2
			c-0.1,0.2-0.2,0.2-0.3,0.2h-0.9c-0.1,0-0.2-0.1-0.2-0.2c0-0.1,0.1-0.2,0.1-0.4l4.3-11.7c0.1-0.2,0.1-0.3,0.3-0.3h1
			c0.2,0,0.3,0.1,0.3,0.3l4.4,11.9C252.2,329.1,252.2,329.2,252.2,329.3z M249.2,324.9l-2.3-6.4l-2.3,6.4H249.2z"/>
		<path class="st1" d="M251.7,317.9v-0.7c0-0.2,0.1-0.3,0.3-0.3h8.9c0.2,0,0.3,0.1,0.3,0.3v0.7c0,0.2-0.1,0.3-0.3,0.3h-3.8v11
			c0,0.2-0.1,0.3-0.3,0.3h-0.8c-0.2,0-0.3-0.1-0.3-0.3v-11H252C251.8,318.2,251.7,318.1,251.7,317.9z"/>
		<path class="st1" d="M263.3,329.2v-12c0-0.2,0.1-0.3,0.3-0.3h0.8c0.2,0,0.3,0.1,0.3,0.3v12c0,0.2-0.1,0.3-0.3,0.3h-0.8
			C263.4,329.5,263.3,329.4,263.3,329.2z"/>
		<path class="st1" d="M272.1,316.7c2.6,0,4.6,1.9,4.6,4.9v3.1c0,3-2,4.9-4.6,4.9c-2.6,0-4.6-1.9-4.6-4.9v-3.1
			C267.5,318.7,269.4,316.7,272.1,316.7z M272.1,328.4c1.8,0,3.2-1.3,3.2-3.6v-3.1c0-2.3-1.5-3.7-3.3-3.7s-3.2,1.4-3.2,3.7v3.1
			C268.8,327.1,270.3,328.4,272.1,328.4z"/>
		<path class="st1" d="M288.6,317.2v12c0,0.2-0.1,0.3-0.3,0.3h-0.6c-0.1,0-0.3,0-0.5-0.3l-6.3-10v10c0,0.2-0.1,0.3-0.3,0.3h-0.7
			c-0.2,0-0.3-0.1-0.3-0.3v-12c0-0.2,0.1-0.3,0.3-0.3h0.9c0.2,0,0.3,0.1,0.3,0.3l6.2,9.8v-9.7c0-0.2,0.1-0.3,0.3-0.3h0.7
			C288.4,316.9,288.6,317,288.6,317.2z"/>
		<path class="st1" d="M201.8,339.8h-6.1v4.3h4.9c0.2,0,0.3,0.1,0.3,0.3v0.7c0,0.2-0.1,0.3-0.3,0.3h-4.9v4.5h6.1
			c0.2,0,0.3,0.1,0.3,0.3v0.7c0,0.2-0.1,0.3-0.3,0.3h-7.2c-0.2,0-0.3-0.1-0.3-0.3v-12c0-0.2,0.1-0.3,0.3-0.3h7.2
			c0.2,0,0.3,0.1,0.3,0.3v0.7C202.1,339.7,202,339.8,201.8,339.8z"/>
		<path class="st1" d="M213.1,350.9c0,0.1-0.1,0.2-0.2,0.2H212c-0.3,0-0.4-0.1-0.5-0.3l-3.2-5l-3.2,5c-0.1,0.1-0.2,0.3-0.4,0.3h-0.9
			c-0.1,0-0.2-0.1-0.2-0.2c0-0.1,0-0.2,0.1-0.3l3.8-5.9l-3.7-5.7c-0.1-0.1-0.2-0.3-0.2-0.4c0-0.1,0.1-0.2,0.2-0.2h1
			c0.2,0,0.3,0.1,0.4,0.3l3.2,4.9l3.2-4.9c0.1-0.2,0.2-0.3,0.4-0.3h0.9c0.1,0,0.2,0.1,0.2,0.2c0,0.1-0.1,0.3-0.1,0.3l-3.8,5.7
			l3.8,5.8C213,350.7,213.1,350.8,213.1,350.9z"/>
		<path class="st1" d="M219.9,346.4h-3.2v4.4c0,0.2-0.1,0.3-0.3,0.3h-0.8c-0.2,0-0.3-0.1-0.3-0.3v-12c0-0.2,0.1-0.3,0.3-0.3h4.3
			c2.3,0,3.9,1.3,3.9,3.7v0.4C223.8,344.9,222.2,346.4,219.9,346.4z M216.6,339.8v5.3h3.2c1.4,0,2.6-0.8,2.6-2.5v-0.4
			c0-1.8-1.2-2.4-2.6-2.4H216.6z"/>
		<path class="st1" d="M233.6,339.8h-6.1v4.3h4.9c0.2,0,0.3,0.1,0.3,0.3v0.7c0,0.2-0.1,0.3-0.3,0.3h-4.9v4.5h6.1
			c0.2,0,0.3,0.1,0.3,0.3v0.7c0,0.2-0.1,0.3-0.3,0.3h-7.2c-0.2,0-0.3-0.1-0.3-0.3v-12c0-0.2,0.1-0.3,0.3-0.3h7.2
			c0.2,0,0.3,0.1,0.3,0.3v0.7C234,339.7,233.8,339.8,233.6,339.8z"/>
		<path class="st1" d="M237.5,351.1h-0.8c-0.2,0-0.3-0.1-0.3-0.3v-12c0-0.2,0.1-0.3,0.3-0.3h4.3c2.3,0,3.9,1.2,3.9,3.6v0.3
			c0,1.6-0.9,2.9-2.7,3.4l2.6,4.8c0.1,0.1,0.1,0.2,0.1,0.3c0,0.1-0.1,0.2-0.2,0.2h-1c-0.2,0-0.3-0.1-0.3-0.3l-2.5-4.9h-3v4.8
			C237.8,351,237.7,351.1,237.5,351.1z M241,344.7c1.4,0,2.6-0.7,2.6-2.3v-0.3c0-1.8-1.2-2.3-2.6-2.3h-3.2v4.9H241z"/>
		<path class="st1" d="M246.3,339.5v-0.7c0-0.2,0.1-0.3,0.3-0.3h8.9c0.2,0,0.3,0.1,0.3,0.3v0.7c0,0.2-0.1,0.3-0.3,0.3h-3.8v11
			c0,0.2-0.1,0.3-0.3,0.3h-0.8c-0.2,0-0.3-0.1-0.3-0.3v-11h-3.8C246.5,339.8,246.3,339.7,246.3,339.5z"/>
		<path class="st1" d="M257.9,350.8v-12c0-0.2,0.1-0.3,0.3-0.3h0.8c0.2,0,0.3,0.1,0.3,0.3v12c0,0.2-0.1,0.3-0.3,0.3h-0.8
			C258.1,351.1,257.9,351,257.9,350.8z"/>
		<path class="st1" d="M269.1,341.6c-0.1-1.1-0.6-2.1-2.7-2.1c-1.6,0-2.8,0.4-2.8,2.1c0,3.6,7.1,1.4,7.1,6.1c0,2.6-2.2,3.5-4.3,3.5
			c-3.4,0-4.6-2.4-4.6-3.9c0-0.2,0.1-0.3,0.3-0.3h0.8c0.2,0,0.3,0.1,0.3,0.3c0,0.8,0.6,2.6,3.2,2.6c1.7,0,3-0.6,3-2.3
			c0-3.3-7.1-1.2-7.1-6.1c0-2.3,1.7-3.3,4.2-3.3c3.2,0,4,2,4,3.3c0,0.2-0.1,0.3-0.3,0.3h-0.8C269.3,341.9,269.1,341.8,269.1,341.6z"
			/>
		<path class="st1" d="M280.9,339.8h-6.1v4.3h4.9c0.2,0,0.3,0.1,0.3,0.3v0.7c0,0.2-0.1,0.3-0.3,0.3h-4.9v4.5h6.1
			c0.2,0,0.3,0.1,0.3,0.3v0.7c0,0.2-0.1,0.3-0.3,0.3h-7.2c-0.2,0-0.3-0.1-0.3-0.3v-12c0-0.2,0.1-0.3,0.3-0.3h7.2
			c0.2,0,0.3,0.1,0.3,0.3v0.7C281.2,339.7,281,339.8,280.9,339.8z"/>
	</g>
</g>
<g>
	<g>
		<path class="st1" d="M177.5,560.4v0.2c0,2.6-2.1,3.4-4.2,3.4H169c-0.2,0-0.3-0.1-0.3-0.3v-12c0-0.2,0.1-0.3,0.3-0.3h4.2
			c2.3,0,4,0.9,4,3.2v0.3c0,1.2-0.6,2.1-1.7,2.6C176.8,557.9,177.5,559.1,177.5,560.4z M170,556.8h3.3c1.3,0,2.5-0.4,2.5-1.9v-0.3
			c0-1.6-1.3-1.9-2.6-1.9H170V556.8z M176.1,560.4c0-1.7-1.4-2.3-2.8-2.3H170v4.6h3.3c1.4,0,2.8-0.4,2.8-2.1V560.4z"/>
		<path class="st1" d="M181.2,564h-0.8c-0.2,0-0.3-0.1-0.3-0.3v-12c0-0.2,0.1-0.3,0.3-0.3h4.3c2.3,0,3.9,1.2,3.9,3.6v0.3
			c0,1.6-0.9,2.9-2.7,3.4l2.6,4.8c0.1,0.1,0.1,0.2,0.1,0.3c0,0.1-0.1,0.2-0.2,0.2h-1c-0.2,0-0.3-0.1-0.3-0.3l-2.5-4.9h-3v4.8
			C181.5,563.9,181.4,564,181.2,564z M184.7,557.6c1.4,0,2.6-0.7,2.6-2.3V555c0-1.8-1.2-2.3-2.6-2.3h-3.2v4.9H184.7z"/>
		<path class="st1" d="M200.6,563.8c0,0.1-0.1,0.2-0.2,0.2h-0.9c-0.2,0-0.3-0.1-0.3-0.2l-1.1-3.2h-5.5l-1.1,3.2
			c-0.1,0.2-0.2,0.2-0.3,0.2h-0.9c-0.1,0-0.2-0.1-0.2-0.2c0-0.1,0.1-0.2,0.1-0.4l4.3-11.7c0.1-0.2,0.1-0.3,0.3-0.3h1
			c0.2,0,0.3,0.1,0.3,0.3l4.4,11.9C200.6,563.6,200.6,563.7,200.6,563.8z M197.6,559.4l-2.3-6.4l-2.3,6.4H197.6z"/>
		<path class="st1" d="M211.8,551.7v12c0,0.2-0.1,0.3-0.3,0.3h-0.6c-0.1,0-0.3,0-0.5-0.3l-6.3-10v10c0,0.2-0.1,0.3-0.3,0.3h-0.7
			c-0.2,0-0.3-0.1-0.3-0.3v-12c0-0.2,0.1-0.3,0.3-0.3h0.9c0.2,0,0.3,0.1,0.3,0.3l6.2,9.8v-9.7c0-0.2,0.1-0.3,0.3-0.3h0.7
			C211.7,551.4,211.8,551.5,211.8,551.7z"/>
		<path class="st1" d="M215.1,563.7v-12c0-0.2,0.1-0.3,0.3-0.3h3.9c2.6,0,4.6,1.9,4.6,4.9v2.8c0,3-2,4.9-4.6,4.9h-3.9
			C215.2,564,215.1,563.9,215.1,563.7z M216.4,562.7h2.9c1.8,0,3.2-1.4,3.2-3.6v-2.8c0-2.3-1.5-3.6-3.2-3.6h-2.9V562.7z"/>
		<path class="st1" d="M239.9,560.4v0.2c0,2.6-2.1,3.4-4.2,3.4h-4.3c-0.2,0-0.3-0.1-0.3-0.3v-12c0-0.2,0.1-0.3,0.3-0.3h4.2
			c2.3,0,4,0.9,4,3.2v0.3c0,1.2-0.6,2.1-1.7,2.6C239.2,557.9,239.9,559.1,239.9,560.4z M232.4,556.8h3.3c1.3,0,2.5-0.4,2.5-1.9v-0.3
			c0-1.6-1.3-1.9-2.6-1.9h-3.1V556.8z M238.5,560.4c0-1.7-1.4-2.3-2.8-2.3h-3.3v4.6h3.3c1.4,0,2.8-0.4,2.8-2.1V560.4z"/>
		<path class="st1" d="M250.2,551.4h0.8c0.2,0,0.3,0.1,0.3,0.3v7.6c0,3-1.8,4.9-4.4,4.9c-2.6,0-4.4-1.9-4.4-4.9v-7.6
			c0-0.2,0.1-0.3,0.3-0.3h0.8c0.2,0,0.3,0.1,0.3,0.3v7.6c0,2.3,1.3,3.6,3.1,3.6c1.8,0,3.1-1.3,3.1-3.6v-7.6
			C249.9,551.5,250,551.4,250.2,551.4z"/>
		<path class="st1" d="M254.3,563.7v-12c0-0.2,0.1-0.3,0.3-0.3h0.8c0.2,0,0.3,0.1,0.3,0.3v12c0,0.2-0.1,0.3-0.3,0.3h-0.8
			C254.4,564,254.3,563.9,254.3,563.7z"/>
		<path class="st1" d="M266.5,564h-7.3c-0.2,0-0.3-0.1-0.3-0.3v-12c0-0.2,0.1-0.3,0.3-0.3h0.8c0.2,0,0.3,0.1,0.3,0.3v11h6.2
			c0.2,0,0.3,0.1,0.3,0.3v0.7C266.8,563.9,266.6,564,266.5,564z"/>
		<path class="st1" d="M269,563.7v-12c0-0.2,0.1-0.3,0.3-0.3h3.9c2.6,0,4.6,1.9,4.6,4.9v2.8c0,3-2,4.9-4.6,4.9h-3.9
			C269.1,564,269,563.9,269,563.7z M270.3,562.7h2.9c1.8,0,3.2-1.4,3.2-3.6v-2.8c0-2.3-1.5-3.6-3.2-3.6h-2.9V562.7z"/>
		<path class="st1" d="M280.6,563.7v-12c0-0.2,0.1-0.3,0.3-0.3h0.8c0.2,0,0.3,0.1,0.3,0.3v12c0,0.2-0.1,0.3-0.3,0.3H281
			C280.8,564,280.6,563.9,280.6,563.7z"/>
		<path class="st1" d="M294.3,551.7v12c0,0.2-0.1,0.3-0.3,0.3h-0.6c-0.1,0-0.3,0-0.5-0.3l-6.3-10v10c0,0.2-0.1,0.3-0.3,0.3h-0.7
			c-0.2,0-0.3-0.1-0.3-0.3v-12c0-0.2,0.1-0.3,0.3-0.3h0.9c0.2,0,0.3,0.1,0.3,0.3l6.2,9.8v-9.7c0-0.2,0.1-0.3,0.3-0.3h0.7
			C294.2,551.4,294.3,551.5,294.3,551.7z"/>
		<path class="st1" d="M301.5,558.5v-0.6c0-0.2,0.1-0.3,0.3-0.3h4.1c0.2,0,0.3,0.1,0.3,0.3v5.8c0,0.2-0.1,0.3-0.3,0.3h-0.6
			c-0.2,0-0.3-0.1-0.3-0.3v-1.3c-0.6,1.1-1.9,1.7-3.3,1.7c-2.9,0-4.6-2.2-4.6-4.9v-3.1c0-3,2-4.9,4.6-4.9s4.1,1.7,4.5,3.8
			c0,0.1,0,0.2,0,0.3c0,0.1-0.1,0.2-0.2,0.2h-1c-0.1,0-0.2-0.1-0.2-0.3c-0.2-1.3-1.2-2.7-3.2-2.7c-1.8,0-3.3,1.4-3.3,3.7v3.1
			c0,2.3,1.5,3.6,3.3,3.6c2.3,0,3.2-1.9,3.2-3.1v-0.9h-3.1C301.7,558.8,301.5,558.7,301.5,558.5z"/>
		<path class="st1" d="M201.8,574.3h-6.1v4.3h4.9c0.2,0,0.3,0.1,0.3,0.3v0.7c0,0.2-0.1,0.3-0.3,0.3h-4.9v4.5h6.1
			c0.2,0,0.3,0.1,0.3,0.3v0.7c0,0.2-0.1,0.3-0.3,0.3h-7.2c-0.2,0-0.3-0.1-0.3-0.3v-12c0-0.2,0.1-0.3,0.3-0.3h7.2
			c0.2,0,0.3,0.1,0.3,0.3v0.7C202.1,574.1,202,574.3,201.8,574.3z"/>
		<path class="st1" d="M213.1,585.4c0,0.1-0.1,0.2-0.2,0.2H212c-0.3,0-0.4-0.1-0.5-0.3l-3.2-5l-3.2,5c-0.1,0.1-0.2,0.3-0.4,0.3h-0.9
			c-0.1,0-0.2-0.1-0.2-0.2c0-0.1,0-0.2,0.1-0.3l3.8-5.9l-3.7-5.7c-0.1-0.1-0.2-0.3-0.2-0.4c0-0.1,0.1-0.2,0.2-0.2h1
			c0.2,0,0.3,0.1,0.4,0.3l3.2,4.9l3.2-4.9c0.1-0.2,0.2-0.3,0.4-0.3h0.9c0.1,0,0.2,0.1,0.2,0.2s-0.1,0.3-0.1,0.3l-3.8,5.7l3.8,5.8
			C213,585.2,213.1,585.3,213.1,585.4z"/>
		<path class="st1" d="M219.9,580.8h-3.2v4.4c0,0.2-0.1,0.3-0.3,0.3h-0.8c-0.2,0-0.3-0.1-0.3-0.3v-12c0-0.2,0.1-0.3,0.3-0.3h4.3
			c2.3,0,3.9,1.3,3.9,3.7v0.4C223.8,579.4,222.2,580.8,219.9,580.8z M216.6,574.3v5.3h3.2c1.4,0,2.6-0.8,2.6-2.5v-0.4
			c0-1.8-1.2-2.4-2.6-2.4H216.6z"/>
		<path class="st1" d="M233.6,574.3h-6.1v4.3h4.9c0.2,0,0.3,0.1,0.3,0.3v0.7c0,0.2-0.1,0.3-0.3,0.3h-4.9v4.5h6.1
			c0.2,0,0.3,0.1,0.3,0.3v0.7c0,0.2-0.1,0.3-0.3,0.3h-7.2c-0.2,0-0.3-0.1-0.3-0.3v-12c0-0.2,0.1-0.3,0.3-0.3h7.2
			c0.2,0,0.3,0.1,0.3,0.3v0.7C234,574.1,233.8,574.3,233.6,574.3z"/>
		<path class="st1" d="M237.5,585.6h-0.8c-0.2,0-0.3-0.1-0.3-0.3v-12c0-0.2,0.1-0.3,0.3-0.3h4.3c2.3,0,3.9,1.2,3.9,3.6v0.3
			c0,1.6-0.9,2.9-2.7,3.4l2.6,4.8c0.1,0.1,0.1,0.2,0.1,0.3c0,0.1-0.1,0.2-0.2,0.2h-1c-0.2,0-0.3-0.1-0.3-0.3l-2.5-4.9h-3v4.8
			C237.8,585.5,237.7,585.6,237.5,585.6z M241,579.2c1.4,0,2.6-0.7,2.6-2.3v-0.3c0-1.8-1.2-2.3-2.6-2.3h-3.2v4.9H241z"/>
		<path class="st1" d="M246.3,574v-0.7c0-0.2,0.1-0.3,0.3-0.3h8.9c0.2,0,0.3,0.1,0.3,0.3v0.7c0,0.2-0.1,0.3-0.3,0.3h-3.8v11
			c0,0.2-0.1,0.3-0.3,0.3h-0.8c-0.2,0-0.3-0.1-0.3-0.3v-11h-3.8C246.5,574.3,246.3,574.1,246.3,574z"/>
		<path class="st1" d="M257.9,585.3v-12c0-0.2,0.1-0.3,0.3-0.3h0.8c0.2,0,0.3,0.1,0.3,0.3v12c0,0.2-0.1,0.3-0.3,0.3h-0.8
			C258.1,585.6,257.9,585.5,257.9,585.3z"/>
		<path class="st1" d="M269.1,576.1c-0.1-1.1-0.6-2.1-2.7-2.1c-1.6,0-2.8,0.4-2.8,2.1c0,3.6,7.1,1.4,7.1,6.1c0,2.6-2.2,3.5-4.3,3.5
			c-3.4,0-4.6-2.4-4.6-3.9c0-0.2,0.1-0.3,0.3-0.3h0.8c0.2,0,0.3,0.1,0.3,0.3c0,0.8,0.6,2.6,3.2,2.6c1.7,0,3-0.6,3-2.3
			c0-3.3-7.1-1.2-7.1-6.1c0-2.3,1.7-3.3,4.2-3.3c3.2,0,4,2,4,3.3c0,0.2-0.1,0.3-0.3,0.3h-0.8C269.3,576.4,269.1,576.3,269.1,576.1z"
			/>
		<path class="st1" d="M280.9,574.3h-6.1v4.3h4.9c0.2,0,0.3,0.1,0.3,0.3v0.7c0,0.2-0.1,0.3-0.3,0.3h-4.9v4.5h6.1
			c0.2,0,0.3,0.1,0.3,0.3v0.7c0,0.2-0.1,0.3-0.3,0.3h-7.2c-0.2,0-0.3-0.1-0.3-0.3v-12c0-0.2,0.1-0.3,0.3-0.3h7.2
			c0.2,0,0.3,0.1,0.3,0.3v0.7C281.2,574.1,281,574.3,280.9,574.3z"/>
	</g>
</g>
<g>
	<g>
		<path class="st1" d="M209.7,675.6h-3.2v4.4c0,0.2-0.1,0.3-0.3,0.3h-0.8c-0.2,0-0.3-0.1-0.3-0.3v-12c0-0.2,0.1-0.3,0.3-0.3h4.3
			c2.3,0,3.9,1.3,3.9,3.7v0.4C213.6,674.1,212,675.6,209.7,675.6z M206.4,669v5.3h3.2c1.4,0,2.6-0.8,2.6-2.5v-0.4
			c0-1.8-1.2-2.4-2.6-2.4H206.4z"/>
		<path class="st1" d="M224.3,680.1c0,0.1-0.1,0.2-0.2,0.2h-0.9c-0.2,0-0.3-0.1-0.3-0.2l-1.1-3.2h-5.5l-1.1,3.2
			c-0.1,0.2-0.2,0.2-0.3,0.2H214c-0.1,0-0.2-0.1-0.2-0.2c0-0.1,0.1-0.2,0.1-0.4l4.3-11.7c0.1-0.2,0.1-0.3,0.3-0.3h1
			c0.2,0,0.3,0.1,0.3,0.3l4.4,11.9C224.2,679.9,224.3,680,224.3,680.1z M221.3,675.7l-2.3-6.4l-2.3,6.4H221.3z"/>
		<path class="st1" d="M223.7,668.7V668c0-0.2,0.1-0.3,0.3-0.3h8.9c0.2,0,0.3,0.1,0.3,0.3v0.7c0,0.2-0.1,0.3-0.3,0.3h-3.8v11
			c0,0.2-0.1,0.3-0.3,0.3h-0.8c-0.2,0-0.3-0.1-0.3-0.3v-11H224C223.8,669,223.7,668.8,223.7,668.7z"/>
		<path class="st1" d="M235.3,680v-12c0-0.2,0.1-0.3,0.3-0.3h0.8c0.2,0,0.3,0.1,0.3,0.3v12c0,0.2-0.1,0.3-0.3,0.3h-0.8
			C235.5,680.3,235.3,680.2,235.3,680z"/>
		<path class="st1" d="M247.4,669h-6.1v4.3h4.9c0.2,0,0.3,0.1,0.3,0.3v0.7c0,0.2-0.1,0.3-0.3,0.3h-4.9v4.5h6.1
			c0.2,0,0.3,0.1,0.3,0.3v0.7c0,0.2-0.1,0.3-0.3,0.3h-7.2c-0.2,0-0.3-0.1-0.3-0.3v-12c0-0.2,0.1-0.3,0.3-0.3h7.2
			c0.2,0,0.3,0.1,0.3,0.3v0.7C247.7,668.8,247.6,669,247.4,669z"/>
		<path class="st1" d="M259.3,668v12c0,0.2-0.1,0.3-0.3,0.3h-0.6c-0.1,0-0.3,0-0.5-0.3l-6.3-10v10c0,0.2-0.1,0.3-0.3,0.3h-0.7
			c-0.2,0-0.3-0.1-0.3-0.3v-12c0-0.2,0.1-0.3,0.3-0.3h0.9c0.2,0,0.3,0.1,0.3,0.3l6.2,9.8V668c0-0.2,0.1-0.3,0.3-0.3h0.7
			C259.1,667.7,259.3,667.8,259.3,668z"/>
		<path class="st1" d="M261.4,668.7V668c0-0.2,0.1-0.3,0.3-0.3h8.9c0.2,0,0.3,0.1,0.3,0.3v0.7c0,0.2-0.1,0.3-0.3,0.3h-3.8v11
			c0,0.2-0.1,0.3-0.3,0.3h-0.8c-0.2,0-0.3-0.1-0.3-0.3v-11h-3.8C261.5,669,261.4,668.8,261.4,668.7z"/>
		<path class="st1" d="M206.3,696.4v-0.6c0-0.2,0.1-0.3,0.3-0.3h4.1c0.2,0,0.3,0.1,0.3,0.3v5.8c0,0.2-0.1,0.3-0.3,0.3h-0.6
			c-0.2,0-0.3-0.1-0.3-0.3v-1.3c-0.6,1.1-1.9,1.7-3.3,1.7c-2.9,0-4.6-2.2-4.6-4.9V694c0-3,2-4.9,4.6-4.9s4.1,1.7,4.5,3.8
			c0,0.1,0,0.2,0,0.3c0,0.1-0.1,0.2-0.2,0.2h-1c-0.1,0-0.2-0.1-0.2-0.3c-0.2-1.3-1.2-2.7-3.2-2.7c-1.8,0-3.3,1.3-3.3,3.7v3.1
			c0,2.3,1.5,3.6,3.3,3.6c2.3,0,3.2-1.9,3.2-3.1v-0.9h-3.1C206.4,696.7,206.3,696.6,206.3,696.4z"/>
		<path class="st1" d="M215.2,701.9h-0.8c-0.2,0-0.3-0.1-0.3-0.3v-12c0-0.2,0.1-0.3,0.3-0.3h4.3c2.3,0,3.9,1.2,3.9,3.6v0.3
			c0,1.6-0.9,2.9-2.7,3.4l2.6,4.8c0.1,0.1,0.1,0.2,0.1,0.3c0,0.1-0.1,0.2-0.2,0.2h-1c-0.2,0-0.3-0.1-0.3-0.3l-2.5-4.9h-3v4.8
			C215.5,701.8,215.4,701.9,215.2,701.9z M218.7,695.5c1.4,0,2.6-0.7,2.6-2.3v-0.3c0-1.8-1.2-2.3-2.6-2.3h-3.2v4.9H218.7z"/>
		<path class="st1" d="M229.5,689.1c2.6,0,4.6,1.9,4.6,4.9v3.1c0,3-2,4.9-4.6,4.9s-4.6-1.9-4.6-4.9V694
			C224.8,691,226.8,689.1,229.5,689.1z M229.5,700.8c1.8,0,3.2-1.3,3.2-3.6v-3.1c0-2.3-1.5-3.7-3.3-3.7c-1.8,0-3.2,1.3-3.2,3.7v3.1
			C226.2,699.5,227.7,700.8,229.5,700.8z"/>
		<path class="st1" d="M251.1,689.5c0,0.1,0,0.1-0.1,0.3l-3.3,11.9c0,0.1-0.1,0.2-0.3,0.2h-1c-0.1,0-0.3-0.1-0.3-0.2l-2.7-10.3
			l-2.7,10.3c0,0.1-0.1,0.2-0.3,0.2h-1c-0.1,0-0.3-0.1-0.3-0.2l-3.3-11.9c0-0.1-0.1-0.2-0.1-0.3c0-0.1,0.1-0.2,0.2-0.2h0.9
			c0.1,0,0.3,0.1,0.3,0.3l2.8,10.4l2.8-10.4c0.1-0.2,0.1-0.3,0.3-0.3h0.9c0.1,0,0.3,0.1,0.3,0.3l2.8,10.4l2.8-10.4
			c0-0.1,0.1-0.3,0.3-0.3h0.9C251,689.3,251.1,689.4,251.1,689.5z"/>
		<path class="st1" d="M252.1,690.3v-0.7c0-0.2,0.1-0.3,0.3-0.3h8.9c0.2,0,0.3,0.1,0.3,0.3v0.7c0,0.2-0.1,0.3-0.3,0.3h-3.8v11
			c0,0.2-0.1,0.3-0.3,0.3h-0.8c-0.2,0-0.3-0.1-0.3-0.3v-11h-3.8C252.2,690.6,252.1,690.4,252.1,690.3z"/>
		<path class="st1" d="M271.2,701.6v-5.5h-6.1v5.5c0,0.2-0.1,0.3-0.3,0.3H264c-0.2,0-0.3-0.1-0.3-0.3v-12c0-0.2,0.1-0.3,0.3-0.3h0.8
			c0.2,0,0.3,0.1,0.3,0.3v5.2h6.1v-5.2c0-0.2,0.1-0.3,0.3-0.3h0.8c0.2,0,0.3,0.1,0.3,0.3v12c0,0.2-0.1,0.3-0.3,0.3h-0.8
			C271.3,701.9,271.2,701.8,271.2,701.6z"/>
	</g>
</g>
<g>
	<g>
		<path class="st1" d="M165.6,786.8h-7.3c-0.2,0-0.3-0.1-0.3-0.3v-12c0-0.2,0.1-0.3,0.3-0.3h0.8c0.2,0,0.3,0.1,0.3,0.3v11h6.2
			c0.2,0,0.3,0.1,0.3,0.3v0.7C165.9,786.7,165.7,786.8,165.6,786.8z"/>
		<path class="st1" d="M175.5,775.5h-6.1v4.3h4.9c0.2,0,0.3,0.1,0.3,0.3v0.7c0,0.2-0.1,0.3-0.3,0.3h-4.9v4.5h6.1
			c0.2,0,0.3,0.1,0.3,0.3v0.7c0,0.2-0.1,0.3-0.3,0.3h-7.2c-0.2,0-0.3-0.1-0.3-0.3v-12c0-0.2,0.1-0.3,0.3-0.3h7.2
			c0.2,0,0.3,0.1,0.3,0.3v0.7C175.8,775.3,175.7,775.5,175.5,775.5z"/>
		<path class="st1" d="M182.1,781.3v-0.6c0-0.2,0.1-0.3,0.3-0.3h4.1c0.2,0,0.3,0.1,0.3,0.3v5.8c0,0.2-0.1,0.3-0.3,0.3h-0.6
			c-0.2,0-0.3-0.1-0.3-0.3v-1.3c-0.6,1.1-1.9,1.7-3.3,1.7c-2.9,0-4.6-2.2-4.6-4.9v-3.1c0-3,2-4.9,4.6-4.9s4.1,1.7,4.5,3.8
			c0,0.1,0,0.2,0,0.3c0,0.1-0.1,0.2-0.2,0.2h-1c-0.1,0-0.2-0.1-0.2-0.3c-0.2-1.3-1.2-2.7-3.2-2.7c-1.8,0-3.3,1.4-3.3,3.7v3.1
			c0,2.3,1.5,3.6,3.3,3.6c2.3,0,3.2-1.9,3.2-3.1v-0.9h-3.1C182.2,781.6,182.1,781.5,182.1,781.3z"/>
		<path class="st1" d="M199.3,786.6c0,0.1-0.1,0.2-0.2,0.2h-0.9c-0.2,0-0.3-0.1-0.3-0.2l-1.1-3.2h-5.5l-1.1,3.2
			c-0.1,0.2-0.2,0.2-0.3,0.2H189c-0.1,0-0.2-0.1-0.2-0.2c0-0.1,0.1-0.2,0.1-0.4l4.3-11.7c0.1-0.2,0.1-0.3,0.3-0.3h1
			c0.2,0,0.3,0.1,0.3,0.3l4.4,11.9C199.3,786.4,199.3,786.5,199.3,786.6z M196.3,782.2l-2.3-6.4l-2.3,6.4H196.3z"/>
		<path class="st1" d="M209.1,786.8h-7.3c-0.2,0-0.3-0.1-0.3-0.3v-12c0-0.2,0.1-0.3,0.3-0.3h0.8c0.2,0,0.3,0.1,0.3,0.3v11h6.2
			c0.2,0,0.3,0.1,0.3,0.3v0.7C209.4,786.7,209.2,786.8,209.1,786.8z"/>
		<path class="st1" d="M219.4,787c-3.1,0-4.1-1.9-4.1-3.4c0-1.7,1.1-2.7,2.4-3.5c-0.6-0.7-1.5-1.7-1.5-3.1c0-2.2,1.8-2.9,3.3-2.9
			c1.9,0,3.1,1.3,3.1,2.9c0,1.7-1.5,2.6-3,3.4l3,3.3c0.5-1,0.5-2.2,0.5-3c0-0.2,0.1-0.3,0.3-0.3h0.7c0.2,0,0.3,0.1,0.3,0.3
			c0,0.8-0.1,2.5-0.9,4l1.5,1.6c0.1,0.1,0.2,0.2,0.2,0.3c0,0.1-0.1,0.2-0.2,0.2h-1c-0.1,0-0.2-0.1-0.3-0.1l-0.9-1
			C221.9,786.5,220.9,787,219.4,787z M218.6,780.9c-1.1,0.7-1.9,1.4-1.9,2.6c0,1.1,0.7,2.2,2.8,2.2c1.1,0,1.9-0.4,2.4-1L218.6,780.9
			z M221.3,776.9c0-1.2-0.8-1.7-1.8-1.7c-1.5,0-2,0.8-2,1.7c0,0.9,0.4,1.5,1.3,2.5C220.1,778.8,221.3,778.1,221.3,776.9z"/>
		<path class="st1" d="M239.1,775.5H233v4.7h4.9c0.2,0,0.3,0.1,0.3,0.3v0.7c0,0.2-0.1,0.3-0.3,0.3H233v5c0,0.2-0.1,0.3-0.3,0.3H232
			c-0.2,0-0.3-0.1-0.3-0.3v-12c0-0.2,0.1-0.3,0.3-0.3h7.2c0.2,0,0.3,0.1,0.3,0.3v0.7C239.4,775.3,239.3,775.5,239.1,775.5z"/>
		<path class="st1" d="M241.7,786.5v-12c0-0.2,0.1-0.3,0.3-0.3h0.8c0.2,0,0.3,0.1,0.3,0.3v12c0,0.2-0.1,0.3-0.3,0.3H242
			C241.8,786.8,241.7,786.7,241.7,786.5z"/>
		<path class="st1" d="M255.4,774.5v12c0,0.2-0.1,0.3-0.3,0.3h-0.6c-0.1,0-0.3,0-0.5-0.3l-6.3-10v10c0,0.2-0.1,0.3-0.3,0.3h-0.7
			c-0.2,0-0.3-0.1-0.3-0.3v-12c0-0.2,0.1-0.3,0.3-0.3h0.9c0.2,0,0.3,0.1,0.3,0.3l6.2,9.8v-9.7c0-0.2,0.1-0.3,0.3-0.3h0.7
			C255.2,774.2,255.4,774.3,255.4,774.5z"/>
		<path class="st1" d="M268,786.6c0,0.1-0.1,0.2-0.2,0.2h-0.9c-0.2,0-0.3-0.1-0.3-0.2l-1.1-3.2H260l-1.1,3.2
			c-0.1,0.2-0.2,0.2-0.3,0.2h-0.9c-0.1,0-0.2-0.1-0.2-0.2c0-0.1,0.1-0.2,0.1-0.4l4.3-11.7c0.1-0.2,0.1-0.3,0.3-0.3h1
			c0.2,0,0.3,0.1,0.3,0.3l4.4,11.9C267.9,786.4,268,786.5,268,786.6z M265,782.2l-2.3-6.4l-2.3,6.4H265z"/>
		<path class="st1" d="M279.2,774.5v12c0,0.2-0.1,0.3-0.3,0.3h-0.6c-0.1,0-0.3,0-0.5-0.3l-6.3-10v10c0,0.2-0.1,0.3-0.3,0.3h-0.7
			c-0.2,0-0.3-0.1-0.3-0.3v-12c0-0.2,0.1-0.3,0.3-0.3h0.9c0.2,0,0.3,0.1,0.3,0.3l6.2,9.8v-9.7c0-0.2,0.1-0.3,0.3-0.3h0.7
			C279,774.2,279.2,774.3,279.2,774.5z"/>
		<path class="st1" d="M291.1,782.8c-0.1,2.2-1.9,4.2-4.5,4.2s-4.6-1.9-4.6-4.9v-3.1c0-3,2-4.9,4.6-4.9c2.6,0,4.2,1.8,4.5,4
			c0,0.2-0.1,0.3-0.3,0.3H290c-0.1,0-0.2-0.1-0.2-0.3c-0.2-1.5-1.3-2.7-3.1-2.7c-1.8,0-3.2,1.3-3.2,3.6v3.1c0,2.3,1.5,3.6,3.3,3.6
			c1.8,0,2.9-1.2,3.1-2.9c0-0.1,0.1-0.2,0.2-0.2h1C291.1,782.5,291.1,782.6,291.1,782.8z"/>
		<path class="st1" d="M293.8,786.5v-12c0-0.2,0.1-0.3,0.3-0.3h0.8c0.2,0,0.3,0.1,0.3,0.3v12c0,0.2-0.1,0.3-0.3,0.3h-0.8
			C294,786.8,293.8,786.7,293.8,786.5z"/>
		<path class="st1" d="M307.8,786.6c0,0.1-0.1,0.2-0.2,0.2h-0.9c-0.2,0-0.3-0.1-0.3-0.2l-1.1-3.2h-5.5l-1.1,3.2
			c-0.1,0.2-0.2,0.2-0.3,0.2h-0.9c-0.1,0-0.2-0.1-0.2-0.2c0-0.1,0.1-0.2,0.1-0.4l4.3-11.7c0.1-0.2,0.1-0.3,0.3-0.3h1
			c0.2,0,0.3,0.1,0.3,0.3l4.4,11.9C307.8,786.4,307.8,786.5,307.8,786.6z M304.8,782.2l-2.3-6.4l-2.3,6.4H304.8z"/>
		<path class="st1" d="M317.6,786.8h-7.3c-0.2,0-0.3-0.1-0.3-0.3v-12c0-0.2,0.1-0.3,0.3-0.3h0.8c0.2,0,0.3,0.1,0.3,0.3v11h6.2
			c0.2,0,0.3,0.1,0.3,0.3v0.7C317.9,786.7,317.7,786.8,317.6,786.8z"/>
		<path class="st1" d="M201.8,797.1h-6.1v4.3h4.9c0.2,0,0.3,0.1,0.3,0.3v0.7c0,0.2-0.1,0.3-0.3,0.3h-4.9v4.5h6.1
			c0.2,0,0.3,0.1,0.3,0.3v0.7c0,0.2-0.1,0.3-0.3,0.3h-7.2c-0.2,0-0.3-0.1-0.3-0.3v-12c0-0.2,0.1-0.3,0.3-0.3h7.2
			c0.2,0,0.3,0.1,0.3,0.3v0.7C202.1,796.9,202,797.1,201.8,797.1z"/>
		<path class="st1" d="M213.1,808.2c0,0.1-0.1,0.2-0.2,0.2H212c-0.3,0-0.4-0.1-0.5-0.3l-3.2-5l-3.2,5c-0.1,0.1-0.2,0.3-0.4,0.3h-0.9
			c-0.1,0-0.2-0.1-0.2-0.2c0-0.1,0-0.2,0.1-0.3l3.8-5.9l-3.7-5.7c-0.1-0.1-0.2-0.3-0.2-0.4c0-0.1,0.1-0.2,0.2-0.2h1
			c0.2,0,0.3,0.1,0.4,0.3l3.2,4.9l3.2-4.9c0.1-0.2,0.2-0.3,0.4-0.3h0.9c0.1,0,0.2,0.1,0.2,0.2c0,0.1-0.1,0.3-0.1,0.3l-3.8,5.7
			l3.8,5.8C213,808,213.1,808.1,213.1,808.2z"/>
		<path class="st1" d="M219.9,803.7h-3.2v4.4c0,0.2-0.1,0.3-0.3,0.3h-0.8c-0.2,0-0.3-0.1-0.3-0.3v-12c0-0.2,0.1-0.3,0.3-0.3h4.3
			c2.3,0,3.9,1.3,3.9,3.7v0.4C223.8,802.2,222.2,803.7,219.9,803.7z M216.6,797.1v5.3h3.2c1.4,0,2.6-0.8,2.6-2.5v-0.4
			c0-1.8-1.2-2.4-2.6-2.4H216.6z"/>
		<path class="st1" d="M233.6,797.1h-6.1v4.3h4.9c0.2,0,0.3,0.1,0.3,0.3v0.7c0,0.2-0.1,0.3-0.3,0.3h-4.9v4.5h6.1
			c0.2,0,0.3,0.1,0.3,0.3v0.7c0,0.2-0.1,0.3-0.3,0.3h-7.2c-0.2,0-0.3-0.1-0.3-0.3v-12c0-0.2,0.1-0.3,0.3-0.3h7.2
			c0.2,0,0.3,0.1,0.3,0.3v0.7C234,796.9,233.8,797.1,233.6,797.1z"/>
		<path class="st1" d="M237.5,808.4h-0.8c-0.2,0-0.3-0.1-0.3-0.3v-12c0-0.2,0.1-0.3,0.3-0.3h4.3c2.3,0,3.9,1.2,3.9,3.6v0.3
			c0,1.6-0.9,2.9-2.7,3.4l2.6,4.8c0.1,0.1,0.1,0.2,0.1,0.3c0,0.1-0.1,0.2-0.2,0.2h-1c-0.2,0-0.3-0.1-0.3-0.3l-2.5-4.9h-3v4.8
			C237.8,808.3,237.7,808.4,237.5,808.4z M241,802c1.4,0,2.6-0.7,2.6-2.3v-0.3c0-1.8-1.2-2.3-2.6-2.3h-3.2v4.9H241z"/>
		<path class="st1" d="M246.3,796.8v-0.7c0-0.2,0.1-0.3,0.3-0.3h8.9c0.2,0,0.3,0.1,0.3,0.3v0.7c0,0.2-0.1,0.3-0.3,0.3h-3.8v11
			c0,0.2-0.1,0.3-0.3,0.3h-0.8c-0.2,0-0.3-0.1-0.3-0.3v-11h-3.8C246.5,797.1,246.3,796.9,246.3,796.8z"/>
		<path class="st1" d="M257.9,808.1v-12c0-0.2,0.1-0.3,0.3-0.3h0.8c0.2,0,0.3,0.1,0.3,0.3v12c0,0.2-0.1,0.3-0.3,0.3h-0.8
			C258.1,808.4,257.9,808.3,257.9,808.1z"/>
		<path class="st1" d="M269.1,798.9c-0.1-1.1-0.6-2.1-2.7-2.1c-1.6,0-2.8,0.4-2.8,2.1c0,3.6,7.1,1.4,7.1,6.1c0,2.6-2.2,3.5-4.3,3.5
			c-3.4,0-4.6-2.4-4.6-3.9c0-0.2,0.1-0.3,0.3-0.3h0.8c0.2,0,0.3,0.1,0.3,0.3c0,0.8,0.6,2.6,3.2,2.6c1.7,0,3-0.6,3-2.3
			c0-3.3-7.1-1.2-7.1-6.1c0-2.3,1.7-3.3,4.2-3.3c3.2,0,4,2,4,3.3c0,0.2-0.1,0.3-0.3,0.3h-0.8C269.3,799.2,269.1,799.1,269.1,798.9z"
			/>
		<path class="st1" d="M280.9,797.1h-6.1v4.3h4.9c0.2,0,0.3,0.1,0.3,0.3v0.7c0,0.2-0.1,0.3-0.3,0.3h-4.9v4.5h6.1
			c0.2,0,0.3,0.1,0.3,0.3v0.7c0,0.2-0.1,0.3-0.3,0.3h-7.2c-0.2,0-0.3-0.1-0.3-0.3v-12c0-0.2,0.1-0.3,0.3-0.3h7.2
			c0.2,0,0.3,0.1,0.3,0.3v0.7C281.2,796.9,281,797.1,280.9,797.1z"/>
	</g>
</g>
<g>
	<g>
		<path class="st1" d="M179.6,438.6c0,0.1-0.1,0.2-0.2,0.2h-0.9c-0.2,0-0.3-0.1-0.3-0.2l-1.1-3.2h-5.5l-1.1,3.2
			c-0.1,0.2-0.2,0.2-0.3,0.2h-0.9c-0.1,0-0.2-0.1-0.2-0.2c0-0.1,0.1-0.2,0.1-0.4l4.3-11.7c0.1-0.2,0.1-0.3,0.3-0.3h1
			c0.2,0,0.3,0.1,0.3,0.3l4.4,11.9C179.5,438.4,179.6,438.6,179.6,438.6z M176.6,434.2l-2.3-6.4l-2.3,6.4H176.6z"/>
		<path class="st1" d="M190.1,434.8c-0.1,2.2-1.9,4.2-4.5,4.2s-4.6-1.9-4.6-4.9V431c0-3,2-4.9,4.6-4.9s4.2,1.8,4.5,4
			c0,0.2-0.1,0.3-0.3,0.3H189c-0.1,0-0.2-0.1-0.2-0.3c-0.2-1.5-1.3-2.7-3.1-2.7c-1.8,0-3.2,1.3-3.2,3.6v3.1c0,2.3,1.5,3.6,3.3,3.6
			c1.8,0,2.9-1.2,3.1-2.9c0-0.1,0.1-0.2,0.2-0.2h1C190.1,434.6,190.1,434.7,190.1,434.8z"/>
		<path class="st1" d="M201.6,434.8c-0.1,2.2-1.9,4.2-4.5,4.2s-4.6-1.9-4.6-4.9V431c0-3,2-4.9,4.6-4.9s4.2,1.8,4.5,4
			c0,0.2-0.1,0.3-0.3,0.3h-0.9c-0.1,0-0.2-0.1-0.2-0.3c-0.2-1.5-1.3-2.7-3.1-2.7c-1.8,0-3.2,1.3-3.2,3.6v3.1c0,2.3,1.5,3.6,3.3,3.6
			c1.8,0,2.9-1.2,3.1-2.9c0-0.1,0.1-0.2,0.2-0.2h1C201.5,434.6,201.6,434.7,201.6,434.8z"/>
		<path class="st1" d="M211.7,427.5h-6.1v4.3h4.9c0.2,0,0.3,0.1,0.3,0.3v0.7c0,0.2-0.1,0.3-0.3,0.3h-4.9v4.5h6.1
			c0.2,0,0.3,0.1,0.3,0.3v0.7c0,0.2-0.1,0.3-0.3,0.3h-7.2c-0.2,0-0.3-0.1-0.3-0.3v-12c0-0.2,0.1-0.3,0.3-0.3h7.2
			c0.2,0,0.3,0.1,0.3,0.3v0.7C212.1,427.4,211.9,427.5,211.7,427.5z"/>
		<path class="st1" d="M221,429.3c-0.1-1.1-0.6-2.1-2.7-2.1c-1.6,0-2.8,0.4-2.8,2.1c0,3.6,7.1,1.4,7.1,6.1c0,2.6-2.2,3.5-4.3,3.5
			c-3.4,0-4.6-2.4-4.6-3.9c0-0.2,0.1-0.3,0.3-0.3h0.8c0.2,0,0.3,0.1,0.3,0.3c0,0.8,0.6,2.6,3.2,2.6c1.7,0,3-0.6,3-2.3
			c0-3.3-7.1-1.2-7.1-6.1c0-2.3,1.7-3.3,4.2-3.3c3.2,0,4,2,4,3.3c0,0.2-0.1,0.3-0.3,0.3h-0.8C221.1,429.6,221,429.5,221,429.3z"/>
		<path class="st1" d="M231.7,429.3c-0.1-1.1-0.6-2.1-2.7-2.1c-1.6,0-2.8,0.4-2.8,2.1c0,3.6,7.1,1.4,7.1,6.1c0,2.6-2.2,3.5-4.3,3.5
			c-3.4,0-4.6-2.4-4.6-3.9c0-0.2,0.1-0.3,0.3-0.3h0.8c0.2,0,0.3,0.1,0.3,0.3c0,0.8,0.6,2.6,3.2,2.6c1.7,0,3-0.6,3-2.3
			c0-3.3-7.1-1.2-7.1-6.1c0-2.3,1.7-3.3,4.2-3.3c3.2,0,4,2,4,3.3c0,0.2-0.1,0.3-0.3,0.3h-0.8C231.8,429.6,231.7,429.5,231.7,429.3z"
			/>
		<path class="st1" d="M239.1,427.2v-0.7c0-0.2,0.1-0.3,0.3-0.3h8.9c0.2,0,0.3,0.1,0.3,0.3v0.7c0,0.2-0.1,0.3-0.3,0.3h-3.8v11
			c0,0.2-0.1,0.3-0.3,0.3h-0.8c-0.2,0-0.3-0.1-0.3-0.3v-11h-3.8C239.2,427.5,239.1,427.4,239.1,427.2z"/>
		<path class="st1" d="M254.4,426c2.6,0,4.6,1.9,4.6,4.9v3.1c0,3-2,4.9-4.6,4.9c-2.6,0-4.6-1.9-4.6-4.9V431
			C249.8,428,251.8,426,254.4,426z M254.4,437.7c1.8,0,3.2-1.3,3.2-3.6V431c0-2.3-1.5-3.7-3.3-3.7s-3.2,1.4-3.2,3.7v3.1
			C251.1,436.4,252.6,437.7,254.4,437.7z"/>
		<path class="st1" d="M273.7,438.8h-7.3c-0.2,0-0.3-0.1-0.3-0.3v-12c0-0.2,0.1-0.3,0.3-0.3h0.8c0.2,0,0.3,0.1,0.3,0.3v11h6.2
			c0.2,0,0.3,0.1,0.3,0.3v0.7C274,438.7,273.9,438.8,273.7,438.8z"/>
		<path class="st1" d="M283.7,427.5h-6.1v4.3h4.9c0.2,0,0.3,0.1,0.3,0.3v0.7c0,0.2-0.1,0.3-0.3,0.3h-4.9v4.5h6.1
			c0.2,0,0.3,0.1,0.3,0.3v0.7c0,0.2-0.1,0.3-0.3,0.3h-7.2c-0.2,0-0.3-0.1-0.3-0.3v-12c0-0.2,0.1-0.3,0.3-0.3h7.2
			c0.2,0,0.3,0.1,0.3,0.3v0.7C284,427.4,283.9,427.5,283.7,427.5z"/>
		<path class="st1" d="M292.9,429.3c-0.1-1.1-0.6-2.1-2.7-2.1c-1.6,0-2.8,0.4-2.8,2.1c0,3.6,7.1,1.4,7.1,6.1c0,2.6-2.2,3.5-4.3,3.5
			c-3.4,0-4.6-2.4-4.6-3.9c0-0.2,0.1-0.3,0.3-0.3h0.8c0.2,0,0.3,0.1,0.3,0.3c0,0.8,0.6,2.6,3.2,2.6c1.7,0,3-0.6,3-2.3
			c0-3.3-7.1-1.2-7.1-6.1c0-2.3,1.7-3.3,4.2-3.3c3.2,0,4,2,4,3.3c0,0.2-0.1,0.3-0.3,0.3h-0.8C293,429.6,292.9,429.5,292.9,429.3z"/>
		<path class="st1" d="M303.6,429.3c-0.1-1.1-0.6-2.1-2.7-2.1c-1.6,0-2.8,0.4-2.8,2.1c0,3.6,7.1,1.4,7.1,6.1c0,2.6-2.2,3.5-4.3,3.5
			c-3.4,0-4.6-2.4-4.6-3.9c0-0.2,0.1-0.3,0.3-0.3h0.8c0.2,0,0.3,0.1,0.3,0.3c0,0.8,0.6,2.6,3.2,2.6c1.7,0,3-0.6,3-2.3
			c0-3.3-7.1-1.2-7.1-6.1c0-2.3,1.7-3.3,4.2-3.3c3.2,0,4,2,4,3.3c0,0.2-0.1,0.3-0.3,0.3h-0.8C303.7,429.6,303.6,429.5,303.6,429.3z"
			/>
		<path class="st1" d="M162.3,460.1v-12c0-0.2,0.1-0.3,0.3-0.3h3.9c2.6,0,4.6,1.9,4.6,4.9v2.8c0,3-2,4.9-4.6,4.9h-3.9
			C162.5,460.4,162.3,460.3,162.3,460.1z M163.7,459.1h2.9c1.8,0,3.2-1.4,3.2-3.6v-2.8c0-2.3-1.5-3.6-3.2-3.6h-2.9V459.1z"/>
		<path class="st1" d="M174,460.1v-12c0-0.2,0.1-0.3,0.3-0.3h0.8c0.2,0,0.3,0.1,0.3,0.3v12c0,0.2-0.1,0.3-0.3,0.3h-0.8
			C174.1,460.4,174,460.3,174,460.1z"/>
		<path class="st1" d="M186.2,460.4h-7.3c-0.2,0-0.3-0.1-0.3-0.3v-12c0-0.2,0.1-0.3,0.3-0.3h0.8c0.2,0,0.3,0.1,0.3,0.3v11h6.2
			c0.2,0,0.3,0.1,0.3,0.3v0.7C186.5,460.3,186.4,460.4,186.2,460.4z"/>
		<path class="st1" d="M196.1,447.8h0.8c0.2,0,0.3,0.1,0.3,0.3v7.6c0,3-1.8,4.9-4.4,4.9s-4.4-1.9-4.4-4.9v-7.6
			c0-0.2,0.1-0.3,0.3-0.3h0.8c0.2,0,0.3,0.1,0.3,0.3v7.6c0,2.3,1.3,3.6,3.1,3.6c1.8,0,3.1-1.3,3.1-3.6v-7.6
			C195.8,448,195.9,447.8,196.1,447.8z"/>
		<path class="st1" d="M199,448.8v-0.7c0-0.2,0.1-0.3,0.3-0.3h8.9c0.2,0,0.3,0.1,0.3,0.3v0.7c0,0.2-0.1,0.3-0.3,0.3h-3.8v11
			c0,0.2-0.1,0.3-0.3,0.3h-0.8c-0.2,0-0.3-0.1-0.3-0.3v-11h-3.8C199.2,449.1,199,449,199,448.8z"/>
		<path class="st1" d="M210.6,460.1v-12c0-0.2,0.1-0.3,0.3-0.3h0.8c0.2,0,0.3,0.1,0.3,0.3v12c0,0.2-0.1,0.3-0.3,0.3h-0.8
			C210.8,460.4,210.6,460.3,210.6,460.1z"/>
		<path class="st1" d="M224.6,448c0,0.1-0.1,0.3-0.1,0.4l-4.4,11.8c-0.1,0.1-0.1,0.2-0.3,0.2h-1c-0.1,0-0.2-0.1-0.3-0.2l-4.4-11.9
			c0,0-0.1-0.2-0.1-0.3c0-0.1,0.1-0.2,0.2-0.2h0.9c0.2,0,0.3,0.1,0.4,0.4l3.8,10.6l3.8-10.6c0.1-0.2,0.1-0.3,0.3-0.3h0.9
			C224.5,447.8,224.6,447.9,224.6,448z"/>
		<path class="st1" d="M234.1,449.1H228v4.3h4.9c0.2,0,0.3,0.1,0.3,0.3v0.7c0,0.2-0.1,0.3-0.3,0.3H228v4.5h6.1
			c0.2,0,0.3,0.1,0.3,0.3v0.7c0,0.2-0.1,0.3-0.3,0.3h-7.2c-0.2,0-0.3-0.1-0.3-0.3v-12c0-0.2,0.1-0.3,0.3-0.3h7.2
			c0.2,0,0.3,0.1,0.3,0.3v0.7C234.4,449,234.3,449.1,234.1,449.1z"/>
		<path class="st1" d="M248.7,449.1h-6.1v4.7h4.9c0.2,0,0.3,0.1,0.3,0.3v0.7c0,0.2-0.1,0.3-0.3,0.3h-4.9v5c0,0.2-0.1,0.3-0.3,0.3
			h-0.8c-0.2,0-0.3-0.1-0.3-0.3v-12c0-0.2,0.1-0.3,0.3-0.3h7.2c0.2,0,0.3,0.1,0.3,0.3v0.7C249,449,248.9,449.1,248.7,449.1z"/>
		<path class="st1" d="M258.9,447.8h0.8c0.2,0,0.3,0.1,0.3,0.3v7.6c0,3-1.8,4.9-4.4,4.9c-2.6,0-4.4-1.9-4.4-4.9v-7.6
			c0-0.2,0.1-0.3,0.3-0.3h0.8c0.2,0,0.3,0.1,0.3,0.3v7.6c0,2.3,1.3,3.6,3.1,3.6c1.8,0,3.1-1.3,3.1-3.6v-7.6
			C258.6,448,258.7,447.8,258.9,447.8z"/>
		<path class="st1" d="M272.1,448.1v12c0,0.2-0.1,0.3-0.3,0.3h-0.6c-0.1,0-0.3,0-0.5-0.3l-6.3-10v10c0,0.2-0.1,0.3-0.3,0.3h-0.7
			c-0.2,0-0.3-0.1-0.3-0.3v-12c0-0.2,0.1-0.3,0.3-0.3h0.9c0.2,0,0.3,0.1,0.3,0.3l6.2,9.8v-9.7c0-0.2,0.1-0.3,0.3-0.3h0.7
			C271.9,447.8,272.1,448,272.1,448.1z"/>
		<path class="st1" d="M275.3,460.1v-12c0-0.2,0.1-0.3,0.3-0.3h3.9c2.6,0,4.6,1.9,4.6,4.9v2.8c0,3-2,4.9-4.6,4.9h-3.9
			C275.4,460.4,275.3,460.3,275.3,460.1z M276.6,459.1h2.9c1.8,0,3.2-1.4,3.2-3.6v-2.8c0-2.3-1.5-3.6-3.2-3.6h-2.9V459.1z"/>
		<path class="st1" d="M287,460.1v-12c0-0.2,0.1-0.3,0.3-0.3h0.8c0.2,0,0.3,0.1,0.3,0.3v12c0,0.2-0.1,0.3-0.3,0.3h-0.8
			C287.1,460.4,287,460.3,287,460.1z"/>
		<path class="st1" d="M300.6,448.1v12c0,0.2-0.1,0.3-0.3,0.3h-0.6c-0.1,0-0.3,0-0.5-0.3l-6.3-10v10c0,0.2-0.1,0.3-0.3,0.3h-0.7
			c-0.2,0-0.3-0.1-0.3-0.3v-12c0-0.2,0.1-0.3,0.3-0.3h0.9c0.2,0,0.3,0.1,0.3,0.3l6.2,9.8v-9.7c0-0.2,0.1-0.3,0.3-0.3h0.7
			C300.5,447.8,300.6,448,300.6,448.1z"/>
		<path class="st1" d="M307.9,455v-0.6c0-0.2,0.1-0.3,0.3-0.3h4.1c0.2,0,0.3,0.1,0.3,0.3v5.8c0,0.2-0.1,0.3-0.3,0.3h-0.6
			c-0.2,0-0.3-0.1-0.3-0.3v-1.3c-0.6,1.1-1.9,1.7-3.3,1.7c-2.9,0-4.6-2.2-4.6-4.9v-3.1c0-3,2-4.9,4.6-4.9s4.1,1.7,4.5,3.8
			c0,0.1,0,0.2,0,0.3c0,0.1-0.1,0.2-0.2,0.2h-1c-0.1,0-0.2-0.1-0.2-0.3c-0.2-1.3-1.2-2.7-3.2-2.7c-1.8,0-3.3,1.4-3.3,3.7v3.1
			c0,2.3,1.5,3.6,3.3,3.6c2.2,0,3.2-1.9,3.2-3.1v-0.9h-3.1C308,455.3,307.9,455.2,307.9,455z"/>
	</g>
</g>
<g>
	<path class="st0" d="M388.3,452.2c-0.1-0.6-0.4-1.3-1.7-1.3c-1.1,0-1.8,0.3-1.8,1.3c0,2.3,5.1,0.8,5.1,4.4c0,2-1.7,2.7-3.3,2.7
		c-2.5,0-3.5-1.7-3.5-2.9c0-0.2,0.1-0.3,0.3-0.3h0.8c0.2,0,0.3,0.1,0.3,0.3c0,0.4,0.3,1.6,2,1.6c1.2,0,1.9-0.4,1.9-1.4
		c0-2.2-5.1-0.8-5.1-4.4c0-1.7,1.2-2.5,3.2-2.5c2.3,0,3.1,1.4,3.1,2.5c0,0.2-0.1,0.3-0.3,0.3h-0.8
		C388.4,452.5,388.3,452.4,388.3,452.2z"/>
	<path class="st0" d="M390.9,450.8v-0.7c0-0.2,0.1-0.3,0.3-0.3h6.6c0.2,0,0.3,0.1,0.3,0.3v0.7c0,0.2-0.1,0.3-0.3,0.3h-2.6v7.7
		c0,0.2-0.1,0.3-0.3,0.3h-0.8c-0.2,0-0.3-0.1-0.3-0.3v-7.7h-2.6C391.1,451.2,390.9,451,390.9,450.8z"/>
	<path class="st0" d="M400.7,459.2h-0.8c-0.2,0-0.3-0.1-0.3-0.3v-8.8c0-0.2,0.1-0.3,0.3-0.3h3.4c1.7,0,2.9,0.9,2.9,2.8v0.3
		c0,1.2-0.6,2.2-1.9,2.6l1.7,3.3c0.1,0.1,0.1,0.2,0.1,0.3c0,0.1-0.1,0.2-0.2,0.2h-1c-0.2,0-0.3-0.1-0.3-0.3l-1.7-3.3H401v3.3
		C401,459.1,400.9,459.2,400.7,459.2z M403.2,454.3c0.8,0,1.6-0.4,1.6-1.5v-0.2c0-1.1-0.7-1.5-1.6-1.5H401v3.1H403.2z"/>
	<path class="st0" d="M413.6,451.2h-4.1v2.6h3.3c0.2,0,0.3,0.1,0.3,0.3v0.7c0,0.2-0.1,0.3-0.3,0.3h-3.3v2.7h4.1
		c0.2,0,0.3,0.1,0.3,0.3v0.7c0,0.2-0.1,0.3-0.3,0.3h-5.2c-0.2,0-0.3-0.1-0.3-0.3v-8.8c0-0.2,0.1-0.3,0.3-0.3h5.2
		c0.2,0,0.3,0.1,0.3,0.3v0.7C413.9,451,413.8,451.2,413.6,451.2z"/>
	<path class="st0" d="M423.1,459c0,0.1-0.1,0.2-0.2,0.2h-1c-0.2,0-0.3-0.1-0.3-0.2l-0.7-2h-3.8l-0.7,2c-0.1,0.1-0.2,0.2-0.3,0.2
		h-0.9c-0.1,0-0.2-0.1-0.2-0.2c0-0.1,0-0.2,0.1-0.3l3.1-8.7c0-0.1,0.1-0.2,0.3-0.2h1.1c0.2,0,0.3,0.1,0.3,0.2l3.1,8.7
		C423.1,458.8,423.1,458.9,423.1,459z M420.5,455.7l-1.5-4.2l-1.5,4.2H420.5z"/>
	<path class="st0" d="M433.9,450.1v8.8c0,0.2-0.1,0.3-0.3,0.3h-0.8c-0.2,0-0.3-0.1-0.3-0.3V452l-2.6,7c-0.1,0.1-0.1,0.2-0.3,0.2
		h-0.8c-0.1,0-0.2-0.1-0.3-0.2l-2.6-7v6.9c0,0.2-0.1,0.3-0.3,0.3h-0.8c-0.2,0-0.3-0.1-0.3-0.3v-8.8c0-0.2,0.1-0.3,0.3-0.3h1.4
		c0.1,0,0.2,0.1,0.3,0.2l2.6,7.2l2.7-7.2c0-0.1,0.1-0.2,0.2-0.2h1.4C433.8,449.8,433.9,449.9,433.9,450.1z"/>
	<path class="st0" d="M436.2,458.9v-8.8c0-0.2,0.1-0.3,0.3-0.3h0.8c0.2,0,0.3,0.1,0.3,0.3v8.8c0,0.2-0.1,0.3-0.3,0.3h-0.8
		C436.3,459.2,436.2,459.1,436.2,458.9z"/>
	<path class="st0" d="M446.9,450.1v8.8c0,0.2-0.1,0.3-0.3,0.3h-0.7c-0.1,0-0.3,0-0.5-0.4l-4.1-6.7v6.8c0,0.2-0.1,0.3-0.3,0.3h-0.8
		c-0.2,0-0.3-0.1-0.3-0.3v-8.8c0-0.2,0.1-0.3,0.3-0.3h1c0.2,0,0.3,0.1,0.4,0.3l3.9,6.5v-6.5c0-0.2,0.1-0.3,0.3-0.3h0.8
		C446.8,449.8,446.9,449.9,446.9,450.1z"/>
	<path class="st0" d="M452.3,455.2v-0.7c0-0.2,0.1-0.3,0.3-0.3h3c0.2,0,0.3,0.1,0.3,0.3v4.4c0,0.2-0.1,0.3-0.3,0.3H455
		c-0.2,0-0.3-0.1-0.3-0.3v-0.7c-0.4,0.7-1.3,1.1-2.3,1.1c-2.2,0-3.5-1.6-3.5-3.8v-2.1c0-2.3,1.5-3.8,3.6-3.8c2.1,0,3.2,1.4,3.4,2.9
		c0,0.1,0,0.1,0,0.2c0,0.1-0.1,0.2-0.2,0.2h-1c-0.1,0-0.2-0.1-0.2-0.3c-0.1-0.8-0.7-1.7-2-1.7c-1.2,0-2.2,0.9-2.2,2.4v2.1
		c0,1.6,1,2.4,2.2,2.4c1.4,0,2.1-1.2,2.1-2v-0.5h-1.9C452.5,455.5,452.3,455.3,452.3,455.2z"/>
	<path class="st0" d="M395.4,470.2h-2.3v3c0,0.2-0.1,0.3-0.3,0.3H392c-0.2,0-0.3-0.1-0.3-0.3v-8.8c0-0.2,0.1-0.3,0.3-0.3h3.4
		c1.7,0,2.9,1,2.9,2.8v0.3C398.3,469.1,397.1,470.2,395.4,470.2z M393.2,465.4v3.4h2.2c0.8,0,1.6-0.5,1.6-1.6V467
		c0-1.1-0.7-1.6-1.6-1.6H393.2z"/>
	<path class="st0" d="M406.7,473.3c0,0.1-0.1,0.2-0.2,0.2h-1c-0.2,0-0.3-0.1-0.3-0.2l-0.7-2h-3.8l-0.7,2c-0.1,0.1-0.2,0.2-0.3,0.2
		h-0.9c-0.1,0-0.2-0.1-0.2-0.2c0-0.1,0-0.2,0.1-0.3l3.1-8.7c0-0.1,0.1-0.2,0.3-0.2h1.1c0.2,0,0.3,0.1,0.3,0.2l3.1,8.7
		C406.6,473.1,406.7,473.2,406.7,473.3z M404,470l-1.5-4.2l-1.5,4.2H404z"/>
	<path class="st0" d="M409.3,473.5h-0.8c-0.2,0-0.3-0.1-0.3-0.3v-8.8c0-0.2,0.1-0.3,0.3-0.3h3.4c1.7,0,2.9,0.9,2.9,2.8v0.3
		c0,1.2-0.6,2.2-1.9,2.6l1.7,3.3c0.1,0.1,0.1,0.2,0.1,0.3c0,0.1-0.1,0.2-0.2,0.2h-1c-0.2,0-0.3-0.1-0.3-0.3l-1.7-3.3h-1.9v3.3
		C409.6,473.4,409.5,473.5,409.3,473.5z M411.8,468.6c0.8,0,1.6-0.4,1.6-1.5v-0.2c0-1.1-0.7-1.5-1.6-1.5h-2.2v3.1H411.8z"/>
	<path class="st0" d="M415.8,465.1v-0.7c0-0.2,0.1-0.3,0.3-0.3h6.6c0.2,0,0.3,0.1,0.3,0.3v0.7c0,0.2-0.1,0.3-0.3,0.3h-2.6v7.7
		c0,0.2-0.1,0.3-0.3,0.3H419c-0.2,0-0.3-0.1-0.3-0.3v-7.7h-2.6C415.9,465.4,415.8,465.3,415.8,465.1z"/>
	<path class="st0" d="M431.5,464.4v8.8c0,0.2-0.1,0.3-0.3,0.3h-0.7c-0.1,0-0.3,0-0.5-0.4l-4.1-6.7v6.8c0,0.2-0.1,0.3-0.3,0.3h-0.8
		c-0.2,0-0.3-0.1-0.3-0.3v-8.8c0-0.2,0.1-0.3,0.3-0.3h1c0.2,0,0.3,0.1,0.4,0.3l3.9,6.5v-6.5c0-0.2,0.1-0.3,0.3-0.3h0.8
		C431.4,464.1,431.5,464.2,431.5,464.4z"/>
	<path class="st0" d="M439.3,465.4h-4.1v2.6h3.3c0.2,0,0.3,0.1,0.3,0.3v0.7c0,0.2-0.1,0.3-0.3,0.3h-3.3v2.7h4.1
		c0.2,0,0.3,0.1,0.3,0.3v0.7c0,0.2-0.1,0.3-0.3,0.3h-5.2c-0.2,0-0.3-0.1-0.3-0.3v-8.8c0-0.2,0.1-0.3,0.3-0.3h5.2
		c0.2,0,0.3,0.1,0.3,0.3v0.7C439.6,465.3,439.5,465.4,439.3,465.4z"/>
	<path class="st0" d="M442.6,473.5h-0.8c-0.2,0-0.3-0.1-0.3-0.3v-8.8c0-0.2,0.1-0.3,0.3-0.3h3.4c1.7,0,2.9,0.9,2.9,2.8v0.3
		c0,1.2-0.6,2.2-1.9,2.6l1.7,3.3c0.1,0.1,0.1,0.2,0.1,0.3c0,0.1-0.1,0.2-0.2,0.2h-1c-0.2,0-0.3-0.1-0.3-0.3l-1.7-3.3h-1.9v3.3
		C442.9,473.4,442.8,473.5,442.6,473.5z M445.1,468.6c0.8,0,1.6-0.4,1.6-1.5v-0.2c0-1.1-0.7-1.5-1.6-1.5h-2.2v3.1H445.1z"/>
</g>
<g>
	<defs>
		<rect id="SVGID_1_" x="396.7" y="399.3" width="38.8" height="36.5"/>
	</defs>
	<clipPath id="SVGID_2_">
		<use xlink:href="#SVGID_1_"  style="overflow:visible;"/>
	</clipPath>
	<path class="st2" d="M398.2,407.5c-0.1,0-0.2,0-0.2,0s-0.1,0.1-0.1,0.2c1.2,5.4,4,10.1,8.1,14c2.4,2.3,4.8,3.8,6.5,4.8
		c-2.8-1-7.5-2.5-12.7-2.5c-1,0-2,0.1-3,0.2c-0.1,0-0.2,0.1-0.2,0.1c0,0.1,0,0.2,0.1,0.2c3.9,3.2,8.3,4.8,12.9,4.8
		c1.2,0,2.3-0.1,3.2-0.3c-2.2,0.8-5.8,2.5-8.7,6c-0.1,0.1-0.1,0.2,0,0.2c0,0.1,0.1,0.1,0.2,0.1c3.5-0.9,6.4-2.1,8.5-3.5
		c1.6-1.1,2.4-2.1,2.8-2.6c0,0.9,0,3.3-0.1,4.6c-0.1,1.6-0.1,1.6,0,1.7c0.1,0.1,0.4,0.3,0.5,0.3c0.2,0,0.5-0.1,0.6-0.3
		c0-0.1,0-0.1,0-1.6c0-1.3-0.1-3.7-0.1-4.7c0.4,0.5,1.2,1.5,2.8,2.6c2.1,1.5,5,2.7,8.5,3.5c0.1,0,0.2,0,0.2-0.1c0-0.1,0-0.2,0-0.2
		c-2.9-3.5-6.5-5.2-8.7-6c0.9,0.1,1.9,0.3,3.2,0.3c4.6,0,9-1.6,12.9-4.8c0.1-0.1,0.1-0.1,0.1-0.2c0-0.1-0.1-0.1-0.2-0.1
		c-1-0.1-2-0.2-3-0.2c-5.1,0-9.9,1.5-12.7,2.5c1.7-1,4.1-2.5,6.5-4.8c4.1-3.9,6.8-8.6,8.1-14c0-0.1,0-0.2-0.1-0.2
		c-0.1,0-0.2-0.1-0.2,0c-9.6,5.8-14.6,14.2-16.6,17.8c0.6-1.6,1.3-4.3,1.6-7.7c0.6-6-0.3-12.1-2.7-18.1c0-0.1-0.1-0.1-0.2-0.1
		c-0.1,0-0.2,0.1-0.2,0.1c-2.4,6-3.3,12.1-2.7,18.1c0.3,3.4,1.1,6.1,1.6,7.7C412.8,421.6,407.8,413.3,398.2,407.5"/>
</g>
<line class="st3" x1="95.7" y1="434.2" x2="115.3" y2="434.2"/>
<line class="st3" x1="361.9" y1="434.2" x2="381.6" y2="434.2"/>
<polyline class="st3" points="126.8,799.6 115.4,799.6 115.4,86.4 125.7,86.4 "/>
<polyline class="st3" points="349.9,799.6 361.4,799.6 361.4,86.4 351.1,86.4 "/>
<polygon class="st1" points="380.5,430.7 386.5,434.2 380.5,437.7 "/>
</svg>
