<svg xmlns="http://www.w3.org/2000/svg" xmlns:xlink="http://www.w3.org/1999/xlink" viewBox="0 0 475.85 892.25"><defs><style>.cls-1,.cls-33{fill:none;}.cls-2{fill:#4c4f54;}.cls-27,.cls-3{fill:#a6ba94;}.cls-12,.cls-20,.cls-24,.cls-4{font-size:18px;}.cls-12,.cls-20,.cls-24,.cls-34,.cls-4{fill:#fff;}.cls-12,.cls-20,.cls-24,.cls-27,.cls-4{font-family:Rubik-Regular, Rubik;}.cls-4{letter-spacing:0.01em;}.cls-5{letter-spacing:0.02em;}.cls-6{letter-spacing:-0.05em;}.cls-12,.cls-7{letter-spacing:0.02em;}.cls-8{letter-spacing:-0.01em;}.cls-9{letter-spacing:0.01em;}.cls-10{letter-spacing:-0.01em;}.cls-11,.cls-20{letter-spacing:-0.02em;}.cls-13{letter-spacing:0.01em;}.cls-14,.cls-24{letter-spacing:0.01em;}.cls-15{letter-spacing:-0.1em;}.cls-16{letter-spacing:-0.03em;}.cls-17{letter-spacing:-0.05em;}.cls-18{letter-spacing:0.02em;}.cls-19{letter-spacing:0.01em;}.cls-21{letter-spacing:-0.01em;}.cls-22{letter-spacing:0.02em;}.cls-23{letter-spacing:-0.01em;}.cls-25{letter-spacing:0em;}.cls-26{letter-spacing:0em;}.cls-27{font-size:13.46px;}.cls-27,.cls-30{letter-spacing:0.01em;}.cls-28{letter-spacing:0.02em;}.cls-29{letter-spacing:-0.02em;}.cls-31{letter-spacing:0.02em;}.cls-32{clip-path:url(#clip-path);}.cls-33{stroke:#fff;stroke-miterlimit:10;stroke-width:0.84px;}</style><clipPath id="clip-path"><rect class="cls-1" x="393.7" y="399.31" width="38.81" height="36.48"/></clipPath></defs><title>Asset 1</title><g id="Layer_2" data-name="Layer 2"><g id="Layer_1-2" data-name="Layer 1"><rect class="cls-2" width="475.85" height="892.25"/><path class="cls-3" d="M59.95,447.76c-3.19,0-6.24.09-9.23,0a3.65,3.65,0,0,1-3.18-1.77C46.2,443.43,36.36,424.13,36,423.36c-.08-.15-.06-.67.59-.67,2.62,0,5.25,0,7.87,0a4.11,4.11,0,0,1,3.87,2c1,1.81,11.56,22.79,11.65,23.09"/><path class="cls-3" d="M77.56,447.76c-3.19,0-6.24.09-9.23,0a3.65,3.65,0,0,1-3.18-1.77c-1.34-2.51-11.18-21.82-11.58-22.59-.08-.15-.06-.67.59-.67,2.62,0,5.25,0,7.87,0a4.11,4.11,0,0,1,3.87,2c1,1.81,11.56,22.79,11.65,23.09"/><path class="cls-3" d="M87.76,422.78h0c-.38-.07-2.88-.1-5.36-.1a4.3,4.3,0,0,0-4,2.5c-1.22,2.32-2.38,4.67-3.57,7a.57.57,0,0,0,.48.85c.38.07,2.88.1,5.36.1a4.3,4.3,0,0,0,4-2.5c1.22-2.32,2.38-4.67,3.57-7a.57.57,0,0,0-.48-.85"/><text class="cls-4" transform="translate(178.83 72.05)">C<tspan class="cls-5" x="12.26" y="0">API</tspan><tspan class="cls-6" x="41.9" y="0">T</tspan><tspan class="cls-7" x="51.21" y="0">A</tspan><tspan class="cls-8" x="63.81" y="0">L</tspan><tspan class="cls-5" x="73.89" y="0"> </tspan><tspan class="cls-9" x="78.64" y="0">F</tspan><tspan class="cls-5" x="89.26" y="0">OR </tspan><tspan class="cls-7"><tspan x="-15.43" y="20">INITIA</tspan><tspan class="cls-10" x="36.12" y="20">L</tspan><tspan class="cls-5" x="46.2" y="20" xml:space="preserve"> BUILD OR</tspan></tspan><tspan class="cls-5"><tspan x="8.57" y="40">EX</tspan><tspan class="cls-11" x="31.43" y="40">P</tspan><tspan class="cls-7" x="42.57" y="40">ANSION</tspan></tspan></text><text class="cls-12" transform="translate(169.08 200.31)">CON<tspan class="cls-13" x="37.67" y="0">S</tspan><tspan class="cls-5" x="49" y="0">TRUCTION</tspan><tspan x="6.61" y="20">MAN</tspan><tspan class="cls-14" x="46.71" y="20">A</tspan><tspan x="59.09" y="20">GEMEN</tspan><tspan class="cls-8" x="121.3" y="20">T</tspan></text><text class="cls-12" transform="translate(183.32 308.57)">GENETICS &amp; <tspan x="-4.1" y="20">CU</tspan><tspan class="cls-15" x="21.19" y="20">L</tspan><tspan class="cls-5" x="29.6" y="20">TI</tspan><tspan class="cls-16" x="45.37" y="20">V</tspan><tspan class="cls-17" x="56.53" y="20">A</tspan><tspan class="cls-18" x="67.83" y="20">TION </tspan><tspan class="cls-5"><tspan x="6.81" y="40">EXPE</tspan><tspan class="cls-19" x="52.57" y="40">R</tspan><tspan class="cls-18" x="64.48" y="40">TISE</tspan></tspan></text><text class="cls-12" transform="translate(162.19 555.09)">BRAND BUILDING<tspan class="cls-5"><tspan x="27.94" y="20">EXPE</tspan><tspan class="cls-19" x="73.7" y="20">R</tspan><tspan class="cls-18" x="85.62" y="20">TISE</tspan></tspan></text><text class="cls-20" transform="translate(201.99 673.35)">P<tspan class="cls-17" x="11.14" y="0">A</tspan><tspan class="cls-7" x="22.45" y="0">TIEN</tspan><tspan class="cls-21" x="62.08" y="0">T</tspan><tspan class="cls-7"><tspan x="-1.67" y="20">GR</tspan><tspan class="cls-22" x="23.08" y="20">O</tspan><tspan x="35.45" y="20">WTH</tspan></tspan></text><text class="cls-12" transform="translate(149.03 791.61)">L<tspan class="cls-9" x="10.55" y="0">E</tspan><tspan class="cls-14" x="21.44" y="0">G</tspan><tspan x="33.89" y="0">A</tspan><tspan class="cls-8" x="46.49" y="0">L</tspan><tspan x="56.57" y="0" xml:space="preserve"> &amp; FINANCIA</tspan><tspan class="cls-23" x="163.31" y="0">L</tspan><tspan class="cls-18" x="173.39" y="0" xml:space="preserve"> </tspan><tspan class="cls-5"><tspan x="41.1" y="20">EXPE</tspan><tspan class="cls-19" x="86.86" y="20">R</tspan><tspan class="cls-18" x="98.77" y="20">TISE</tspan></tspan></text><text class="cls-24" transform="translate(162.02 436.83)">A<tspan class="cls-5" x="12.38" y="0">CCESS</tspan><tspan class="cls-10" x="71.1" y="0"> </tspan><tspan class="cls-25" x="75.38" y="0">T</tspan><tspan class="cls-18" x="85.68" y="0">O LESS </tspan><tspan class="cls-7"><tspan x="-6.18" y="20">DI</tspan><tspan class="cls-26" x="11.73" y="20">L</tspan><tspan x="21.93" y="20">UTIVE FUNDING</tspan></tspan></text><text class="cls-27" transform="translate(376.26 459.35)">S<tspan class="cls-28" x="8.47" y="0">TREAMING </tspan><tspan class="cls-29"><tspan x="7.76" y="14.3">P</tspan><tspan class="cls-28" x="16.09" y="14.3">A</tspan><tspan class="cls-30" x="25.51" y="14.3">R</tspan><tspan class="cls-31" x="34.42" y="14.3">TNER</tspan></tspan></text><g class="cls-32"><path class="cls-3" d="M395.26,407.43a.21.21,0,0,0-.31.23,27.45,27.45,0,0,0,8.1,14,33.81,33.81,0,0,0,6.53,4.77,37.42,37.42,0,0,0-12.69-2.54,24.57,24.57,0,0,0-3,.18.21.21,0,0,0-.11.37A19.63,19.63,0,0,0,409.87,429a20.46,20.46,0,0,0-8.75,6,.21.21,0,0,0,.21.34,26.44,26.44,0,0,0,8.51-3.54,11.23,11.23,0,0,0,2.78-2.61c0,.95,0,3.33-.08,4.59-.05,1.6-.05,1.6,0,1.67a.9.9,0,0,0,.55.26.79.79,0,0,0,.57-.28c0-.07,0-.07,0-1.55,0-1.28-.12-3.72-.08-4.68a11.25,11.25,0,0,0,2.78,2.61,26.45,26.45,0,0,0,8.51,3.54.21.21,0,0,0,.21-.34,20.47,20.47,0,0,0-8.75-6,19.63,19.63,0,0,0,16.09-4.58.21.21,0,0,0-.11-.37,24.57,24.57,0,0,0-3-.18,37.42,37.42,0,0,0-12.69,2.54,33.81,33.81,0,0,0,6.53-4.77,27.47,27.47,0,0,0,8.1-14,.21.21,0,0,0-.31-.23c-9.64,5.8-14.57,14.17-16.59,17.78a33.85,33.85,0,0,0,1.63-7.68,39.12,39.12,0,0,0-2.69-18.09.21.21,0,0,0-.39,0,39.11,39.11,0,0,0-2.69,18.09,33.85,33.85,0,0,0,1.63,7.68c-2-3.61-7-12-16.59-17.78"/></g><line class="cls-33" x1="101.84" y1="434.18" x2="121.53" y2="434.18"/><line class="cls-33" x1="356.8" y1="434.18" x2="376.5" y2="434.18"/><polyline class="cls-33" points="133.03 799.92 121.54 799.92 121.54 86.1 131.88 86.1"/><polyline class="cls-33" points="344.77 799.92 356.26 799.92 356.26 86.1 345.92 86.1"/><polygon class="cls-34" points="375.33 430.71 381.35 434.19 375.33 437.67 375.33 430.71"/></g></g></svg>