<?xml version="1.0" encoding="utf-8"?>
<!-- Generator: Adobe Illustrator 21.0.2, SVG Export Plug-In . SVG Version: 6.00 Build 0)  -->
<!DOCTYPE svg PUBLIC "-//W3C//DTD SVG 1.1//EN" "http://www.w3.org/Graphics/SVG/1.1/DTD/svg11.dtd">
<svg version="1.1" id="Layer_1" xmlns="http://www.w3.org/2000/svg" xmlns:xlink="http://www.w3.org/1999/xlink" x="0px" y="0px"
	 viewBox="0 0 166.5 131.3" enable-background="new 0 0 166.5 131.3" xml:space="preserve">
<path fill="#A6C09A" d="M5.3,0h155.9c2.9,0,5.3,2.4,5.3,5.3v12.3c0,2.9-2.4,5.3-5.3,5.3H5.3c-2.9,0-5.3-2.4-5.3-5.3V5.3
	C0,2.4,2.4,0,5.3,0z"/>
<path fill="#A6C09A" d="M5.3,108.4h155.9c2.9,0,5.3,2.4,5.3,5.3V126c0,2.9-2.4,5.3-5.3,5.3H5.3c-2.9,0-5.3-2.4-5.3-5.3v-12.3
	C0,110.8,2.4,108.4,5.3,108.4z"/>
<path fill="#A6C09A" d="M5.3,54.2h155.9c2.9,0,5.3,2.4,5.3,5.3v12.3c0,2.9-2.4,5.3-5.3,5.3H5.3c-2.9,0-5.3-2.4-5.3-5.3V59.5
	C0,56.6,2.4,54.2,5.3,54.2z"/>
</svg>
