<svg xmlns="http://www.w3.org/2000/svg" viewBox="0 0 197.26 34.06"><defs><style>.cls-1{fill:#a7bd97;}</style></defs><title>Asset 2</title><g id="Layer_2" data-name="Layer 2"><g id="Layer_1-2" data-name="Layer 1"><path class="cls-1" d="M32.57,34c-4.33,0-8.46.12-12.51-.05a5,5,0,0,1-4.31-2.4C13.93,28.14.59,2,0,.92-.06.71,0,0,.85,0,4.4,0,8,0,11.51,0,14,0,15.82.94,16.77,2.7,18.09,5.15,32.45,33.61,32.57,34"/><path class="cls-1" d="M56.45,34c-4.33,0-8.46.12-12.51-.05a5,5,0,0,1-4.31-2.4C37.81,28.14,24.47,2,23.93.92c-.11-.21-.08-.9.8-.9,3.56,0,7.12,0,10.67,0,2.48,0,4.31.92,5.26,2.68C42,5.15,56.33,33.61,56.45,34"/><path class="cls-1" d="M70.29.14h0C69.78.05,66.39,0,63,0A5.83,5.83,0,0,0,57.6,3.39c-1.65,3.14-3.23,6.34-4.84,9.5A.77.77,0,0,0,53.42,14c.51.09,3.9.13,7.27.14a5.84,5.84,0,0,0,5.41-3.39c1.65-3.14,3.23-6.34,4.84-9.51A.77.77,0,0,0,70.29.14"/><path class="cls-1" d="M104.64,6.68a3,3,0,0,1-3.11,2.77A3.21,3.21,0,0,1,98.27,6V4.44A3.21,3.21,0,0,1,101.52,1a3,3,0,0,1,3.09,2.76.25.25,0,0,1-.26.29h-1.2c-.13,0-.26-.08-.29-.32a1.28,1.28,0,0,0-1.34-1.14c-.86,0-1.55.66-1.55,1.87V6c0,1.21.69,1.84,1.55,1.84a1.22,1.22,0,0,0,1.34-1.09c0-.18.07-.36.31-.36h1.21a.26.26,0,0,1,.26.28"/><path class="cls-1" d="M113.57,6.19l-1-3.09-1,3.09Zm2.71,2.89a.26.26,0,0,1-.27.26h-1.18a.29.29,0,0,1-.31-.2l-.47-1.42H111l-.47,1.41a.29.29,0,0,1-.28.21h-1.12a.26.26,0,0,1-.27-.26.79.79,0,0,1,.06-.22l2.66-7.48a.38.38,0,0,1,.35-.26h1.32a.38.38,0,0,1,.35.26l2.58,7.39a1.51,1.51,0,0,1,.09.32"/><path class="cls-1" d="M127.31,1.48V9a.37.37,0,0,1-.36.36H126c-.13,0-.31,0-.56-.42l-2.92-5.18V9a.37.37,0,0,1-.36.36h-.93a.37.37,0,0,1-.36-.36V1.48a.37.37,0,0,1,.36-.36h1.28a.55.55,0,0,1,.42.28l2.73,4.9V1.48a.37.37,0,0,1,.36-.36h.93a.37.37,0,0,1,.36.36"/><path class="cls-1" d="M138.93,1.48V9a.37.37,0,0,1-.36.36h-.94c-.13,0-.31,0-.56-.42l-2.92-5.18V9a.37.37,0,0,1-.36.36h-.93a.37.37,0,0,1-.36-.36V1.48a.37.37,0,0,1,.36-.36h1.28a.55.55,0,0,1,.42.28l2.72,4.9V1.48a.37.37,0,0,1,.36-.36h.93a.37.37,0,0,1,.36.36"/><path class="cls-1" d="M148.21,6.19l-1-3.09-1,3.09Zm2.71,2.89a.26.26,0,0,1-.27.26h-1.17a.29.29,0,0,1-.31-.2l-.47-1.42h-3.05l-.47,1.41a.28.28,0,0,1-.28.21h-1.12a.26.26,0,0,1-.27-.26.79.79,0,0,1,.06-.22l2.66-7.48a.38.38,0,0,1,.35-.26h1.31a.38.38,0,0,1,.35.26l2.58,7.39a1.51,1.51,0,0,1,.09.32"/><path class="cls-1" d="M159.78,6.83c0-.6-.45-.85-1.19-.85h-1.39V7.74h1.39c.74,0,1.19-.19,1.19-.83Zm-2.57-2.44h1.27c.59,0,1.13-.06,1.13-.75V3.5c0-.75-.54-.79-1.13-.79h-1.27Zm4.28,2.53V7c0,1.91-1.42,2.31-3.07,2.31h-2.55a.37.37,0,0,1-.36-.36V1.48a.37.37,0,0,1,.36-.36h2.73c1.64,0,2.71.75,2.71,2.29v.16a1.69,1.69,0,0,1-1,1.6,1.86,1.86,0,0,1,1.16,1.75"/><path class="cls-1" d="M166.36,9V1.48a.37.37,0,0,1,.36-.36h1a.37.37,0,0,1,.36.36V9a.37.37,0,0,1-.36.36h-1a.37.37,0,0,1-.36-.36"/><path class="cls-1" d="M177.15,3.3A1,1,0,0,0,176,2.47c-.76,0-1.23.16-1.23.81,0,1.5,4.19.49,4.19,3.74,0,1.8-1.49,2.43-3,2.43-2.13,0-3.07-1.42-3.07-2.52a.37.37,0,0,1,.36-.36h1a.38.38,0,0,1,.34.32c0,.22.15,1.09,1.41,1.09.92,0,1.29-.25,1.29-1,0-1.63-4.19-.61-4.19-3.74,0-1.37.94-2.29,3-2.29,1.83,0,2.81,1.09,2.81,2.27a.37.37,0,0,1-.36.36h-1c-.2,0-.32-.11-.38-.33"/><path class="cls-1" d="M98.16,18.37a2.46,2.46,0,0,1-.09.43L94.44,32.32a.67.67,0,0,1-.64.51H91.65a.67.67,0,0,1-.64-.51l-2.46-9.89-2.37,9.89a.67.67,0,0,1-.64.51H83.45a.65.65,0,0,1-.64-.51L79.17,19a4.33,4.33,0,0,1-.15-.64.47.47,0,0,1,.47-.49h2.16c.21,0,.55.09.68.66L84.53,28l2.37-9.51c.11-.45.36-.66.68-.66h2c.26,0,.55.13.68.66L92.69,28l2.18-9.51c.06-.28.21-.66.68-.66h2.11a.48.48,0,0,1,.49.49"/><path class="cls-1" d="M111.77,32.17V26.79h-5.06v5.38a.67.67,0,0,1-.66.66h-1.77a.67.67,0,0,1-.66-.66V18.54a.67.67,0,0,1,.66-.66H106a.67.67,0,0,1,.66.66v5.34h5.06V18.54a.67.67,0,0,1,.66-.66h1.77a.66.66,0,0,1,.66.66V32.17a.66.66,0,0,1-.66.66h-1.77a.67.67,0,0,1-.66-.66"/><path class="cls-1" d="M130.05,20.78h-5.68v3h4.4a.67.67,0,0,1,.66.66V26a.67.67,0,0,1-.66.66h-4.4v3.23h5.68a.65.65,0,0,1,.66.64v1.6a.67.67,0,0,1-.66.66h-8.12a.67.67,0,0,1-.66-.66V18.54a.67.67,0,0,1,.66-.66h8.12a.67.67,0,0,1,.66.66v1.58a.67.67,0,0,1-.66.66"/><path class="cls-1" d="M144.07,27.11l-1.82-5.62-1.9,5.62ZM149,32.36a.47.47,0,0,1-.49.47h-2.14a.52.52,0,0,1-.56-.36L145,29.88h-5.55l-.85,2.56a.52.52,0,0,1-.51.38h-2a.47.47,0,0,1-.49-.47,1.43,1.43,0,0,1,.11-.41l4.83-13.61a.69.69,0,0,1,.64-.47h2.39a.69.69,0,0,1,.64.47l4.7,13.44a2.68,2.68,0,0,1,.17.58"/><path class="cls-1" d="M151.67,20.12V18.54a.67.67,0,0,1,.66-.66h10.19a.67.67,0,0,1,.66.66v1.58a.67.67,0,0,1-.66.66H159V32.17a.67.67,0,0,1-.66.66h-1.77a.67.67,0,0,1-.66-.66V20.78h-3.55a.67.67,0,0,1-.66-.66"/><path class="cls-1" d="M173.59,30.14c1.56,0,2.86-1.15,2.86-3.35V23.95c0-2.2-1.3-3.37-2.86-3.37s-2.82,1.17-2.82,3.37v2.84c0,2.2,1.26,3.35,2.82,3.35m0-12.47a5.85,5.85,0,0,1,6,6.24v2.88c0,3.74-2.54,6.26-6,6.26s-5.92-2.52-5.92-6.26V23.9c0-3.74,2.5-6.24,5.92-6.24"/><path class="cls-1" d="M197.26,18.54V32.17a.66.66,0,0,1-.66.66h-1.71c-.24,0-.56,0-1-.77l-5.32-9.42v9.53a.66.66,0,0,1-.66.66h-1.69a.66.66,0,0,1-.66-.66V18.54a.67.67,0,0,1,.66-.66h2.33a1,1,0,0,1,.77.51l5,8.91V18.54a.67.67,0,0,1,.66-.66h1.69a.67.67,0,0,1,.66.66"/></g></g></svg>