<?xml version="1.0" encoding="utf-8"?>
<!-- Generator: Adobe Illustrator 21.1.0, SVG Export Plug-In . SVG Version: 6.00 Build 0)  -->
<!DOCTYPE svg PUBLIC "-//W3C//DTD SVG 1.1//EN" "http://www.w3.org/Graphics/SVG/1.1/DTD/svg11.dtd">
<svg version="1.1" id="Layer_1" xmlns="http://www.w3.org/2000/svg" xmlns:xlink="http://www.w3.org/1999/xlink" x="0px" y="0px"
	 viewBox="0 0 544.4 536" enable-background="new 0 0 544.4 536" xml:space="preserve">
<title>Asset 1</title>
<g>
	<path fill="#666666" d="M362.6,288.7c1.9,0.9,3.8,1.8,5.6,2.8c1.4,0.7,2.7,1.5,4.1,2.3c1.5,0.9,3.2,1.7,4.2,3.2
		c0.1,0.6,0.1,1.2,0.2,1.7c0.4,1.5,1.6,2,3.1,2.2c3.4,0.4,6.8,0.8,10.1,1.9c0.1,0,0.2,0.1,0.5,0.3c0,0.4,0.1,0.9,0,1.4
		c-0.4,1.8-0.3,3.6,0.3,5.4c0.4,1.3,0.9,2.5,1.2,3.8c0.3,1.1,0.5,2.2,0.7,3.3c0.1,0.7,0.3,1.4,0.8,1.8c1.2,1.2,1.8,2.8,2.6,4.2
		c0.1,0.2,0.2,0.4,0.4,0.6c1.3-0.1,2.6-0.2,3.9-0.3c1.3,1,2.5,1.9,3.8,2.8c0.7,0.5,1.4,0.7,2.1,1.1c0.4,0.2,0.8,0.5,1.3,0.9
		c1.8-1.2,3.7-2.5,4.2-5c0.2-0.9,0.5-1.8,1.5-2.4c1-0.6,1.1-1.8,1.4-2.8c0.4-1.4,0.3-2.9,0.3-4.3c0-0.8-0.2-1.7-0.5-2.5
		c-0.3-0.7-0.3-1.3-0.2-2c0.2-1.2,0.5-2.4,0.8-3.5c0.2-0.7,0.5-1.5,1.3-1.9c0.5,0.2,0.8,0.6,0.9,1.2c0.3,1.4,0.7,2.8,1.5,4
		c0.4,0.6,0.7,1.3,1.4,1.7c0.4,0.2,0.7,0.8,0.8,1.3c0.3,0.8,0.5,1.6,0.6,2.5c0.1,0.8,0.2,1.6,0.3,2.5c0.8,0.1,1.6-0.1,2.4,0.1
		c0.8,0.1,1.5-0.6,2.2-0.1c0,1.2-0.1,2.2-0.1,3.2c0,1.2-0.2,2.3-0.4,3.4c-0.3,1.3-0.4,2.6,1.3,3.4c0.9,0.5,1.8,1,2.8,1.3
		c0.7,0.2,1.2,0.7,1.4,1.3c0.2,0.5,0.3,0.9,0.3,1.4c0.1,1.5,0.2,3,0.3,4.6c0.1,1.8,0.5,3.6,0.9,5.4c0.2,1,0.5,1.9,0.7,2.8
		c0.2,0.9,0.6,1.6,1.4,2.2c0.7,0.5,1.2,1.2,1.6,2c0.7,1.3,1.6,2.5,1.7,4c0,0.4,0.4,0.8,0.7,1.1c0.8,0.8,1.3,1.8,1.8,2.9
		c0.3,0.7,0.3,1.5,0,2.2c-0.4,1-0.8,2-1.3,3c-2.3-0.3-4.5-0.6-6.8-0.9c-0.8,0.9-1.6,1.8-2.3,2.6c-0.8,0.3-1.3-0.1-1.9-0.4
		c-1.9-1.1-3.9-1.5-6.1-1.3c-0.2,0.5-0.4,0.9-0.5,1.3c-0.2,0.8-0.7,1.5-1.4,1.9c-0.8,0.4-1.1,1.1-1.1,2c0,1-0.4,1.7-1,2.4
		c-0.3,0.3-0.6,0.7-0.9,1c-0.9,1.1-0.4,2.3-0.2,3.3c0.3,1.2,0.9,2.2,1.7,3.2c0.9,1.1,1.9,2,3,2.9c0.4,0.3,0.8,0.5,1.3,0.7
		c1.4,0.8,1.7,1.5,1.3,3.1c-0.2,0.7-0.4,1.4-0.5,2.1c0.7,1.7,2.6,2.6,4.5,2.2c0.4-0.1,0.9-0.3,1.3-0.4c0.3-0.1,0.7,0,1.1-0.1
		c0.2,0.8,0.4,1.5,0.4,2.2c0.1,1.2,0.7,2.2,1.4,3.1c0.8,0.9,2,0.8,2.9,0.6c1.4-0.4,2.6-0.1,3.8,0.7c0.7,0.5,1.5,0.8,2.4,0.7
		c0.8-0.1,1.5,0,2.3,0.2c1,0.2,2.1,0.2,3.1-0.3c0.4-0.7,0.6-1.6,0.7-2.5c0.1-1.5,0.4-3.1,0.6-4.6c0.7-0.2,1.2,0.3,1.7,0.5
		c1.1,0.6,2.3,0.9,3.5,0.7c1-0.2,1.9-0.5,2.8-0.8c3.6-1.1,7-2.4,10.5-3.7c4.4-1.7,8.9-3.4,13.3-5c2.5-0.9,5-1.8,7.4-2.7
		c1.6-0.5,3.2-0.8,4.7-1.6c0.1-0.1,0.4,0,0.6,0c1.1,1.3,2.2,2.6,3,4.2c-1,0.9-1.9,1.7-2.9,2.5c-1.8,1.4-3.6,2.7-4.8,4.6
		c-0.4,0.6-0.8,1.1-1,1.7c-0.8,2.9-2.2,5.6-3.5,8.3c-0.2,0.4-0.5,0.8-0.6,1.2c-0.2,1.1-1,1.8-1.8,2.3c-1.8,1.2-3.7,2.3-5.7,3.2
		c-4,1.8-8.2,2.8-12.3,4c-2,0.6-4,1.2-6,1.9c-3.9,1.2-7.7,2.5-11.6,3.8c-2.1,0.7-4.2,1.6-6.1,2.7c-1.1,0.6-1.9,1.5-2.3,2.7
		c-0.4,1.5-0.7,2.9-1.1,4.4c-0.3,0.9-0.5,1.9-0.8,2.8c-0.2,0.7-0.5,1.5-1.2,2c-1.1-0.2-1.9,0.5-2.7,1.2c-1.6,1.4-3,3.1-4,5
		c-0.6,1.2-1.2,2.5-1.8,3.7c-0.7,1.5-1.6,2.9-2.3,4.4c-0.3,0.6-0.5,1.3-0.7,2c-0.5,1.5-1,3-1.8,4.5c-1,1.9-2.1,3.8-3.3,5.6
		c-0.9,1.4-2,2.7-3,4.1c-0.3,0.5-0.7,1-1.1,1.4c-0.6,0.6-1.4,1.2-2,1.8c-1.1,1-2.1,1.9-3.2,2.9c-1.2,1.2-2.5,2.4-3.6,3.7
		c-0.9,1-1.7,2.1-2.5,3.1c0,0,0,0.2,0.1,0.4c0.8-0.8,1.5-1.5,2.2-2.2c1.3-1.3,2.5-2.7,3.8-4c1.8-1.9,3.8-3.4,5.8-5
		c0.8-0.7,1.5-1.5,2.2-2.4c0.6-0.6,1.1-1.3,1.7-1.9c1.3-1.3,2.2-3,3.1-4.6c1.1-2,2.4-4,2.8-6.2c0.4-2.4,2-4.1,3.4-5.8
		c1.1-1.4,2.4-2.6,3.6-3.9c2.7-2.9,5.9-5.4,9.3-7.6c2-1.3,4-2.7,6.1-3.9c1.7-1,3.6-1.7,5.5-2.1c2.1-0.4,3.9,0.3,5.6,1.1
		c1.2,0.6,1.7,1.8,2.1,2.9c0.7,1.9,0.6,3.7-0.6,5.4c-0.8,1.2-1.7,2.3-2.7,3.3c-0.9,1-2.1,1.5-3.6,1.7c-2.9,0.3-5.7,0.7-8.5,1.8
		c-0.8,0.3-1.5,0.7-2.2,1.3c-1.2,1-2.6,1.6-4.2,1.8c-1.2,0.1-2.3,0.2-3.5,0.2c-1.6,0.1-2.3,0.8-2.3,2.5c0,1.4,0.2,2.8,0.3,4.2
		c0,0.4,0,0.8-0.1,1.3c-1.4,0.2-2.6,0.7-4,0.3c-1-0.3-1.6-0.1-2,1c-0.7,1.6-1.3,3.2-1.8,4.8c-0.4,1.4-0.7,2.8-1,4.3
		c-0.2,0.7-0.3,1.5-0.3,2.2c-0.2,1.6-0.3,3.3-0.6,4.9c-0.3,1.9-0.5,3.9-1.2,5.7c-0.6,1.6-1.6,2.8-2.9,3.8c-0.6,0.4-1.2,0.9-1.5,1.5
		c-0.9,1.5-2.3,2.2-4,2.6c-2,0.4-3.9,0.8-5.9,1.2c-1.7,0.3-3.4,0.6-5.1,0.9c-1.3,0.2-2.6,0.4-4,0.5c-0.7,0-1.5-0.2-2.1-0.2
		c-1.3-1.4-1.4-3.1-1.8-4.7c-1.7-0.8-3.2-0.3-4.8,0.4c-1.1,0.5-2.2,1.1-3.2,1.7c-0.8,0.5-1.5,0.7-2.4,0.7c-1.5,0-3.1,0-4.7,0
		c-0.5-0.6-1-1.2-1.5-1.8c-0.4-0.4-0.8-0.8-1.4-1c-1.2-0.4-2.3-0.9-3.4-1.6c-1.5-0.9-3.1-1.1-4.7-1.3c-1.1-0.1-2.2-0.3-3.3-0.6
		c-2.4-0.7-4.7-1.7-6.8-3.2c-1.2-0.9-1.9-2.3-2.5-3.6c-0.6-1.3-1-2.6-1.2-4c-0.1-1.1-0.3-2.3-0.5-3.4c-0.2-1.3-0.3-2.6-0.5-3.8
		c-0.1-0.8-0.2-1.5-0.3-2.3c-0.1-1.1-0.2-2.2-0.3-3.3c-0.1-1.2-0.3-2.4-0.5-3.6c-0.1-0.8-0.2-1.7-0.3-2.5c-0.1-1.1-0.2-2.2-0.3-3.3
		c-0.1-1.1-0.4-2.3-0.5-3.4c-0.1-1.1-0.2-2.1-0.3-3.2c-0.1-1.1-0.3-2.3-0.5-3.4c0-0.2-0.1-0.4-0.1-0.7c-0.2-1.4-0.4-2.7-0.5-4.1
		c-0.1-1.1-0.2-2.1-0.3-3.2c-0.1-1-0.3-2-0.4-3c-0.1-0.5-0.1-1-0.1-1.3c0.5-0.9,1.3-0.7,2.1-1.1c0-0.5,0.1-1.1,0.1-1.7
		c0-0.8,0.1-1.5,0.6-2.1c0.5-0.6,0.8-1.4,1.1-2.1c0.3-0.6,0.3-1.3,0-2c-0.5-1.2-0.8-2.5-1.4-3.6c-1.1-2.2-1.9-4.6-2.8-6.8
		c0,0,0-0.1,0-0.1c-1-1.3-1-2.9-1.1-4.5c-0.2-1.9-0.7-3.7-2.5-4.8c-0.3-0.2-0.6-0.7-0.7-1.1c-0.2-1.2-0.7-2.3-1.4-3.3
		c-0.2-0.3-0.2-0.8-0.4-1.3c1-0.8,1.9-1.6,2.9-2.3c2-1.3,3.8-2.7,5.4-4.5c1.4-1.6,3-3,4-4.8c0.8-1.5,1.5-3.1,2.3-4.6
		c0.7-1.4,1-3,1.3-4.5c0.1-0.5,0.1-1,0-1.5c-0.1-1.4-0.3-2.7-0.5-4.1c-0.2-1.8-0.9-3.4-1.4-5.2c-0.2-0.7-0.4-1.5-0.6-2.2
		c-0.4-1.4-1.2-2.7-2.2-3.8c-1.5-1.6-3.1-3.1-5.1-4.2c-1.6-0.9-3-1.9-4.3-3.3c-0.2-0.3-0.4-0.6-0.7-0.8c-1.2-1.5-0.6-3-0.1-4.6
		c0.2-0.5,0.5-1,0.6-1.5c0.2-0.7,0.5-1.3,1.1-1.8c0.7-0.6,1-1.3,0.9-2.2c-0.2-1.6,0.4-3,1.4-4.4c-0.1-0.7-0.2-1.4-0.4-2.2
		c-0.1-0.7-0.4-1.3-0.5-1.9c-0.6-2-1.5-3.9-2.8-5.6c-0.2-0.2-0.4-0.5-0.4-0.8c-0.2-1-0.5-1.9-0.5-2.9c-0.1-1.7,0-3.3,0-5
		c0-1.2-0.3-2.2-0.9-3.3c-0.7-1.1-1.2-2.4-1.7-3.6c-0.3-0.6-0.5-1.2-0.8-2c0.5-1,1-2.1,1.6-3.2c0.4-0.8,1.1-1.2,2-1.4
		c2.1-0.4,4.1-0.2,6.2-0.2c0.7,0,1.5,0.3,2.2,0.5c1.7,0.5,3.5,0.9,5.3,0.8c0.8,0,1.6-0.2,2.2-0.7c0.9-0.7,1.8-1.5,2.7-2.2
		C361.7,289.5,362.1,289.2,362.6,288.7z"/>
	<path fill="#666666" d="M74.3,215.9c0.2-0.9,0.3-1.7,0.4-2.4c0.6-0.8,1.3-1.3,2.2-1.6c1-0.2,1.3-1.1,1.5-1.9c0.2-1.5,0.3-3,0.4-4.7
		c-0.9-0.8-1.9-1.6-2.6-2.3c-0.5-2.3,0.4-3.9,1.1-5.6c0.5-1.3,1.2-2.6,1.7-4c0.6-1.6,0.2-2.9-1.2-4c-1.1-0.8-2.2-1.6-3.4-2.4
		c-1-0.7-1.9-1.4-2.7-2.4c0.1-0.3,0.1-0.6,0.3-0.9c0.8-1.8,1.5-3.6,2.3-5.4c0.9-1.9,1.8-3.8,2.7-5.7c1.3-2.5,2.6-5,4.2-7.3
		c0.3-0.4,0.6-0.8,0.9-1.2c0.6,0.7,1.2,1.3,1.8,2.1c0.4-1.5,0.1-2.8,0.3-4.2c0.2-0.1,0.5-0.5,0.9-0.6c2.5-0.4,5-0.9,7.6-0.8
		c0.2,0,0.4,0,0.5,0c0.8,0.5,1,1.2,1,2.1c0,0.7,0,1.3,0.1,2.1c0.7,0,1.3,0.1,1.9,0.1c0.8-0.8,1.7-1,2.8-1.2c1-0.2,2.1-0.1,3.1-0.2
		c2-0.3,4-0.3,6-0.7c2.4-0.4,4.9-0.3,7.1,0.9c0.6,0.3,1.2,0.6,1.4,1.5c-0.2,0.7-0.4,1.4-0.7,2.2c1.7,0.6,3.2,0.5,4.8-0.6
		c1-0.7,2-0.9,3.2-0.3c0.7,0.3,1.1,0.8,1.2,1.7c0.1,2.4,0.2,4.8,0.3,7.1c0,0.6,0,1.3,0,1.9c-0.1,1.2,0.4,2,1.5,2.6
		c0.3-0.2,0.5-0.3,0.7-0.5c1-1,2-2.1,3.1-3.1c0.6-0.6,1.3-1.2,2-1.8c0.3-0.2,0.6-0.3,0.9-0.5c0.9,0.2,0.7,1,0.9,1.5
		c0.1,0.2,0,0.5,0,0.8c0.1,1.1,0.1,2.2,0.2,3.6c-0.6,0.7-1.3,1.6-2.1,2.5c0.6,0.9,1.5,0.8,2.4,0.8c0.5-0.3,1-0.6,1.4-1
		c1.7-1.6,3.5-1.4,5.4-0.6c0.8,0.4,1.6,0.8,2.4,1.2c0.2,0.1,0.4,0.4,0.6,0.6c0.7,1.1,1.5,2.1,2.2,3.2c0.8,1.2,1,2.4,0.7,3.8
		c-0.7,3-1.9,5.9-2.9,8.8c-0.7,1.9-1.4,3.8-2.1,5.7c-0.2,0.5-0.2,1.1-0.4,1.7c2,2.8,4.1,5.5,6.1,8.3c1.6,2.1,3.1,4.3,4.6,6.4
		c2.3,3.2,4.7,6.4,7.1,9.6c2,2.7,4,5.5,6,8.3c1,1.4,2.1,2.8,3.2,4.2c0.3,0.4,0.7,0.6,1.1,0.7c2.4,0.5,4.8,1,7.2,1.5
		c0.4,0.1,0.8,0.1,1.3,0.2c0.3,0.5,0.7,1,1.1,1.6c1.3,2.1,2.6,4.2,3.9,6.3c0.2,0.3,0.4,0.5,0.7,0.6c0.8,0.5,1.6,0.9,2.3,1.3
		c3.5,1.8,6.9,3.6,10.4,5.5c1.5,0.8,3,1.6,4.5,2.4c3.6,1.9,7.2,3.9,10.8,5.8c0.3,0.1,0.5,0.4,0.8,0.6c0,1.1,0.1,2.1-0.2,3.2
		c-0.3,1.1-0.2,2.3-0.3,3.5c-0.3,1.6-0.1,3.3-0.5,4.9c0,0.2,0,0.4,0,0.5c0,1.6-0.2,3.1-0.5,4.6c0,0.1,0,0.2,0,0.3
		c-0.1,1.7-0.1,3.3-0.3,5c-0.1,1.3-0.3,2.6-0.5,3.8c0,0.1,0,0.3,0,0.4c-0.1,1.4-0.1,2.9-0.3,4.3c-0.1,1.3-0.3,2.6-0.5,3.8
		c0,0.1,0,0.3,0,0.4c-0.1,1.4-0.1,2.9-0.3,4.3c-0.1,1.2-0.3,2.5-0.5,3.7c0,0.1,0,0.2,0,0.3c-0.1,1.6-0.1,3.1-0.3,4.7
		c-0.1,1.3-0.3,3.5-0.4,4.6c-0.7-0.1-1.3-0.3-2-0.4c-2-0.3-4-0.7-6-1.1c-2-0.4-4-0.8-6-1.1c-1.7-0.3-3.5-0.7-5.2-1
		c-2.6-0.5-5.2-1.1-7.8-1.6c-2.5-0.5-5-0.9-7.5-1.4c-4.1-0.9-8.2-1.5-12.2-2.8c-4.4-1.4-8.8-2.6-13.2-3.9c-2.7-0.8-5.4-1.5-8.1-2.3
		c-3.6-1.1-7.2-2.2-10.7-3.3c-4.6-1.5-9.2-2.9-13.8-4.5c-4-1.4-8-2.8-12-4.3c-4.2-1.6-8.3-3.3-12.5-5c-0.3-0.1-0.7-0.3-1-0.4
		c0-0.4-0.1-0.8-0.1-1.2c0-1.5,0-3,0-4.5c0-1.7-0.1-3.5-0.2-5.2c-0.8-0.3-1.5-0.2-2.2-0.2c-0.6,0-1.1,0-1.5-0.4
		c-1.8-1.3-3.9-2.1-5.8-3.2c-0.3-0.2-0.6-0.3-0.9-0.5c-0.4-0.3-0.5-0.6-0.4-1.1c0.3-1.1,0.5-2.2,0.5-3.3c0-0.9,0.7-1.4,1.1-2.1
		c0.1-0.2,0.3-0.3,0.5-0.6c-0.2-0.3-0.4-0.5-0.6-0.7c-1.2-1.3-2-2.8-2.5-4.6c-0.6-1.9-0.8-3.9-1.9-5.6c-0.3-0.4-0.5-0.8-0.8-1.2
		c-0.6-0.9-1.2-1.8-0.7-3c0.1-0.2,0.1-0.3,0.1-0.5c0.1-1.3,0.1-2.6,0.3-3.9c0.2-1.8,0.5-3.6,0.9-5.4c0.5-2.3,1.1-4.7,1.7-7
		c0.2-0.8,0-1.6-0.4-2.3c-0.8-1.4-1.1-2.8-0.9-4.4c0.1-0.8-0.3-1.6-0.6-2.3c-0.6-1.3-1-2.6-1-4c0-1-0.3-1.8-0.8-2.6
		C73,217.6,73,217.2,74.3,215.9z M117,235.1c0.3,0.3,0.7,0.7,1.1,0.9c0.7,0.4,1.3,1,2.1,1.2c1.4,0.3,2.8,0,4-1
		c0.6-0.5,1.3-0.8,2-1.2c0.6-0.3,1.3-0.3,2,0c-0.5,0.6-0.9,1.1-1.3,1.7c-0.7,1.1-1.9,1.8-1.9,3.3c0.2,0.1,0.4,0.2,0.6,0.2
		c1.7-0.6,3.5-1.2,5.2-1.9c0.8-0.3,1.2-1,1.4-1.7c0.4-1.1,0.8-2.1,1.2-3.1c0.2-0.6,0.7-1,1.3-1.1c2.1,1,4,1.9,6,2.8
		c1.1-0.7,2.1-1.5,3.2-1.9c1.1-0.4,1.4-1.2,1.8-2c0.2-0.4,0.2-0.9,0.3-1.5c-0.2-0.1-0.4-0.3-0.6-0.4c-2.5-0.9-5.1-1.8-7.5-2.8
		c-1-0.4-2.1-0.7-2.9-1.5c0.2-0.8,0.7-1.2,1.3-1.7c0.8-0.6,1.6-1.2,2-2.1c0.5-1,0.1-1.7-0.9-1.9c-0.3-0.1-0.7-0.2-1-0.3
		c-1.7-0.1-3.3-0.3-5-0.3c-3.6,0-7.1,0-10.7,0c-1.4,0-2.9,0.2-4.3,0.3c-0.1,0-0.2,0.1-0.4,0.3c0,0.4,0,0.8,0,1.1
		c0.8,0.9,0.8,0.9,1.9,1.3c1.9,0.7,3.7,1.2,5.7,1.4c1.1,0.1,2.1,0.5,2.7,1.6c0,0.4,0,0.8,0,1.3c-1.6,1.1-3.2,2.2-4.8,3.4
		c-1.6,1.3-3,2.7-4.4,4C117,234,117,234.4,117,235.1z M129.8,289.4c-0.2,0.8,0.1,1.3,0.5,1.7c1.3,1.3,2.7,2.5,4.1,3.7
		c1.6,1.3,3.6,1.7,5.6,1.9c1.1,0.1,2.2,0,3.2,0.3c1.1,0.3,2,0,3-0.3c1.4-0.3,2.5-1.3,3.7-2.1c0.7-0.5,1.4-1,2.3-0.9
		c1,0.1,1.9-0.2,2.8-0.7c1.1-0.6,2.2-1.1,3.3-1.6c1.7-0.8,3.4-1.7,4.9-3c1.2-1,2.4-2,3.9-2.5c1.1-0.4,2.1-1.1,2.6-2.2
		c0.3-0.7,0.5-1.5,0.7-2.1c-0.2-0.6-0.6-0.7-1-0.6c-0.8,0.1-1.6,0.2-2.4,0.3c-1.1,0-2,0.5-3,1.1c-0.8,0.4-1,1.3-1.7,1.7
		c-1.8,1.1-3.7,2-5.9,1.9c-1.5-0.1-2.9-0.6-4.3-1.1c-0.8-0.3-1.4-0.8-1.7-1.6c-0.1-0.3-0.3-0.5-0.5-0.8c-1.5-2.2-3.4-4-5.2-5.8
		c-1-0.9-1.9-1.9-2.6-3.1c-0.2-0.4-0.5-0.7-0.8-1.1c-0.4,0.3-0.5,0.4-0.7,0.6c0.4,1,0.7,2,1.1,2.9c1.1,2.3,2,4.8,2.8,7.3
		c0.3,0.8,0.6,1.7,0.4,2.6c-0.7,1-1.6,1.4-2.7,1.3c-0.3,0-0.5,0-0.8,0c-0.8-0.1-1.4,0.2-1.9,0.7c-0.5,0.5-1,0.9-1.6,1.3
		c-0.8,0.5-1.7,0.9-2.8,0.5c-1.4-0.5-2.8-0.3-4.3-0.3C130.5,289.1,130.1,289.3,129.8,289.4z"/>
	<path fill="#666666" d="M209.3,322.2c0-0.3,0.1-1.1,0.2-1.5c0.3-1.9,0.4-3.8,0.5-5.7c0.1-1.2,0.3-2.4,0.5-3.6c0-0.1,0-0.3,0-0.4
		c0.1-1.6,0.1-3.2,0.3-4.8c0.1-1.1,0.3-2.1,0.5-3.2c0-0.1,0-0.2,0-0.3c0.1-1.4,0.2-2.9,0.3-4.3c0.1-1.5,0.3-3,0.5-4.5
		c0-0.1,0-0.3,0-0.4c0.1-1.4,0.1-2.9,0.3-4.3c0.1-1.4,0.4-2.7,0.5-4.1c0.1-1.3,0.2-2.7,0.3-4c0.1-1.4,0.3-2.8,0.5-4.2
		c0-0.1,0-0.3,0-0.4c0.1-1.4,0.2-2.8,0.3-4.2c0.1-0.9,0.2-1.9,0.3-2.7c-0.6-1-1.5-1.4-2.3-1.9c-3.6-1.9-7.2-3.8-10.9-5.7
		c-3.2-1.7-6.4-3.4-9.7-5.1c-1.7-0.9-3.4-1.9-5.1-2.8c-1.3-0.7-2.2-1.7-2.9-2.9c-1.1-1.7-2.2-3.5-3.3-5.2c-0.6-1-1.4-1.5-2.5-1.7
		c-2.4-0.4-4.7-0.9-7.1-1.4c-0.6-0.1-1.1-0.4-1.4-0.9c-3.1-4.3-6.3-8.6-9.4-12.9c-2.4-3.4-4.8-6.8-7.3-10.1
		c-2.1-2.9-4.3-5.8-6.5-8.7c-1-1.3-1.8-2.8-2.7-4.1c1.3-4.7,5-14.7,5.9-15.8c0.8,0.3,1.6,0.8,2.2,1.4c0.9,0.9,1.8,1.8,2.7,2.7
		c0.2,0.2,0.4,0.3,0.5,0.5c0.7,1.4,1.9,2.4,3,3.5c1.1,1.2,2.5,2,4,2.8c0.6,0.3,1.1,0.4,1.6,0c0.6-0.4,1.2-0.3,1.8,0.1
		c2.5,1.8,4.6,3.9,5.6,6.9c0.3,0.9,0.9,1.8,0.8,2.8c-0.6,1.1-1.7,1.4-2.8,1.6c-1,0.2-2,0.5-3,0.7c-0.3,0.1-0.6,0.2-0.8,0.4
		c-0.7,0.5-0.8,0.9-0.4,1.7c0.7,1.5,1.9,2.4,3.4,2.8c2.8,0.8,5.6,1.7,8.5,2.4c1.7,0.4,3.4,0.3,5-0.1c1.4-0.3,2.8-0.7,4.4-1
		c0.3,0.3,0.7,0.7,1.1,1.2c1.5,2,3.1,4.1,4.5,6.2c0.9,1.3,1.8,2.6,2.3,4.1c0.1,0.3,0.1,0.6,0.2,0.9c0,0.4,0,0.8,0.2,1.2
		c0.1-3,0.3-5.9-0.2-8.9c1.9-1,3.8-1.9,5.6-2.8c1.1-0.6,2.1-1.3,3.2-2c0.1-0.1,0.2-0.3,0.4-0.8c-1.3,0.5-2.4,0.9-3.4,1.2
		c-1.1,0.3-2.1,0.6-3.2,0.9c-0.7,0.2-1.4,0-2-0.5c-0.3-0.3-0.6-0.6-0.9-0.9c-0.7-0.8-0.7-1.9-0.2-3c0.7-1.3,1.8-1.9,3.1-2.4
		c0.8-0.3,1.7-0.3,2.5-0.5c1.4-0.3,2.8-0.7,4.3-1c1.5-0.3,2.8-0.2,3.8,1.1c0.5,0.7,0.7,1.5,0.8,2.3c0.1,1.7,0.8,3.1,1.9,4.4
		c1,1.2,2.2,2.1,3.4,3.1c0.3,0.3,0.8,0.5,1.2,0.4c1.7-0.2,2.6,0.8,3.4,2c0.8,1.2,1.7,2.4,2.5,3.7c1.9,0.1,3.8,0.2,5.6,0.3
		c3.2,0.2,6.3,0.4,9.4,1.4c0.3,0.1,0.7,0.1,1,0.2c0.4-1.5,0.7-2.8,1-4.1c0.3-1.3,0.6-2.6,1-3.9c2-0.4,6.8,1,11.8,3.8
		c0,0.3,0,0.7-0.1,1.1c-0.6,2.3-1.3,4.6-2,6.9c-0.1,0.3-0.1,0.5-0.1,0.9c1.3,0.6,2.1,1.6,2.7,2.9c0.4-0.9,0.4-1.7,0.1-2.6
		c-0.5-1.6-0.9-3.2-0.9-4.9c0-0.7,0.1-1.4,0.3-2.1c0.1-0.6,0.5-0.9,1.2-1c1.3,0.7,2.5,0,3.6-0.6c1.5-0.8,2.7-1.9,3.4-3.5
		c0.3-0.5,0.4-1.1,0.4-1.7c-0.1-1,0.2-2.1-0.2-3.1c-0.1-0.3-0.3-0.7-0.5-0.9c-1-1.4-1.3-2.8-0.6-4.4c0.3-0.8,0.2-1.6-0.6-2.1
		c-1-0.8-2-1.5-3.2-1.9c-1.5-0.5-2.5-1.5-3.3-2.8c-0.5-0.8-1-1.6-1.3-2.5c-0.5-1.3-0.5-2.6-0.1-4c0.2-0.7,0.2-1.4,0.4-2.1
		c0.2-1.1-0.3-2-0.7-3c-0.3-0.9-0.7-1.7-1.1-2.6c0.3-1,0.6-2,1-3c0.4-1.1,1-2.1,2.1-2.6c0.6-0.3,1.3-0.6,1.6-1.3c0-0.1,0-0.3,0-0.3
		c-0.4-0.9-0.3-1.7,0.3-2.5c1.2-1.4,2.3-2.8,3.4-4.2c2-0.2,2.9,0.2,3.7,1.7c0.2,0.4,0.5,0.8,0.9,1.2c0.8,0.9,1.7,1.7,2.6,2.6
		c1,1,1.4,2.2,1.6,3.6c0.2,1.4,0.1,2.9,0.3,4.3c0.1,1.1,0.5,2.2,1.1,3.3c1.1,1.9,2,3.9,3,5.9c0.2,0.4,0.2,0.9,0.2,1.3
		c0,0.6-0.3,0.8-0.9,0.7c-0.3,0-0.7-0.2-1.1-0.3c0,0.4-0.1,0.8-0.1,1.1c-0.1,0.9-0.2,1.9-0.3,2.8c-0.1,0.7-0.2,1.3-0.3,1.9
		c0.9,0.8,1.7,1.2,2.9,0.8c1.6-0.5,3.3-0.1,4.9,0.6c0.9,0.4,1.7,0.8,2.5,1.1c0.1,0.6-0.1,0.9-0.6,1c-0.9,0.3-1.8,0.6-2.7,0.8
		c-0.8,0.1-1.4,0.4-1.8,1c0.2,1.5,1.3,2.6,2,3.8c0.8,1.4,1.1,2.8,1.2,4.3c0.1,0.6-0.1,1.2,0.2,1.8c0.1-0.2,0.3-0.4,0.3-0.5
		c0.2-1.3,0.4-2.6,0.6-3.8c0.2-1,0.3-2,0.7-3c0.4-1.1,1.1-2.1,2.3-2.4c0.3-0.1,0.7-0.3,1-0.4c0.3,0.2,0.6,0.5,0.8,0.7
		c1.7,1.7,3.3,3.5,4.6,5.4c1.2,1.7,1.2,3.6,1.1,5.6c0,0.3-0.2,0.6-0.4,0.8c-0.2,0.3-0.4,0.6-0.6,0.9c-0.5,0.8-0.6,1.5-0.4,2.5
		c0.4,1.6,1,3,2,4.4c0.6,0.8,1.1,1.7,1.7,2.6c0.2,0.3,0.5,0.6,0.8,0.9c1.8-0.8,2.6-2.1,2.7-3.9c0.2-2.7,1-5.2,1.9-7.8
		c0.8-2.2,1.4-4.5,2.6-6.5c0.3-0.6,0.7-1.2,1-1.8c0.2-0.4,0.3-0.8,0.4-1.3c-0.1-0.3-0.2-0.6-0.4-0.9c-1.7-2.2-2.3-4.8-2.3-7.6
		c0-1.6,1.2-2.7,2.8-2.8c2.2-0.1,4.3,0.3,6.2,1.4c0.9,0.5,1.8,0.9,2.9,1.1c0.4,0.1,0.9,0.4,1.2,0.8c1.3,1.3,2.8,2.3,4.4,3.3
		c1.1,0.7,2.3,1.4,2.8,2.8c-0.1,0.1-0.2,0.3-0.3,0.3c-1.1,1.2-1.1,1.2-0.2,2.5c0.8,1,0.9,2.1,1.2,3.2c0.1,0.4-0.2,0.9-0.7,1
		c-1,0.4-1.8,0.8-2.4,1.8c-0.3,0.4-1,0.5-1.6,0.8c-0.2,0.5,0.1,1,0.4,1.5c0.8,0.9,1.4,2,1.7,3.2c0.3,1,0.8,1.7,1.7,2.3
		c1.4,0.9,1.9,2.3,2,3.9c0.2,2.5-0.8,4.7-1.9,6.8c-0.8,1.6-1.8,3.1-2.8,4.6c-1.5,2.4-2.5,2.3-5,1.5c-0.4-0.1-0.8-0.4-1.3-0.6
		c-0.3,1,0.8,1.8,0.2,2.9c-0.3,0.3-0.7,0.5-1.4,0.1c-0.3-0.2-0.6-0.1-0.9-0.2c-0.7-0.2-1.3-0.2-1.8,0.3c-0.6,0.5-1.1,0.4-1.7,0.2
		c-1.3-0.3-2.2-1.3-3.1-2.2c-1.6-0.2-3.1,0.1-4.6,0.9c0.6,1.2,1.7,1.8,2.4,2.8c0.3,1.7-0.2,3.2-1.2,4.6c-0.8,1.1-1.7,2.2-2.5,3.3
		c-0.7,1.1-1.3,2.2-2.1,3.5c0.7,0.5,1.3,0.9,1.7,1.2c0.3,2.3-0.2,4-1.2,5.6c-1.2,1.8-2.3,3.7-3.4,5.6c-0.7,1.1-1.3,2.1-2.2,3
		c-0.9,0.8-1.9,1.2-3,1.2c-1.2,0.1-2.4-0.1-3.6,0.2c-1.6,0.5-1.9,0.8-2.1,2.5c-0.1,0.5-0.3,1-0.4,1.5c-2,0.3-3.9,0.1-5.9-0.2
		c0.3,0.9,0.8,1.2,1.2,1.6c0.3,0.2,0.6,0.4,0.9,0.6c0.2,0.2,0.6,0.5,0.6,0.8c0,1.3,0.2,2.6-0.1,3.9c-0.3,1.6-1.9,2.7-3.5,2.9
		c-1.4,0.2-2.7,0.3-4.2,0.4c0,0.2,0,0.4,0.1,0.6c0.6,1,0.6,1.3-0.2,2.1c-0.4,0.4-0.8,0.8-1.2,1.3c-2,1.9-3.5,4.2-4.9,6.6
		c-0.6,1-1.2,2-2,2.8c-1,1-1.7,2.2-2,3.6c-0.4,1.5-1.1,3-1.7,4.5c-0.6,1.6-1.4,3.1-2,4.7c-0.4,0.8-0.5,1.6-0.4,2.5
		c0,0.9,0,1.9,0,2.9c-1.7,0.2-9.5-0.8-11.4-1c-1.7-0.2-10-1.3-11.7-1.4c-1.6-0.1-3.3-0.3-4.9-0.5c-1.7-0.2-3.4-0.4-5.2-0.6
		C214.6,322.7,209.5,322.3,209.3,322.2z"/>
	<path fill="#666666" d="M262.3,458.4c-1.4,0-2.5-0.5-3.4-1.5c-1-1.2-2.4-1.5-3.9-1.5c-1.3-0.1-2.5,0-3.8,0c-0.7,0-1.5-0.1-2.1-0.5
		c-1-0.6-2-0.9-3.1-1.1c-1-0.2-1.6-0.7-1.8-1.7c-0.1-0.8-0.3-1.7-0.4-2.5c-0.1-1.2-0.4-2.1-1.6-2.6c-0.4-0.2-0.8-0.6-1.2-0.9
		c0-2.4-0.2-4.8,0.1-7.1c0.2-2,0-4,0.2-5.9c0.2-1.9,0-3.9,0.3-5.8c0.2-1.8,0-3.6,0.3-5.4c0.3-2.2,0.1-4.5,0.3-6.7
		c0.1-1.4,0.4-2.7,0.5-4.1c0.2-1.6,1.1-2.8,2-3.9c1.2-1.5,2.5-2.8,3.9-4.2c2-2.2,4.1-4.3,6.2-6.5c1.7-1.8,3.3-3.6,5-5.5
		c1.4-1.6,2.8-3.3,4.2-4.9c0.8-0.9,1.6-1.8,2.4-2.7c1.4-1.7,2.8-3.4,4.3-5c0.7-0.8,1.3-1.6,2-2.3c1-1.1,2-2.2,3-3.3
		c1.2-1.3,2.3-2.6,3.4-4c0.2-0.2,0.4-0.4,0.6-0.6c1.2-1.4,2.4-2.7,3.5-4.1c0.1-0.2,0.3-0.3,0.5-0.5c1.4,0.7,2.7,1.4,3.8,2.5
		c0.9,0.9,1.7,1.8,2.4,2.9c1,1.5,2.5,2.8,4.4,3c1.8,0.2,3.4,1.1,4.8,2.2c0.8,0.6,1.8,1.1,2.9,1c0.9,0,1.6,0.4,2.3,0.9
		c1.3,1,2.5,2,3.9,3.2c2.7,0.1,5.5,0,8.4,0.2c1.9,0.1,3.8,0.1,5.6,0.3c1.7,0.1,3.3,0.8,4.8,1.8c0,0.8,0.2,1.6-0.2,2.5
		c-0.1,0.3-0.1,0.6,0,0.9c0.1,1.2-0.2,2.4-0.5,3.6c-0.1,0.7-0.2,1.4,0.2,2.1c0.9,1.6,1.2,3.4,1.4,5.1c0.1,0.6,0.1,1.2,0.3,1.7
		c0.5,1.1,0.5,2.2,0.5,3.3c-0.1,1.5,0.4,2.9,1.2,4.2c1.5,2.2,3.1,4.3,4.9,6.3c0.5,0.5,0.8,1,1.3,1.5c0.2,0.2,0.4,0.5,0.7,0.6
		c1.7,0.8,2.6,2.3,3.6,3.8c0.9,1.3,1.2,2.9,1.8,4.4c1.7-0.1,3.4-0.2,5.2-0.3c0.1,1.1,0.3,2,0.4,3c0.2,1.1,0.3,2.3,0.5,3.4
		c0,0.2,0.1,0.4,0.1,0.5c0.2,2,0.3,3.9,0.6,5.9c0.2,1.9,0.5,3.7,0.8,5.5c0.1,1,0.2,2,0.3,3.1c0.1,1.2,0.3,2.4,0.5,3.6
		c0.1,0.9,0.2,1.8,0.3,2.7c0.1,1.2,0.2,2.4,0.3,3.6c0.1,0.7,0.2,1.3,0.3,2c0.2,1.1,0.4,2.3,0.5,3.4c0.1,0.9,0.3,1.9,0.3,2.8
		c0.1,2,0.5,4,1.2,5.9c0.4,1.1,1,2.1,1.5,3.1c0.4,0.7,1,1.1,1.5,1.6c2.4,2,5.2,3.1,8.2,3.9c1.2,0.3,2.5,0.4,3.7,0.6
		c0.7,0.1,1.5,0.3,2.2,0.6c0.9,0.4,1.8,1,2.7,1.5c0.4,0.2,0.9,0.4,1.4,0.5c0.9,0.2,1.6,0.7,2.1,1.6c0.3,0.5,0.7,1,1.1,1.5
		c1.4,0,2.7,0.1,4,0c1.8-0.2,3.5-0.3,5.1-1.3c1-0.6,2.2-1,3.3-1.6c0.7-0.4,1.4-0.4,2.2-0.3c0.2,0.8,0.3,1.6,0.6,2.3
		c0.3,0.7,0,1.2-0.4,1.7c-0.4,0.5-0.8,1-1.3,1.3c-1.8,1.4-3.3,2.9-4.7,4.7c-1.2,1.5-2.6,3-3.9,4.5c-0.2,0.2-0.3,0.4-0.5,0.6
		c-0.6,0.7-1.2,1.3-2,1.8c-0.8,0.4-1.5,1-1.8,1.9c-0.2,0.6-0.6,0.9-1.2,1.2c-1.7,0.7-3.5,1-5.3,1.1c-1.9,0.1-3.8,0.6-5.6,1.2
		c-1,0.3-1.9,0.7-2.9,1.2c-1,0.5-2.1,1.1-3,1.8c-1.4,1-1.9,2.4-2.3,3.9c0.9,1.6,2.5,1.4,3.9,1.5c1.3,1.1,1.6,2,1,3.2
		c-2.7-0.2-5.2,0.7-7.7,1.7c-0.8,0.4-1.5,0.9-2.5,1.4c0.7,0.7,1.2,1.2,1.8,1.8c-1,0.7-2.1,0.6-3.1,0.4c-1-0.2-2.1-0.5-3.1-0.7
		c-1-0.2-1.9,0.4-2.8,0.8c-0.1,0.1-0.2,0.1-0.3,0.2c-1.4,1.2-2.9,2.2-4,3.7c-1,1.3-2.2,2.4-3.6,3.3c-0.2,0.2-0.6,0.3-0.9,0.3
		c-1.2,0-2.4,0-3.6,0.3c-0.3,0.1-0.6,0-1,0c0.5-1.4,1.3-2.4,2.7-2.6c0.4-0.1,0.9-0.2,1.3-0.3c0.7-0.1,1.2-0.6,1.4-1.3
		c0.3-1,0.5-1.9-0.1-2.9c-0.2-0.2,0-0.7,0-1c0.1-0.6,0.4-1.2,0.5-1.8c0.3-1.3,0.9-2.4,1.9-3.3c1.2-1.1,1.9-2.6,1.8-4.3
		c-0.1-2.2,0-4.4,0-6.6c0-1.2,0.3-2.2,0.9-3.2c0.5-1,1.2-1.9,1.7-2.9c0.1-0.3,0.2-0.7,0.1-1c-0.3-1.2-1-2.3-1.8-3.3
		c-0.5-0.6-0.9-1.2-1.3-1.7c0.3-0.5,0.5-0.6,0.8-0.3c0.4,0.3,0.8,0.6,1.2,0.9c1.5,1.4,2.8,3,4.7,4.1c0.9,0.5,1.9,1,2.9,1.4
		c1.1,0.4,2.2-0.1,2.6-1.2c0.5-1.4,0.4-2.8-0.3-4.1c-0.3-0.5-0.7-1-1.1-1.5c-1.5-1.6-3.1-3.2-4.5-4.8c-1.1-1.3-2.5-1.7-4-1.9
		c-2.1-0.3-4.2-0.7-6.3-1.1c-1.2-0.2-2.4-0.4-3.6-0.5c-1.8-0.1-3.6,0-5.4,0c-1.6,0-3.2-0.1-4.9-0.2c-1.2-1.6-2.9-2.3-4.4-3.3
		c-0.8-0.5-1.3-1.1-1.4-2c-0.1-0.8-0.5-1.4-1.1-2c-0.3-0.3-0.6-0.6-0.9-1c0.3-0.4,0.6-0.8,0.9-1.1c0.2-0.6,0-1.2-0.4-1.8
		c-0.7-1.2-1.4-2.4-2.1-3.6c-0.5-1-1.2-1.6-2.3-1.8c-2.2-0.6-4.3-1.5-6.2-2.8c-0.8-0.5-1.5-1.3-1.5-2.4c0-1.1-0.3-2.2-0.5-3.3
		c-0.1-0.3-0.2-0.6-0.4-0.9c-1,0-2,0-3.1,0.1c-1.7,0.2-3.4,0.3-5-0.6c-0.8-0.5-1.7-0.8-2.5-1.3c-0.5-0.3-0.9-0.3-1.4,0
		c-0.8,0.5-1.6,1.1-2.5,1.6c0.3,0.5,0.5,0.8,0.7,1.2c-0.6,1.1-1.7,1.6-2.7,2.2c-1.5,1-3,2.1-4.1,3.4c-1.2,1.4-2.7,1.5-4.3,1.3
		c-0.9-0.1-1.8-0.3-2.8-0.5c-2-0.3-4-0.5-6-0.6c-1.4-0.1-2.9-0.1-4.3-0.7C263.7,459.6,262.8,459.4,262.3,458.4z"/>
	<path fill="#666666" d="M34.2,381.3c0.1-1.1,0.2-2.3,0.3-3.4c-2-1.1-3.8-2.2-5.4-3.6c-0.4-2-0.8-3.9-0.6-5.8
		c0.1-1.7,0.3-3.4,0.3-5.1c0-0.4,0.3-0.9,0.6-1.3c0.4-0.5,1-0.9,1.2-1.2c0.5-1,0-1.6,0-2.3c0-0.6-0.2-1.2-0.2-1.8
		c0-1.3-0.4-2.6-1.2-3.7c-0.5-0.7-0.9-1.5-1.4-2.1c-1.2-1.5-0.8-3.5,0.4-4.6c0.2-0.2,0.3-0.3,0.4-0.4c0.3-1.1,0-2.1-0.5-3
		c-1-1.7-1.4-3.6-1.3-5.6c0.1-1.5,0-3.1,0-4.6c0-1.2,0.1-2.3,0.2-3.3c1.3-1.5,2.7-2.4,4.4-3c1.9-0.7,3.4-1.9,4.6-3.4
		c0.3-0.4,0.5-1.1,0.5-1.6c0-1.4,0.6-2.5,1.3-3.6c0.4-0.6,0.9-1.1,1.3-1.7c0.6-0.7,1-1.5,0.9-2.5c0-0.9,0-1.8,0-2.7
		c0-0.8-0.2-1.4-0.8-1.9c-2.8-2.7-4.1-6.2-5.2-9.9c-0.3-1.1,0.1-2.1,0.3-3.2c0.5-2.3,1.1-4.6,1.5-6.9c0.1-0.8-0.1-1.8-0.2-2.7
		c-0.1-1-0.4-2-0.5-3c-0.1-1.1-0.3-2.2-0.3-3.3c0-2.8-0.4-5.6-1.1-8.3c-0.9-3.7-1.7-7.5-2.5-11.2c-0.1-0.6-0.4-1.1-0.9-1.5
		c-1.2-0.8-2.5-1.5-4.3-1.4c-0.1,0.2-0.4,0.4-0.5,0.8c-0.5,1.2-1.6,1.6-2.7,2.1c-2,0.9-4,1.6-6,2.4c-0.2,0.1-0.4,0.1-0.8,0.1
		c0.7-1.8,0.6-3.6,0.6-5.3c0-1.5-0.3-3-0.9-4.4c-0.7-1.6-0.7-3.2,0-4.9c1.3,0.5,2.4,1.3,3.5,2c4.5,2.9,8.9,5.8,13.4,8.7
		c3.6,2.3,7.2,4.5,10.8,6.8c3.1,1.9,6.2,3.7,9.4,5.5c2.6,1.5,5.2,2.9,7.8,4.3c4.3,2.4,8.6,4.8,13.1,7c1.4,0.7,2.8,1.5,4.2,2.2
		c2.5,1.2,5,2.5,7.5,3.6c2,0.9,4.1,1.7,6.1,2.5c2.1,0.9,4.2,1.8,6.3,2.6c3.2,1.3,6.5,2.6,9.7,3.9c0.5,0.2,1,0.4,1.5,0.6
		c0.2,1-0.3,1.7-0.6,2.5c-1,2.8-2,5.5-3,8.3c-1.4,3.9-2.9,7.9-4.3,11.8c-1.4,4-2.9,8-4.4,12c-1.5,4-2.9,8-4.3,12
		c-1.7,4.9-3.4,9.9-5.1,14.8c-0.6,1.7-1,3.4-1,5.2c0,0.7-0.3,1.4-0.6,2c-0.2,0.5-0.6,1-0.4,1.6c0.3,0.8,0.6,1.5,1.2,2
		c1.2,0.9,2.1,2,2.9,3.3c1,1.6,1.6,3.4,2.1,5.2c0.2,0.6,0.1,1.2,0.2,1.7c0.3,1.5,1.1,2.7,1.8,4c0.7,1.4,1.6,2.7,2.4,4
		c0.5,0.9,0.8,1.9,1.2,2.9c0.1,0.3,0.2,0.7,0.4,1c1.4,1.8,2.2,3.9,2.9,6c0.3,0.9,0.7,1.7,1.1,2.6c1.5,3.2,2.9,6.4,4.4,9.7
		c0.6,1.2,0.5,2.6,0.4,3.8c-0.2,1.6-0.5,3.2-0.8,4.9c-0.1,0.7-0.2,1.5-0.3,2.3c-0.1,1.3,0.3,2.5,1,3.6c0.2,0.3,0.5,0.7,0.2,1.2
		c-0.5-0.1-1-0.2-1.5-0.4c-3.6-1.1-7.1-2.3-10.7-3.4c-4.9-1.5-9.6-3.3-14.4-5.1c-4-1.5-8.1-2.9-12.1-4.4c-4.1-1.5-8.2-3.2-12.3-4.7
		c-2-0.8-4-1.5-6-2.3c-1.5-0.6-2.1-1.3-2-2.9c0.1-1.4-0.6-2.3-1.6-3c-0.7-0.5-1.3-1.2-2-1.8c-0.1-0.1-0.2-0.2-0.2-0.3
		c-0.2-1.1-1-1.8-1.8-2.5c-1.2-1.1-1.5-2.6-1.8-4.1c-0.4-2.3-1.3-4.4-2.8-6.1c-0.8-0.9-1.6-1.7-2.3-2.6
		C34.9,382.3,34.6,381.8,34.2,381.3z"/>
	<path fill="#666666" d="M320.7,169.6c-0.4-1.3,0.1-2.2,1-2.9c1.7-1.3,3.6-1.9,5.7-2.2c0.5-0.1,1.1,0.1,1.6,0.3
		c1.2,0.7,2.4,1.1,3.7,1.4c1.4,0.3,2.5,1.4,3,2.8c0.5,1.3,1.1,2.4,2.6,2.6c0.5,0.6,0.7,1.4,0.9,2.1c0.1,0.6,0.3,1.1,0.9,1.4
		c0.4,0.2,0.7,0.7,1.1,1c0.9,0.8,1.9,1.7,2.8,2.5c0.2,0.1,0.4,0.2,0.6,0.3c0.8-1.2,0.8-2.8,2.3-3.6c0.9,0.3,1.8,0.5,2.8,0.8
		c0.2,0.1,0.4,0.2,0.6,0.3c1.2,0.3,1.9,1,2.4,2c0.7,1.5,1.5,2.8,2.9,3.8c0.6,0.4,1,1.1,1.4,1.6c0.8,1.1,1.5,1.3,2.6,0.6
		c1.3-0.9,2.6-0.9,3.9,0.1c0.9,0.7,2,1.1,2.5,2.1c0.5,1.5-0.5,2.7-0.4,4.2c1.5,0,1.5-1.7,2.5-2c1.1-0.3,1.9,0.1,2.6,0.9
		c1.3,1.3,2.7,2.5,3.4,4.3c0.2,0.4,0.2,0.9,0.3,1.4c0.1,0.7,0.2,1.5,0.3,2.3c1.8,0.8,3.3,1.9,4,3.8c-1,0.8-2.3,1.4-3.5,2
		c-0.3,0.1-0.6,0.1-0.9,0c-0.4-0.1-0.8-0.3-1.4-0.5c0,0.3-0.1,0.6,0,0.8c0.9,1.6,0.9,3.1,0.2,4.8c0,0.1-0.1,0.3-0.1,0.4
		c0,0.1,0,0.3,0,0.4c0.7,1.1,1.7,1.7,2.8,2c1.4,0.4,2.5,1.1,3.7,1.8c1,0.6,2.1,1,3.3,1.1c0.9,0.1,1.8,0.3,2.7,0.6
		c1.1,0.3,2.1,0.2,3.2,0.1c0.6,0,1.2-0.2,1.9-0.3c0.7,0.8,1.5,1.7,2.2,2.5c0.7,0.8,1.4,1.5,2.4,2c0.3,0.1,0.6,0.2,0.9,0.3
		c1,0.1,2,0.2,3,0.3c0.7,0.8,0.8,1.8,1.1,2.7c0.5,0.3,1,0.2,1.6,0c1.3-0.4,2.6-0.8,3.8-1.3c0.6-0.3,1.1-0.1,1.7,0.2
		c0.2,0.1,0.3,0.3,0.5,0.4c1.7,0.5,1.9,2,2,3.5c0.1,0.8,0,1.5-0.1,2.3c-0.2,1.3-0.8,2.2-1.8,3.2c0.1,0.3,0.2,0.7,0.4,0.9
		c0.5,0.5,0.5,1,0.3,1.5c-0.4,1.1-0.2,2.1-0.2,3.2c-0.1,1-0.3,1.9-1,2.7c-0.6,0.7-1.4,1.2-2.5,0.9c0.1,0.5,0.2,0.8,0.3,1
		c0.5,1.4,1.1,2.9,2.2,4c0.5,0.5,0.4,0.9,0,1.4c-1.1,1.4-3.1,1.7-4.7,1c-1.1-0.5-2.3-1.1-3.5-1.3c-1.5-0.3-2.3-1.2-3.1-2.2
		c-1-1.5-2.1-2.9-3.4-4.1c-0.7-0.7-1.4-1.3-2.4-1.4c-0.4,0-0.7-0.4-1-0.6c-1.1-1-2.3-1.7-3.7-2c-0.9,0.6-1.8,1.2-2.7,1.8
		c0.5,0.6,1,1.1,1.4,1.8c0.7,1.2,1.1,1.8-0.3,3.2c-0.7,0.6-0.6,0.7-0.6,1.5c0.6,0.2,1.3,0.4,2,0.8c0.8,0.4,1.5,0.8,2.1,1.6
		c1,1.3,2.1,2.6,3.4,3.6c1.2,1,2.8,1.4,4.3,1.7c1.4,0.3,2.6,0.8,3.1,2.3c0,0.1,0.1,0.2,0.2,0.3c2.7,2.7,4.7,6,7.7,8.5
		c0.6,0.5,1,1.2,1.6,1.9c-0.2,3.8,0.3,7.7-0.4,11.6c-0.9,0.3-1.6-0.1-2.3-0.3c-2.6-0.8-5.3-1.6-7.9-2.6c-2-0.8-3.8-1.8-5.7-2.7
		c-0.4-0.2-0.9-0.5-1.2-0.9c-0.7-0.8-1.7-0.8-2.6-0.9c-0.7-0.1-1.4,0.2-2.1,0.3c0.1,0.5,0.4,0.8,0.9,1c0.9,0.4,1.6,1.1,2.1,2
		c0.4,0.9,1.2,1.3,2,1.7c1.5,0.7,3.1,1.3,4.6,2.1c1.8,0.9,3.5,2,5.2,3c1.4,0.8,2.7,1.7,4.1,2.6c0.2,1.7,0,3.3-0.3,4.9
		c-1.5,0.3-3,0.7-4.5,0.1c0,0-0.1,0-0.1,0c-1.5-0.1-3-0.2-4.4-0.3c-2-0.1-4-0.1-5.9-0.3c-1.1-0.1-2.1-0.4-2.9-1.3
		c-0.5-0.6-1.2-1.1-1.8-1.6c-0.7-0.5-1.4-0.7-2.3-0.7c-1.4,0.1-2.9,0.2-4.3-0.4c-2.1-0.9-4.3-1.8-6.4-2.8c-0.7-0.3-1.3-0.9-1.5-1.8
		c-0.1-0.6-0.4-1.2-0.5-1.7c0.5-0.5,0.8-0.9,1.2-1.3c-0.1-0.2-0.1-0.3-0.2-0.4c-1.1-0.7-2.2-1.3-3.3-2c-0.8-0.4-1.6-0.9-2.4-1.2
		c-1-0.3-1.7-0.9-2.2-1.7c-1.1-1.8-2.7-2.7-4.7-3c-0.1,0-0.3,0-0.4-0.1c-1.2-0.5-2.3-0.1-3.1,0.6c-1,0.8-2.1,1.1-3.2,1.1
		c-0.9,0-1.7,0.4-2.3,0.9c-0.9,0.7-1.8,1.5-2.7,2.4c-1.7,0-3.4,0.1-5.1,0c-0.9,0-1.8-0.3-2.7-0.5c-1-0.2-1.6-0.9-2.1-1.8
		c-0.6-1.1-0.8-2.4-1-3.6c-0.1-0.8,0-1.5,0-2.2c0.7-0.9,1.4-1.7,2.1-2.6c0.1-0.8,0.2-1.6,0.3-2.4c0.1-0.8,0.6-1.1,1.5-1.3
		c2.1-0.4,4.3-0.2,6.5-0.3c2-0.1,4-0.3,5.6-1.7c1.3-1.1,2.9-1.6,4.5-1.9c-0.2-0.8-0.3-1.5-0.5-2.2c-0.2-0.9-0.9-1.5-1.6-2
		c-0.6-0.5-1.3-0.9-1.9-1.4c-0.2-1.8,0.2-3.3,0.9-4.7c1.4-2.8,2.8-5.5,4.3-8.3c0.4-0.8,0.5-1.5,0.2-2.4c-0.5-1.6-1-3.3-1.8-4.8
		c-1-1.7-2-3.4-3.4-4.8c-0.8-0.8-1.5-1.6-2.2-2.6c-0.7-1.1-1.8-2-3-2.7c-0.4-0.2-0.8-0.6-1.3-0.8c-0.6-0.3-0.8-0.8-1.1-1.3
		c-0.1-0.3-0.2-0.6-0.3-0.9c-0.4-1-0.7-1.3-1.7-0.9c-1.1,0.5-2.2,1.1-3.3,1.7c-0.5,0.3-0.9,0.6-1.4,0.8c-0.5,0.2-1,0.2-1.4-0.3
		c-0.4-0.4-0.4-0.9-0.3-1.4c0.3-0.6,0.6-1.2,1.1-1.7c0.5-0.6,1-1,1.6-1.6c-0.3-0.3-0.5-0.6-0.8-0.8c-0.5-0.4-1.1-0.6-1.8-0.3
		c-0.5,0.3-1,0.4-1.5,0.6c-0.5,0.2-1,0.4-1.5,0.2c-1-1.4-0.9-2.2,0.7-3.4c-0.2-0.2-0.3-0.5-0.5-0.7c-1.2-1.2-2.4-2.5-3.7-3.6
		c-0.9-0.8-1.8-1.7-3-2.1c-0.9,0.7-0.6,1.8-0.7,2.7c-0.7,0.4-1.4,0.5-2.2,0.5c-3.8,0-7.6,0-11.4,0c-0.2,0.3-0.3,0.7-0.5,1
		c-1.6,0.5-3.2,0.6-4.8,0.2c-0.6-0.1-1.2,0-1.8,0c-2.9-0.1-5.8-0.2-8.8-0.3c-0.6,0-1.1,0.2-1.7,0.2c-1.9,0.2-3.1-0.2-4.1-2.3
		c-0.2-0.4-0.4-0.9-0.6-1.5c-1.2,0-2.4-0.1-3.5,0.1c-1.6,0.3-2.9,0.2-4.3-0.9c-1.5-1.2-2.7-2.5-3.7-4.1c-0.7-1-1.3-2.2-1-3.5
		c1-0.9,2.3-0.5,3.4-0.8c1-0.3,2.2,0.1,3.5-0.3c-0.7-0.5-1.2-1-1.9-1.2c-1.1-0.3-2.2-0.6-3.4-0.5c-1.7,0-2.1-0.3-2.6-1.9
		c-0.8-2.6-1.1-5.2-0.8-7.8c0.1-1.2,0.1-2.3,0.2-3.5c0.4-2.8,0.8-5.6,1.8-8.3c1.1-3,2.1-6.1,3.6-9c0.6-1.2,1.4-2.3,2.1-3.4
		c0.4-0.5,1-0.9,1.6-1.3c1.7-0.9,3.5-1.5,5.4-1.4c1.3,0,2.7,0.3,3.8,1c0.6,0.3,1,0.8,1.3,1.5c0.3,0.8,0.1,1.3-0.3,1.9
		c-0.4,0.5-0.8,1-1.2,1.5c-0.6,0.9-1.2,1.8-1.4,2.9c-0.1,0.7-0.4,1.4-0.8,2c-0.8,1.6-1.1,3.4-1.6,5.1c-0.1,0.3-0.1,0.5,0,0.8
		c0.2,1.1,0.4,2.3,0.5,3.4c0.1,0.5,0,1.1,0,1.6c0,0.8,0.1,1.5,0.2,2.2c0.4,0.2,0.7,0.3,1.1,0.5c0.2-0.2,0.5-0.3,0.6-0.5
		c0.5-1,1.1-2,1.5-3c0.1-0.3,0-0.9-0.2-1.3c-0.4-0.8-1-1.6-1.1-2.6c-0.1-1.2-0.2-2.4-0.1-3.6c0-0.3,0.3-0.7,0.5-0.9
		c0.8-0.9,1.5-1.8,2.3-2.6c0.4-1.8,1.3-3.4,2.4-4.8c0.7-0.9,1.4-1.8,2.3-2.4c1.6-1.1,3.5-1.6,5.4-1.7c2.9-0.1,2.4-0.1,3.9,2.1
		c0.5,0.8,1,1.6,1.4,2.4c0.7,1.4,1.5,2.9,2.2,4.3c0.7,1.5,1.4,3.1,1.3,4.9c-0.1,0.9,0.6,1.4,1.1,1.9c0.6,0.5,1.2,0.8,2.1,0.4
		c0.7-0.3,1.6-0.4,2.3-0.5C320.2,169.9,320.4,169.8,320.7,169.6z"/>
	<path fill="#666666" d="M86.8,367.7c0.8-0.9,0.9-2.1,0.9-3.3c0-1,0.4-2.1,0.7-3.1c1.3-4.5,2.9-8.9,4.5-13.3
		c1.2-3.5,2.5-7.1,3.7-10.6c1.5-4.2,3.1-8.5,4.6-12.7c1.1-3,2.2-6.1,3.3-9.1c1.7-4.5,3.3-9.1,5-13.6c0.4-1.1,0.8-2.3,1.3-3.5
		c2.7,0.9,5.3,1.8,7.8,2.6c2.6,0.9,5.3,1.7,7.9,2.6c3.6,1.1,7.2,2.3,10.9,3.4c4.4,1.3,8.7,2.6,13.1,3.8c3.3,1,6.6,1.9,9.9,2.9
		c1,0.3,1.9,0.6,3,0.9c0,0.6,0.1,1.2,0,1.7c-0.3,1.3-0.7,2.6-1,3.9c-0.2,0.9-0.7,1.6-1.7,1.7c-0.8,0.1-1.3,0.6-1.8,1.1
		c-1.3,1.2-2.7,2.4-3.7,3.9c-0.1,0.1-0.1,0.3-0.2,0.5c0.4,0.3,0.7,0.6,1.1,0.8c1.6,1,2.8,0.8,4.2-1.2c0.2-0.3,0.4-0.7,0.6-1.1
		c0.3,0.4,0.2,0.9,0.1,1.2c-0.6,2.7-1.2,5.5-1.9,8.2c-0.9,3.7-1.8,7.3-2.7,11c-0.7,2.9-1.4,5.7-2.1,8.6c-1.1,4.5-2.2,9.1-3.3,13.6
		c-1,4.2-2,8.3-3,12.5c-1.1,4.5-2.2,9.1-3.3,13.6c-0.5,2.2-1.1,4.5-1.6,6.7c-1,4.2-2,8.3-3,12.5c-1,4.2-2,8.4-3,12.6
		c-0.5,2.1-0.9,4.2-1.4,6.2c-0.1,0.5-0.3,0.9-0.5,1.4c-3.3-0.9-6.5-1.7-9.6-2.5c-2.6-0.7-5.3-1.4-7.9-2.1c-2.2-0.6-4.4-1.2-6.5-1.9
		c-0.7-0.2-1.3-0.5-2-0.9c-0.5-0.3-0.9-0.7-1.1-1.3c-0.4-1.2-1-2.3-1.5-3.5c0.3-1.9,0.7-3.7,1-5.6c0.2-1.1,0.4-2.3,0.5-3.4
		c0.1-1.5-0.3-2.8-1-4.1c-1.2-2.4-2.5-4.8-3.6-7.3c-0.8-1.6-1.4-3.3-2.1-4.9c-0.7-1.6-1.5-3.1-2.3-4.7c-0.3-0.7-0.8-1.4-1-2.2
		c-0.4-1.4-1-2.6-1.8-3.7c-0.4-0.6-0.8-1.2-1.1-1.9c-0.6-1.2-1.4-2.2-1.6-3.5c-0.2-1-0.5-2-0.6-3c-0.2-1.6-1.1-3-1.9-4.4
		c-0.7-1.3-1.5-2.6-2.7-3.5C87.5,369.3,87.2,368.6,86.8,367.7z"/>
	<path fill="#666666" d="M136.9,434.3c-0.4-1.4,0.2-2.6,0.5-3.8c0.9-4,1.9-8,2.9-11.9c0.7-2.8,1.3-5.5,2-8.3
		c1.1-4.6,2.3-9.2,3.4-13.9c0.6-2.5,1.1-4.9,1.7-7.4c0.9-3.7,1.8-7.3,2.7-11c1.1-4.4,2.1-8.7,3.1-13.1c1.1-4.6,2.2-9.2,3.3-13.7
		c0.5-2.2,1-4.4,1.6-6.6c1.2-4.9,2.4-9.9,3.6-14.8c0.4-1.5,0.6-3,0.9-4.3c0.6-0.5,1.1-0.3,1.6-0.3c0.6,0,1.1,0.1,1.7,0.2
		c1.1,0.1,2.3,0.4,3.4,0.4c1.3,0.1,2.5,0.1,3.8,0.1c0.6,0,1.1-0.1,1.7-0.2c0.4-0.1,0.9-0.2,1.3-0.2c1.2-0.1,2.4,0.3,3.5,0.8
		c0.8,0.3,1.6,0.6,2.4,0.9c0.4,0.2,0.9,0.2,1.4-0.1c-0.3-0.3-0.4-0.6-0.7-0.8c-1.9-1-3.7-1.9-5.6-2.8c-1.3-0.6-2.7-1.2-4.1-1.8
		c-1-0.4-2-0.6-3.1-0.7c-0.6,0-1.3-0.3-1.7-0.7c-1.2-1.1-2.4-1.1-3.7-0.4c-0.1,0.1-0.3,0-0.5,0c0-0.2-0.2-0.5-0.1-0.7
		c0.5-1.3,0.3-2.9,1.3-4c14.2,2.7,28.7,5.3,42.9,8c0,0.8-0.2,1.9-0.3,2.8c0,0.4-0.1,0.7-0.2,1c-0.2,1.2-0.3,2.4-0.5,3.6
		c-0.1,0.8-0.2,1.6-0.3,2.4c-0.2,1.6-0.4,3.3-0.6,4.9c-0.1,0.9-0.3,1.8-0.5,2.8c-0.1,0.9-0.2,1.8-0.3,2.7c-0.1,0.7-0.2,1.3-0.4,2
		c-0.2,0.7-0.4,1.4-1.3,1.5c-1.5,1.3-2.9,2.6-3.6,4.5c-0.2,0.6-0.1,1.3,0,2c0.1,0.7,0.2,1.3,0.5,1.9c0.6,1.7,0,3-1.1,4.2
		c-0.3,0.3-0.6,0.7-0.8,1.1c-0.1,0.2,0,0.6,0,0.9c1.4-0.2,2.1-1.6,3.4-1.9c0.4,0.4,0.6,0.8,0.6,1.3c0,0.8,0.1,1.7-0.2,2.5
		c0,0.1,0,0.2,0,0.3c-0.1,1.9-0.1,3.9-0.3,5.8c-0.2,1.8,0,3.6-0.5,5.3c0,0.1,0,0.2,0,0.3c-0.1,1.9-0.2,3.9-0.3,5.8
		c-0.1,0.9-0.2,1.8-0.3,2.7c-0.1,0.9,0.2,1.8-0.2,2.7c-0.1,0.1,0,0.3,0,0.4c-0.1,1.9,0,3.9-0.3,5.8c-0.3,1.7,0.1,3.4-0.5,5.1
		c0,0.1,0,0.3,0,0.4c-0.1,2-0.1,4-0.3,6.1c-0.1,1.6-0.3,3.1-0.5,4.6c0,0.2,0,0.4,0,0.5c-0.1,2.2-0.1,4.3-0.3,6.5
		c-0.1,1.6-0.3,3.1-0.5,4.6c0,0.1,0,0.3,0,0.4c-0.1,2,0,4.1-0.3,6c-0.3,1.7,0.1,3.4-0.5,5.1c-0.1,0.2,0,0.4,0,0.5
		c-0.1,2-0.1,4-0.3,5.9c-0.2,1.3-0.2,2.6-0.2,3.9c0,0.8-0.1,1.6-0.3,2.4c-0.1,0.4-0.3,0.7-0.5,1.1c-1.7-0.5-3.4-0.6-5.1-0.7
		c-1.4-0.1-2.7-0.3-4.1-0.5c-0.8-0.1-1.7-0.2-2.5-0.3c-1.3-0.1-2.6-0.2-3.9-0.3c-1.1-0.1-2.1-0.4-3.2-0.5c-1.9-0.1-3.7-0.5-5.5-0.9
		c-1.9-0.4-3.8-0.8-5.7-1.2c-2.8-0.6-5.6-1.2-8.3-1.8c-2.1-0.5-4.2-1-6.4-1.5c-2.7-0.6-5.5-1.2-8.2-1.8c-1.8-0.4-3.6-0.9-5.4-1.3
		C137.4,434.6,137.1,434.5,136.9,434.3z"/>
	<path fill="#666666" d="M249.9,327.6c0,1,0.2,1.8-0.2,2.5c0,0.1-0.1,0.2-0.1,0.3c-0.3,2.6-0.4,5.1-0.3,7.7c0,0.9,0.5,1.6,1.3,1.8
		c0.8,0.3,1.7,0.5,2.6,0.7c1.6,0.4,3.2,0.7,4.7,1.6c0.9,0.5,1.2,1.3,1.4,2.2c0.3,1.1,0.4,2.2,0.6,3.3c0.3,1.7,0.7,3.5,1,5.2
		c0.3,1.9,1,3.8,0.9,5.8c0,0.5-0.1,1.1-0.2,1.7c0.1,0.1,0.2,0.3,0.3,0.3c1.1,0,2.2,0,3.4,0c1.4,0,2.6-0.7,3.9-1
		c1.2-0.3,2.4-0.2,3.6-0.2c0.4,0,0.8,0.2,1.1,0.5c0.7,0.8,1.5,1.1,2.5,1.3c0.7,0.1,1.3,0.2,2,0.4c1.4,0.3,2.7,0.7,3.9,1.4
		c-0.4,1.1-1.1,1.8-1.8,2.6c-1.3,1.5-2.6,3-3.9,4.4c-0.1,0.1-0.3,0.3-0.4,0.4c-1.5,1.7-3.1,3.4-4.6,5.1c-1,1.1-2,2.1-2.9,3.2
		c-1.3,1.6-2.6,3.2-4,4.7c-0.6,0.7-1.2,1.4-1.8,2.1c-1,1.1-2,2.1-2.9,3.2c-1.8,2.1-3.6,4.1-5.4,6.2c-0.1,0.1-0.1,0.1-0.2,0.2
		c-1.7,1.8-3.4,3.5-5,5.3c-1.6,1.8-3.3,3.6-4.9,5.4c-0.5,0.6-1,1.2-1.6,1.8c-1,1.1-1.2,2.5-1.5,3.9c-0.2,1.5,0,3.1-0.3,4.6
		c-0.3,1.9,0,3.9-0.3,5.8c-0.3,2.2,0,4.3-0.3,6.5c-0.2,1.8,0,3.5-0.2,5.2c-0.3,2-0.1,4-0.3,5.9c-0.2,1.4-0.1,2.9-0.2,4.3
		c-0.1,1.7-0.4,3.4-0.6,5.1c-0.3,0-0.6,0.1-0.9,0.1c-1.9,0-3.7,0.2-5.6,0c-1.9-0.2-3.8-0.1-5.6-0.3c-2-0.2-4-0.4-6-0.5
		c-1.9-0.1-3.9-0.5-5.8-0.8c-1.1-0.1-2.1-0.2-3.2-0.3c-1.1-0.1-2.3-0.3-3.4-0.5c-0.8-0.1-1.6-0.2-2.4-0.3c-1.2-0.1-2.5-0.2-3.7-0.3
		c-1.4-0.1-2.7-0.3-4.2-0.5c0-0.4-0.1-0.8-0.1-1.1c0-1.7,0-3.4,0-5.2c0-1.9,0.1-3.8,0.3-5.6c0.2-2.1,0.3-4.2,0.6-6.3
		c0.2-1.4,0.1-2.9,0.3-4.3c0.2-1.2,0-2.4,0.3-3.5c0.4-1.7-0.1-3.4,0.5-5.1c0-0.1,0-0.2,0-0.3c0.1-2.1,0-4.2,0.3-6.2
		c0.3-1.8-0.1-3.7,0.5-5.5c0,0,0-0.1,0-0.1c0.1-1.6,0.2-3.1,0.3-4.7c0.1-1.9,0.1-3.8,0.3-5.6c0.1-1.1,0-2.2,0.3-3.2
		c0.4-1.7-0.1-3.4,0.5-5.1c0-0.1,0-0.2,0-0.3c0.1-1.9,0-3.9,0.3-5.8c0.3-1.7-0.1-3.4,0.5-5.1c0-0.1,0-0.2,0-0.3
		c0.1-1.9,0.1-3.8,0.3-5.6c0.2-1.6,0.1-3.2,0.3-4.8c0.2-1.4,0.1-2.8,0.2-4.2c0.1-1.6,0.3-3.2,0.6-4.8c0.1-0.6,0.7-1.1,1-1.7
		c0.5-0.7,1-1.4,1.5-2c0.2-0.5,0.1-1.1-0.2-1.5c-0.8-1.2-0.5-2.5-0.4-3.8c0.1-1,0.3-2,0.5-3c0.2-1.1,0.4-2.3,0.5-3.4
		c0.1-0.7,0.2-1.5,0.3-2.3c0.3-1.9,0.6-3.9,0.8-5.8c0.2-1.9,0.4-3.7,0.6-5.6c0-0.2,0.1-0.3,0.2-0.5c1.5,0.1,3,0.2,4.4,0.4
		c1.7,0.2,3.5,0.4,5.2,0.5s3.5,0.4,5.2,0.5c1.6,0.2,3.2,0.3,4.8,0.5c1.9,0.2,3.7,0.5,5.5,0.8c1,0.1,2,0.2,2.9,0.3
		c1.1,0.1,2.2,0.2,3.3,0.3c1,0.1,2,0.4,3,0.5c1.4,0.1,2.8,0.2,4.2,0.3C248.5,327.6,249.1,327.6,249.9,327.6z M209.3,407
		c0.6,1.1,0.5,2.3,0.5,3.4c0,1.2-0.2,2.3-0.8,3.3c-1.1,1.7-0.6,3.4,1,4.5c1,0.7,2,1.3,2.9,2c1.3,1,2.4,2.1,2.7,3.9
		c0.5,3.1,1.2,6.2,1.9,9.3c0.1,0.7,0.3,1.4,0.9,1.9c1.1,0.2,2,0,2.6-0.9c0.1-1,0-1.9-0.3-2.8c-0.3-0.8-0.6-1.6-1-2.4
		c-0.9-1.8-0.7-3.7-1.1-5.6c-0.3-1.5-0.4-3.1-1.5-4.2c-0.8-0.9-1.8-1.7-2.8-2.5c-1.2-0.9-2.1-1.9-1.9-3.6c0.2-2.6,0.2-5.1,0.3-7.7
		c0-0.4,0.1-0.8,0.3-1.2c0.3-0.9,1-1.3,1.9-1.1c1.5,0.4,2.8,1.1,3.9,2.4c-0.4,1.5,0.2,2.8,1.1,4c0.6,0.8,0.9,1.7,1.3,2.7
		c0.5,1.2,0.9,2.6,2.2,3.5c0.5-0.1,1.1-0.2,1.8-0.3c1-0.2,1.9,0.2,2.4,0.9c0.7,0.9,1.3,2,0.7,3.4c-0.2,0.5-0.3,1.1-0.5,1.7
		c-0.1,0.4-0.2,0.9,0,1.3c1,0.2,1.2-1,1.8-1.3c1.1,0.4,1.1,0.4,1.6,1.6c-0.2,0.4-0.4,0.9-0.6,1.3c-0.2,0.5-0.6,0.9-0.7,1.4
		c-0.2,1-0.6,1.9-1,2.8c-0.7,1.5-1.1,3-0.2,4.7c0.3,0.1,0.7,0.3,1.1,0.5c0.5-0.3,1-0.6,1.4-1c0.6-0.7,1.3-1.2,2.2-1.3
		c0.7-0.8,0.7-1.6,0.5-2.4c-0.3-1.2-0.2-2.3-0.2-3.5c0-0.5-0.1-1-0.2-1.5c-0.1-1.3-1-2.4-1.4-3.6c-0.9-2.5-1.7-5.1-1.7-7.8
		c0-1.3-0.2-2.6-0.8-3.8c-0.6-1.3-1.1-2.6-1.1-4.1c0-0.6-0.3-1.3-0.5-1.9c-0.7-2.1-2-3.9-3.1-5.8c-0.2-0.3-0.4-0.6-0.6-0.9
		c-0.4-0.4-0.9-0.9-1.4-1c-1-0.1-2,0-3,0.1c-0.5,0-1,0.4-1.4,0.8c-1.2,1.2-2,2.6-2.6,4.2c-0.2,0.5-0.1,1.1-0.8,1.4
		c-0.8-0.5-1.5-1.3-1.8-2.1c-0.3-1.3-1.1-2.1-2.1-2.8c-1.3-0.9-3-0.5-3.9,1c0.3,1.1,1.6,1.8,1,3.2c-0.3,1.2-1.8,0.3-2.3,1.2
		c-0.4,1.8,0.4,2.9,1.7,3.8C208.1,406.3,208.7,406.6,209.3,407z"/>
	<path fill="#666666" d="M15.7,245.8c0.2-1.4,0.9-2.3,1.6-3.2c0.4-0.5,0.9-1,1.4-1.4c0.4-0.4,0.8-0.9,0.8-1.5
		c-0.4-0.6-1.1-0.9-1.7-1c-0.9-0.2-1.8-0.3-2.7-0.3c-1.3-0.1-1.8-0.3-2.4-1.6c-1.3,0.1-2-0.7-2.8-1.6c0.3-1,0.8-2,1.4-2.9
		c3.1-4.7,6.3-9.4,9.4-14.1c2.3-3.4,4.6-6.8,6.9-10.3c2.4-3.6,4.8-7.1,7.2-10.7c2.5-3.7,4.9-7.4,7.4-11c2.4-3.6,4.9-7.2,7.3-10.8
		c2.5-3.6,4.9-7.3,7.3-10.9c2.6-3.9,5.2-7.7,7.8-11.6c1.7-2.4,3.3-4.9,5-7.4c0.3,0,0.6,0,0.9,0.1c1,0.4,2,0.7,2.8,1.3
		c1,0.7,1.5,1.8,1.6,3c0.1,1.8,0.8,3.5,1.4,5.1c0.4,1.1,0.8,2.1,1.1,3.2c0.3,1,0.7,1.8,1.5,2.5c0.7,0.7,1.6,1.3,2,2.3
		c-0.6,0.8-1.2,1.7-1.7,2.6c-1.4,2.2-2.6,4.5-4,6.7c-1.1,1.8-1.7,3.8-2.5,5.8c-0.4,1.1-0.9,2.2-1.3,3.2c-0.3,0.7-0.6,1.4-0.9,2.1
		c-0.5,1.2-0.4,1.9,0.6,2.7c0.9,0.7,1.8,1.5,2.8,2.1c1.5,0.9,2.6,2.2,3.8,3.4c0.3,1.2-0.5,2.2-0.9,3.1c-0.6,1.5-1.4,2.9-1.8,4.5
		c-0.3,1-0.5,2.1-0.5,3.2c0,0.8,0.3,1.4,1,1.8c0.6,0.5,1.2,1,1.7,1.4c0.3,1.7,0,3.2-0.3,4.8c-0.3,0.1-0.6,0.3-0.9,0.4
		c-1.7,0.3-2.5,1.5-2.8,2.9c-0.2,0.9-0.4,1.8-0.9,2.5c-0.9,1.4-0.7,2.5,0.6,3.9c0.1,0.2,0.3,0.3,0.6,0.6c0,0.8,0,1.7,0,2.6
		c0,0.6,0.1,1.1,0.5,1.6c0.8,1.1,1.2,2.4,1.2,3.8c-0.1,1.3,0.2,2.5,0.8,3.6c0.5,1.1,0.7,2.1,0.3,3.2c-0.6,1.9-1,3.9-1.5,5.8
		c-0.2,0.9-0.3,1.8-0.4,2.6c-0.4,2.9-0.4,5.8-1.3,8.6c-0.2,0.7,0,1.2,0.4,1.6c1.8,1.5,2.4,3.6,2.9,5.8c0.5,1.9,1.2,3.7,2.1,5.5
		c0.4,0.8,0.7,1.5,0,2.4c-0.2,0.2-0.2,0.6-0.2,0.9c-0.2,1.5-0.5,3-0.7,4.5c0,0.2,0,0.4,0,0.5c0.6,1.1,1.6,1.4,2.5,1.9
		c1.5,0.8,3.1,1.5,4.5,2.4c1.3,0.8,2.6,1.5,4.3,1.5c0,0.4,0.1,0.9,0.1,1.2c-0.5,2.1-0.1,4.2-0.3,6.3c0,0.4,0.2,0.9-0.4,1.3
		c-1.3-0.6-2.5-1.2-3.8-1.9c-3.3-1.6-6.6-3.3-9.9-5c-3.7-1.9-7.3-3.8-11-5.8c-2.5-1.3-5-2.6-7.5-4c-2.4-1.4-4.8-2.8-7.2-4.2
		c-1.9-1.1-3.7-2.3-5.6-3.5c-1.9-1.2-3.8-2.3-5.7-3.5c-4.2-2.7-8.5-5.4-12.7-8.1c-2.6-1.7-5.1-3.4-7.7-5.2
		C16.8,246.8,16.3,246.3,15.7,245.8z"/>
	<path fill="#666666" d="M277.8,40.5c-0.7-0.4-1.3-0.8-1.8-1.2c-0.8-0.6-1.6-0.9-3.3-1.1c-0.2-0.2-0.5-0.5-0.7-0.8
		c-0.2-0.7-0.2-1.5,0.3-2c0.8-0.9,1.5-1.8,2.7-2.3c1.5-0.6,2.9-1.6,4-2.9c0.7-0.8,1.7-1.1,2.8-1.2c0.4,0,0.9,0,1.3,0
		c0.4-0.5,0.1-0.9,0-1.5c0.3-0.4,0.7-0.9,1.1-1.4c0.7-0.7,1.4-1.3,1.4-2.4c0-0.3,0.3-0.6,0.5-0.9c1.3-0.3,2.6-0.4,3.7,0.5
		c0.4,0.3,0.9,0.6,1.4,0.8c0.4,0.3,0.8,0.3,1.2,0c0.1-0.1,0.2-0.2,0.1-0.3c-0.1-1.5,0.6-2.8,1.4-4c0.6-1,1.3-2,1.7-3.2
		c0.5-1.4,1.6-2.5,2.8-3.4c0.3-0.2,0.7-0.3,1.1-0.3c0.4-0.1,0.9,0,1.4,0c0.1-0.3,0.2-0.6,0.3-0.8c0.4-0.7,0.8-1.4,1.7-1.7
		c0.7-0.2,1.4-0.5,2.3-0.4c1.5,0.2,3,0.8,4.5,0.1c0.4-0.2,0.8-0.3,1.1-0.5c1.5-0.8,3.1-1.2,4.7-1.4c0.6-0.1,1.3,0.1,2,0.3
		c0.8,0.3,1.5,0.2,2.4,0c1.3-0.3,2.6-0.9,4-0.6c2,0.4,4,0.2,6.1,0.3c1,0,1.9,0.4,2.2,1.5c0.4,1.2,1.3,1.8,2.5,2.1
		c0.3,0.1,0.7,0.2,1,0.3c1.6,0.3,2.5,1.2,2.8,2.8c0.2,1.1,0.5,2.1,0.5,3.2c0,1.2-0.2,2.4-0.5,3.6c-0.3,1.3-0.8,2.5-1.2,3.7
		c-0.4,1.2-1.2,2-2.3,2.5c-2.1,0.9-3.3,2.6-4.4,4.4c-0.6,1-1,2-1.5,3.1c0.8-0.5,1.6-1.1,2-1.9c0.4-0.8,1.1-1.4,1.7-2.1
		c0.4-0.4,0.9-0.9,1.4-1.3c0.4-0.3,0.8-0.5,1.4-0.3c0.3,0.1,0.5,0.2,0.8,0.3c0.1,0.1,0.3,0.3,0.3,0.5c0.1,2.1,0.6,4.3-0.8,6.3
		c-0.9,1.3-1.6,2.8-2.3,4.3c-0.3,0.7-0.3,1.5-0.6,2.2c-0.8,2.1-1.7,4.1-2.5,6.2c-0.6,1.6-1.6,3.1-1.9,4.9c-0.3,1.9-0.9,3.7-1,5.7
		c-0.1,1.4-0.5,2.8-1.7,3.8c-0.7,0.6-1.3,0.9-2.2,0.9c-0.4,0-0.7,0-1.2,0c-0.2,0.3-0.4,0.7-0.6,1.1c-0.2,0.5-0.4,1.1-0.7,1.6
		c-0.3,0.5-0.7,1.2-1.2,1.4c-1.3,0.7-2.6,1.7-4.2,1.6c-0.5,0.5-1,1-1.6,1.6c0.6,0.4,1.2,0.9,1.7,1.3c-0.1,0.7,0,1.4-0.2,1.9
		c-0.2,0.5-0.6,1-0.9,1.6c0.7,0.1,1.3,0.3,1.9,0.4c2.1,0.4,3.5,2.2,3.7,4.3c0.1,1.5-0.5,2.5-1.7,3.4c0.8,0.9,1.5,1.8,2.2,2.5
		c0,1.6-1.6,1.1-2,2.1c-0.1,2.8-1.2,4.7-5.2,5.1c0,1.3-0.2,2.5,0.1,3.8c0.3,1.3-0.1,2.5-1,3.5c-0.8,0.8-1.5,1.6-2.2,2.4
		c0.3,1.4,1.3,2.1,2.2,2.8c0.5,0.4,1.1,0.8,1.6,1.2c0.8,0.6,1.1,1.5,0.9,2.4c-0.4,1.8-0.8,3.7-2.1,5.2c-1.7,1.9-3.5,3.7-6.3,4.3
		c-0.3-0.2-0.8-0.5-1.3-0.8c0-0.7,0-1.3,0-1.9c-0.7-1-1.7-1.2-2.7-1.7c-0.4,0.3-0.7,0.7-1.1,1c-0.6,0.6-1.3,0.8-2.2,0.6
		c-1.8-0.4-3.3-1.2-4.4-2.6c-1.2,0.5-1.3,1.5-1.2,2.7c-0.4,0.3-0.9,0.6-1.5,1.1c-1.1-0.1-2.6,0.2-4-0.2c-0.5-0.1-1,0-1.5,0
		c-1.6,0-3.2,0-4.7,0c-0.9,0-1.9-0.2-2.8-0.3c-1.4-0.3-2.6-1.7-2.6-3.2c0.1-1.1-0.1-2.1,0.2-3.2c0.3-1,0.8-1.8,1.4-2.5
		c0.3-0.3,0.6-0.6,0.9-0.9c0.9-1,1.9-1.8,3.2-2c0.2,0,0.4-0.1,0.6-0.2c0.4-0.6,0.2-1.1-0.2-1.5c-0.6-0.6-1.2-1.3-1.7-1.9
		c-0.7-1-1.2-2.1-1.2-3.4c0.1-1.9,1.4-3.3,3.3-3.3c1.8-0.1,3.5,0.4,4.7,1.9c0.5,0.6,0.8,1.4,1.1,2.1c0.4,1.1,1,2,2,2.7
		c0.5,0,1.1,0.2,1.5-0.5c-0.3-0.4-0.5-0.8-0.9-1.2c-0.6-0.8-1.3-1.5-1.9-2.2c-0.5-0.7-0.9-1.5-1.4-2.3c0.7-1.1,1.3-2,2-3.1
		c-1.1,0-2.2,0-3.3,0c-0.8,0-1.6-0.1-2.4-0.3c-1-0.2-1.6-1-1.6-2.1c-0.1-1.2,0.1-2.3,0.7-3.4c0.4-0.7,0.6-1.5,0.7-2.3
		c0-0.5,0.3-1,0.6-1.4c0.8-1.1,2-1.7,3.2-2.4c0.9-0.5,1.8-0.9,2.7-1.4c1.8,1,3.7,1.9,5.6,2.9c0.6-0.6,0.7-1.3,0.9-2
		c-0.3-0.1-0.5-0.1-0.8-0.2c-2.9-0.3-4.4-2.4-5.6-4.7c-0.7-1.2-1.1-2.6-1.8-3.9c-0.8-1.4-1.7-2.6-2.5-3.9c-0.1-0.1-0.2-0.2-0.3-0.3
		c-1.8-0.9-2-2.6-1.9-4.4c0.1-1.1,0.4-2.2,0.5-3.3c0.1-1.7,1.8-2.2,3.1-2c0.2,0,0.3,0.2,0.5,0.2c2.4,0,3.8,1.7,5.1,3.3
		c1.2,1.5,2.4,3,3.7,4.8c0-0.6,0.1-0.9,0-1.1c-0.6-1.3-1.2-2.6-2.2-3.7c-0.7-0.8-1.5-1.7-1.2-3.1c0.5-0.8,1.3-1.3,2.2-1.8
		c1.1-0.7,2.2-1.3,3.4-2c0.7-0.4,1.5-0.8,2.4-1.2c0-0.9,0.7-1.6,1.3-2.4c0.6-0.8,1.4-1.4,2.1-2.2c-0.7-1.1-1.4-2.1-2.2-3.2
		c-0.6,1.1-1.2,2.2-1.9,3.3c-0.7,1.2-1.4,2.3-2.4,3.2c-1.1,1-2.4,1.6-4,1.6c-1.5,0-3,0.4-4.5,0.6c-0.7,0.1-1.5,0.4-2.2,0.4
		c-1.8,0.1-2.4-0.8-2.7-2.5c-0.1-0.9,0.2-1.7,0.5-2.5c0.1-0.5,0.2-0.9,0.4-1.5c-1,0.5-1.3,1.2-1.6,2c-0.7,1.6-1,1.9-2.7,2.6
		c-1.9-0.6-3.7-1.3-4.8-3.4c0.1-0.5,0.2-1.1,0.3-1.7c-0.4,0-0.9-0.1-1.4-0.1c-1.6-1.3-1.9-2.4-1.3-4.1c0.1-0.4,0.4-0.7,0.6-1
		c0.7-0.8,1.5-1.6,2.3-2.3C277.8,40.6,277.8,40.6,277.8,40.5z"/>
	<path fill="#666666" d="M433.9,391.9c-1-0.5-0.9-1.5-1.1-2.2c-0.2-0.8-0.2-1.6-0.3-2.4c-0.2-0.7-0.5-1.5-1.4-1.9
		c-0.6,0.3-1.3,0.6-2,1c-1.7,0.8-2.6,0.5-3.6-1.2c0.5-0.5,0.6-1.1,0.5-1.8c0-0.5,0-0.9,0-1.4c0.1-1.2-0.4-2.1-1.6-2.5
		c-0.3-0.1-0.5-0.2-0.7-0.3c-2.5-1.4-4.1-3.4-5.1-6c-0.5-1.5-0.3-2,0.9-3c0.6-0.5,0.9-1.2,1.1-2c0.2-1.1,0.7-2,1.5-2.8
		c0.4-0.3,0.6-0.8,0.9-1.2c0.2-0.4,0.4-0.8,0.6-1.1c1.4-0.3,2.6,0.2,3.7,0.7c0.5,0.2,1,0.5,1.6,0.8c1,0.5,1.8,0.4,2.6-0.4
		c0.3-0.2,0.5-0.5,0.8-0.8c0.2-0.3,0.4-0.6,0.6-0.9c1.9-0.5,3.7,0.3,5.6,0.1c0,0.9,0.1,1.6,0,2.4c0,0.5-0.4,0.8-0.7,1.1
		c-1.2,0.9-2.4,1.8-3.2,3.1c-0.3,0.6-1,0.9-1.5,1.4c-0.3,0.2-0.6,0.4-0.8,0.6c-0.1,1.4,0.4,2,1.7,2.1c1.3,0.1,2.2-0.2,3.1-1.2
		c1.2-1.4,2.9-1.8,4.7-1.5c2.1,0.4,3.6-0.4,4.3-2.4c0.4-1.2,0.7-2.5,0.1-3.8c-0.5-0.3-0.9,0-1.3,0.3c-1.2,1-2.6,1.2-4,0.7
		c-1.1-0.4-1.3-0.9-0.9-2c0.5-1.2,1-2.3,1.6-3.4c0.9-1.6,0.8-3.2,0-4.7c-0.5-1-0.9-2.1-1.8-2.9c-0.3-0.2-0.4-0.7-0.5-1.1
		c-0.4-2-1.4-3.6-2.7-5c-1.3-1.3-2.1-2.8-2.4-4.5c-0.3-1.6-0.6-3.2-0.8-4.9c-0.2-1.7-0.2-3.4-0.3-5.1c0-1-0.3-1.8-0.6-2.7
		c-0.3-0.8-0.9-1.2-1.7-1.5c-0.8-0.3-1.7-0.7-2.4-1.1c-0.7-0.4-1.3-1.1-1.6-2.1c0.2-0.4,0.4-1,0.7-1.5c0.4-0.6,0.5-1.3,0.3-1.9
		c-0.3-1-0.3-2,0-3c0.1-0.5,0-1.1,0-1.7c-0.9-0.5-1.7-0.2-2.6-0.3c-0.8,0-1.6,0-2.5,0c0-2-0.5-3.7-1.1-5.5c-0.2-0.5-0.4-0.9-0.8-1
		c-1.2-0.3-1.6-1.3-1.9-2.3c-0.5-1.5-0.9-3.1-1.3-4.6c-0.1-0.5-0.1-1-0.1-1.5c1.4,0.4,2.3,1.4,3.2,2.2c1.1,0.9,2,1.9,3,3
		c0.5,0.5,1,1.1,1.3,1.7c0.5,0.9,1.3,1.5,2.2,1.9c0.5,0.2,1,0.6,1.3,1c0.8,1.1,1.9,1.8,2.9,2.6c0.6,0.5,1,1.2,1.5,1.9
		c0.3,0.4,0.5,1,0.8,1.4c0.3,0.4,0.6,1,1,1.2c1,0.4,1.6,1.2,2.1,2c0.3,0.5,0.7,0.7,1.1,0.9c0.3,0.1,0.6,0.3,0.9,0.3
		c1.8,0.1,2.6,1.4,3.2,2.8c0.4,1,0.7,2,0.9,3.1c0.1,0.7,0.5,1.2,1.3,1.5c1.1,0.3,2,0.9,3,1.3c0.3,0.1,0.5,0.4,0.6,0.6
		c0.3,1.1,0,2.1-0.3,3c-0.3,1-0.3,1.9,0.2,2.9c0.2,0.4,0.3,0.9,0.5,1.4c0.3,0.8,0.8,1.5,1.6,1.7c2.6,0.9,5.2,1.8,7.7,2.6
		c1,0.3,1.8,0.6,2.5,1.4c0.6,0.7,1.3,1.4,2,2.1c1.1,0.1,2.1,0.2,3.2,0.2c2.1,0,4.2,0.3,6.2,0.9c1.3,0.4,2.3,0,3.2-0.7
		c0.2-0.1,0.3-0.3,0.6-0.5c0.7,0.1,1.5,0.2,2.3,0.4c1.2,0.3,2.3,0.8,3.4,1c0.9,0.2,1.2,1.2,0.8,2c-0.3,0.6-0.7,1-1.3,1.3
		c-0.5,0.3-1,0.7-1.4,1.1c-1,1-2.1,2-3.1,3.1c-1.5,1.6-2.9,3.3-4.4,4.9c-0.8,0.9-1.7,1.8-2.4,2.7c-0.5,0.6-0.7,1.4-1,2.2
		c-0.2,0.4-0.1,0.5,0.4,1.2c1.6-0.7,2.7-1.9,3.8-3.2c0.8-1,1.4-2.1,1.8-3.3c0.2-0.5,0.5-1,0.8-1.4c1.7-1.8,3.4-3.6,5.1-5.4
		c1-1,2.5-1.1,3.7-0.3c0.2,0.1,0.4,0.3,0.5,0.4c0.5,0.6,1,1.2,1.5,1.7c0.7-0.1,1.3-0.1,1.9-0.3c1.6-0.6,2.9,0,4.2,0.7
		c2,1.1,3.9,2.4,5.9,3.6c-0.1,0.6-0.4,1.2-0.5,1.9c-0.2,1.9,0.5,3.4,1.7,4.8c1.5,1.6,2.8,3.4,3.4,5.6c-1.4,2.9-3.3,5.5-5.6,7.9
		c-1.3-1.6-2.5-3.1-3.6-4.5c-1-0.4-1.6,0.1-2.2,0.4c-1.9,0.6-3.9,1.3-5.9,1.9c-3.6,1.1-7.1,2.6-10.7,4c-2.6,1-5.2,1.9-7.8,3
		c-3.4,1.4-6.9,2.6-10.5,3.7c-0.8,0.2-1.5,0.6-2.3,0.7c-0.6,0.1-1.4,0.1-2-0.1c-0.7-0.2-1.4-0.5-2.1-0.8c-0.8-0.3-1.6-0.7-2.6-1
		c-0.2,0.4-0.4,0.7-0.4,1c-0.1,1.3-0.2,2.7-0.3,4c-0.1,1-0.3,2-0.5,2.9c-1.3,0.8-2.4,0.5-3.5,0.3c-1.1-0.2-2.3-0.4-3.2-1.2
		c-0.3-0.3-0.9-0.3-1.4-0.3C436.8,391.8,435.3,391.9,433.9,391.9z"/>
	<path fill="#666666" d="M201.7,157.5c1.2,1.9,1.9,3.7,2.6,5.5c0.7,1.7,1,3.5,0.9,5.4c-0.1,1.5,0,3,0,4.5c0,0.6,0,1.1,0.5,1.6
		c0.2-0.1,0.7-0.1,0.9-0.3c0.3-0.3,0.6-0.8,0.7-1.2c0.1-0.2,0-0.5,0-0.8c0-1.7,0.2-3.5,0-5.1c-0.3-2.6-0.2-5.1-0.3-7.7
		c0-0.7-0.2-1.5-0.3-2.2c0.9-1,1.4-2.1,2.5-2.7c0.4-0.2,0.8-0.4,1.2-0.2c1.1,0.3,2.2,0.7,3.3,1.5c0-0.7-0.6-1.2-0.7-1.7
		c-0.1-0.6-0.1-1.2-0.1-1.7c1.1-2,2.9-2.6,4.9-2.5c1.7,0.1,3,1.2,4,2.5c0.2,0.2,0.4,0.5,0.5,0.8c0.6,1.1,0.8,2.1,0.2,3.3
		c-0.6,1.3-1.5,2.5-2.3,3.6c-0.5,0.6-1,1.2-1.6,1.9c-0.4,0.4-0.6,0.9-0.6,1.5c0,2.4-0.2,4.9,0,7.3c0.3,3.2,0.3,6.5,1.5,9.6
		c0.3,0.7,0.1,1.4-0.1,2.1c-0.4,1-0.7,2.1-1.1,3.1c-0.4,1-0.2,2,0.2,2.8c0.6,1.5,1.5,2.9,2.7,4c1.2,1.2,2.4,2.4,3.6,3.5
		c0.9,0.8,1.9,1.6,2.7,2.5c1,1,1.9,2.2,2.5,3.5c0.5,1.2,0.5,2.4,0.1,3.7c-0.3,0.7-0.8,1.1-1.5,0.9c-1.3-0.3-2.8-0.2-4-0.8
		c-0.2-0.1-0.4-0.2-0.6-0.2c-0.2,0-0.4,0-0.7,0c-0.4,0.8,0,1.5,0.3,2.2c0.3,0.6,0.7,1.1,1,1.6c0.8,1.2,1.2,2.5,1,4
		c-0.1,0.5-0.3,1.1-0.7,1.4c-1.3,1.3-2.9,2.2-4.9,2.2c-2.3,0.1-4.3-0.8-6.2-1.9c-1.3-0.8-2.5-1.8-3.8-2.7c-0.8-0.5-1.5-1.1-2.4-1.5
		c-0.8-0.4-1.5-0.8-2.1-1.6c-0.1-0.4-0.1-0.8-0.2-1.4c-0.4-0.1-0.9-0.1-1.4-0.2c-0.2,0.2-0.4,0.5-0.6,0.7c-0.4,1-1.3,1.4-2.2,1.7
		c-1,0.3-2.1,0.4-3.1,0.6c-1.3,0.2-2.5,0.4-3.7,1.1c-0.5,0.4-1.2,0.6-1.9,0.7c-1.3,0.2-2.7,0.3-4,0.3c-2.3,0-4.7,0-7-0.3
		c-2-0.2-4-0.2-6-0.8c-1.1-0.3-1.3-0.6-1.6-1.7c-0.2-0.9-0.2-1.8-0.3-2.7c-0.1-1.6-0.3-3.2-0.6-4.8c-0.1-0.8-0.5-1.6-1.5-2
		c-0.4-0.1-0.7-0.3-1.1-0.4c-2.4-0.6-4.3-1.9-6.2-3.4c-0.6-0.5-1.3-0.9-1.5-1.8c-0.1-0.5-0.2-1-0.3-1.4c-0.4-1.7-0.8-3.5-1.2-5.2
		c-0.1-0.5-0.1-1-0.2-1.8c10.4,2.9,20.5,6.1,30.8,8.9c1-3.2,1.7-6.4,2.5-9.5c0.9-3.1,1.6-6.3,2.4-9.4c0.8-3.1,1.5-6.2,2.3-9.3
		C200,164.1,200.8,161,201.7,157.5z"/>
	<path fill="#666666" d="M523.4,415.3c-1.1,0.4-2.1,0.7-3,1.1c-0.5,0.2-0.9,0.2-1.4,0c-0.7-0.2-1.3-0.1-1.9,0.3
		c-1.6,0.9-3.2,1.8-4.8,2.7c-1.4,0.8-2.9,1.1-4.5,1.3c-0.8,0.1-1.7,0.4-2.4,0.7c-2.5,0.9-4.9,1.9-7.4,2.9c-1,0.4-1.5,0.3-2.2-0.6
		c-1.1-1.6-1.1-3.2-0.1-4.9c0.4-0.6,0.7-1.3,1-2c0.4-1.1,0.2-1.6-0.7-2.3c-0.8-0.6-0.9-0.9-0.4-1.8c0.2-0.4,0.4-0.9,0.7-1.3
		c0.8-1.5,0.9-3,0.5-4.6c-0.1-0.3-0.1-0.7-0.1-1.1c0-1.4,0-2.9,0-4.3c0-0.4-0.1-0.9-0.2-1.3c0-0.2-0.1-0.4-0.1-0.5
		c0.5-2.1,0.1-4.2,0.3-6.3c0.1-1.9,0.2-3.7,0.5-5.6c0-0.1,0-0.3,0-0.4c0.2-2,0.2-4.1,0.6-6.1c0.3-1.5,0.8-2.9,2-4
		c1.2-1.1,2.3-2.2,3.7-2.8c0.1-0.1,0.3-0.1,0.5-0.1c1.1,0.7,1.7,1.7,1.9,3c0.4,2,0.3,4,0.2,5.9c-0.1,1.1-0.2,2.2-0.2,3.3
		c0,0.2,0,0.4-0.1,0.7c-0.2,1.3-0.5,2.6-0.7,3.9c-0.1,0.4,0,0.8,0.2,1.3c0.7-0.9,1.4-1.7,2.1-2.6c1.4-0.1,2.8-0.1,4.2,0.9
		c0,1.1,0,2.2,0,3.4c1.7,0,3.3,0.4,4.8-0.7c0.6-0.4,1.4-0.5,2.2-0.7c1.7-0.6,3.4-1.2,5-1.9c1.2-0.5,2.5-0.3,3.7,0.1
		c1.5,0.5,2,2.3,1.6,3.4c-0.1,0.2-0.1,0.4-0.2,0.6c-0.4,1.2,0.1,1.9,1.3,2.1c0.7,0.1,1.4,0,2,0c0.3,0,0.6-0.2,0.9-0.2
		c0.4,0,0.9,0,1.3,0c0.9,0.8,1.1,1.6,0.6,2.5c-0.4,0.8-1,1.6-1.6,2.3c-0.2,0.3-0.6,0.5-1,0.8c1.1,1.3,0.4,3,1.4,4.6
		c0.5-0.8,0.8-1.6,1.3-2.2c0.5-0.6,1.1-1.1,1.6-1.7c1.5,0.5,1.2,2.1,2,2.9c0.7,0.3,1.3,0.1,1.9-0.3c0.5-0.3,1.1-0.6,1.6-1
		c0.2,0.2,0.4,0.3,0.4,0.4c0.2,0.9,0.3,1.8,0.4,2.6c0.1,1.7,0,3.4,0,5.2c0,1.9-1.1,3.1-2.5,4c-0.4,0.3-1.1,0.2-1.7,0.4
		c-0.6-0.7-1.1-1.4-1.6-2.1c-0.6,0.8-1.1,1.4-1.6,2.1c-1.1-0.5-1.3-1.5-1.5-2.5c-0.3-1.4-0.4-2.7-0.6-4.1c-0.1-0.6-0.3-1.2-0.5-1.8
		c-0.1-0.4-0.4-0.7-0.9-0.6c-0.3,0.4-0.1,0.9-0.2,1.3c-0.1,0.8-0.3,1.6-0.9,2.2c-0.5,0.5-1,1-1.5,1.6c-1,1.2-1.1,2.7-1.4,4.1
		c-0.2,1-0.5,2-0.8,3c-0.4,1.3-1.6,1.8-2.8,1.9c-0.8,0.1-1.6,0.1-2.4,0c-0.4,0-0.8-0.3-1.2-0.4c0-0.8,0.5-1.1,0.8-1.5
		c0.5-0.5,1-1,1.5-1.6C523.6,417.7,523.4,416.5,523.4,415.3z"/>
	<path fill="#666666" d="M161.3,173.7c2.9-1.6,6.1-2,9.1-3.1c-1.3-0.2-2.3-0.5-3.4-0.6c-1.4-0.2-2.6-1.3-2.6-2.8c0-0.3,0-0.5,0-0.7
		c-0.4-0.5-0.6-1-1-1.4c-0.8-0.7-1-1.7-0.9-2.7c0.1-1,0.5-1.7,1.1-2.4c0.7-0.8,1.4-1.7,2-2.5c0.3-0.4,0.6-0.9,0.6-1.3
		c0-1.7,1.2-2.5,2.4-3.4c2.5-1.9,5.5-2.9,8.4-3.7c2.4-0.6,5-0.9,7.5-1.4c0.3,0,0.5-0.2,0.8-0.2c0.9-0.2,1.5,0.2,1.9,1.1
		c0.5,1.3,0.3,2.6-0.1,3.8c-0.3,0.9-0.7,1.8-1.1,2.7c-0.2,0.5-0.4,1.1-0.7,1.8c1.7-0.7,2.9-1.9,4.1-3c2.3,1.6,5,2.7,7,4.6
		c0.4,0.9-0.3,1.5-0.5,2.1c-0.2,0.6-0.5,1.2-0.8,2c1.3-0.4,2.6-0.3,3.6-1.3c-0.3-1.2-0.6-2.4-0.9-3.6c0.8-0.5,1.6-0.9,2.3-1.4
		c0.3,0.6,0.2,1.1,0.1,1.5c-1.3,5.3-2.6,10.6-3.9,15.9c-1.2,4.9-2.4,9.9-3.7,14.8c-0.4,1.5-0.9,3-1.3,4.5c-0.1,0.3-0.3,0.5-0.4,0.8
		c-8.9-2.3-17.6-5-26.3-7.6c-0.2,0-0.3-0.2-0.4-0.3c0.1-0.1,0.1-0.3,0.2-0.3c1.1-0.1,2.2-0.3,3.3-0.3c0.5,0,1,0.2,1.6,0.2
		c0.8,0,1.6,0.1,2.4,0c2.2,0,4.3,0.5,6.4,1.3c1.9,0.8,3.9,1.3,5.8,1.9c0.1,0,0.3,0,0.5,0c-0.2-0.3-0.4-0.5-0.6-0.7
		c-1.5-1.4-2.8-3.1-4.6-4.1c-1-0.6-2.1-1-3.3-1.1c-1.8-0.2-3.6-0.6-5.4-1.1c-1.7-0.4-3.4-1-5.1-1.6c-0.1,0-0.3,0-0.4-0.1
		c-1.4-0.5-2.4-1.3-2.7-2.9C162.1,176.1,161.7,174.9,161.3,173.7z"/>
	<path fill="#666666" d="M182.6,145.3c-1.1,1.5-2.7,1.9-4.3,2.4c-2.2,0.6-4.3,1.1-6.3,2.2c0,0-0.1,0-0.1,0.1c-1.2,1-2.7,1.5-4,2.4
		c-1.3,0.9-2.5,1.9-3.7,2.9c-0.8,0.6-1.6,1.2-2.4,1.9c-1.3,1.1-2.1,2.5-3,3.9c-0.5,0.8-0.9,1.5-1.4,2.3c-0.5,0.7-1.1,1.2-2,1.2
		c-0.7,0.1-1.5,0.3-2.2,0.5c-1.6,0.3-3.2,0.6-4.8,0.6c-0.5,0-1,0.1-1.4,0.2c-0.9,0.2-1.8,0-2.8-0.6c-0.2-1.4-0.4-2.9-0.6-4.4
		c-0.3-2.2-0.9-4.3-2.1-6.2c-0.8-1.3-1.6-2.7-2.4-4c-0.6-1.2-0.5-1.8,0.4-2.8c0.5-0.5,1.1-0.9,1.6-1.4c0.7-0.8,1.4-1.5,1.9-2.4
		c1.2-1.7,2.2-3.4,3.4-5c0.9-1.3,2-2.5,3-3.8c1.3-1.7,2.6-3.5,3.9-5.3c0.8-1.1,1.2-2.3,1.1-3.6c0-0.9,0-1.7,0-2.6
		c0-0.8,0.2-1.4,0.8-1.9c0.6-0.4,1.2-0.4,1.9-0.3c2.4,0.3,4.6,1.1,6.8,1.9c0.8,0.3,1.7,0.6,2.6,0.8c0.8,0.2,1.3,0.6,1.6,1.3
		c0.9,1.9,2.3,3.5,3.8,5c0.8,0.7,1.7,1.2,2.8,1.1c0.7,0,1.4,0,2,0c1.2,0,2.1,0.4,2.7,1.5c0.5,1,1,1.9,1.3,2.9
		c0.8,2.5,1.5,4.9,2.1,7.4C183,144.1,182.7,144.8,182.6,145.3z"/>
	<path fill="#666666" d="M300.1,142.2c-1.4,0.9-2.7,1.8-4.2,2.3c-0.9,0.3-1.9,0.5-2.9,0.5c-2.7,0-5.3,0.2-8,0.2
		c-1.2,0-2.3-0.1-3.4-0.5c-0.7-0.3-1.4-0.7-1.5-1.6c0-0.2-0.2-0.4-0.3-0.6c-1.6,0.5-2.2,2.3-3.8,2.9c-0.9-0.4-1.8-0.9-2.6-1.3
		c-0.9-0.5-1.8-0.7-2.8-0.8c-1.4-0.1-2.1-0.5-2.3-2.1c-0.1-1.3-0.3-2.6-0.5-4c0-0.3-0.1-0.6-0.2-0.9c-0.8-1.8-0.6-3.6-0.6-5.5
		c0-0.2,0.1-0.4,0.2-0.6c0.2-1.1,0.5-2.2,0.6-3.3c0.2-1.3-0.4-2.5-1-3.5c-0.5-0.9-1.1-1.8-1.7-2.9c-0.4-0.1-1-0.4-1.7-0.5
		c-1.1-0.2-2.1-0.3-3.2-0.3c-1.3,0-2.3-0.4-3-1.4c-1.1-1.4-2.1-2.9-3.2-4.3c-1.1-1.4-0.7-2.8-0.1-4.2c0.5-1.1,1.6-1.4,2.8-1.3
		c1.2,0.1,2.4,0.3,3.6,0.5c1.2,0.2,2.2,0.8,3.1,1.5c0.5,0.4,0.9,1,1.1,1.7c0.4,1.2,1.3,1.6,2.5,1.7c1.3,0,2.5,0,3.8,0
		c2,0,2.9,0.8,3,2.8c0,0.2,0,0.4,0,0.7c0.4,0.2,0.7,0.5,1.2,0.8c1.3,0.8,1.8,1.9,1.3,3.4c-0.2,0.6-0.4,1.3-0.6,1.9
		c0.1,0.9,0.8,1.4,1.4,1.9c0.8,0.7,1.3,1.6,1.4,2.8c0.4,0.1,0.7,0.3,1.1,0.3c1.7,0.4,3.5,0.7,5.2,1c1.1,0.2,2.2,0.4,3.3,0.6
		c0.6,0.1,1.2,0,1.8-0.3c1.2-0.6,2.6-1.1,3.8-1.7c0.8-0.4,1.7-0.9,2.4-1.5c1.1-0.9,2.2-1.6,3.6-1.4c0.7,0.1,1.4,0,2.2,0
		c3.2-0.1,5.8,1,8.3,2.9c1.2,0.9,2.3,1.9,3,3.2c0.5,1,0.8,1.9,0.1,2.9c-0.2,0.3-0.2,0.8,0,1.2c0.6,1.2,0.4,2.2-0.4,3.2
		c-0.3,0.4-0.5,0.9-0.5,1.4c0,1.6-1.1,2.2-2.2,2.7c-1.9,0.9-4,1.3-6.1,1.2C302.2,144.1,301,143.6,300.1,142.2z"/>
	<path fill="#666666" d="M269.2,75.1c-1-0.8-2-1.5-3.4-1.2c-1.1,0.2-2.2,0.3-3.3,0.3c-1.8,0-2.3-0.4-3-2.2c0.2-0.6,0.5-1.3,0.8-2
		c-0.2-0.2-0.5-0.3-0.7-0.5c-1-0.7-1.4-1.6-1.5-2.9c0-1.2,0.3-2.4,0.7-3.5c0.8-0.9,2-0.4,3.1-0.7c0-0.3,0-0.7-0.1-1
		c-0.4-0.7-0.7-1.3-1.4-1.8c-0.6-0.3-0.9-1-0.9-1.7c0-1.9,1-3.1,3.1-3.3c0.3,0,0.6-0.1,0.9-0.1c0.2,0,0.3-0.2,0.5-0.3
		c0.2-0.5,0.1-0.9-0.3-1.2c-0.5-0.5-1-0.9-1.4-1.4c-0.3-0.3-0.6-0.7-0.8-1c0.7-1.8,1.6-3.3,3.2-4.2c0.9-0.5,0.9-1.5,1-2.4
		c0.1-0.6,0.1-0.6,0.7-1.2c1.5-0.2,2.9,0.1,4.2,1c1.1,0.8,1.6,1.9,2.1,3c0.6,1.6,1.2,3.2,1.9,4.7c0.5,1.1,1.3,2.1,2.1,3.1
		c0.5,0.7,1.2,1.3,1.7,2.1c0.3,0.5,0.7,1,0.8,1.5c0.1,1.8,1.1,3,2.3,4.2c0.3,0.4,0.7,0.7,1,1.1c0.7,0.9,1.2,1.9,1.1,3.1
		c0,0.4,0,0.7,0,1c0.7,1.7,2.3,2.5,3.5,3.6c0.5,0.5,1.2,1,1.7,1.5c0.3,0.3,0.5,0.9,0.5,1.3c0.2,1.6-0.4,3-1.3,4.4
		c-1.6,2.4-3.6,4.4-5.6,6.3c-0.4,2.7-2,4.5-4,6c-0.7-0.2-1.3-0.3-1.9-0.5c-0.5,0.2-0.5,0.6-0.5,1c-0.1,1.3-0.4,1.6-1.7,1.7
		c-0.4,0-0.8,0-1.2,0c-0.5,0-0.9,0-1.4,0c-1.8-1-2.9-2.6-3.9-4.3c-0.4-0.7-0.9-1.4-1.4-2c-1.3-1.5-2.1-3.1-2.7-4.9
		c-0.7-2.2,0.7-4.3,2.9-4.5C267.8,77,268.6,76.3,269.2,75.1z"/>
	<path fill="#666666" d="M433.5,448c-0.2-0.3-0.3-0.5-0.4-0.8c-0.1-0.3,0-0.5,0-0.8c0-1.4,0-2.8,0-4.2c0.3-0.1,0.5-0.2,0.8-0.2
		c1.4-0.1,2.9-0.1,4.3-0.3c1.4-0.2,2.7-0.7,3.8-1.6c0.8-0.8,1.8-1.3,2.9-1.7c1.3-0.4,2.6-0.9,4-1.2c0.7-0.1,1.3-0.1,2,0.1
		c0.7,0.3,1.4,0.4,2.2,0.7c1.5-1.5,3.2-2.4,5.1-2.9c0.6-0.2,1.3-0.1,2-0.2c0.3,0.6,0.2,1.1-0.1,1.6c-1.2,2.4-1.1,4.8,0.2,7.2
		c0.7,1.3,1.2,2.6,1.9,3.8c0.6,1,1.5,1.8,2.4,2.5c0.7,0.4,1.3,0.7,2.1,0.7c0.9,0,1.9,0,2.8,0c0.3,0,0.6,0.1,1,0.2
		c-0.3,0.8-0.8,1.3-1.2,1.8c-1.2,1.3-2.4,2.6-3.2,4.1c-0.8,1.4-1.5,2.7-2.6,3.9c-1,1.1-1.8,2.3-3,3.2c-0.7,0.5-1.3,1.1-1.9,1.6
		c-0.4,0.4-0.9,0.6-1.5,0.6c-0.7,0-1.2,0.3-1.5,1c-0.6,1.5-2,2-3.5,2.2c-0.7,0.1-1.5,0.1-2.3-0.1c-1.3-0.2-2.3-1.1-2.8-2.3
		c-0.5-1.1-1.1-2.2-2.4-2.6c-0.5-0.8-1.2-1.6-1.6-2.5c-0.8-1.7-1.5-3.5-1.8-5.4c-0.2-1.1-0.5-2.2-0.5-3.3c0-1.5-0.5-2.8-1.9-3.6
		c-0.5-0.3-0.9-0.6-1.3-0.9C436.2,448.1,434.9,447.9,433.5,448z"/>
	<path fill="#666666" d="M319.8,275.7c1,0,2,0,3.1,0c1.2-0.1,2.2,0.4,3,1.2c0.4,0.3,0.8,0.6,1.2,0.9c-0.1,1.3-0.3,2.4-0.4,3.3
		c-0.8,1.1-1.7,1.7-2.8,2.2c-0.5,0.2-1,0.3-1.6,0.1c0,0-0.1,0-0.1-0.1c-1.6-0.8-3.3-1-5.1-0.9c-1.1,0.1-2.1-0.8-2.3-1.9
		c-0.1-0.9-0.5-1.6-1.2-2c-1-0.6-2-1.1-3.3-0.9c-0.4,0.6-0.7,1.3-0.7,2.1c0,1.3-0.7,2.3-1.5,3.2c-1.5,1.8-2.9,3.5-4.4,5.2
		c-0.7,0.9-1.6,1.5-2.8,1.3c-0.5-0.1-1,0-1.4,0c-0.6-0.5-0.8-1.2-0.7-1.9c0-0.9,0.1-1.9-0.5-2.8c-0.7-0.4-1.5-0.5-2.3-0.5
		c-1.1,0-2.2-0.1-3.3-0.3c-0.8-0.1-1.6-0.4-1.8-1.5c0.3-0.8,0.8-1.5,1.4-2.2c0.3-0.4,0.6-0.8,0.9-1.2c0.7-0.9,1-1.9,1-3
		c-0.1-2,0-4.1,0-6.1c0-3,0.3-5.9,1-8.8c0.3-1.4,0.6-2.8,1-4.1c0.5-1.7,2.7-2.2,3.9-0.9c0.5,0.5,0.9,1.1,1.2,1.8
		c0.4,0.7,0.7,1.4,1,2c0.2,0.4,0.5,0.7,0.7,1.1c1.9,0,3.3,1.1,4.8,2c2.5,1.7,5,3.4,7.5,5.1c0.6,0.4,1.1,0.8,1.6,1.3
		c0.2,0.2,0.4,0.5,0.5,0.8c0.6,1.3,1.2,2.6,1.8,3.9C319.5,274.8,319.7,275.2,319.8,275.7z"/>
	<path fill="#666666" d="M245.2,183.3c-0.2,0.9-0.6,1.7-1.3,2.3c-2.2,1.6-2.2,1.5-4,1.4c-1.3-0.6-2.2-1.8-3.2-2.8
		c-0.4-0.4-0.6-0.9-0.6-1.5c-0.1-0.8-0.2-1.7-0.4-2.5c-0.5-1.9-1.6-3.3-3.2-4.3c-1.6-1-2.7-2.4-3.6-4c-0.1-0.2-0.3-0.4-0.4-0.7
		c-0.7-1.2-1-2.5-0.4-3.9c0.5-1.3,1-2.7,2.5-3.2c1.9,0.6,2.9,2.5,5,2.7c1-1.4,1.7-2.7,1.4-4.5c-0.4-0.5-0.9-1-1.3-1.6
		c-1.1-1.5-1.7-3-1.1-4.9c0.5-1.5,1-3,2.5-3.9c2,0,3.3,1.7,5.2,2.2c2-1.8,4.4-2.1,7-1.9c1.2,1.4,0.4,3.1,0.7,4.7
		c-0.4,0.3-0.7,0.6-1,0.9c0,0.1,0,0.2,0,0.2c1.2,0.9,1.3,1.4,0.3,2.5c-1,1.2-1.9,2.3-3,3.6c0.2,0.2,0.3,0.5,0.5,0.7
		c0.2,0.2,0.5,0.3,0.8,0.4c0.8,0.3,1.1,0.9,1.2,1.8c0.1,0.7,0.2,1.5,0.6,2c0.7,1.1,1.2,2.2,1.4,3.5c0.3,1.6,0.6,3.3,0.4,4.9
		c-0.1,0.9-0.5,1.7-1.1,2.4C248.6,181.5,247.3,183,245.2,183.3z"/>
	<path fill="#666666" d="M472.1,459.4c-1.2,0.1-2,0.8-3,1.2c-0.9,0.4-1.9,0.9-2.7,1.3c-0.9-0.9-1-1.2-0.6-2c0.7-1.6,1.6-3.2,2.9-4.5
		c0.5-0.5,1-1.2,1.5-1.7c0.8-0.9,1.8-1.3,3-1.3c0.8,0.1,1.5,0.1,2.3,0c2.6-0.2,5.2-0.4,7.5-1.8c0.8-0.5,1.6-0.4,2.5-0.4
		c0.6,0,1.2,0.2,1.9,0.2c1.7,0.1,3.1,0.6,4.3,2c0.8,1,0.8,1.7,0,2.6c-0.8,0.9-1.7,1.7-2.6,2.6c-0.6,0.7-1.2,1.5-1.9,2.1
		c-0.9,0.9-1.9,1.8-2.9,2.6c-1.4,1-2.6,2.2-4.2,2.8c-0.3,0.1-0.5,0.5-0.7,0.8c-0.7,1-1.3,1.9-2,3c-0.8,0-1.7,0-2.6,0
		c-0.3,0.6-0.7,1.1-0.8,1.7c-0.6,2.3-1.5,4.4-2.6,6.4c-0.4,0.7-0.9,1.4-1.4,2c-1.4,1.4-2.8,2.8-4.2,4.3c-1.1-0.4-2.3-0.5-3.4-1
		c-1.4-0.7-2.2-1.7-2.7-3.1c-0.5-1.2-0.8-2.5-1.1-3.7c-0.2-0.8,0.2-1.6,0.6-2.3c0.8-1.4,1.6-2.7,2.5-4c1.4-1.9,2.9-3.7,4.4-5.4
		c0.4-0.5,1.1-0.8,1.7-1.1c1.6-0.7,3-1.5,4.3-2.7C471.8,459.8,471.9,459.7,472.1,459.4z"/>
	<path fill="#666666" d="M198.8,126.9c-0.4-0.5-1-0.5-1.5-0.4c-1.3,0.2-2.3-0.3-3.1-1.3c-0.2-0.2-0.5-0.4-0.7-0.7
		c-1,1-2.2,1.4-3.5,1.4c-1.4,0-2.4-0.7-3.3-1.6c-1-1-1.8-2.1-2.7-3.2c-0.5-0.7-1.1-1.3-1.1-2.2c0-1.3,0.3-1.8,1.5-2.3
		c0.2-0.1,0.5-0.2,0.7-0.4c0.1-0.4,0.2-0.8,0.4-1.3c0.1-0.4,0.3-0.8,0.6-1c0.8-0.8,1.2-1.7,1.6-2.8c0.6-1.7,1.6-3.2,3.5-3.8
		c0.5-0.2,0.9-0.5,1.2-1c0.4-0.8,1.1-1.1,2-1.1c0.8,0,1.5,0,2.3,0.2c2,0.6,2.7,1.4,2.7,3.4c0,0.2,0,0.4,0,0.7c0.5,0.5,1.1,1,1.8,1.5
		c1.8,1.4,2.7,3.2,2.8,5.4c0.1,1,0.1,2.1,0.3,3.1c0.2,1.4,0.8,1.9,2.3,2c0.5,0,1,0,1.4,0c0.6,0.9,0.5,1.8,0.3,2.6
		c-0.5,2.4-1.2,4.8-1.8,7.2c-0.2,0.9-0.7,1.4-1.5,1.8c-1.1,0.6-2.2,1.2-3.2,1.9c-1.1,0.7-2.3,1.2-3.7,1.1c-1.2-0.1-2.4,0-3.6,0
		c-1.6-1.4-3.2-3.4-4-5.2c0.3-1.1,1.3-1.6,2.2-1.9c1.5-0.5,3.1-0.9,4.6-1.4C197.9,127.7,198.5,127.5,198.8,126.9z"/>
	<path fill="#666666" d="M274.8,154.3c0,0.3,0,0.6-0.1,0.9c-0.3,0.6-0.6,1.2-0.9,1.8c-0.6,1-1.2,1.9-1.5,3.1c-0.3,1-0.9,1.9-1.4,2.9
		c-0.9,1.4-1.5,2.9-2,4.5c-0.2,0.9-0.6,1.8-0.9,2.7c-1,0.1-2,0.1-2.9,0.3c-1.2,0.2-2.4,0-3.5,0.8c-0.2,1.9-0.5,3.8-0.7,6
		c-1,1-2.5,1.6-4.1,1.3c-1.2-0.2-2.8-1.3-2.6-3c0.2-1.4-0.4-2.8-0.6-4.2c-0.1-0.3-0.2-0.7-0.2-1.1c0-1.8-0.1-3.5,0-5.3
		c0-1.1,0.3-2.2,0.4-3.3c0.1-1,0.3-1.9,0.5-2.9c0.4-1.4,0.9-2.7,1.3-4.1c0.2-0.5,0.3-1.1,0.4-1.7c0.3-1,0.7-1.9,1.8-2.4
		c1.9-0.8,3.9-1.2,6-1.1c0.6,0,1.1,0.3,1.7,0.5c1.2,0.5,2.4,0.9,3.7,1.1c1.6,0.2,2.9,1.1,4.2,2C274,153.6,274.4,153.9,274.8,154.3z"
		/>
	<path fill="#666666" d="M45.8,411.6c-1.6,0.1-3.1,0.1-4.6-0.4c-0.9-0.4-1.7-0.9-2.3-1.5c-1.9-1.7-3.5-3.7-4.7-6
		c-0.4-0.7-0.7-1.5-0.5-2.4c-0.2-0.2-0.4-0.5-0.7-0.6c-1.8-0.7-2.6-2.2-3-3.9c-0.3-1.3-0.9-2.5-1.5-3.7c-0.6-1.2-1.2-2.5-1.9-3.7
		c-0.8-1.6-1.7-3.3-2.6-4.9c-1.2-2.1-1.7-4.5-2.4-6.8c-0.2-0.7-0.4-1.5-0.6-2.2c-0.1-0.4-0.2-0.8-0.2-1.1c0.8-1,1.6-1.8,2.9-2.2
		c0.9,0.2,1.6,0.8,2.3,1.5c1.9,1.9,3.8,3.9,5.5,6c1.1,1.4,2.3,2.7,3.5,4.1c0.9,1.1,1.8,2.1,2.6,3.2c0.3,0.3,0.5,0.8,0.6,1.2
		c0.4,1.6,0.9,3.3,1.1,4.9c0.3,2.2,1.1,4.1,2.5,5.8c0.4,0.5,0.8,1,1.2,1.5c1.2,1.5,1.6,3.3,1.8,5.2c0.2,1.3,0.5,2.6,0.8,3.9
		C45.8,410.1,45.9,410.8,45.8,411.6z"/>
	<path fill="#666666" d="M239.5,131.1c0.7-0.9,1.4-1.7,2.2-2.6c-0.3,0-0.6-0.1-0.9-0.1c-1.4,0-2.8-0.1-4.2,0c-1,0-2-0.2-2.9-0.9
		c-0.1-0.7-0.3-1.4-0.3-2.2c0.1-1.5-0.7-2.6-1.8-3.4c-0.8-0.6-1.7-1.1-2.6-1.7c-0.2-0.1-0.3-0.3-0.5-0.5c0.2-1,0.7-1.9,1.7-2.6
		c1.1,0.1,2.3,0.2,3.4,0.4c0.7,0.1,1.3,0.6,1.7,1.4c0.8,1.5,1.9,2.8,3.4,3.8c0.7,0.5,1.5,0.7,2.4,0.3c0.2-0.5,0.3-1.1,0.4-1.6
		c0.1-0.7-0.1-1.3-0.6-1.7c-0.6-0.6-1.3-1.1-1.9-1.7c-0.2-0.2-0.5-0.3-0.7-0.4c-0.7-0.5-0.8-1.1-0.1-1.7c1.3-1.3,2.7-2.5,4.3-2.9
		c0.8,0.1,1.5,0.1,2.1,0.2c1.4,0.2,2.8,0.3,4.2,0.7c0.8,0.3,1.4,0.7,2.1,1.4c-0.1,0.7-0.2,1.6-0.3,2.4c0,0.3,0,0.6,0,0.9
		c0,0.9,0,1.9,0,2.8c-0.1,2.4-0.2,4.8-0.3,7.3c0,0.4-0.1,0.9-0.3,1.3c-0.5,1.6-0.2,3.2-0.3,4.9c-0.9,1.2-2.1,1.5-3.6,1.1
		c-1.3-0.3-2.6-0.6-3.7-1.5C241.2,133.7,240.1,132.7,239.5,131.1z"/>
	<path fill="#666666" d="M169.1,104.4c-0.2-1.1-0.1-2.1,0.6-3c0.7-0.9,1.5-1.6,2.7-2c1-0.3,1.9-0.7,2.9-1.1c0.5-0.2,1-0.5,1.4-0.7
		c0.3-0.1,0.6-0.3,0.9-0.4c2-0.3,3.2-1.6,4.6-2.9c1.1-1,2.2-2,3.4-2.8c1-0.8,2.2-1.2,3.5-1.1c1,0.1,2,0,3,0c0.3,0,0.7,0.1,0.9,0
		c1.3-0.6,2.4,0.1,3.4,0.7c0.4,0.2,0.8,0.8,0.9,1.3c0.5,1.8-0.3,3.8-1.9,4.8c-0.6,0.4-1,1-1.1,1.8c-0.1,0.7-0.1,1.3-0.3,2
		c-0.2,0.7-0.4,1.4-1.2,1.8c-1.3,0.6-2.3,1.6-3.2,2.6c-0.6,0.6-1.2,0.9-2.1,0.8c-1.2-0.6-1.1-1.7-1-2.8c0-1.1,0.7-1.8,1.4-2.6
		c-0.1-0.1-0.2-0.1-0.2-0.2c-0.6,0.5-1.3,1-1.9,1.6c-1.6,1.6-3.2,3.2-4.8,4.8c-0.6,0.6-1.3,1.2-2,1.6c-0.7,0.5-1.5,0.8-2.6,0.5
		c-0.3-0.3-0.7-0.8-1-1.3c-0.3-0.5-0.3-1.1-0.5-1.6c-0.9-0.3-1.7-0.1-2.5-0.2C171,105.9,169.9,105.5,169.1,104.4z"/>
	<path fill="#666666" d="M222.1,118.7c1,0.4,1.5,1.1,1.8,2.2c0.4,1.2,0.5,2.3,0.5,3.6c0,0.7,0,1.4,0,2c0,0.7-0.2,1.3-0.6,1.9
		c-0.6,1-1.2,2-1.9,2.9c-0.9,1.2-2.1,1.9-3.5,2.3c-1.6,0.5-3.1,0.1-4.5-0.5c-0.5-0.2-1-0.5-1.6-0.8c-1-0.5-1.9-0.4-2.7,0.3
		c-0.4,0.4-0.8,0.6-1.3,0.3c-0.4-1.3,0-2.5,0.2-3.7c0.2-1.5,0.7-2.9,1.2-4.4c0.2-0.7,0.6-1.3,1.1-2.3c0.1-1.1,0.1-2.6,0.3-4
		c0.3-2.1,0.7-4.1,1.1-6.2c0.3-1.3,0.7-2.6,1-3.9c0.3-1.2,1-1.9,2-2.3c0.9,0.2,1.6,0.5,2.1,1.3c0,0.1,0.1,0.2,0,0.4
		c-0.4,1.4-0.1,2.7,0,4.1c0.2,1.6-0.2,3-0.6,4.5c-0.3,1.1,0,1.9,0.2,2.9c0.9,0.3,1.7,0.3,2.5,0C220.3,119,221.1,118.9,222.1,118.7z"
		/>
	<path fill="#666666" d="M249.6,92.5c0,2.6-1.1,3.9-3.2,3.8c-0.9-1-1.8-2.1-2.9-3.2c-0.9-0.9-1.9-1.8-2.9-2.6
		c-0.8-0.7-1.8-0.8-2.8-0.9c-0.6-0.1-1.2,0-1.8,0c-2.5,0-4.5-2.5-3.8-4.9c0.2-0.6,0.5-1.2,1.2-1.3c0,0,0.1,0,0.1,0
		c2-0.8,2.5-2.3,1.3-4.2c-0.3-0.5-0.8-1-1.2-1.5c-0.4-0.5-0.8-1-1.2-1.5c-1.4-1.9,0.1-4.4,2.3-4.6c1.5-0.1,2.7,0.4,3.9,1.3
		c0.8,0.6,1,1.6,1.2,2.5c0.3,0.1,0.5,0.4,0.8,0.4c2,0.5,3.2,2,4.3,3.7c0.7,1.1,1.2,2.2,2.1,3.1c0.3,0.3,0.5,0.6,0.7,1
		c0.3,0.7,0.6,1.4,0.2,2.2c-0.3,0.5-0.4,1.2-0.6,1.8c-0.2,1.2,0.1,2.3,0.9,3.3C248.8,91.4,249.2,92,249.6,92.5z"/>
	<path fill="#666666" d="M242.9,206.9c1.8,0.7,2.8,2.1,3.9,3.3c2.2,2.4,3.2,5.3,4.4,8.3c0.4,0.9,0.7,1.9,0.6,2.9
		c0,0.7-0.4,1.3-0.9,1.7c-2,1.5-4.2,1.8-6.5,0.7c-1.4-0.6-2.6-1.5-3.7-2.4c-0.9-0.8-1.8-1.5-2.8-2c-0.7-0.4-1.4-0.9-1.9-1.6
		c-0.5-0.6-0.5-1.2-0.1-1.7c1-1.5,2-3.1,3.1-4.5c0.9-1.3,2-2.5,3-3.8C242.2,207.3,242.6,207.1,242.9,206.9z"/>
	<path fill="#666666" d="M328.5,162.8c-1,0.6-1.9,0.9-2.9,0.9c-1.2,0-2.5-0.2-3.7,0.3c-0.6,0.2-1.2,0.5-1.9,0.8
		c-0.9,0.4-1.7,0.7-2.7,0.6c-0.6-0.1-1.1-0.2-1.5-0.8c-2-3.1-3.6-6.4-4.9-9.9c0-0.1,0-0.2,0-0.3c0.4-0.5,1.1-0.7,1.8-0.7
		c1.9,0,3.7-0.1,5.6,0c2,0.1,3.7,0.9,5.3,2.2c1.5,1.2,2.6,2.7,3.8,4.2c0.5,0.6,0.8,1.3,1.1,2C328.6,162.2,328.5,162.5,328.5,162.8z"
		/>
	<path fill="#666666" d="M252.7,137.9c-0.2-1.1,0-2,0.4-2.8c0.7-1.4,1.5-2.8,2.2-4.2c0.8-1.4,2.1-1.9,3.7-2c1.7-0.1,3,0.7,4.3,1.6
		c0.6,0.5,0.9,1.1,1,1.9c0.1,1.5,0.2,2.9,0.3,4.4c0,0.6,0.1,1.2,0.2,1.8c0.4,2.2-0.8,3.9-2.7,4.5c-1,0.3-1.9-0.1-2.7-0.5
		c-0.9-0.4-1.8-1-2.6-1.6c-0.8-0.5-1.6-1.1-2.4-1.7C253.7,139,253.2,138.4,252.7,137.9z"/>
	<path fill="#666666" d="M344.6,227.3c0,1,0.1,2,0,3c0,0.7-0.2,1.4-0.4,2.1c-0.2,0.4-0.5,0.9-0.9,1.1c-1.3,0.8-2.6,1.5-4,1.8
		c-0.7,0.1-1.3-0.1-1.8-0.5c-1.4-1-2.1-2.5-2.4-4.2c-0.1-0.5-0.2-1-0.2-1.4c0-0.2-0.1-0.4,0-0.5c0.4-2.2,0.5-4.5,1.7-6.6
		c1-1.8,3.3-3,5.6-1.5c1.1,0.7,1.9,1.5,2.2,2.7c0.1,0.4,0.2,0.8,0.2,1.2C344.6,225.4,344.6,226.3,344.6,227.3z"/>
	<path fill="#666666" d="M215.5,86.6c0.6,0.4,0.9,0.8,0.8,1.4c-0.4,1.9-0.9,3.8-1.3,5.7c-0.2,0.7-0.4,1.4-0.7,2
		c-0.4,1-1.2,1.7-2.3,1.9c-1.8,0.3-3.5-0.2-5-1.3c-0.5-0.4-0.9-1-1.1-1.6c-0.4-0.9-0.7-1.9-1-2.9c-0.2-0.4-0.4-0.8-0.6-1.2
		c-0.3-0.4-0.7-0.7-1-1.1c-1.2-1-1.7-2.3-1.5-3.8c0.8-1,1.3-1.1,2.2-0.3c0.5,0.5,0.9,1.2,1.4,1.9C208.5,86.9,212,86.6,215.5,86.6z"
		/>
	<path fill="#666666" d="M492.4,451.7c-2.4-1.4-3.8-3.6-5.4-5.4c1.3-3.4,2.4-6.6,3.6-9.7c0.3-0.9,0.8-1.7,1.4-2.3
		c0.7-0.1,1,0.2,1.1,0.6c0.5,0.9,1,1.8,0.9,2.9c0,0.4,0,0.8,0,1.2c0.1,1,0.5,1.7,1.5,2c1.2,0.4,2,1.1,2.8,2c0.6,0.7,0.8,1.5,0.3,2.3
		c-0.6,1-1.1,2-1.8,3c-0.3,0.4-0.8,0.7-1.2,0.8c-1,0.3-1.8,0.7-2.3,1.7C493.2,451.1,492.8,451.3,492.4,451.7z"/>
	<path fill="#666666" d="M12.5,350.1c-1.1-0.6-1.4-1.8-1.9-2.8c-0.8-2-1.2-4.1-1.6-6.2c0,0,0-0.1,0-0.1c-0.1-2.6-0.3-5.1-0.2-7.7
		c0-2,0.2-4.1,0.6-6.1c0.2-1,0.7-2,1.1-3c1.3-0.3,2.4,0.1,3.5,0.8c1.8,1.2,3.4,2.6,4.6,4.5c-0.5,0.6-0.9,1.2-1.4,1.8
		c-1.2,1.3-2.5,2.6-3.7,4c-0.6,0.7-1.2,1.5-1.8,2.2c-0.9,1.2-1,2.4-0.6,3.8c0.6,2.5,1.3,5.1,1.9,7.6
		C13.1,349.3,13.1,349.8,12.5,350.1z"/>
	<path fill="#666666" d="M261.1,94.1c-1.2,0.9-2.5,1.9-3.6,2.7c-1.9,0.4-3.2-0.3-4.2-1.7c0-0.1-0.1-0.3,0-0.4c0.3-1.6-0.4-2.8-1.4-4
		c-1.8-2.1-1.6-4.8-0.4-6.9c0.2-0.3,0.4-0.6,0.7-0.8c0.6-0.5,1.2-0.7,2-0.2c1.4,0.9,2.9,1.6,4.2,2.6c2.2,1.4,2.1,0.8,2.6,3.8
		C261.1,90.8,260.9,92.4,261.1,94.1z"/>
	<path fill="#666666" d="M454.5,414.3c-0.2-1.2,0.5-1.9,1.3-2.4c0.9-0.5,1.9-0.8,2.9-0.8c1.9,0,3.9-0.1,5.8,0
		c1.2,0.1,2.5,0.2,3.7,0.6c1.8,0.5,3.6,1.2,5.4,1.9c0.4,0.1,0.7,0.4,1.1,0.6c0,0.7,0,1.3,0,2c-0.4,0.8-1.3,0.9-2.1,1
		c-1.6,0.3-3.2,0.3-4.8,0.5c-1.9,0.1-3.9,0.4-5.8-0.2c-0.5-0.1-1.1-0.3-1.5-0.6c-0.8-0.6-1.8-0.8-2.7-1.1
		C456.8,415.4,455.6,415.1,454.5,414.3z"/>
	<path fill="#666666" d="M479.4,450.6c-1.2-0.2-2.3-0.4-3.4-0.4c-2.3,0-4.5-0.4-6.7-0.9c-1-0.2-1.9-0.5-2.8-0.8
		c-0.6-0.2-1.3-0.3-2.1-0.4c-0.6-0.3-0.7-0.8-0.4-1.6c0.5-1.2,0.9-2.4,2.1-3.3c1.8,0.6,2.6,2.5,4.3,3.2c1.3-0.7,2.8-0.7,4.2-0.9
		c0.7-0.1,1.3-0.2,1.9-0.4c1.3-0.4,2.5-0.8,3.8-1.2c0.3-0.1,0.7,0,1.2,0c-0.2,0.6-0.3,1.1-0.5,1.6c-0.4,0.9-0.6,1.8-0.6,2.8
		C480.2,449.3,480.1,450.1,479.4,450.6z"/>
	<path fill="#666666" d="M318.9,290.6c0.2,0.5,0.4,1.1,0.7,1.6c-1.4,4.2-5.4,7.6-10.1,7c-1.3-0.9-1-2.3-0.9-3.7
		c0.2-1.3,0.8-2.5,1.6-3.5c0.9-1.2,2.2-2,3.8-2c1.1,0,2.2,0,3.3,0C318,290.1,318,290.1,318.9,290.6z"/>
	<path fill="#666666" d="M265.4,101.3c-0.6,0.8-1.1,1.6-1.9,2.1c-1.7,1.1-3.3,0.9-4.9,0.1c-0.6-0.3-1.1-0.6-1.6-1
		c-1.4-1.3-1.5-2-0.1-3.7c0.7-0.8,1.8-1.3,2.9-1.7c2-0.6,3.6,0.4,5,1.5c0.4,0.3,0.6,0.9,0.6,1.4
		C265.4,100.5,265.4,100.8,265.4,101.3z"/>
	<path fill="#666666" d="M331.6,303.9c-1.7-0.6-2.6-1.8-2.9-3.5c-0.2-1,0.1-1.9,0.4-2.7c0.3-0.8,0.8-1.6,1.3-2.3
		c0.7-1,2-1.2,2.9-0.4c0.8,0.7,1.3,1.5,1.3,2.7c0,1.5-0.2,2.8-0.9,4.2C333.3,302.8,332.6,303.5,331.6,303.9z"/>
	<path fill="#666666" d="M209.8,82.6c-0.3-0.3-0.5-0.5-0.7-0.7c-0.2-0.8,1.4-2.3,2.9-3c0.6,0,1,0.1,1.3,0c0.8-0.4,1.5-0.4,2.4-0.4
		c0.7,0,1.3,0,1.8,0c0.6,0.6,0.5,1.2,0.4,1.7c-0.1,1.5-1.2,4.6-1.8,5.4c-1.3-0.9-2.6-1.9-3.8-2.8C211.5,82.2,210.7,82.2,209.8,82.6z
		"/>
	<path fill="#666666" d="M180.8,115.9c-2.1-0.7-3-2.4-2.2-4.2c0.2-0.5,0.6-0.9,1-1.2c1.4-1.1,3.2-1.6,4.9-2.1
		c1.3-0.4,2.6,0.2,2.1,2.5C184.7,112.4,182.8,114.2,180.8,115.9z"/>
	<path fill="#666666" d="M337,406.2c-1.1-0.4-2.2-0.7-3.3-1c-0.6-0.2-1.2-0.5-1.8-0.8c-0.7-0.3-1-0.9-1-1.6c0-0.7,0.7-1.1,1.3-1.2
		c1-0.2,1.9-0.2,2.9-0.3c0.7-0.1,1.2,0.2,1.7,0.7c0.6,0.6,1.2,1.2,1.4,2.1c0.4,1.2,0.3,1.3-0.7,1.9
		C337.3,406.1,337.2,406.1,337,406.2z"/>
	<path fill="#666666" d="M253,65.5c-0.3,0.3-0.5,0.5-0.7,0.7c-0.3,0.3-0.5,0.6-0.7,0.8c-1.1,0.3-1.8,0-2.4-0.7
		c-0.9-1-1.9-1.9-1.8-3.4c0.1-1,0.6-1.6,1.4-1.9c0.8-0.3,1.9,0,2.4,0.7c0.5,0.6,1,1.3,1.3,2C252.9,64.2,252.9,64.8,253,65.5z"/>
	<path fill="#666666" d="M228.5,97.4c1.9,1.4,2.6,3.3,2.5,5.5c-0.1,1.1-0.9,1.7-2.2,1.8c-1.7-1.1-2-2.7-1.8-4.5
		C227,98.8,227.3,98.1,228.5,97.4z"/>
	<path fill="#666666" d="M229.8,133c-1.6,0.6-3,0.6-4.3,0.5c-0.8-0.3-0.8-1.1-1.1-1.8c0.5-0.9,0.8-2,1.7-2.7c0.6-0.1,1.2-0.2,2-0.4
		C229.1,129.9,230,131.2,229.8,133z"/>
	<path fill="#666666" d="M326.9,206c0.9,0.5,1.1,1.1,0.8,1.9c-0.3,0.8-0.4,1.6-0.4,2.5c-0.2,2.4-1.4,4.2-3.5,5.5
		c-0.3-0.3-0.5-0.5-0.9-0.8c0.2-0.4,0.3-0.8,0.6-1c1-1.1,1.4-2.3,1.6-3.7C325.4,208.8,325.8,207.3,326.9,206z"/>
	<path fill="#666666" d="M341.6,283.6c0,0.5,0,0.9,0,1.6c-0.2,0.2-0.6,0.6-1,0.9c-0.7-0.4-1.3-0.8-1.9-1.1c-1.3-0.9-1.5-1.3-1.3-2.9
		C338.9,280.9,340,281.3,341.6,283.6z"/>
	<path fill="#666666" d="M351.1,224.3c0,0.3,0,0.7,0,1c-1.2,1.3-2.4,1.6-3.4,0.9c-1.2-0.8-1.6-1.9-1.1-3.1
		C348.1,223.1,349.9,222.7,351.1,224.3z"/>
	<path fill="#666666" d="M345.7,280.7c-0.8-0.1-1.7-0.2-2.5-0.4c-0.6-0.1-0.9-0.8-0.7-1.4c0.4-1.2,1.8-1.6,3-0.8
		c0.2,0.1,0.3,0.3,0.5,0.5C346.7,279.4,346.7,279.6,345.7,280.7z"/>
	<path fill="#666666" d="M218.2,85.3c0-1.8,0.3-3.4,1.3-4.8c0.1,0.4,0.3,0.8,0.2,1.1C219.4,82.8,219.6,84.3,218.2,85.3z"/>
</g>
<g>
	<defs>
		<rect id="SVGID_1_" x="29.1" y="301.4" width="461.3" height="244.3"/>
	</defs>
	<clipPath id="SVGID_2_">
		<use xlink:href="#SVGID_1_"  overflow="visible"/>
	</clipPath>
	<path clip-path="url(#SVGID_2_)" d="M361.3,484.9c-0.1,1.8-1.6,3.2-3.4,3.1c-1.8-0.1-3.2-1.6-3.1-3.4s1.6-3.2,3.4-3.1
		C360,481.6,361.4,483.1,361.3,484.9"/>
	<path clip-path="url(#SVGID_2_)" d="M382.1,489c-0.1,1.8-1.6,3.2-3.4,3.1c-1.8-0.1-3.2-1.6-3.1-3.4s1.6-3.2,3.4-3.1
		C380.8,485.7,382.2,487.2,382.1,489"/>
	<path clip-path="url(#SVGID_2_)" d="M81.1,317.1c-0.1,1.8-1.6,3.2-3.4,3.1c-1.8-0.1-3.2-1.6-3.1-3.4c0.1-1.8,1.6-3.2,3.4-3.1
		C79.8,313.8,81.2,315.3,81.1,317.1"/>
	<path clip-path="url(#SVGID_2_)" d="M87.4,338.9c-0.1,1.8-1.6,3.2-3.4,3.1c-1.8-0.1-3.2-1.6-3.1-3.4c0.1-1.8,1.6-3.2,3.4-3.1
		C86.1,335.6,87.5,337.1,87.4,338.9"/>
	<path clip-path="url(#SVGID_2_)" d="M55.2,396.3c-0.1,1.8-1.6,3.2-3.4,3.1c-1.8-0.1-3.2-1.6-3.1-3.4c0.1-1.8,1.6-3.2,3.4-3.1
		C53.9,393,55.2,394.5,55.2,396.3"/>
	<path clip-path="url(#SVGID_2_)" d="M67.2,351.7c-0.1,1.8-1.6,3.2-3.4,3.1c-1.8-0.1-3.2-1.6-3.1-3.4c0.1-1.8,1.6-3.2,3.4-3.1
		C65.8,348.4,67.2,349.9,67.2,351.7"/>
	<path clip-path="url(#SVGID_2_)" d="M75.4,388.2c-0.1,1.8-1.6,3.2-3.4,3.1c-1.8-0.1-3.2-1.6-3.1-3.4c0.1-1.8,1.6-3.2,3.4-3.1
		C74.1,384.9,75.5,386.4,75.4,388.2"/>
	<path clip-path="url(#SVGID_2_)" d="M175.2,398.3c-0.1,1.8-1.6,3.2-3.4,3.1c-1.8-0.1-3.2-1.6-3.1-3.4c0.1-1.8,1.6-3.2,3.4-3.1
		C173.8,395,175.2,396.5,175.2,398.3"/>
	<path clip-path="url(#SVGID_2_)" d="M132.4,356.9c-0.1,1.8-1.6,3.2-3.4,3.1c-1.8-0.1-3.2-1.6-3.1-3.4c0.1-1.8,1.6-3.2,3.4-3.1
		C131.1,353.6,132.4,355.1,132.4,356.9"/>
	<path clip-path="url(#SVGID_2_)" d="M330.8,435c-0.1,1.8-1.6,3.2-3.4,3.1c-1.8-0.1-3.2-1.6-3.1-3.4s1.6-3.2,3.4-3.1
		C329.5,431.7,330.9,433.2,330.8,435"/>
	<path clip-path="url(#SVGID_2_)" d="M268.3,440.3c-0.1,1.8-1.6,3.2-3.4,3.1c-1.8-0.1-3.2-1.6-3.1-3.4c0.1-1.8,1.6-3.2,3.4-3.1
		C267,436.9,268.3,438.5,268.3,440.3"/>
	<path clip-path="url(#SVGID_2_)" d="M304.4,408.6c-0.1,1.8-1.6,3.2-3.4,3.1c-1.8-0.1-3.2-1.6-3.1-3.4c0.1-1.8,1.6-3.2,3.4-3.1
		C303.1,405.3,304.5,406.8,304.4,408.6"/>
	<path clip-path="url(#SVGID_2_)" d="M331.8,468.8c-0.1,1.8-1.6,3.2-3.4,3.1c-1.8-0.1-3.2-1.6-3.1-3.4s1.6-3.2,3.4-3.1
		C330.5,465.5,331.9,467,331.8,468.8"/>
	<path clip-path="url(#SVGID_2_)" d="M392.8,408.6c-0.1,1.8-1.6,3.2-3.4,3.1c-1.8-0.1-3.2-1.6-3.1-3.4c0.1-1.8,1.6-3.2,3.4-3.1
		C391.5,405.3,392.8,406.8,392.8,408.6"/>
	<path clip-path="url(#SVGID_2_)" d="M469.8,474.1c-0.1,1.8-1.6,3.2-3.4,3.1c-1.8-0.1-3.2-1.6-3.1-3.4s1.6-3.2,3.4-3.1
		C468.4,470.8,469.8,472.3,469.8,474.1"/>
	
		<line clip-path="url(#SVGID_2_)" fill="none" stroke="#000000" stroke-width="0.2039" stroke-miterlimit="10" x1="77.8" y1="317" x2="84.2" y2="338.8"/>
	
		<line clip-path="url(#SVGID_2_)" fill="none" stroke="#000000" stroke-width="0.2039" stroke-miterlimit="10" x1="84.6" y1="340.2" x2="72.2" y2="388"/>
	
		<line clip-path="url(#SVGID_2_)" fill="none" stroke="#000000" stroke-width="0.2039" stroke-miterlimit="10" x1="63.9" y1="351.6" x2="51.5" y2="399.4"/>
	
		<line clip-path="url(#SVGID_2_)" fill="none" stroke="#000000" stroke-width="0.2039" stroke-miterlimit="10" x1="63.9" y1="351.6" x2="72.2" y2="388"/>
	
		<line clip-path="url(#SVGID_2_)" fill="none" stroke="#000000" stroke-width="0.2039" stroke-miterlimit="10" x1="51.9" y1="396.1" x2="72.2" y2="388"/>
	
		<line clip-path="url(#SVGID_2_)" fill="none" stroke="#000000" stroke-width="0.2039" stroke-miterlimit="10" x1="77.8" y1="317" x2="72.2" y2="388"/>
	
		<line clip-path="url(#SVGID_2_)" fill="none" stroke="#000000" stroke-width="0.2039" stroke-miterlimit="10" x1="77.8" y1="317" x2="63.9" y2="351.6"/>
	
		<line clip-path="url(#SVGID_2_)" fill="none" stroke="#000000" stroke-width="0.2039" stroke-miterlimit="10" x1="129.1" y1="356.8" x2="63.9" y2="351.6"/>
	
		<line clip-path="url(#SVGID_2_)" fill="none" stroke="#000000" stroke-width="0.2039" stroke-miterlimit="10" x1="171.9" y1="398.1" x2="63.9" y2="351.6"/>
	
		<line clip-path="url(#SVGID_2_)" fill="none" stroke="#000000" stroke-width="0.2039" stroke-miterlimit="10" x1="171.9" y1="398.1" x2="77.8" y2="317"/>
	
		<line clip-path="url(#SVGID_2_)" fill="none" stroke="#000000" stroke-width="0.2039" stroke-miterlimit="10" x1="171.9" y1="398.1" x2="84.2" y2="338.7"/>
	
		<line clip-path="url(#SVGID_2_)" fill="none" stroke="#000000" stroke-width="0.2039" stroke-miterlimit="10" x1="171.9" y1="398.1" x2="72.2" y2="388"/>
	
		<line clip-path="url(#SVGID_2_)" fill="none" stroke="#000000" stroke-width="0.2039" stroke-miterlimit="10" x1="171.9" y1="398.1" x2="51.9" y2="396.1"/>
	
		<line clip-path="url(#SVGID_2_)" fill="none" stroke="#000000" stroke-width="0.2039" stroke-miterlimit="10" x1="51.9" y1="396.1" x2="84.2" y2="338.8"/>
	
		<line clip-path="url(#SVGID_2_)" fill="none" stroke="#000000" stroke-width="0.2039" stroke-miterlimit="10" x1="64.3" y1="352.1" x2="84.2" y2="338.7"/>
	
		<line clip-path="url(#SVGID_2_)" fill="none" stroke="#000000" stroke-width="0.2039" stroke-miterlimit="10" x1="129.1" y1="356.8" x2="84.2" y2="338.7"/>
	
		<line clip-path="url(#SVGID_2_)" fill="none" stroke="#000000" stroke-width="0.2039" stroke-miterlimit="10" x1="129.1" y1="356.8" x2="72.2" y2="388"/>
	<path clip-path="url(#SVGID_2_)" fill="none" stroke="#000000" stroke-width="0.2039" stroke-miterlimit="10" d="M358.1,484.7
		l-30.5-49.4 M327.6,435.3l51.3,53.6 M328.6,468.7l138.2,6 M378.9,488.9l90.9-14.8 M265,440.2l124.7-31.6 M301.2,408.5l91.6,0.1
		 M389.5,408.4l80.2,65.6 M466.5,473.9L265,440.2 M378.9,488.9l-20.8-4.2 M328.6,468.7l61-60.2 M327.6,435.3l138.9,38.6
		 M389.5,408.4l-10.7,80.5 M378.9,488.9l-50.3-20.2 M328.6,468.7l-1.7-34.9 M324.4,434.7l65.2-26.3 M389.5,408.4l-31.5,76.3
		 M264.8,440.1l93.2,44.7 M328.6,468.7l-27.4-60.2 M301.2,408.5l27.1,26.7 M268.3,440.3l62.6-5.2 M129.1,356.8l202.7,112
		 M51.9,396.1l249.3,12.4 M63.7,352.5l264.9,116.1 M72.2,388l258.7,47 M129.1,356.8l198.5,78.1 M72.2,388L265,440.1 M51.9,396.1
		l213.1,44 M171.9,398.1L301,411.7 M129.1,356.8l172,51.7 M171.9,398.1l93.1,42 M301.2,408.5L265,440.1 M129.1,356.8L265,440.1"/>
</g>
</svg>
