<svg xmlns="http://www.w3.org/2000/svg" xmlns:xlink="http://www.w3.org/1999/xlink" viewBox="0 0 537.12 442.29"><defs><clipPath id="clip-path"><rect width="537.12" height="442.29" fill="none"/></clipPath></defs><title>Asset 2</title><g id="Layer_2" data-name="Layer 2"><g id="Layer_1-2" data-name="Layer 1"><g clip-path="url(#clip-path)"><path d="M214.41,139.49l-.48-.79-1.13-.91a5.41,5.41,0,0,0-.77,1.47c0,.2.57.76.89.76a4.65,4.65,0,0,0,1.49-.53m14.2-51.78-.39-.68c-1.24-.17-2,.38-1.8,2.16l2.2-1.48m43.8-9.39c1.27.16,2.06-.28,2.05-1.53,0-.37-.73-1.12-.94-1.06-1.27.38-1.38,1.38-1.11,2.59M214.88,66.19l1.3-1.22c-.47-.43-.89-1.08-1.43-1.21-.35-.08-.88.6-1.33.94l1.45,1.48m-10.17,22c-.51.59-1.18,1.18-1.1,1.3A3.19,3.19,0,0,0,205,90.88c.35.12.93-.49,1.41-.76l-1.72-1.88m40-20.52A23.46,23.46,0,0,0,242.41,66c-.09-.05-.91.77-.85.87a5.36,5.36,0,0,0,1.4,1.65c.2.14.83-.34,1.78-.76M378.37,222.35a11.63,11.63,0,0,0,1.21-2.49c.06-.32-.54-.78-.85-1.17a7.74,7.74,0,0,0-1.27,1.78c-.12.32.4.88.91,1.88M289.9,143.71a2.48,2.48,0,0,0,3.19-.4c.18-.16,0-.73,0-1.11-.88.23-1.77.44-2.64.72-.18.06-.27.38-.54.78m14-3.14c-.47,1-.94,1.64-.93,2.23,0,.37.71.74,1.1,1.11a5.79,5.79,0,0,0,1.18-1.67c.08-.3-.63-.81-1.35-1.67m8.86,6.37-.44.43,3,3.18c.42-2.23-.27-3-2.56-3.61M281,188.71l.61-.32c-.53-1.09-1-2.2-1.6-3.27-.09-.17-.55-.23-.82-.18s-.43.45-.38.52c.73,1.08.66,2.79,2.2,3.26m41.65,12.69-.36.53c.4.49.71,1.18,1.22,1.43a6.92,6.92,0,0,0,2.14.29,6.8,6.8,0,0,0-1.19-1.69,5.39,5.39,0,0,0-1.82-.55m-56.5-56.66c-1.51-2.73-2.93-2.9-4.54-.75l4.54.75M22,300.85,26.53,299c-1.85-1.33-3.78-.62-4.54,1.81m364.46-98.3a2.37,2.37,0,0,0,2.49,2.32c.23,0,.77-.62.75-.94,0-1.17-1.46-1.87-3-1.58,0,0-.09.08-.22.21m-202.12-147-.69,0a8.6,8.6,0,0,0-1,2.18c-.07.41.54.94.84,1.42A14,14,0,0,0,185,56.86c.13-.26-.47-.87-.73-1.31m203.24,137.6-2-1.87a9,9,0,0,0-1.39,1.9c-.07.17.87,1.07,1.38,1.09s1.1-.58,2-1.12m-99.29-5.55L283,184.46c.82,2.21,1.85,4.05,5.22,3.14M205.94,76.7l2,2.4c.29-.51.91-1.11.81-1.51a13.33,13.33,0,0,0-1.3-2.62l-1.47,1.73m115.56,77.2c-.65-1.55-2.33-2.8-3.12-2.19a2.11,2.11,0,0,0-.44,1.78c.22,1,2,1.18,3.55.41M207.73,69l-1.59-6-.64.15c-.79,1.61-.08,3.19.45,4.7.15.42.94.62,1.79,1.14m17.56-25.9c-.48-1.6-.77-2.82-1.24-4a1.41,1.41,0,0,0-1.18-.54c-.25,0-.59.6-.65,1-.22,1.27,1,2.93,3.07,3.56M18,282.69c.82-1.18-.06-4.6-1.42-5.53-.85,1.5-.18,4.1,1.42,5.53M15,283.91a3.68,3.68,0,0,0-2.59-5.62L15,283.91M268.22,161.64l-.8.22L268.6,167c.48-.27,1.33-.49,1.37-.81a4.62,4.62,0,0,0-1.75-4.52M20.2,285.29c-.64,1.56-1.21,2.74-1.58,4-.12.4.25,1.3.55,1.38a2.1,2.1,0,0,0,1.61-.44c1.36-1.11,1.28-2.91-.59-4.93M321,207.44c.18-.27.78-.78.81-1.33.07-1.19-1.91-2.65-3.31-2.44a1.6,1.6,0,0,0-1.07,1.08c-.12,1.41,1.48,2.75,3.56,2.7m-25.17-58.36c1-.35,1.58-.52,2.13-.73,1.57-.6,2.08-3.59.73-4.55-.27-.19-1.23,0-1.31.23-.56,1.52-1,3.1-1.54,5.05M329.63,287.8l.32.6c.85-.3,2.13-.36,2.46-1a19.9,19.9,0,0,0,1.64-4.72c.11-.42-.38-1-.59-1.51a6.45,6.45,0,0,0-1.14,1.22c-.66,1.23-1.2,2.51-1.82,3.77-.27.54-.58,1.07-.87,1.6M170.44,73.05c-1.84,1.26-3.41,2.3-4.92,3.42a1.23,1.23,0,0,0-.09,1.15,1.42,1.42,0,0,0,1,.65c2.1.1,4.35-2.46,4-5.23m61.32-8.62a4.74,4.74,0,0,0-1.36,0,2.44,2.44,0,0,0-1.51.73c-.16.23.23,1,.58,1.4a3,3,0,0,0,3.79.55,10.41,10.41,0,0,0,2-1.86c-.82-.26-1.63-.54-2.45-.78a6.09,6.09,0,0,0-1.07,0m99.93,334.18c2.15.75,4.28,1.62,6.49,2.17.49.12,1.5-.79,1.82-1.45.19-.39-.33-1.43-.81-1.8-1.69-1.29-5.58-1-7.5,1.08M3.13,289.76c1.74-1.39,1-2.62.83-3.79-.4-2.2-1.73-4.37-.08-6.64.16-.21-.33-1.23-.74-1.45a6,6,0,0,0-2.43-.56,2.13,2.13,0,0,0-.45,1.4c.43,2.63.9,5.27,1.5,7.87a19.48,19.48,0,0,0,1.37,3.17M188.51,53.6c.12.16.16.31.26.36q2.17,1.08,4.35,2.14a.49.49,0,0,0,.36.05c1.5-.75,2,.35,2.77,1.29a1.83,1.83,0,0,0,1.75.07c1.35-1.87-.31-5-2.59-5.16-1.3-.07-2.6-.23-3.9-.31s-2.48.16-3,1.56M328,318.84a14.9,14.9,0,0,0-2.4,1.09c-1,.64-1.11,1.71,0,2.23a44.15,44.15,0,0,0,6.4,2.52c1.19.36,1.91-.45,1.67-1.74-.32-1.75-3.34-4.13-5.65-4.1m-10.8-97a22.48,22.48,0,0,0-1.59-3.68,1.88,1.88,0,0,0-3-.35,4,4,0,0,0-1.12,2.63,11.07,11.07,0,0,0,.76,3.93,3.51,3.51,0,0,0,1.76,2.07c.58.16,1.73-.62,2.17-1.29a12.57,12.57,0,0,0,1-3.31M201.64,109.92c.2-4.08-2.93-6.63-6-5.16-1.47.7-1.71,1.65-.67,3q2.21,2.77,4.51,5.48c.74.87,1.44.78,1.73-.36a29.24,29.24,0,0,0,.48-2.92m25.86-46.16c1.35-.5,2.37-.79,3.32-1.24a1.83,1.83,0,0,0,.86-2.94c-1.37-2.08-2.78-4.15-4.31-6.11-.39-.5-1.32-.57-2-.84-.23.78-.81,1.68-.61,2.33a16.31,16.31,0,0,0,1.89,3.4c.45.72.93,1.29-.11,2-.35.25-.38,1.27-.21,1.83s.77,1,1.18,1.54m66.92,153.5-.08-.27c-.43.14-1.13.17-1.26.45a9.93,9.93,0,0,0-1.11,3.44,3.15,3.15,0,0,0,1.12,2.52c.62.34,1.84-.15,2.66-.56.62-.31,1-1.09,1.51-1.61q1.49-1.48,3-2.9c.46-.42,1.13-.7,1.4-1.21s.44-1.56.16-1.8a2.23,2.23,0,0,0-1.92-.28c-1.46.56-2.82,1.39-4.25,2a4.44,4.44,0,0,1-1.27.18M191.35,65.35c.44-.17,1.44-.28,1.57-.67a11.94,11.94,0,0,0,.94-4.64c-.05-.65-1.69-1.31-2.72-1.7-2.18-.82-4.4.43-5.25,2.8-.56,1.55.44,2.85,2.84,3.63.76.25,1.57.36,2.61.58M2.53,264.59a9.7,9.7,0,0,0-1.18,1.7,16.29,16.29,0,0,0-.87,2.82,9.21,9.21,0,0,0-.32,2.28c0,1.15.2,2.29.31,3.44l-.47.1a1.89,1.89,0,0,0,3.15.54,51.92,51.92,0,0,0,4.68-4.54c.38-.41.4-1.15.59-1.74a7.59,7.59,0,0,0-2-.07,13.75,13.75,0,0,0-2.31,1l-.26-.51c.33-.34.79-.63.94-1a1.8,1.8,0,0,0,0-1.42,26.93,26.93,0,0,0-2.21-2.52m461,82.86a3.46,3.46,0,0,0,.14,4.9c2,1.85,4.61,1.41,6.94,2,.51.12,1.15-.35,1.74-.5a10.72,10.72,0,0,1,3.12-.65,2.32,2.32,0,0,0,2.75-1.89,8.83,8.83,0,0,0,.45-1.81,19.11,19.11,0,0,0-.13-2.36,25.6,25.6,0,0,0-2.53.82c-.37.16-.63.59-.92.92a3.4,3.4,0,0,1-3.77,1.37,3.09,3.09,0,0,0-2.38.57c-1.64,1.31-3.39,1-4.31-1l-1.11-2.37M232.85,97.36a8,8,0,0,0,2.49-.62c.57-.36,1.26-1.35,1.13-1.85-.68-2.52-1.44-5.06-3.89-6.59-1.72-1.07-3.07-.7-4,1.13-.48,1-1.18,1.9-1.65,2.91-.18.38-.2,1.16,0,1.37,1.73,1.49,2.89,4,5.83,3.65m236,220.8-.14-.71-2.46-.13c-1.79-.09-3.59-.16-5.38-.27a29.56,29.56,0,0,0-5.15-.32,57.63,57.63,0,0,0-7,1.55c-.35.09-.63.48-.94.74.26.31.47.82.78.89,2.49.57,5,1.19,7.49,1.54,4,.55,7.7-1,11.4-2.27a6.1,6.1,0,0,0,1.42-1M308,158.42c1,2.34,1.76,4.35,2.67,6.29.15.32.86.51,1.32.51,2.72,0,4.58-1.84,4.3-4.56a33.49,33.49,0,0,0-1.39-6.53c-.73-2.34-2.79-2.93-4.37-1.06-1.24,1.46-1.72,3.57-2.52,5.35M485.07,344.85c-.09,3.82.87,5.27,3.71,6.2,2.18.71,2.73.41,4.82-2.65.32-.46.65-.92,1-1.39,1.11-1.78.66-3.25-1.34-3.7a2.55,2.55,0,0,1-2.2-2.74c-.11-1.86-.54-3.63-2.29-4.66a9.71,9.71,0,0,0-2.18-.67,14.78,14.78,0,0,0-.6,2.26c-.16,1.47-.12,3-.29,4.43a29.44,29.44,0,0,1-.58,2.93m-266.7-194c-.21,1.22-.11,2.4-.61,3.22-.92,1.52-.93,2.55.64,3.36,2.1,1.09,4.25,2.07,6.4,3.05a7.72,7.72,0,0,0,2.3.74c1.45.15,3.4-1.48,3.36-2.71-.07-1.66-1.32-1.52-2.45-1.56-.1,0-.2-.12-.47-.3.6-2.45-.62-4.39-2.24-6.12a24.34,24.34,0,0,0-3.17-2.85c-.87-.65-1.87,0-1.91,1.12,0,.66,0,1.32,0,2ZM281,99.73c-3-.5-4,.87-3.1,3.59.35,1,.77,2,1.15,3,1,2.7,3.16,3.5,5.86,2.44a48,48,0,0,1,5-1.37,22.7,22.7,0,0,0,2.48-.73c1.37-.55,1.76-1.55.58-2.54A72.12,72.12,0,0,0,286,98.84c-.62-.41-1.87.06-2.8.23a20.41,20.41,0,0,0-2.24.66M210.19,51.51l-.81.9.85.77-.32,3.34L206.1,54.8a9.61,9.61,0,0,0,.67,2.64c.9,1.37,2.36,1.45,3.86,1.3a5.94,5.94,0,0,1,6.27,3.37c.54,1.1,1.16,2.54,2.43,2.08.76-.27,1-1.89,1.49-2.93a2.49,2.49,0,0,0,0-.93c0-1.42-.08-2.85-.08-4.27a3.43,3.43,0,0,0-2.51-3.52,22.91,22.91,0,0,1-2.2-1.46c-.55-.29-1.43-.67-1.82-.44-1.08.64-1.46.14-1.86-.69a13.49,13.49,0,0,0-.93-1.83,2.82,2.82,0,0,0-3.79-.93c-.38.28-.75,1.3-.59,1.48a39.09,39.09,0,0,0,3.16,2.86M176.86,62.2a5.94,5.94,0,0,1-1.32-.63c-1.72-1.51-3.49-1.41-5.34-.27a13.48,13.48,0,0,1-2.31,1.24c-1.24.46-2.54.76-3.81,1.15-.57.18-1.4.27-1.61.66-1,1.83-2.67,2.45-4.43,3.17a3.3,3.3,0,0,0-1.52,2.2c-.25,1.27.77,1.86,1.92,2.07.55.1,1.13,0,1.67.18a2.13,2.13,0,0,1,1.19.61c1,1.44,1.75,1.47,2.81,0l1.4-1.92,1.86,1.52c.75-1.28,1.42-2.44,2.12-3.59,1.08-1.76,1.61-1.83,3-.35a2.81,2.81,0,0,0,3.73.63,2.67,2.67,0,0,0,1.44-3.3,1.58,1.58,0,0,1,.46-1.36c1.65-1.23,1.54-2.78-.44-3.85l-.87,1.86m46.29,26,2.51-.2c-.1-.58,0-1.17-.28-1.49-1.08-1.37-.63-2.7-.34-4.22a12.94,12.94,0,0,0-.26-4.88c-.11-.55-1.36-1.42-1.76-1.26-1.79.68-2.94-.17-4.24-1.12A1.85,1.85,0,0,0,217,75a2.33,2.33,0,0,0-.17,1.85c.17.64.86,1.15,1,1.78a2.63,2.63,0,0,1-.38,2c-.22.26-1.24.07-1.78-.19s-1.13-1.07-1.8-1.3a5.82,5.82,0,0,0-2.07.08c.11.62,0,1.47.36,1.81,1.53,1.42,1.19,2.33-.48,3.25a1.69,1.69,0,0,0-.57,1.4c0,.25.76.55,1.21.61.8.1,1.64-.08,2.43.05a23,23,0,0,1,2.72.76,17,17,0,0,1-1.64,2.12c-1.4,1.33-1.53,2.71.15,3.66a9.08,9.08,0,0,0,4.08.84,31.88,31.88,0,0,0,4.65-.55l-1.56-4.89m6.28,18.19c.2,2,.3,3.67.56,5.35.64,4.06,1.4,8.1,2,12.15.21,1.31,1,1.42,1.87,1a8.24,8.24,0,0,0,2.59-2.1c1.9-2.48,1.56-4.06-1-5.72-.18-.11-.26-.37-.39-.57l.13-.59a28.85,28.85,0,0,1,3.8.52c2.51.67,3.63-.09,4-2.63a5.24,5.24,0,0,1,1.3-3A9.19,9.19,0,0,0,247,106c.33-1.3-.18-1.82-1.34-1.82-1.5,0-3,.19-4.49.2-.55,0-1.36-.11-1.62-.47-1.73-2.43-3.71-.86-5.57-.41-1.69.41-3,1.28-2.29,3.55l-2.22-.66M18.21,331.25a6.22,6.22,0,0,1,4.45,4.49,5.78,5.78,0,0,0,1.9,2.41A5.49,5.49,0,0,1,26.62,342a6.78,6.78,0,0,0,1.58,3,64,64,0,0,0,4.23,4.88,10.36,10.36,0,0,0,2.18,1.37,8.23,8.23,0,0,0,1.2-2.64,16.27,16.27,0,0,0-.54-3.87c-.6-3.22-.7-6.66-3.92-8.74a2.38,2.38,0,0,1-.85-1.41c-.52-2.54-1.09-5.08-1.37-7.65-.32-3-1.62-5.18-4.58-5.89a8.57,8.57,0,0,1-5.62-4.48,16.51,16.51,0,0,0-4.31-4.22,2.51,2.51,0,0,0-2.29.54,2,2,0,0,0,1.56,2.72c.61.17,1.24.31,1.85.46a2.18,2.18,0,0,1-1.18.76,2,2,0,0,0-1,3.26,5.82,5.82,0,0,0,1.41.89c1.1.67,2.43,1.12,1.9,3-.09.32.81,1,1.31,1.42s1.21.61,1.21.89c-.05,1.67,1.39,3.6-1.19,5.08M224.87,109.65c.26-1.4.82-2.83.5-3.06a5.92,5.92,0,0,0-3-.79c-.56,0-1.15.45-1.75.59s-1.48.4-1.76.13c-1.53-1.52-2.42-.93-3.24.55a3.51,3.51,0,0,0-2.24.73c-.44.45-.42,1.35-.66,2.29l2.14,1.4c-.25.35-.44.58-.59.83s-.27.53-.39.77c1.64,1.56,1.64,1.55-.28,2.52-.26.13-.42.43-.67.59-.46.3-1.1.89-1.38.76a3.61,3.61,0,0,1-1.39-1.46,8.27,8.27,0,0,1-.58-1.82l-.79-.08c-.38,1.29-1.07,2.59-1,3.87a11.71,11.71,0,0,0,1.14,4.32c.26.6,1.19,1,1.88,1.32,1.12.55,2.65.68,3.39,1.52a59.36,59.36,0,0,1,4.19,6c.6.88,1.27,1.66,2.41.73.93-.76,1.77-1.55.3-2.65-.31-.23-.42-.74-.62-1.13a1.94,1.94,0,0,1,1.58.19c2,1.24,3.7,1.26,5.14,0s1.49-3.06.54-5.15a2,2,0,0,1,.2-1.73c1.08-1.4,1-1.79-.57-2.64a2.21,2.21,0,0,1-1-1.3c-.57-2.39-1.35-2.87-3.66-2.14-.19.06-.45-.07-.58-.09-.17-2.33,4.33-2.39,2.72-5.07M191,89.53s.16.08.18.24c.24,1.72.82,2.52,2.5,1.12.21-.17.81.07,1.2.2a19.36,19.36,0,0,0,2.09.79c1.76.37,2.14-.12,1.89-1.84a3.31,3.31,0,0,1,.42-2.34A7.28,7.28,0,0,0,200.75,82a7.35,7.35,0,0,0-.83-2l-.62.11-.67,3.28-.84-1.81-1,1.61-.43-.17a9.51,9.51,0,0,0,.57-2.38,4.77,4.77,0,0,0-.74-1.93c-.29-.56-.88-1-1-1.6-.24-1-.15-2.13-.35-3.17-.12-.62-.42-1.5-.86-1.67a2.38,2.38,0,0,0-1.81.58,3.71,3.71,0,0,0-1.18,4.54c.22.63.55,1.82.37,1.91-2.14,1.16-.75,2.75-.65,4.18a3.51,3.51,0,0,1-.34,1c-2.17-1.66-4.84-2.38-5.85-5.25l.72-1.1c-.49-.85-1.24-1.58-1.29-2.36-.15-2.24-2.81-2.25-3.35-4.06,0-.12-.46-.11-.69-.19-.79-.28-1.56-.62-2.36-.85a16,16,0,0,0-1.82-.33,6.72,6.72,0,0,0,.33,2c.21.43.92.59,1.36.92s.87.77,1.3,1.16c0,.38,0,.77,0,1.15-3.2-3.39-5-1.16-6.49.91-.46.63.16,2,.33,3.48a14.73,14.73,0,0,0-2.33.17c-.66.13-1.66.44-1.8.88a2.57,2.57,0,0,0,.7,2,26.72,26.72,0,0,0,2.74,2.43l1.19-.9c.53.6,1,1.58,1.43,1.54A5,5,0,0,0,176.56,85a13.76,13.76,0,0,0,1.5-1.66c.57,3.18.57,3.18,3.55,3.4.75.05,1.51,0,2.25.15a5.64,5.64,0,0,1,1.23.49,70.69,70.69,0,0,1-8.19,1.73,9.56,9.56,0,0,0-1.66.61c.35.54.58,1.27,1.07,1.58a8.44,8.44,0,0,0,6.84,1.16c2.61-.73,5.11-1.84,7.9-2.88M306.59,205.48c0-2.21-1.26-3.33-4.11-3.23-1.85.07-2.87-.43-3.43-2.28a5.12,5.12,0,0,0-4.18-3.66,8.53,8.53,0,0,1-5-2.65,3.07,3.07,0,0,0-3.36-1.05c-.59.17-1.53-.48-2.14-1s-1.24-1.23-2-.27c-1.27,1.61-2,.67-2.6-.54s-.85-2.49-1.45-3.65a1.78,1.78,0,0,0-1.45-.8c-.44.06-.92.69-1.16,1.18a3,3,0,0,0-.11,1.47c.24,2.94.39,5.88.79,8.8.36,2.58,1,5.12,1.56,7.66.29,1.28.11,2.14-1.27,2.67-.57.22-.92,1-1.37,1.55.51.39,1,.82,1.52,1.18a50.14,50.14,0,0,1,4.51,3.11c1.28,1.1,2.59,1.54,3.81.38a20.8,20.8,0,0,0,2.24-3.34c.5-.73,1-1.72,1.69-2a2.45,2.45,0,0,0,1.78-2.49c.12-2,1.75-2.7,3.44-1.64a4.53,4.53,0,0,0,1.15.6c2.76.75,5.53,1.43,8.28,2.18,2.13.59,2.9,0,2.87-2.22M274.65,87.71a25.8,25.8,0,0,1-.37-3.06c0-.79-2.8-4.11-3.59-4-.23,0-.44.22-.67.28a19,19,0,0,1-2.91.6c-1.18.08-2.39-.19-3.56-.06-2.37.27-4.8,1-5.62,3.41-.62,1.85-1.39,1.42-2.59,1A16.76,16.76,0,0,0,252,85a26.3,26.3,0,0,0-3.33,0l-.44,1.26-.52.51c0-3.28-1.93-3.86-4.49-3.79a19.73,19.73,0,0,1,1.46-1.73c.24-.31.45-1,.29-1.19a38.35,38.35,0,0,0-3.58-3.37,2.53,2.53,0,0,0-1.62-.19,10.11,10.11,0,0,0-2,.44c-1.41.43-2,0-2.28-1.53a5.11,5.11,0,0,0-1.63-2.73,4,4,0,0,0-5.32-.2c-2.3,1.53-2.46,2.19-.46,4,.21.19.58.54.52.67-.78,1.81.59,1.74,1.66,2a2.71,2.71,0,0,1,1.23.74c1.4,1.53,2.12,1.56,3.56,0,.92-1,1.77-1,2.35.2a11.92,11.92,0,0,1,1.05,3.18c.57,3.19,1,6.4,1.52,9.6.4,2.57,2.1,3.83,4.64,3.39,1.1-.19,2.17-.58,3.28-.76a7.35,7.35,0,0,1,2.92-.14c4.06,1.09,8.08.43,12.11-.08a2,2,0,0,0,1.29-.67c1.11-1.69,2.6-1.15,4.18-1a12.84,12.84,0,0,0,5.06-.63c.7-.25,1.16-1.7,1.37-2.68a8,8,0,0,0-.15-2.49m-118,3.86c-.9-1.62-1.71-3.07-2.5-4.53-1.23-2.28-3.08-3.19-5.54-2.46a3.27,3.27,0,0,1-3.31-.48c-1-.8-1.74-.36-2.1.77a5.06,5.06,0,0,0-.36,1.63c.11,3.7-2.36,6.32-3.89,9.33a.91.91,0,0,1-.78.31c-1.31-.21-1.23.58-1.22,1.48a4,4,0,0,1-2.63,4.23c-1.34.59-3.79,1.06-3,3.66-2.36.7-2.61,1.27-1.21,3.23A9.1,9.1,0,0,1,132,114.5c0,2.18.91,2.81,3.12,2.68a23.28,23.28,0,0,1,3.89,0c2.25.24,4-.27,4.72-2.64a5.21,5.21,0,0,1,.83-1.67c.41-.5,1.07-1.27,1.51-1.2,2.83.42,3.88-1.71,5.39-3.36a15.51,15.51,0,0,1,3.85-3.1,32.51,32.51,0,0,1,5.19-2,10.25,10.25,0,0,1,2.88-.66c4.25-.17,5.41-2.07,3.42-5.8-.35-.65-.91-1.18-1.31-1.82-.57-.92-1-1.9-1.64-2.79-.42-.62-1-1.51-1.53-1.58s-1.26.71-1.8,1.22a8.41,8.41,0,0,0-1,1.46l-.39-.19c0-.84-.09-1.67-.16-3l-2.31,1.57m361.17,220,.69.19a23.28,23.28,0,0,1-.29,3.09c-.17.77-.73,1.46-1,2.23a5,5,0,0,0,.06,1.57,5,5,0,0,0,1.53-.14c1.77-.76,2.23-2.22,2-4s-.38-3.47,1.15-4.88c.36-.33.34-1.15.36-1.76s-.18-1.5-.12-2.25a8,8,0,0,1,.51-1.71,4.86,4.86,0,0,1,1.65.67,29.62,29.62,0,0,1,3.11,3.46c.91,1.22,1.17,3.22,3.53,2.27.29-.12.93.53,1.36.87s.7,1,1.08,1a13.74,13.74,0,0,0,3.39-.21c.16,0,.33-1.1.18-1.58-.84-2.61-1.75-5.19-2.7-7.76a9.81,9.81,0,0,0-1.19-2.29c-.25-.35-.82-.46-1.24-.68a6.56,6.56,0,0,0-.51,1.28,16.18,16.18,0,0,0-.13,1.91l-.73.08-1.15-5.57-.68,0c-.15.67-.34,1.33-.43,2a13.56,13.56,0,0,1-.39,2.95c-.23.59-1.08.93-1.65,1.38a7,7,0,0,1-.89-2c-.08-.84.52-1.8.3-2.56-.55-1.92-.8-3.68.45-5.45.19-.26-.26-1-.41-1.48-.49.16-1.19.16-1.45.5-.68.88-1.12,1.94-1.74,2.88a15,15,0,0,1-1.34,1.56c-.54-1.14-.79-2.53-1.32-2.64-1.63-.35-1.58-1.32-1.79-2.58a4.18,4.18,0,0,0-1.61-2.82,3.72,3.72,0,0,0-3.24.3,21.28,21.28,0,0,0-3.36,3.7c-.42.49-.77,1-1.13,1.54-.32-.18-.47-.21-.53-.3-1.57-2.39-1.52-2.34-3.54-.4a1.89,1.89,0,0,1-1.8,0,3.71,3.71,0,0,1-.68-2.52c.39-1.6-.36-2.08-1.64-2.29-2.06-.33-3.79,1.15-4.23,3.55-.2,1.11-.38,2.23-.57,3.34h-.48c-.13-.52-.3-1-.38-1.55-.31-2-.6-4.08-.88-6.12-.36-2.6-2.12-5-1.08-7.81.13-.35-.21-1-.49-1.36-.84-1.09-2.61-1.6-2.12-3.5a5.67,5.67,0,0,0-2.06-.12c-.33.1-.54,1-.59,1.49a73.73,73.73,0,0,1-.85,8.39,12.21,12.21,0,0,0,1.31,8.31,29.19,29.19,0,0,1,1.05,3.18c1,2.94-.85,6.32,1.37,9.08a.38.38,0,0,1,0,.36c-1.18,1.57-.33,3.07,0,4.63a1.91,1.91,0,0,1-.77,1.66c-1.68.73-1.94,2-.47,3.42a4.82,4.82,0,0,0,.74-.54c.77-.81,1.77-1.71,2.67-.7.48.54.28,1.94,0,2.83-.35,1.11-1.19,2.06-1.66,3.14a3.12,3.12,0,0,0,1.34,4c1.45.87,2.52.12,3.46-.9a7.76,7.76,0,0,0,1.4-2,4,4,0,0,1,3.78-2.35c2.7-.05,4.52-1.93,6.75-2.89,1.36-.59,2.08-2.65,3.13-4a4.79,4.79,0,0,1,1.22-1c.05,0,.52.41.65.69.91,2,2.63,2.26,4,.57.36-.45.7-.92,1-1.38M168,110.71c.63-.58,1.27-1.14,1.88-1.74a3.11,3.11,0,0,0,.43-4c-.69-1.34-1.91-1.2-3.12-.92a24.64,24.64,0,0,1-4,.88,6.94,6.94,0,0,0-4.48,2.06,11,11,0,0,1-3.32,2.38c-1.24.46-1.9.92-2,2.28a1.85,1.85,0,0,1-1.18,1.32c-1.28.19-2.33.43-2.57,1.94s1.08,1.69,2,2.15c.08,0,.11.2.19.34l-.31.43-1.35,1.76c.8.23,1.6.47,2.41.67.17,0,.38-.06.56,0,2.17.27,4.38.46,6,2.48a13.53,13.53,0,0,1-3.94.69c-1.68.08-3.38-.05-5,.17a2.38,2.38,0,0,0-1.51,1.44,11.58,11.58,0,0,0-.22,2.9,1.41,1.41,0,0,0,1.14,1.16c4.07.91,8.15,1.74,12.23,2.59a.9.9,0,0,0,.38,0c3.58-.84,5.72,1.57,8,3.59a2,2,0,0,1,.53,1.63c-.08.36-.83.78-1.31.82-2.09.16-4.1,0-5.73-1.64a3.65,3.65,0,0,0-2.27-1.14,85.31,85.31,0,0,0-10.48.38c-2.53.31-3.31,2-2.45,4.44a10.3,10.3,0,0,0,8.37,7c3.15.61,3.34.87,2.42,3.92-1,3.43-.17,5.2,3.38,5.5,4.18.36,8.42,1.35,12.6-.64,3.75-1.78,8.11-2.12,11.55-4.73a1.53,1.53,0,0,1,1.41-.09c1.2.8,2.64,1.53,3.36,2.69,1.57,2.51,4,3.27,6.54,3.46a16.85,16.85,0,0,0,5.79-1c1.58-.46,1-2.11,1.2-3.27a4.78,4.78,0,0,0-.17-1.49,6.1,6.1,0,0,0-1.89.3,7.53,7.53,0,0,0-1.52,1.39l-.65-.22c1.18-1.26,2-2.55.17-4.33l2.66.27.57-1.82,1.7,1.36c.9-.32,1.49-.57,2.1-.74s1.74-.19,1.8-.46a6.14,6.14,0,0,0-.15-2.6c-.1-.42-.81-.72-.86-1.13-.33-2.56-2.39-3.88-3.94-5.54-.29-.3-1.15,0-1.74-.1s-1.64.06-1.89-.31c-1.18-1.72-2.17-3.58-3.3-5.52l1.82-.45a24.72,24.72,0,0,0,0-3.65c-.37-2.37-1.49-4.54-.17-7.15.65-1.29-.1-3.32-.32-5,0-.34-.51-.65-.81-.94a20.91,20.91,0,0,1-3.27-3.31c-.78-1.24-1.44-1.93-2.55-1.37l-1.87-1.41-1,1.7c-.74.72-1.6,1.16-1.63,1.65-.09,1.76-.62,3.64.86,5.19a1.35,1.35,0,0,1,.13,1.28c-1.2,1.12-.76,2.38-.55,3.68a5.72,5.72,0,0,1-.08,2,.78.78,0,0,1-1.54,0,23,23,0,0,1-1.13-5.47c0-2.76-1.44-4.88-2.42-7.22a1.5,1.5,0,0,0-1.23-.55c-.25,0-.6.59-.67,1-.14.73-.1,1.5-.18,2.24-.13,1.17-.48,1.71-1.84,1a3.25,3.25,0,0,0-2.32.35c-.68.3-1.2,1.37-2,.2s0-1.61.91-2c1.26-.44,1.3-1.36.64-2.21a8,8,0,0,0-2.33-2.08c-1.49-.83-2.44-.37-3,1.22-.8,2.07-1.61,2.18-3.42.3M267.71,116l2.4,5.31-.45.31-3.64-3c-1.11,2.07-.35,5.86,1.45,6.29,3.19.76,2.74,3.73,4,5.64.24.38-.38,1.31-.7,2.29-.61-.68-.88-.93-1.09-1.22-1.32-1.87-1.57-1.87-3.21-.16-.52.54-1.14,1-2.06,1.8,0-3.35,3.32-3.24,4-4.7l-4.93-5c-3-3.07-1.86-7.4-3.28-11,0-.1,0-.24.07-.36.69-2.63.89-5.48,3.47-7.25.36-.25.45-1.27.27-1.8-.1-.29-1-.43-1.59-.4a22.69,22.69,0,0,0-4.08.46,6.11,6.11,0,0,0-2.93,1.34c-2.52,2.62-4.57,5.54-4.66,9.41,0,.55,0,1.35-.32,1.62-1.7,1.4-.72,2.89-.39,4.43.2.92.41,2.16,0,2.8-.85,1.22-.55,2.15-.11,3.31a3.78,3.78,0,0,1,.25,2.42c-.45,1.17,0,1.77.91,2,2,.47,4,.77,6.06,1.12a16.14,16.14,0,0,1,2.73.44c.48.17.77.85,1.14,1.3a6.11,6.11,0,0,1-2.1.72c-.61,0-1.18-.85-1.79-.89a3.3,3.3,0,0,0-2.31.59c-.3.28,0,1.45.35,2.11s1,1.12,1.4,1.75c1.78,2.87,4,3.66,7.1,1.94.41-.23,1.71.15,1.81.49.49,1.62,1.71,1.62,3,1.71,4.62.29,9.24.6,13.85.89a12.87,12.87,0,0,0,1.92-.26l-2.43-2.14.23-.45,6.58,3,.4-.57L287,139.15c.94.07,1.55.13,2.16.17a25.27,25.27,0,0,0,4.61.18c.82-.1,2.05-.93,2.17-1.59a4.93,4.93,0,0,0-.9-3c-.46-.77-1.43-1.22-2-2-.3-.39-.19-1.09-.26-1.65.49.13,1.1.13,1.45.42,2.26,2,4.43,4,6.69,6,.59.51,1.56,1.29,2,1.11,1.77-.69,2.86.44,4.13,1.13,2.68,1.45,2.69,1.81.77,4-.4.47-.22,1.44-.31,2.18a16.47,16.47,0,0,0,2-.27c.25-.06.43-.43.63-.67,2.47-3,4.12-2.8,6,.56a11.68,11.68,0,0,0,1.36,1.55l1.06-2.12.58,0c.08,3.86,2.85,4.16,5.45,4.76.4.09.77.73,1,1.2,1.07,2.4,2.23,3,4.85,2.54,1.81-.34,2.85.32,3.25,2.26-1-.21-1.87-.37-2.74-.61-1.11-.3-1.69.16-1.41,1.21A4.68,4.68,0,0,1,329,160a3.77,3.77,0,0,0,.32,3c.29.51,1.59.52,2.45.58a18.11,18.11,0,0,0,2.22-.26c3.18-.2,3.52-.56,3.24-3.73.55,0,1.29-.23,1.59,0,2.06,1.82,4.18,1.39,6.47.56.42-.15,1.7.65,1.71,1a10.92,10.92,0,0,1-.59,4c-.15.42-1.39.41-2.09.68a10.58,10.58,0,0,0-1.8.94c-.55.35-1,.78-1.67,1.26-.25-.52-.4-.78-.51-1.06-1.39-3.48-1.39-3.48-4.86-2.56a2.67,2.67,0,0,1-.75.08c-3.56-.1-5.91,1.92-7.64,4.66-1.61,2.56-1.09,4.09,1.36,5.07,3.26,1.3,3.28,3.35.64,5.57s-5.69,2.51-8.64,3.43c-1.07.34-2.36-.07-3.55-.06a1.86,1.86,0,0,0-2.07,1.7c-.25,1.29-1,2.48-1.26,3.77s-.59,2.73-.08,3.68c1.64,3.08,4.89,4.17,8.32,3a6,6,0,0,0,2.89-1.82,3.34,3.34,0,0,1,3.1-1.62c1.13,0,2.53.53,3.14-.95s-.73-1.8-1.5-2.47c-.09-.08-.24-.18-.24-.28,0-.45,0-.9,0-1.35.4,0,.9-.12,1.17.08a15.48,15.48,0,0,1,1.75,1.68c.72.74,1.33,1,2.19.06a1.89,1.89,0,0,1,1.78,0c1.58,1,3.06,2.15,4.55,3.29a14.31,14.31,0,0,1,3.13,2.66c.87,1.23,1.45,2,2.9.81.31-.25,1,0,1.57.05-.06.45-.13.91-.17,1.36s-.23,1.09,0,1.3c1.09,1.06,2.3,1.88,4,1.54a9.43,9.43,0,0,1,3.1-.21c2.49.34,4.6,2.25,7.32,1.8.34-.06.74.5,1.15.57a26.8,26.8,0,0,0,6,1c3.47-.14,6.93-.73,10.39-1.18a10.53,10.53,0,0,0,1.93-.64c-.37-.8-.53-2-1.15-2.31a35.3,35.3,0,0,0-5.08-2c-.19-.07-.48.17-.71.14a18,18,0,0,1-2.72-.39,22.49,22.49,0,0,1-2.76-1c-.63-.26-1.49-.4-1.81-.89-1.26-1.9-3.12-2.59-5.19-3a5.48,5.48,0,0,1-1.58-.56c-.34-.19-.84-.68-.77-.87.14-.39.58-.93.93-1a7,7,0,0,1,2.37.27,21.29,21.29,0,0,1,2.55,1.08l-1.11-2.64c.89.44,1.35.7,1.83.89a50.18,50.18,0,0,0,6.8,2.65,66.89,66.89,0,0,0,7.74,1c1,.12,1.85-.24,1.44-1.26a30.28,30.28,0,0,0-2.81-5.47,24.31,24.31,0,0,0-3.11-3.27l.5-.73,3.48,1.7c-.09-.5,0-1-.23-1.14-1.47-1.1-3-2.17-4.5-3.16-.91-.59-2.63-.88-2.77-1.55a4.64,4.64,0,0,0-3.92-4c-.06,0-.1-.08-.15-.11-2.15-1.65-2.15-1.65-3.16.74,0,.07-.2.09-.08,0-1-.52-1.79-1.29-2.65-1.35-2.26-.14-3.43-1.39-4.43-3.22a7.51,7.51,0,0,0-2.31-2.12c-1.31-.94-2.73-1.74-4-2.68-.28-.2-.31-.77-.52-1.38l3.45.72.18-.38-2.75-2.77.31-.38h2.33l.36-.42-2.12-2.43c1.46-.81,2.83-.31,4.1.34s2.16,1.54,3.63.79c.23-.11.81.22,1.08.5,1.63,1.68,1.83,1.64,2.72-.62a8.64,8.64,0,0,1,.73-1.11c.31,1,.57,1.57.7,2.19a8.5,8.5,0,0,0,7.42,6.48c1.35.08,2-.67,1.7-2a7,7,0,0,0-.86-1.65c-1.07-1.83-.83-3,.67-4.43a4,4,0,0,0,.95-2.09,32,32,0,0,0,.21-3.74,4.83,4.83,0,0,1-1.27-.55,3,3,0,0,1-1-1.25c-.08-.18.27-.72.54-.83.89-.37,2.08-.33,1.39-1.94-.39-.9-.06-2.44-.65-2.85a22.68,22.68,0,0,0-4.6-2l-.3.55,1.18,2.36c-2.86-1.51-3.53.45-4.36,2.73l-1.15-5.07-.8.07-1,3.34c-.95-2.29-2.08-1.23-3.4-.29l.48-2.39c-2-.7-2-4.94-5.5-2.82L356,139h-.48c-.11.62-.27,1.24-.33,1.87s0,1.31,0,2.25c-1.45-.82-2.58-2.57-3.73-.8l-5.4-1.49.91-2.43-.39-.5a19.77,19.77,0,0,1-4.24,1.53,24.82,24.82,0,0,1-4.69-.34c-.29,0-.59.23-.89.26a4.49,4.49,0,0,1-1.12-.32l5.15-3.22-5.45-2,0-.46a25.13,25.13,0,0,0,3.2,0,12.19,12.19,0,0,0,3.33-.86c.38-.17.62-1.07.57-1.6,0-.26-.94-.68-1.36-.59-2.6.52-5.17,1.18-7.75,1.75a10.52,10.52,0,0,1-1.81.09,6.75,6.75,0,0,1,1.24-1.34c.83-.51,1.81-.78,2.64-1.29s1.66-1.37,2.6-1.84,1.33-1.11.46-2c-1.24-1.23-2.5-2.45-3.82-3.6a7.2,7.2,0,0,0-1.59-.82c-.26.53-.56,1-.76,1.58-.68,1.85-1.33,3.71-2,5.57l-.53-.16a16.1,16.1,0,0,0,.24-2.36,1.94,1.94,0,0,0-.56-1.42c-.3-.18-1,.15-1.43.38a8.08,8.08,0,0,0-1.21.91l-.42-.42c.41-.45.8-.92,1.24-1.33a16,16,0,0,0,2.19-2,2.77,2.77,0,0,0,.36-2c-.07-.31-1-.51-1.6-.58a12.4,12.4,0,0,0-2.25,0c-3.45.22-5,2.48-4,5.76a20.44,20.44,0,0,1,.45,2.33c-2.32-2.17-2.6-3.66-1.51-6.14a2.31,2.31,0,0,0,.32-.87,8.43,8.43,0,0,0-.26-1.4c-.51.13-1.14.12-1.48.43-.69.62-1.17,1.47-1.84,2.12a5.46,5.46,0,0,1-1.41.73c-.2-.55-.72-1.28-.53-1.63a14.78,14.78,0,0,1,1.84-2.19c.51-.62,1.48-1.49,1.32-1.89a3,3,0,0,0-1.95-1.68,24.08,24.08,0,0,0-5.25-.09c-1.5.1-2,1.05-1.39,2.54.27.72.6,1.42.86,2H309l-.29-3.45-1.74.71-.63-2.29c-2.9,1.31-.92,4-1.83,5.83-1.45-1.49-1.63-3.45-.57-5.54,1.48-2.92,1.46-3-1-5.08-.72-.6-1.37-1.29-2.11-1.87-1.14-.91-2.24-.71-3.45.06a9.1,9.1,0,0,1-2.8,1c-1.75.41-3.55.6-5.27,1.09-.46.13-.71,1-1.06,1.55a11,11,0,0,0,1.5.85c.71.27,1.47.43,2.2.63l-.16.83-3.86-.25-.08.52,1.84,2.13-1.73.17.18,1.39-.54.33c-.47-.65-.92-1.31-1.42-1.94s-1-1.14-1.49-1.7c-.45.63-.92,1.24-1.33,1.88s-.8,1.39-1.2,2.09a64.16,64.16,0,0,1-2.93-7.68,21.86,21.86,0,0,0-1.24-3.1c-.79-1.52-1.83-2.93-2.54-4.49s-1.49-1.91-3.08-1.25a12,12,0,0,1-3.56.59c-1.07.09-1.52.46-1.14,1.55.24.69.45,1.4.79,2.46L266,105.8c-.42.44-.84.81-1.18,1.24-.48.61-1.26,1.28-1.26,1.92,0,1.13.93,1.61,2.1,1.68a10.74,10.74,0,0,1,2.21.7,6.28,6.28,0,0,1-1.1.7c-.89.23-1.78.4-2.68.6.27.85.59,1.69.78,2.56.22,1,.71,1.39,1.73,1a8.92,8.92,0,0,1,1.12-.26M32.88,324.77c.55.3.9.53,1.29.7,1.86.82,2,1.52.54,3-1.29,1.3-1.15,2,.23,3.22a6.4,6.4,0,0,1,2,2.86c.31,1.24.56,2.21,1.8,2.82a2.68,2.68,0,0,1,1.17,1.4,26.85,26.85,0,0,1,1.26,4.48c.28,1.67,1,2.61,2.76,2.72a6,6,0,0,1,1.27.31c11.86,3.53,23.61,7.48,35.6,10.5,14.24,3.59,28.68,6.37,43,9.55,2.74.61,5.37,1.76,8.13,2.14,7.44,1,14.92,1.79,22.39,2.58,6.85.73,13.71,1.44,20.57,2,9.49.79,19,1.55,28.49,2.09a118.87,118.87,0,0,0,16.88.1,108.16,108.16,0,0,1,13.83-.16,4.58,4.58,0,0,1,2.7,1.07,7.54,7.54,0,0,0,6,2.12,6,6,0,0,1,2.6,1c.81.39,1.57,1.26,2.36,1.27,2.94,0,5.88-.18,8.82-.39a4.33,4.33,0,0,1,4.4,2.2,3.55,3.55,0,0,0,4.69,1.65c3.24-1.29,6.35-.82,9.5.36s3.85.8,5.31-2.34c.24-.51.77-1.32,1.1-1.29,1.67.15,1.89-1.12,2.44-2.14.36-.67.46-1.6,1.71-1.14,1.73.64,2.36-.44,2.64-1.94.54-2.87.57-2.81,3.54-2.3,2,.35,3.92,1.53,6.11.18,1.9-1.17,3-.57,4,1.49a26.3,26.3,0,0,0,1.85,3.88c2.25,3.41,3.4,3.64,6.51,2.7,2.36-.72,3.39.19,3.33,2.76a3.64,3.64,0,0,0,1.21,2.73c1.38,1.55,2.66,3.25,2.6,5.59,0,.63.59,1.75,1.07,1.84a73.91,73.91,0,0,0,8.6,1.23c2.91.22,5.88-.13,8.77.21,3.77.45,7.46,1.62,11.24-.1,1.46-.67,2.3.13,3,1.63a29.87,29.87,0,0,0,3.2,5.17,26.39,26.39,0,0,0,2.42,2.67c-.57,1.11-.91,1.87-1.35,2.57-.26.42-.62,1-1,1.06-1.92.47-3.7.33-5.1-1.38a20.29,20.29,0,0,0-3.12-3.23c-.53-.41-1.53-.23-2.32-.31.09.73.16,1.46.3,2.18,0,.22.28.41.45.59,2,2.08,2.25,4.22.77,6.81-1.66,2.9-2.29,5.93,0,9,1,1.31.71,2.66-.47,3.89-2,2.12-3.76,4.39-4.35,7.43a14.59,14.59,0,0,1-1.81,3.68c-.52,1-1.14,1.95-1.62,3s0,1.57,1,1.77a4.79,4.79,0,0,0,4.83-1.84,5.47,5.47,0,0,1,1.9-1.74,7.69,7.69,0,0,0,4-3.47,5.28,5.28,0,0,1,5.06-2.63c1.19.05,2.38.12,3.57.13s2.05-.48,2.13-2a3.24,3.24,0,0,1,1.35-1.86,6.59,6.59,0,0,1,1.92-.69c2.28-.79,2.61-1.93,1.1-3.73-1.77-2.1-2.06-4.54-.29-6.66,3.43-4.11,9.23-8.53,15.15-6.08,1.85.77,2.79,0,2.78-2a4.12,4.12,0,0,1,2.42-4.11,13.89,13.89,0,0,0,7-7.49,7.76,7.76,0,0,1,5.36-4.63c6-1.44,12-2.81,17.93-4.41,7.56-2,11.36-6.77,11.2-15.36-.06-3.13-.25-6.28,0-9.4a9.89,9.89,0,0,1,1.79-4.3c.75-1.14,2.06-1.89,2.94-3s1.69-2.22,3.38-1.68a1.23,1.23,0,0,0,.72-.06c2.05-.71,2.47-.53,3.27,1.44a14.57,14.57,0,0,0,1.49,3.61,14.32,14.32,0,0,1,2.67,6.09c.49,2.28,1.12,4.85,4,5.37a10.29,10.29,0,0,1,4.92,2.48,3.73,3.73,0,0,0,3,.75c2.16-.69,3.73-2.56,5.55-3.83,2.33-1.62,3.59-4.78,5.32-7.27.67-1,1.38-1.88,2.06-2.82l.77.47a22.55,22.55,0,0,0-1.17,2.54,4.33,4.33,0,0,0,.07,1.52,5.12,5.12,0,0,0,1.67-.2c.48-.23.75-.85,1.2-1.17,1.47-1,3-2.05,4.51-3,.25-.15.76.11,1.15.19-.1.33-.09.77-.31,1-1.85,1.71-3.77,3.35-5.61,5.07a49.36,49.36,0,0,0-4.36,4.4c-2.94,3.55-2.91,10.82-.08,14.46,1.66,2.13,3.79,2.37,5.53.26a14.51,14.51,0,0,0,2.46-4.76c.78-2.43,1.08-5,1.81-7.46a3.11,3.11,0,0,1,1.8-2,6,6,0,0,0,4-3.08c.8-1.21,2.06-2.11,2.92-3.29,1.47-2,2.91-4,5.14-5.27,0,0,.05-.11.09-.16.71-.86,1.41-1.73,2.14-2.58a23.12,23.12,0,0,0,1.87-2.08c1-1.52.6-2.25-1.23-2.44-.92-.1-2.13,0-2.67-.52-1.26-1.22-2.47-.9-3.81-.49-4.18,1.26-8.37,2.45-12.52,3.79-1.32.42-2.37.88-3.33-.64-.23-.37-1.27-.36-1.92-.31-1.72.14-3.57.81-4.46-1.51a.56.56,0,0,0-.44-.29c-2.47.45-2.22-1.43-2.55-2.89a11.7,11.7,0,0,0-.73-1.81l-1.58.83c-.21.11-.43.2-1.24.57.12-1.26.2-2.14.28-3a37,37,0,0,0,.49-5.33c-.07-1.53-1.4-2-2.54-.89a26.89,26.89,0,0,0-2.12,2.62c-.74.88-1.68,1.3-2.57.35a3.28,3.28,0,0,0-3.44-.84,8.39,8.39,0,0,1-1.63,0c1.6-2.64,3-3.55,5.59-3.18,2.24.32,3.36-.55,4.12-2.52A30.9,30.9,0,0,1,455,333.3a2,2,0,0,0-.77-3c-.52-.31-1.07-.57-1.64-.87l.91-1.85c-3.38-.64-6.5-.92-9.56.53a34.58,34.58,0,0,0-13.42,11.76c-4,5.6-6.06,12-8.43,18.36a84.81,84.81,0,0,1-4,8.25c-.22.45-.77.73-1.28,1.18-.15-.47-.24-.6-.21-.69.28-.76.54-1.53.88-2.27a65.81,65.81,0,0,0,5.7-18.76,26.64,26.64,0,0,1,1.11-4.35c1-3.41,3.31-6,5.78-8.44a4.13,4.13,0,0,0,1.43-4.19,9.84,9.84,0,0,1-.24-4.29c.69-3,2.83-4.89,5.54-6.13.71-.33,1.59-.3,2.3-.63,3.4-1.61,6.76-3.32,10.15-4.94.55-.27,1.24-.23,1.81-.48a20.6,20.6,0,0,0,4-2,12.3,12.3,0,0,1,7.07-2.67,4.84,4.84,0,0,0,2.7-1c2-1.64,3.89-3.46,5.85-5.18.28-.25.87-.49,1.13-.36,2.11,1.09,2.14-.34,2.31-1.77s.52-2.82.73-4.25a34.58,34.58,0,0,0,.65-5.55,4.06,4.06,0,0,1,2.3-3.95c.53-.3,1.38-.66,1.43-1.07.28-2.34,1.94-3.17,3.8-4a3.82,3.82,0,0,0,1.54-1.32,17.23,17.23,0,0,0,3-9.9,4.42,4.42,0,0,0-1-2.08,11,11,0,0,0-1.31-1.41l.17-.2-3-2.42.39-.24-1.46-2.72a6,6,0,0,1-.58-1.16c-.58-2.07-1.62-3.52-4.07-3.3-.32,0-.67-.26-1-.44a1.8,1.8,0,0,0-2.78.91,23.41,23.41,0,0,1-1.13,2.36,1.53,1.53,0,0,1-1.19.65c-.29,0-.58-.67-.73-1.09s-.14-1.12-.32-1.65a3.79,3.79,0,0,0-4-2.25c-1.62.11-2,1.14-2.1,2.56a4.53,4.53,0,0,1-.92,1.77c-.89,1.42-1.86,2.79-2.69,4.25s-1.39,2.94-2.21,4.34c-.47.81-1.15,2.06-2.24,1.18-.46-.37-.2-1.78-.07-2.69a2,2,0,0,1,.95-1.11c2.1-1.33,3.09-3.4,3.82-5.63.67-2,1.43-4,3.27-5.34.53-.4.52-1.5.76-2.28-.75-.16-1.68-.68-2.21-.41-1.58.8-3.86-.9-4.95,1.43-.05.12-.48.1-.72.08-1.72-.18-3.44-1.42-5.15,0,0,0-.26,0-.34-.1-1-1.05-1.85-.44-2.76.26-1.43,1.1-2.92.6-3.55-1.09-.15-.4-.31-1.11-.51-1.13-2.23-.22-3.88-2.57-6.48-1.66-.75.26-2.47-.13-2.59-.55-.6-2.08-1.85-2.06-3.68-1.33-.24-3.38-3-3.53-5.37-4.34a3.41,3.41,0,0,1,2.06-.51c1.19.14,1.82-.2,1.75-1.49a4,4,0,0,1,.08-1.49c.54-1.52-.32-1.91-1.54-2.05a6,6,0,0,1-2.19-.29,28.62,28.62,0,0,1-3.18-2.49l1.17-1.66-5.52-2.39,0-.52L417,231c-.54-3.39-.7-3.47-2.85-1.91a5.58,5.58,0,0,1-1.89.51,5.94,5.94,0,0,1,.56-1.87c.54-.75.78-1.46-.18-1.8-1.52-.54-2.73-2.13-4.66-1.47-.24.08-.62-.22-.79-.3l.67-2.19-3.09-.61c.24-2.25-1.35-2.83-3.44-3-.49,0-.9-.83-1.38-1.25a10.1,10.1,0,0,0-1.45-1.16,6.91,6.91,0,0,0-1.38-.47l-1.6-.54a6.57,6.57,0,0,0-.46,1.71c0,1,.54,2.2.23,3.1-1.07,3.2-.34,6,1.39,8.7a2.32,2.32,0,0,1,.06,2.12c-.93,1.2-.65,2.17,0,3.26.42.68.78,1.41,1.16,2.11l-.5.33a17.4,17.4,0,0,0-1.29-1.42c-.68-.61-1.43-.54-1.44.44a6.38,6.38,0,0,1-2.32,4.91c-.43.4-.44,1.26-.61,1.92s-.21,1.16-.34,1.86c-1.71-1-1-3.73-3.33-3.82-1.21,2.07,1.55,4.51-1,6.41a12.16,12.16,0,0,1-.7-3.48,5.51,5.51,0,0,0-3.34-4.66c-1.79-.87-3,.62-4.1,1.87-.12.14-.21.36-.36.43-.84.4-1.7.76-2.74,1.21-.07-.76-.11-.94-.1-1.12,0-.92.1-1.84.16-2.77l1.92,1.13a15.7,15.7,0,0,0,1.71-1.77c.23-.31.32-1.1.13-1.27-.83-.7-1.74-1.67-2.7-1.76-1.53-.15-1.91-.8-1.94-2.12,0-2-.85-3.36-2.94-3.77-.35-.07-.63-.43-1.12-.77,1.27-.71,2.3-1.36,1.34-2.79a9.09,9.09,0,0,1-1.91-6.09c.14-1.51-.87-1.79-2.21-1.09a7.47,7.47,0,0,1-2.44.5,13.07,13.07,0,0,0-2.6.26c-2.61.94-5.6.6-6.45-2.72a5,5,0,0,0-2.43-2.52c-1.72-.95-4.08-.56-5.31-2.67-.22-.37-1.15-.34-1.76-.46a8.68,8.68,0,0,1-1.64-.3c-3.13-1.33-3.16-1.37-5.27,1.48-1.28,1.74-3.07,2.08-5,2-2.22-.11-4.45-.32-6.65-.61-2.68-.36-4.35.3-5.4,3.17-1.22,3.33-1.36,4.52,1.38,6.79a5.58,5.58,0,0,1,2.27,5.07c-.08,1,0,2-.06,3s.09,2,1.56,2a2,2,0,0,1,1.31,1.13c.87,2,1.6,4,2.4,6,0,.09.19.14.37.27l1.4-.75c.38,3.26-.23,4.46-2.69,4.71.38,1.13.77,2.18,1.07,3.26a3.74,3.74,0,0,1,.27,1.92,29.58,29.58,0,0,1-1.55,3.41c-1.41,3-1,5.11,1.85,6.32,1.86.79,3.92,1.49,4.28,4,.06.44.77.77,1.15,1.18,2.81,3,6.64,5.31,6.95,10.07.09,1.43.34,2.86.49,4.29.11,1.11.45,1.9,1.77,1.67v-2.73l3.48,1.8a4,4,0,0,1-.29.47.75.75,0,0,1-.29.22c-3.17,1-4.76,3-4.25,6.5.32,2.18-.84,3.82-2.23,5.35-1.17,1.29-2.23,2.69-3.35,4s-2.43,2.79-3.54,4.27c-.42.56-.94,1.57-.71,2,.81,1.52,2,2.85,2.9,4.3a13.69,13.69,0,0,1,2.14,3.81c.78,3.16,1.77,6.1,4.33,8.3a2.28,2.28,0,0,1,.56,1.14c.47,1.79.93,3.58,1.32,5.38.22,1,.65,2.21.35,3.11a7.54,7.54,0,0,0,.38,6.32c.18.34-.2,1-.33,1.51a4.74,4.74,0,0,1-1.47-.45,26.92,26.92,0,0,1-2.24-2.08L343,338.18l-5.12.43c0-2.18-1.51-3.33-2.92-4.9a13.3,13.3,0,0,0-6.08-3.58,1.43,1.43,0,0,1-.81-1.05c.07-1.83-1-2.91-2.33-3.83s-3-1.89-4.39-2.88a1.74,1.74,0,0,1-.79-1.12c0-.3.58-.73,1-.86,1.79-.6,2-1.13,1.47-3-.45-1.48-.72-3-1.14-4.5-.23-.83-.6-1.62-.92-2.43-.4-1-.89-2.05-1.2-3.12-.69-2.42-1.27-4.87-2-7.29a1.54,1.54,0,0,0-1-.91,19,19,0,0,0-3.63-.41c-1,0-2.37-.07-2.81.49-1.64,2.1-3.53,1.66-5.58,1.08a3.77,3.77,0,0,0-2-.21c-3,1-5.23-.4-7.47-2-2.7-1.87-5.52-3.11-8.95-2.6-1.93.29-3.21-.64-3.65-2.67a3.85,3.85,0,0,0-3.4-3.05c-1.4-.27-2.79-.65-4.16-1.06q-2.75-.83-5.47-1.79a15.67,15.67,0,0,1-3.58-1.48c-3.05-2.05-5-2-8.1-.16a14.38,14.38,0,0,1-4.52,1.5c-.95.19-1.41-.54-.9-1.45,1.07-1.9.3-3.6-.41-5.36-.39-1-.57-2-.89-3a25.57,25.57,0,0,0-1.14-3.09c-.59-1.23-1.41-2.35-2-3.59-1.25-2.78-2.16-3.14-5.13-2.54a16.72,16.72,0,0,1-4.32-.17.58.58,0,0,1-.39-.37c-.48-1.82-1.33-3.65-1.29-5.46.07-3.28.67-6.55,1-9.83,0-.25.13-.58,0-.74-1.26-1.77-.95-3,.69-4.57a7.52,7.52,0,0,0,2.57-6.51,1.94,1.94,0,0,1,.45-1.21,13.61,13.61,0,0,0,2-2.67c.35-.9.07-2,.07-3.23a9.59,9.59,0,0,0,1.08.31c.34.06.93.16,1,0a2.08,2.08,0,0,0,.1-1.17c-.05-.36-.34-.7-.37-1.05a14,14,0,0,1,.07-1.76c.49.19,1,.39,1.46.55a7.32,7.32,0,0,0,1,.16l-.36-2.82,2.59-.19-1-2,1-.24,1.09-.19c-1.23-2.15-1.12-2.62.6-2.86,3.9-.55,3.9-.55,3.92-4.27,0-2.36-.22-2.66-2.53-2.87-1.05-.09-2.12,0-3.17-.07a4,4,0,0,1-1.34-.41c-.81-.37-1.59-.83-2.4-1.21-1-.46-2-.88-2.93-1.32l.28-.75c.69.11,1.38.17,2.06.33,3.34.78,6.69,1.54,10,2.4,1.7.44,2.6,0,2.87-1.83.08-.59,1.06-1.6,1.39-1.52,1.28.33,2.29-.6,3.1-.62,2.26-.07,3.76-.46,4.29-2.82,1.89-.24,1.94-1.6,2-3.06,0-.37.42-.73.59-1.11.33-.76.66-1.52.93-2.3a20.5,20.5,0,0,1,1-2.93c.82-1.54.45-2.6-1.29-2.75a38.76,38.76,0,0,0-3.95,0c-3.78,0-7.29-.69-10.14-3.69.83-.62,1.69-1.8,2.44-1.73a35.79,35.79,0,0,1,5.81,1.42c-.19,2.11,1.72,2.46,3.29,2.82a3.35,3.35,0,0,0,2.8-.69,17.89,17.89,0,0,0,2.77-4.65c1.31-3.14,1-3.61-2.21-4.81-.37-.14-.48-.94-.71-1.43,1.58-.41,3.16-.83,4.75-1.21.11,0,.29.2.44.32a6.19,6.19,0,0,0,6.79.54l2.23,1.58.49-.61c-1.33-3.42-4.42-5-7.5-6.7l.71-1.31c1.36.66,2.61,1.18,3.76,1.86.43.25.62.9.91,1.37a7.71,7.71,0,0,0,1.05,1.74c.85.79,2,1.55,2.91.31A32.33,32.33,0,0,0,290,175a13,13,0,0,0,1.69-6.75c-.11-1.69-.35-2.77-1.58-3.82a13.47,13.47,0,0,1-2.3-2.6c-.27-.4.08-1.26-.21-1.62-.85-1.06-1.88-2-3-3.13,1.89-.72,4.52-.32,4.35-3-.06-.89-1.6-1.69-2.76-2.84a2.89,2.89,0,0,0,1-.67,10.67,10.67,0,0,0,1-1.84,7.38,7.38,0,0,0-1.88-.37,8.5,8.5,0,0,1-6-1.48l2.34-1-.12-.68c-.66,0-1.33,0-2,0-1.72-.05-3.52.2-5.13-.24-4-1.1-4.75-.57-4.4,3.67a3.41,3.41,0,0,0,.25,1.46,7.23,7.23,0,0,0,1.4,1.45c.42.37,1.31.74,1.27,1-.11.73-.48,1.89-.95,2-1.88.45-1.68,1.76-1.62,3.08a42.74,42.74,0,0,1,.25,5.43,65.77,65.77,0,0,1-1.3,8.7,3.15,3.15,0,0,1-2.13,1.94c-.55.1-1.42-1.09-2-1.82s-.78-1.73-1.39-2.4a7.41,7.41,0,0,1-1.93-7c.63-3.11.43-5.82-3.19-6.81-.52-.14-.79-1.24-1.18-1.89s-.72-1.15-1.08-1.73c-.4.61-1.07,1.19-1.16,1.84-.35,2.6-.4,5.24-.84,7.82a6.42,6.42,0,0,1-1.72,2.71c-.16.19-1.41-.16-1.42-.31a7,7,0,0,1,.22-2.74c.82-2.26.94-4-1.23-5.68a17.93,17.93,0,0,1-2.37-2.73c.46-.35.61-.46.75-.58l1.58-1.37c-.68-.45-1.37-1.3-2-1.28a22.94,22.94,0,0,0-4.24.89,8.79,8.79,0,0,1-1.4-1.54c-.26-.43-.39-1.37-.14-1.58,1.22-1.07,1.54-2.07,0-3.26l1.67-1c-.1-.32-.11-.67-.27-.77-2.93-2-3.19-4.9-3.4-8.08-.31-4.66-1.66-5.84-6.32-6.7a2.81,2.81,0,0,1-1.74-.88c-1-1.6-1.86-1-2.78,0s-1.53,2.11-.88,3.57c.49,1.11,0,1.59-1.19,1.7a1.65,1.65,0,0,0-1.21.82c-.74,2.32.42,4.78,3.09,6.21-.26.35-.77.42-1.25.58-3.19,1-2.09,3.69-2.19,5.87-.09,1.85,1.41,1.92,2.7,2.21a2.23,2.23,0,0,1,1,.57c.91.85,1.82,1.24,3,.48.31-.2,1.19-.12,1.31.09.9,1.71,2.18,1.52,3.69,1,.35-.12.9.36,1.36.57a13,13,0,0,1-1.15,1.22c-.15.12-.49,0-.74,0-1.81.14-2.56,1.46-1.92,3.16a2.55,2.55,0,0,1-.25,1.47c-.19.58-.68,1.12-.69,1.68s.45,1.08.7,1.62a10.51,10.51,0,0,0,1.33-1,4.94,4.94,0,0,0,.63-1.11l.54.18c.24,2.85.53,5.78-1.42,8.24a4.34,4.34,0,0,1-2.94,1.18c-2.56.12-3.29.7-3,3.28.2,1.92.64,3.82,1,5.73.41,2.28-.74,4.39-2.7,4.65a3.23,3.23,0,0,1-1.92-.74c-.16-.11.11-.85.1-.78,1.2.11,2.24.53,2.7.18,1.27-1,1.07-2.22,0-3.34l-1.78.58c-.12-1.67-.83-3.51-.2-4.56,1.2-2,.17-4.11.82-6.12.51-1.6-.87-3.08-2-2.58-1.76.76-2.64-.23-3.77-1.15a5.34,5.34,0,0,0-2-.56c-.37,1.61-1.72,1.76-3.13,1.84.39.76,1,1.36.93,1.89-.28,2.73-.15,2.91,2.7,3.27a4.44,4.44,0,0,1,2.23.78c.47.39.54,1.26.79,1.91-.61.22-1.4.79-1.81.59a30.13,30.13,0,0,1-4.06-2.48,8.48,8.48,0,0,1-1.28-1.49,3.77,3.77,0,0,0-.18.93c.41,1.87.24,2-1.62,1.73-1.48-.23-3-.26-4.47-.49-3.13-.48-6.26-1-9.38-1.57a2.38,2.38,0,0,1-1.51-1c-.8-1.52-1.68-1.87-3.29-1-1.39.74-2.26.12-2.42-1.46-.1-1-.69-1.45-1.39-2.12s-2.7-.85-2-2.71c1.1-2.81-.19-4.8-3.24-4.74a21.08,21.08,0,0,0-6,.86A11.24,11.24,0,0,0,178,159c-1.38,1.33.21,2.21,1,3s1.49.81,2.08-.34c.15-.3.77-.49,1.19-.52,1-.07,2.05,0,3.47,0,1.22.9,1.21.89,2.11-.92.13-.26.52-.4.79-.59l.53.25a14.8,14.8,0,0,1-.61,2c-1.23,2.68-3.85,1.8-5.93,2.15-1.44.24-3.16,1.74-2.9,3.18.33,1.86.93,3.68,1.2,5.55.12.81-.18,2.4-.44,2.43-2.18.27-1.46,1.79-1.48,3,0,.83,0,1.66,0,2.49l-.63,0c-.17-.3-.49-.61-.49-.91,0-1.59-.87-3.06-1.35-4.36-.77-2.1-.31-2.23,1.39-2.54,1.25-.23,1.69-1.63.66-2.17-2.38-1.26-1.84-5.19-5.18-5.42-.15,0-.34-.37-.4-.6-.35-1.31-1.21-1.08-2.22-.9-1.64.3-3.39.83-5,.55-5.35-.94-10.64-2.16-15.95-3.34-1.23-.27-1.61-1-.89-2.24a4,4,0,0,1,4.25-1.82c1.91.42,3-.56,2.21-2.3a29.5,29.5,0,0,0-3.71-5.55c-.93-1.19-2.12-1.74-2.75.17-1.64-.82-3.23-1.49-4.68-2.39a31.85,31.85,0,0,1-3.83-2.9c-1-.81-1.69-1.89-2.69-2.62a7.35,7.35,0,0,1-3.29-5.79c-.17-2.38-2.07-4.06-4.6-4.58-2.3-.47-4.27-.16-5.25,2.35-.07.17-.21.43-.33.44-.91.07-2,.4-2.69,0-1.14-.57-.48-1.4.2-2.09a2,2,0,0,0,.66-1.24,3.6,3.6,0,0,1,1.15-3.2,1.62,1.62,0,0,0,0-1.59,2.82,2.82,0,0,0-3.69-.24l1.82,1.57c-1.62.47-3.23.49-4,1.3s-.76,2.44-1.1,3.71l-.67.09a12.12,12.12,0,0,1-.84-2.79c-.16-2.88-.1-5.77-.23-8.65a4.86,4.86,0,0,0-2.08-4.3l-.52,2.87c-1.92-1-2.75-.15-3.56,1.35-.47.87-1.57,1.39-2.66,2.29l-.39-2.77L97,123.88c-1-2.82-1.31-2.89-3.81-2a7.29,7.29,0,0,1-2.92.13c-.34,0-.62-.62-.93-.95a10.06,10.06,0,0,1,1.13-.58c.39-.15,1-.06,1.18-.32,1.36-1.79,2.63-1,4.06-.08a4.28,4.28,0,0,0,2.54.88,50.86,50.86,0,0,0,6.17-1.48c.35-.1.86-.59.83-.84a1.69,1.69,0,0,0-.8-1.06c-1.46-.84-3-1.91-4.3.11a7.41,7.41,0,0,0-1.26-1.4c-1.93-1.17-5.81-.76-7.57.76a1.94,1.94,0,0,1-3-.23c-.92-1,.1-1.44.76-2a1.51,1.51,0,0,0,.38-1.38c-.2-.39-.84-.61-1.33-.76-.23-.07-.56.2-.85.3-1.83.66-3.76,0-5.77.87-1.41.61-2.14.74-2.2,2.31a25.43,25.43,0,0,1-.54,3.28l-.76.15c-1.31-1.75-2.66-3.48-3.9-5.27-.73-1.06-1.11-2.4-2-3.32-2.5-2.73-4.66-5.57-5-9.43a5,5,0,0,0-.53-1.33l-.8-.63a8.54,8.54,0,0,1-.91,1.87c-11.24,13.49-22.53,26.92-33.74,40.44-3,3.66-5.76,7.57-8.71,11.3-2.28,2.88-4.74,5.61-7,8.49-2,2.48-3.73,5.12-5.7,7.6-3,3.74-6.07,7.37-9.06,11.1a5.55,5.55,0,0,0-.58,1.86,14.51,14.51,0,0,1,1.67.49c.74.31,1.94.57,2.08,1.09.58,2.18,2.09,2.56,4,2.65a5.3,5.3,0,0,1,1.73.78c-.35.47-.61,1.12-1.07,1.38A2.86,2.86,0,0,0,7,191.75c.25,2.18.34,4.38.78,6.52a6.75,6.75,0,0,1-.84,5.2,6.38,6.38,0,0,0-.45,2.05,6.3,6.3,0,0,0,2.27.18c2.84-.89,5.91-1.19,8.32-3.22a3.6,3.6,0,0,1,1.54-.65c1.32-.28,2.12.22,2,1.66a9.83,9.83,0,0,1-.59,2.93c-1,2.16-.43,3.91.82,5.79a8.29,8.29,0,0,1,1.55,4.29c0,6.51-.21,13-.62,19.54-.29,4.69,0,9,2.92,13A7.52,7.52,0,0,1,26,254.53c-1.21,4.9-1.57,10.38-7,13.17-1.93,1-1.95,2.44-.7,4.41.29.46.57,1.33.35,1.65-2.15,3,1.37,4.94,1,7.62.7-.39,1-.91,1.38-1.2a13.26,13.26,0,0,1,2.8-1.61c.41-.16,1,.3,1.58.47a5.2,5.2,0,0,1-.74,1.56c-1.44,1.43-1.26,2.53.67,3.26a22.12,22.12,0,0,0,2.34.62l-.18.7-2.82-.72L22.85,284c0,.66-.07,1.31-.09,2a2.88,2.88,0,0,0,.07.56c.48,2.72,2,5.52-.67,8-.12.11.62,1.45.69,1.42,1.68-.55,2.61.68,3.76,1.43,1.46,1,1.48,2.23-.09,3a21.91,21.91,0,0,1-3.39,1c-2.17.6-2.45,1-2.05,3.56.88,0,1.81-.07,2.73,0a27,27,0,0,1,2.67.51l-.1.62c-.79,0-1.57-.13-2.36-.13-.46,0-1.27,0-1.34.23-.49,1.55-1.65,1.41-2.87,1.37s-1.65.5-1.16,1.66.81,2.17,1.35,3.18a6.27,6.27,0,0,0,1.55,2,26,26,0,0,0,3.32,2.09c1,.56,2.14.94,1.28,2.5-.12.22.33.88.65,1.21.64.68,1.36,1.29,2.07,1.9,1.19,1,2.41,1.84,4,.73.28-.19.76-.1,1.47-.18l-1.46,2.14M250.93,43.72c.79,1.49,2.24,3,2.22,4.48,0,2,.92,1.59,1.89,1.45.65-.09,1.22-.65,1.88-.8a4.58,4.58,0,0,1,1.54.18l0,.6c-.5.21-1.15.3-1.44.67s-.1,1-.28,1.51a1,1,0,0,1-.79.43,10,10,0,0,1-2.39-.25c-3.5-1-5.92.63-6.38,4.24-.24,1.86.53,2.75,2.42,2.61,1.33-.1,3.11-1,3.84-.4s.49,2.57,1,3.8a3.1,3.1,0,0,0,1.95,1.65c.45.09,1.25-.91,1.68-1.56a11.56,11.56,0,0,0,.9-2.29l.78.13a38.39,38.39,0,0,1-.53,5.35c-.14.62-1.22,1.27-2,1.45-1.85.44-3.13-.36-4.19-2a13.88,13.88,0,0,0-3.74-4A1.79,1.79,0,0,0,246.67,63,9.73,9.73,0,0,0,248,65.9c.9,1.49,1,2.79-.49,4-1.78,1.43-2.08,3.33-1.58,5.44.31,1.3,2.57,2.66,3.88,2.52a6.91,6.91,0,0,1,2.81.24c2.6.86,4.42.18,5.72-2,.41-.69,1.63-1.54,2.18-1.37,1.85.57,3.57,1.48,5.45.14.13-.09.47.1.71.18a6.12,6.12,0,0,0,7.81-4,11.32,11.32,0,0,0,.15-3.7c0-.26-1-.75-1.12-.66-1.3,1.29-2.07.92-2.8-.61a2.11,2.11,0,0,0-1.62-.73,14,14,0,0,0-2.76.38c-.36.07-.74.38-1.06.31a2,2,0,0,1-1.16-.72,1.24,1.24,0,0,1,0-1.18,1.44,1.44,0,0,1,1.3-.24c2.45,1.43,4.32-.14,6.23-1.2.44-.24.68-1.26.63-1.89a5.09,5.09,0,0,0-.9-1.83c-1.18-2.08-1.1-2.26,1.2-2.79A3.42,3.42,0,0,0,275,51.53a8.21,8.21,0,0,1-.57-1.76c-.43-2.68-2.49-3.85-5-2.83a6.45,6.45,0,0,1-1.73,0l3.82-4c-1.94-.89-3.7,1.14-5.59-.77,1.26-.43,2.16-.77,3.09-1,.72-.21,1.49-.26,2.18-.53,1.71-.68,2-1.86.89-3.38-.26-.36-.54-1.14-.41-1.25a2.46,2.46,0,0,1,1.46-.53c2.89,0,3.68-1,3.17-3.88-.18-1-.51-2.28-.12-3.13,1.85-4,1.7-8.31,2.33-12.49a10,10,0,0,0-.16-2.23c-2.08,2.21-3.32,4.86-5.74,6.43l-.57-.42,3.52-5-1.5-.93c1.21-1.94,2.63-3.64,3.38-5.6a16,16,0,0,0,.58-5.48c0-.37-1.42-1.19-1.59-1.06-1.59,1.27-2.64.27-3.79-.65s-2.17-1.68-3.29,0a.87.87,0,0,1-.83.19c-2.17-1.36-4.25.34-6.4.2-1.29-.08-1.8.94-1.41,2.25.19.65.3,1.31.46,2a20.63,20.63,0,0,0-4-.84c-1.19,0-1.89.65-.91,2A12.4,12.4,0,0,1,257.31,9l-.48.28c-.24-.14-.66-.24-.7-.43-.58-2.48-2.45-2.21-4.3-2.12-1.5.08-2.09.48-1.36,2.1a2.27,2.27,0,0,1-.61,2.1c-2,1.4-2.06,1.36-.24,3.09a8.07,8.07,0,0,1,1.35,1.3,6.39,6.39,0,0,1,.37,1.89l-2-1.62-.61,1.05c-1.21-1.13-2.33-2.25-3.55-3.24-.34-.28-1-.17-1.5-.24a6.54,6.54,0,0,0,.18,1.72,8.87,8.87,0,0,0,.93,1.58l-2.49,1.77c-1.53-1-1.52-1-3.1.48-.13.12-.36.13-.5.25-1.21,1-2.42,2.09-3.87,3.35a12.85,12.85,0,0,1,1.84.63c.38.2.92.59.93.9,0,1.26.71,1.4,1.73,1.39a1.66,1.66,0,0,1,1.21.59c.13.19-.21.77-.42,1.14-.34.59-.74,1.15-1.11,1.73l.3.45,6.18-.69.11.67a14.81,14.81,0,0,1-1.77.63c-.74.17-2-.12-1.57,1.13a2.5,2.5,0,0,0,2.22,1c.88-.21,1.57-1.15,2.4-1.7s1.64-.94,2.46-1.4l.38.67a12,12,0,0,0-1.28.88,6.86,6.86,0,0,0-1.29,1.43c-.05.09.6.88,1,.9a5.45,5.45,0,0,0,2-.44c.47-.17.86-.59,1.33-.75a10.64,10.64,0,0,0,2.12-.53c2.12-1.31,3.93-2.91,4.27-5.61,0-.31.38-.59.89-1.35.21,1.37,0,2.54.54,3.09,1.24,1.34.39,1.62-.68,2a10.9,10.9,0,0,0-1.37.8c1.49,1.26.73,2.15-.29,2.92a12.42,12.42,0,0,1-1.82.95c-1.62.83-2,1.91-.82,3.31a26,26,0,0,0,2.75,2.52c.48.45.93.93,1.39,1.39l-.45.64c-3.44-2.13-5.67-6.84-11.3-5.55.93,1.92,1.71,3.63,2.59,5.29A25.59,25.59,0,0,0,251,43.77c-.91-.47-1.87-.88-2.72-1.43a20.14,20.14,0,0,1-3-2.26c-.77-.73-1.19-1.87-2-2.51-2.06-1.63-4.65-2.53-5.88-5.22a23.73,23.73,0,0,0-3.27-4.79c-.37-.46-1.25-.5-1.9-.73,0,.54,0,1.08,0,1.61.12,1.66-2.32,2.8-1,4.73,0,0-.29.35-.45.52a.46.46,0,0,1-.16.1c-1.92.84-1.1,2.22-.62,3.47.18.46.67.8,1.19,1.38l-2.63.39a40.69,40.69,0,0,0,2,4.38c.23.39,1.2.35,1.57.43l.45,3.31,3.67-.51a12.39,12.39,0,0,0,1.07,1.74c.88,1.07.56,1.58-.69,1.63s-1.78.51-1.83,1.67c-.1,2.07,3.09,7.27,5.06,7.92a2.9,2.9,0,0,0,2.52-.33c1.21-1.53,3-2.88,2.46-5.3a4.26,4.26,0,0,1,.3-1.52c1.43.94,2,.19,2.57-.89.65-1.35,1.45-2.63,2-4s.81-2.56,1.21-3.85" fill="#666"/></g><line x1="73.83" y1="229.94" x2="185.83" y2="343.4" fill="none" stroke="#4b4e53" stroke-linecap="round" stroke-linejoin="round" stroke-width="0.75" stroke-dasharray="0 1.5"/><line x1="187.86" y1="343.99" x2="277.4" y2="347.22" fill="none" stroke="#4b4e53" stroke-linecap="round" stroke-linejoin="round" stroke-width="0.75" stroke-dasharray="0 1.51"/><line x1="279.63" y1="347.39" x2="327.58" y2="351.92" fill="none" stroke="#4b4e53" stroke-linecap="round" stroke-linejoin="round" stroke-width="0.75" stroke-dasharray="0 1.48"/><line x1="328.36" y1="353.49" x2="329.24" y2="384.38" fill="none" stroke="#4b4e53" stroke-linecap="round" stroke-linejoin="round" stroke-width="0.75" stroke-dasharray="0 1.51"/><line x1="330.52" y1="384.3" x2="390.15" y2="344.82" fill="none" stroke="#4b4e53" stroke-linecap="round" stroke-linejoin="round" stroke-width="0.75" stroke-dasharray="0 1.51"/><line x1="390.68" y1="342.91" x2="388.94" y2="316.75" fill="none" stroke="#4b4e53" stroke-linecap="round" stroke-linejoin="round" stroke-width="0.75" stroke-dasharray="0 1.5"/><line x1="387.63" y1="316.8" x2="331.78" y2="352.53" fill="none" stroke="#4b4e53" stroke-linecap="round" stroke-linejoin="round" stroke-width="0.75" stroke-dasharray="0 1.49"/><line x1="332.37" y1="353.81" x2="377.87" y2="386.59" fill="none" stroke="#4b4e53" stroke-linecap="round" stroke-linejoin="round" stroke-width="0.75" stroke-dasharray="0 1.5"/><line x1="379.97" y1="386.91" x2="462.91" y2="380.45" fill="none" stroke="#4b4e53" stroke-linecap="round" stroke-linejoin="round" stroke-width="0.75" stroke-dasharray="0 1.5"/><line x1="462.17" y1="380.22" x2="51.76" y2="331.24" fill="none" stroke="#4b4e53" stroke-linecap="round" stroke-linejoin="round" stroke-width="0.75" stroke-dasharray="0 1.5"/><line x1="52.5" y1="331.01" x2="109.89" y2="325.54" fill="none" stroke="#4b4e53" stroke-linecap="round" stroke-linejoin="round" stroke-width="0.75" stroke-dasharray="0 1.5"/><line x1="112.08" y1="325.84" x2="181.85" y2="343.75" fill="none" stroke="#4b4e53" stroke-linecap="round" stroke-linejoin="round" stroke-width="0.75" stroke-dasharray="0 1.49"/><line x1="181.24" y1="343.22" x2="66.82" y2="281.32" fill="none" stroke="#4b4e53" stroke-linecap="round" stroke-linejoin="round" stroke-width="0.75" stroke-dasharray="0 1.5"/><line x1="64.85" y1="281.7" x2="39.36" y2="296.21" fill="none" stroke="#4b4e53" stroke-linecap="round" stroke-linejoin="round" stroke-width="0.75" stroke-dasharray="0 1.5"/><line x1="39.25" y1="297.96" x2="50.75" y2="327.62" fill="none" stroke="#4b4e53" stroke-linecap="round" stroke-linejoin="round" stroke-width="0.75" stroke-dasharray="0 1.48"/><line x1="50.89" y1="326.81" x2="43.98" y2="244.78" fill="none" stroke="#4b4e53" stroke-linecap="round" stroke-linejoin="round" stroke-width="0.75" stroke-dasharray="0 1.51"/><line x1="45.19" y1="243.19" x2="71.2" y2="225.98" fill="none" stroke="#4b4e53" stroke-linecap="round" stroke-linejoin="round" stroke-width="0.75" stroke-dasharray="0 1.52"/><line x1="71.71" y1="227.05" x2="67.64" y2="275.48" fill="none" stroke="#4b4e53" stroke-linecap="round" stroke-linejoin="round" stroke-width="0.75" stroke-dasharray="0 1.5"/><line x1="68.63" y1="277.3" x2="110.11" y2="319.72" fill="none" stroke="#4b4e53" stroke-linecap="round" stroke-linejoin="round" stroke-width="0.75" stroke-dasharray="0 1.5"/><path d="M110.64,320.26h0m-43.06-44h0m4.26-50.67h0M43.92,244h0M51,328.31h0m-12.3-31.72h0M66.16,281h0m116.41,63h0m-71.93-18.47h0M51,331.15h0M463.66,380.4h0M378.48,387h0m-47.32-34.09h0M388.89,316h0m1.89,28.41h0m-61.52,40.72h0M328.32,352h0m-50.16-4.74h0m-91.8-3.31h0M72.78,228.87h0" fill="none" stroke="#4b4e53" stroke-linecap="round" stroke-linejoin="round" stroke-width="0.75"/><path d="M61.72,217a.13.13,0,0,0-.14,0,.13.13,0,0,0-.05.14,17.34,17.34,0,0,0,5,8.83,21,21,0,0,0,4.07,3,23.11,23.11,0,0,0-7.91-1.6,15.18,15.18,0,0,0-1.87.11.13.13,0,0,0-.11.09.13.13,0,0,0,0,.14,12.13,12.13,0,0,0,10,2.89,12.73,12.73,0,0,0-5.45,3.8.13.13,0,0,0,0,.15.13.13,0,0,0,.14.06,16.38,16.38,0,0,0,5.3-2.23,7.07,7.07,0,0,0,1.73-1.64c0,.6,0,2.1,0,2.89,0,1,0,1,0,1.05a.56.56,0,0,0,.34.16.5.5,0,0,0,.35-.18s0,0,0-1-.07-2.34-.05-2.95a7,7,0,0,0,1.73,1.64,16.36,16.36,0,0,0,5.3,2.23.13.13,0,0,0,.14-.06.13.13,0,0,0,0-.15,12.73,12.73,0,0,0-5.45-3.8,12.13,12.13,0,0,0,10-2.89.13.13,0,0,0,0-.14.13.13,0,0,0-.11-.09,15.18,15.18,0,0,0-1.87-.11A23.09,23.09,0,0,0,75,229a21.11,21.11,0,0,0,4.07-3,17.34,17.34,0,0,0,5-8.83.13.13,0,0,0-.05-.14.13.13,0,0,0-.14,0A29.57,29.57,0,0,0,73.62,228.2a21.52,21.52,0,0,0,1-4.83A24.87,24.87,0,0,0,73,212a.13.13,0,0,0-.24,0A24.87,24.87,0,0,0,71,223.36a21.47,21.47,0,0,0,1,4.83A29.58,29.58,0,0,0,61.72,217" fill="#4b4e53"/><path d="M31.25,235a.13.13,0,0,0-.14,0,.13.13,0,0,0-.05.14,17.34,17.34,0,0,0,5,8.83,21,21,0,0,0,4.07,3,23.11,23.11,0,0,0-7.91-1.6,15.18,15.18,0,0,0-1.87.11.13.13,0,0,0-.11.09.13.13,0,0,0,0,.14,12.13,12.13,0,0,0,10,2.89,12.73,12.73,0,0,0-5.45,3.8.13.13,0,0,0,0,.15.13.13,0,0,0,.14.06,16.38,16.38,0,0,0,5.3-2.23,7.07,7.07,0,0,0,1.73-1.64c0,.6,0,2.1,0,2.89,0,1,0,1,0,1.05a.56.56,0,0,0,.34.16.5.5,0,0,0,.35-.18s0,0,0-1-.07-2.34-.05-2.95a7,7,0,0,0,1.73,1.64,16.36,16.36,0,0,0,5.3,2.23.13.13,0,0,0,.14-.06.13.13,0,0,0,0-.15,12.73,12.73,0,0,0-5.45-3.8,12.13,12.13,0,0,0,10-2.89.13.13,0,0,0,0-.14.13.13,0,0,0-.11-.09,15.18,15.18,0,0,0-1.87-.11,23.09,23.09,0,0,0-7.91,1.6,21.11,21.11,0,0,0,4.07-3,17.34,17.34,0,0,0,5-8.83.13.13,0,0,0-.05-.14.13.13,0,0,0-.14,0A29.57,29.57,0,0,0,43.14,246.2a21.52,21.52,0,0,0,1-4.83A24.87,24.87,0,0,0,42.48,230a.13.13,0,0,0-.24,0,24.87,24.87,0,0,0-1.67,11.39,21.47,21.47,0,0,0,1,4.83A29.58,29.58,0,0,0,31.25,235" fill="#4b4e53"/><path d="M56.27,271a.13.13,0,0,0-.14,0,.13.13,0,0,0-.05.14,17.34,17.34,0,0,0,5,8.83,21,21,0,0,0,4.07,3,23.11,23.11,0,0,0-7.91-1.6,15.18,15.18,0,0,0-1.87.11.13.13,0,0,0-.11.09.13.13,0,0,0,0,.14,12.13,12.13,0,0,0,10,2.89,12.73,12.73,0,0,0-5.45,3.8.13.13,0,0,0,0,.15.13.13,0,0,0,.14.06,16.38,16.38,0,0,0,5.3-2.23,7.07,7.07,0,0,0,1.73-1.64c0,.6,0,2.1-.05,2.89,0,1,0,1,0,1.05a.56.56,0,0,0,.34.16.5.5,0,0,0,.35-.18s0,0,0-1-.07-2.34,0-2.95a7.06,7.06,0,0,0,1.73,1.64,16.36,16.36,0,0,0,5.3,2.23.13.13,0,0,0,.14-.06.13.13,0,0,0,0-.15,12.73,12.73,0,0,0-5.45-3.8,12.13,12.13,0,0,0,10-2.89.13.13,0,0,0,0-.14.13.13,0,0,0-.11-.09,15.18,15.18,0,0,0-1.87-.11,23.09,23.09,0,0,0-7.91,1.6,21.11,21.11,0,0,0,4.07-3,17.34,17.34,0,0,0,5-8.83.13.13,0,0,0-.05-.14.13.13,0,0,0-.14,0,29.57,29.57,0,0,0-10.33,11.19,21.52,21.52,0,0,0,1-4.83,24.87,24.87,0,0,0-1.67-11.39.13.13,0,0,0-.24,0,24.87,24.87,0,0,0-1.67,11.39,21.47,21.47,0,0,0,1,4.83A29.58,29.58,0,0,0,56.27,271" fill="#4b4e53"/><path d="M29.87,288.87a.13.13,0,0,0-.14,0,.13.13,0,0,0-.05.14,17.34,17.34,0,0,0,5,8.83,21,21,0,0,0,4.07,3,23.11,23.11,0,0,0-7.91-1.6,15.18,15.18,0,0,0-1.87.11.13.13,0,0,0-.11.09.13.13,0,0,0,0,.14,12.13,12.13,0,0,0,10,2.89,12.73,12.73,0,0,0-5.45,3.8.13.13,0,0,0,0,.15.13.13,0,0,0,.14.06,16.38,16.38,0,0,0,5.3-2.23,7.07,7.07,0,0,0,1.73-1.64c0,.6,0,2.1,0,2.89,0,1,0,1,0,1.05a.56.56,0,0,0,.34.16.5.5,0,0,0,.35-.18s0,0,0-1-.07-2.34-.05-2.95A7.06,7.06,0,0,0,43,304.26a16.36,16.36,0,0,0,5.3,2.23.13.13,0,0,0,.14-.06.13.13,0,0,0,0-.15,12.73,12.73,0,0,0-5.45-3.8,12.13,12.13,0,0,0,10-2.89.13.13,0,0,0,0-.14.13.13,0,0,0-.11-.09,15.18,15.18,0,0,0-1.87-.11,23.09,23.09,0,0,0-7.91,1.6,21.11,21.11,0,0,0,4.07-3,17.34,17.34,0,0,0,5-8.83.13.13,0,0,0-.05-.14.13.13,0,0,0-.14,0,29.57,29.57,0,0,0-10.34,11.19,21.52,21.52,0,0,0,1-4.83,24.87,24.87,0,0,0-1.67-11.39.13.13,0,0,0-.24,0,24.87,24.87,0,0,0-1.67,11.39,21.47,21.47,0,0,0,1,4.83,29.58,29.58,0,0,0-10.34-11.19" fill="#4b4e53"/><path d="M41.72,320a.13.13,0,0,0-.14,0,.13.13,0,0,0-.05.14,17.34,17.34,0,0,0,5,8.83,21,21,0,0,0,4.07,3,23.11,23.11,0,0,0-7.91-1.6,15.19,15.19,0,0,0-1.87.11.13.13,0,0,0-.11.09.13.13,0,0,0,0,.14,12.13,12.13,0,0,0,10,2.89,12.73,12.73,0,0,0-5.45,3.8.13.13,0,0,0,0,.15.13.13,0,0,0,.14.06,16.38,16.38,0,0,0,5.3-2.23,7.07,7.07,0,0,0,1.73-1.64c0,.6,0,2.1,0,2.89,0,1,0,1,0,1.05a.56.56,0,0,0,.34.16.5.5,0,0,0,.35-.18s0,0,0-1-.07-2.34,0-2.95a7.06,7.06,0,0,0,1.73,1.64,16.36,16.36,0,0,0,5.3,2.23.13.13,0,0,0,.14-.06.13.13,0,0,0,0-.15,12.73,12.73,0,0,0-5.45-3.8,12.13,12.13,0,0,0,10-2.89.13.13,0,0,0,0-.14.13.13,0,0,0-.11-.09,15.19,15.19,0,0,0-1.87-.11A23.09,23.09,0,0,0,55,332a21.11,21.11,0,0,0,4.07-3,17.34,17.34,0,0,0,5-8.83.13.13,0,0,0-.05-.14.13.13,0,0,0-.14,0,29.57,29.57,0,0,0-10.33,11.19,21.52,21.52,0,0,0,1-4.83A24.87,24.87,0,0,0,53,315a.13.13,0,0,0-.24,0A24.87,24.87,0,0,0,51,326.35a21.47,21.47,0,0,0,1,4.83A29.58,29.58,0,0,0,41.72,320" fill="#4b4e53"/><path d="M13.09,324.06a.13.13,0,0,0-.14,0,.13.13,0,0,0-.05.14,17.34,17.34,0,0,0,5,8.83A21,21,0,0,0,22,336a23.11,23.11,0,0,0-7.91-1.6,15.19,15.19,0,0,0-1.87.11.13.13,0,0,0-.11.09.13.13,0,0,0,0,.14,12.13,12.13,0,0,0,10,2.89,12.73,12.73,0,0,0-5.45,3.8.13.13,0,0,0,0,.15.13.13,0,0,0,.14.06,16.38,16.38,0,0,0,5.3-2.23,7.07,7.07,0,0,0,1.73-1.64c0,.6,0,2.1,0,2.89,0,1,0,1,0,1.05a.56.56,0,0,0,.34.16.5.5,0,0,0,.35-.18s0,0,0-1-.07-2.34,0-2.95a7.06,7.06,0,0,0,1.73,1.64,16.36,16.36,0,0,0,5.3,2.23.13.13,0,0,0,.14-.06.13.13,0,0,0,0-.15,12.73,12.73,0,0,0-5.45-3.8,12.13,12.13,0,0,0,10-2.89.13.13,0,0,0,0-.14.13.13,0,0,0-.11-.09,15.19,15.19,0,0,0-1.87-.11A23.09,23.09,0,0,0,26.4,336a21.11,21.11,0,0,0,4.07-3,17.34,17.34,0,0,0,5-8.83.13.13,0,0,0-.05-.14.13.13,0,0,0-.14,0A29.57,29.57,0,0,0,25,335.25a21.52,21.52,0,0,0,1-4.83A24.87,24.87,0,0,0,24.33,319a.13.13,0,0,0-.24,0,24.87,24.87,0,0,0-1.67,11.39,21.47,21.47,0,0,0,1,4.83,29.58,29.58,0,0,0-10.34-11.19" fill="#4b4e53"/><path d="M199.25,296.65a.13.13,0,0,0-.14,0,.13.13,0,0,0-.05.14,17.34,17.34,0,0,0,5,8.83,21,21,0,0,0,4.07,3,23.11,23.11,0,0,0-7.91-1.6,15.19,15.19,0,0,0-1.87.11.13.13,0,0,0-.11.09.13.13,0,0,0,0,.14,12.13,12.13,0,0,0,10,2.89,12.73,12.73,0,0,0-5.45,3.8.13.13,0,0,0,0,.15.13.13,0,0,0,.14.06,16.38,16.38,0,0,0,5.3-2.23,7.07,7.07,0,0,0,1.73-1.64c0,.6,0,2.1,0,2.89,0,1,0,1,0,1.05a.56.56,0,0,0,.34.16.5.5,0,0,0,.35-.18s0,0,0-1-.07-2.34,0-2.95a7.06,7.06,0,0,0,1.73,1.64,16.36,16.36,0,0,0,5.3,2.23.13.13,0,0,0,.14-.06.13.13,0,0,0,0-.15,12.73,12.73,0,0,0-5.45-3.8,12.13,12.13,0,0,0,10-2.89.13.13,0,0,0,0-.14.13.13,0,0,0-.11-.09,15.19,15.19,0,0,0-1.87-.11,23.09,23.09,0,0,0-7.91,1.6,21.11,21.11,0,0,0,4.07-3,17.34,17.34,0,0,0,5-8.83.13.13,0,0,0-.05-.14.13.13,0,0,0-.14,0,29.57,29.57,0,0,0-10.33,11.19,21.52,21.52,0,0,0,1-4.83,24.87,24.87,0,0,0-1.67-11.39.13.13,0,0,0-.24,0A24.87,24.87,0,0,0,208.57,303a21.47,21.47,0,0,0,1,4.83,29.58,29.58,0,0,0-10.34-11.19" fill="#4b4e53"/><path d="M100.31,312.59a.13.13,0,0,0-.14,0,.13.13,0,0,0-.05.14,17.34,17.34,0,0,0,5,8.83,21,21,0,0,0,4.07,3,23.11,23.11,0,0,0-7.91-1.6,15.19,15.19,0,0,0-1.87.11.13.13,0,0,0-.11.09.13.13,0,0,0,0,.14,12.13,12.13,0,0,0,10,2.89A12.73,12.73,0,0,0,104,330a.13.13,0,0,0,0,.15.13.13,0,0,0,.14.06,16.4,16.4,0,0,0,5.3-2.23,7.07,7.07,0,0,0,1.73-1.64c0,.6,0,2.1,0,2.89,0,1,0,1,0,1.05a.56.56,0,0,0,.34.16.5.5,0,0,0,.35-.18s0,0,0-1-.07-2.34-.05-2.95a7.06,7.06,0,0,0,1.73,1.64,16.38,16.38,0,0,0,5.3,2.23.13.13,0,0,0,.14-.06.13.13,0,0,0,0-.15,12.73,12.73,0,0,0-5.45-3.8,12.13,12.13,0,0,0,10-2.89.13.13,0,0,0,0-.14.13.13,0,0,0-.11-.09,15.19,15.19,0,0,0-1.87-.11,23.09,23.09,0,0,0-7.91,1.6,21.11,21.11,0,0,0,4.07-3,17.34,17.34,0,0,0,5-8.83.13.13,0,0,0-.05-.14.13.13,0,0,0-.14,0,29.57,29.57,0,0,0-10.33,11.19,21.52,21.52,0,0,0,1-4.83,24.87,24.87,0,0,0-1.67-11.39.13.13,0,0,0-.24,0,24.87,24.87,0,0,0-1.67,11.39,21.47,21.47,0,0,0,1,4.83,29.58,29.58,0,0,0-10.34-11.19" fill="#4b4e53"/><path d="M175.08,334.07a.13.13,0,0,0-.14,0,.13.13,0,0,0-.05.14,17.34,17.34,0,0,0,5,8.83,21,21,0,0,0,4.07,3,23.11,23.11,0,0,0-7.91-1.6,15.19,15.19,0,0,0-1.87.11.13.13,0,0,0-.11.09.13.13,0,0,0,0,.14,12.13,12.13,0,0,0,10,2.89,12.73,12.73,0,0,0-5.45,3.8.13.13,0,0,0,0,.15.13.13,0,0,0,.14.06,16.38,16.38,0,0,0,5.3-2.23,7.07,7.07,0,0,0,1.73-1.64c0,.6,0,2.1-.05,2.89,0,1,0,1,0,1.05a.56.56,0,0,0,.34.16.5.5,0,0,0,.35-.18s0,0,0-1-.07-2.34-.05-2.95a7,7,0,0,0,1.73,1.64,16.36,16.36,0,0,0,5.3,2.23.13.13,0,0,0,.14-.06.13.13,0,0,0,0-.15,12.73,12.73,0,0,0-5.45-3.8,12.13,12.13,0,0,0,10-2.89.13.13,0,0,0,0-.14.13.13,0,0,0-.11-.09,15.19,15.19,0,0,0-1.87-.11,23.09,23.09,0,0,0-7.91,1.6,21.11,21.11,0,0,0,4.07-3,17.34,17.34,0,0,0,5-8.83.13.13,0,0,0-.05-.14.13.13,0,0,0-.14,0A29.57,29.57,0,0,0,187,345.26a21.52,21.52,0,0,0,1-4.83A24.87,24.87,0,0,0,186.31,329a.13.13,0,0,0-.24,0,24.87,24.87,0,0,0-1.67,11.39,21.47,21.47,0,0,0,1,4.83,29.58,29.58,0,0,0-10.34-11.19" fill="#4b4e53"/><path d="M269.17,335.55a.13.13,0,0,0-.14,0,.13.13,0,0,0-.05.14,17.34,17.34,0,0,0,5,8.83,21,21,0,0,0,4.07,3,23.11,23.11,0,0,0-7.91-1.6,15.19,15.19,0,0,0-1.87.11.13.13,0,0,0-.11.09.13.13,0,0,0,0,.14,12.13,12.13,0,0,0,10,2.89,12.73,12.73,0,0,0-5.45,3.8.13.13,0,0,0,0,.15.13.13,0,0,0,.14.06,16.38,16.38,0,0,0,5.3-2.23A7.07,7.07,0,0,0,280,349.3c0,.6,0,2.1-.05,2.89,0,1,0,1,0,1.05a.55.55,0,0,0,.34.16.5.5,0,0,0,.35-.18s0,0,0-1-.07-2.34,0-2.95a7.06,7.06,0,0,0,1.73,1.64,16.36,16.36,0,0,0,5.3,2.23.13.13,0,0,0,.14-.06.13.13,0,0,0,0-.15,12.73,12.73,0,0,0-5.45-3.8,12.13,12.13,0,0,0,10-2.89.13.13,0,0,0,0-.14.13.13,0,0,0-.11-.09,15.19,15.19,0,0,0-1.87-.11,23.09,23.09,0,0,0-7.91,1.6,21.1,21.1,0,0,0,4.07-3,17.34,17.34,0,0,0,5-8.83.13.13,0,0,0-.05-.14.13.13,0,0,0-.14,0,29.57,29.57,0,0,0-10.33,11.19,21.52,21.52,0,0,0,1-4.83,24.87,24.87,0,0,0-1.67-11.39.13.13,0,0,0-.24,0,24.87,24.87,0,0,0-1.67,11.39,21.47,21.47,0,0,0,1,4.83,29.58,29.58,0,0,0-10.34-11.19" fill="#4b4e53"/><path d="M316.59,340.73a.13.13,0,0,0-.14,0,.13.13,0,0,0-.05.14,17.34,17.34,0,0,0,5,8.83,21,21,0,0,0,4.07,3,23.11,23.11,0,0,0-7.91-1.6,15.19,15.19,0,0,0-1.87.11.13.13,0,0,0-.11.09.13.13,0,0,0,0,.14,12.13,12.13,0,0,0,10,2.89,12.73,12.73,0,0,0-5.45,3.8.13.13,0,0,0,0,.15.13.13,0,0,0,.14.06,16.4,16.4,0,0,0,5.3-2.23,7.07,7.07,0,0,0,1.73-1.64c0,.6,0,2.1-.05,2.89,0,1,0,1,0,1.05a.56.56,0,0,0,.34.16.5.5,0,0,0,.35-.18s0,0,0-1-.07-2.34,0-2.95a7.06,7.06,0,0,0,1.73,1.64,16.38,16.38,0,0,0,5.3,2.23.13.13,0,0,0,.14-.06.13.13,0,0,0,0-.15,12.73,12.73,0,0,0-5.45-3.8,12.13,12.13,0,0,0,10-2.89.13.13,0,0,0,0-.14.13.13,0,0,0-.11-.09,15.19,15.19,0,0,0-1.87-.11,23.09,23.09,0,0,0-7.91,1.6,21.1,21.1,0,0,0,4.07-3,17.34,17.34,0,0,0,5-8.83.13.13,0,0,0-.05-.14.13.13,0,0,0-.14,0,29.57,29.57,0,0,0-10.33,11.19,21.52,21.52,0,0,0,1-4.83,24.87,24.87,0,0,0-1.67-11.39.13.13,0,0,0-.24,0,24.87,24.87,0,0,0-1.67,11.39,21.47,21.47,0,0,0,1,4.83,29.58,29.58,0,0,0-10.34-11.19" fill="#4b4e53"/><path d="M318.81,372.59a.13.13,0,0,0-.14,0,.13.13,0,0,0-.05.14,17.34,17.34,0,0,0,5,8.83,21,21,0,0,0,4.07,3,23.11,23.11,0,0,0-7.91-1.6,15.19,15.19,0,0,0-1.87.11.13.13,0,0,0-.11.09.13.13,0,0,0,0,.14,12.13,12.13,0,0,0,10,2.89,12.73,12.73,0,0,0-5.45,3.8.13.13,0,0,0,0,.15.13.13,0,0,0,.14.06,16.38,16.38,0,0,0,5.3-2.23,7.07,7.07,0,0,0,1.73-1.64c0,.6,0,2.1-.05,2.89,0,1,0,1,0,1.05a.56.56,0,0,0,.34.16.5.5,0,0,0,.35-.18s0,0,0-1-.07-2.34,0-2.95A7.06,7.06,0,0,0,332,388a16.36,16.36,0,0,0,5.3,2.23.13.13,0,0,0,.14-.06.13.13,0,0,0,0-.15,12.73,12.73,0,0,0-5.45-3.8,12.13,12.13,0,0,0,10-2.89.13.13,0,0,0,0-.14.13.13,0,0,0-.11-.09A15.19,15.19,0,0,0,340,383a23.09,23.09,0,0,0-7.91,1.6,21.11,21.11,0,0,0,4.07-3,17.34,17.34,0,0,0,5-8.83.13.13,0,0,0-.05-.14.13.13,0,0,0-.14,0,29.57,29.57,0,0,0-10.33,11.19,21.52,21.52,0,0,0,1-4.83A24.87,24.87,0,0,0,330,367.56a.13.13,0,0,0-.24,0,24.87,24.87,0,0,0-1.67,11.39,21.47,21.47,0,0,0,1,4.83,29.58,29.58,0,0,0-10.34-11.19" fill="#4b4e53"/><path d="M365.21,375a.13.13,0,0,0-.14,0,.13.13,0,0,0-.05.14,17.34,17.34,0,0,0,5,8.83,21,21,0,0,0,4.07,3,23.11,23.11,0,0,0-7.91-1.6,15.19,15.19,0,0,0-1.87.11.13.13,0,0,0-.11.09.13.13,0,0,0,0,.14,12.13,12.13,0,0,0,10,2.89,12.73,12.73,0,0,0-5.45,3.8.13.13,0,0,0,0,.15.13.13,0,0,0,.14.06,16.38,16.38,0,0,0,5.3-2.23,7.07,7.07,0,0,0,1.73-1.64c0,.6,0,2.1-.05,2.89,0,1,0,1,0,1.05a.56.56,0,0,0,.34.16.5.5,0,0,0,.35-.18s0,0,0-1-.07-2.34,0-2.95a7.06,7.06,0,0,0,1.73,1.64,16.36,16.36,0,0,0,5.3,2.23.13.13,0,0,0,.14-.06.13.13,0,0,0,0-.15,12.73,12.73,0,0,0-5.45-3.8,12.13,12.13,0,0,0,10-2.89.13.13,0,0,0,0-.14.13.13,0,0,0-.11-.09,15.19,15.19,0,0,0-1.87-.11,23.09,23.09,0,0,0-7.91,1.6,21.11,21.11,0,0,0,4.07-3,17.34,17.34,0,0,0,5-8.83.13.13,0,0,0-.05-.14.13.13,0,0,0-.14,0,29.57,29.57,0,0,0-10.33,11.19,21.52,21.52,0,0,0,1-4.83A24.87,24.87,0,0,0,376.45,370a.13.13,0,0,0-.24,0,24.87,24.87,0,0,0-1.67,11.39,21.47,21.47,0,0,0,1,4.83A29.58,29.58,0,0,0,365.21,375" fill="#4b4e53"/><path d="M380.35,334.35a.13.13,0,0,0-.14,0,.13.13,0,0,0-.05.14,17.34,17.34,0,0,0,5,8.83,21.06,21.06,0,0,0,4.07,3,23.1,23.1,0,0,0-7.91-1.6,15.19,15.19,0,0,0-1.87.11.13.13,0,0,0-.11.09.13.13,0,0,0,0,.14,12.13,12.13,0,0,0,10,2.89,12.73,12.73,0,0,0-5.45,3.8.13.13,0,0,0,0,.15.13.13,0,0,0,.14.06,16.38,16.38,0,0,0,5.3-2.23,7.07,7.07,0,0,0,1.73-1.64c0,.6,0,2.1-.05,2.89,0,1,0,1,0,1.05a.56.56,0,0,0,.34.16.5.5,0,0,0,.35-.18s0,0,0-1-.07-2.34,0-2.95a7.06,7.06,0,0,0,1.73,1.64,16.36,16.36,0,0,0,5.3,2.23.13.13,0,0,0,.14-.06.13.13,0,0,0,0-.15,12.73,12.73,0,0,0-5.45-3.8,12.13,12.13,0,0,0,10-2.89.13.13,0,0,0,0-.14.13.13,0,0,0-.11-.09,15.19,15.19,0,0,0-1.87-.11,23.09,23.09,0,0,0-7.91,1.6,21.1,21.1,0,0,0,4.07-3,17.34,17.34,0,0,0,5-8.83.13.13,0,0,0-.05-.14.13.13,0,0,0-.14,0,29.57,29.57,0,0,0-10.33,11.19,21.52,21.52,0,0,0,1-4.83,24.87,24.87,0,0,0-1.67-11.39.13.13,0,0,0-.24,0,24.87,24.87,0,0,0-1.67,11.39,21.47,21.47,0,0,0,1,4.83,29.58,29.58,0,0,0-10.34-11.19" fill="#4b4e53"/><path d="M378.82,308.13a.13.13,0,0,0-.14,0,.13.13,0,0,0-.05.14,17.34,17.34,0,0,0,5,8.83,21,21,0,0,0,4.07,3,23.11,23.11,0,0,0-7.91-1.6,15.19,15.19,0,0,0-1.87.11.13.13,0,0,0-.11.09.13.13,0,0,0,0,.14,12.13,12.13,0,0,0,10,2.89,12.73,12.73,0,0,0-5.45,3.8.13.13,0,0,0,0,.15.13.13,0,0,0,.14.06,16.38,16.38,0,0,0,5.3-2.23,7.07,7.07,0,0,0,1.73-1.64c0,.6,0,2.1-.05,2.89,0,1,0,1,0,1.05a.56.56,0,0,0,.34.16.5.5,0,0,0,.35-.18s0,0,0-1-.07-2.34,0-2.95a7.06,7.06,0,0,0,1.73,1.64,16.36,16.36,0,0,0,5.3,2.23.13.13,0,0,0,.14-.06.13.13,0,0,0,0-.15,12.73,12.73,0,0,0-5.45-3.8,12.13,12.13,0,0,0,10-2.89.13.13,0,0,0,0-.14.13.13,0,0,0-.11-.09,15.19,15.19,0,0,0-1.87-.11,23.09,23.09,0,0,0-7.91,1.6,21.1,21.1,0,0,0,4.07-3,17.34,17.34,0,0,0,5-8.83.13.13,0,0,0-.05-.14.13.13,0,0,0-.14,0,29.57,29.57,0,0,0-10.33,11.19,21.52,21.52,0,0,0,1-4.83,24.87,24.87,0,0,0-1.67-11.39.13.13,0,0,0-.24,0,24.87,24.87,0,0,0-1.67,11.39,21.47,21.47,0,0,0,1,4.83,29.58,29.58,0,0,0-10.34-11.19" fill="#4b4e53"/><path d="M452.91,369.63a.13.13,0,0,0-.14,0,.13.13,0,0,0-.05.14,17.34,17.34,0,0,0,5,8.83,21,21,0,0,0,4.07,3,23.11,23.11,0,0,0-7.91-1.6,15.19,15.19,0,0,0-1.87.11.13.13,0,0,0-.11.09.13.13,0,0,0,0,.14,12.13,12.13,0,0,0,10,2.89,12.73,12.73,0,0,0-5.45,3.8.13.13,0,0,0,0,.15.13.13,0,0,0,.14.06A16.4,16.4,0,0,0,462,385a7.07,7.07,0,0,0,1.73-1.64c0,.6,0,2.1-.05,2.89,0,1,0,1,0,1.05a.56.56,0,0,0,.34.16.5.5,0,0,0,.35-.18s0,0,0-1-.07-2.34,0-2.95a7.06,7.06,0,0,0,1.73,1.64,16.38,16.38,0,0,0,5.3,2.23.13.13,0,0,0,.14-.06.13.13,0,0,0,0-.15,12.73,12.73,0,0,0-5.45-3.8,12.13,12.13,0,0,0,10-2.89.13.13,0,0,0,0-.14.13.13,0,0,0-.11-.09,15.19,15.19,0,0,0-1.87-.11,23.09,23.09,0,0,0-7.91,1.6,21.11,21.11,0,0,0,4.07-3,17.34,17.34,0,0,0,5-8.83.13.13,0,0,0-.05-.14.13.13,0,0,0-.14,0,29.57,29.57,0,0,0-10.33,11.19,21.52,21.52,0,0,0,1-4.83,24.87,24.87,0,0,0-1.67-11.39.13.13,0,0,0-.24,0A24.87,24.87,0,0,0,462.23,376a21.47,21.47,0,0,0,1,4.83,29.58,29.58,0,0,0-10.34-11.19" fill="#4b4e53"/><rect width="537.12" height="442.29" fill="none"/><line x1="73.83" y1="229.94" x2="209.58" y2="307.84" fill="none" stroke="#4b4e53" stroke-linecap="round" stroke-linejoin="round" stroke-width="0.75" stroke-dasharray="0 1.5"/><line x1="185.41" y1="345.26" x2="209.58" y2="307.84" fill="none" stroke="#4b4e53" stroke-linecap="round" stroke-linejoin="round" stroke-width="0.75" stroke-dasharray="0 1.5"/><line x1="279.51" y1="346.74" x2="209.58" y2="307.84" fill="none" stroke="#4b4e53" stroke-linecap="round" stroke-linejoin="round" stroke-width="0.75" stroke-dasharray="0 1.5"/><line x1="323.66" y1="381.56" x2="209.58" y2="307.84" fill="none" stroke="#4b4e53" stroke-linecap="round" stroke-linejoin="round" stroke-width="0.75" stroke-dasharray="0 1.5"/><line x1="24.98" y1="335.25" x2="209.58" y2="307.84" fill="none" stroke="#4b4e53" stroke-linecap="round" stroke-linejoin="round" stroke-width="0.75" stroke-dasharray="0 1.5"/><line x1="41.76" y1="300.06" x2="23.29" y2="335.18" fill="none" stroke="#4b4e53" stroke-linecap="round" stroke-linejoin="round" stroke-width="0.75" stroke-dasharray="0 1.5"/><line x1="392.24" y1="345.54" x2="462.91" y2="380.45" fill="none" stroke="#4b4e53" stroke-linecap="round" stroke-linejoin="round" stroke-width="0.75" stroke-dasharray="0 1.5"/><line x1="395.67" y1="324.46" x2="462.17" y2="380.22" fill="none" stroke="#4b4e53" stroke-linecap="round" stroke-linejoin="round" stroke-width="0.75" stroke-dasharray="0 1.5"/><line x1="376.58" y1="386.73" x2="391.16" y2="348.1" fill="none" stroke="#4b4e53" stroke-linecap="round" stroke-linejoin="round" stroke-width="0.75" stroke-dasharray="0 1.51"/></g></g></svg>