<svg id="Layer_1" data-name="Layer 1" xmlns="http://www.w3.org/2000/svg" viewBox="0 0 498.25 268.91"><defs><style>.cls-1{fill:#a5b993;}.cls-2{fill:#fff;}</style></defs><title>numbers</title><circle class="cls-1" cx="118.9" cy="124.9" r="3.03"/><circle class="cls-1" cx="118.9" cy="112.05" r="3.03"/><circle class="cls-1" cx="118.9" cy="99.2" r="3.03"/><circle class="cls-1" cx="118.9" cy="86.34" r="3.03"/><circle class="cls-1" cx="131.75" cy="124.9" r="3.03"/><circle class="cls-1" cx="131.75" cy="112.05" r="3.03"/><circle class="cls-1" cx="131.75" cy="99.2" r="3.03"/><circle class="cls-1" cx="131.75" cy="86.34" r="3.03"/><circle class="cls-1" cx="144.61" cy="124.9" r="3.03"/><circle class="cls-1" cx="144.61" cy="112.05" r="3.03"/><circle class="cls-1" cx="144.61" cy="99.2" r="3.03"/><circle class="cls-1" cx="144.61" cy="86.34" r="3.03"/><circle class="cls-1" cx="157.46" cy="124.9" r="3.03"/><circle class="cls-1" cx="157.46" cy="112.05" r="3.03"/><circle class="cls-1" cx="157.46" cy="99.2" r="3.03"/><circle class="cls-1" cx="157.46" cy="86.34" r="3.03"/><circle class="cls-1" cx="170.31" cy="124.9" r="3.03"/><circle class="cls-1" cx="170.31" cy="112.05" r="3.03"/><circle class="cls-1" cx="170.31" cy="99.2" r="3.03"/><circle class="cls-1" cx="170.31" cy="86.34" r="3.03"/><path class="cls-2" d="M79.54,146.62l-3.94,4.27h5a.17.17,0,0,1,.18.18v.38a.16.16,0,0,1-.18.16H75a.15.15,0,0,1-.16-.16V151a.68.68,0,0,1,.24-.55l3.85-4.21a3.11,3.11,0,0,0,.95-2.24,1.93,1.93,0,0,0-2.09-2.12,1.89,1.89,0,0,0-2.12,1.81.16.16,0,0,1-.18.16h-.38a.15.15,0,0,1-.16-.16,2.61,2.61,0,0,1,2.84-2.49A2.73,2.73,0,0,1,80.6,144,3.91,3.91,0,0,1,79.54,146.62Z"/><path class="cls-2" d="M85.72,141.24c2.13,0,3.26,1.51,3.26,3.93v2.67c0,2.42-1.14,3.93-3.27,3.93s-3.25-1.51-3.25-3.93v-2.67C82.46,142.75,83.58,141.24,85.72,141.24Zm0,9.84c1.72,0,2.55-1.2,2.55-3.25v-2.67c0-2-.81-3.24-2.53-3.24s-2.53,1.2-2.53,3.24v2.67C83.18,149.92,84,151.08,85.7,151.08Z"/><path class="cls-2" d="M94.11,150v-3.21H91a.15.15,0,0,1-.16-.16v-.34a.16.16,0,0,1,.16-.18h3.11V142.9a.16.16,0,0,1,.16-.18h.38a.17.17,0,0,1,.18.18v3.17h3.08a.17.17,0,0,1,.18.18v.34a.16.16,0,0,1-.18.16H94.83V150a.16.16,0,0,1-.18.16h-.38A.15.15,0,0,1,94.11,150Z"/><path class="cls-2" d="M110.32,148.32a3.58,3.58,0,0,1-3.63,3.44,3.67,3.67,0,0,1-3.7-3.93V145a3.64,3.64,0,0,1,3.69-3.93,3.58,3.58,0,0,1,3.64,3.23c0,.15-.06.18-.16.18h-.46c-.06,0-.1,0-.12-.16a2.9,2.9,0,0,0-2.9-2.56,3,3,0,0,0-2.95,3.25v2.81a3,3,0,0,0,3,3.25,2.9,2.9,0,0,0,2.92-2.79.1.1,0,0,1,.1-.09h.5A.11.11,0,0,1,110.32,148.32Z"/><path class="cls-2" d="M112.25,151.45v-10a.16.16,0,0,1,.16-.18h.39a.17.17,0,0,1,.18.18v10a.16.16,0,0,1-.18.16h-.39A.15.15,0,0,1,112.25,151.45Z"/><path class="cls-2" d="M116.2,141.82a.55.55,0,0,1-.58.58.58.58,0,0,1,0-1.16A.55.55,0,0,1,116.2,141.82Zm-.93,9.63v-7.07a.16.16,0,0,1,.16-.18h.39a.17.17,0,0,1,.18.18v7.07a.16.16,0,0,1-.18.16h-.39A.15.15,0,0,1,115.27,151.45Z"/><path class="cls-2" d="M118.29,151.45v-7.07a.16.16,0,0,1,.16-.18h.38a.17.17,0,0,1,.18.18v.9a2.22,2.22,0,0,1,2.1-1.23c1.82,0,2.84,1.3,2.84,3.23v4.16a.16.16,0,0,1-.18.16h-.38a.15.15,0,0,1-.16-.16V147.3c0-1.64-.84-2.55-2.12-2.55s-2.1.9-2.1,2.55v4.15a.16.16,0,0,1-.18.16h-.38A.15.15,0,0,1,118.29,151.45Z"/><path class="cls-2" d="M127.12,141.82a.55.55,0,0,1-.58.58.58.58,0,0,1,0-1.16A.55.55,0,0,1,127.12,141.82Zm-.93,9.63v-7.07a.16.16,0,0,1,.16-.18h.39a.17.17,0,0,1,.18.18v7.07a.16.16,0,0,1-.18.16h-.39A.15.15,0,0,1,126.19,151.45Z"/><path class="cls-2" d="M131.76,151.06a1.93,1.93,0,0,0,2-1.69c0-.1.06-.13.16-.13h.44a.1.1,0,0,1,.1.1.76.76,0,0,1,0,.15,2.7,2.7,0,0,1-2.73,2.27,2.88,2.88,0,0,1-2.92-3.22v-1.26c0-2.07,1.25-3.23,2.9-3.23a2.69,2.69,0,0,1,2.76,2.42v0a.1.1,0,0,1-.1.1H134a.16.16,0,0,1-.16-.15,2,2,0,0,0-2-1.69c-1.26,0-2.18.9-2.18,2.55v1.21C129.57,150.17,130.5,151.06,131.76,151.06Z"/><path class="cls-2" d="M139.47,151.45v-7.07a.16.16,0,0,1,.16-.18H140a.17.17,0,0,1,.18.18v1.19a2.18,2.18,0,0,1,2.18-1.36h.24a.17.17,0,0,1,.18.18v.36a.16.16,0,0,1-.18.16h-.24c-1.69,0-2.15,1.66-2.15,2.71v3.84a.16.16,0,0,1-.18.16h-.39A.15.15,0,0,1,139.47,151.45Z"/><path class="cls-2" d="M146.73,151.06a2,2,0,0,0,2.09-1.56c0-.09.06-.13.15-.13h.46a.1.1,0,0,1,.1.1.76.76,0,0,1,0,.19,2.76,2.76,0,0,1-2.76,2.09,2.88,2.88,0,0,1-2.93-3.22v-1.26c0-2.07,1.25-3.23,2.9-3.23s2.9,1.16,2.9,3.23v.77a.16.16,0,0,1-.18.16h-4.9v.4A2.19,2.19,0,0,0,146.73,151.06Zm2.15-3.79c0-1.62-.9-2.52-2.18-2.52s-2.18.9-2.18,2.52v.25h4.36Z"/><path class="cls-2" d="M151.46,151.45v-10a.16.16,0,0,1,.16-.18H152a.17.17,0,0,1,.18.18v10a.16.16,0,0,1-.18.16h-.38A.15.15,0,0,1,151.46,151.45Z"/><path class="cls-2" d="M159.27,151.61h-.38a.15.15,0,0,1-.16-.16v-.89a2.31,2.31,0,0,1-2.18,1.2h-.34a2.11,2.11,0,0,1-2.38-2.13c0-1.47.86-2.12,2.52-2.12h2.39v-.61c0-.95,0-2.15-1.93-2.15-1.36,0-1.72.5-1.85,1.26,0,.07,0,.16-.18.16h-.39a.15.15,0,0,1-.16-.16v0c.12-1,.7-1.93,2.58-1.93,2.56,0,2.65,1.69,2.65,2.86v4.53A.16.16,0,0,1,159.27,151.61Zm-4.73-2a1.47,1.47,0,0,0,1.66,1.44h.34a2.09,2.09,0,0,0,2.18-2.28v-.58h-2.37C154.9,148.2,154.54,148.74,154.54,149.63Z"/><path class="cls-2" d="M161.74,148.8v-3.91H160.5a.15.15,0,0,1-.16-.16v-.34a.16.16,0,0,1,.16-.18c.84,0,1.27-.19,1.27-1.27v-.47a.16.16,0,0,1,.16-.18h.36a.17.17,0,0,1,.18.18v1.75h1.82a.17.17,0,0,1,.18.18v.34a.16.16,0,0,1-.18.16h-1.82v3.91c0,1.73.19,2.12,1.7,2.12h.12a.17.17,0,0,1,.18.18v.36a.16.16,0,0,1-.18.16h-.12C161.94,151.61,161.74,150.71,161.74,148.8Z"/><path class="cls-2" d="M167,141.82a.55.55,0,0,1-.58.58.58.58,0,0,1,0-1.16A.55.55,0,0,1,167,141.82Zm-.93,9.63v-7.07a.16.16,0,0,1,.16-.18h.39a.17.17,0,0,1,.18.18v7.07a.16.16,0,0,1-.18.16h-.39A.15.15,0,0,1,166.1,151.45Z"/><path class="cls-2" d="M171.64,144.06c1.64,0,2.89,1.16,2.89,3.23v1.26c0,2.07-1.24,3.22-2.89,3.22s-2.89-1.14-2.89-3.22v-1.26C168.75,145.21,170,144.06,171.64,144.06Zm0,7c1.27,0,2.16-.89,2.16-2.55V147.3c0-1.64-.89-2.55-2.16-2.55s-2.16.9-2.16,2.55v1.21C169.48,150.17,170.38,151.06,171.64,151.06Z"/><path class="cls-2" d="M176.39,151.45v-7.07a.16.16,0,0,1,.16-.18h.38a.17.17,0,0,1,.18.18v.9a2.22,2.22,0,0,1,2.1-1.23c1.82,0,2.84,1.3,2.84,3.23v4.16a.16.16,0,0,1-.18.16h-.38a.15.15,0,0,1-.16-.16V147.3c0-1.64-.84-2.55-2.12-2.55s-2.1.9-2.1,2.55v4.15a.16.16,0,0,1-.18.16h-.38A.15.15,0,0,1,176.39,151.45Z"/><path class="cls-2" d="M183.77,149.79a.14.14,0,0,1,0-.1.14.14,0,0,1,.13-.07h.39c.12,0,.15,0,.18.13a1.85,1.85,0,0,0,2,1.32c1,0,1.94-.33,1.94-1.39,0-2.24-4.52-.46-4.52-3.66,0-1.45,1.38-2,2.43-2,2.67,0,2.61,2,2.61,2v0a.17.17,0,0,1-.16.13h-.4c-.1,0-.15,0-.16-.16-.07-.49-.3-1.26-1.88-1.26-.7,0-1.7.27-1.7,1.26,0,2.34,4.52.59,4.52,3.66,0,1.51-1.2,2.09-2.68,2.09A2.46,2.46,0,0,1,183.77,149.79Z"/><path class="cls-2" d="M190.91,151.45v-10a.16.16,0,0,1,.16-.18h.38a.17.17,0,0,1,.18.18v3.85a2.23,2.23,0,0,1,2.1-1.21c1.82,0,2.84,1.3,2.84,3.23v4.16a.16.16,0,0,1-.18.16H196a.15.15,0,0,1-.16-.16V147.3c0-1.64-.84-2.55-2.12-2.55s-2.1.9-2.1,2.55v4.15a.16.16,0,0,1-.18.16h-.38A.15.15,0,0,1,190.91,151.45Z"/><path class="cls-2" d="M199.74,141.82a.55.55,0,0,1-.58.58.58.58,0,0,1,0-1.16A.55.55,0,0,1,199.74,141.82Zm-.93,9.63v-7.07a.16.16,0,0,1,.16-.18h.39a.17.17,0,0,1,.18.18v7.07a.16.16,0,0,1-.18.16H199A.15.15,0,0,1,198.81,151.45Z"/><path class="cls-2" d="M202.38,154.57H202a.15.15,0,0,1-.16-.16v-10a.16.16,0,0,1,.16-.18h.39a.17.17,0,0,1,.18.18v.86a2.41,2.41,0,0,1,2.18-1.19c1.64,0,2.89,1.16,2.89,3.23v1.26c0,2.07-1.25,3.22-2.89,3.22a2.43,2.43,0,0,1-2.18-1.19v3.84A.16.16,0,0,1,202.38,154.57Zm2.36-3.51c1.27,0,2.16-.89,2.16-2.55V147.3c0-1.64-.87-2.55-2.16-2.55a2.17,2.17,0,0,0-2.18,2.43v1.33C202.56,150.16,203.48,151.06,204.73,151.06Z"/><path class="cls-2" d="M209,149.79a.14.14,0,0,1,0-.1.14.14,0,0,1,.13-.07h.39c.12,0,.15,0,.18.13a1.85,1.85,0,0,0,2,1.32c1,0,1.94-.33,1.94-1.39,0-2.24-4.52-.46-4.52-3.66,0-1.45,1.38-2,2.43-2,2.67,0,2.61,2,2.61,2v0a.17.17,0,0,1-.16.13h-.4c-.1,0-.15,0-.16-.16-.07-.49-.3-1.26-1.88-1.26-.7,0-1.7.27-1.7,1.26,0,2.34,4.52.59,4.52,3.66,0,1.51-1.2,2.09-2.68,2.09A2.46,2.46,0,0,1,209,149.79Z"/><path class="cls-2" d="M113.91,166.7h-.38a.15.15,0,0,1-.16-.16v-.89a2.31,2.31,0,0,1-2.18,1.2h-.34a2.11,2.11,0,0,1-2.38-2.13c0-1.47.86-2.12,2.52-2.12h2.39V162c0-.95,0-2.15-1.93-2.15-1.36,0-1.72.5-1.85,1.26,0,.07,0,.16-.18.16H109a.15.15,0,0,1-.16-.16v0c.12-1,.7-1.93,2.58-1.93,2.56,0,2.65,1.69,2.65,2.86v4.53A.16.16,0,0,1,113.91,166.7Zm-4.73-2a1.47,1.47,0,0,0,1.66,1.44h.34a2.09,2.09,0,0,0,2.18-2.28v-.58H111C109.53,163.29,109.18,163.83,109.18,164.72Z"/><path class="cls-2" d="M116.23,166.54v-7.07a.16.16,0,0,1,.16-.18h.39a.17.17,0,0,1,.18.18v.9a2.22,2.22,0,0,1,2.1-1.23c1.82,0,2.84,1.3,2.84,3.23v4.16a.16.16,0,0,1-.18.16h-.38a.15.15,0,0,1-.16-.16v-4.15c0-1.64-.84-2.55-2.12-2.55s-2.1.9-2.1,2.55v4.15a.16.16,0,0,1-.18.16h-.39A.15.15,0,0,1,116.23,166.54Z"/><path class="cls-2" d="M128.75,166.54v-.87a2.43,2.43,0,0,1-2.18,1.19c-1.64,0-2.89-1.14-2.89-3.22v-1.26c0-2.07,1.25-3.23,2.89-3.23a2.41,2.41,0,0,1,2.18,1.19v-3.82a.16.16,0,0,1,.16-.18h.38a.17.17,0,0,1,.18.18v10a.16.16,0,0,1-.18.16h-.38A.15.15,0,0,1,128.75,166.54Zm0-2.93v-1.33a2.17,2.17,0,0,0-2.18-2.43c-1.29,0-2.16.9-2.16,2.55v1.21c0,1.66.89,2.55,2.15,2.55S128.75,165.25,128.75,163.61Z"/><path class="cls-2" d="M140.76,167.77c0,1.16-.82,2-2.42,2h-1.57c-1.6,0-2.4-.92-2.4-2a1.9,1.9,0,0,1,.84-1.66,1.25,1.25,0,0,1-.84-1.24,1.33,1.33,0,0,1,1.25-1.38,2.2,2.2,0,0,1-.92-1.9,2.47,2.47,0,0,1,2.59-2.45h.43a2.64,2.64,0,0,1,1.9.76v-1.24a.16.16,0,0,1,.16-.18h.36a.17.17,0,0,1,.18.18v2.93a2.46,2.46,0,0,1-2.59,2.46h-1.61c-.62,0-1,.24-1,.8s.37.79,1.32.79h1.91A2.12,2.12,0,0,1,140.76,167.77Zm-.76,0c0-.81-.47-1.44-1.7-1.44h-1.48c-1.21,0-1.69.62-1.69,1.44s.47,1.38,1.69,1.38h1.48C139.53,169.13,140,168.57,140,167.75Zm-4.56-6.16a1.79,1.79,0,0,0,1.93,1.81h.28a1.8,1.8,0,1,0,0-3.6h-.28A1.78,1.78,0,0,0,135.44,161.59Z"/><path class="cls-2" d="M142.09,166.54v-7.07a.16.16,0,0,1,.16-.18h.36a.17.17,0,0,1,.18.18v1.19a2.18,2.18,0,0,1,2.18-1.36h.24a.17.17,0,0,1,.18.18v.36a.16.16,0,0,1-.18.16H145c-1.69,0-2.15,1.66-2.15,2.71v3.84a.16.16,0,0,1-.18.16h-.38A.15.15,0,0,1,142.09,166.54Z"/><path class="cls-2" d="M149.31,159.15c1.64,0,2.89,1.16,2.89,3.23v1.26c0,2.07-1.24,3.22-2.89,3.22s-2.89-1.14-2.89-3.22v-1.26C146.42,160.3,147.65,159.15,149.31,159.15Zm0,7c1.27,0,2.16-.89,2.16-2.55v-1.21c0-1.64-.89-2.55-2.16-2.55s-2.16.9-2.16,2.55v1.21C147.15,165.26,148.05,166.15,149.31,166.15Z"/><path class="cls-2" d="M162.93,159.4a.81.81,0,0,1,0,.19l-2.16,7a.18.18,0,0,1-.18.12H160c-.12,0-.15-.06-.18-.16l-1.9-6.15-1.84,6.19a.18.18,0,0,1-.18.12h-.53a.15.15,0,0,1-.16-.12l-2.24-7a.75.75,0,0,1,0-.19.1.1,0,0,1,.1-.1h.46c.07,0,.15,0,.19.18l2,6.39,1.87-6.39c0-.12.07-.18.19-.18h.39c.1,0,.16.06.19.18l2,6.39,1.88-6.39c0-.1.06-.18.18-.18h.47A.1.1,0,0,1,162.93,159.4Z"/><path class="cls-2" d="M165.2,156.91a.55.55,0,0,1-.58.58.58.58,0,0,1,0-1.16A.55.55,0,0,1,165.2,156.91Zm-.93,9.63v-7.07a.16.16,0,0,1,.16-.18h.39a.17.17,0,0,1,.18.18v7.07a.16.16,0,0,1-.18.16h-.39A.15.15,0,0,1,164.27,166.54Z"/><path class="cls-2" d="M167.29,166.54v-7.07a.16.16,0,0,1,.16-.18h.38a.17.17,0,0,1,.18.18v.9a2.22,2.22,0,0,1,2.1-1.23c1.82,0,2.84,1.3,2.84,3.23v4.16a.16.16,0,0,1-.18.16h-.38a.15.15,0,0,1-.16-.16v-4.15c0-1.64-.84-2.55-2.12-2.55s-2.1.9-2.1,2.55v4.15a.16.16,0,0,1-.18.16h-.38A.15.15,0,0,1,167.29,166.54Z"/><path class="cls-2" d="M181.06,167.77c0,1.16-.82,2-2.42,2h-1.57c-1.6,0-2.4-.92-2.4-2a1.9,1.9,0,0,1,.84-1.66,1.25,1.25,0,0,1-.84-1.24,1.33,1.33,0,0,1,1.25-1.38,2.2,2.2,0,0,1-.92-1.9,2.47,2.47,0,0,1,2.59-2.45H178a2.64,2.64,0,0,1,1.9.76v-1.24a.16.16,0,0,1,.16-.18h.36a.17.17,0,0,1,.18.18v2.93A2.46,2.46,0,0,1,178,164H176.4c-.62,0-1,.24-1,.8s.37.79,1.32.79h1.91A2.12,2.12,0,0,1,181.06,167.77Zm-.76,0c0-.81-.47-1.44-1.7-1.44h-1.48c-1.21,0-1.69.62-1.69,1.44s.47,1.38,1.69,1.38h1.48C179.82,169.13,180.3,168.57,180.3,167.75Zm-4.56-6.16a1.79,1.79,0,0,0,1.93,1.81h.28a1.8,1.8,0,1,0,0-3.6h-.28A1.78,1.78,0,0,0,175.74,161.59Z"/><circle class="cls-1" cx="327.66" cy="125.39" r="3.03"/><circle class="cls-1" cx="327.66" cy="112.53" r="3.03"/><circle class="cls-1" cx="327.66" cy="99.68" r="3.03"/><circle class="cls-1" cx="327.66" cy="86.83" r="3.03"/><circle class="cls-1" cx="340.51" cy="125.39" r="3.03"/><circle class="cls-1" cx="340.51" cy="112.53" r="3.03"/><circle class="cls-1" cx="340.51" cy="99.68" r="3.03"/><circle class="cls-1" cx="340.51" cy="86.83" r="3.03"/><circle class="cls-1" cx="353.36" cy="125.39" r="3.03"/><circle class="cls-1" cx="353.36" cy="112.53" r="3.03"/><circle class="cls-1" cx="353.36" cy="99.68" r="3.03"/><circle class="cls-1" cx="353.36" cy="86.83" r="3.03"/><circle class="cls-1" cx="366.22" cy="125.39" r="3.03"/><circle class="cls-1" cx="366.22" cy="112.53" r="3.03"/><circle class="cls-1" cx="366.22" cy="99.68" r="3.03"/><circle class="cls-1" cx="366.22" cy="86.83" r="3.03"/><circle class="cls-1" cx="379.07" cy="125.39" r="3.03"/><circle class="cls-1" cx="379.07" cy="112.53" r="3.03"/><circle class="cls-1" cx="379.07" cy="99.68" r="3.03"/><circle class="cls-1" cx="327.66" cy="73.98" r="3.03"/><circle class="cls-1" cx="340.51" cy="73.98" r="3.03"/><circle class="cls-1" cx="353.36" cy="73.98" r="3.03"/><circle class="cls-1" cx="366.22" cy="73.98" r="3.03"/><circle class="cls-1" cx="379.07" cy="73.98" r="3.03"/><circle class="cls-1" cx="379.07" cy="86.83" r="3.03"/><path class="cls-2" d="M286.37,146.73,282.43,151h5a.17.17,0,0,1,.18.18v.38a.16.16,0,0,1-.18.16h-5.6a.15.15,0,0,1-.16-.16v-.42a.68.68,0,0,1,.24-.55l3.85-4.21a3.11,3.11,0,0,0,.95-2.24,1.93,1.93,0,0,0-2.09-2.12,1.89,1.89,0,0,0-2.12,1.81.16.16,0,0,1-.18.16h-.38a.15.15,0,0,1-.16-.16,2.61,2.61,0,0,1,2.84-2.49,2.73,2.73,0,0,1,2.84,2.8A3.91,3.91,0,0,1,286.37,146.73Z"/><path class="cls-2" d="M295.51,148.4c0,2-1.07,3.47-3.16,3.47a3,3,0,0,1-3.13-2.5.11.11,0,0,1,.1-.13h.43a.21.21,0,0,1,.19.16,2.29,2.29,0,0,0,2.4,1.79c1.51,0,2.43-1,2.43-2.79v-.24a2.32,2.32,0,0,0-2.28-2.5,2.76,2.76,0,0,0-2.33,1.13c-.19.27-.21.43-.43.43h-.25c-.1,0-.18-.06-.16-.16l.45-5.38c0-.12.06-.18.16-.18h4.93a.17.17,0,0,1,.18.18v.39a.16.16,0,0,1-.18.16h-4.46l-.33,3.67a3.4,3.4,0,0,1,2.42-.92,3,3,0,0,1,3,3.19Z"/><path class="cls-2" d="M304.48,151.46a.36.36,0,0,1,.07.16.1.1,0,0,1-.1.1h-.58c-.1,0-.15-.07-.19-.15l-3.45-5.42-2,2.13v3.27a.16.16,0,0,1-.18.16h-.39a.15.15,0,0,1-.16-.16v-10a.16.16,0,0,1,.16-.18h.39a.17.17,0,0,1,.18.18v5.84l5.41-5.79c.1-.1.18-.22.3-.22h.55a.1.1,0,0,1,.1.1c0,.07,0,.12-.1.19l-3.75,4Z"/><path class="cls-2" d="M309.06,150.08v-3.21h-3.11a.15.15,0,0,1-.16-.16v-.34a.16.16,0,0,1,.16-.18h3.11V143a.16.16,0,0,1,.16-.18h.38a.17.17,0,0,1,.18.18v3.17h3.08a.17.17,0,0,1,.18.18v.34a.16.16,0,0,1-.18.16h-3.08v3.21a.16.16,0,0,1-.18.16h-.38A.15.15,0,0,1,309.06,150.08Z"/><path class="cls-2" d="M325.71,151.62a.1.1,0,0,1-.1.1h-.47a.17.17,0,0,1-.18-.12l-1.08-2.93h-4.74l-1.05,2.93a.16.16,0,0,1-.16.12h-.47a.1.1,0,0,1-.1-.1,1.24,1.24,0,0,1,.1-.31l3.57-9.76c0-.12.1-.19.21-.19h.53c.1,0,.15.07.19.18l3.72,9.94A.48.48,0,0,1,325.71,151.62Zm-2.1-3.63-2.13-5.79L319.4,148Z"/><path class="cls-2" d="M329.67,151.17a1.93,1.93,0,0,0,2-1.69c0-.1.06-.13.16-.13h.44a.1.1,0,0,1,.1.1.76.76,0,0,1,0,.15,2.7,2.7,0,0,1-2.73,2.27,2.88,2.88,0,0,1-2.92-3.22V147.4c0-2.07,1.25-3.23,2.9-3.23a2.69,2.69,0,0,1,2.76,2.42v0a.1.1,0,0,1-.1.1h-.44a.16.16,0,0,1-.16-.15,2,2,0,0,0-2-1.69c-1.26,0-2.18.9-2.18,2.55v1.21C327.48,150.28,328.41,151.17,329.67,151.17Z"/><path class="cls-2" d="M336.82,151.17a1.93,1.93,0,0,0,2-1.69c0-.1.06-.13.16-.13h.44a.1.1,0,0,1,.1.1.76.76,0,0,1,0,.15,2.7,2.7,0,0,1-2.73,2.27,2.88,2.88,0,0,1-2.92-3.22V147.4c0-2.07,1.25-3.23,2.9-3.23a2.69,2.69,0,0,1,2.76,2.42v0a.1.1,0,0,1-.1.1H339a.16.16,0,0,1-.16-.15,2,2,0,0,0-2-1.69c-1.26,0-2.18.9-2.18,2.55v1.21C334.62,150.28,335.56,151.17,336.82,151.17Z"/><path class="cls-2" d="M344,151.17a2,2,0,0,0,2.09-1.56c0-.09.06-.13.15-.13h.46a.1.1,0,0,1,.1.1.76.76,0,0,1,0,.19,2.76,2.76,0,0,1-2.76,2.09,2.88,2.88,0,0,1-2.93-3.22V147.4c0-2.07,1.25-3.23,2.9-3.23s2.9,1.16,2.9,3.23v.77a.16.16,0,0,1-.18.16h-4.9v.4A2.19,2.19,0,0,0,344,151.17Zm2.15-3.79c0-1.62-.9-2.52-2.18-2.52s-2.18.9-2.18,2.52v.25h4.36Z"/><path class="cls-2" d="M348.26,149.9a.14.14,0,0,1,0-.1.14.14,0,0,1,.13-.07h.39c.12,0,.15,0,.18.13a1.85,1.85,0,0,0,2,1.32c1,0,1.94-.33,1.94-1.39,0-2.24-4.52-.46-4.52-3.66,0-1.45,1.38-2,2.43-2,2.67,0,2.61,2,2.61,2v0a.17.17,0,0,1-.16.13h-.4c-.1,0-.15,0-.16-.16-.07-.49-.3-1.26-1.88-1.26-.7,0-1.7.27-1.7,1.26,0,2.34,4.52.59,4.52,3.66,0,1.51-1.2,2.09-2.68,2.09A2.46,2.46,0,0,1,348.26,149.9Z"/><path class="cls-2" d="M355,149.9a.14.14,0,0,1,0-.1.14.14,0,0,1,.13-.07h.39c.12,0,.15,0,.18.13a1.85,1.85,0,0,0,2,1.32c1,0,1.94-.33,1.94-1.39,0-2.24-4.52-.46-4.52-3.66,0-1.45,1.38-2,2.43-2,2.67,0,2.61,2,2.61,2v0a.17.17,0,0,1-.16.13h-.4c-.1,0-.15,0-.16-.16-.07-.49-.3-1.26-1.88-1.26-.7,0-1.7.27-1.7,1.26,0,2.34,4.52.59,4.52,3.66,0,1.51-1.2,2.09-2.68,2.09A2.46,2.46,0,0,1,355,149.9Z"/><path class="cls-2" d="M365.36,148.91V145h-1.24a.15.15,0,0,1-.16-.16v-.34a.16.16,0,0,1,.16-.18c.84,0,1.27-.19,1.27-1.27v-.47a.16.16,0,0,1,.16-.18h.36a.17.17,0,0,1,.18.18v1.75h1.82a.17.17,0,0,1,.18.18v.34a.16.16,0,0,1-.18.16h-1.82v3.91c0,1.73.19,2.12,1.7,2.12h.12a.17.17,0,0,1,.18.18v.36a.16.16,0,0,1-.18.16h-.12C365.55,151.72,365.36,150.82,365.36,148.91Z"/><path class="cls-2" d="M371.94,144.17c1.64,0,2.89,1.16,2.89,3.23v1.26c0,2.07-1.24,3.22-2.89,3.22s-2.89-1.14-2.89-3.22V147.4C369,145.32,370.28,144.17,371.94,144.17Zm0,7c1.27,0,2.16-.89,2.16-2.55v-1.21c0-1.64-.89-2.55-2.16-2.55s-2.16.9-2.16,2.55v1.21C369.78,150.28,370.68,151.17,371.94,151.17Z"/><path class="cls-2" d="M387.35,151.62a.1.1,0,0,1-.1.1h-.47a.17.17,0,0,1-.18-.12l-1.08-2.93h-4.74l-1.05,2.93a.16.16,0,0,1-.16.12h-.47a.1.1,0,0,1-.1-.1,1.24,1.24,0,0,1,.1-.31l3.57-9.76c0-.12.1-.19.21-.19h.53c.1,0,.15.07.19.18l3.72,9.94A.48.48,0,0,1,387.35,151.62Zm-2.1-3.63-2.13-5.79L381,148Z"/><path class="cls-2" d="M395.65,148.43a3.58,3.58,0,0,1-3.63,3.44,3.67,3.67,0,0,1-3.7-3.93v-2.81A3.64,3.64,0,0,1,392,141.2a3.58,3.58,0,0,1,3.64,3.23c0,.15-.06.18-.16.18H395c-.06,0-.1,0-.12-.16a2.9,2.9,0,0,0-2.9-2.56,3,3,0,0,0-2.95,3.25v2.81a3,3,0,0,0,3,3.25,2.9,2.9,0,0,0,2.92-2.79.1.1,0,0,1,.1-.09h.5A.11.11,0,0,1,395.65,148.43Z"/><path class="cls-2" d="M407.25,141.53v10a.16.16,0,0,1-.18.16h-.39a.15.15,0,0,1-.16-.16v-9.29l-3.67,9.33a.2.2,0,0,1-.18.12h-.37a.17.17,0,0,1-.18-.12l-3.67-9.33v9.29a.16.16,0,0,1-.18.16h-.39a.15.15,0,0,1-.16-.16v-10a.16.16,0,0,1,.16-.18h.84a.18.18,0,0,1,.18.12l3.59,9.26,3.62-9.26c0-.1.09-.12.16-.12h.8A.17.17,0,0,1,407.25,141.53Z"/><path class="cls-2" d="M413.3,147.57h-2.8v4a.16.16,0,0,1-.18.16h-.39a.15.15,0,0,1-.16-.16v-10a.16.16,0,0,1,.16-.18h3.36c1.94,0,3.2,1,3.2,2.92v.24A2.91,2.91,0,0,1,413.3,147.57ZM410.5,142v4.86h2.8a2.23,2.23,0,0,0,2.47-2.33v-.36c0-1.67-1.2-2.18-2.47-2.18Z"/><path class="cls-2" d="M418.83,151.72h-.39a.15.15,0,0,1-.16-.16v-10a.16.16,0,0,1,.16-.18h3.36c1.94,0,3.2,1,3.2,2.92v.13a2.8,2.8,0,0,1-2.37,2.79l2.3,4.3a.22.22,0,0,1,0,.13.1.1,0,0,1-.1.1h-.56c-.1,0-.15-.06-.19-.15l-2.27-4.3H419v4.28A.16.16,0,0,1,418.83,151.72Zm3-5.13a2.21,2.21,0,0,0,2.47-2.13v-.25c0-1.67-1.2-2.18-2.47-2.18H419v4.56Z"/><path class="cls-2" d="M298.66,166.65v-7.07a.16.16,0,0,1,.16-.18h.36a.17.17,0,0,1,.18.18v1.19a2.18,2.18,0,0,1,2.18-1.36h.24a.17.17,0,0,1,.18.18v.36a.16.16,0,0,1-.18.16h-.24c-1.69,0-2.15,1.66-2.15,2.71v3.84a.16.16,0,0,1-.18.16h-.38A.15.15,0,0,1,298.66,166.65Z"/><path class="cls-2" d="M305.92,166.26a2,2,0,0,0,2.09-1.56c0-.09.06-.13.15-.13h.46a.1.1,0,0,1,.1.1.76.76,0,0,1,0,.19,2.76,2.76,0,0,1-2.76,2.09,2.88,2.88,0,0,1-2.93-3.22v-1.26c0-2.07,1.25-3.23,2.9-3.23s2.9,1.16,2.9,3.23v.77a.16.16,0,0,1-.18.16h-4.9v.4A2.19,2.19,0,0,0,305.92,166.26Zm2.15-3.79c0-1.62-.9-2.52-2.18-2.52s-2.18.9-2.18,2.52v.25h4.36Z"/><path class="cls-2" d="M316.59,167.88c0,1.16-.82,2-2.42,2h-1.57c-1.6,0-2.4-.92-2.4-2a1.9,1.9,0,0,1,.84-1.66,1.25,1.25,0,0,1-.84-1.24,1.33,1.33,0,0,1,1.25-1.38,2.2,2.2,0,0,1-.92-1.9,2.47,2.47,0,0,1,2.59-2.45h.43a2.64,2.64,0,0,1,1.9.76v-1.24a.16.16,0,0,1,.16-.18H316a.17.17,0,0,1,.18.18v2.93a2.46,2.46,0,0,1-2.59,2.46h-1.61c-.62,0-1,.24-1,.8s.37.79,1.32.79h1.91A2.12,2.12,0,0,1,316.59,167.88Zm-.76,0c0-.81-.47-1.44-1.7-1.44h-1.48c-1.21,0-1.69.62-1.69,1.44s.47,1.38,1.69,1.38h1.48C315.36,169.24,315.84,168.68,315.84,167.86Zm-4.56-6.16a1.79,1.79,0,0,0,1.93,1.81h.28a1.8,1.8,0,1,0,0-3.6h-.28A1.78,1.78,0,0,0,311.27,161.7Z"/><path class="cls-2" d="M318.94,157a.55.55,0,0,1-.58.58.58.58,0,0,1,0-1.16A.55.55,0,0,1,318.94,157Zm-.93,9.63v-7.07a.16.16,0,0,1,.16-.18h.39a.17.17,0,0,1,.18.18v7.07a.16.16,0,0,1-.18.16h-.39A.15.15,0,0,1,318,166.65Z"/><path class="cls-2" d="M320.58,165a.14.14,0,0,1,0-.1.14.14,0,0,1,.13-.07h.39c.12,0,.15,0,.18.13a1.85,1.85,0,0,0,2,1.32c1,0,1.94-.33,1.94-1.39,0-2.24-4.52-.46-4.52-3.66,0-1.45,1.38-2,2.43-2,2.67,0,2.61,2,2.61,2v0a.17.17,0,0,1-.16.13h-.4c-.1,0-.15,0-.16-.16-.07-.49-.3-1.26-1.88-1.26-.7,0-1.7.27-1.7,1.26,0,2.34,4.52.59,4.52,3.66,0,1.51-1.2,2.09-2.68,2.09A2.46,2.46,0,0,1,320.58,165Z"/><path class="cls-2" d="M327.8,164v-3.91h-1.24a.15.15,0,0,1-.16-.16v-.34a.16.16,0,0,1,.16-.18c.84,0,1.27-.19,1.27-1.27v-.47a.16.16,0,0,1,.16-.18h.36a.17.17,0,0,1,.18.18v1.75h1.82a.17.17,0,0,1,.18.18v.34a.16.16,0,0,1-.18.16h-1.82V164c0,1.73.19,2.12,1.7,2.12h.12a.17.17,0,0,1,.18.18v.36a.16.16,0,0,1-.18.16h-.12C328,166.81,327.8,165.91,327.8,164Z"/><path class="cls-2" d="M334.42,166.26a2,2,0,0,0,2.09-1.56c0-.09.06-.13.15-.13h.46a.1.1,0,0,1,.1.1.76.76,0,0,1,0,.19,2.76,2.76,0,0,1-2.76,2.09,2.88,2.88,0,0,1-2.93-3.22v-1.26c0-2.07,1.25-3.23,2.9-3.23s2.9,1.16,2.9,3.23v.77a.16.16,0,0,1-.18.16h-4.9v.4A2.19,2.19,0,0,0,334.42,166.26Zm2.15-3.79c0-1.62-.9-2.52-2.18-2.52s-2.18.9-2.18,2.52v.25h4.36Z"/><path class="cls-2" d="M339.15,166.65v-7.07a.16.16,0,0,1,.16-.18h.36a.17.17,0,0,1,.18.18v1.19A2.18,2.18,0,0,1,342,159.4h.24a.17.17,0,0,1,.18.18v.36a.16.16,0,0,1-.18.16H342c-1.69,0-2.15,1.66-2.15,2.71v3.84a.16.16,0,0,1-.18.16h-.38A.15.15,0,0,1,339.15,166.65Z"/><path class="cls-2" d="M346.41,166.26a2,2,0,0,0,2.09-1.56c0-.09.06-.13.15-.13h.46a.1.1,0,0,1,.1.1.76.76,0,0,1,0,.19,2.76,2.76,0,0,1-2.76,2.09,2.88,2.88,0,0,1-2.93-3.22v-1.26c0-2.07,1.25-3.23,2.9-3.23s2.9,1.16,2.9,3.23v.77a.16.16,0,0,1-.18.16h-4.9v.4A2.19,2.19,0,0,0,346.41,166.26Zm2.15-3.79c0-1.62-.9-2.52-2.18-2.52s-2.18.9-2.18,2.52v.25h4.36Z"/><path class="cls-2" d="M355.84,166.65v-.87a2.43,2.43,0,0,1-2.18,1.19c-1.64,0-2.89-1.14-2.89-3.22v-1.26c0-2.07,1.25-3.23,2.89-3.23a2.41,2.41,0,0,1,2.18,1.19v-3.82a.16.16,0,0,1,.16-.18h.38a.17.17,0,0,1,.18.18v10a.16.16,0,0,1-.18.16H356A.15.15,0,0,1,355.84,166.65Zm0-2.93v-1.33a2.17,2.17,0,0,0-2.18-2.43c-1.29,0-2.16.9-2.16,2.55v1.21c0,1.66.89,2.55,2.15,2.55S355.84,165.36,355.84,163.71Z"/><path class="cls-2" d="M362.45,169.77h-.38a.15.15,0,0,1-.16-.16v-10a.16.16,0,0,1,.16-.18h.38a.17.17,0,0,1,.18.18v.86a2.41,2.41,0,0,1,2.18-1.19c1.64,0,2.89,1.16,2.89,3.23v1.26c0,2.07-1.25,3.22-2.89,3.22a2.43,2.43,0,0,1-2.18-1.19v3.84A.16.16,0,0,1,362.45,169.77Zm2.36-3.51c1.27,0,2.16-.89,2.16-2.55V162.5c0-1.64-.87-2.55-2.16-2.55a2.17,2.17,0,0,0-2.18,2.43v1.33C362.63,165.36,363.54,166.26,364.8,166.26Z"/><path class="cls-2" d="M374.41,166.81H374a.15.15,0,0,1-.16-.16v-.89a2.31,2.31,0,0,1-2.18,1.2h-.34a2.11,2.11,0,0,1-2.38-2.13c0-1.47.86-2.12,2.52-2.12h2.39v-.61c0-.95,0-2.15-1.93-2.15-1.36,0-1.72.5-1.85,1.26,0,.07,0,.16-.18.16h-.39a.15.15,0,0,1-.16-.16v0c.12-1,.7-1.93,2.58-1.93,2.56,0,2.65,1.69,2.65,2.86v4.53A.16.16,0,0,1,374.41,166.81Zm-4.73-2a1.47,1.47,0,0,0,1.66,1.44h.34a2.09,2.09,0,0,0,2.18-2.28v-.58h-2.37C370,163.4,369.68,163.94,369.68,164.83Z"/><path class="cls-2" d="M376.88,164v-3.91h-1.24a.15.15,0,0,1-.16-.16v-.34a.16.16,0,0,1,.16-.18c.84,0,1.27-.19,1.27-1.27v-.47a.16.16,0,0,1,.16-.18h.36a.17.17,0,0,1,.18.18v1.75h1.82a.17.17,0,0,1,.18.18v.34a.16.16,0,0,1-.18.16h-1.82V164c0,1.73.19,2.12,1.7,2.12h.12a.17.17,0,0,1,.18.18v.36a.16.16,0,0,1-.18.16h-.12C377.08,166.81,376.88,165.91,376.88,164Z"/><path class="cls-2" d="M382.17,157a.55.55,0,0,1-.58.58.58.58,0,0,1,0-1.16A.55.55,0,0,1,382.17,157Zm-.93,9.63v-7.07a.16.16,0,0,1,.16-.18h.39a.17.17,0,0,1,.18.18v7.07a.16.16,0,0,1-.18.16h-.39A.15.15,0,0,1,381.24,166.65Z"/><path class="cls-2" d="M386.83,166.26a2,2,0,0,0,2.09-1.56c0-.09.06-.13.15-.13h.46a.1.1,0,0,1,.1.1.76.76,0,0,1,0,.19,2.76,2.76,0,0,1-2.76,2.09,2.88,2.88,0,0,1-2.93-3.22v-1.26c0-2.07,1.25-3.23,2.9-3.23s2.9,1.16,2.9,3.23v.77a.16.16,0,0,1-.18.16h-4.9v.4A2.19,2.19,0,0,0,386.83,166.26Zm2.15-3.79c0-1.62-.9-2.52-2.18-2.52s-2.18.9-2.18,2.52v.25H389Z"/><path class="cls-2" d="M391.56,166.65v-7.07a.16.16,0,0,1,.16-.18h.39a.17.17,0,0,1,.18.18v.9a2.22,2.22,0,0,1,2.1-1.23c1.82,0,2.84,1.3,2.84,3.23v4.16a.16.16,0,0,1-.18.16h-.38a.15.15,0,0,1-.16-.16V162.5c0-1.64-.84-2.55-2.12-2.55s-2.1.9-2.1,2.55v4.15a.16.16,0,0,1-.18.16h-.39A.15.15,0,0,1,391.56,166.65Z"/><path class="cls-2" d="M399.53,164v-3.91h-1.24a.15.15,0,0,1-.16-.16v-.34a.16.16,0,0,1,.16-.18c.84,0,1.27-.19,1.27-1.27v-.47a.16.16,0,0,1,.16-.18h.36a.17.17,0,0,1,.18.18v1.75h1.82a.17.17,0,0,1,.18.18v.34a.16.16,0,0,1-.18.16h-1.82V164c0,1.73.19,2.12,1.7,2.12h.12a.17.17,0,0,1,.18.18v.36a.16.16,0,0,1-.18.16H402C399.72,166.81,399.53,165.91,399.53,164Z"/><path class="cls-2" d="M403.14,165a.14.14,0,0,1,0-.1.14.14,0,0,1,.13-.07h.39c.12,0,.15,0,.18.13a1.85,1.85,0,0,0,2,1.32c1,0,1.94-.33,1.94-1.39,0-2.24-4.52-.46-4.52-3.66,0-1.45,1.38-2,2.43-2,2.67,0,2.61,2,2.61,2v0a.17.17,0,0,1-.16.13h-.4c-.1,0-.15,0-.16-.16-.07-.49-.3-1.26-1.88-1.26-.7,0-1.7.27-1.7,1.26,0,2.34,4.52.59,4.52,3.66,0,1.51-1.2,2.09-2.68,2.09A2.46,2.46,0,0,1,403.14,165Z"/></svg>