<?xml version="1.0" encoding="utf-8"?>
<!-- Generator: Adobe Illustrator 21.1.0, SVG Export Plug-In . SVG Version: 6.00 Build 0)  -->
<!DOCTYPE svg PUBLIC "-//W3C//DTD SVG 1.1//EN" "http://www.w3.org/Graphics/SVG/1.1/DTD/svg11.dtd">
<svg version="1.1" id="Layer_1" xmlns="http://www.w3.org/2000/svg" xmlns:xlink="http://www.w3.org/1999/xlink" x="0px" y="0px"
	 viewBox="0 0 32 32" enable-background="new 0 0 32 32" xml:space="preserve">
<title>Asset 2</title>
<g id="Layer_2">
	<g id="Layer_1-2">
		<path fill="#888888" d="M32,6.1c-1.2,0.5-2.5,0.9-3.8,1c1.4-0.8,2.4-2.1,2.9-3.6c-1.3,0.8-2.7,1.3-4.2,1.6
			c-2.5-2.6-6.6-2.8-9.3-0.3c-1.7,1.6-2.4,4-1.9,6.3C10.5,10.8,5.6,8.3,2.2,4.2c-1.8,3-0.9,6.8,2,8.8c-1.1,0-2.1-0.3-3-0.8
			c0,0,0,0.1,0,0.1c0,3.1,2.2,5.8,5.3,6.4c-1,0.3-2,0.3-3,0.1c0.9,2.7,3.3,4.5,6.1,4.6c-2.3,1.8-5.2,2.8-8.1,2.8c-0.5,0-1,0-1.5-0.1
			C3,28,6.5,29,10.1,29c12.1,0,18.7-10,18.7-18.7c0-0.3,0-0.6,0-0.8C30,8.6,31.1,7.4,32,6.1z"/>
	</g>
</g>
</svg>
