<svg xmlns="http://www.w3.org/2000/svg" viewBox="0 0 32 32"><title>Asset 2</title><g id="Layer_2" data-name="Layer 2"><g id="Layer_1-2" data-name="Layer 1"><path d="M16,0A16,16,0,1,0,32,16,16,16,0,0,0,16,0Zm6.36,12.74q0,.21,0,.42A9.34,9.34,0,0,1,8,21a6.67,6.67,0,0,0,.78,0,6.59,6.59,0,0,0,4.08-1.41,3.29,3.29,0,0,1-3.07-2.28,3.29,3.29,0,0,0,1.48-.06,3.28,3.28,0,0,1-2.63-3.22v0a3.27,3.27,0,0,0,1.49.41,3.29,3.29,0,0,1-1-4.38,9.32,9.32,0,0,0,6.77,3.43,3.28,3.28,0,0,1,5.59-3,6.57,6.57,0,0,0,2.08-.8,3.29,3.29,0,0,1-1.44,1.82A6.56,6.56,0,0,0,24,11,6.67,6.67,0,0,1,22.36,12.74Z" fill="#fff"/></g></g></svg>