<?xml version="1.0" encoding="utf-8"?>
<!-- Generator: Adobe Illustrator 21.1.0, SVG Export Plug-In . SVG Version: 6.00 Build 0)  -->
<!DOCTYPE svg PUBLIC "-//W3C//DTD SVG 1.1//EN" "http://www.w3.org/Graphics/SVG/1.1/DTD/svg11.dtd">
<svg version="1.1" id="Layer_1" xmlns="http://www.w3.org/2000/svg" xmlns:xlink="http://www.w3.org/1999/xlink" x="0px" y="0px"
	 viewBox="0 0 71.7 34.3" enable-background="new 0 0 71.7 34.3" xml:space="preserve">
<title>Asset 3</title>
<g id="Layer_2">
	<g id="Layer_1-2">
		<path fill="#A6C09A" d="M32.8,34.2c-4.4,0-8.5,0.1-12.6,0c-1.8,0-3.4-0.9-4.3-2.4C14,28.3,0.6,2,0,0.9C-0.1,0.7,0,0,0.9,0
			C4.4,0,8,0,11.6,0c2.5,0,4.3,0.9,5.3,2.7C18.2,5.2,32.7,33.8,32.8,34.2"/>
		<path fill="#A6C09A" d="M56.8,34.2c-4.4,0-8.5,0.1-12.6,0c-1.8,0-3.4-0.9-4.3-2.4C38.1,28.3,24.6,2,24.1,0.9C24,0.7,24,0,24.9,0
			c3.6,0,7.2,0,10.7,0c2.5,0,4.3,0.9,5.3,2.7C42.3,5.2,56.7,33.8,56.8,34.2"/>
		<path fill="#A6C09A" d="M70.8,0.1L70.8,0.1C70.3,0.1,66.9,0,63.5,0C61.1,0,59,1.3,58,3.4c-1.7,3.2-3.2,6.4-4.9,9.6
			c-0.2,0.4-0.1,0.9,0.3,1.1c0.1,0.1,0.2,0.1,0.4,0.1c0.5,0.1,3.9,0.1,7.3,0.1c2.3,0,4.5-1.3,5.5-3.4c1.7-3.2,3.2-6.4,4.9-9.6
			c0.2-0.4,0.1-0.8-0.3-1.1C71.1,0.2,70.9,0.1,70.8,0.1"/>
	</g>
</g>
</svg>
