<svg id="Layer_1" data-name="Layer 1" xmlns="http://www.w3.org/2000/svg" viewBox="0 0 414 736"><title>about-us-graphic-1</title><path d="M273.5,553.35v69.1H274v-69.1Z" fill="#2b3036"/><path d="M110.58,553.34H90.32v62.34H87.06v-63.3a28.58,28.58,0,0,0-28.59-28.57H15a28.58,28.58,0,0,0-28.58,28.57v70.06h142V571.13A17.79,17.79,0,0,0,110.58,553.34ZM34.36,615.68H11.22V584.39H34.36Zm27.15,0H38.37V584.39H61.51Zm-3.37-56.94A11.56,11.56,0,0,1,50,562.1H22.71a11.5,11.5,0,0,1-11.18-8.76,11.26,11.26,0,0,1-.34-2.75,11.52,11.52,0,0,1,11.52-11.51H50a11.52,11.52,0,0,1,8.14,19.66Zm62,47.18H98.39v-30H120.1Z" fill="#2b3036"/><rect x="98.39" y="575.88" width="21.71" height="30.04" fill="#89997e"/><rect x="38.37" y="584.39" width="23.14" height="31.29" fill="#89997e"/><rect x="11.22" y="584.39" width="23.14" height="31.29" fill="#89997e"/><path d="M61.51,550.59a11.52,11.52,0,0,1-3.37,8.15A11.56,11.56,0,0,1,50,562.1H22.71a11.5,11.5,0,0,1-11.18-8.76,11.26,11.26,0,0,1-.34-2.75,11.52,11.52,0,0,1,11.52-11.51H50a11.48,11.48,0,0,1,11.51,11.51Z" fill="#89997e"/><path d="M245.3,584.39v31.29h0V584.39ZM242,542.45h0l.39.4Z" fill="#2b3036"/><path d="M169.46,523.81v91.87h-3.27v6.76H270.11V523.81ZM195,615.68V584.39h23.14v31.29Zm50.31,0H222.17V584.39h23.14ZM233.82,562.1H206.53a11.54,11.54,0,0,1-8.15-3.36c-.26-.27-.51-.54-.74-.82s-.46-.58-.67-.89l-.3-.47c-.09-.16-.18-.31-.27-.48a4.72,4.72,0,0,1-.26-.5,3.62,3.62,0,0,1-.2-.45s0,0,0-.07l-.2-.51a10.34,10.34,0,0,1-.33-1.08,3.78,3.78,0,0,1-.13-.56c0-.18-.07-.38-.11-.56a12.79,12.79,0,0,1-.13-1.76,12.64,12.64,0,0,1,.13-1.75,4.79,4.79,0,0,1,.11-.57,3.78,3.78,0,0,1,.13-.56,9.66,9.66,0,0,1,.33-1.08l.2-.51s0,0,0-.07a3.62,3.62,0,0,1,.2-.45,4.72,4.72,0,0,1,.26-.5c.09-.17.18-.32.27-.48l.3-.47c.21-.31.43-.6.67-.89s.48-.56.74-.82.53-.5.82-.74.43-.34.66-.5l.32-.22c.24-.16.48-.31.74-.45l.36-.19.53-.26q.38-.16.75-.3c.36-.13.72-.24,1.09-.34l.51-.12c.16,0,.33-.07.5-.09l.24,0a8.1,8.1,0,0,1,1-.09h27.93a11.47,11.47,0,0,1,8.13,3.37h0l.38.4c.12.14.24.27.36.42a9.7,9.7,0,0,1,.88,1.22c.11.17.21.34.31.51s.3.56.42.85.13.29.19.44.14.36.2.54a8.37,8.37,0,0,1,.25.81c.06.24.12.47.16.71a9.81,9.81,0,0,1,.18,1.34c0,.13,0,.25,0,.38s0,.34,0,.52A11.51,11.51,0,0,1,233.82,562.1Z" fill="#2b3036"/><path d="M134.16,553.34v69.1h32v-69.1Zm24,52.58h-15.7v-30h15.7Z" fill="#2b3036"/><rect x="273.5" y="553.35" width="28.02" height="69.1" fill="#2b3036"/><rect x="222.17" y="584.39" width="23.13" height="31.29" fill="#89997e"/><rect x="245.3" y="584.39" width="0.01" height="31.29" fill="#89997e"/><rect x="195" y="584.39" width="23.14" height="31.29" fill="#89997e"/><rect x="142.43" y="575.88" width="15.7" height="30.04" fill="#89997e"/><path d="M245.33,550.59a11.51,11.51,0,0,1-11.51,11.51H206.53a11.54,11.54,0,0,1-8.15-3.36c-.26-.27-.51-.54-.74-.82s-.46-.58-.67-.89l-.3-.47c-.09-.16-.18-.31-.27-.48s-.18-.33-.26-.5-.14-.3-.2-.45,0,0,0-.07l-.2-.51a10.34,10.34,0,0,1-.33-1.08c0-.19-.09-.37-.13-.56s-.07-.38-.11-.56a12.79,12.79,0,0,1-.13-1.76,12.64,12.64,0,0,1,.13-1.75c0-.2.07-.38.11-.57s.08-.37.13-.56a9.66,9.66,0,0,1,.33-1.08l.2-.51s0,0,0-.07a4.67,4.67,0,0,1,.2-.45c.08-.17.17-.34.26-.5s.18-.32.27-.48l.3-.47c.21-.31.43-.6.67-.89s.48-.56.74-.82.53-.5.82-.74.43-.34.66-.5l.32-.22c.24-.16.48-.31.74-.45l.36-.19.53-.26q.38-.16.75-.3c.36-.13.72-.24,1.09-.34l.51-.12c.16,0,.33-.07.5-.09l.24,0a8.1,8.1,0,0,1,1-.09h27.93a11.47,11.47,0,0,1,8.13,3.37l.39.4c.12.14.24.27.36.42a9.7,9.7,0,0,1,.88,1.22c.11.17.21.34.31.51s.3.56.42.85.13.29.19.44.14.36.2.54a8.37,8.37,0,0,1,.25.81c.06.24.12.47.16.71a9.81,9.81,0,0,1,.18,1.34c0,.13,0,.25,0,.38S245.33,550.41,245.33,550.59Z" fill="#89997e"/><path d="M242.34,542.85l-.39-.4h0Z" fill="#89997e"/><path d="M306.15,523.81v98.63H417.8V523.81Zm26.23,22.82c.13-.35.28-.7.44-1a11.54,11.54,0,0,1,1.49-2.33c.24-.29.49-.56.75-.82a11.48,11.48,0,0,1,8.14-3.37H367l-23,23h-.74a11.5,11.5,0,0,1-8.14-3.36,11.19,11.19,0,0,1-2-2.66,11.83,11.83,0,0,1-1-2.61,11.61,11.61,0,0,1,.34-6.84Zm27.44,69H331.68V584.39h28.14Zm29.16,0H363.84V584.39H389Zm-.88-60.61a11.53,11.53,0,0,1-10.61,7H352.92l23-23h1.55a11.48,11.48,0,0,1,8.14,3.37c.26.26.51.53.75.82a11.49,11.49,0,0,1,1.72,11.8Z" fill="#2b3036"/><path d="M367,539.08l-23,23h-.74a11.5,11.5,0,0,1-8.14-3.36,11.19,11.19,0,0,1-2-2.66,11.83,11.83,0,0,1-1-2.61,11.61,11.61,0,0,1,.34-6.84c.13-.35.28-.7.44-1a11.54,11.54,0,0,1,1.49-2.33c.24-.29.49-.56.75-.82a11.48,11.48,0,0,1,8.14-3.37Z" fill="#89997e"/><path d="M389,550.59a11.5,11.5,0,0,1-3.38,8.14,11.46,11.46,0,0,1-8.14,3.37H352.92l23-23h1.55a11.48,11.48,0,0,1,8.14,3.37c.26.26.51.53.75.82a11.45,11.45,0,0,1,2.63,7.32Z" fill="#89997e"/><rect x="363.84" y="584.39" width="25.14" height="31.29" fill="#89997e"/><rect x="331.68" y="584.39" width="28.14" height="31.29" fill="#89997e"/><path d="M67.39,490.33l-9.75-9.75a.81.81,0,0,1,0-1.15l11.54-11.54a1.34,1.34,0,0,0,0-1.92l-1.78-1.78-5.28-5.28a1.35,1.35,0,0,0-1.92,0L48.65,470.44a.82.82,0,0,1-1.15,0L36,458.9a1.36,1.36,0,0,0-1.93,0L27,466a1.36,1.36,0,0,0,0,1.92l11.54,11.54a.8.8,0,0,1,0,1.15L27,492.11A1.36,1.36,0,0,0,27,494L34,501.1a1.36,1.36,0,0,0,1.93,0L47.5,489.56a.82.82,0,0,1,1.15,0L60.19,501.1a1.35,1.35,0,0,0,1.92,0l5.28-5.28L69.17,494a1.34,1.34,0,0,0,0-1.92ZM54.7,481.54a6.84,6.84,0,0,1-4.43,1.67,6.74,6.74,0,0,1-1.1-.09,7,7,0,0,1,3,2.08.06.06,0,0,1,0,.08s0,0-.08,0a9.18,9.18,0,0,1-2.93-1.22,3.73,3.73,0,0,1-.95-.89c0,.32,0,1.15,0,1.58s0,.55,0,.57a.3.3,0,0,1-.19.09.3.3,0,0,1-.2-.1s0,0,0-.54,0-1.28,0-1.61a4.09,4.09,0,0,1-1,.89A9.14,9.14,0,0,1,44,485.31a.07.07,0,0,1-.08,0,.06.06,0,0,1,0-.08,7,7,0,0,1,3-2.08,7,7,0,0,1-1.1.09,6.82,6.82,0,0,1-4.43-1.67.07.07,0,0,1,0-.08s0,0,.07,0a8.49,8.49,0,0,1,1-.06,13,13,0,0,1,4.36.87,11.66,11.66,0,0,1-2.25-1.64,9.4,9.4,0,0,1-2.78-4.82.07.07,0,0,1,0-.08.07.07,0,0,1,.08,0,16.21,16.21,0,0,1,5.71,6.11,11.44,11.44,0,0,1-.56-2.64,13.52,13.52,0,0,1,.92-6.22s0,0,.07,0a.09.09,0,0,1,.08,0,13.42,13.42,0,0,1,.91,6.22,11.8,11.8,0,0,1-.56,2.64,16.18,16.18,0,0,1,5.7-6.11.08.08,0,0,1,.09,0s0,0,0,.08a9.49,9.49,0,0,1-2.78,4.82,11.47,11.47,0,0,1-2.26,1.64,13,13,0,0,1,4.37-.87,8.38,8.38,0,0,1,1,.06.07.07,0,0,1,.07,0A.07.07,0,0,1,54.7,481.54Z" fill="#a6c09a" stroke="#a6c0a0" stroke-miterlimit="10"/><path d="M241.07,473.64H224.75a.81.81,0,0,1-.81-.81V456.52a1.36,1.36,0,0,0-1.36-1.36h-10a1.36,1.36,0,0,0-1.36,1.36v16.32a.81.81,0,0,1-.81.81H194.11a1.36,1.36,0,0,0-1.36,1.36v10a1.36,1.36,0,0,0,1.36,1.36h16.32a.81.81,0,0,1,.81.81v16.32a1.36,1.36,0,0,0,1.36,1.36h10a1.36,1.36,0,0,0,1.36-1.36V487.16a.81.81,0,0,1,.81-.81h16.32a1.36,1.36,0,0,0,1.36-1.36V475A1.36,1.36,0,0,0,241.07,473.64Zm-16.82,7.9a6.74,6.74,0,0,1-5.53,1.58,7,7,0,0,1,3,2.08.07.07,0,0,1,0,.08.07.07,0,0,1-.08,0,9.18,9.18,0,0,1-2.93-1.22,3.94,3.94,0,0,1-1-.89c0,.32,0,1.17,0,1.61s0,.51,0,.54a.26.26,0,0,1-.19.1.32.32,0,0,1-.19-.09s0,0,0-.57,0-1.26,0-1.58a4,4,0,0,1-1,.89,9.14,9.14,0,0,1-2.92,1.22.08.08,0,0,1-.08,0,.07.07,0,0,1,0-.08,7,7,0,0,1,3-2.08,7,7,0,0,1-1.1.09,6.85,6.85,0,0,1-4.43-1.67.08.08,0,0,1,0-.08.07.07,0,0,1,.06,0,8.49,8.49,0,0,1,1-.06,12.88,12.88,0,0,1,4.36.87,11.44,11.44,0,0,1-2.24-1.64,9.45,9.45,0,0,1-2.79-4.82.09.09,0,0,1,0-.08.06.06,0,0,1,.08,0,16.15,16.15,0,0,1,5.71,6.11,11.73,11.73,0,0,1-.56-2.64,13.43,13.43,0,0,1,.93-6.22.07.07,0,0,1,.07,0,.07.07,0,0,1,.06,0,13.43,13.43,0,0,1,.93,6.22,11.44,11.44,0,0,1-.56,2.64,16.21,16.21,0,0,1,5.71-6.11.07.07,0,0,1,.08,0,.08.08,0,0,1,0,.08,9.49,9.49,0,0,1-2.78,4.82,11.46,11.46,0,0,1-2.25,1.64,12.89,12.89,0,0,1,4.37-.87,8.38,8.38,0,0,1,1,.06.07.07,0,0,1,.06,0A.07.07,0,0,1,224.25,481.54Z" fill="#a6c09a" stroke="#a6c0a0" stroke-miterlimit="10"/><path d="M386.85,473.64H370.53a.81.81,0,0,1-.81-.81V456.52a1.36,1.36,0,0,0-1.36-1.36h-10a1.36,1.36,0,0,0-1.36,1.36v16.32a.81.81,0,0,1-.81.81H339.89a1.36,1.36,0,0,0-1.36,1.36v10a1.36,1.36,0,0,0,1.36,1.36h16.32a.81.81,0,0,1,.81.81v16.32a1.36,1.36,0,0,0,1.36,1.36h10a1.36,1.36,0,0,0,1.36-1.36V487.16a.81.81,0,0,1,.81-.81h16.32a1.36,1.36,0,0,0,1.36-1.36V475A1.36,1.36,0,0,0,386.85,473.64ZM370,481.54a6.74,6.74,0,0,1-5.53,1.58,7,7,0,0,1,3,2.08.07.07,0,0,1,0,.08.07.07,0,0,1-.08,0,9.18,9.18,0,0,1-2.93-1.22,3.94,3.94,0,0,1-1-.89c0,.32,0,1.17,0,1.61s0,.51,0,.54a.26.26,0,0,1-.19.1.32.32,0,0,1-.19-.09s0,0,0-.57,0-1.26,0-1.58a4,4,0,0,1-1,.89,9.14,9.14,0,0,1-2.92,1.22.08.08,0,0,1-.08,0,.07.07,0,0,1,0-.08,7,7,0,0,1,3-2.08,7,7,0,0,1-1.1.09,6.85,6.85,0,0,1-4.43-1.67.08.08,0,0,1,0-.08.07.07,0,0,1,.06,0,8.49,8.49,0,0,1,1-.06,12.88,12.88,0,0,1,4.36.87,11.44,11.44,0,0,1-2.24-1.64,9.45,9.45,0,0,1-2.79-4.82.09.09,0,0,1,0-.08.06.06,0,0,1,.08,0A16.15,16.15,0,0,1,363,481.8a11.72,11.72,0,0,1-.56-2.64,13.43,13.43,0,0,1,.93-6.22.07.07,0,0,1,.07,0,.07.07,0,0,1,.06,0,13.43,13.43,0,0,1,.93,6.22,11.44,11.44,0,0,1-.56,2.64,16.21,16.21,0,0,1,5.71-6.11.07.07,0,0,1,.08,0,.08.08,0,0,1,0,.08,9.49,9.49,0,0,1-2.78,4.82,11.45,11.45,0,0,1-2.25,1.64,12.89,12.89,0,0,1,4.37-.87,8.38,8.38,0,0,1,1,.06.07.07,0,0,1,.06,0A.07.07,0,0,1,370,481.54Z" fill="#a6c09a" stroke="#a6c0a0" stroke-miterlimit="10"/><circle cx="287.51" cy="571.89" r="4.29" fill="#89997e"/><circle cx="287.51" cy="587.89" r="4.29" fill="#89997e"/><circle cx="287.51" cy="603.9" r="4.29" fill="#89997e"/><path d="M120.57,153.38a33.17,33.17,0,0,1-5.28-.43,33.9,33.9,0,0,1,14.45,10,.33.33,0,0,1,0,.4.34.34,0,0,1-.38.15,43.38,43.38,0,0,1-14.05-5.84,18.63,18.63,0,0,1-4.59-4.3c-.07,1.58.06,5.61.13,7.73.08,2.44.08,2.44,0,2.56a1.3,1.3,0,0,1-.94.47,1.52,1.52,0,0,1-.9-.42c-.1-.13-.1-.13,0-2.77.07-2.07.19-6,.13-7.57a18.44,18.44,0,0,1-4.59,4.3,43.47,43.47,0,0,1-14,5.84.34.34,0,0,1-.38-.15.33.33,0,0,1,0-.4,33.78,33.78,0,0,1,14.45-10,33.17,33.17,0,0,1-5.28.43c-7.65,0-14.82-2.69-21.3-8a.33.33,0,0,1-.12-.36.37.37,0,0,1,.29-.25,40.19,40.19,0,0,1,5-.29,61.82,61.82,0,0,1,21,4.18,55.6,55.6,0,0,1-10.79-7.87A45.41,45.41,0,0,1,80,117.63a.34.34,0,0,1,.14-.36.33.33,0,0,1,.38,0c15.91,9.58,24.06,23.4,27.4,29.36a56.29,56.29,0,0,1-2.69-12.68,64.54,64.54,0,0,1,4.43-29.88.35.35,0,0,1,.32-.22.36.36,0,0,1,.33.22,64.62,64.62,0,0,1,4.43,29.87,55.39,55.39,0,0,1-2.7,12.68c3.35-5.95,11.49-19.77,27.41-29.35a.33.33,0,0,1,.38,0,.34.34,0,0,1,.14.36,45.41,45.41,0,0,1-13.38,23.16,55.6,55.6,0,0,1-10.79,7.87,61.81,61.81,0,0,1,21-4.18,40,40,0,0,1,5,.29.34.34,0,0,1,.29.25.33.33,0,0,1-.11.36C135.39,150.69,128.22,153.38,120.57,153.38Z" fill="#a6c0a0" stroke="#a6c0a0" stroke-miterlimit="10"/><path d="M144.07,169.45v1.64a1.94,1.94,0,0,1-1.94,1.94H78a1.94,1.94,0,0,1-1.94-1.94v-1.64A1.93,1.93,0,0,1,78,167.52h64.11A1.93,1.93,0,0,1,144.07,169.45Z" fill="#2b3036"/><path d="M140.93,176.15,132,218.7a1.12,1.12,0,0,1-1.1.9H89.27a1.13,1.13,0,0,1-1.11-.9l-8.94-42.55a1.14,1.14,0,0,1,1.11-1.37h59.5A1.14,1.14,0,0,1,140.93,176.15Z" fill="#2b3036"/><path d="M226.23,153.38a32.93,32.93,0,0,1-5.27-.43,33.82,33.82,0,0,1,14.44,10,.33.33,0,0,1,0,.4.34.34,0,0,1-.38.15,43.47,43.47,0,0,1-14-5.84,18.64,18.64,0,0,1-4.59-4.3c-.06,1.58.06,5.61.13,7.73.08,2.44.08,2.44,0,2.56a1.28,1.28,0,0,1-.93.47,1.52,1.52,0,0,1-.91-.42c-.1-.13-.1-.13,0-2.77.07-2.07.19-6,.13-7.57a18.44,18.44,0,0,1-4.59,4.3,43.38,43.38,0,0,1-14,5.84.34.34,0,0,1-.38-.15.33.33,0,0,1,0-.4,33.9,33.9,0,0,1,14.45-10,33.17,33.17,0,0,1-5.28.43c-7.65,0-14.82-2.69-21.3-8a.33.33,0,0,1-.11-.36.34.34,0,0,1,.29-.25,40,40,0,0,1,5-.29,61.81,61.81,0,0,1,21,4.18A55.6,55.6,0,0,1,199,140.79a45.41,45.41,0,0,1-13.38-23.16.36.36,0,0,1,.14-.36.33.33,0,0,1,.38,0c15.92,9.58,24.06,23.4,27.41,29.36a55.64,55.64,0,0,1-2.7-12.68,64.54,64.54,0,0,1,4.43-29.88.36.36,0,0,1,.33-.22.35.35,0,0,1,.32.22,64.49,64.49,0,0,1,4.43,29.87,56,56,0,0,1-2.69,12.68c3.34-5.95,11.49-19.77,27.4-29.35a.33.33,0,0,1,.38,0,.34.34,0,0,1,.14.36,45.41,45.41,0,0,1-13.38,23.16,55.6,55.6,0,0,1-10.79,7.87,61.82,61.82,0,0,1,21-4.18,40.19,40.19,0,0,1,5,.29.37.37,0,0,1,.29.25.33.33,0,0,1-.12.36C241,150.69,233.88,153.38,226.23,153.38Z" fill="#a6c0a0" stroke="#a6c0a0" stroke-miterlimit="10"/><rect x="181.75" y="167.52" width="67.98" height="5.51" rx="1.93" ry="1.93" fill="#2b3036"/><path d="M246.6,176.15l-8.94,42.55a1.13,1.13,0,0,1-1.11.9H194.93a1.13,1.13,0,0,1-1.11-.9l-8.94-42.55a1.14,1.14,0,0,1,1.11-1.37h59.5A1.14,1.14,0,0,1,246.6,176.15Z" fill="#2b3036"/><path d="M331.89,153.38a32.93,32.93,0,0,1-5.27-.43,33.9,33.9,0,0,1,14.45,10,.35.35,0,0,1,0,.4.34.34,0,0,1-.38.15,43.57,43.57,0,0,1-14-5.84,18.63,18.63,0,0,1-4.59-4.3c-.06,1.58.07,5.61.14,7.73.07,2.44.07,2.44,0,2.56a1.32,1.32,0,0,1-.94.47,1.52,1.52,0,0,1-.91-.42c-.1-.13-.1-.13,0-2.77.07-2.07.2-6,.13-7.57a18.25,18.25,0,0,1-4.59,4.3,43.38,43.38,0,0,1-14.05,5.84.33.33,0,0,1-.37-.15.35.35,0,0,1,0-.4,33.9,33.9,0,0,1,14.45-10,32.93,32.93,0,0,1-5.27.43c-7.66,0-14.83-2.69-21.31-8a.35.35,0,0,1-.11-.36.36.36,0,0,1,.29-.25,40.07,40.07,0,0,1,5-.29,61.75,61.75,0,0,1,21,4.18,55.6,55.6,0,0,1-10.79-7.87,45.33,45.33,0,0,1-13.37-23.16.36.36,0,0,1,.13-.36.33.33,0,0,1,.38,0c15.92,9.58,24.07,23.4,27.41,29.36a55.64,55.64,0,0,1-2.7-12.68A64.68,64.68,0,0,1,321,104.06a.34.34,0,0,1,.64,0A64.63,64.63,0,0,1,326,133.93a55.93,55.93,0,0,1-2.7,12.68c3.34-5.95,11.49-19.77,27.41-29.35a.33.33,0,0,1,.38,0,.36.36,0,0,1,.13.36,45.33,45.33,0,0,1-13.37,23.16,55.6,55.6,0,0,1-10.79,7.87,61.7,61.7,0,0,1,21-4.18,40.19,40.19,0,0,1,5,.29.36.36,0,0,1,.29.25.35.35,0,0,1-.11.36C346.71,150.69,339.55,153.38,331.89,153.38Z" fill="#a6c0a0" stroke="#a6c0a0" stroke-miterlimit="10"/><rect x="287.41" y="167.52" width="67.99" height="5.51" rx="1.94" ry="1.94" fill="#2b3036"/><path d="M352.26,176.15l-8.94,42.55a1.13,1.13,0,0,1-1.11.9H300.59a1.12,1.12,0,0,1-1.1-.9l-8.94-42.55a1.14,1.14,0,0,1,1.1-1.37h59.5A1.14,1.14,0,0,1,352.26,176.15Z" fill="#2b3036"/><polyline points="108.53 234.2 108.53 244.68 322.95 244.68 322.95 234.2" fill="none" stroke="#a6c0a0" stroke-linecap="round" stroke-linejoin="round" stroke-width="3"/><polyline points="217.19 244.68 217.19 328.37 48.2 328.37 48.2 412.24" fill="none" stroke="#a6c0a0" stroke-linecap="round" stroke-linejoin="round" stroke-width="3"/><polyline points="364.37 422.18 364.37 328.37 217.19 328.37 217.19 422.42" fill="none" stroke="#a6c0a0" stroke-linecap="round" stroke-linejoin="round" stroke-width="3"/><circle cx="217.24" cy="328.3" r="31.41" fill="#a6c0a0"/><path d="M215.88,341.14c-2.62,0-5.12.07-7.57,0a3,3,0,0,1-2.61-1.46c-1.1-2.06-9.18-17.91-9.5-18.54-.06-.13,0-.55.49-.55,2.15,0,4.31,0,6.46,0a3.38,3.38,0,0,1,3.18,1.62c.8,1.48,9.49,18.71,9.56,19" fill="#2b3036"/><path d="M230.33,341.14c-2.62,0-5.12.07-7.57,0a3,3,0,0,1-2.61-1.46c-1.1-2.06-9.18-17.91-9.5-18.54-.06-.13,0-.55.49-.55,2.15,0,4.31,0,6.46,0a3.38,3.38,0,0,1,3.18,1.62c.8,1.48,9.49,18.71,9.56,19" fill="#2b3036"/><path d="M238.71,320.64h0c-.31-.06-2.36-.08-4.4-.09a3.53,3.53,0,0,0-3.28,2.05c-1,1.9-2,3.83-2.93,5.75a.47.47,0,0,0,.4.7c.31.06,2.36.08,4.4.09a3.53,3.53,0,0,0,3.28-2c1-1.9,2-3.84,2.93-5.75a.47.47,0,0,0-.4-.7" fill="#2b3036"/></svg>