<svg id="Layer_1" data-name="Layer 1" xmlns="http://www.w3.org/2000/svg" viewBox="0 0 1818 1186"><title>about-us-graphic-3</title><circle cx="720.37" cy="660.24" r="201.64" fill="#a6c0a0"/><path d="M711.63,742.67c-16.83,0-32.86.48-48.62-.21-7.39-.32-13.68-3.65-16.73-9.34-7.08-13.25-58.9-115-61-119-.41-.8-.32-3.51,3.12-3.51,13.82,0,27.66-.14,41.44,0,9.62.1,16.73,3.57,20.41,10.41,5.14,9.53,60.93,120.1,61.38,121.67Z" fill="#2c3136"/><path d="M804.41,742.67c-16.83,0-32.86.48-48.62-.21-7.39-.32-13.68-3.65-16.73-9.34-7.08-13.25-58.9-115-61-119-.42-.8-.32-3.51,3.12-3.51,13.82,0,27.65-.14,41.44,0,9.62.1,16.73,3.57,20.42,10.41,5.14,9.53,60.93,120.1,61.38,121.67Z" fill="#2c3136"/><path d="M858.17,611.08h0c-2-.35-15.16-.52-28.26-.55-9.4,0-16.55,4.64-21,13.17-6.42,12.21-12.53,24.62-18.79,36.93-1.56,3.07,1.46,4.46,2.55,4.48,2,.35,15.16.52,28.26.55,9.4,0,16.55-4.63,21-13.16,6.42-12.22,12.53-24.62,18.79-36.93,1.56-3.07-1.46-4.46-2.55-4.48Z" fill="#2c3136"/><path d="M219.94,753.08a75.38,75.38,0,0,1-12.06-1c8.38,3.11,21.95,9.43,33.05,22.82a.76.76,0,0,1,.07.92.77.77,0,0,1-.87.34c-13.28-3.32-24.08-7.81-32.16-13.37A42.65,42.65,0,0,1,197.47,753c-.14,3.62.14,12.84.3,17.69.18,5.58.18,5.58,0,5.86a2.93,2.93,0,0,1-2.13,1.08,3.48,3.48,0,0,1-2.08-1c-.23-.3-.23-.3,0-6.34.16-4.74.43-13.76.3-17.33a42.22,42.22,0,0,1-10.51,9.84c-8.06,5.56-18.88,10-32.16,13.37a.78.78,0,0,1-.87-.34.76.76,0,0,1,.07-.92c11.12-13.39,24.7-19.71,33.07-22.82a75.92,75.92,0,0,1-12.08,1c-17.51,0-33.92-6.16-48.75-18.31a.75.75,0,0,1-.25-.82.79.79,0,0,1,.66-.57,91.45,91.45,0,0,1,11.35-.66c19.46,0,37.4,5.63,48,9.57a127.26,127.26,0,0,1-24.7-18,104,104,0,0,1-30.62-53,.83.83,0,0,1,.32-.82.76.76,0,0,1,.87,0c36.44,21.93,55.07,53.56,62.74,67.2a127.35,127.35,0,0,1-6.18-29C182.59,686,186,663,194.9,640.19a.83.83,0,0,1,.76-.5.8.8,0,0,1,.73.5c8.9,22.75,12.31,45.78,10.14,68.37a128.26,128.26,0,0,1-6.16,29c7.64-13.62,26.3-45.25,62.71-67.18a.76.76,0,0,1,.87,0,.79.79,0,0,1,.32.82,104,104,0,0,1-30.62,53,127.26,127.26,0,0,1-24.7,18c10.57-3.94,28.52-9.57,48-9.57a92,92,0,0,1,11.35.66.85.85,0,0,1,.66.57.76.76,0,0,1-.27.82C253.86,746.92,237.45,753.08,219.94,753.08Z" fill="#a6c0a0"/><path d="M273.29,789.86v3.75a4.43,4.43,0,0,1-4.42,4.44H122.11a4.43,4.43,0,0,1-4.42-4.44v-3.75a4.41,4.41,0,0,1,4.42-4.42H268.87A4.41,4.41,0,0,1,273.29,789.86Z" fill="#2c3136"/><path d="M266.12,805.19l-20.46,97.39a2.59,2.59,0,0,1-2.54,2.06H147.86a2.59,2.59,0,0,1-2.54-2.06l-20.46-97.39a2.61,2.61,0,0,1,2.54-3.14H263.58A2.61,2.61,0,0,1,266.12,805.19Z" fill="#2c3136"/><path d="M1269.53,644.35a173.74,173.74,0,0,1-27.8-2.27c19.31,7.17,50.59,21.74,76.18,52.6a1.75,1.75,0,0,1,.16,2.11,1.78,1.78,0,0,1-2,.79c-30.6-7.65-55.5-18-74.12-30.81-14.09-9.65-21-18.41-24.22-22.69-.32,8.34.32,29.6.69,40.78.42,12.87.42,12.87.05,13.51-.74,1.42-3.53,2.48-4.91,2.48a8,8,0,0,1-4.8-2.22c-.53-.69-.53-.69-.11-14.61.37-10.92,1-31.71.69-39.94-3.22,4.33-10.13,13-24.22,22.69-18.57,12.82-43.52,23.16-74.12,30.81a1.81,1.81,0,0,1-2-.79,1.75,1.75,0,0,1,.16-2.11c25.64-30.86,56.93-45.42,76.23-52.6a175,175,0,0,1-27.86,2.27c-40.36,0-78.19-14.19-112.37-42.21a1.73,1.73,0,0,1-.58-1.9,1.82,1.82,0,0,1,1.53-1.32,210.8,210.8,0,0,1,26.17-1.53c44.84,0,86.21,13,110.58,22.05a293.32,293.32,0,0,1-56.93-41.52c-35.93-33.87-59.67-75-70.59-122.19a1.91,1.91,0,0,1,.74-1.9,1.74,1.74,0,0,1,2-.05c84,50.54,126.93,123.45,144.61,154.9a293.55,293.55,0,0,1-14.24-66.9c-5-52.12,2.85-105.15,23.37-157.64a1.91,1.91,0,0,1,1.74-1.16,1.83,1.83,0,0,1,1.69,1.16c20.52,52.44,28.38,105.51,23.37,157.59a295.64,295.64,0,0,1-14.19,66.9C1242,577.24,1285,504.33,1369,453.79a1.74,1.74,0,0,1,2,.05,1.82,1.82,0,0,1,.74,1.9c-10.92,47.22-34.66,88.32-70.59,122.19a293.32,293.32,0,0,1-56.93,41.52c24.37-9.07,65.74-22.05,110.63-22.05a212,212,0,0,1,26.17,1.53,2,2,0,0,1,1.53,1.32,1.76,1.76,0,0,1-.63,1.9C1347.72,630.16,1309.89,644.35,1269.53,644.35Z" fill="#88987f"/><path d="M1334.28,644.35a173.74,173.74,0,0,1-27.8-2.27c19.31,7.17,50.59,21.74,76.18,52.6a1.75,1.75,0,0,1,.16,2.11,1.78,1.78,0,0,1-2,.79c-30.6-7.65-55.5-18-74.12-30.81-14.09-9.65-21-18.41-24.22-22.69-.32,8.34.32,29.6.69,40.78.42,12.87.42,12.87.05,13.51-.74,1.42-3.53,2.48-4.91,2.48a8,8,0,0,1-4.8-2.22c-.53-.69-.53-.69-.11-14.61.37-10.92,1-31.71.69-39.94-3.22,4.33-10.13,13-24.22,22.69-18.57,12.82-43.52,23.16-74.12,30.81a1.81,1.81,0,0,1-2-.79,1.75,1.75,0,0,1,.16-2.11c25.64-30.86,56.93-45.42,76.23-52.6a175,175,0,0,1-27.86,2.27c-40.36,0-78.19-14.19-112.37-42.21a1.73,1.73,0,0,1-.58-1.9,1.82,1.82,0,0,1,1.53-1.32,210.8,210.8,0,0,1,26.17-1.53c44.84,0,86.21,13,110.58,22.05a293.32,293.32,0,0,1-56.93-41.52c-35.93-33.87-59.67-75-70.59-122.19a1.91,1.91,0,0,1,.74-1.9,1.74,1.74,0,0,1,2-.05c84,50.54,126.93,123.45,144.61,154.9a293.55,293.55,0,0,1-14.24-66.9c-5-52.12,2.85-105.15,23.37-157.64a1.91,1.91,0,0,1,1.74-1.16,1.83,1.83,0,0,1,1.69,1.16c20.52,52.44,28.38,105.51,23.37,157.59a295.64,295.64,0,0,1-14.19,66.9c17.62-31.39,60.62-104.3,144.56-154.84a1.74,1.74,0,0,1,2,.05,1.82,1.82,0,0,1,.74,1.9c-10.92,47.22-34.66,88.32-70.59,122.19A293.32,293.32,0,0,1,1309,619.45c24.37-9.07,65.74-22.05,110.63-22.05a212,212,0,0,1,26.17,1.53,2,2,0,0,1,1.53,1.32,1.76,1.76,0,0,1-.63,1.9C1412.47,630.16,1374.64,644.35,1334.28,644.35Z" fill="#88987f"/><path d="M1392.49,731.9v7.38c0,4.82-4.54,8.73-10.18,8.73H1044c-5.65,0-10.18-3.92-10.18-8.73V731.9c0-4.82,4.54-8.69,10.18-8.69h338.28C1388,723.21,1392.49,727.08,1392.49,731.9Z" fill="#2c3136"/><path d="M1376,764.48,1328.81,989a6,6,0,0,1-5.86,4.75H1103.38a6,6,0,0,1-5.86-4.75l-47.17-224.48a6,6,0,0,1,5.86-7.23h313.91A6,6,0,0,1,1376,764.48Z" fill="#2c3136"/><path d="M1577.35,644.35a173.74,173.74,0,0,1-27.8-2.27c19.31,7.17,50.59,21.74,76.18,52.6a1.75,1.75,0,0,1,.16,2.11,1.78,1.78,0,0,1-2,.79c-30.6-7.65-55.5-18-74.12-30.81-14.09-9.65-21-18.41-24.22-22.69-.32,8.34.32,29.6.69,40.78.42,12.87.42,12.87.05,13.51-.74,1.42-3.53,2.48-4.91,2.48a8,8,0,0,1-4.8-2.22c-.53-.69-.53-.69-.11-14.61.37-10.92,1-31.71.69-39.94-3.22,4.33-10.13,13-24.22,22.69-18.57,12.82-43.52,23.16-74.12,30.81a1.81,1.81,0,0,1-2-.79,1.75,1.75,0,0,1,.16-2.11c25.64-30.86,56.93-45.42,76.23-52.6a175,175,0,0,1-27.86,2.27c-40.36,0-78.19-14.19-112.37-42.21a1.73,1.73,0,0,1-.58-1.9,1.82,1.82,0,0,1,1.53-1.32,210.8,210.8,0,0,1,26.17-1.53c44.84,0,86.21,13,110.58,22.05a293.32,293.32,0,0,1-56.93-41.52c-35.93-33.87-59.67-75-70.59-122.19a1.91,1.91,0,0,1,.74-1.9,1.74,1.74,0,0,1,2-.05c84,50.54,126.93,123.45,144.61,154.9a293.55,293.55,0,0,1-14.24-66.9c-5-52.12,2.85-105.15,23.37-157.64a1.91,1.91,0,0,1,1.74-1.16,1.83,1.83,0,0,1,1.69,1.16c20.52,52.44,28.38,105.51,23.37,157.59a295.64,295.64,0,0,1-14.19,66.9c17.62-31.39,60.62-104.3,144.56-154.84a1.74,1.74,0,0,1,2,.05,1.82,1.82,0,0,1,.74,1.9c-10.92,47.22-34.66,88.32-70.59,122.19A293.32,293.32,0,0,1,1552,619.45c24.37-9.07,65.74-22.05,110.63-22.05a212,212,0,0,1,26.17,1.53,2,2,0,0,1,1.53,1.32,1.76,1.76,0,0,1-.63,1.9C1655.53,630.16,1617.71,644.35,1577.35,644.35Z" fill="#88987f"/><path d="M1512.6,644.35a173.74,173.74,0,0,1-27.8-2.27c19.31,7.17,50.59,21.74,76.18,52.6a1.75,1.75,0,0,1,.16,2.11,1.78,1.78,0,0,1-2,.79c-30.6-7.65-55.5-18-74.12-30.81-14.09-9.65-21-18.41-24.22-22.69-.32,8.34.32,29.6.69,40.78.42,12.87.42,12.87.05,13.51-.74,1.42-3.53,2.48-4.91,2.48a8,8,0,0,1-4.8-2.22c-.53-.69-.53-.69-.11-14.61.37-10.92,1-31.71.69-39.94-3.22,4.33-10.13,13-24.22,22.69-18.57,12.82-43.52,23.16-74.12,30.81a1.81,1.81,0,0,1-2-.79,1.75,1.75,0,0,1,.16-2.11c25.64-30.86,56.93-45.42,76.23-52.6a175,175,0,0,1-27.86,2.27c-40.36,0-78.19-14.19-112.37-42.21a1.73,1.73,0,0,1-.58-1.9,1.82,1.82,0,0,1,1.53-1.32,210.8,210.8,0,0,1,26.17-1.53c44.84,0,86.21,13,110.58,22.05A293.32,293.32,0,0,1,1369,577.93c-35.93-33.87-59.67-75-70.59-122.19a1.91,1.91,0,0,1,.74-1.9,1.74,1.74,0,0,1,2-.05c84,50.54,126.93,123.45,144.61,154.9a293.55,293.55,0,0,1-14.24-66.9c-5-52.12,2.85-105.15,23.37-157.64a1.91,1.91,0,0,1,1.74-1.16,1.83,1.83,0,0,1,1.69,1.16c20.52,52.44,28.38,105.51,23.37,157.59a295.64,295.64,0,0,1-14.19,66.9c17.62-31.39,60.62-104.3,144.56-154.84a1.74,1.74,0,0,1,2,.05,1.82,1.82,0,0,1,.74,1.9c-10.92,47.22-34.66,88.32-70.59,122.19a293.32,293.32,0,0,1-56.93,41.52c24.37-9.07,65.74-22.05,110.63-22.05a212,212,0,0,1,26.17,1.53,2,2,0,0,1,1.53,1.32,1.76,1.76,0,0,1-.63,1.9C1590.78,630.16,1553,644.35,1512.6,644.35Z" fill="#88987f"/><path d="M1700.31,732.32v7.19c0,4.69-4.54,8.5-10.18,8.5H1351.85c-5.65,0-10.18-3.81-10.18-8.5v-7.19c0-4.69,4.54-8.46,10.18-8.46h338.28C1695.77,723.86,1700.31,727.63,1700.31,732.32Z" fill="#2c3136"/><path d="M1683.79,764.48,1636.63,989a6,6,0,0,1-5.86,4.75H1411.2a6,6,0,0,1-5.86-4.75l-47.17-224.48a6,6,0,0,1,5.86-7.23h313.91A6,6,0,0,1,1683.79,764.48Z" fill="#2c3136"/><path d="M1482.38,567.64a228,228,0,0,1-36.48-3c25.34,9.42,66.39,28.52,100,69a2.29,2.29,0,0,1,.21,2.77,2.33,2.33,0,0,1-2.63,1c-40.15-10-72.83-23.61-97.27-40.43-18.48-12.67-27.55-24.16-31.78-29.77-.42,10.94.42,38.84.9,53.52.55,16.89.55,16.89.07,17.72-1,1.87-4.64,3.25-6.44,3.25a10.54,10.54,0,0,1-6.3-2.91c-.69-.9-.69-.9-.14-19.18.48-14.33,1.32-41.61.9-52.41-4.22,5.68-13.29,17.1-31.78,29.77-24.37,16.82-57.12,30.39-97.27,40.43a2.37,2.37,0,0,1-2.63-1,2.29,2.29,0,0,1,.21-2.77c33.65-40.5,74.7-59.61,100-69a229.64,229.64,0,0,1-36.55,3c-53,0-102.6-18.62-147.46-55.38a2.27,2.27,0,0,1-.76-2.49,2.38,2.38,0,0,1,2-1.73,276.62,276.62,0,0,1,34.34-2c58.85,0,113.12,17,145.11,28.94a384.91,384.91,0,0,1-74.7-54.48c-47.15-44.45-78.3-98.38-92.63-160.34a2.51,2.51,0,0,1,1-2.49,2.29,2.29,0,0,1,2.63-.07c110.22,66.32,166.57,162,189.76,203.26A385.21,385.21,0,0,1,1376,433.05c-6.58-68.4,3.74-138,30.67-206.86a2.5,2.5,0,0,1,2.28-1.52,2.41,2.41,0,0,1,2.22,1.52c26.93,68.82,37.25,138.46,30.67,206.79a388,388,0,0,1-18.62,87.78c23.12-41.19,79.55-136.87,189.69-203.19a2.29,2.29,0,0,1,2.63.07,2.38,2.38,0,0,1,1,2.49c-14.33,62-45.48,115.89-92.63,160.34a384.91,384.91,0,0,1-74.7,54.48c32-11.91,86.26-28.94,145.18-28.94a278.22,278.22,0,0,1,34.34,2,2.57,2.57,0,0,1,2,1.73,2.31,2.31,0,0,1-.83,2.49C1585,549,1535.34,567.64,1482.38,567.64Z" fill="#9cb396"/><path d="M1385.26,567.64a228,228,0,0,1-36.48-3c25.34,9.42,66.39,28.52,100,69a2.29,2.29,0,0,1,.21,2.77,2.33,2.33,0,0,1-2.63,1c-40.15-10-72.83-23.61-97.27-40.43-18.48-12.67-27.55-24.16-31.78-29.77-.42,10.94.42,38.84.9,53.52.55,16.89.55,16.89.07,17.72-1,1.87-4.64,3.25-6.44,3.25a10.54,10.54,0,0,1-6.3-2.91c-.69-.9-.69-.9-.14-19.18.48-14.33,1.32-41.61.9-52.41-4.22,5.68-13.29,17.1-31.78,29.77-24.37,16.82-57.12,30.39-97.27,40.43a2.37,2.37,0,0,1-2.63-1,2.29,2.29,0,0,1,.21-2.77c33.65-40.5,74.7-59.61,100-69a229.64,229.64,0,0,1-36.55,3c-53,0-102.6-18.62-147.46-55.38a2.27,2.27,0,0,1-.76-2.49,2.38,2.38,0,0,1,2-1.73,276.62,276.62,0,0,1,34.34-2c58.85,0,113.12,17,145.11,28.94a384.91,384.91,0,0,1-74.7-54.48c-47.15-44.45-78.3-98.38-92.63-160.34a2.51,2.51,0,0,1,1-2.49,2.29,2.29,0,0,1,2.63-.07c110.22,66.32,166.57,162,189.76,203.26a385.21,385.21,0,0,1-18.69-87.78c-6.58-68.4,3.74-138,30.67-206.86a2.5,2.5,0,0,1,2.28-1.52,2.41,2.41,0,0,1,2.22,1.52c26.93,68.82,37.25,138.46,30.67,206.79a388,388,0,0,1-18.62,87.78c23.12-41.19,79.55-136.87,189.69-203.19a2.29,2.29,0,0,1,2.63.07,2.38,2.38,0,0,1,1,2.49c-14.33,62-45.48,115.89-92.63,160.34A384.91,384.91,0,0,1,1352,535c32-11.91,86.26-28.94,145.18-28.94a278.22,278.22,0,0,1,34.34,2,2.57,2.57,0,0,1,2,1.73,2.31,2.31,0,0,1-.83,2.49C1487.86,549,1438.22,567.64,1385.26,567.64Z" fill="#9cb396"/><path d="M1595.17,658.25v7.34c0,4.79-6,8.68-13.36,8.68H1137.9c-7.41,0-13.36-3.89-13.36-8.68v-7.34c0-4.79,6-8.64,13.36-8.64h443.91C1589.22,649.61,1595.17,653.46,1595.17,658.25Z" fill="#2c3136"/><path d="M1573.5,692.9l-61.89,294.58a7.85,7.85,0,0,1-7.68,6.23H1215.79a7.85,7.85,0,0,1-7.68-6.23L1146.21,692.9a7.91,7.91,0,0,1,7.68-9.48h411.92A7.91,7.91,0,0,1,1573.5,692.9Z" fill="#2c3136"/><path d="M1433.82,535.26a228,228,0,0,1-36.48-3c25.34,9.42,66.39,28.52,100,69a2.29,2.29,0,0,1,.21,2.77,2.33,2.33,0,0,1-2.63,1c-40.15-10-72.83-23.61-97.27-40.43-18.48-12.67-27.55-24.16-31.78-29.77-.42,10.94.42,38.84.9,53.52.55,16.89.55,16.89.07,17.72-1,1.87-4.64,3.25-6.44,3.25a10.54,10.54,0,0,1-6.3-2.91c-.69-.9-.69-.9-.14-19.18.48-14.33,1.32-41.61.9-52.41-4.22,5.68-13.29,17.1-31.78,29.77-24.37,16.82-57.12,30.39-97.27,40.43a2.37,2.37,0,0,1-2.63-1,2.29,2.29,0,0,1,.21-2.77c33.65-40.5,74.7-59.61,100-69a229.64,229.64,0,0,1-36.55,3c-53,0-102.6-18.62-147.46-55.38a2.27,2.27,0,0,1-.76-2.49,2.38,2.38,0,0,1,2-1.73,276.62,276.62,0,0,1,34.34-2c58.85,0,113.12,17,145.11,28.94a384.91,384.91,0,0,1-74.7-54.48c-47.15-44.45-78.3-98.38-92.63-160.34a2.51,2.51,0,0,1,1-2.49,2.29,2.29,0,0,1,2.63-.07c110.22,66.32,166.57,162,189.76,203.26a385.21,385.21,0,0,1-18.69-87.78c-6.58-68.4,3.74-138,30.67-206.86a2.5,2.5,0,0,1,2.28-1.52,2.41,2.41,0,0,1,2.22,1.52c26.93,68.82,37.25,138.46,30.67,206.79a388,388,0,0,1-18.62,87.78c23.12-41.19,79.55-136.87,189.69-203.19a2.29,2.29,0,0,1,2.63.07,2.38,2.38,0,0,1,1,2.49c-14.33,62-45.48,115.89-92.63,160.34a384.91,384.91,0,0,1-74.7,54.48c32-11.91,86.26-28.94,145.18-28.94a278.22,278.22,0,0,1,34.34,2,2.57,2.57,0,0,1,2,1.73,2.31,2.31,0,0,1-.83,2.49C1536.42,516.64,1486.78,535.26,1433.82,535.26Z" fill="#a6c0a0"/><line x1="230.92" y1="738.54" x2="540.29" y2="738.54" fill="none" stroke="#a6c0a0" stroke-miterlimit="10" stroke-width="5.44"/><line x1="851.21" y1="534.43" x2="1321.27" y2="534.43" fill="none" stroke="#a6c0a0" stroke-miterlimit="10" stroke-width="5.44"/></svg>