<svg id="Layer_1" data-name="Layer 1" xmlns="http://www.w3.org/2000/svg" viewBox="0 0 1818 1186"><title>about-us-graphic-2</title><circle cx="908.94" cy="617.08" r="80.36" fill="#a5c09f"/><path d="M905.45,649.93c-6.71,0-13.09.19-19.37-.08a7.66,7.66,0,0,1-6.67-3.72c-2.82-5.28-23.47-45.81-24.31-47.43-.16-.32-.13-1.4,1.24-1.4,5.51,0,11-.06,16.52,0,3.83,0,6.67,1.42,8.13,4.15,2,3.8,24.28,47.86,24.46,48.49Z" fill="#2b3036"/><path d="M942.43,649.93c-6.71,0-13.09.19-19.37-.08a7.66,7.66,0,0,1-6.67-3.72c-2.82-5.28-23.47-45.81-24.31-47.43-.17-.32-.13-1.4,1.24-1.4,5.51,0,11-.06,16.51,0,3.83,0,6.67,1.42,8.14,4.15,2,3.8,24.28,47.86,24.46,48.49Z" fill="#2b3036"/><path d="M963.85,597.49h0c-.8-.14-6-.21-11.26-.22a9,9,0,0,0-8.38,5.25c-2.56,4.87-5,9.81-7.49,14.72a1.19,1.19,0,0,0,1,1.78c.8.14,6,.21,11.26.22a9,9,0,0,0,8.38-5.24c2.56-4.87,5-9.81,7.49-14.72a1.19,1.19,0,0,0-1-1.78Z" fill="#2b3036"/><path d="M919.39,260.9a32.21,32.21,0,0,1-5.16-.42,33.08,33.08,0,0,1,14.12,9.75.32.32,0,0,1,0,.39.33.33,0,0,1-.37.15,42.52,42.52,0,0,1-13.74-5.71,18.23,18.23,0,0,1-4.49-4.21c-.06,1.55.06,5.49.13,7.56.08,2.39.08,2.39,0,2.5a1.25,1.25,0,0,1-.91.46,1.49,1.49,0,0,1-.89-.41c-.1-.13-.1-.13,0-2.71.07-2,.19-5.88.13-7.4a18,18,0,0,1-4.49,4.21A42.43,42.43,0,0,1,890,270.77a.34.34,0,0,1-.37-.15.32.32,0,0,1,0-.39,33.16,33.16,0,0,1,14.13-9.75,31.7,31.7,0,0,1-26-7.4.32.32,0,0,1-.11-.35.34.34,0,0,1,.28-.24,39.08,39.08,0,0,1,4.85-.28,60.46,60.46,0,0,1,20.5,4.09,54.39,54.39,0,0,1-10.55-7.7,44.42,44.42,0,0,1-13.09-22.65.35.35,0,0,1,.14-.35.32.32,0,0,1,.37,0c15.57,9.37,23.54,22.89,26.81,28.72a54.43,54.43,0,0,1-2.64-12.4,63.13,63.13,0,0,1,4.33-29.23.35.35,0,0,1,.32-.22.34.34,0,0,1,.31.22,63.09,63.09,0,0,1,4.33,29.22,54.81,54.81,0,0,1-2.63,12.4c3.27-5.82,11.24-19.34,26.8-28.71a.32.32,0,0,1,.37,0,.34.34,0,0,1,.14.35,44.42,44.42,0,0,1-13.09,22.65,54.39,54.39,0,0,1-10.55,7.7,60.47,60.47,0,0,1,20.51-4.09,39.31,39.31,0,0,1,4.85.28.36.36,0,0,1,.28.24.33.33,0,0,1-.12.35A32.33,32.33,0,0,1,919.39,260.9Z" fill="#a5c09f"/><path d="M942.18,276.62v1.6a1.89,1.89,0,0,1-1.89,1.9H877.58a1.89,1.89,0,0,1-1.89-1.9v-1.6a1.88,1.88,0,0,1,1.89-1.89H940.3A1.88,1.88,0,0,1,942.18,276.62Z" fill="#ffeb36"/><path d="M939.12,283.18l-8.74,41.62a1.11,1.11,0,0,1-1.09.88H888.58a1.11,1.11,0,0,1-1.09-.88l-8.74-41.62a1.12,1.12,0,0,1,1.09-1.34H938A1.12,1.12,0,0,1,939.12,283.18Z" fill="#ffeb36"/><path d="M816,260.9a32.45,32.45,0,0,1-5.16-.42A33.16,33.16,0,0,1,825,270.24a.32.32,0,0,1,0,.39.34.34,0,0,1-.37.15,42.43,42.43,0,0,1-13.74-5.71,18.23,18.23,0,0,1-4.49-4.21c-.07,1.55.06,5.49.13,7.56.08,2.39.08,2.39,0,2.5a1.27,1.27,0,0,1-.92.46,1.49,1.49,0,0,1-.88-.41c-.1-.13-.1-.13,0-2.71.07-2,.19-5.88.13-7.4a18,18,0,0,1-4.49,4.21,42.52,42.52,0,0,1-13.74,5.71.33.33,0,0,1-.37-.15.32.32,0,0,1,0-.39,33,33,0,0,1,14.13-9.75,31.7,31.7,0,0,1-26-7.4.33.33,0,0,1-.12-.35.36.36,0,0,1,.28-.24,39.31,39.31,0,0,1,4.85-.28A60.47,60.47,0,0,1,800,256.29a54.39,54.39,0,0,1-10.55-7.7,44.42,44.42,0,0,1-13.09-22.65.34.34,0,0,1,.14-.35.32.32,0,0,1,.37,0c15.56,9.37,23.54,22.89,26.8,28.72a55.06,55.06,0,0,1-2.63-12.4,63.13,63.13,0,0,1,4.33-29.23.34.34,0,0,1,.31-.22.35.35,0,0,1,.32.22,63.22,63.22,0,0,1,4.33,29.22,54.18,54.18,0,0,1-2.64,12.4c3.28-5.82,11.24-19.34,26.81-28.71a.32.32,0,0,1,.37,0,.34.34,0,0,1,.14.35,44.42,44.42,0,0,1-13.09,22.65,54.39,54.39,0,0,1-10.55,7.7,60.46,60.46,0,0,1,20.5-4.09,39.09,39.09,0,0,1,4.85.28.34.34,0,0,1,.28.24.32.32,0,0,1-.11.35A32.33,32.33,0,0,1,816,260.9Z" fill="#a5c09f"/><path d="M838.64,276.62v1.6a1.89,1.89,0,0,1-1.89,1.9H774a1.89,1.89,0,0,1-1.89-1.9v-1.6a1.88,1.88,0,0,1,1.89-1.89h62.72A1.88,1.88,0,0,1,838.64,276.62Z" fill="#ffeb36"/><path d="M835.57,283.18l-8.74,41.62a1.11,1.11,0,0,1-1.09.88H785a1.11,1.11,0,0,1-1.09-.88l-8.74-41.62a1.12,1.12,0,0,1,1.09-1.34h58.2A1.12,1.12,0,0,1,835.57,283.18Z" fill="#ffeb36"/><path d="M1022.74,260.9a32.21,32.21,0,0,1-5.16-.42,33.16,33.16,0,0,1,14.13,9.75.34.34,0,0,1,0,.39.33.33,0,0,1-.37.15,42.62,42.62,0,0,1-13.74-5.71,18.23,18.23,0,0,1-4.49-4.21c-.06,1.55.07,5.49.14,7.56.07,2.39.07,2.39,0,2.5a1.29,1.29,0,0,1-.92.46,1.49,1.49,0,0,1-.89-.41c-.1-.13-.1-.13,0-2.71.07-2,.2-5.88.13-7.4a17.85,17.85,0,0,1-4.49,4.21,42.43,42.43,0,0,1-13.74,5.71.32.32,0,0,1-.36-.15.34.34,0,0,1,0-.39,33.16,33.16,0,0,1,14.13-9.75,31.7,31.7,0,0,1-26-7.4.34.34,0,0,1-.11-.35.35.35,0,0,1,.28-.24,39.2,39.2,0,0,1,4.85-.28,60.41,60.41,0,0,1,20.5,4.09,54.39,54.39,0,0,1-10.55-7.7A44.34,44.34,0,0,1,983,225.93a.35.35,0,0,1,.13-.35.32.32,0,0,1,.37,0c15.57,9.37,23.54,22.89,26.81,28.72a54.43,54.43,0,0,1-2.64-12.4,63.27,63.27,0,0,1,4.34-29.23.34.34,0,0,1,.63,0,63.22,63.22,0,0,1,4.34,29.22,54.71,54.71,0,0,1-2.64,12.4c3.27-5.82,11.24-19.34,26.81-28.71a.32.32,0,0,1,.37,0,.35.35,0,0,1,.13.35,44.34,44.34,0,0,1-13.08,22.65,54.39,54.39,0,0,1-10.55,7.7,60.36,60.36,0,0,1,20.5-4.09,39.31,39.31,0,0,1,4.85.28.35.35,0,0,1,.28.24.34.34,0,0,1-.11.35C1037.24,258.27,1030.23,260.9,1022.74,260.9Z" fill="#a5c09f"/><path d="M1042.67,283.18l-8.74,41.62a1.1,1.1,0,0,1-1.09.88H992.12a1.1,1.1,0,0,1-1.08-.88l-8.74-41.62a1.11,1.11,0,0,1,1.08-1.34h58.2A1.11,1.11,0,0,1,1042.67,283.18Z" fill="#ffeb36"/><path d="M1045.74,276.62v1.6a1.9,1.9,0,0,1-1.9,1.9H981.13a1.9,1.9,0,0,1-1.9-1.9v-1.6a1.89,1.89,0,0,1,1.9-1.89h62.71A1.89,1.89,0,0,1,1045.74,276.62Z" fill="#ffeb36"/><circle cx="908.94" cy="269.06" r="173.06" fill="none" stroke="#a5c09f" stroke-miterlimit="10" stroke-width="4.16"/><path d="M418.06,260.9a32.21,32.21,0,0,1-5.16-.42A33.08,33.08,0,0,1,427,270.24a.32.32,0,0,1,0,.39.33.33,0,0,1-.37.15,42.52,42.52,0,0,1-13.74-5.71,18.23,18.23,0,0,1-4.49-4.21c-.06,1.55.06,5.49.13,7.56.08,2.39.08,2.39,0,2.5a1.25,1.25,0,0,1-.91.46,1.49,1.49,0,0,1-.89-.41c-.1-.13-.1-.13,0-2.71.07-2,.19-5.88.13-7.4a18,18,0,0,1-4.49,4.21,42.43,42.43,0,0,1-13.74,5.71.34.34,0,0,1-.37-.15.32.32,0,0,1,0-.39,33.16,33.16,0,0,1,14.13-9.75,31.7,31.7,0,0,1-26-7.4.32.32,0,0,1-.11-.35.34.34,0,0,1,.28-.24,39.08,39.08,0,0,1,4.85-.28,60.46,60.46,0,0,1,20.5,4.09,54.39,54.39,0,0,1-10.55-7.7,44.42,44.42,0,0,1-13.09-22.65.35.35,0,0,1,.14-.35.32.32,0,0,1,.37,0c15.57,9.37,23.54,22.89,26.81,28.72a54.43,54.43,0,0,1-2.64-12.4,63.13,63.13,0,0,1,4.33-29.23.35.35,0,0,1,.32-.22.34.34,0,0,1,.31.22,63.09,63.09,0,0,1,4.33,29.22,54.81,54.81,0,0,1-2.63,12.4c3.27-5.82,11.24-19.34,26.8-28.71a.32.32,0,0,1,.37,0,.34.34,0,0,1,.14.35,44.42,44.42,0,0,1-13.09,22.65,54.39,54.39,0,0,1-10.55,7.7,60.47,60.47,0,0,1,20.51-4.09,39.31,39.31,0,0,1,4.85.28.36.36,0,0,1,.28.24.33.33,0,0,1-.12.35A32.33,32.33,0,0,1,418.06,260.9Z" fill="#a5c09f"/><rect x="374.36" y="274.74" width="66.5" height="5.39" rx="1.89" ry="1.89" fill="#6b141b"/><path d="M437.8,283.18l-8.74,41.62a1.11,1.11,0,0,1-1.09.88H387.26a1.11,1.11,0,0,1-1.09-.88l-8.74-41.62a1.12,1.12,0,0,1,1.09-1.34h58.2A1.12,1.12,0,0,1,437.8,283.18Z" fill="#6b141b"/><path d="M314.71,260.9a32.45,32.45,0,0,1-5.16-.42,33.16,33.16,0,0,1,14.13,9.75.32.32,0,0,1,0,.39.34.34,0,0,1-.37.15,42.43,42.43,0,0,1-13.74-5.71,18.23,18.23,0,0,1-4.49-4.21c-.07,1.55.06,5.49.13,7.56.08,2.39.08,2.39,0,2.5a1.27,1.27,0,0,1-.92.46,1.49,1.49,0,0,1-.88-.41c-.1-.13-.1-.13,0-2.71.07-2,.19-5.88.13-7.4a18,18,0,0,1-4.49,4.21,42.52,42.52,0,0,1-13.74,5.71.33.33,0,0,1-.37-.15.32.32,0,0,1,0-.39,33,33,0,0,1,14.13-9.75,31.7,31.7,0,0,1-26-7.4.33.33,0,0,1-.12-.35.36.36,0,0,1,.28-.24,39.31,39.31,0,0,1,4.85-.28,60.47,60.47,0,0,1,20.51,4.09,54.39,54.39,0,0,1-10.55-7.7A44.42,44.42,0,0,1,275,225.93a.34.34,0,0,1,.14-.35.32.32,0,0,1,.37,0c15.56,9.37,23.54,22.89,26.8,28.72a55.06,55.06,0,0,1-2.63-12.4A63.13,63.13,0,0,1,304,212.66a.34.34,0,0,1,.31-.22.35.35,0,0,1,.32.22A63.22,63.22,0,0,1,309,241.88a54.18,54.18,0,0,1-2.64,12.4c3.28-5.82,11.24-19.34,26.81-28.71a.32.32,0,0,1,.37,0,.34.34,0,0,1,.14.35,44.42,44.42,0,0,1-13.09,22.65,54.39,54.39,0,0,1-10.55,7.7,60.46,60.46,0,0,1,20.5-4.09,39.09,39.09,0,0,1,4.85.28.34.34,0,0,1,.28.24.32.32,0,0,1-.11.35A32.33,32.33,0,0,1,314.71,260.9Z" fill="#a5c09f"/><path d="M337.31,276.62v1.6a1.89,1.89,0,0,1-1.89,1.9H272.7a1.89,1.89,0,0,1-1.89-1.9v-1.6a1.88,1.88,0,0,1,1.89-1.89h62.72A1.88,1.88,0,0,1,337.31,276.62Z" fill="#6b141b"/><path d="M334.25,283.18,325.5,324.8a1.11,1.11,0,0,1-1.09.88H283.71a1.11,1.11,0,0,1-1.09-.88l-8.74-41.62a1.12,1.12,0,0,1,1.09-1.34h58.2A1.12,1.12,0,0,1,334.25,283.18Z" fill="#6b141b"/><path d="M521.42,260.9a32.21,32.21,0,0,1-5.16-.42,33.16,33.16,0,0,1,14.13,9.75.34.34,0,0,1,0,.39.33.33,0,0,1-.37.15,42.62,42.62,0,0,1-13.74-5.71,18.23,18.23,0,0,1-4.49-4.21c-.06,1.55.07,5.49.14,7.56.07,2.39.07,2.39,0,2.5a1.29,1.29,0,0,1-.92.46,1.49,1.49,0,0,1-.89-.41c-.1-.13-.1-.13,0-2.71.07-2,.2-5.88.13-7.4a17.85,17.85,0,0,1-4.49,4.21A42.43,42.43,0,0,1,492,270.77a.32.32,0,0,1-.36-.15.34.34,0,0,1,0-.39,33.16,33.16,0,0,1,14.13-9.75,31.7,31.7,0,0,1-26-7.4.34.34,0,0,1-.11-.35.35.35,0,0,1,.28-.24,39.2,39.2,0,0,1,4.85-.28,60.41,60.41,0,0,1,20.5,4.09,54.39,54.39,0,0,1-10.55-7.7,44.34,44.34,0,0,1-13.08-22.65.35.35,0,0,1,.13-.35.32.32,0,0,1,.37,0c15.57,9.37,23.54,22.89,26.81,28.72a54.43,54.43,0,0,1-2.64-12.4,63.27,63.27,0,0,1,4.34-29.23.34.34,0,0,1,.63,0,63.22,63.22,0,0,1,4.34,29.22,54.71,54.71,0,0,1-2.64,12.4c3.27-5.82,11.24-19.34,26.81-28.71a.32.32,0,0,1,.37,0,.35.35,0,0,1,.13.35,44.34,44.34,0,0,1-13.08,22.65,54.39,54.39,0,0,1-10.55,7.7,60.36,60.36,0,0,1,20.5-4.09,39.31,39.31,0,0,1,4.85.28.35.35,0,0,1,.28.24.34.34,0,0,1-.11.35C535.91,258.27,528.91,260.9,521.42,260.9Z" fill="#a5c09f"/><path d="M541.34,283.18,532.6,324.8a1.1,1.1,0,0,1-1.09.88H490.8a1.1,1.1,0,0,1-1.08-.88L481,283.18a1.11,1.11,0,0,1,1.08-1.34h58.2A1.11,1.11,0,0,1,541.34,283.18Z" fill="#6b141b"/><rect x="477.91" y="274.74" width="66.51" height="5.39" rx="1.9" ry="1.9" fill="#6b141b"/><circle cx="407.61" cy="269.06" r="173.06" fill="none" stroke="#a5c09f" stroke-miterlimit="10" stroke-width="4.16"/><path d="M1420.71,260.9a32.21,32.21,0,0,1-5.16-.42,33.08,33.08,0,0,1,14.12,9.75.32.32,0,0,1,0,.39.33.33,0,0,1-.37.15,42.52,42.52,0,0,1-13.74-5.71,18.23,18.23,0,0,1-4.49-4.21c-.06,1.55.06,5.49.13,7.56.08,2.39.08,2.39,0,2.5a1.25,1.25,0,0,1-.91.46,1.49,1.49,0,0,1-.89-.41c-.1-.13-.1-.13,0-2.71.07-2,.19-5.88.13-7.4a18,18,0,0,1-4.49,4.21,42.43,42.43,0,0,1-13.74,5.71.34.34,0,0,1-.37-.15.32.32,0,0,1,0-.39,33.16,33.16,0,0,1,14.13-9.75,31.7,31.7,0,0,1-26-7.4.32.32,0,0,1-.11-.35.34.34,0,0,1,.28-.24,39.08,39.08,0,0,1,4.85-.28,60.46,60.46,0,0,1,20.5,4.09,54.39,54.39,0,0,1-10.55-7.7A44.42,44.42,0,0,1,1381,225.93a.35.35,0,0,1,.14-.35.32.32,0,0,1,.37,0c15.57,9.37,23.54,22.89,26.81,28.72a54.43,54.43,0,0,1-2.64-12.4,63.13,63.13,0,0,1,4.33-29.23.35.35,0,0,1,.32-.22.34.34,0,0,1,.31.22,63.09,63.09,0,0,1,4.33,29.22,54.81,54.81,0,0,1-2.63,12.4c3.27-5.82,11.24-19.34,26.8-28.71a.32.32,0,0,1,.37,0,.34.34,0,0,1,.14.35,44.42,44.42,0,0,1-13.09,22.65,54.39,54.39,0,0,1-10.55,7.7,60.47,60.47,0,0,1,20.51-4.09,39.31,39.31,0,0,1,4.85.28.36.36,0,0,1,.28.24.33.33,0,0,1-.12.35A32.33,32.33,0,0,1,1420.71,260.9Z" fill="#a5c09f"/><path d="M1443.51,276.62v1.6a1.89,1.89,0,0,1-1.89,1.9H1378.9a1.89,1.89,0,0,1-1.89-1.9v-1.6a1.88,1.88,0,0,1,1.89-1.89h62.72A1.88,1.88,0,0,1,1443.51,276.62Z" fill="#2b30ff"/><path d="M1440.45,283.18l-8.74,41.62a1.11,1.11,0,0,1-1.09.88H1389.9a1.11,1.11,0,0,1-1.09-.88l-8.74-41.62a1.12,1.12,0,0,1,1.09-1.34h58.2A1.12,1.12,0,0,1,1440.45,283.18Z" fill="#2b30ff"/><path d="M1317.36,260.9a32.45,32.45,0,0,1-5.16-.42,33.16,33.16,0,0,1,14.13,9.75.32.32,0,0,1,0,.39.34.34,0,0,1-.37.15,42.43,42.43,0,0,1-13.74-5.71,18.23,18.23,0,0,1-4.49-4.21c-.07,1.55.06,5.49.13,7.56.08,2.39.08,2.39,0,2.5a1.27,1.27,0,0,1-.92.46,1.49,1.49,0,0,1-.88-.41c-.1-.13-.1-.13,0-2.71.07-2,.19-5.88.13-7.4a18,18,0,0,1-4.49,4.21,42.52,42.52,0,0,1-13.74,5.71.33.33,0,0,1-.37-.15.32.32,0,0,1,0-.39,33,33,0,0,1,14.13-9.75,31.7,31.7,0,0,1-26-7.4.33.33,0,0,1-.12-.35.36.36,0,0,1,.28-.24,39.31,39.31,0,0,1,4.85-.28,60.47,60.47,0,0,1,20.51,4.09,54.39,54.39,0,0,1-10.55-7.7,44.42,44.42,0,0,1-13.09-22.65.34.34,0,0,1,.14-.35.32.32,0,0,1,.37,0c15.56,9.37,23.54,22.89,26.8,28.72a55.06,55.06,0,0,1-2.63-12.4,63.13,63.13,0,0,1,4.33-29.23.34.34,0,0,1,.31-.22.35.35,0,0,1,.32.22,63.22,63.22,0,0,1,4.33,29.22,54.18,54.18,0,0,1-2.64,12.4c3.28-5.82,11.24-19.34,26.81-28.71a.32.32,0,0,1,.37,0,.34.34,0,0,1,.14.35,44.42,44.42,0,0,1-13.09,22.65,54.39,54.39,0,0,1-10.55,7.7,60.46,60.46,0,0,1,20.5-4.09,39.09,39.09,0,0,1,4.85.28.34.34,0,0,1,.28.24.32.32,0,0,1-.11.35A32.33,32.33,0,0,1,1317.36,260.9Z" fill="#a5c09f"/><path d="M1340,276.62v1.6a1.89,1.89,0,0,1-1.89,1.9h-62.72a1.89,1.89,0,0,1-1.89-1.9v-1.6a1.88,1.88,0,0,1,1.89-1.89h62.72A1.88,1.88,0,0,1,1340,276.62Z" fill="#2b30ff"/><path d="M1336.9,283.18l-8.74,41.62a1.11,1.11,0,0,1-1.09.88h-40.71a1.11,1.11,0,0,1-1.09-.88l-8.74-41.62a1.12,1.12,0,0,1,1.09-1.34h58.2A1.12,1.12,0,0,1,1336.9,283.18Z" fill="#2b30ff"/><path d="M1524.07,260.9a32.21,32.21,0,0,1-5.16-.42,33.16,33.16,0,0,1,14.13,9.75.34.34,0,0,1,0,.39.33.33,0,0,1-.37.15,42.62,42.62,0,0,1-13.74-5.71,18.23,18.23,0,0,1-4.49-4.21c-.06,1.55.07,5.49.14,7.56.07,2.39.07,2.39,0,2.5a1.29,1.29,0,0,1-.92.46,1.49,1.49,0,0,1-.89-.41c-.1-.13-.1-.13,0-2.71.07-2,.2-5.88.13-7.4a17.85,17.85,0,0,1-4.49,4.21,42.43,42.43,0,0,1-13.74,5.71.32.32,0,0,1-.36-.15.34.34,0,0,1,0-.39,33.16,33.16,0,0,1,14.13-9.75,31.7,31.7,0,0,1-26-7.4.34.34,0,0,1-.11-.35.35.35,0,0,1,.28-.24,39.2,39.2,0,0,1,4.85-.28,60.41,60.41,0,0,1,20.5,4.09,54.39,54.39,0,0,1-10.55-7.7,44.34,44.34,0,0,1-13.08-22.65.35.35,0,0,1,.13-.35.32.32,0,0,1,.37,0c15.57,9.37,23.54,22.89,26.81,28.72a54.43,54.43,0,0,1-2.64-12.4,63.27,63.27,0,0,1,4.34-29.23.34.34,0,0,1,.63,0,63.22,63.22,0,0,1,4.34,29.22,54.71,54.71,0,0,1-2.64,12.4c3.27-5.82,11.24-19.34,26.81-28.71a.32.32,0,0,1,.37,0,.35.35,0,0,1,.13.35,44.34,44.34,0,0,1-13.08,22.65,54.39,54.39,0,0,1-10.55,7.7,60.36,60.36,0,0,1,20.5-4.09,39.31,39.31,0,0,1,4.85.28.35.35,0,0,1,.28.24.34.34,0,0,1-.11.35C1538.56,258.27,1531.56,260.9,1524.07,260.9Z" fill="#a5c09f"/><path d="M1544,283.18l-8.74,41.62a1.1,1.1,0,0,1-1.09.88h-40.71a1.1,1.1,0,0,1-1.08-.88l-8.74-41.62a1.11,1.11,0,0,1,1.08-1.34h58.2A1.11,1.11,0,0,1,1544,283.18Z" fill="#2b30ff"/><path d="M1547.06,276.62v1.6a1.9,1.9,0,0,1-1.9,1.9h-62.71a1.9,1.9,0,0,1-1.9-1.9v-1.6a1.89,1.89,0,0,1,1.9-1.89h62.71A1.89,1.89,0,0,1,1547.06,276.62Z" fill="#2b30ff"/><circle cx="1410.26" cy="269.06" r="173.06" fill="none" stroke="#a5c09f" stroke-miterlimit="10" stroke-width="4.16"/><polyline points="407.61 442.12 407.61 485.61 1410.26 485.61 1410.26 442.12" fill="none" stroke="#a5c09f" stroke-miterlimit="10" stroke-width="4.16"/><line x1="908.94" y1="442.12" x2="908.94" y2="542.47" fill="none" stroke="#a5c09f" stroke-miterlimit="10" stroke-width="4.16"/><polyline points="407.61 442.12 407.61 485.61 1410.26 485.61 1410.26 442.12" fill="none" stroke="#a5c09f" stroke-miterlimit="10" stroke-width="4.16"/><line x1="908.94" y1="442.12" x2="908.94" y2="542.47" fill="none" stroke="#a5c09f" stroke-miterlimit="10" stroke-width="4.16"/><line x1="908.94" y1="642.5" x2="908.94" y2="742.84" fill="none" stroke="#a5c09f" stroke-miterlimit="10" stroke-width="4.16"/><polyline points="287.52 788.44 287.52 744.95 1460.3 744.95 1460.3 788.44" fill="none" stroke="#a5c09f" stroke-miterlimit="10" stroke-width="4.16"/><line x1="698.2" y1="788.39" x2="698.2" y2="745.66" fill="none" stroke="#a5c09f" stroke-miterlimit="10" stroke-width="4.16"/><line x1="1048.75" y1="788.39" x2="1048.75" y2="745.66" fill="none" stroke="#a5c09f" stroke-miterlimit="10" stroke-width="4.16"/><line x1="318.27" y1="303.18" x2="509.75" y2="303.18" fill="none" stroke="#6b141b" stroke-miterlimit="10" stroke-width="4.16"/><line x1="805.39" y1="303.18" x2="996.86" y2="303.18" fill="none" stroke="#ffeb36" stroke-miterlimit="10" stroke-width="4.16"/><line x1="1318.25" y1="303.18" x2="1509.73" y2="303.18" fill="none" stroke="#2b30ff" stroke-miterlimit="10" stroke-width="4.16"/><path d="M408,982.58h-34.4v105.87H368V980.94a48.53,48.53,0,0,0-48.55-48.53H245.65a48.54,48.54,0,0,0-48.55,48.53v119H438.18v-87.14A30.2,30.2,0,0,0,408,982.58ZM278.55,1088.45h-39.3V1035.3h39.3Zm46.11,0h-39.3V1035.3h39.3Zm-5.73-96.71a19.72,19.72,0,0,1-13.82,5.72H258.76a19.56,19.56,0,0,1-19-14.88,19.29,19.29,0,0,1-.57-4.67,19.56,19.56,0,0,1,19.56-19.56h46.36a19.56,19.56,0,0,1,13.82,33.39Zm105.23,80.14H387.28v-51h36.88Z" fill="#2b3036"/><rect x="387.28" y="1020.84" width="36.88" height="51.03" fill="#88987f"/><rect x="285.36" y="1035.3" width="39.3" height="53.15" fill="#88987f"/><rect x="239.24" y="1035.3" width="39.3" height="53.15" fill="#88987f"/><path d="M324.66,977.91A19.46,19.46,0,0,1,314,995.32a19.3,19.3,0,0,1-8.85,2.13H258.76a19.56,19.56,0,0,1-19-14.88,19.29,19.29,0,0,1-.57-4.67,19.56,19.56,0,0,1,19.56-19.56h46.36a19.55,19.55,0,0,1,19.55,19.56Z" fill="#88987f"/><path d="M317.64,875.55,301.08,859a1.38,1.38,0,0,1,0-1.95l16.57-16.57,3-3a2.28,2.28,0,0,0,0-3.26l-3-3-9-9a2.29,2.29,0,0,0-3.26,0l-19.6,19.6a1.4,1.4,0,0,1-2,0l-19.58-19.6a2.31,2.31,0,0,0-3.27,0l-12,12a2.31,2.31,0,0,0,0,3.26L268.61,857a1.35,1.35,0,0,1,0,1.95L249,878.58a2.31,2.31,0,0,0,0,3.26l12,12a2.3,2.3,0,0,0,3.27,0l19.58-19.59a1.39,1.39,0,0,1,2,0l19.6,19.59a2.28,2.28,0,0,0,3.26,0l9-9,3-3a2.28,2.28,0,0,0,0-3.26Zm-21.54-14.93a11.62,11.62,0,0,1-7.53,2.83,12,12,0,0,1-1.86-.15,11.8,11.8,0,0,1,5.09,3.53.1.1,0,0,1,0,.14.11.11,0,0,1-.13.06,15.67,15.67,0,0,1-5-2.07,6.39,6.39,0,0,1-1.61-1.52c0,.55,0,1.95,0,2.68,0,.94,0,.94,0,1a.51.51,0,0,1-.31.15.49.49,0,0,1-.33-.17s0,0,0-.91.06-2.18,0-2.73a6.92,6.92,0,0,1-1.63,1.52,15.59,15.59,0,0,1-5,2.07.13.13,0,0,1-.14-.06.1.1,0,0,1,0-.14,11.86,11.86,0,0,1,5.1-3.53,12.37,12.37,0,0,1-1.86.15,11.6,11.6,0,0,1-7.53-2.83.12.12,0,0,1-.06-.13s.06-.08.12-.08a14.12,14.12,0,0,1,1.75-.11,21.89,21.89,0,0,1,7.41,1.48,19.72,19.72,0,0,1-3.82-2.79,15.92,15.92,0,0,1-4.73-8.19.12.12,0,0,1,0-.13.14.14,0,0,1,.14,0,27.6,27.6,0,0,1,9.69,10.38,19.26,19.26,0,0,1-1-4.48A22.94,22.94,0,0,1,284.7,846s.06-.08.12-.08a.16.16,0,0,1,.13.08,22.76,22.76,0,0,1,1.55,10.57,20,20,0,0,1-.94,4.48,27.51,27.51,0,0,1,9.69-10.38.15.15,0,0,1,.15,0s.06.08,0,.13A16.1,16.1,0,0,1,290.7,859a19.37,19.37,0,0,1-3.83,2.79,22,22,0,0,1,7.43-1.48,14.09,14.09,0,0,1,1.75.11.13.13,0,0,1,.12.08A.11.11,0,0,1,296.11,860.62Z" fill="#a5c09f" stroke="#a5c09f" stroke-miterlimit="10" stroke-width="0.64"/><path d="M790.41,982.58v117.35h.92V982.58Z" fill="#2b3036"/><path d="M736.84,964.08h0q.34.33.66.67C737.27,964.52,737.07,964.3,736.84,964.08Zm5.67,71.23v53.15h0V1035.3Z" fill="#2b3036"/><path d="M613.72,932.41v156h-5.56V982.58H543.57v117.35H784.66V932.41Zm-19.24,139.46H557.62v-51h36.86Zm101.92,16.58h-39.3V1035.3h39.3Zm46.13,0H703.24V1035.3h39.29Zm-19.51-91H676.68a19.56,19.56,0,0,1-13.84-5.72c-.44-.44-.86-.91-1.26-1.39a14.07,14.07,0,0,1-1.13-1.52c-.19-.26-.36-.53-.51-.79a8,8,0,0,1-.46-.82,7.59,7.59,0,0,1-.43-.85c-.13-.24-.24-.5-.35-.76,0,0,0-.08-.06-.13a6.63,6.63,0,0,1-.33-.86,13.22,13.22,0,0,1-.57-1.84,8.38,8.38,0,0,1-.22-.94l-.17-1a19.36,19.36,0,0,1,0-6,6.19,6.19,0,0,1,.17-1,8.38,8.38,0,0,1,.22-.94,13,13,0,0,1,.57-1.84,7.43,7.43,0,0,1,.33-.86.78.78,0,0,0,.06-.13c.11-.26.22-.51.35-.76a7.5,7.5,0,0,1,.43-.85,7.36,7.36,0,0,1,.46-.82,8.73,8.73,0,0,1,.51-.79,14.52,14.52,0,0,1,1.13-1.52c.4-.48.82-.94,1.26-1.39s.91-.86,1.39-1.26.75-.58,1.13-.85c.17-.13.35-.26.53-.37.41-.28.83-.53,1.26-.77l.62-.33.9-.43c.42-.19.85-.36,1.28-.52a18.53,18.53,0,0,1,1.84-.57l.86-.2c.29-.07.57-.12.86-.17l.41-.06c.55-.08,1.1-.13,1.68-.16h.19l.9,0H723a19.48,19.48,0,0,1,13.82,5.73h0c.22.22.43.44.64.67s.42.47.62.71a17,17,0,0,1,1.49,2.07c.19.29.36.58.53.87a12.52,12.52,0,0,1,.72,1.44c.12.25.22.49.31.74s.24.62.35.93.3.91.42,1.37.2.79.28,1.2a16.64,16.64,0,0,1,.31,2.28c0,.21,0,.42,0,.64s0,.58,0,.89A19.55,19.55,0,0,1,723,997.45Z" fill="#2b3036"/><rect x="790.41" y="982.58" width="64.59" height="117.35" fill="#2b3036"/><rect x="703.24" y="1035.3" width="39.28" height="53.15" fill="#88987f"/><rect x="742.51" y="1035.3" width="0.01" height="53.15" fill="#88987f"/><rect x="657.1" y="1035.3" width="39.29" height="53.15" fill="#88987f"/><rect x="557.62" y="1020.84" width="36.86" height="51.03" fill="#88987f"/><path d="M742.58,977.91A19.55,19.55,0,0,1,723,997.45H676.68a19.56,19.56,0,0,1-13.84-5.72c-.44-.44-.86-.91-1.26-1.39a17.2,17.2,0,0,1-1.13-1.52l-.51-.79c-.16-.27-.31-.54-.46-.82s-.3-.56-.43-.85-.24-.5-.35-.76c0,0,0-.08-.06-.13-.12-.28-.23-.57-.33-.86a17.91,17.91,0,0,1-.57-1.84c-.08-.31-.15-.63-.22-.94l-.17-1a20.49,20.49,0,0,1,0-6l.17-1c.07-.31.14-.63.22-.94a18.54,18.54,0,0,1,.57-1.84c.1-.29.22-.58.33-.86a.78.78,0,0,0,.06-.13c.11-.26.22-.51.35-.76s.28-.57.43-.85.3-.55.46-.82.34-.53.51-.79a17.2,17.2,0,0,1,1.13-1.52c.4-.48.82-.94,1.26-1.39s.91-.86,1.39-1.26.75-.58,1.13-.85c.17-.13.35-.26.53-.37.41-.28.83-.53,1.26-.77l.62-.33.9-.43c.42-.19.85-.36,1.28-.52a18.53,18.53,0,0,1,1.84-.57l.86-.2.86-.17.41-.06c.55-.08,1.1-.13,1.68-.16h.19l.9,0H723a19.48,19.48,0,0,1,13.82,5.73q.34.33.66.67t.62.71a17,17,0,0,1,1.49,2.07c.19.29.36.58.53.87a12.52,12.52,0,0,1,.72,1.44c.12.25.22.49.31.74s.24.62.35.93.3.91.42,1.37.2.79.28,1.2a16.64,16.64,0,0,1,.31,2.28c0,.21,0,.42,0,.64S742.58,977.6,742.58,977.91Z" fill="#88987f"/><path d="M737.48,964.75q-.32-.35-.66-.67h0C737.07,964.3,737.27,964.52,737.48,964.75Z" fill="#88987f"/><path d="M735.34,847.22H707.63a1.38,1.38,0,0,1-1.37-1.37V818.13a2.3,2.3,0,0,0-2.31-2.31H687a2.3,2.3,0,0,0-2.31,2.31v27.71a1.38,1.38,0,0,1-1.37,1.37H655.59a2.3,2.3,0,0,0-2.31,2.31v17a2.3,2.3,0,0,0,2.31,2.31H683.3a1.38,1.38,0,0,1,1.37,1.37v27.71A2.3,2.3,0,0,0,687,900.2h17a2.3,2.3,0,0,0,2.31-2.31V870.18a1.38,1.38,0,0,1,1.37-1.37h27.71a2.3,2.3,0,0,0,2.31-2.31v-17A2.3,2.3,0,0,0,735.34,847.22Zm-28.56,13.41a11.44,11.44,0,0,1-9.39,2.68,11.88,11.88,0,0,1,5.1,3.53.12.12,0,0,1,0,.14.12.12,0,0,1-.13.06,15.59,15.59,0,0,1-5-2.07,6.69,6.69,0,0,1-1.62-1.51c0,.55,0,2,0,2.73s0,.86,0,.91a.45.45,0,0,1-.33.16.54.54,0,0,1-.33-.15s0,0,0-1c0-.73.06-2.13,0-2.68a6.83,6.83,0,0,1-1.63,1.51,15.52,15.52,0,0,1-5,2.07.13.13,0,0,1-.14-.06.12.12,0,0,1,0-.14,11.84,11.84,0,0,1,5.11-3.53,11.84,11.84,0,0,1-1.88.15,11.63,11.63,0,0,1-7.53-2.83.13.13,0,0,1,0-.13.11.11,0,0,1,.1-.08,14.42,14.42,0,0,1,1.76-.1,21.88,21.88,0,0,1,7.41,1.48,19.43,19.43,0,0,1-3.81-2.78,16.06,16.06,0,0,1-4.74-8.19.15.15,0,0,1,.06-.13.1.1,0,0,1,.13,0,27.43,27.43,0,0,1,9.69,10.38,19.92,19.92,0,0,1-1-4.49A22.81,22.81,0,0,1,695.38,846a.12.12,0,0,1,.12-.08.11.11,0,0,1,.1.08,22.81,22.81,0,0,1,1.57,10.57,19.42,19.42,0,0,1-1,4.49,27.53,27.53,0,0,1,9.69-10.38.12.12,0,0,1,.14,0,.14.14,0,0,1,0,.13,16.12,16.12,0,0,1-4.73,8.19,19.46,19.46,0,0,1-3.82,2.78,21.89,21.89,0,0,1,7.42-1.48,14.23,14.23,0,0,1,1.75.1.11.11,0,0,1,.1.08A.11.11,0,0,1,706.78,860.63Z" fill="#a5c09f" stroke="#a5c09f" stroke-miterlimit="10" stroke-width="0.64"/><circle cx="822.7" cy="1034.2" r="15.21" fill="#88987f"/><path d="M1171.27,982.58h-34.4v105.87h-5.54V980.94a48.53,48.53,0,0,0-48.55-48.53h-73.84a48.54,48.54,0,0,0-48.55,48.53v119h241.08v-87.14A30.2,30.2,0,0,0,1171.27,982.58Zm-129.44,105.87h-39.3V1035.3h39.3Zm46.11,0h-39.3V1035.3h39.3Zm-5.73-96.71a19.72,19.72,0,0,1-13.82,5.72H1022a19.56,19.56,0,0,1-19-14.88,19.29,19.29,0,0,1-.57-4.67A19.56,19.56,0,0,1,1022,958.35h46.36a19.56,19.56,0,0,1,13.82,33.39Zm105.23,80.14h-36.88v-51h36.88Z" fill="#a5c09f"/><rect x="1150.56" y="1020.84" width="36.88" height="51.03" fill="#88987f"/><rect x="1048.64" y="1035.3" width="39.3" height="53.15" fill="#88987f"/><rect x="1002.52" y="1035.3" width="39.3" height="53.15" fill="#88987f"/><path d="M1087.94,977.91a19.46,19.46,0,0,1-10.69,17.41,19.3,19.3,0,0,1-8.85,2.13H1022a19.56,19.56,0,0,1-19-14.88,19.29,19.29,0,0,1-.57-4.67A19.56,19.56,0,0,1,1022,958.35h46.36a19.55,19.55,0,0,1,19.55,19.56Z" fill="#88987f"/><path d="M1080.92,875.55,1064.36,859a1.38,1.38,0,0,1,0-1.95l16.57-16.57,3-3a2.28,2.28,0,0,0,0-3.26l-3-3-9-9a2.29,2.29,0,0,0-3.26,0l-19.6,19.6a1.4,1.4,0,0,1-2,0l-19.58-19.6a2.31,2.31,0,0,0-3.27,0l-12,12a2.31,2.31,0,0,0,0,3.26l19.59,19.6a1.35,1.35,0,0,1,0,1.95l-19.59,19.59a2.31,2.31,0,0,0,0,3.26l12,12a2.3,2.3,0,0,0,3.27,0l19.58-19.59a1.39,1.39,0,0,1,2,0l19.6,19.59a2.28,2.28,0,0,0,3.26,0l9-9,3-3a2.28,2.28,0,0,0,0-3.26Zm-21.54-14.93a11.62,11.62,0,0,1-7.53,2.83,12,12,0,0,1-1.86-.15,11.8,11.8,0,0,1,5.09,3.53.1.1,0,0,1,0,.14.11.11,0,0,1-.13.06,15.67,15.67,0,0,1-5-2.07,6.39,6.39,0,0,1-1.61-1.52c0,.55,0,1.95,0,2.68,0,.94,0,.94,0,1a.51.51,0,0,1-.31.15.49.49,0,0,1-.33-.17s0,0,0-.91.06-2.18,0-2.73a6.92,6.92,0,0,1-1.63,1.52,15.59,15.59,0,0,1-5,2.07.13.13,0,0,1-.14-.06.1.1,0,0,1,0-.14,11.86,11.86,0,0,1,5.1-3.53,12.37,12.37,0,0,1-1.86.15,11.6,11.6,0,0,1-7.53-2.83.12.12,0,0,1-.06-.13s.06-.08.12-.08a14.12,14.12,0,0,1,1.75-.11,21.89,21.89,0,0,1,7.41,1.48,19.72,19.72,0,0,1-3.82-2.79,15.92,15.92,0,0,1-4.73-8.19.12.12,0,0,1,0-.13.14.14,0,0,1,.14,0,27.6,27.6,0,0,1,9.69,10.38,19.26,19.26,0,0,1-1-4.48A22.94,22.94,0,0,1,1048,846s.06-.08.12-.08a.16.16,0,0,1,.13.08,22.76,22.76,0,0,1,1.55,10.57,20,20,0,0,1-.94,4.48,27.51,27.51,0,0,1,9.69-10.38.15.15,0,0,1,.15,0s.06.08,0,.13A16.1,16.1,0,0,1,1054,859a19.37,19.37,0,0,1-3.83,2.79,22,22,0,0,1,7.43-1.48,14.09,14.09,0,0,1,1.75.11.13.13,0,0,1,.12.08A.11.11,0,0,1,1059.39,860.62Z" fill="#2b3036"/><path d="M1553.69,982.58v117.35h.92V982.58Z" fill="#2b3036"/><path d="M1500.12,964.08h0q.34.33.66.67C1500.55,964.52,1500.35,964.3,1500.12,964.08Zm5.67,71.23v53.15h0V1035.3Z" fill="#2b3036"/><path d="M1377,932.41v156h-5.56V982.58h-64.59v117.35h241.08V932.41Zm-19.24,139.46H1320.9v-51h36.86Zm101.92,16.58h-39.3V1035.3h39.3Zm46.13,0h-39.29V1035.3h39.29Zm-19.51-91H1440a19.56,19.56,0,0,1-13.84-5.72c-.44-.44-.86-.91-1.26-1.39a14.07,14.07,0,0,1-1.13-1.52c-.19-.26-.36-.53-.51-.79a8,8,0,0,1-.46-.82,7.59,7.59,0,0,1-.43-.85c-.13-.24-.24-.5-.35-.76,0,0,0-.08-.06-.13a6.63,6.63,0,0,1-.33-.86,13.22,13.22,0,0,1-.57-1.84,8.38,8.38,0,0,1-.22-.94l-.17-1a19.36,19.36,0,0,1,0-6,6.19,6.19,0,0,1,.17-1,8.38,8.38,0,0,1,.22-.94,13,13,0,0,1,.57-1.84,7.43,7.43,0,0,1,.33-.86.78.78,0,0,0,.06-.13c.11-.26.22-.51.35-.76a7.5,7.5,0,0,1,.43-.85,7.36,7.36,0,0,1,.46-.82,8.73,8.73,0,0,1,.51-.79,14.52,14.52,0,0,1,1.13-1.52c.4-.48.82-.94,1.26-1.39s.91-.86,1.39-1.26.75-.58,1.13-.85c.17-.13.35-.26.53-.37.41-.28.83-.53,1.26-.77l.62-.33.9-.43c.42-.19.85-.36,1.28-.52a18.53,18.53,0,0,1,1.84-.57l.86-.2c.29-.07.57-.12.86-.17l.41-.06c.55-.08,1.1-.13,1.68-.16h.19l.9,0h46.34a19.48,19.48,0,0,1,13.82,5.73h0c.22.22.43.44.64.67s.42.47.62.71a17,17,0,0,1,1.49,2.07c.19.29.36.58.53.87a12.52,12.52,0,0,1,.72,1.44c.12.25.22.49.31.74s.24.62.35.93.3.91.42,1.37.2.79.28,1.2a16.64,16.64,0,0,1,.31,2.28c0,.21,0,.42,0,.64s0,.58,0,.89A19.55,19.55,0,0,1,1486.29,997.45Z" fill="#a5c09f"/><rect x="1553.69" y="982.58" width="64.59" height="117.35" fill="#a5c09f"/><rect x="1466.52" y="1035.3" width="39.28" height="53.15" fill="#88987f"/><rect x="1505.79" y="1035.3" width="0.01" height="53.15" fill="#88987f"/><rect x="1420.38" y="1035.3" width="39.29" height="53.15" fill="#88987f"/><rect x="1320.9" y="1020.84" width="36.86" height="51.03" fill="#88987f"/><path d="M1505.86,977.91a19.55,19.55,0,0,1-19.57,19.55H1440a19.56,19.56,0,0,1-13.84-5.72c-.44-.44-.86-.91-1.26-1.39a17.2,17.2,0,0,1-1.13-1.52l-.51-.79c-.16-.27-.31-.54-.46-.82s-.3-.56-.43-.85-.24-.5-.35-.76c0,0,0-.08-.06-.13-.12-.28-.23-.57-.33-.86a17.91,17.91,0,0,1-.57-1.84c-.08-.31-.15-.63-.22-.94l-.17-1a20.49,20.49,0,0,1,0-6l.17-1c.07-.31.14-.63.22-.94a18.54,18.54,0,0,1,.57-1.84c.1-.29.22-.58.33-.86a.78.78,0,0,0,.06-.13c.11-.26.22-.51.35-.76s.28-.57.43-.85.3-.55.46-.82.34-.53.51-.79a17.2,17.2,0,0,1,1.13-1.52c.4-.48.82-.94,1.26-1.39s.91-.86,1.39-1.26.75-.58,1.13-.85c.17-.13.35-.26.53-.37.41-.28.83-.53,1.26-.77l.62-.33.9-.43c.42-.19.85-.36,1.28-.52a18.53,18.53,0,0,1,1.84-.57l.86-.2.86-.17.41-.06c.55-.08,1.1-.13,1.68-.16h.19l.9,0h46.34a19.48,19.48,0,0,1,13.82,5.73q.34.33.66.67t.62.71a17,17,0,0,1,1.49,2.07c.19.29.36.58.53.87a12.52,12.52,0,0,1,.72,1.44c.12.25.22.49.31.74s.24.62.35.93.3.91.42,1.37.2.79.28,1.2a16.64,16.64,0,0,1,.31,2.28c0,.21,0,.42,0,.64S1505.86,977.6,1505.86,977.91Z" fill="#88987f"/><path d="M1500.76,964.75q-.32-.35-.66-.67h0C1500.35,964.3,1500.55,964.52,1500.76,964.75Z" fill="#88987f"/><path d="M1498.62,847.22h-27.71a1.38,1.38,0,0,1-1.37-1.37V818.13a2.3,2.3,0,0,0-2.31-2.31h-17a2.3,2.3,0,0,0-2.31,2.31v27.71a1.38,1.38,0,0,1-1.37,1.37h-27.71a2.3,2.3,0,0,0-2.31,2.31v17a2.3,2.3,0,0,0,2.31,2.31h27.71a1.38,1.38,0,0,1,1.37,1.37v27.71a2.3,2.3,0,0,0,2.31,2.31h17a2.3,2.3,0,0,0,2.31-2.31V870.18a1.38,1.38,0,0,1,1.37-1.37h27.71a2.3,2.3,0,0,0,2.31-2.31v-17A2.3,2.3,0,0,0,1498.62,847.22Zm-28.56,13.41a11.44,11.44,0,0,1-9.39,2.68,11.88,11.88,0,0,1,5.1,3.53.12.12,0,0,1,0,.14.12.12,0,0,1-.13.06,15.59,15.59,0,0,1-5-2.07,6.69,6.69,0,0,1-1.62-1.51c0,.55,0,2,0,2.73s0,.86,0,.91a.45.45,0,0,1-.33.16.54.54,0,0,1-.33-.15s0,0,0-1c0-.73.06-2.13,0-2.68a6.83,6.83,0,0,1-1.63,1.51,15.52,15.52,0,0,1-5,2.07.13.13,0,0,1-.14-.06.12.12,0,0,1,0-.14,11.84,11.84,0,0,1,5.11-3.53,11.84,11.84,0,0,1-1.88.15,11.63,11.63,0,0,1-7.53-2.83.13.13,0,0,1,0-.13.11.11,0,0,1,.1-.08,14.42,14.42,0,0,1,1.76-.1,21.88,21.88,0,0,1,7.41,1.48,19.43,19.43,0,0,1-3.81-2.78,16.06,16.06,0,0,1-4.74-8.19.15.15,0,0,1,.06-.13.1.1,0,0,1,.13,0,27.43,27.43,0,0,1,9.69,10.38,19.92,19.92,0,0,1-1-4.49,22.81,22.81,0,0,1,1.57-10.57.12.12,0,0,1,.12-.08.11.11,0,0,1,.1.08,22.81,22.81,0,0,1,1.57,10.57,19.42,19.42,0,0,1-1,4.49,27.53,27.53,0,0,1,9.69-10.38.12.12,0,0,1,.14,0,.14.14,0,0,1,0,.13,16.12,16.12,0,0,1-4.73,8.19,19.46,19.46,0,0,1-3.82,2.78,21.89,21.89,0,0,1,7.42-1.48,14.23,14.23,0,0,1,1.75.1.11.11,0,0,1,.1.08A.11.11,0,0,1,1470.05,860.63Z" fill="#2b3036"/><circle cx="1585.98" cy="1034.2" r="15.21" fill="#88987f"/></svg>