<svg xmlns="http://www.w3.org/2000/svg" viewBox="0 0 309.11 284.22"><defs><style>.cls-1{fill:#e6e7e8;}.cls-2{fill:#231f20;}</style></defs><title>Asset 3</title><g id="Layer_2" data-name="Layer 2"><g id="Layer_2-2" data-name="Layer 2"><path class="cls-1" d="M84.77,185a86.65,86.65,0,0,1-15.71,27.8l11.78,9.09Q95,194.23,108.07,166.08c3.64-7.85-5.08-14.58-11.78-9.09a259.72,259.72,0,0,0-58.07,67.44l13,7.57a839.12,839.12,0,0,0,43.14-88.72c1.89-4.53-2.83-9.6-7.23-9.49-9.38.24-14.73,7.4-20.06,14.17-5.69,7.22-11.12,14.63-16.21,22.29a323.55,323.55,0,0,0-26.64,48.87l13.71,5.78Q54.81,176.68,73.08,129c3.22-8.4-9.18-12.32-13.71-5.78A346.7,346.7,0,0,0,15.92,210c-2.7,8,9.76,13.3,13.71,5.78A412.77,412.77,0,0,0,71.42,91.9c1.14-6.87-6.92-13.19-12.54-7.3-26,27.3-40.67,62.22-54.83,96.59l14.46,4q7.93-48,19.26-95.24C40,80.56,25.57,76.56,23.32,86Q12,133.22,4.05,181.19c-1.59,9.63,10.8,12.9,14.46,4,13.13-31.88,26.85-64.66,51-90L57,87.91A400.27,400.27,0,0,1,16.68,208.24L30.38,214a332.59,332.59,0,0,1,41.94-83.27L58.61,125Q40.35,172.69,23.42,220.9c-2.78,7.91,10.27,13.59,13.71,5.78a324.19,324.19,0,0,1,22.79-42.93q6.39-10.09,13.51-19.69,3.65-4.91,7.52-9.65c1.43-1.74,3.69-5.57,6.13-5.63l-7.23-9.49a806.65,806.65,0,0,1-41.63,85.14c-4.74,8.43,8,15.86,13,7.57a247.83,247.83,0,0,1,55.73-64.4L95.12,158.5q-13.07,28.15-27.23,55.77c-3.67,7.16,6,15.94,11.78,9.09a106.31,106.31,0,0,0,19.57-34.42c3.14-9.15-11.34-13.08-14.46-4Z"/></g><g id="Layer_1-2" data-name="Layer 1"><path class="cls-2" d="M128,154c9-.61,18.06-.65,27.09-.44.46,0,.59-.76.11-.83a110.11,110.11,0,0,0-27.2-.6c-1.18.11-1.22,2,0,1.88Z"/><path class="cls-2" d="M182.63,147.66c.43.05,3.21.11,3.39.43.73,1.25-2.86,2.46-3.37,2.64-1.85.67-3.79,1.09-5.62,1.81-3.39,1.33-4.92,3.54-7.6,5.85-4.58,3.94-11.89,3.72-17.66,4.1-5.23.34-10.45.3-15.69.26a.42.42,0,0,0,0,.84,130.56,130.56,0,0,0,16.61-.18c4.46-.31,10-.22,14.18-2s6.21-6.19,10.44-8.07c3.66-1.63,7.4-2.41,10.51-5,.11-.09,0-.25-.11-.26l-5.08-.43c-.06,0-.06.09,0,.09Z"/><path class="cls-2" d="M128.92,153.06c.92,3.34,4.92,5.06,8.09,4.78.53,0,.55-.88,0-.84a8.81,8.81,0,0,1-4.66-1,11.19,11.19,0,0,1-3.27-3c-.06-.07-.18,0-.16.09Z"/><path class="cls-2" d="M181.72,132.88l5,3.49,2.49,1.74a8.06,8.06,0,0,1,3.64,4.27c1.36,3,.84,3.37.16,6.17a10.78,10.78,0,0,0-.3,3.79c.05.53.88.55.84,0-.26-3.48,2.66-7.52.89-10.86-.87-1.65-2.76-2.57-4.25-3.57L182,132.4c-.3-.2-.58.28-.28.49Z"/><path class="cls-2" d="M105.41,150.38c.28,2.73,3,4.41,4.78,6.28,4.19,4.36,7.85,8.84,9.55,14.75,2.32,8.06,4.19,15.09,11.15,20.44.38.29.87-.35.51-.66a28.41,28.41,0,0,1-8.33-11.54c-1.39-3.77-1.84-7.82-3.3-11.57a26.48,26.48,0,0,0-4.59-7.52c-2.43-2.84-9-6.4-9.68-10.19,0-.05-.1,0-.09,0Z"/><path class="cls-2" d="M155,202.45c8.64-1.27,17.66-2.14,26.09-4.54,5.35-1.52,9.92-4.53,11-10.32.07-.41-.53-.59-.63-.17-2,8-10.75,9.35-17.67,10.62-6.33,1.16-12.6,2.55-18.88,4-.3.07-.17.49.12.45Z"/><path class="cls-2" d="M217.58,116.88c3.17,6.68-1.6,12.73-2.53,19.24-.79,5.5.4,11.17-1.37,16.54-3.53,10.75-12,21.09-19.32,29.47-.16.18.1.45.27.27a136.41,136.41,0,0,0,11.65-15c3.27-4.92,7.17-10.4,8.49-16.24,1.52-6.7-.1-13.46,2-20.14,1.56-4.87,3.4-9.36,1-14.26-.08-.16-.32,0-.24.14Z"/><path class="cls-2" d="M93.81,153.86c-2.49.65-5.7,2.32-8,1.06s-2-4.67-2.53-7.15c-.92-4.42-2.81-8.07-5-12a39.55,39.55,0,0,1-5-16.65,78.6,78.6,0,0,1-.13-7.93c0-1.36-.23-3.13.16-4.4q-.26-2.91,4-2.85,3.44-3.91,6.21-.34a.19.19,0,1,0,.23-.29c-3.12-2.37-8.64-5.16-10.83-.16-1.4,3.2-.78,8.17-.77,11.57A50.88,50.88,0,0,0,73.45,127a45.63,45.63,0,0,0,4.66,10.74,52.64,52.64,0,0,1,4.8,13.52c.34,1.41.42,4,1.87,4.93,2.19,1.37,7-1.41,9.11-2.07a.14.14,0,0,0-.07-.27Z"/><path class="cls-2" d="M83,98.64c.49-6.89-2.7-12.38-4.93-18.68-2.64-7.46,0-14.95-2.23-22.36a.56.56,0,0,0-1.08.3c1.64,7-.9,14,1.28,21,2.06,6.61,6,12.67,6.31,19.74a.33.33,0,0,0,.66,0Z"/><path class="cls-2" d="M148.56,28.16c-17-9.89-37.3-4.47-52.12,7-.6.46,0,1.51.62,1.05C112.19,25.8,131,19.31,148.42,28.4a.14.14,0,0,0,.14-.24Z"/><path class="cls-2" d="M165.27,23.7a64,64,0,0,0-38.9-4.16c-.89.19-.51,1.52.37,1.36a67.3,67.3,0,0,1,38.16,3.66c.49.2.85-.65.36-.86Z"/><path class="cls-2" d="M187.51,23.68c-4.73-6.4-12.4-8.77-20-9.85-9.53-1.35-19.19-1.2-28.11,2.77-1,.43-.27,2.11.72,1.71,7.74-3.09,16.18-3.16,24.4-2.56s16.09,2.61,22.18,8.55c.4.39,1.17-.14.81-.62Z"/><path class="cls-2" d="M183.33,24.4c-3.74-12.36-19.3-9.31-29-11.27a.66.66,0,0,0-.35,1.27c9.16,2.59,24.06-.72,28.52,10.23.2.49,1,.31.81-.22Z"/><path class="cls-2" d="M174.53,25.53c-.29-10-12.14-10.48-19.28-12.6a.52.52,0,0,0-.27,1c6.64,2.14,18.18,2.52,19,11.6,0,.35.57.37.56,0Z"/><path class="cls-2" d="M186,26c.29-10.07-10-14.59-18.48-15.76-.81-.11-1.2,1.09-.35,1.27,8.22,1.67,16.36,5.58,18.09,14.59.08.43.72.31.74-.1Z"/><path class="cls-2" d="M198.79,32.8a25.42,25.42,0,0,1,14.47,5.77c.32.26.79-.18.46-.46a23.79,23.79,0,0,0-14.94-5.68c-.24,0-.24.36,0,.38Z"/><path class="cls-2" d="M186,9.52c4.4-1.54,11.34,6.29,14.51,8.9,3.93,3.24,7.71,6.67,11.36,10.22a17.06,17.06,0,0,1,2.56,2.53c1.16,1.83,1.17,4.8.71,6.93-.35,1.63-1.1,3.14-1.35,4.84a20.33,20.33,0,0,0,1.44,10.62c.07.17.34.1.27-.07a19.67,19.67,0,0,1-.9-12c.53-2.09,2.27-4.27,2.53-6.46.45-3.79-4.83-7.27-7.18-9.53a150.55,150.55,0,0,0-13-11.3c-2.84-2.16-7.19-6.64-11.07-5-.22.09-.13.44.1.36Z"/><path class="cls-2" d="M219.94,71.57l-1,22.83c0,.51.72.48.78,0,.87-7.32,1.77-14.74,1.06-22.12-.61-6.45-3.15-12.17-4.78-18.36-2-7.58-1.17-15-1.52-22.65-.13-2.82-.75-5.57-4.13-5-.78.14-.6,1.44.19,1.38,3.3-.24,2.1,10.91,2.13,12.84a68.65,68.65,0,0,0,.67,9.41c1,6.89,4.36,13,5.62,19.86a59.52,59.52,0,0,1,.84,11.71c0,1.85-.12,3.7-.24,5.55,0,.43-.69,5.3-.44,5.54,1,.88.69-4,.69-3.87l.08-5.71L220,71.57a0,0,0,0,0-.09,0Z"/><path class="cls-2" d="M214.27,42.71a42,42,0,0,1,5.19,18.41c0,.3.49.3.47,0a42.51,42.51,0,0,0-5.5-18.51.09.09,0,0,0-.16.09Z"/><path class="cls-2" d="M181.67,9.59c-19.1-11.26-46.06-12.68-66.45-3.87-10.73,4.64-17.56,12.46-23.76,22.11-3.4,5.3-7.81,10.72-10.29,16.52-2.24,5.23-.87,10.62.62,15.85a.28.28,0,0,0,.54-.15c-2-7.22-2.32-12.95,1.85-19.48,2.95-4.62,6-9.2,9-13.77C99.63,17,107.28,9.62,118.44,5.55,138-1.59,163.09.13,181.39,10.08a.28.28,0,0,0,.28-.49Z"/><path class="cls-2" d="M87.44,81.41C91.53,73.57,86,65,88.36,56.88c.14-.47-.55-.64-.72-.2-3.24,8.1,3.06,16.59-.44,24.59-.07.16.16.31.24.14Z"/><path class="cls-2" d="M134.87,93c1.65.85,3.29,1.71,4.91,2.62,1.1.61,4.2,1.78,4.8,2.83.76,1.33,0,3.53-.69,4.66a19.38,19.38,0,0,1-1.49,1.86c-1,1.29-2.08,2.54-3,3.91a.61.61,0,0,0,1,.74,79.87,79.87,0,0,0,5.21-6.71c.76-1,1.8-2.14,1.27-3.52-.43-1.13-2-1.75-2.93-2.25-2.92-1.57-5.93-3-9-4.3-.11,0-.2.11-.09.16Z"/><path class="cls-2" d="M159.83,96.76a16.69,16.69,0,0,1,8.11-3.63c.18,0,.1-.3-.07-.27a16.9,16.9,0,0,0-8.17,3.77c-.09.08,0,.21.13.13Z"/><path class="cls-2" d="M170.6,99.4c3.43-1.76,6.71-3.18,10.61-3.42.24,0,.24-.39,0-.37-3.83.16-7.74,1.17-10.67,3.73,0,0,0,.1.06.07Z"/><path class="cls-2" d="M184.06,95.38a0,0,0,0,0,0-.09,0,0,0,0,0,0,.09Z"/><path class="cls-2" d="M187.39,95.34A71.6,71.6,0,0,1,204,98.92c.4.13.58-.52.17-.63a121.32,121.32,0,0,0-16.73-3c-.06,0-.06.09,0,.1Z"/><path class="cls-2" d="M188.36,99.21a47.21,47.21,0,0,1-18,.64c-.35-.05-.51.48-.15.54a41.37,41.37,0,0,0,18.21-1,.09.09,0,0,0,0-.18Z"/><path class="cls-2" d="M178.92,99.35l.25-.12a.66.66,0,0,0,0-1.13l-.25-.12a.79.79,0,1,0,0,1.37Z"/><path class="cls-2" d="M137.53,103.82a27.8,27.8,0,0,0-11.92-2.93.14.14,0,0,0,0,.28,35.25,35.25,0,0,1,11.87,2.73c.05,0,.1-.05,0-.08Z"/><path class="cls-2" d="M111.07,106.63c2.88-.8,5.43-2.49,8.05-3.91.37-.2,0-.76-.33-.57-2.65,1.35-5.47,2.49-7.77,4.39,0,0,0,.09,0,.08Z"/><path class="cls-2" d="M109.94,107.26c6.81,0,13.62.12,20.43.14a.19.19,0,0,0,0-.37c-6.81,0-13.62.09-20.43.14a0,0,0,0,0,0,.09Z"/><path class="cls-2" d="M131.66,84.45c1,2.49-4.68,2.29-5.73,2.43a.38.38,0,0,0,0,.76c-2.92-.32-6.45.64-9.42.76-3.62.14-7.22.08-10.84-.1-.36,0-.36.54,0,.56a119.05,119.05,0,0,0,21.64-.58c.33,0,.6-.45.3-.72.43.38-.74-.8-.88-.65s5.31-.44,5.89-.55a.16.16,0,0,0,.09-.23l-.88-1.75c0-.09-.21,0-.17.07Z"/><path class="cls-2" d="M136.58,88.67c1.69-2.73-9.12-3.21-10.49-3.28-.61,0-.6.89,0,.94,1.62.12,10.24.29,10.31,2.3a.09.09,0,0,0,.17,0Z"/><path class="cls-2" d="M167.77,84.45c4.2.85,8.73.11,13,.32,4.88.24,9.8.66,14.65,1.26,1.1.14,1.34-1.7.26-1.93a73.3,73.3,0,0,0-14-1.8c-4.47-.09-9.73-.5-13.94,1.16-.43.17-.55.88,0,1Z"/><path class="cls-2" d="M176.78,98.65c2.55,2.87,6.6,5.43,10.32,3a1.32,1.32,0,0,0-1-2.4c-2.66.78-5.42-1.65-7.41-3.09-1.51-1.09-3,1.2-1.89,2.45Z"/><path class="cls-2" d="M120.24,103.58a10.34,10.34,0,0,0,10.42,2.33,1.22,1.22,0,0,0-.65-2.35,11.44,11.44,0,0,1-8.07-2.18c-1.31-.93-2.86,1.13-1.7,2.21Z"/><path class="cls-2" d="M138.83,125c-2.72,1-5.95,3.32-6.27,6.52-.36,3.57,2.73,4.17,5.62,4.52a39.57,39.57,0,0,1,11.45,3.16,13.47,13.47,0,0,0,6.52,1.25c5.7-.49,11.3-4.65,16.19-7.27.27-.15,0-.53-.24-.4-3.59,1.65-7.18,3.61-10.9,4.91-5,1.74-8.33.88-13-.94a21.32,21.32,0,0,0-7.59-1.71h-2.44q-4.12.89-3.62-3.14-1.67-2.88,1-4.76a9,9,0,0,1,3.29-2.05s0-.1,0-.09Z"/><path class="cls-2" d="M219.43,95A22.19,22.19,0,0,1,225,92.83c2.31-.48,3.11-.48,3.31,2a17,17,0,0,1-.48,3.41A88.4,88.4,0,0,0,226.52,110a.33.33,0,0,0,.64.09,77.79,77.79,0,0,0,1.58-10.33c.21-1.72,1.7-6.13.49-7.63-.64-.79-2-.55-2.79-.45a12.52,12.52,0,0,0-7.12,3.16c-.08.07,0,.19.11.15Z"/><path class="cls-2" d="M228.41,113c.57,7.71.18,14-3.47,21a14.58,14.58,0,0,0-1.65,4.59c-.26,1.58.16,5.44-.66,6.59-2.18,3.06-7.35.35-8.49-2.24-.34-.77-1.66-.22-1.37.58,1.58,4.36,9.52,6.47,10.91,1.08.77-3,.18-5.9,1.42-8.85.92-2.2,2.31-4.14,3-6.43,1.69-5.27,1-11,.35-16.35,0-.06-.1-.06-.09,0Z"/><path class="cls-2" d="M77.18,125.32a6.18,6.18,0,0,1,2.43-1.17c.8-.05.82.07,1,.57.25.81-.09,2.18,0,3.08a17,17,0,0,0,2.31,6.26c.31.52,1.13,0,.81-.47a18.59,18.59,0,0,1-2.63-9.86.2.2,0,0,0-.25-.19,8.62,8.62,0,0,0-3.72,1.7s0,.12,0,.08Z"/><path class="cls-2" d="M90.24,131.24c-1.62,1.89-3.2,5-2.5,7.56a.85.85,0,0,0,1.66-.22,33.82,33.82,0,0,1,0-3.58,10,10,0,0,1,1.27-3.41c.16-.27-.23-.59-.44-.34Z"/><path class="cls-2" d="M93.5,155c3.41,5.5,3.14,11.86,4.58,17.95a21.38,21.38,0,0,0,2,5.57c1.08,1.92,6,5.55,4.79,7.69-.39.71.63,1.6,1.18.91a3.06,3.06,0,0,0,.38-3.89c-.48-1-1.81-1.66-2.51-2.35A15.85,15.85,0,0,1,99.75,174c-2.11-6.58-1.53-13.51-6-19.23-.13-.17-.41,0-.29.23Z"/><path class="cls-2" d="M105.51,183.69c-.21,9.5,7.14,16.43,11,24.56,4.25,9,6,17.25,14.82,23,4,2.65,8.5,4.57,12.62,7.09,4.74,2.91,8.29,6.83,12.14,10.75,3.09,3.14,6.43,6.11,10.55,7.8a16,16,0,0,0,6.32,1.31c3.57,0,9.54-2.63,11.05,2.47a.65.65,0,0,0,1.24,0c2.43-9,14.65-9.78,19.82-17,4.34-6.06,5.52-13.75,7.19-20.84,1.8-7.63,5.07-13.41,1.37-20.92-5-10.13-4.94-22.36-6.32-33.46-.05-.41-.7-.42-.66,0,1,9.08,1,19.14,3.58,28,1.54,5.28,5.07,9,4.26,14.93-.57,4.17-2.6,8.46-3.59,12.58-1.82,7.57-3.34,16.48-9.48,21.89C195.55,251,186,251.76,184,260.38h1.24a5.61,5.61,0,0,0-5.22-4c-2.36-.25-4.73.67-7.07.73a17.66,17.66,0,0,1-10.18-3.47c-4.65-3.2-8.17-7.66-12.28-11.46a60,60,0,0,0-11-7.74c-4.23-2.44-8.76-4.8-12.19-8.35-4.24-4.4-5.72-10-7.92-15.57-3.77-9.44-11.84-16.58-13.57-26.89,0-.16-.27-.12-.28,0Z"/><path class="cls-2" d="M205.77,199.38a124.8,124.8,0,0,1,14.64,37.55c1.27,6.09,1.55,12.25,2.51,18.37.58,3.72,1.82,6.83,5.11,8.88a.48.48,0,0,0,.7-.29c1.79-5.59-5.51-12-9.36-14.93-5.92-4.55-13.4-6.63-20.58-4.1a.56.56,0,0,0,.3,1.08c10-2.59,19,1.89,25.52,9.47a28,28,0,0,1,2.73,3.62q-1.32,3.87-2.07-.23a21.63,21.63,0,0,1-.92-3.81c-.62-3.85-.76-7.78-1.35-11.65A116.34,116.34,0,0,0,206.42,199a.38.38,0,0,0-.65.38Z"/><path class="cls-2" d="M213.05,202.22c15.92,1.7,31.83,3,47.79,4.28a220.54,220.54,0,0,1,24.83,3.18,82.18,82.18,0,0,1,9.64,2.42,41.35,41.35,0,0,1,6.29,2.61c1.62.85,4.45,1.89,5.77,2.94a1,1,0,0,0-1.46,1.46,1.73,1.73,0,0,0,2.86-.17c.93-1.37-.22-2.59-1.17-3.52-6.47-6.31-18.62-7.83-27-9.12-22.24-3.39-45.06-4-67.5-4.83-.49,0-.47.7,0,.75Z"/><path class="cls-2" d="M149.81,256.29c-10.84.57-18.92,10.22-23,19.67-.21.48-1.15,5.95-1.5,6.21.1-.07-3.87-6.16-4.25-6.77a151.19,151.19,0,0,1-10-19.39c-5.29-12.39-7.39-26-13.9-37.79-3.69-6.69-.6-11.29,3-17.13,2.14-3.5,4-7,3.66-11.19,0-.3-.48-.3-.47,0,.25,7.72-6.84,12.25-9,19.13a10.32,10.32,0,0,0,.29,7.25c2,4.88,4.94,9.09,6.58,14.23,2.89,9,5.34,18.08,9.15,26.81a155.56,155.56,0,0,0,15,26.67c.27.39,1,.29,1-.26-.28-6.22,3.2-11.23,6.77-16,4.34-5.8,9.11-10.26,16.64-11.16.17,0,.18-.29,0-.28Z"/><path class="cls-2" d="M105.48,183.18c-1.44,5.8-2,13.26-4.93,18.5-1.71,3.09-5.25,5.53-7.78,7.93-2.16,2-4.28,4.15-6.42,6.22a120.2,120.2,0,0,1-30.67,21.4c-10.91,5.49-22,10.42-33.22,15.26-7.59,3.27-19.06,7.92-22.39,16.23-.37.91.89,1.36,1.49.87C6,265.89,9.45,261.85,14.68,259c4.83-2.65,10-4.67,15-6.83a351.54,351.54,0,0,0,35.2-17.07c10.25-5.8,18.35-13.35,26.63-21.62,3.33-3.32,8.11-7,10.11-11.31,2.56-5.55,2.81-13,3.93-18.94,0-.06-.08-.08-.09,0Z"/><path class="cls-2" d="M67.58,229a26.09,26.09,0,0,1-3.71,21.42c-2.71,3.84-9.56,6.32-7.79,11.92,3.54,11.21,36.85,4.22,32,19.31-.22.68.78,1.33,1.25.73,10-12.63-18.92-14.13-25.11-15.8-3.73-1-9.57-3.35-5.59-9.23,1-1.45,3.22-2.58,4.43-3.95a25,25,0,0,0,4.5-7.4A23.61,23.61,0,0,0,67.76,229a.09.09,0,0,0-.18,0Z"/><path class="cls-2" d="M255.17,211a82.8,82.8,0,0,0,12,14.84l.18-1.38c-3.8,1.79-7.72,3.43-11.44,5.38-1.66.87-3.41,1.71-4,3.65-1.27,4.22,3.49,4.61,6.33,5.26,3.59.81,7.81,1.53,10.94,3.54,7.47,4.8,1.95,9.73-1.34,14a68.34,68.34,0,0,0-9.91,18c-.3.79,1,1.36,1.37.58A80.85,80.85,0,0,1,271,255.54c2.39-2.9,5.9-6.65,4.09-10.72-1.94-4.37-9-6.13-13-7.21-1.42-.38-3.66-.41-4.95-1.15q-3.64.07-1.38-4.3l1.14-.58c2.57-2.39,8.17-4,11.34-5.55a.88.88,0,0,0,.18-1.38A112,112,0,0,1,256,210.57c-.35-.47-1.14,0-.81.47Z"/><path class="cls-2" d="M103.06,99.11c.19-.58-1.16-.64-.94.27.16.63,1,1,1.51,1.33a16,16,0,0,0,2.41,1.16c.45.17.65-.56.2-.72a14.86,14.86,0,0,1-1.92-.85q-.4-.21-.78-.45l-.43-.28q-.4-.14-.12-.44a0,0,0,0,0,.09,0Z"/><path class="cls-2" d="M115.17,153.29a69.6,69.6,0,0,1,7.28,13.88c.15.39.78.22.63-.17a53.19,53.19,0,0,0-7.75-13.8c-.07-.09-.23,0-.16.09Z"/><path class="cls-2" d="M105.81,177.71c18.92,23.35,53.79,40.44,83.41,28.47,1.2-.48.76-2.37-.55-2a70.46,70.46,0,0,1-46.14-2.4c-13.85-5.58-25-15.06-36.19-24.61a.38.38,0,0,0-.53.53Z"/></g></g></svg>