<svg xmlns="http://www.w3.org/2000/svg" viewBox="0 0 307.25 279.84"><defs><style>.cls-1{fill:#e6e7e8;}.cls-2{fill:#231f20;}</style></defs><title>Asset 5</title><g id="Layer_2" data-name="Layer 2"><g id="Layer_2-2" data-name="Layer 2"><path class="cls-1" d="M98.12,158.9A140.13,140.13,0,0,1,60,189.64l11,8.47,18.08-45.83c3-7.66-7.47-11.58-12.54-7.3a172.79,172.79,0,0,0-34.11,39.16l13.71,5.78a304.94,304.94,0,0,0,20.44-84.49c.54-5.5-6.84-9.58-11.29-6.48-14.4,10-23.39,25.5-32.37,40.2Q17.71,164,4.82,190.14l13.71,5.78q18.63-54.59,41-107.79c3.38-8-9.42-12.75-13.71-5.78A395.84,395.84,0,0,0,10.12,157l14.73,2,5.24-66c.76-9.62-14.24-9.57-15,0L9.85,159c-.71,8.9,12.05,9.5,14.73,2a377,377,0,0,1,34.18-71L45.05,84.14q-22.35,53.17-41,107.79c-2.72,8,9.93,13.42,13.71,5.78Q29.84,173.32,43.87,150c8-13.21,16-29,29-38.08l-11.29-6.48a291.53,291.53,0,0,1-19.91,80.51c-3.29,8.17,9.34,12.62,13.71,5.78a159.6,159.6,0,0,1,31.76-36.13l-12.54-7.3L56.51,194.13c-2.54,6.44,5.77,11.35,11,8.47a152.23,152.23,0,0,0,41.2-33.09c6.33-7.24-4.23-17.89-10.61-10.61Z" transform="translate(0 -0.33)"/></g><g id="Layer_1-2" data-name="Layer 1"><path class="cls-2" d="M21.42,225.64c2.1,1,4.25-1,6-2L37.92,217a.23.23,0,0,0-.24-.4L30.21,221c-2,1.17-6.44,5-8.68,4.36-.15,0-.26.19-.11.26Z" transform="translate(0 -0.33)"/><path class="cls-2" d="M55.95,209.3a47.47,47.47,0,0,1,3.89-3.84c.31-.27,1.68-1.25,1.52-1.46,0,0-2.08,1.76-2.19,1.86s0,.21.13.13l2.49-2.14c.08-.07,0-.18-.11-.11a48.27,48.27,0,0,0-5.78,5.49s0,.11.07.07Z" transform="translate(0 -0.33)"/><path class="cls-2" d="M50.65,210.59c-.8.26-7.76,2.67-7.69,2.75s7.4-4.53,8-4.87a90.08,90.08,0,0,1,18-7.48c5.17-1.55,7.83-3.13,11.3-7.33a38.21,38.21,0,0,1,14.31-11l-.58-1c-3.8,2.62-8.39,6-8.37,11.13,0,2.92,1.78,4.23,3.07,6.65,2.25,4.22.76,8.78.16,13.19A17.16,17.16,0,0,0,92.6,226.5a37.73,37.73,0,0,0,6.56,6.13c2.95,2.28,8.84,5,9.64,8.67-.13-.6-1-.33-.9.25l.09.57a.48.48,0,0,0,.34.34c.92.27.89.3,1.7-.25a.51.51,0,0,0,.25-.44c-.43-3.58-5.24-5.91-7.91-7.85-5.79-4.19-12.37-9-13.13-16.7-.51-5.15,2.13-10.28,1.21-15.4-.4-2.23-1.63-3.46-2.56-5.4-3-6.3,1.95-10.55,6.67-13.81a.57.57,0,0,0-.58-1,37.19,37.19,0,0,0-10.91,7.14c-1.73,1.66-3.12,3.56-4.69,5.36-2.82,3.23-5.79,4.54-9.75,5.72a83.19,83.19,0,0,0-27.45,13.82c-.31.24-.15.87.29.7l9.26-3.5c.17-.06.1-.33-.07-.27Z" transform="translate(0 -0.33)"/><path class="cls-2" d="M100.56,177.39c.13-4.44.24-8.86.16-13.3-.08-4.15.44-8.81-.32-12.88-.35-1.87-1.07-2.29-2.19-3.59s-1.92-1.88-2.22-3.51a15.87,15.87,0,0,1,.32-3.85l.64-7.7c.34-4.15,1.2-8.63.82-12.79-.32-3.48-2.78-5.69-3.7-8.93-1.35-4.7,2-11-3.31-14-1.81-1-3.84-1.14-5.63-2.3a8.9,8.9,0,0,1-4-6.08c-.95-4-.79-8.51-.63-12.6a43.66,43.66,0,0,1,2.91-13.34c1.16-3.25,2.5-6.76,2.26-10.28-.2-2.89-1.65-4.6-3.08-7C79,39.31,82.63,33.54,86.69,29A92.31,92.31,0,0,1,96,20c2.54-2.15,5-4.22,8.32-4.72,1.76-.26,3.54.13,5.27-.27,3.8-.87,6.44-4.54,10.28-5.78A76,76,0,0,1,136.07,6.3c4.66-.43,9.38,0,14-.41a6.44,6.44,0,0,0,5.11-2.58.27.27,0,0,0-.16-.4,61.06,61.06,0,0,0-27.66-1.73.24.24,0,0,0,0,.47A262.3,262.3,0,0,0,169,5.82c2.81.05,5.8-.73,7.22,1.76.72,1.26.71,2.84,1.7,4.19,3.07,4.19,8.43,6.5,12.21,9.94a32.68,32.68,0,0,1,6.4,7.73c1.34,2.31,2,5.08,3.54,7.27,1.23,1.73,2.91,2.72,4.59,3.92a25.48,25.48,0,0,1,3.52,2.6l.85,7.92c-.54.9-2.27,1.6-3.17,2.34-3.44,2.85-4,5.93-3.57,10.31.72,7.86,1.4,14.88,0,22.77-.07.41.56.59.63.17A65,65,0,0,0,204.08,74c-.08-4.37-1.31-8.81-1.11-13.15.31-6.61,12-9.08,7.42-16.44-1.82-2.93-5.1-4.1-7.64-6.25-3.56-3-4.6-8-7.39-11.68A38.16,38.16,0,0,0,188,19.25c-4.35-3.34-12.48-6.73-11.27-13.54a.19.19,0,0,0-.18-.24A261.82,261.82,0,0,1,138.75,3c-2.41-.34-5.23-.35-7.51-1.17-3.32-1.18-1.06-.58.79-.82a41,41,0,0,1,4.63-.27,57.72,57.72,0,0,1,7.41.36,57,57,0,0,1,6.33,1.09q1.36.3,2.7.68,1.08,2.22-1.42,2c-2.14,1.07-5.58.39-7.9.4q-3.87,0-7.72.33a79.28,79.28,0,0,0-16.4,2.72c-4.47,1.35-7.7,5.53-12.36,5.78-4.12.22-6.57.67-10,3.31C90.9,22.39,81,30.08,79.64,38.75c-.53,3.48.8,5.52,2.62,8.33,4.11,6.35.45,12.64-1.47,19-2.17,7.2-3.06,17.87,0,25A9.25,9.25,0,0,0,85,95.95c4,2.09,7.43,1.59,7.9,8.15.14,1.89-.39,3.79-.08,5.69.34,2.07,1.36,3.44,2.29,5.25,1.84,3.57,1.74,6.91,1.37,10.78-.34,3.53-.69,7.06-1,10.59-.24,2.42-1.66,7.53-.87,9.9a15.64,15.64,0,0,0,.81,1.63c1.41,3,.79,0,1.25.59,2.82,3.6,2.58,4.24,2.66,8,.16,7,.38,13.93.88,20.9a.19.19,0,0,0,.38,0Z" transform="translate(0 -0.33)"/><path class="cls-2" d="M211.28,91c-1-6.23-1.51-12.82-3.24-18.89-.86-3-2.59-5.69-3.2-8.78-.66-3.39,0-6.85-.07-10.27,0-3.17.12-9.83-2.24-12.3s-8.64-1.78-11.32-1.48a.52.52,0,0,0,0,1c2.48.11,6.27-.44,8.53.56,3.29,1.46,3.42,5.76,3.7,8.82.39,4.32-.45,8.72.21,13,.68,4.45,3.49,8.18,4.45,12.59,1.14,5.22,2,10.51,3,15.76,0,.12.2.07.18,0Z" transform="translate(0 -0.33)"/><path class="cls-2" d="M158.8,43.27c2.75-4.32,9.15-3.67,12.88-6.92a14.9,14.9,0,0,0,4.82-10.17C177.24,15.73,169.25,7.5,162.14,1a.52.52,0,0,0-.73.73c6.94,7.08,16.25,16.18,13.36,27.18-1.63,6.22-6.13,8.23-11.54,10.36A8.57,8.57,0,0,0,158.39,43a.23.23,0,0,0,.4.24Z" transform="translate(0 -0.33)"/><path class="cls-2" d="M161.42,36.1A78,78,0,0,0,174,18.59a.28.28,0,0,0-.49-.28,109.78,109.78,0,0,1-12.39,17.46c-.2.22.13.55.33.33Z" transform="translate(0 -0.33)"/><path class="cls-2" d="M174.57,33a12.08,12.08,0,0,0,8.81-7.9c0-.11-.14-.16-.18,0a11.94,11.94,0,0,1-8.65,7.86c-.06,0,0,.1,0,.09Z" transform="translate(0 -0.33)"/><path class="cls-2" d="M182.74,30.32l2.41-3.77c.1-.15-.15-.3-.24-.14l-2.33,3.82c-.06.1.1.2.16.09Z" transform="translate(0 -0.33)"/><path class="cls-2" d="M172.71,35.16c-8.82,3.19-16.59,4.54-25.9,2.45-6.54-1.47-12.88-3.78-19.58-4.5C114.32,31.72,105.9,37.68,98.82,48c-3.45,5-4,7.67-1.64,13.48,1.63,4,3.37,7.27,2.22,11.78-.77,3-2.49,5.67-3.57,8.57C93.5,88,96.73,94,95.23,100.23c-1.28,5.34-5.25,9.33-4.38,15.09.06.42.69.24.63-.17-.87-6.11,4-10.48,4.82-16.22.41-2.73-.2-5.43-.49-8.13a20,20,0,0,1,2-11.29c1.66-3.63,3.48-7.12,2.9-11.24-.35-2.53-1.57-4.86-2.52-7.19-1.86-4.59-1.31-8.36,1.59-12.53,4-5.76,8.69-11.41,15.67-13.47,7.24-2.14,14.83-.35,21.93,1.39,5.73,1.41,11.55,3,17.49,3.07,6.31.11,12-2,17.82-4.29.05,0,0-.11,0-.09Z" transform="translate(0 -0.33)"/><path class="cls-2" d="M158.47,48.26c5.53.14,11.25.22,16.25-2.49,5.39-2.91,10.35-7.39,15.09-11.24.25-.2-.08-.63-.34-.44-4.36,3.26-8.43,7-12.91,10.07-5.45,3.76-11.68,4-18.1,4a0,0,0,0,0,0,.09Z" transform="translate(0 -0.33)"/><path class="cls-2" d="M85.89,93.47c-1.3-4.9-7.7,2.62-8.64,4A8.22,8.22,0,0,0,75.9,105c1,2.75,1.73,4.29,1.47,7.42a8.39,8.39,0,0,0,0,3.18c.72,2.33,2.76,3.86,3.23,6.45.33,1.82-.52,3.77-.1,5.64.61,2.67,2.52,4,2.88,7.14.2,1.73-.26,3.47.16,5.21,1.19,4.93,6,10.57,11.32,8.14.66-.3.09-1.27-.57-1l-5.73-1a13.94,13.94,0,0,1-2.07-2.67A11.83,11.83,0,0,1,85,140c-.66-2.38-.06-4.67-.61-7-.69-2.93-2.76-5-2.83-8.18,0-1.66.43-3.28,0-4.92-.36-1.32-1.16-1.78-1.84-2.87-1.87-3-.49-5.17-.91-8.24-.17-1.23-1-2.11-1.3-3.26A10.83,10.83,0,0,1,79.39,96c.59-.7,5.16-5.79,6.23-2.43a.14.14,0,0,0,.27-.07Z" transform="translate(0 -0.33)"/><path class="cls-2" d="M205.8,88.67c12.35,3.47,5.78,18.58,3.87,26.82a92.13,92.13,0,0,0-2.19,23.77l1.21-.5a55.43,55.43,0,0,0-2,6.32c-.39,1.8-.81,3.6-1.18,5.41-.69,3.33-1.23,6.69-2,10-1.83,7.74-5.2,12.87-11.73,17.47-1.35,1-3.12,2-3.87,3.53-1,2,.16,3.19.11,5.06-.15,5.39-4.38,7.38-8,10.35-3,2.47-5.9,5.09-8.82,7.68-.51.45.17,1.37.74,1,3.23-2.34,6.5-4.62,9.61-7.11,2.49-2,5.73-3.95,7.56-6.63,1.53-2.24.75-3.48,1-5.81.61-6.37,5.49-7.4,9.14-11.39,4.38-4.79,5.87-11.15,7.09-17.34.83-4.19,1.56-8.39,2.27-12.6.3-1.79,1.57-4.64.37-6.29a.74.74,0,0,0-1.14-.15l-.34.31a.73.73,0,0,0,0,1l.22.24a.71.71,0,0,0,1.21-.5A90.2,90.2,0,0,1,210,120.31c.94-5.54,3-10.86,3.81-16.41.92-6.36-.95-13.79-8-15.42a.09.09,0,0,0,0,.18Z" transform="translate(0 -0.33)"/><path class="cls-2" d="M109.68,174.67c1.15,5.91,4.56,10.64,8.09,15.39s6.89,11.44,11.73,14.9,12.82,4.28,18.59,5.86,12.09,3.43,18.15,2a.61.61,0,0,0-.16-1.2c-6.1.07-11.59-1.23-17.46-2.73-5.63-1.45-12.65-2.15-17.6-5.23-5.2-3.23-8.94-10.24-12.67-15.1-3.38-4.4-6.75-8.56-8.12-14.06-.09-.35-.61-.2-.54.15Z" transform="translate(0 -0.33)"/><path class="cls-2" d="M146.36,98.62c-.4-4.3-14.91-3.83-17.8-4.55-3.43-.86-6.39-2.7-10-2.18a12.86,12.86,0,0,0-8.42,5.35c-.72,1,.7,2.37,1.67,1.67,2.55-1.86,5.31-4.13,8.63-4.25,2.82-.11,5.75,1.39,8.53,1.81,5.41.81,12.41-.66,17.23,2.28a.14.14,0,0,0,.21-.12Z" transform="translate(0 -0.33)"/><path class="cls-2" d="M180.31,95.49l9.12-.24c.56,0,9.11-.5,8.44.9-.36.74.42,1.74,1.22,1.22,2.24-1.45,1-4.05-1.31-4.63s-5,.32-7.2.62l-10.37,1.41c-.42.06-.32.75.1.74Z" transform="translate(0 -0.33)"/><path class="cls-2" d="M117.8,107.58c4-2,7.31-2.09,11.62-2.44,5-.41,8.81-3.09,12.91,1.93.27.33.73-.14.46-.46a8.75,8.75,0,0,0-9.2-3.28c-3.2.62-6.56.36-9.69,1-2.24.49-4.27,1.9-6.15,3.13a0,0,0,0,0,0,.08Z" transform="translate(0 -0.33)"/><path class="cls-2" d="M125.63,105.89l-.12.17a.63.63,0,0,0,0,.65c2.24,3.56,10.09,5.11,11.26-.18a1,1,0,0,0-1.88-.79c-1.32,2.25-4.23,2.39-6.42,1.39-.43-.19-2.33-2-2.84-1.24Z" transform="translate(0 -0.33)"/><path class="cls-2" d="M172.24,105.81a36.52,36.52,0,0,1,24.13-1.75.42.42,0,0,0,.22-.81,32.79,32.79,0,0,0-24.41,2.48c-.05,0,0,.1,0,.08Z" transform="translate(0 -0.33)"/><path class="cls-2" d="M177.89,103a5.24,5.24,0,0,0,1.32,4.63c1.35,1.53,3.73,2.19,5.4.79a1.77,1.77,0,0,0,0-2.5c-.64-.52-1.21-1.15-1.8-1.72-1.18-1.15-3.35.37-2.36,1.82.47.67,1,1.34,1.38,2l2-2.6c-.92-.29-1.61-.06-2.55-.51a2.44,2.44,0,0,1-1.34-1.94c-.15-1.05-1.84-1-2.05,0Z" transform="translate(0 -0.33)"/><path class="cls-2" d="M177.64,133.35c.47,7.15-4.66,5.78-8.61,7.89a19.84,19.84,0,0,0-3.2,2.54q-2.91,3.31-7.63,2a9.72,9.72,0,0,0-1.49-1c-2.55-.88-4.73.06-7.28-.43-3.16-.6-2.38-4.57-5-5.78a.56.56,0,0,0-.57,1c1.34,1,.89,3.25,2.12,4.44a5.7,5.7,0,0,0,3.32,1.2,28.51,28.51,0,0,0,3.28-.25c2,0,3.5.87,5.2,1.49,1.42.51,2.27,1,3.88.73a9.78,9.78,0,0,0,4.21-2.45,21.94,21.94,0,0,1,3.54-2.85c1.78-.94,3.49-.71,5.27-1.31,3.64-1.22,3.83-3.85,3.2-7.32,0-.16-.29-.12-.28,0Z" transform="translate(0 -0.33)"/><path class="cls-2" d="M131.86,160a166.68,166.68,0,0,0,17.09.69.14.14,0,0,0,0-.28,166.45,166.45,0,0,0-17.09-.5,0,0,0,0,0,0,.09Z" transform="translate(0 -0.33)"/><path class="cls-2" d="M156.58,161.21c9-1,18-1.61,27-2.51.42,0,.42-.7,0-.66-9,1-18,2.16-27,3.06-.06,0-.06.11,0,.1Z" transform="translate(0 -0.33)"/><path class="cls-2" d="M176.43,161.73c-2.83,3.15-7.13,3.38-11,4-4.07.68-8.15,1.26-12.27,1.61-7.83.65-13.81-2.84-20.95-5.49-.6-.22-1,.73-.43,1a73.07,73.07,0,0,0,11.38,5.49c3.95,1.32,7.82.82,11.88.29,6.77-.88,16.72-1.26,21.49-6.88,0,0,0-.12-.07-.07Z" transform="translate(0 -0.33)"/><path class="cls-2" d="M132.16,164.8c6.24,5.8,13.36,11.49,22.28,11.7,10.24.24,19-5.74,26.85-11.61.57-.42,0-1.39-.57-1-7.42,5.08-15.37,10.92-24.65,11.6s-17.06-5-23.78-10.86c-.09-.08-.22,0-.13.13Z" transform="translate(0 -0.33)"/><path class="cls-2" d="M197.35,114.42a5.32,5.32,0,0,1,4,5.57c0,.3.45.3.47,0a5.64,5.64,0,0,0-4.37-5.84c-.18,0-.25.23-.07.27Z" transform="translate(0 -0.33)"/><path class="cls-2" d="M203.09,111.92l2.85,3.32c.08.09.21,0,.13-.13l-2.92-3.26s-.11,0-.07.07Z" transform="translate(0 -0.33)"/><path class="cls-2" d="M208.12,102.6c0,.09,0,0,.06,0s.09-.06.23.12a5.12,5.12,0,0,1,.24.54.74.74,0,0,0,.78.42c.53-.12.85-1,.15-1.17-.48-.08-.67.66-.2.72-.07,0-.41-1-.56-1.11a.86.86,0,0,0-.6-.2c-.41,0-.7.39-.41.75.1.12.27,0,.31-.08Z" transform="translate(0 -0.33)"/><path class="cls-2" d="M206.29,91a13.86,13.86,0,0,0,2,9.79c.36.53,1.39.21,1.11-.47A20.72,20.72,0,0,1,207.5,91c.05-.8-1.12-.76-1.22,0Z" transform="translate(0 -0.33)"/><path class="cls-2" d="M112.39,114.56a15.38,15.38,0,0,0-8.72,2.77c-.4.28,0,.93.38.65a14.88,14.88,0,0,1,8.34-3,.19.19,0,0,0,0-.37Z" transform="translate(0 -0.33)"/><path class="cls-2" d="M122.87,115.82a13,13,0,0,0-11.48,5,.23.23,0,1,0,.37.28A12.63,12.63,0,0,1,122.87,116c.12,0,.12-.18,0-.19Z" transform="translate(0 -0.33)"/><path class="cls-2" d="M100.1,173.69c-1.19,7-2,14.44-.58,21.51,1.4,6.78,5.36,12.81,10,17.82,4.85,5.23,10.6,9.47,16.28,13.72,3.45,2.59,6.91,5.17,10.16,8s5.63,6,8.62,8.85a1.18,1.18,0,0,0,1.84-1.42c-2.94-5.83-9-10.43-14.09-14.34-5.39-4.17-11.07-8-16.2-12.46-5.49-4.83-10.56-10.53-13-17.53-2.74-7.79-2.52-16-2.75-24.13,0-.15-.25-.2-.28,0Z" transform="translate(0 -0.33)"/><path class="cls-2" d="M183.6,243.65c7.19-4.5,10.8-15,11.78-23a48.5,48.5,0,0,0-.61-14.37c-1.29-7.38-3.1-15.38,2.19-21.71l-1.49-.39c3.86,11.39,4.56,22.52,4.59,34.43,0,3.82.23,7.84,1.92,11.34.72,1.48,1.87,2.53,2.69,3.9l1,1.13-1,7.77c-1,1.05-4.35,1.39-5.83,1.63l.43,1.56c4.64-1.47,13.73-3.28,15.61-8.71,2.58-7.47-6.21-13.49-4.86-21a.52.52,0,0,0-1-.27c-1.32,4.5,1,8.15,2.84,12.12s3.22,9.18-1.47,11.82c-3.53,2-7.73,3.2-11.55,4.5a.81.81,0,0,0,.43,1.56c3.67-.67,8.56-1.91,9.43-6.24a6.05,6.05,0,0,0-1-4.44c-1.93-3.22-4.57-5.36-5.44-9.29-1.5-6.81-.1-14.18-.67-21.11a88.16,88.16,0,0,0-4.47-21.15.9.9,0,0,0-1.49-.39c-6.39,7.65-3.51,17-2.25,25.92,1.71,12.05-1.59,25.17-10.18,34-.22.22.06.62.34.44Z" transform="translate(0 -0.33)"/><path class="cls-2" d="M195.95,195.13c19.65,6.17,39.92,10.34,60.25,13.58,4.79.76,9.82,1.15,14.42,2.75,5,1.72,9.11,4.91,13.74,7.27a35,35,0,0,0,22.38,3.42.71.71,0,0,0-.19-1.38c-10.77.86-18.94-2.32-28.14-7.53-7.75-4.39-15.94-5.13-24.63-6.49-19.45-3-38.62-7.4-57.77-11.9a.14.14,0,0,0-.07.27Z" transform="translate(0 -0.33)"/><path class="cls-2" d="M26,221.53c-3.89.34-6.84,2.09-10.1,4.14C10.94,228.79,6,230,.59,231.74a.85.85,0,0,0,.22,1.66c10.08.08,15.92-9.7,25.27-11,.47-.07.36-.87-.11-.83Z" transform="translate(0 -0.33)"/><path class="cls-2" d="M137,237.74c10.25,1.72,11.39,12.4,15.19,20.07,3.44,6.93,9,2.67,14.84,2.67a.8.8,0,0,0,0-1.59c-5.44-.23-10.84,3.65-13.76-3.62-1.21-3-2.11-6.13-3.6-9-2.6-5.07-6.67-8.86-12.59-9.14-.36,0-.46.58-.09.64Z" transform="translate(0 -0.33)"/><path class="cls-2" d="M196.81,240.9c-9.5,6.9-18.95,14.38-31,15.81-.76.09-1.4,1-.69,1.67,3.74,3.31,7.91,2.93,12.63,3.09,8.63.28,11.67,5.84,15.11,12.76.4.81,1.72.24,1.46-.61-1.37-4.49-3.69-9-7.65-11.79-6.13-4.26-14.49.11-20.16-4.82l-.43,1.64c12.15-1.79,22.14-9.34,31.08-17.3.23-.21-.08-.63-.34-.44Z" transform="translate(0 -0.33)"/><path class="cls-2" d="M158.79,259.12a271.09,271.09,0,0,0-32,11.3c-.58.25-.16,1.27.43,1,10.42-4.29,21-8.25,31.71-11.78a.28.28,0,0,0-.15-.54Z" transform="translate(0 -0.33)"/><path class="cls-2" d="M167.38,264a24.9,24.9,0,0,0-13.52,6l1.95-.25c-14.4-7.7-29.94-15.06-45.68-19.56-1.35-.39-2.27,1.65-1,2.31,14.54,7.47,30,13.62,45,20a1.66,1.66,0,0,0,1.95-.25,23.68,23.68,0,0,1,11.35-7.51c.38-.12.34-.79-.1-.74Z" transform="translate(0 -0.33)"/><path class="cls-2" d="M111.18,261.65c5.07,5,4.26,11.44,4.78,17.89a.66.66,0,0,0,1.31,0c.48-6.28-.9-13.86-5.83-18.16-.18-.16-.44.09-.27.27Z" transform="translate(0 -0.33)"/><path class="cls-2" d="M169.17,104.36A24.33,24.33,0,0,0,173.86,122c.32.42,1,0,.73-.43a31.3,31.3,0,0,1-5.32-17.25c0-.06-.09-.06-.09,0Z" transform="translate(0 -0.33)"/><path class="cls-2" d="M133.43,144.49c-3.12,1.25-6.37,2.35-9.42,3.76a7.58,7.58,0,0,0-3.92,3.35,7.44,7.44,0,0,0,1.81,9.13c.28.22.67-.15.4-.4-3.17-2.87-3.43-8.1.16-10.77,3.09-2.3,7.47-3.48,11-5,0,0,0-.11,0-.09Z" transform="translate(0 -0.33)"/><path class="cls-2" d="M190.11,142.71c10.24,8.38,2.85,21.43-4.55,28.68-.26.25.14.65.4.4,7.64-7.4,15-20.85,4.28-29.21-.09-.07-.23.06-.13.13Z" transform="translate(0 -0.33)"/></g></g></svg>