<?xml version="1.0" encoding="utf-8"?>
<!-- Generator: Adobe Illustrator 20.1.0, SVG Export Plug-In . SVG Version: 6.00 Build 0)  -->
<!DOCTYPE svg PUBLIC "-//W3C//DTD SVG 1.1//EN" "http://www.w3.org/Graphics/SVG/1.1/DTD/svg11.dtd">
<svg version="1.1" id="Layer_1" xmlns="http://www.w3.org/2000/svg" xmlns:xlink="http://www.w3.org/1999/xlink" x="0px" y="0px"
	 viewBox="0 0 2616 1540" style="enable-background:new 0 0 2616 1540;" xml:space="preserve">
<style type="text/css">
	.st0{fill:#4B4E53;}
	.st1{fill:#A5B993;}
	.st2{stroke:#FFFFFF;stroke-width:2;stroke-miterlimit:10;}
	.st3{fill:none;stroke:#FFFFFF;stroke-width:2;stroke-miterlimit:10;}
	.st4{fill:#FFFFFF;}
	.st5{clip-path:url(#SVGID_2_);fill:#A5B993;}
	.st6{clip-path:url(#SVGID_4_);fill:#A5B993;}
</style>
<rect x="-384.1" y="-4960.2" class="st0" width="2616" height="1540"/>
<g>
	<path class="st1" d="M913.4-4596.2c-10.7,0-20.9,0.3-31-0.1c-4.7-0.2-8.7-2.3-10.7-6c-4.5-8.4-37.5-73.2-38.9-75.8
		c-0.3-0.5-0.2-2.2,2-2.2c8.8,0,17.6-0.1,26.4,0c6.1,0.1,10.7,2.3,13,6.6C877.6-4667.7,913.1-4597.2,913.4-4596.2"/>
	<path class="st1" d="M972.5-4596.2c-10.7,0-20.9,0.3-31-0.1c-4.7-0.2-8.7-2.3-10.7-6c-4.5-8.4-37.5-73.2-38.9-75.8
		c-0.3-0.5-0.2-2.2,2-2.2c8.8,0,17.6-0.1,26.4,0c6.1,0.1,10.7,2.3,13,6.6C936.7-4667.7,972.2-4597.2,972.5-4596.2"/>
	<path class="st1" d="M1006.8-4680.1L1006.8-4680.1c-1.3-0.2-9.7-0.3-18-0.3c-6,0-10.5,3-13.4,8.4c-4.1,7.8-8,15.7-12,23.5
		c-1,2,0.9,2.8,1.6,2.9c1.3,0.2,9.7,0.3,18,0.3c6,0,10.5-3,13.4-8.4c4.1-7.8,8-15.7,12-23.5
		C1009.4-4679.2,1007.5-4680.1,1006.8-4680.1"/>
</g>
<line class="st2" x1="923.9" y1="-4523.6" x2="923.9" y2="-4361.6"/>
<line class="st2" x1="-11.8" y1="-4133" x2="-11.8" y2="-3971.1"/>
<line class="st2" x1="311.3" y1="-4133" x2="311.3" y2="-3971.1"/>
<line class="st2" x1="595.7" y1="-4133" x2="595.7" y2="-3971.1"/>
<line class="st2" x1="1243.1" y1="-4133" x2="1243.1" y2="-3971.1"/>
<line class="st2" x1="1831.2" y1="-4133" x2="1831.2" y2="-3971.1"/>
<line class="st2" x1="923.9" y1="-4133" x2="923.9" y2="-3971.1"/>
<line class="st3" x1="1831.2" y1="-4361.6" x2="-11.8" y2="-4361.6"/>
<rect x="-164.9" y="-4271.3" style="fill:none;" width="284.4" height="180.6"/>
<text transform="matrix(1 0 0 1 -113.8837 -4250.2705)"><tspan x="0" y="0" class="st4" style="font-family:'WeissenhofGrotesk-Regular'; font-size:30px;">CAPITAL FOR </tspan><tspan x="-27.1" y="37" class="st4" style="font-family:'WeissenhofGrotesk-Regular'; font-size:30px;">INITIAL BUILD OR </tspan><tspan x="10.8" y="74" class="st4" style="font-family:'WeissenhofGrotesk-Regular'; font-size:30px;">EXPANSION</tspan></text>
<rect x="169.1" y="-4271.3" style="fill:none;" width="284.4" height="180.6"/>
<text transform="matrix(1 0 0 1 201.2955 -4250.2705)"><tspan x="0" y="0" class="st4" style="font-family:'WeissenhofGrotesk-Regular'; font-size:30px;">CONSTRUCTION</tspan><tspan x="7.8" y="37" class="st4" style="font-family:'WeissenhofGrotesk-Regular'; font-size:30px;">MANAGEMENT</tspan></text>
<rect x="453.5" y="-4271.3" style="fill:none;" width="284.4" height="180.6"/>
<text transform="matrix(1 0 0 1 512.7677 -4250.2705)"><tspan x="0" y="0" class="st4" style="font-family:'WeissenhofGrotesk-Regular'; font-size:30px;">GENETICS &amp;  </tspan><tspan x="-10.5" y="37" class="st4" style="font-family:'WeissenhofGrotesk-Regular'; font-size:30px;">CULTIVATION  </tspan><tspan x="7.2" y="74" class="st4" style="font-family:'WeissenhofGrotesk-Regular'; font-size:30px;">EXPERTISE</tspan></text>
<rect x="1100.9" y="-4271.3" style="fill:none;" width="284.4" height="180.6"/>
<text transform="matrix(1 0 0 1 1123.761 -4250.2705)"><tspan x="0" y="0" class="st4" style="font-family:'WeissenhofGrotesk-Regular'; font-size:30px;">BRAND BUILDING</tspan><tspan x="43.6" y="37" class="st4" style="font-family:'WeissenhofGrotesk-Regular'; font-size:30px;">EXPERTISE</tspan></text>
<line class="st2" x1="1527.5" y1="-4133" x2="1527.5" y2="-3971.1"/>
<path class="st2" d="M923.9-3971.5"/>
<path class="st2" d="M1831.2-4133.5"/>
<rect x="1385.3" y="-4271.3" style="fill:none;" width="284.4" height="180.6"/>
<text transform="matrix(1 0 0 1 1467.8733 -4250.2705)"><tspan x="0" y="0" class="st4" style="font-family:'WeissenhofGrotesk-Regular'; font-size:30px;">PATIENT </tspan><tspan x="-2.5" y="37" class="st4" style="font-family:'WeissenhofGrotesk-Regular'; font-size:30px;">GROWTH</tspan></text>
<rect x="1689" y="-4271.3" style="fill:none;" width="284.4" height="180.6"/>
<text transform="matrix(1 0 0 1 1693.3406 -4250.2705)"><tspan x="0" y="0" class="st4" style="font-family:'WeissenhofGrotesk-Regular'; font-size:30px;">LEGAL &amp; FINANCIAL  </tspan><tspan x="62.1" y="37" class="st4" style="font-family:'WeissenhofGrotesk-Regular'; font-size:30px;">EXPERTISE</tspan></text>
<rect x="781.7" y="-4271.3" style="fill:none;" width="284.4" height="180.6"/>
<text transform="matrix(1 0 0 1 805.9255 -4250.2705)"><tspan x="0" y="0" class="st4" style="font-family:'WeissenhofGrotesk-Regular'; font-size:30px;">ACCESS TO LESS  </tspan><tspan x="-12.3" y="37" class="st4" style="font-family:'WeissenhofGrotesk-Regular'; font-size:30px;">DILUTIVE FUNDING</tspan></text>
<rect x="781.7" y="-3728.3" style="fill:none;" width="284.4" height="180.6"/>
<text transform="matrix(1 0 0 1 840.8904 -3707.3125)"><tspan x="0" y="0" class="st1" style="font-family:'WeissenhofGrotesk-Regular'; font-size:30px;">STREAMING  </tspan><tspan x="17.4" y="37" class="st1" style="font-family:'WeissenhofGrotesk-Regular'; font-size:30px;">PARTNER </tspan></text>
<line class="st2" x1="923.9" y1="-4133" x2="923.9" y2="-3971.1"/>
<g>
	<defs>
		<rect id="SVGID_1_" x="865.2" y="-3885.8" width="114.4" height="107.6"/>
	</defs>
	<clipPath id="SVGID_2_">
		<use xlink:href="#SVGID_1_"  style="overflow:visible;"/>
	</clipPath>
	<path class="st5" d="M869.8-3861.8c-0.2-0.1-0.5-0.1-0.7,0c-0.2,0.1-0.3,0.4-0.2,0.6c3.7,16,11.7,29.9,23.9,41.4
		c7.1,6.7,14.2,11.2,19.3,14.1c-8.2-3.1-22.2-7.5-37.4-7.5c-3,0-6,0.2-8.9,0.5c-0.2,0-0.5,0.2-0.5,0.4c-0.1,0.2,0,0.5,0.2,0.7
		c11.6,9.5,24.4,14.3,38,14.3c3.7,0,6.9-0.4,9.4-0.8c-6.5,2.4-17.1,7.4-25.8,17.8c-0.2,0.2-0.2,0.5,0,0.7c0.1,0.2,0.4,0.3,0.7,0.3
		c10.4-2.6,18.8-6.1,25.1-10.4c4.8-3.3,7.1-6.2,8.2-7.7c0.1,2.8-0.1,9.8-0.2,13.5c-0.1,4.7-0.1,4.7,0,4.9c0.2,0.3,1.1,0.8,1.6,0.8
		c0.5,0,1.4-0.4,1.7-0.8c0.1-0.2,0.1-0.2,0-4.6c-0.1-3.8-0.4-11-0.2-13.8c1.1,1.5,3.4,4.4,8.2,7.7c6.3,4.3,14.7,7.8,25.1,10.4
		c0.3,0.1,0.5,0,0.7-0.3c0.1-0.2,0.1-0.5,0-0.7c-8.7-10.4-19.3-15.4-25.8-17.8c2.5,0.4,5.7,0.8,9.4,0.8c13.7,0,26.5-4.8,38-14.3
		c0.2-0.2,0.3-0.4,0.2-0.7c-0.1-0.2-0.3-0.4-0.5-0.4c-2.9-0.4-5.8-0.5-8.9-0.5c-15.2,0-29.2,4.4-37.4,7.5c5-2.8,12.2-7.4,19.3-14.1
		c12.2-11.5,20.2-25.4,23.9-41.4c0.1-0.2,0-0.5-0.2-0.6c-0.2-0.1-0.5-0.2-0.7,0c-28.4,17.1-43,41.8-48.9,52.4
		c1.6-4.8,3.9-12.6,4.8-22.6c1.7-17.6-1-35.6-7.9-53.3c-0.1-0.2-0.3-0.4-0.6-0.4c-0.3,0-0.5,0.2-0.6,0.4
		c-6.9,17.8-9.6,35.7-7.9,53.4c1,10,3.2,17.9,4.8,22.6C912.8-3820,898.2-3844.7,869.8-3861.8"/>
</g>
<polygon class="st4" points="923.9,-4152.4 908.8,-4126.1 939.1,-4126.1 "/>
<polygon class="st4" points="923.9,-3955.6 939.1,-3981.9 908.8,-3981.9 "/>
<polygon class="st4" points="595.7,-3955.6 610.8,-3981.9 580.5,-3981.9 "/>
<polygon class="st4" points="311.3,-3955.6 326.4,-3981.9 296.1,-3981.9 "/>
<polygon class="st4" points="1243.1,-3955.6 1258.3,-3981.9 1227.9,-3981.9 "/>
<polygon class="st4" points="1527.5,-3955.6 1542.7,-3981.9 1512.4,-3981.9 "/>
<polygon class="st4" points="1831.2,-3955.6 1846.3,-3981.9 1816,-3981.9 "/>
<polygon class="st4" points="-11.8,-3955.6 3.4,-3981.9 -26.9,-3981.9 "/>
<line class="st3" x1="-11.8" y1="-4361.6" x2="-11.8" y2="-4301.1"/>
<line class="st3" x1="1831.2" y1="-4361.6" x2="1831.2" y2="-4301.1"/>
<title>Asset 9 1</title>
<g>
	<path class="st1" d="M1303,363.9c-10.7,0-20.9,0.3-31-0.1c-4.7-0.2-8.7-2.3-10.7-6c-4.5-8.4-37.5-73.2-38.9-75.8
		c-0.3-0.5-0.2-2.2,2-2.2c8.8,0,17.6-0.1,26.4,0c6.1,0.1,10.7,2.3,13,6.6C1267.2,292.5,1302.7,362.9,1303,363.9"/>
	<path class="st1" d="M1362.1,363.9c-10.7,0-20.9,0.3-31-0.1c-4.7-0.2-8.7-2.3-10.7-6c-4.5-8.4-37.5-73.2-38.9-75.8
		c-0.3-0.5-0.2-2.2,2-2.2c8.8,0,17.6-0.1,26.4,0c6.1,0.1,10.7,2.3,13,6.6C1326.3,292.5,1361.8,362.9,1362.1,363.9"/>
	<path class="st1" d="M1396.3,280.1L1396.3,280.1c-1.3-0.2-9.7-0.3-18-0.3c-6,0-10.5,3-13.4,8.4c-4.1,7.8-8,15.7-12,23.5
		c-1,2,0.9,2.8,1.6,2.9c1.3,0.2,9.7,0.3,18,0.3c6,0,10.5-3,13.4-8.4c4.1-7.8,8-15.7,12-23.5C1399,281,1397,280.1,1396.3,280.1"/>
</g>
<line class="st2" x1="1313.5" y1="436.6" x2="1313.5" y2="598.5"/>
<line class="st2" x1="377.8" y1="827.1" x2="377.8" y2="989.1"/>
<line class="st2" x1="700.8" y1="827.1" x2="700.8" y2="989.1"/>
<line class="st2" x1="985.2" y1="827.1" x2="985.2" y2="989.1"/>
<line class="st2" x1="1632.7" y1="827.1" x2="1632.7" y2="989.1"/>
<line class="st2" x1="2220.7" y1="827.1" x2="2220.7" y2="989.1"/>
<line class="st2" x1="1313.5" y1="827.1" x2="1313.5" y2="989.1"/>
<line class="st3" x1="2220.7" y1="598.5" x2="377.8" y2="598.5"/>
<g>
	<path class="st4" d="M294.4,703.2c-0.2,3.7-3.2,7-7.5,7c-4.4,0-7.7-3.2-7.7-8.2v-5.2c0-5,3.3-8.2,7.7-8.2c4.4,0,7.1,3,7.5,6.7
		c0,0.3-0.1,0.4-0.4,0.4h-1.5c-0.2,0-0.3-0.1-0.4-0.4c-0.4-2.5-2.2-4.6-5.2-4.6s-5.4,2.2-5.4,6.1v5.2c0,3.8,2.4,6.1,5.4,6.1
		c3,0,4.9-2,5.2-4.9c0-0.2,0.1-0.4,0.4-0.4h1.6C294.3,702.8,294.4,703,294.4,703.2z"/>
	<path class="st4" d="M314.7,709.6c0,0.2-0.1,0.3-0.4,0.3h-1.5c-0.3,0-0.4-0.2-0.5-0.3l-1.9-5.3h-9.1l-1.9,5.3
		c-0.1,0.3-0.3,0.3-0.4,0.3h-1.5c-0.2,0-0.4-0.2-0.4-0.3c0-0.2,0.1-0.4,0.2-0.6l7.1-19.6c0.1-0.3,0.2-0.5,0.5-0.5h1.7
		c0.3,0,0.5,0.2,0.5,0.4l7.3,19.8C314.6,709.2,314.7,709.4,314.7,709.6z M309.7,702.2l-3.8-10.7l-3.8,10.7H309.7z"/>
	<path class="st4" d="M326.3,702h-5.4v7.4c0,0.3-0.2,0.5-0.5,0.5h-1.3c-0.3,0-0.5-0.2-0.5-0.5v-20c0-0.3,0.2-0.5,0.5-0.5h7.2
		c3.8,0,6.5,2.1,6.5,6.1v0.6C332.8,699.6,330.1,702,326.3,702z M320.9,691v8.8h5.3c2.2,0,4.3-1.3,4.3-4.2V695c0-3-2.1-4-4.3-4H320.9
		z"/>
	<path class="st4" d="M337.1,709.4v-20c0-0.3,0.2-0.5,0.5-0.5h1.3c0.3,0,0.5,0.2,0.5,0.5v20c0,0.3-0.2,0.5-0.5,0.5h-1.3
		C337.3,709.9,337.1,709.7,337.1,709.4z"/>
	<path class="st4" d="M343.2,690.5v-1.1c0-0.3,0.2-0.5,0.5-0.5h14.9c0.3,0,0.5,0.2,0.5,0.5v1.1c0,0.3-0.2,0.5-0.5,0.5h-6.3v18.4
		c0,0.3-0.2,0.5-0.5,0.5h-1.3c-0.3,0-0.5-0.2-0.5-0.5V691h-6.3C343.4,691,343.2,690.8,343.2,690.5z"/>
	<path class="st4" d="M376,709.6c0,0.2-0.1,0.3-0.4,0.3h-1.5c-0.3,0-0.4-0.2-0.5-0.3l-1.9-5.3h-9.1l-1.9,5.3
		c-0.1,0.3-0.3,0.3-0.4,0.3h-1.5c-0.2,0-0.4-0.2-0.4-0.3c0-0.2,0.1-0.4,0.2-0.6l7.1-19.6c0.1-0.3,0.2-0.5,0.5-0.5h1.7
		c0.3,0,0.5,0.2,0.5,0.4l7.3,19.8C375.9,709.2,376,709.4,376,709.6z M370.9,702.2l-3.8-10.7l-3.8,10.7H370.9z"/>
	<path class="st4" d="M392.5,709.9h-12.1c-0.3,0-0.5-0.2-0.5-0.5v-20c0-0.3,0.2-0.5,0.5-0.5h1.3c0.3,0,0.5,0.2,0.5,0.5v18.4h10.4
		c0.3,0,0.5,0.2,0.5,0.5v1.1C393,709.7,392.8,709.9,392.5,709.9z"/>
	<path class="st4" d="M416.9,691h-10.2v7.8h8.2c0.3,0,0.5,0.2,0.5,0.5v1.1c0,0.3-0.2,0.5-0.5,0.5h-8.2v8.4c0,0.3-0.2,0.5-0.5,0.5
		H405c-0.3,0-0.5-0.2-0.5-0.5v-20c0-0.3,0.2-0.5,0.5-0.5h11.9c0.3,0,0.5,0.2,0.5,0.5v1.1C417.4,690.8,417.2,691,416.9,691z"/>
	<path class="st4" d="M428,688.6c4.4,0,7.7,3.2,7.7,8.2v5.2c0,5-3.4,8.2-7.7,8.2c-4.4,0-7.7-3.2-7.7-8.2v-5.2
		C420.3,691.8,423.6,688.6,428,688.6z M428,708.1c3,0,5.4-2.2,5.4-6.1v-5.2c0-3.9-2.4-6.1-5.4-6.1s-5.4,2.2-5.4,6.1v5.2
		C422.6,705.8,425,708.1,428,708.1z"/>
	<path class="st4" d="M442.5,709.9h-1.3c-0.3,0-0.5-0.2-0.5-0.5v-20c0-0.3,0.2-0.5,0.5-0.5h7.2c3.8,0,6.5,2,6.5,6v0.5
		c0,2.6-1.4,4.8-4.5,5.7l4.3,8.1c0.1,0.2,0.1,0.3,0.1,0.5c0,0.2-0.1,0.3-0.3,0.3h-1.7c-0.3,0-0.4-0.2-0.5-0.4l-4.2-8.1h-5v8
		C443,709.7,442.8,709.9,442.5,709.9z M448.3,699.2c2.2,0,4.3-1.2,4.3-3.8v-0.5c0-3-2.1-3.9-4.3-3.9H443v8.2H448.3z"/>
	<path class="st4" d="M251.2,746.4v-20c0-0.3,0.2-0.5,0.5-0.5h1.3c0.3,0,0.5,0.2,0.5,0.5v20c0,0.3-0.2,0.5-0.5,0.5h-1.3
		C251.4,746.9,251.2,746.7,251.2,746.4z"/>
	<path class="st4" d="M274.3,726.4v20c0,0.3-0.2,0.5-0.5,0.5h-1c-0.2,0-0.5,0-0.8-0.6l-10.5-16.6v16.7c0,0.3-0.2,0.5-0.5,0.5h-1.2
		c-0.3,0-0.5-0.2-0.5-0.5v-20c0-0.3,0.2-0.5,0.5-0.5h1.5c0.3,0,0.5,0.2,0.6,0.4l10.3,16.3v-16.2c0-0.3,0.2-0.5,0.5-0.5h1.2
		C274,725.9,274.3,726.1,274.3,726.4z"/>
	<path class="st4" d="M280,746.4v-20c0-0.3,0.2-0.5,0.5-0.5h1.3c0.3,0,0.5,0.2,0.5,0.5v20c0,0.3-0.2,0.5-0.5,0.5h-1.3
		C280.2,746.9,280,746.7,280,746.4z"/>
	<path class="st4" d="M286,727.5v-1.1c0-0.3,0.2-0.5,0.5-0.5h14.9c0.3,0,0.5,0.2,0.5,0.5v1.1c0,0.3-0.2,0.5-0.5,0.5h-6.3v18.4
		c0,0.3-0.2,0.5-0.5,0.5h-1.3c-0.3,0-0.5-0.2-0.5-0.5V728h-6.3C286.2,728,286,727.8,286,727.5z"/>
	<path class="st4" d="M305.7,746.4v-20c0-0.3,0.2-0.5,0.5-0.5h1.3c0.3,0,0.5,0.2,0.5,0.5v20c0,0.3-0.2,0.5-0.5,0.5h-1.3
		C305.9,746.9,305.7,746.7,305.7,746.4z"/>
	<path class="st4" d="M329.4,746.6c0,0.2-0.1,0.3-0.4,0.3h-1.5c-0.3,0-0.4-0.2-0.5-0.3l-1.9-5.3H316l-1.9,5.3
		c-0.1,0.3-0.3,0.3-0.4,0.3h-1.5c-0.2,0-0.4-0.2-0.4-0.3c0-0.2,0.1-0.4,0.2-0.6l7.1-19.6c0.1-0.3,0.2-0.5,0.5-0.5h1.7
		c0.3,0,0.5,0.2,0.5,0.4l7.3,19.8C329.3,746.2,329.4,746.4,329.4,746.6z M324.4,739.2l-3.8-10.7l-3.8,10.7H324.4z"/>
	<path class="st4" d="M345.9,746.9h-12.1c-0.3,0-0.5-0.2-0.5-0.5v-20c0-0.3,0.2-0.5,0.5-0.5h1.3c0.3,0,0.5,0.2,0.5,0.5v18.4h10.4
		c0.3,0,0.5,0.2,0.5,0.5v1.1C346.4,746.7,346.2,746.9,345.9,746.9z"/>
	<path class="st4" d="M372.7,740.9v0.4c0,4.3-3.4,5.6-7.1,5.6h-7.2c-0.3,0-0.5-0.2-0.5-0.5v-20c0-0.3,0.2-0.5,0.5-0.5h7.1
		c3.9,0,6.6,1.6,6.6,5.3v0.5c0,2-0.9,3.4-2.8,4.3C371.5,736.8,372.7,738.7,372.7,740.9z M360.2,735h5.5c2.2,0,4.2-0.7,4.2-3.2v-0.5
		c0-2.6-2.1-3.2-4.4-3.2h-5.2V735z M370.4,740.9c0-2.9-2.3-3.8-4.7-3.8h-5.5v7.7h5.5c2.3,0,4.7-0.7,4.7-3.6V740.9z"/>
	<path class="st4" d="M390.1,725.9h1.3c0.3,0,0.5,0.2,0.5,0.5v12.7c0,5-3.1,8.1-7.4,8.1s-7.4-3.1-7.4-8.1v-12.7
		c0-0.3,0.2-0.5,0.5-0.5h1.3c0.3,0,0.5,0.2,0.5,0.5v12.7c0,3.8,2.1,6,5.1,6c2.9,0,5.1-2.2,5.1-6v-12.7
		C389.6,726.1,389.8,725.9,390.1,725.9z"/>
	<path class="st4" d="M397.3,746.4v-20c0-0.3,0.2-0.5,0.5-0.5h1.3c0.3,0,0.5,0.2,0.5,0.5v20c0,0.3-0.2,0.5-0.5,0.5h-1.3
		C397.5,746.9,397.3,746.7,397.3,746.4z"/>
	<path class="st4" d="M417.9,746.9h-12.1c-0.3,0-0.5-0.2-0.5-0.5v-20c0-0.3,0.2-0.5,0.5-0.5h1.3c0.3,0,0.5,0.2,0.5,0.5v18.4h10.4
		c0.3,0,0.5,0.2,0.5,0.5v1.1C418.4,746.7,418.2,746.9,417.9,746.9z"/>
	<path class="st4" d="M422.4,746.4v-20c0-0.3,0.2-0.5,0.5-0.5h6.6c4.4,0,7.7,3.1,7.7,8.2v4.7c0,5-3.4,8.2-7.7,8.2h-6.6
		C422.6,746.9,422.4,746.7,422.4,746.4z M424.7,744.8h4.8c3,0,5.4-2.2,5.4-6.1v-4.6c0-3.8-2.4-6.1-5.4-6.1h-4.8V744.8z"/>
	<path class="st4" d="M456.7,725.6c4.4,0,7.7,3.2,7.7,8.2v5.2c0,5-3.4,8.2-7.7,8.2c-4.4,0-7.7-3.2-7.7-8.2v-5.2
		C449,728.8,452.4,725.6,456.7,725.6z M456.7,745.1c3,0,5.4-2.2,5.4-6.1v-5.2c0-3.9-2.4-6.1-5.4-6.1s-5.4,2.2-5.4,6.1v5.2
		C451.3,742.8,453.7,745.1,456.7,745.1z"/>
	<path class="st4" d="M471.2,746.9h-1.3c-0.3,0-0.5-0.2-0.5-0.5v-20c0-0.3,0.2-0.5,0.5-0.5h7.2c3.8,0,6.5,2,6.5,6v0.5
		c0,2.6-1.4,4.8-4.5,5.7l4.3,8.1c0.1,0.2,0.1,0.3,0.1,0.5c0,0.2-0.1,0.3-0.3,0.3h-1.7c-0.3,0-0.4-0.2-0.5-0.4l-4.2-8.1h-5v8
		C471.7,746.7,471.5,746.9,471.2,746.9z M477,736.2c2.2,0,4.3-1.2,4.3-3.8v-0.5c0-3-2.1-3.9-4.3-3.9h-5.3v8.2H477z"/>
	<path class="st4" d="M302.4,765h-10.2v7.2h8.2c0.3,0,0.5,0.2,0.5,0.5v1.1c0,0.3-0.2,0.5-0.5,0.5h-8.2v7.4h10.2
		c0.3,0,0.5,0.2,0.5,0.5v1.1c0,0.3-0.2,0.5-0.5,0.5h-11.9c-0.3,0-0.5-0.2-0.5-0.5v-20c0-0.3,0.2-0.5,0.5-0.5h11.9
		c0.3,0,0.5,0.2,0.5,0.5v1.1C302.9,764.8,302.7,765,302.4,765z"/>
	<path class="st4" d="M321.6,783.6c0,0.2-0.1,0.3-0.3,0.3h-1.6c-0.4,0-0.6-0.2-0.8-0.4l-5.4-8.3l-5.4,8.3c-0.1,0.2-0.3,0.4-0.7,0.4
		H306c-0.2,0-0.3-0.2-0.3-0.3c0-0.2,0.1-0.3,0.2-0.5l6.4-9.8l-6.2-9.5c-0.1-0.2-0.3-0.4-0.3-0.6c0-0.2,0.1-0.3,0.4-0.3h1.6
		c0.3,0,0.5,0.2,0.7,0.4l5.3,8.1l5.3-8.1c0.2-0.3,0.4-0.4,0.7-0.4h1.5c0.2,0,0.3,0.1,0.3,0.3c0,0.2-0.1,0.4-0.2,0.5l-6.3,9.6
		l6.4,9.7C321.4,783.2,321.6,783.4,321.6,783.6z"/>
	<path class="st4" d="M333.2,776h-5.4v7.4c0,0.3-0.2,0.5-0.5,0.5H326c-0.3,0-0.5-0.2-0.5-0.5v-20c0-0.3,0.2-0.5,0.5-0.5h7.2
		c3.8,0,6.5,2.1,6.5,6.1v0.6C339.7,773.6,337,776,333.2,776z M327.8,765v8.8h5.3c2.2,0,4.3-1.3,4.3-4.2V769c0-3-2.1-4-4.3-4H327.8z"
		/>
	<path class="st4" d="M357.9,783.6c0,0.2-0.1,0.3-0.4,0.3H356c-0.3,0-0.4-0.2-0.5-0.3l-1.9-5.3h-9.1l-1.9,5.3
		c-0.1,0.3-0.3,0.3-0.4,0.3h-1.5c-0.2,0-0.4-0.2-0.4-0.3c0-0.2,0.1-0.4,0.2-0.6l7.1-19.6c0.1-0.3,0.2-0.5,0.5-0.5h1.7
		c0.3,0,0.5,0.2,0.5,0.4l7.3,19.8C357.8,783.2,357.9,783.4,357.9,783.6z M352.9,776.2l-3.8-10.7l-3.8,10.7H352.9z"/>
	<path class="st4" d="M376.9,763.4v20c0,0.3-0.2,0.5-0.5,0.5h-1c-0.2,0-0.5,0-0.8-0.6L364,766.7v16.7c0,0.3-0.2,0.5-0.5,0.5h-1.2
		c-0.3,0-0.5-0.2-0.5-0.5v-20c0-0.3,0.2-0.5,0.5-0.5h1.5c0.3,0,0.5,0.2,0.6,0.4l10.3,16.3v-16.2c0-0.3,0.2-0.5,0.5-0.5h1.2
		C376.7,762.9,376.9,763.1,376.9,763.4z"/>
	<path class="st4" d="M393.6,768.1c-0.1-1.8-1-3.5-4.5-3.5c-2.7,0-4.6,0.7-4.6,3.5c0,6.1,11.9,2.3,11.9,10.2c0,4.3-3.7,5.8-7.2,5.8
		c-5.7,0-7.6-4-7.6-6.4c0-0.3,0.2-0.5,0.5-0.5h1.3c0.3,0,0.5,0.2,0.5,0.5c0.1,1.3,0.9,4.4,5.3,4.4c2.8,0,4.9-1,4.9-3.8
		c0-5.6-11.9-2-11.9-10.2c0-3.8,2.9-5.5,6.9-5.5c5.3,0,6.7,3.3,6.7,5.5c0,0.3-0.2,0.5-0.5,0.5h-1.3
		C393.8,768.6,393.6,768.4,393.6,768.1z"/>
	<path class="st4" d="M401,783.4v-20c0-0.3,0.2-0.5,0.5-0.5h1.3c0.3,0,0.5,0.2,0.5,0.5v20c0,0.3-0.2,0.5-0.5,0.5h-1.3
		C401.2,783.9,401,783.7,401,783.4z"/>
	<path class="st4" d="M416,762.6c4.4,0,7.7,3.2,7.7,8.2v5.2c0,5-3.4,8.2-7.7,8.2c-4.4,0-7.7-3.2-7.7-8.2v-5.2
		C408.3,765.8,411.6,762.6,416,762.6z M416,782.1c3,0,5.4-2.2,5.4-6.1v-5.2c0-3.9-2.4-6.1-5.4-6.1s-5.4,2.2-5.4,6.1v5.2
		C410.6,779.8,413,782.1,416,782.1z"/>
	<path class="st4" d="M443.8,763.4v20c0,0.3-0.2,0.5-0.5,0.5h-1c-0.2,0-0.5,0-0.8-0.6L431,766.7v16.7c0,0.3-0.2,0.5-0.5,0.5h-1.2
		c-0.3,0-0.5-0.2-0.5-0.5v-20c0-0.3,0.2-0.5,0.5-0.5h1.5c0.3,0,0.5,0.2,0.6,0.4l10.3,16.3v-16.2c0-0.3,0.2-0.5,0.5-0.5h1.2
		C443.6,762.9,443.8,763.1,443.8,763.4z"/>
</g>
<g>
	<path class="st4" d="M608.2,703.2c-0.2,3.7-3.2,7-7.5,7c-4.4,0-7.7-3.2-7.7-8.2v-5.2c0-5,3.3-8.2,7.7-8.2c4.4,0,7.1,3,7.5,6.7
		c0,0.3-0.1,0.4-0.4,0.4h-1.5c-0.2,0-0.3-0.1-0.4-0.4c-0.4-2.5-2.2-4.6-5.2-4.6s-5.4,2.2-5.4,6.1v5.2c0,3.8,2.4,6.1,5.4,6.1
		c3,0,4.9-2,5.2-4.9c0-0.2,0.1-0.4,0.4-0.4h1.6C608.1,702.8,608.2,703,608.2,703.2z"/>
	<path class="st4" d="M620.1,688.6c4.4,0,7.7,3.2,7.7,8.2v5.2c0,5-3.4,8.2-7.7,8.2c-4.4,0-7.7-3.2-7.7-8.2v-5.2
		C612.4,691.8,615.7,688.6,620.1,688.6z M620.1,708.1c3,0,5.4-2.2,5.4-6.1v-5.2c0-3.9-2.4-6.1-5.4-6.1s-5.4,2.2-5.4,6.1v5.2
		C614.7,705.8,617.1,708.1,620.1,708.1z"/>
	<path class="st4" d="M647.9,689.4v20c0,0.3-0.2,0.5-0.5,0.5h-1c-0.2,0-0.5,0-0.8-0.6L635,692.7v16.7c0,0.3-0.2,0.5-0.5,0.5h-1.2
		c-0.3,0-0.5-0.2-0.5-0.5v-20c0-0.3,0.2-0.5,0.5-0.5h1.5c0.3,0,0.5,0.2,0.6,0.4l10.3,16.3v-16.2c0-0.3,0.2-0.5,0.5-0.5h1.2
		C647.7,688.9,647.9,689.1,647.9,689.4z"/>
	<path class="st4" d="M664.6,694.1c-0.1-1.8-1-3.5-4.5-3.5c-2.7,0-4.6,0.7-4.6,3.5c0,6.1,11.9,2.3,11.9,10.2c0,4.3-3.7,5.8-7.2,5.8
		c-5.7,0-7.6-4-7.6-6.4c0-0.3,0.2-0.5,0.5-0.5h1.3c0.3,0,0.5,0.2,0.5,0.5c0.1,1.3,0.9,4.4,5.3,4.4c2.8,0,4.9-1,4.9-3.8
		c0-5.6-11.9-2-11.9-10.2c0-3.8,2.9-5.5,6.9-5.5c5.3,0,6.7,3.3,6.7,5.5c0,0.3-0.2,0.5-0.5,0.5h-1.3
		C664.8,694.6,664.6,694.4,664.6,694.1z"/>
	<path class="st4" d="M669.9,690.5v-1.1c0-0.3,0.2-0.5,0.5-0.5h14.9c0.3,0,0.5,0.2,0.5,0.5v1.1c0,0.3-0.2,0.5-0.5,0.5H679v18.4
		c0,0.3-0.2,0.5-0.5,0.5h-1.3c-0.3,0-0.5-0.2-0.5-0.5V691h-6.3C670.1,691,669.9,690.8,669.9,690.5z"/>
	<path class="st4" d="M691.3,709.9h-1.3c-0.3,0-0.5-0.2-0.5-0.5v-20c0-0.3,0.2-0.5,0.5-0.5h7.2c3.8,0,6.5,2,6.5,6v0.5
		c0,2.6-1.4,4.8-4.5,5.7l4.3,8.1c0.1,0.2,0.1,0.3,0.1,0.5c0,0.2-0.1,0.3-0.3,0.3h-1.7c-0.3,0-0.4-0.2-0.5-0.4l-4.2-8.1h-5v8
		C691.8,709.7,691.6,709.9,691.3,709.9z M697.1,699.2c2.2,0,4.3-1.2,4.3-3.8v-0.5c0-3-2.1-3.9-4.3-3.9h-5.3v8.2H697.1z"/>
	<path class="st4" d="M721.1,688.9h1.3c0.3,0,0.5,0.2,0.5,0.5v12.7c0,5-3.1,8.1-7.4,8.1s-7.4-3.1-7.4-8.1v-12.7
		c0-0.3,0.2-0.5,0.5-0.5h1.3c0.3,0,0.5,0.2,0.5,0.5v12.7c0,3.8,2.1,6,5.1,6c2.9,0,5.1-2.2,5.1-6v-12.7
		C720.7,689.1,720.9,688.9,721.1,688.9z"/>
	<path class="st4" d="M742.9,703.2c-0.2,3.7-3.2,7-7.5,7c-4.4,0-7.7-3.2-7.7-8.2v-5.2c0-5,3.3-8.2,7.7-8.2c4.4,0,7.1,3,7.5,6.7
		c0,0.3-0.1,0.4-0.4,0.4h-1.5c-0.2,0-0.3-0.1-0.4-0.4c-0.4-2.5-2.2-4.6-5.2-4.6s-5.4,2.2-5.4,6.1v5.2c0,3.8,2.4,6.1,5.4,6.1
		c3,0,4.9-2,5.2-4.9c0-0.2,0.1-0.4,0.4-0.4h1.6C742.7,702.8,742.9,703,742.9,703.2z"/>
	<path class="st4" d="M745.4,690.5v-1.1c0-0.3,0.2-0.5,0.5-0.5h14.9c0.3,0,0.5,0.2,0.5,0.5v1.1c0,0.3-0.2,0.5-0.5,0.5h-6.3v18.4
		c0,0.3-0.2,0.5-0.5,0.5h-1.3c-0.3,0-0.5-0.2-0.5-0.5V691h-6.3C745.6,691,745.4,690.8,745.4,690.5z"/>
	<path class="st4" d="M765.1,709.4v-20c0-0.3,0.2-0.5,0.5-0.5h1.3c0.3,0,0.5,0.2,0.5,0.5v20c0,0.3-0.2,0.5-0.5,0.5h-1.3
		C765.3,709.9,765.1,709.7,765.1,709.4z"/>
	<path class="st4" d="M780.1,688.6c4.4,0,7.7,3.2,7.7,8.2v5.2c0,5-3.4,8.2-7.7,8.2c-4.4,0-7.7-3.2-7.7-8.2v-5.2
		C772.4,691.8,775.7,688.6,780.1,688.6z M780.1,708.1c3,0,5.4-2.2,5.4-6.1v-5.2c0-3.9-2.4-6.1-5.4-6.1s-5.4,2.2-5.4,6.1v5.2
		C774.7,705.8,777.1,708.1,780.1,708.1z"/>
	<path class="st4" d="M807.9,689.4v20c0,0.3-0.2,0.5-0.5,0.5h-1c-0.2,0-0.5,0-0.8-0.6l-10.5-16.6v16.7c0,0.3-0.2,0.5-0.5,0.5h-1.2
		c-0.3,0-0.5-0.2-0.5-0.5v-20c0-0.3,0.2-0.5,0.5-0.5h1.5c0.3,0,0.5,0.2,0.6,0.4l10.3,16.3v-16.2c0-0.3,0.2-0.5,0.5-0.5h1.2
		C807.7,688.9,807.9,689.1,807.9,689.4z"/>
	<path class="st4" d="M621.4,726.4v20c0,0.3-0.2,0.5-0.5,0.5h-1.2c-0.3,0-0.5-0.2-0.5-0.5v-17.3l-6.7,17.4c-0.1,0.2-0.3,0.4-0.5,0.4
		h-1.2c-0.3,0-0.4-0.2-0.5-0.3l-6.7-17.5v17.3c0,0.3-0.2,0.5-0.5,0.5H602c-0.3,0-0.5-0.2-0.5-0.5v-20c0-0.3,0.2-0.5,0.5-0.5h2.4
		c0.2,0,0.4,0.1,0.4,0.3l6.6,17.5l6.7-17.5c0.1-0.2,0.2-0.3,0.4-0.3h2.3C621.2,725.9,621.4,726.1,621.4,726.4z"/>
	<path class="st4" d="M642.8,746.6c0,0.2-0.1,0.3-0.4,0.3h-1.5c-0.3,0-0.4-0.2-0.5-0.3l-1.9-5.3h-9.1l-1.9,5.3
		c-0.1,0.3-0.3,0.3-0.4,0.3h-1.5c-0.2,0-0.4-0.2-0.4-0.3c0-0.2,0.1-0.4,0.2-0.6l7.1-19.6c0.1-0.3,0.2-0.5,0.5-0.5h1.7
		c0.3,0,0.5,0.2,0.5,0.4l7.3,19.8C642.7,746.2,642.8,746.4,642.8,746.6z M637.8,739.2l-3.8-10.7l-3.8,10.7H637.8z"/>
	<path class="st4" d="M661.8,726.4v20c0,0.3-0.2,0.5-0.5,0.5h-1c-0.2,0-0.5,0-0.8-0.6l-10.5-16.6v16.7c0,0.3-0.2,0.5-0.5,0.5h-1.2
		c-0.3,0-0.5-0.2-0.5-0.5v-20c0-0.3,0.2-0.5,0.5-0.5h1.5c0.3,0,0.5,0.2,0.6,0.4l10.3,16.3v-16.2c0-0.3,0.2-0.5,0.5-0.5h1.2
		C661.6,725.9,661.8,726.1,661.8,726.4z"/>
	<path class="st4" d="M683.2,746.6c0,0.2-0.1,0.3-0.4,0.3h-1.5c-0.3,0-0.4-0.2-0.5-0.3l-1.9-5.3h-9.1l-1.9,5.3
		c-0.1,0.3-0.3,0.3-0.4,0.3H666c-0.2,0-0.4-0.2-0.4-0.3c0-0.2,0.1-0.4,0.2-0.6l7.1-19.6c0.1-0.3,0.2-0.5,0.5-0.5h1.7
		c0.3,0,0.5,0.2,0.5,0.4l7.3,19.8C683.1,746.2,683.2,746.4,683.2,746.6z M678.2,739.2l-3.8-10.7l-3.8,10.7H678.2z"/>
	<path class="st4" d="M693.3,737.8v-1.1c0-0.3,0.2-0.5,0.5-0.5h6.8c0.3,0,0.5,0.2,0.5,0.5v9.7c0,0.3-0.2,0.5-0.5,0.5h-1
		c-0.3,0-0.5-0.2-0.5-0.5v-2.1c-1,1.8-3.1,2.9-5.5,2.9c-4.8,0-7.6-3.7-7.6-8.2v-5.2c0-5,3.3-8.2,7.7-8.2c4.4,0,6.9,2.9,7.5,6.4
		c0.1,0.2,0.1,0.4,0.1,0.5c0,0.2-0.1,0.3-0.3,0.3h-1.6c-0.2,0-0.4-0.1-0.4-0.4c-0.3-2.2-2-4.6-5.2-4.6c-3,0-5.4,2.2-5.4,6.1v5.2
		c0,3.8,2.5,6.1,5.5,6.1c3.8,0,5.3-3.2,5.3-5.2v-1.6h-5.2C693.5,738.3,693.3,738.1,693.3,737.8z"/>
	<path class="st4" d="M719.1,728h-10.2v7.2h8.2c0.3,0,0.5,0.2,0.5,0.5v1.1c0,0.3-0.2,0.5-0.5,0.5h-8.2v7.4h10.2
		c0.3,0,0.5,0.2,0.5,0.5v1.1c0,0.3-0.2,0.5-0.5,0.5h-11.9c-0.3,0-0.5-0.2-0.5-0.5v-20c0-0.3,0.2-0.5,0.5-0.5h11.9
		c0.3,0,0.5,0.2,0.5,0.5v1.1C719.6,727.8,719.4,728,719.1,728z"/>
	<path class="st4" d="M744.1,726.4v20c0,0.3-0.2,0.5-0.5,0.5h-1.2c-0.3,0-0.5-0.2-0.5-0.5v-17.3l-6.7,17.4c-0.1,0.2-0.3,0.4-0.5,0.4
		h-1.2c-0.3,0-0.4-0.2-0.5-0.3l-6.7-17.5v17.3c0,0.3-0.2,0.5-0.5,0.5h-1.2c-0.3,0-0.5-0.2-0.5-0.5v-20c0-0.3,0.2-0.5,0.5-0.5h2.4
		c0.2,0,0.4,0.1,0.4,0.3l6.6,17.5l6.7-17.5c0.1-0.2,0.2-0.3,0.4-0.3h2.3C743.9,725.9,744.1,726.1,744.1,726.4z"/>
	<path class="st4" d="M762.2,728h-10.2v7.2h8.2c0.3,0,0.5,0.2,0.5,0.5v1.1c0,0.3-0.2,0.5-0.5,0.5h-8.2v7.4h10.2
		c0.3,0,0.5,0.2,0.5,0.5v1.1c0,0.3-0.2,0.5-0.5,0.5h-11.9c-0.3,0-0.5-0.2-0.5-0.5v-20c0-0.3,0.2-0.5,0.5-0.5h11.9
		c0.3,0,0.5,0.2,0.5,0.5v1.1C762.8,727.8,762.5,728,762.2,728z"/>
	<path class="st4" d="M782.4,726.4v20c0,0.3-0.2,0.5-0.5,0.5h-1c-0.2,0-0.5,0-0.8-0.6l-10.5-16.6v16.7c0,0.3-0.2,0.5-0.5,0.5h-1.2
		c-0.3,0-0.5-0.2-0.5-0.5v-20c0-0.3,0.2-0.5,0.5-0.5h1.5c0.3,0,0.5,0.2,0.6,0.4l10.3,16.3v-16.2c0-0.3,0.2-0.5,0.5-0.5h1.2
		C782.2,725.9,782.4,726.1,782.4,726.4z"/>
	<path class="st4" d="M786.2,727.5v-1.1c0-0.3,0.2-0.5,0.5-0.5h14.9c0.3,0,0.5,0.2,0.5,0.5v1.1c0,0.3-0.2,0.5-0.5,0.5h-6.3v18.4
		c0,0.3-0.2,0.5-0.5,0.5h-1.3c-0.3,0-0.5-0.2-0.5-0.5V728h-6.3C786.4,728,786.2,727.8,786.2,727.5z"/>
</g>
<g>
	<path class="st4" d="M911.6,700.8v-1.1c0-0.3,0.2-0.5,0.5-0.5h6.8c0.3,0,0.5,0.2,0.5,0.5v9.7c0,0.3-0.2,0.5-0.5,0.5h-1
		c-0.3,0-0.5-0.2-0.5-0.5v-2.1c-1,1.8-3.1,2.9-5.5,2.9c-4.8,0-7.6-3.7-7.6-8.2v-5.2c0-5,3.3-8.2,7.7-8.2c4.4,0,6.9,2.9,7.5,6.4
		c0.1,0.2,0.1,0.4,0.1,0.5c0,0.2-0.1,0.3-0.3,0.3h-1.6c-0.2,0-0.4-0.1-0.4-0.4c-0.3-2.2-2-4.6-5.2-4.6c-3,0-5.4,2.2-5.4,6.1v5.2
		c0,3.8,2.5,6.1,5.5,6.1c3.8,0,5.3-3.2,5.3-5.2v-1.6h-5.2C911.8,701.3,911.6,701.1,911.6,700.8z"/>
	<path class="st4" d="M937.4,691h-10.2v7.2h8.2c0.3,0,0.5,0.2,0.5,0.5v1.1c0,0.3-0.2,0.5-0.5,0.5h-8.2v7.4h10.2
		c0.3,0,0.5,0.2,0.5,0.5v1.1c0,0.3-0.2,0.5-0.5,0.5h-11.9c-0.3,0-0.5-0.2-0.5-0.5v-20c0-0.3,0.2-0.5,0.5-0.5h11.9
		c0.3,0,0.5,0.2,0.5,0.5v1.1C937.9,690.8,937.7,691,937.4,691z"/>
	<path class="st4" d="M957.5,689.4v20c0,0.3-0.2,0.5-0.5,0.5h-1c-0.2,0-0.5,0-0.8-0.6l-10.5-16.6v16.7c0,0.3-0.2,0.5-0.5,0.5h-1.2
		c-0.3,0-0.5-0.2-0.5-0.5v-20c0-0.3,0.2-0.5,0.5-0.5h1.5c0.3,0,0.5,0.2,0.6,0.4l10.3,16.3v-16.2c0-0.3,0.2-0.5,0.5-0.5h1.2
		C957.3,688.9,957.5,689.1,957.5,689.4z"/>
	<path class="st4" d="M975.7,691h-10.2v7.2h8.2c0.3,0,0.5,0.2,0.5,0.5v1.1c0,0.3-0.2,0.5-0.5,0.5h-8.2v7.4h10.2
		c0.3,0,0.5,0.2,0.5,0.5v1.1c0,0.3-0.2,0.5-0.5,0.5h-11.9c-0.3,0-0.5-0.2-0.5-0.5v-20c0-0.3,0.2-0.5,0.5-0.5h11.9
		c0.3,0,0.5,0.2,0.5,0.5v1.1C976.2,690.8,976,691,975.7,691z"/>
	<path class="st4" d="M978.8,690.5v-1.1c0-0.3,0.2-0.5,0.5-0.5h14.9c0.3,0,0.5,0.2,0.5,0.5v1.1c0,0.3-0.2,0.5-0.5,0.5h-6.3v18.4
		c0,0.3-0.2,0.5-0.5,0.5h-1.3c-0.3,0-0.5-0.2-0.5-0.5V691h-6.3C979,691,978.8,690.8,978.8,690.5z"/>
	<path class="st4" d="M998.5,709.4v-20c0-0.3,0.2-0.5,0.5-0.5h1.3c0.3,0,0.5,0.2,0.5,0.5v20c0,0.3-0.2,0.5-0.5,0.5H999
		C998.7,709.9,998.5,709.7,998.5,709.4z"/>
	<path class="st4" d="M1021,703.2c-0.2,3.7-3.2,7-7.5,7c-4.4,0-7.7-3.2-7.7-8.2v-5.2c0-5,3.3-8.2,7.7-8.2c4.4,0,7.1,3,7.5,6.7
		c0,0.3-0.1,0.4-0.4,0.4h-1.5c-0.2,0-0.3-0.1-0.4-0.4c-0.4-2.5-2.2-4.6-5.2-4.6s-5.4,2.2-5.4,6.1v5.2c0,3.8,2.4,6.1,5.4,6.1
		c3,0,4.9-2,5.2-4.9c0-0.2,0.1-0.4,0.4-0.4h1.6C1020.9,702.8,1021,703,1021,703.2z"/>
	<path class="st4" d="M1036.8,694.1c-0.1-1.8-1-3.5-4.5-3.5c-2.7,0-4.6,0.7-4.6,3.5c0,6.1,11.9,2.3,11.9,10.2c0,4.3-3.7,5.8-7.2,5.8
		c-5.7,0-7.6-4-7.6-6.4c0-0.3,0.2-0.5,0.5-0.5h1.3c0.3,0,0.5,0.2,0.5,0.5c0.1,1.3,0.9,4.4,5.3,4.4c2.8,0,4.9-1,4.9-3.8
		c0-5.6-11.9-2-11.9-10.2c0-3.8,2.9-5.5,6.9-5.5c5.3,0,6.7,3.3,6.7,5.5c0,0.3-0.2,0.5-0.5,0.5h-1.3
		C1037,694.6,1036.9,694.4,1036.8,694.1z"/>
	<path class="st4" d="M1057.7,710.2c-5.1,0-6.8-3.2-6.8-5.6c0-2.9,1.8-4.5,4-5.9c-1-1.2-2.5-2.9-2.5-5.2c0-3.7,3-4.9,5.5-4.9
		c3.2,0,5.1,2.2,5.1,4.8c0,2.9-2.5,4.3-5,5.7l4.9,5.5c0.8-1.7,0.9-3.8,0.9-4.9c0-0.3,0.2-0.5,0.5-0.5h1.1c0.3,0,0.5,0.2,0.5,0.5
		c0,1.3-0.2,4.2-1.5,6.7l2.4,2.7c0.1,0.2,0.3,0.3,0.3,0.5c0,0.2-0.1,0.3-0.3,0.3h-1.7c-0.2,0-0.3-0.1-0.5-0.2l-1.5-1.7
		C1061.9,709.3,1060.2,710.2,1057.7,710.2z M1056.3,700.1c-1.8,1.1-3.1,2.3-3.1,4.3c0,1.8,1.2,3.6,4.6,3.6c1.8,0,3.1-0.7,4.1-1.7
		L1056.3,700.1z M1060.9,693.4c0-2-1.4-2.8-2.9-2.8c-2.5,0-3.3,1.4-3.3,2.9c0,1.4,0.6,2.5,2.1,4.2
		C1058.9,696.5,1060.9,695.4,1060.9,693.4z"/>
	<path class="st4" d="M912.8,740.2c-0.2,3.7-3.2,7-7.5,7c-4.4,0-7.7-3.2-7.7-8.2v-5.2c0-5,3.3-8.2,7.7-8.2c4.4,0,7.1,3,7.5,6.7
		c0,0.3-0.1,0.4-0.4,0.4h-1.5c-0.2,0-0.3-0.1-0.4-0.4c-0.4-2.5-2.2-4.6-5.2-4.6s-5.4,2.2-5.4,6.1v5.2c0,3.8,2.4,6.1,5.4,6.1
		c3,0,4.9-2,5.2-4.9c0-0.2,0.1-0.4,0.4-0.4h1.6C912.7,739.8,912.8,740,912.8,740.2z"/>
	<path class="st4" d="M930.4,725.9h1.3c0.3,0,0.5,0.2,0.5,0.5v12.7c0,5-3.1,8.1-7.4,8.1s-7.4-3.1-7.4-8.1v-12.7
		c0-0.3,0.2-0.5,0.5-0.5h1.3c0.3,0,0.5,0.2,0.5,0.5v12.7c0,3.8,2.1,6,5.1,6c2.9,0,5.1-2.2,5.1-6v-12.7
		C929.9,726.1,930.1,725.9,930.4,725.9z"/>
	<path class="st4" d="M950.2,746.9h-12.1c-0.3,0-0.5-0.2-0.5-0.5v-20c0-0.3,0.2-0.5,0.5-0.5h1.3c0.3,0,0.5,0.2,0.5,0.5v18.4h10.4
		c0.3,0,0.5,0.2,0.5,0.5v1.1C950.7,746.7,950.5,746.9,950.2,746.9z"/>
	<path class="st4" d="M949.9,727.5v-1.1c0-0.3,0.2-0.5,0.5-0.5h14.9c0.3,0,0.5,0.2,0.5,0.5v1.1c0,0.3-0.2,0.5-0.5,0.5H959v18.4
		c0,0.3-0.2,0.5-0.5,0.5h-1.3c-0.3,0-0.5-0.2-0.5-0.5V728h-6.3C950.1,728,949.9,727.8,949.9,727.5z"/>
	<path class="st4" d="M969.6,746.4v-20c0-0.3,0.2-0.5,0.5-0.5h1.3c0.3,0,0.5,0.2,0.5,0.5v20c0,0.3-0.2,0.5-0.5,0.5h-1.3
		C969.8,746.9,969.6,746.7,969.6,746.4z"/>
	<path class="st4" d="M993.1,726.2c0,0.1-0.1,0.4-0.1,0.6l-7.3,19.7c-0.1,0.2-0.2,0.4-0.5,0.4h-1.6c-0.2,0-0.4-0.1-0.5-0.4
		l-7.3-19.9c0-0.1-0.1-0.3-0.1-0.4c0-0.2,0.1-0.3,0.3-0.3h1.5c0.3,0,0.5,0.2,0.6,0.6l6.3,17.6l6.4-17.7c0.1-0.3,0.2-0.5,0.5-0.5h1.5
		C992.9,725.9,993.1,726,993.1,726.2z"/>
	<path class="st4" d="M1010.3,746.6c0,0.2-0.1,0.3-0.4,0.3h-1.5c-0.3,0-0.4-0.2-0.5-0.3l-1.9-5.3h-9.1l-1.9,5.3
		c-0.1,0.3-0.3,0.3-0.4,0.3h-1.5c-0.2,0-0.4-0.2-0.4-0.3c0-0.2,0.1-0.4,0.2-0.6l7.1-19.6c0.1-0.3,0.2-0.5,0.5-0.5h1.7
		c0.3,0,0.5,0.2,0.5,0.4l7.3,19.8C1010.2,746.2,1010.3,746.4,1010.3,746.6z M1005.3,739.2l-3.8-10.7l-3.8,10.7H1005.3z"/>
	<path class="st4" d="M1009.7,727.5v-1.1c0-0.3,0.2-0.5,0.5-0.5h14.9c0.3,0,0.5,0.2,0.5,0.5v1.1c0,0.3-0.2,0.5-0.5,0.5h-6.3v18.4
		c0,0.3-0.2,0.5-0.5,0.5h-1.3c-0.3,0-0.5-0.2-0.5-0.5V728h-6.3C1009.9,728,1009.7,727.8,1009.7,727.5z"/>
	<path class="st4" d="M1029.3,746.4v-20c0-0.3,0.2-0.5,0.5-0.5h1.3c0.3,0,0.5,0.2,0.5,0.5v20c0,0.3-0.2,0.5-0.5,0.5h-1.3
		C1029.5,746.9,1029.3,746.7,1029.3,746.4z"/>
	<path class="st4" d="M1044.3,725.6c4.4,0,7.7,3.2,7.7,8.2v5.2c0,5-3.4,8.2-7.7,8.2c-4.4,0-7.7-3.2-7.7-8.2v-5.2
		C1036.6,728.8,1040,725.6,1044.3,725.6z M1044.3,745.1c3,0,5.4-2.2,5.4-6.1v-5.2c0-3.9-2.4-6.1-5.4-6.1s-5.4,2.2-5.4,6.1v5.2
		C1038.9,742.8,1041.3,745.1,1044.3,745.1z"/>
	<path class="st4" d="M1072.1,726.4v20c0,0.3-0.2,0.5-0.5,0.5h-1c-0.2,0-0.5,0-0.8-0.6l-10.5-16.6v16.7c0,0.3-0.2,0.5-0.5,0.5h-1.2
		c-0.3,0-0.5-0.2-0.5-0.5v-20c0-0.3,0.2-0.5,0.5-0.5h1.5c0.3,0,0.5,0.2,0.6,0.4l10.3,16.3v-16.2c0-0.3,0.2-0.5,0.5-0.5h1.2
		C1071.9,725.9,1072.1,726.1,1072.1,726.4z"/>
	<path class="st4" d="M924.6,765h-10.2v7.2h8.2c0.3,0,0.5,0.2,0.5,0.5v1.1c0,0.3-0.2,0.5-0.5,0.5h-8.2v7.4h10.2
		c0.3,0,0.5,0.2,0.5,0.5v1.1c0,0.3-0.2,0.5-0.5,0.5h-11.9c-0.3,0-0.5-0.2-0.5-0.5v-20c0-0.3,0.2-0.5,0.5-0.5h11.9
		c0.3,0,0.5,0.2,0.5,0.5v1.1C925.1,764.8,924.9,765,924.6,765z"/>
	<path class="st4" d="M943.7,783.6c0,0.2-0.1,0.3-0.3,0.3h-1.6c-0.4,0-0.6-0.2-0.8-0.4l-5.4-8.3l-5.4,8.3c-0.1,0.2-0.3,0.4-0.7,0.4
		h-1.4c-0.2,0-0.3-0.2-0.3-0.3c0-0.2,0.1-0.3,0.2-0.5l6.4-9.8l-6.2-9.5c-0.1-0.2-0.3-0.4-0.3-0.6c0-0.2,0.1-0.3,0.4-0.3h1.6
		c0.3,0,0.5,0.2,0.7,0.4l5.3,8.1l5.3-8.1c0.2-0.3,0.4-0.4,0.7-0.4h1.5c0.2,0,0.3,0.1,0.3,0.3c0,0.2-0.1,0.4-0.2,0.5l-6.3,9.6
		l6.4,9.7C943.6,783.2,943.7,783.4,943.7,783.6z"/>
	<path class="st4" d="M955.4,776H950v7.4c0,0.3-0.2,0.5-0.5,0.5h-1.3c-0.3,0-0.5-0.2-0.5-0.5v-20c0-0.3,0.2-0.5,0.5-0.5h7.2
		c3.8,0,6.5,2.1,6.5,6.1v0.6C961.8,773.6,959.2,776,955.4,776z M950,765v8.8h5.3c2.2,0,4.3-1.3,4.3-4.2V769c0-3-2.1-4-4.3-4H950z"/>
	<path class="st4" d="M978.6,765h-10.2v7.2h8.2c0.3,0,0.5,0.2,0.5,0.5v1.1c0,0.3-0.2,0.5-0.5,0.5h-8.2v7.4h10.2
		c0.3,0,0.5,0.2,0.5,0.5v1.1c0,0.3-0.2,0.5-0.5,0.5h-11.9c-0.3,0-0.5-0.2-0.5-0.5v-20c0-0.3,0.2-0.5,0.5-0.5h11.9
		c0.3,0,0.5,0.2,0.5,0.5v1.1C979.1,764.8,978.9,765,978.6,765z"/>
	<path class="st4" d="M985.4,783.9h-1.3c-0.3,0-0.5-0.2-0.5-0.5v-20c0-0.3,0.2-0.5,0.5-0.5h7.2c3.8,0,6.5,2,6.5,6v0.5
		c0,2.6-1.4,4.8-4.5,5.7l4.3,8.1c0.1,0.2,0.1,0.3,0.1,0.5c0,0.2-0.1,0.3-0.3,0.3h-1.7c-0.3,0-0.4-0.2-0.5-0.4l-4.2-8.1h-5v8
		C986,783.7,985.7,783.9,985.4,783.9z M991.2,773.2c2.2,0,4.3-1.2,4.3-3.8v-0.5c0-3-2.1-3.9-4.3-3.9H986v8.2H991.2z"/>
	<path class="st4" d="M1000.4,764.5v-1.1c0-0.3,0.2-0.5,0.5-0.5h14.9c0.3,0,0.5,0.2,0.5,0.5v1.1c0,0.3-0.2,0.5-0.5,0.5h-6.3v18.4
		c0,0.3-0.2,0.5-0.5,0.5h-1.3c-0.3,0-0.5-0.2-0.5-0.5V765h-6.3C1000.7,765,1000.4,764.8,1000.4,764.5z"/>
	<path class="st4" d="M1020.1,783.4v-20c0-0.3,0.2-0.5,0.5-0.5h1.3c0.3,0,0.5,0.2,0.5,0.5v20c0,0.3-0.2,0.5-0.5,0.5h-1.3
		C1020.3,783.9,1020.1,783.7,1020.1,783.4z"/>
	<path class="st4" d="M1039.1,768.1c-0.1-1.8-1-3.5-4.5-3.5c-2.7,0-4.6,0.7-4.6,3.5c0,6.1,11.9,2.3,11.9,10.2c0,4.3-3.7,5.8-7.2,5.8
		c-5.7,0-7.6-4-7.6-6.4c0-0.3,0.2-0.5,0.5-0.5h1.3c0.3,0,0.5,0.2,0.5,0.5c0.1,1.3,0.9,4.4,5.3,4.4c2.8,0,4.9-1,4.9-3.8
		c0-5.6-11.9-2-11.9-10.2c0-3.8,2.9-5.5,6.9-5.5c5.3,0,6.7,3.3,6.7,5.5c0,0.3-0.2,0.5-0.5,0.5h-1.3
		C1039.3,768.6,1039.1,768.4,1039.1,768.1z"/>
	<path class="st4" d="M1059,765h-10.2v7.2h8.2c0.3,0,0.5,0.2,0.5,0.5v1.1c0,0.3-0.2,0.5-0.5,0.5h-8.2v7.4h10.2
		c0.3,0,0.5,0.2,0.5,0.5v1.1c0,0.3-0.2,0.5-0.5,0.5H1047c-0.3,0-0.5-0.2-0.5-0.5v-20c0-0.3,0.2-0.5,0.5-0.5h11.9
		c0.3,0,0.5,0.2,0.5,0.5v1.1C1059.5,764.8,1059.3,765,1059,765z"/>
</g>
<g>
	<path class="st4" d="M1530.7,703.9v0.4c0,4.3-3.4,5.6-7.1,5.6h-7.2c-0.3,0-0.5-0.2-0.5-0.5v-20c0-0.3,0.2-0.5,0.5-0.5h7.1
		c3.9,0,6.6,1.6,6.6,5.3v0.5c0,2-0.9,3.4-2.8,4.3C1529.5,699.8,1530.7,701.7,1530.7,703.9z M1518.2,698h5.5c2.2,0,4.2-0.7,4.2-3.2
		v-0.5c0-2.6-2.1-3.2-4.4-3.2h-5.2V698z M1528.4,703.9c0-2.9-2.3-3.8-4.7-3.8h-5.5v7.7h5.5c2.3,0,4.7-0.7,4.7-3.6V703.9z"/>
	<path class="st4" d="M1537.2,709.9h-1.3c-0.3,0-0.5-0.2-0.5-0.5v-20c0-0.3,0.2-0.5,0.5-0.5h7.2c3.8,0,6.5,2,6.5,6v0.5
		c0,2.6-1.4,4.8-4.5,5.7l4.3,8.1c0.1,0.2,0.1,0.3,0.1,0.5c0,0.2-0.1,0.3-0.3,0.3h-1.7c-0.3,0-0.4-0.2-0.5-0.4l-4.2-8.1h-5v8
		C1537.7,709.7,1537.5,709.9,1537.2,709.9z M1543,699.2c2.2,0,4.3-1.2,4.3-3.8v-0.5c0-3-2.1-3.9-4.3-3.9h-5.3v8.2H1543z"/>
	<path class="st4" d="M1569.9,709.6c0,0.2-0.1,0.3-0.4,0.3h-1.5c-0.3,0-0.4-0.2-0.5-0.3l-1.9-5.3h-9.1l-1.9,5.3
		c-0.1,0.3-0.3,0.3-0.4,0.3h-1.5c-0.2,0-0.4-0.2-0.4-0.3c0-0.2,0.1-0.4,0.2-0.6l7.1-19.6c0.1-0.3,0.2-0.5,0.5-0.5h1.7
		c0.3,0,0.5,0.2,0.5,0.4l7.3,19.8C1569.8,709.2,1569.9,709.4,1569.9,709.6z M1564.9,702.2l-3.8-10.7l-3.8,10.7H1564.9z"/>
	<path class="st4" d="M1588.9,689.4v20c0,0.3-0.2,0.5-0.5,0.5h-1c-0.2,0-0.5,0-0.8-0.6l-10.5-16.6v16.7c0,0.3-0.2,0.5-0.5,0.5h-1.2
		c-0.3,0-0.5-0.2-0.5-0.5v-20c0-0.3,0.2-0.5,0.5-0.5h1.5c0.3,0,0.5,0.2,0.6,0.4l10.3,16.3v-16.2c0-0.3,0.2-0.5,0.5-0.5h1.2
		C1588.6,688.9,1588.9,689.1,1588.9,689.4z"/>
	<path class="st4" d="M1594.6,709.4v-20c0-0.3,0.2-0.5,0.5-0.5h6.6c4.3,0,7.7,3.1,7.7,8.2v4.7c0,5-3.4,8.2-7.7,8.2h-6.6
		C1594.8,709.9,1594.6,709.7,1594.6,709.4z M1596.9,707.8h4.8c3,0,5.4-2.2,5.4-6.1v-4.6c0-3.8-2.4-6.1-5.4-6.1h-4.8V707.8z"/>
	<path class="st4" d="M1636.6,703.9v0.4c0,4.3-3.5,5.6-7.1,5.6h-7.2c-0.3,0-0.5-0.2-0.5-0.5v-20c0-0.3,0.2-0.5,0.5-0.5h7.1
		c3.9,0,6.6,1.6,6.6,5.3v0.5c0,2-0.9,3.4-2.8,4.3C1635.4,699.8,1636.6,701.7,1636.6,703.9z M1624.2,698h5.5c2.2,0,4.2-0.7,4.2-3.2
		v-0.5c0-2.6-2.1-3.2-4.4-3.2h-5.2V698z M1634.4,703.9c0-2.9-2.3-3.8-4.7-3.8h-5.5v7.7h5.5c2.3,0,4.7-0.7,4.7-3.6V703.9z"/>
	<path class="st4" d="M1654.1,688.9h1.3c0.3,0,0.5,0.2,0.5,0.5v12.7c0,5-3.1,8.1-7.4,8.1c-4.3,0-7.4-3.1-7.4-8.1v-12.7
		c0-0.3,0.2-0.5,0.5-0.5h1.3c0.3,0,0.5,0.2,0.5,0.5v12.7c0,3.8,2.1,6,5.1,6c2.9,0,5.1-2.2,5.1-6v-12.7
		C1653.6,689.1,1653.8,688.9,1654.1,688.9z"/>
	<path class="st4" d="M1661.3,709.4v-20c0-0.3,0.2-0.5,0.5-0.5h1.3c0.3,0,0.5,0.2,0.5,0.5v20c0,0.3-0.2,0.5-0.5,0.5h-1.3
		C1661.5,709.9,1661.3,709.7,1661.3,709.4z"/>
	<path class="st4" d="M1681.9,709.9h-12.1c-0.3,0-0.5-0.2-0.5-0.5v-20c0-0.3,0.2-0.5,0.5-0.5h1.3c0.3,0,0.5,0.2,0.5,0.5v18.4h10.4
		c0.3,0,0.5,0.2,0.5,0.5v1.1C1682.4,709.7,1682.2,709.9,1681.9,709.9z"/>
	<path class="st4" d="M1686.4,709.4v-20c0-0.3,0.2-0.5,0.5-0.5h6.6c4.4,0,7.7,3.1,7.7,8.2v4.7c0,5-3.4,8.2-7.7,8.2h-6.6
		C1686.6,709.9,1686.4,709.7,1686.4,709.4z M1688.7,707.8h4.8c3,0,5.4-2.2,5.4-6.1v-4.6c0-3.8-2.4-6.1-5.4-6.1h-4.8V707.8z"/>
	<path class="st4" d="M1706.2,709.4v-20c0-0.3,0.2-0.5,0.5-0.5h1.3c0.3,0,0.5,0.2,0.5,0.5v20c0,0.3-0.2,0.5-0.5,0.5h-1.3
		C1706.4,709.9,1706.2,709.7,1706.2,709.4z"/>
	<path class="st4" d="M1729.3,689.4v20c0,0.3-0.2,0.5-0.5,0.5h-1c-0.2,0-0.5,0-0.8-0.6l-10.5-16.6v16.7c0,0.3-0.2,0.5-0.5,0.5h-1.2
		c-0.3,0-0.5-0.2-0.5-0.5v-20c0-0.3,0.2-0.5,0.5-0.5h1.5c0.3,0,0.5,0.2,0.6,0.4l10.3,16.3v-16.2c0-0.3,0.2-0.5,0.5-0.5h1.2
		C1729.1,688.9,1729.3,689.1,1729.3,689.4z"/>
	<path class="st4" d="M1741.7,700.8v-1.1c0-0.3,0.2-0.5,0.5-0.5h6.8c0.3,0,0.5,0.2,0.5,0.5v9.7c0,0.3-0.2,0.5-0.5,0.5h-1
		c-0.3,0-0.5-0.2-0.5-0.5v-2.1c-1,1.8-3.1,2.9-5.5,2.9c-4.8,0-7.7-3.7-7.7-8.2v-5.2c0-5,3.3-8.2,7.7-8.2s6.9,2.9,7.5,6.4
		c0.1,0.2,0.1,0.4,0.1,0.5c0,0.2-0.1,0.3-0.3,0.3h-1.6c-0.2,0-0.4-0.1-0.4-0.4c-0.3-2.2-2-4.6-5.2-4.6c-3,0-5.4,2.2-5.4,6.1v5.2
		c0,3.8,2.5,6.1,5.5,6.1c3.8,0,5.3-3.2,5.3-5.2v-1.6h-5.2C1741.9,701.3,1741.7,701.1,1741.7,700.8z"/>
	<path class="st4" d="M1572,728h-10.2v7.2h8.2c0.3,0,0.5,0.2,0.5,0.5v1.1c0,0.3-0.2,0.5-0.5,0.5h-8.2v7.4h10.2
		c0.3,0,0.5,0.2,0.5,0.5v1.1c0,0.3-0.2,0.5-0.5,0.5h-11.9c-0.3,0-0.5-0.2-0.5-0.5v-20c0-0.3,0.2-0.5,0.5-0.5h11.9
		c0.3,0,0.5,0.2,0.5,0.5v1.1C1572.5,727.8,1572.3,728,1572,728z"/>
	<path class="st4" d="M1591.2,746.6c0,0.2-0.1,0.3-0.3,0.3h-1.6c-0.4,0-0.6-0.2-0.8-0.4l-5.4-8.3l-5.4,8.3c-0.1,0.2-0.3,0.4-0.7,0.4
		h-1.4c-0.2,0-0.3-0.2-0.3-0.3c0-0.2,0.1-0.3,0.2-0.5l6.4-9.8l-6.2-9.5c-0.1-0.2-0.3-0.4-0.3-0.6c0-0.2,0.2-0.3,0.4-0.3h1.6
		c0.3,0,0.5,0.2,0.7,0.4l5.3,8.1l5.3-8.1c0.2-0.3,0.4-0.4,0.7-0.4h1.5c0.2,0,0.3,0.1,0.3,0.3c0,0.2-0.1,0.4-0.2,0.5l-6.3,9.6
		l6.4,9.7C1591,746.2,1591.2,746.4,1591.2,746.6z"/>
	<path class="st4" d="M1602.8,739h-5.4v7.4c0,0.3-0.2,0.5-0.5,0.5h-1.3c-0.3,0-0.5-0.2-0.5-0.5v-20c0-0.3,0.2-0.5,0.5-0.5h7.2
		c3.8,0,6.5,2.1,6.5,6.1v0.6C1609.3,736.6,1606.6,739,1602.8,739z M1597.4,728v8.8h5.3c2.2,0,4.3-1.3,4.3-4.2V732c0-3-2.1-4-4.3-4
		H1597.4z"/>
	<path class="st4" d="M1626.1,728h-10.2v7.2h8.2c0.3,0,0.5,0.2,0.5,0.5v1.1c0,0.3-0.2,0.5-0.5,0.5h-8.2v7.4h10.2
		c0.3,0,0.5,0.2,0.5,0.5v1.1c0,0.3-0.2,0.5-0.5,0.5h-11.9c-0.3,0-0.5-0.2-0.5-0.5v-20c0-0.3,0.2-0.5,0.5-0.5h11.9
		c0.3,0,0.5,0.2,0.5,0.5v1.1C1626.6,727.8,1626.4,728,1626.1,728z"/>
	<path class="st4" d="M1632.9,746.9h-1.3c-0.3,0-0.5-0.2-0.5-0.5v-20c0-0.3,0.2-0.5,0.5-0.5h7.2c3.8,0,6.5,2,6.5,6v0.5
		c0,2.6-1.4,4.8-4.5,5.7l4.3,8.1c0.1,0.2,0.2,0.3,0.2,0.5c0,0.2-0.2,0.3-0.3,0.3h-1.7c-0.3,0-0.4-0.2-0.5-0.4l-4.2-8.1h-5v8
		C1633.4,746.7,1633.2,746.9,1632.9,746.9z M1638.7,736.2c2.2,0,4.3-1.2,4.3-3.8v-0.5c0-3-2.1-3.9-4.3-3.9h-5.3v8.2H1638.7z"/>
	<path class="st4" d="M1647.9,727.5v-1.1c0-0.3,0.2-0.5,0.5-0.5h14.9c0.3,0,0.5,0.2,0.5,0.5v1.1c0,0.3-0.2,0.5-0.5,0.5h-6.3v18.4
		c0,0.3-0.2,0.5-0.5,0.5h-1.3c-0.3,0-0.5-0.2-0.5-0.5V728h-6.3C1648.1,728,1647.9,727.8,1647.9,727.5z"/>
	<path class="st4" d="M1667.6,746.4v-20c0-0.3,0.2-0.5,0.5-0.5h1.3c0.3,0,0.5,0.2,0.5,0.5v20c0,0.3-0.2,0.5-0.5,0.5h-1.3
		C1667.8,746.9,1667.6,746.7,1667.6,746.4z"/>
	<path class="st4" d="M1686.5,731.1c-0.1-1.8-1-3.5-4.5-3.5c-2.7,0-4.6,0.7-4.6,3.5c0,6.1,11.9,2.3,11.9,10.2c0,4.3-3.7,5.8-7.2,5.8
		c-5.7,0-7.6-4-7.6-6.4c0-0.3,0.2-0.5,0.5-0.5h1.3c0.3,0,0.5,0.2,0.5,0.5c0.1,1.3,0.9,4.4,5.3,4.4c2.8,0,5-1,5-3.8
		c0-5.6-11.9-2-11.9-10.2c0-3.8,2.9-5.5,6.9-5.5c5.3,0,6.7,3.3,6.7,5.5c0,0.3-0.2,0.5-0.5,0.5h-1.3
		C1686.7,731.6,1686.5,731.4,1686.5,731.1z"/>
	<path class="st4" d="M1706.4,728h-10.2v7.2h8.2c0.3,0,0.5,0.2,0.5,0.5v1.1c0,0.3-0.2,0.5-0.5,0.5h-8.2v7.4h10.2
		c0.3,0,0.5,0.2,0.5,0.5v1.1c0,0.3-0.2,0.5-0.5,0.5h-11.9c-0.3,0-0.5-0.2-0.5-0.5v-20c0-0.3,0.2-0.5,0.5-0.5h11.9
		c0.3,0,0.5,0.2,0.5,0.5v1.1C1706.9,727.8,1706.7,728,1706.4,728z"/>
</g>
<line class="st2" x1="1917.1" y1="827.1" x2="1917.1" y2="989.1"/>
<path class="st2" d="M1313.5,988.6"/>
<path class="st2" d="M2220.7,826.7"/>
<g>
	<path class="st4" d="M1869.8,702h-5.4v7.4c0,0.3-0.2,0.5-0.5,0.5h-1.3c-0.3,0-0.5-0.2-0.5-0.5v-20c0-0.3,0.2-0.5,0.5-0.5h7.2
		c3.8,0,6.5,2.1,6.5,6.1v0.6C1876.3,699.6,1873.7,702,1869.8,702z M1864.4,691v8.8h5.3c2.2,0,4.3-1.3,4.3-4.2V695c0-3-2.1-4-4.3-4
		H1864.4z"/>
	<path class="st4" d="M1894.6,709.6c0,0.2-0.2,0.3-0.4,0.3h-1.5c-0.3,0-0.4-0.2-0.5-0.3l-1.9-5.3h-9.1l-1.9,5.3
		c-0.1,0.3-0.3,0.3-0.4,0.3h-1.5c-0.2,0-0.4-0.2-0.4-0.3c0-0.2,0.1-0.4,0.2-0.6l7.1-19.6c0.1-0.3,0.2-0.5,0.5-0.5h1.7
		c0.3,0,0.5,0.2,0.5,0.4l7.3,19.8C1894.5,709.2,1894.6,709.4,1894.6,709.6z M1889.6,702.2l-3.8-10.7l-3.8,10.7H1889.6z"/>
	<path class="st4" d="M1893.9,690.5v-1.1c0-0.3,0.2-0.5,0.5-0.5h14.9c0.3,0,0.5,0.2,0.5,0.5v1.1c0,0.3-0.2,0.5-0.5,0.5h-6.3v18.4
		c0,0.3-0.2,0.5-0.5,0.5h-1.3c-0.3,0-0.5-0.2-0.5-0.5V691h-6.3C1894.1,691,1893.9,690.8,1893.9,690.5z"/>
	<path class="st4" d="M1913.6,709.4v-20c0-0.3,0.2-0.5,0.5-0.5h1.3c0.3,0,0.5,0.2,0.5,0.5v20c0,0.3-0.2,0.5-0.5,0.5h-1.3
		C1913.8,709.9,1913.6,709.7,1913.6,709.4z"/>
	<path class="st4" d="M1934,691h-10.2v7.2h8.2c0.3,0,0.5,0.2,0.5,0.5v1.1c0,0.3-0.2,0.5-0.5,0.5h-8.2v7.4h10.2
		c0.3,0,0.5,0.2,0.5,0.5v1.1c0,0.3-0.2,0.5-0.5,0.5h-11.9c-0.3,0-0.5-0.2-0.5-0.5v-20c0-0.3,0.2-0.5,0.5-0.5h11.9
		c0.3,0,0.5,0.2,0.5,0.5v1.1C1934.6,690.8,1934.3,691,1934,691z"/>
	<path class="st4" d="M1954.2,689.4v20c0,0.3-0.2,0.5-0.5,0.5h-1c-0.2,0-0.5,0-0.8-0.6l-10.5-16.6v16.7c0,0.3-0.2,0.5-0.5,0.5h-1.2
		c-0.3,0-0.5-0.2-0.5-0.5v-20c0-0.3,0.2-0.5,0.5-0.5h1.5c0.3,0,0.5,0.2,0.6,0.4l10.3,16.3v-16.2c0-0.3,0.2-0.5,0.5-0.5h1.2
		C1954,688.9,1954.2,689.1,1954.2,689.4z"/>
	<path class="st4" d="M1958,690.5v-1.1c0-0.3,0.2-0.5,0.5-0.5h14.9c0.3,0,0.5,0.2,0.5,0.5v1.1c0,0.3-0.2,0.5-0.5,0.5h-6.3v18.4
		c0,0.3-0.2,0.5-0.5,0.5h-1.3c-0.3,0-0.5-0.2-0.5-0.5V691h-6.3C1958.2,691,1958,690.8,1958,690.5z"/>
	<path class="st4" d="M1864.4,737.8v-1.1c0-0.3,0.2-0.5,0.5-0.5h6.8c0.3,0,0.5,0.2,0.5,0.5v9.7c0,0.3-0.2,0.5-0.5,0.5h-1.1
		c-0.3,0-0.5-0.2-0.5-0.5v-2.1c-1,1.8-3.1,2.9-5.5,2.9c-4.8,0-7.7-3.7-7.7-8.2v-5.2c0-5,3.3-8.2,7.7-8.2c4.4,0,6.9,2.9,7.5,6.4
		c0.1,0.2,0.1,0.4,0.1,0.5c0,0.2-0.1,0.3-0.3,0.3h-1.6c-0.2,0-0.4-0.1-0.4-0.4c-0.3-2.2-2-4.6-5.2-4.6c-3,0-5.4,2.2-5.4,6.1v5.2
		c0,3.8,2.5,6.1,5.5,6.1c3.8,0,5.3-3.2,5.3-5.2v-1.6h-5.2C1864.6,738.3,1864.4,738.1,1864.4,737.8z"/>
	<path class="st4" d="M1879.5,746.9h-1.3c-0.3,0-0.5-0.2-0.5-0.5v-20c0-0.3,0.2-0.5,0.5-0.5h7.2c3.8,0,6.5,2,6.5,6v0.5
		c0,2.6-1.4,4.8-4.5,5.7l4.3,8.1c0.1,0.2,0.1,0.3,0.1,0.5c0,0.2-0.1,0.3-0.3,0.3h-1.7c-0.3,0-0.4-0.2-0.5-0.4l-4.2-8.1h-5v8
		C1880,746.7,1879.8,746.9,1879.5,746.9z M1885.3,736.2c2.2,0,4.3-1.2,4.3-3.8v-0.5c0-3-2.1-3.9-4.3-3.9h-5.3v8.2H1885.3z"/>
	<path class="st4" d="M1903.7,725.6c4.3,0,7.7,3.2,7.7,8.2v5.2c0,5-3.4,8.2-7.7,8.2s-7.7-3.2-7.7-8.2v-5.2
		C1896,728.8,1899.3,725.6,1903.7,725.6z M1903.7,745.1c3,0,5.4-2.2,5.4-6.1v-5.2c0-3.9-2.4-6.1-5.4-6.1s-5.4,2.2-5.4,6.1v5.2
		C1898.3,742.8,1900.7,745.1,1903.7,745.1z"/>
	<path class="st4" d="M1940,726.2c0,0.1,0,0.2-0.1,0.5l-5.5,19.8c-0.1,0.2-0.2,0.4-0.5,0.4h-1.7c-0.2,0-0.4-0.2-0.5-0.4l-4.6-17.1
		l-4.6,17.1c0,0.2-0.2,0.4-0.5,0.4h-1.7c-0.2,0-0.4-0.1-0.5-0.4l-5.5-19.8c0-0.2-0.1-0.4-0.1-0.5c0-0.2,0.1-0.3,0.3-0.3h1.6
		c0.2,0,0.5,0.1,0.5,0.5l4.6,17.3l4.7-17.3c0.1-0.3,0.2-0.5,0.5-0.5h1.5c0.2,0,0.5,0.1,0.5,0.5l4.6,17.3l4.6-17.3
		c0.1-0.2,0.2-0.5,0.5-0.5h1.5C1939.9,725.9,1940,726,1940,726.2z"/>
	<path class="st4" d="M1942,727.5v-1.1c0-0.3,0.2-0.5,0.5-0.5h14.9c0.3,0,0.5,0.2,0.5,0.5v1.1c0,0.3-0.2,0.5-0.5,0.5h-6.3v18.4
		c0,0.3-0.2,0.5-0.5,0.5h-1.3c-0.3,0-0.5-0.2-0.5-0.5V728h-6.3C1942.2,728,1942,727.8,1942,727.5z"/>
	<path class="st4" d="M1974.2,746.4v-9.2H1964v9.2c0,0.3-0.2,0.5-0.5,0.5h-1.3c-0.3,0-0.5-0.2-0.5-0.5v-20c0-0.3,0.2-0.5,0.5-0.5
		h1.3c0.3,0,0.5,0.2,0.5,0.5v8.6h10.2v-8.6c0-0.3,0.2-0.5,0.5-0.5h1.3c0.3,0,0.5,0.2,0.5,0.5v20c0,0.3-0.2,0.5-0.5,0.5h-1.3
		C1974.4,746.9,1974.2,746.7,1974.2,746.4z"/>
</g>
<g>
	<path class="st4" d="M2098.3,709.9h-12.1c-0.3,0-0.5-0.2-0.5-0.5v-20c0-0.3,0.2-0.5,0.5-0.5h1.3c0.3,0,0.5,0.2,0.5,0.5v18.4h10.4
		c0.3,0,0.5,0.2,0.5,0.5v1.1C2098.8,709.7,2098.6,709.9,2098.3,709.9z"/>
	<path class="st4" d="M2115.3,691h-10.2v7.2h8.2c0.3,0,0.5,0.2,0.5,0.5v1.1c0,0.3-0.2,0.5-0.5,0.5h-8.2v7.4h10.2
		c0.3,0,0.5,0.2,0.5,0.5v1.1c0,0.3-0.2,0.5-0.5,0.5h-11.9c-0.3,0-0.5-0.2-0.5-0.5v-20c0-0.3,0.2-0.5,0.5-0.5h11.9
		c0.3,0,0.5,0.2,0.5,0.5v1.1C2115.8,690.8,2115.6,691,2115.3,691z"/>
	<path class="st4" d="M2126.6,700.8v-1.1c0-0.3,0.2-0.5,0.5-0.5h6.8c0.3,0,0.5,0.2,0.5,0.5v9.7c0,0.3-0.2,0.5-0.5,0.5h-1.1
		c-0.3,0-0.5-0.2-0.5-0.5v-2.1c-1,1.8-3.1,2.9-5.5,2.9c-4.8,0-7.7-3.7-7.7-8.2v-5.2c0-5,3.3-8.2,7.7-8.2c4.4,0,6.9,2.9,7.5,6.4
		c0.1,0.2,0.1,0.4,0.1,0.5c0,0.2-0.1,0.3-0.3,0.3h-1.6c-0.2,0-0.4-0.1-0.4-0.4c-0.3-2.2-2-4.6-5.2-4.6c-3,0-5.4,2.2-5.4,6.1v5.2
		c0,3.8,2.5,6.1,5.5,6.1c3.8,0,5.3-3.2,5.3-5.2v-1.6h-5.2C2126.8,701.3,2126.6,701.1,2126.6,700.8z"/>
	<path class="st4" d="M2155.6,709.6c0,0.2-0.2,0.3-0.4,0.3h-1.5c-0.3,0-0.4-0.2-0.5-0.3l-1.9-5.3h-9.1l-1.9,5.3
		c-0.1,0.3-0.3,0.3-0.4,0.3h-1.5c-0.2,0-0.4-0.2-0.4-0.3c0-0.2,0.1-0.4,0.2-0.6l7.1-19.6c0.1-0.3,0.2-0.5,0.5-0.5h1.7
		c0.3,0,0.4,0.2,0.5,0.4l7.3,19.8C2155.5,709.2,2155.6,709.4,2155.6,709.6z M2150.6,702.2l-3.8-10.7l-3.8,10.7H2150.6z"/>
	<path class="st4" d="M2172.2,709.9H2160c-0.3,0-0.5-0.2-0.5-0.5v-20c0-0.3,0.2-0.5,0.5-0.5h1.3c0.3,0,0.5,0.2,0.5,0.5v18.4h10.4
		c0.3,0,0.5,0.2,0.5,0.5v1.1C2172.7,709.7,2172.5,709.9,2172.2,709.9z"/>
	<path class="st4" d="M2190.1,710.2c-5.1,0-6.8-3.2-6.8-5.6c0-2.9,1.8-4.5,4-5.9c-1-1.2-2.5-2.9-2.5-5.2c0-3.7,3-4.9,5.5-4.9
		c3.2,0,5.1,2.2,5.1,4.8c0,2.9-2.5,4.3-5,5.7l4.9,5.5c0.8-1.7,0.9-3.8,0.9-4.9c0-0.3,0.2-0.5,0.5-0.5h1.1c0.3,0,0.5,0.2,0.5,0.5
		c0,1.3-0.2,4.2-1.5,6.7l2.4,2.7c0.1,0.2,0.3,0.3,0.3,0.5c0,0.2-0.1,0.3-0.3,0.3h-1.7c-0.2,0-0.3-0.1-0.5-0.2l-1.5-1.7
		C2194.3,709.3,2192.6,710.2,2190.1,710.2z M2188.7,700.1c-1.8,1.1-3.1,2.3-3.1,4.3c0,1.8,1.2,3.6,4.6,3.6c1.8,0,3.1-0.7,4.1-1.7
		L2188.7,700.1z M2193.2,693.4c0-2-1.3-2.8-2.9-2.8c-2.5,0-3.3,1.4-3.3,2.9c0,1.4,0.6,2.5,2.1,4.2
		C2191.3,696.5,2193.2,695.4,2193.2,693.4z"/>
	<path class="st4" d="M2223.6,691h-10.2v7.8h8.2c0.3,0,0.5,0.2,0.5,0.5v1.1c0,0.3-0.2,0.5-0.5,0.5h-8.2v8.4c0,0.3-0.2,0.5-0.5,0.5
		h-1.3c-0.3,0-0.5-0.2-0.5-0.5v-20c0-0.3,0.2-0.5,0.5-0.5h11.9c0.3,0,0.5,0.2,0.5,0.5v1.1C2224.1,690.8,2223.9,691,2223.6,691z"/>
	<path class="st4" d="M2228.2,709.4v-20c0-0.3,0.2-0.5,0.5-0.5h1.3c0.3,0,0.5,0.2,0.5,0.5v20c0,0.3-0.2,0.5-0.5,0.5h-1.3
		C2228.4,709.9,2228.2,709.7,2228.2,709.4z"/>
	<path class="st4" d="M2251.3,689.4v20c0,0.3-0.2,0.5-0.5,0.5h-1c-0.2,0-0.5,0-0.8-0.6l-10.5-16.6v16.7c0,0.3-0.2,0.5-0.5,0.5h-1.2
		c-0.3,0-0.5-0.2-0.5-0.5v-20c0-0.3,0.2-0.5,0.5-0.5h1.5c0.3,0,0.5,0.2,0.6,0.4l10.3,16.3v-16.2c0-0.3,0.2-0.5,0.5-0.5h1.2
		C2251.1,688.9,2251.3,689.1,2251.3,689.4z"/>
	<path class="st4" d="M2272.7,709.6c0,0.2-0.1,0.3-0.4,0.3h-1.5c-0.3,0-0.4-0.2-0.5-0.3l-1.9-5.3h-9.1l-1.9,5.3
		c-0.1,0.3-0.3,0.3-0.4,0.3h-1.5c-0.2,0-0.4-0.2-0.4-0.3c0-0.2,0.1-0.4,0.2-0.6l7.1-19.6c0.1-0.3,0.2-0.5,0.5-0.5h1.7
		c0.3,0,0.5,0.2,0.5,0.4l7.3,19.8C2272.6,709.2,2272.7,709.4,2272.7,709.6z M2267.7,702.2l-3.8-10.7l-3.8,10.7H2267.7z"/>
	<path class="st4" d="M2291.7,689.4v20c0,0.3-0.2,0.5-0.5,0.5h-1c-0.2,0-0.5,0-0.8-0.6l-10.5-16.6v16.7c0,0.3-0.2,0.5-0.5,0.5h-1.2
		c-0.3,0-0.5-0.2-0.5-0.5v-20c0-0.3,0.2-0.5,0.5-0.5h1.5c0.3,0,0.5,0.2,0.6,0.4l10.3,16.3v-16.2c0-0.3,0.2-0.5,0.5-0.5h1.2
		C2291.4,688.9,2291.7,689.1,2291.7,689.4z"/>
	<path class="st4" d="M2311.9,703.2c-0.2,3.7-3.2,7-7.5,7c-4.4,0-7.7-3.2-7.7-8.2v-5.2c0-5,3.3-8.2,7.7-8.2c4.4,0,7.1,3,7.5,6.7
		c0,0.3-0.1,0.4-0.4,0.4h-1.5c-0.2,0-0.3-0.1-0.4-0.4c-0.4-2.5-2.2-4.6-5.2-4.6s-5.4,2.2-5.4,6.1v5.2c0,3.8,2.4,6.1,5.4,6.1
		c3,0,4.9-2,5.2-4.9c0-0.2,0.2-0.4,0.4-0.4h1.6C2311.8,702.8,2311.9,703,2311.9,703.2z"/>
	<path class="st4" d="M2316.8,709.4v-20c0-0.3,0.2-0.5,0.5-0.5h1.3c0.3,0,0.5,0.2,0.5,0.5v20c0,0.3-0.2,0.5-0.5,0.5h-1.3
		C2317,709.9,2316.8,709.7,2316.8,709.4z"/>
	<path class="st4" d="M2340.4,709.6c0,0.2-0.1,0.3-0.4,0.3h-1.5c-0.3,0-0.4-0.2-0.5-0.3l-1.9-5.3h-9.1l-1.9,5.3
		c-0.1,0.3-0.3,0.3-0.4,0.3h-1.5c-0.2,0-0.4-0.2-0.4-0.3c0-0.2,0.1-0.4,0.2-0.6l7.1-19.6c0.1-0.3,0.2-0.5,0.5-0.5h1.7
		c0.3,0,0.5,0.2,0.5,0.4l7.3,19.8C2340.3,709.2,2340.4,709.4,2340.4,709.6z M2335.4,702.2l-3.8-10.7l-3.8,10.7H2335.4z"/>
	<path class="st4" d="M2357,709.9h-12.2c-0.3,0-0.5-0.2-0.5-0.5v-20c0-0.3,0.2-0.5,0.5-0.5h1.3c0.3,0,0.5,0.2,0.5,0.5v18.4h10.4
		c0.3,0,0.5,0.2,0.5,0.5v1.1C2357.5,709.7,2357.2,709.9,2357,709.9z"/>
	<path class="st4" d="M2160.1,728h-10.2v7.2h8.2c0.3,0,0.5,0.2,0.5,0.5v1.1c0,0.3-0.2,0.5-0.5,0.5h-8.2v7.4h10.2
		c0.3,0,0.5,0.2,0.5,0.5v1.1c0,0.3-0.2,0.5-0.5,0.5h-11.9c-0.3,0-0.5-0.2-0.5-0.5v-20c0-0.3,0.2-0.5,0.5-0.5h11.9
		c0.3,0,0.5,0.2,0.5,0.5v1.1C2160.6,727.8,2160.4,728,2160.1,728z"/>
	<path class="st4" d="M2179.2,746.6c0,0.2-0.1,0.3-0.3,0.3h-1.6c-0.4,0-0.6-0.2-0.8-0.4l-5.4-8.3l-5.4,8.3c-0.1,0.2-0.3,0.4-0.7,0.4
		h-1.4c-0.2,0-0.3-0.2-0.3-0.3c0-0.2,0.1-0.3,0.2-0.5l6.4-9.8l-6.2-9.5c-0.1-0.2-0.3-0.4-0.3-0.6c0-0.2,0.2-0.3,0.4-0.3h1.6
		c0.3,0,0.5,0.2,0.7,0.4l5.3,8.1l5.3-8.1c0.2-0.3,0.4-0.4,0.7-0.4h1.5c0.2,0,0.3,0.1,0.3,0.3c0,0.2-0.1,0.4-0.2,0.5l-6.3,9.6
		l6.4,9.7C2179.1,746.2,2179.2,746.4,2179.2,746.6z"/>
	<path class="st4" d="M2190.8,739h-5.4v7.4c0,0.3-0.2,0.5-0.5,0.5h-1.3c-0.3,0-0.5-0.2-0.5-0.5v-20c0-0.3,0.2-0.5,0.5-0.5h7.2
		c3.8,0,6.5,2.1,6.5,6.1v0.6C2197.3,736.6,2194.7,739,2190.8,739z M2185.4,728v8.8h5.3c2.2,0,4.3-1.3,4.3-4.2V732c0-3-2.1-4-4.3-4
		H2185.4z"/>
	<path class="st4" d="M2214.1,728H2204v7.2h8.2c0.3,0,0.5,0.2,0.5,0.5v1.1c0,0.3-0.2,0.5-0.5,0.5h-8.2v7.4h10.2
		c0.3,0,0.5,0.2,0.5,0.5v1.1c0,0.3-0.2,0.5-0.5,0.5h-11.9c-0.3,0-0.5-0.2-0.5-0.5v-20c0-0.3,0.2-0.5,0.5-0.5h11.9
		c0.3,0,0.5,0.2,0.5,0.5v1.1C2214.6,727.8,2214.4,728,2214.1,728z"/>
	<path class="st4" d="M2220.9,746.9h-1.3c-0.3,0-0.5-0.2-0.5-0.5v-20c0-0.3,0.2-0.5,0.5-0.5h7.2c3.8,0,6.5,2,6.5,6v0.5
		c0,2.6-1.4,4.8-4.5,5.7l4.3,8.1c0.1,0.2,0.2,0.3,0.2,0.5c0,0.2-0.2,0.3-0.3,0.3h-1.7c-0.3,0-0.4-0.2-0.5-0.4l-4.2-8.1h-5v8
		C2221.4,746.7,2221.2,746.9,2220.9,746.9z M2226.7,736.2c2.2,0,4.3-1.2,4.3-3.8v-0.5c0-3-2.1-3.9-4.3-3.9h-5.3v8.2H2226.7z"/>
	<path class="st4" d="M2235.9,727.5v-1.1c0-0.3,0.2-0.5,0.5-0.5h14.9c0.3,0,0.5,0.2,0.5,0.5v1.1c0,0.3-0.2,0.5-0.5,0.5h-6.3v18.4
		c0,0.3-0.2,0.5-0.5,0.5h-1.3c-0.3,0-0.5-0.2-0.5-0.5V728h-6.3C2236.1,728,2235.9,727.8,2235.9,727.5z"/>
	<path class="st4" d="M2255.6,746.4v-20c0-0.3,0.2-0.5,0.5-0.5h1.3c0.3,0,0.5,0.2,0.5,0.5v20c0,0.3-0.2,0.5-0.5,0.5h-1.3
		C2255.8,746.9,2255.6,746.7,2255.6,746.4z"/>
	<path class="st4" d="M2274.6,731.1c-0.1-1.8-1-3.5-4.5-3.5c-2.7,0-4.6,0.7-4.6,3.5c0,6.1,11.9,2.3,11.9,10.2c0,4.3-3.7,5.8-7.2,5.8
		c-5.7,0-7.6-4-7.6-6.4c0-0.3,0.2-0.5,0.5-0.5h1.3c0.3,0,0.5,0.2,0.5,0.5c0.1,1.3,0.9,4.4,5.3,4.4c2.8,0,5-1,5-3.8
		c0-5.6-11.9-2-11.9-10.2c0-3.8,2.9-5.5,6.9-5.5c5.3,0,6.7,3.3,6.7,5.5c0,0.3-0.2,0.5-0.5,0.5h-1.3
		C2274.8,731.6,2274.6,731.4,2274.6,731.1z"/>
	<path class="st4" d="M2294.5,728h-10.2v7.2h8.2c0.3,0,0.5,0.2,0.5,0.5v1.1c0,0.3-0.2,0.5-0.5,0.5h-8.2v7.4h10.2
		c0.3,0,0.5,0.2,0.5,0.5v1.1c0,0.3-0.2,0.5-0.5,0.5h-11.9c-0.3,0-0.5-0.2-0.5-0.5v-20c0-0.3,0.2-0.5,0.5-0.5h11.9
		c0.3,0,0.5,0.2,0.5,0.5v1.1C2295,727.8,2294.8,728,2294.5,728z"/>
</g>
<g>
	<path class="st4" d="M1215,709.6c0,0.2-0.1,0.3-0.4,0.3h-1.5c-0.3,0-0.4-0.2-0.5-0.3l-1.9-5.3h-9.1l-1.9,5.3
		c-0.1,0.3-0.3,0.3-0.4,0.3h-1.5c-0.2,0-0.4-0.2-0.4-0.3c0-0.2,0.1-0.4,0.2-0.6l7.1-19.6c0.1-0.3,0.2-0.5,0.5-0.5h1.7
		c0.3,0,0.5,0.2,0.5,0.4l7.3,19.8C1214.9,709.2,1215,709.4,1215,709.6z M1210,702.2l-3.8-10.7l-3.8,10.7H1210z"/>
	<path class="st4" d="M1232.9,703.2c-0.2,3.7-3.2,7-7.5,7s-7.7-3.2-7.7-8.2v-5.2c0-5,3.3-8.2,7.7-8.2s7.1,3,7.5,6.7
		c0,0.3-0.2,0.4-0.4,0.4h-1.5c-0.2,0-0.3-0.1-0.4-0.4c-0.4-2.5-2.2-4.6-5.2-4.6s-5.4,2.2-5.4,6.1v5.2c0,3.8,2.4,6.1,5.4,6.1
		c3,0,4.9-2,5.2-4.9c0-0.2,0.1-0.4,0.4-0.4h1.6C1232.8,702.8,1232.9,703,1232.9,703.2z"/>
	<path class="st4" d="M1252.3,703.2c-0.2,3.7-3.2,7-7.5,7c-4.4,0-7.7-3.2-7.7-8.2v-5.2c0-5,3.3-8.2,7.7-8.2c4.4,0,7.1,3,7.5,6.7
		c0,0.3-0.1,0.4-0.4,0.4h-1.5c-0.2,0-0.3-0.1-0.4-0.4c-0.4-2.5-2.2-4.6-5.2-4.6s-5.4,2.2-5.4,6.1v5.2c0,3.8,2.4,6.1,5.4,6.1
		c3,0,4.9-2,5.2-4.9c0-0.2,0.2-0.4,0.4-0.4h1.6C1252.1,702.8,1252.3,703,1252.3,703.2z"/>
	<path class="st4" d="M1269.6,691h-10.2v7.2h8.2c0.3,0,0.5,0.2,0.5,0.5v1.1c0,0.3-0.2,0.5-0.5,0.5h-8.2v7.4h10.2
		c0.3,0,0.5,0.2,0.5,0.5v1.1c0,0.3-0.2,0.5-0.5,0.5h-11.9c-0.3,0-0.5-0.2-0.5-0.5v-20c0-0.3,0.2-0.5,0.5-0.5h11.9
		c0.3,0,0.5,0.2,0.5,0.5v1.1C1270.1,690.8,1269.9,691,1269.6,691z"/>
	<path class="st4" d="M1285.3,694.1c-0.1-1.8-1-3.5-4.5-3.5c-2.7,0-4.6,0.7-4.6,3.5c0,6.1,11.9,2.3,11.9,10.2c0,4.3-3.7,5.8-7.2,5.8
		c-5.7,0-7.6-4-7.6-6.4c0-0.3,0.2-0.5,0.5-0.5h1.3c0.3,0,0.5,0.2,0.5,0.5c0.1,1.3,0.9,4.4,5.3,4.4c2.8,0,5-1,5-3.8
		c0-5.6-11.9-2-11.9-10.2c0-3.8,2.9-5.5,6.9-5.5c5.3,0,6.7,3.3,6.7,5.5c0,0.3-0.2,0.5-0.5,0.5h-1.3
		C1285.5,694.6,1285.3,694.4,1285.3,694.1z"/>
	<path class="st4" d="M1303.4,694.1c-0.2-1.8-1-3.5-4.5-3.5c-2.7,0-4.6,0.7-4.6,3.5c0,6.1,11.9,2.3,11.9,10.2c0,4.3-3.7,5.8-7.2,5.8
		c-5.7,0-7.6-4-7.6-6.4c0-0.3,0.2-0.5,0.5-0.5h1.3c0.3,0,0.5,0.2,0.5,0.5c0.1,1.3,0.9,4.4,5.3,4.4c2.8,0,4.9-1,4.9-3.8
		c0-5.6-11.9-2-11.9-10.2c0-3.8,2.9-5.5,6.9-5.5c5.3,0,6.7,3.3,6.7,5.5c0,0.3-0.2,0.5-0.5,0.5h-1.3
		C1303.6,694.6,1303.4,694.4,1303.4,694.1z"/>
	<path class="st4" d="M1316.4,690.5v-1.1c0-0.3,0.2-0.5,0.5-0.5h14.9c0.3,0,0.5,0.2,0.5,0.5v1.1c0,0.3-0.2,0.5-0.5,0.5h-6.3v18.4
		c0,0.3-0.2,0.5-0.5,0.5h-1.3c-0.3,0-0.5-0.2-0.5-0.5V691h-6.3C1316.6,691,1316.4,690.8,1316.4,690.5z"/>
	<path class="st4" d="M1342.2,688.6c4.3,0,7.7,3.2,7.7,8.2v5.2c0,5-3.4,8.2-7.7,8.2s-7.7-3.2-7.7-8.2v-5.2
		C1334.6,691.8,1337.9,688.6,1342.2,688.6z M1342.3,708.1c3,0,5.4-2.2,5.4-6.1v-5.2c0-3.9-2.4-6.1-5.4-6.1s-5.4,2.2-5.4,6.1v5.2
		C1336.8,705.8,1339.3,708.1,1342.3,708.1z"/>
	<path class="st4" d="M1375.1,709.9H1363c-0.3,0-0.5-0.2-0.5-0.5v-20c0-0.3,0.2-0.5,0.5-0.5h1.3c0.3,0,0.5,0.2,0.5,0.5v18.4h10.4
		c0.3,0,0.5,0.2,0.5,0.5v1.1C1375.6,709.7,1375.4,709.9,1375.1,709.9z"/>
	<path class="st4" d="M1392.1,691h-10.2v7.2h8.2c0.3,0,0.5,0.2,0.5,0.5v1.1c0,0.3-0.2,0.5-0.5,0.5h-8.2v7.4h10.2
		c0.3,0,0.5,0.2,0.5,0.5v1.1c0,0.3-0.2,0.5-0.5,0.5h-11.9c-0.3,0-0.5-0.2-0.5-0.5v-20c0-0.3,0.2-0.5,0.5-0.5h11.9
		c0.3,0,0.5,0.2,0.5,0.5v1.1C1392.6,690.8,1392.4,691,1392.1,691z"/>
	<path class="st4" d="M1407.8,694.1c-0.2-1.8-1-3.5-4.5-3.5c-2.7,0-4.6,0.7-4.6,3.5c0,6.1,11.9,2.3,11.9,10.2c0,4.3-3.7,5.8-7.2,5.8
		c-5.7,0-7.6-4-7.6-6.4c0-0.3,0.2-0.5,0.5-0.5h1.3c0.3,0,0.5,0.2,0.5,0.5c0.1,1.3,0.9,4.4,5.3,4.4c2.8,0,4.9-1,4.9-3.8
		c0-5.6-11.9-2-11.9-10.2c0-3.8,2.9-5.5,6.9-5.5c5.3,0,6.7,3.3,6.7,5.5c0,0.3-0.2,0.5-0.5,0.5h-1.3
		C1408,694.6,1407.8,694.4,1407.8,694.1z"/>
	<path class="st4" d="M1425.9,694.1c-0.1-1.8-1-3.5-4.5-3.5c-2.7,0-4.6,0.7-4.6,3.5c0,6.1,11.9,2.3,11.9,10.2c0,4.3-3.7,5.8-7.2,5.8
		c-5.7,0-7.6-4-7.6-6.4c0-0.3,0.2-0.5,0.5-0.5h1.3c0.3,0,0.5,0.2,0.5,0.5c0.1,1.3,0.9,4.4,5.3,4.4c2.8,0,5-1,5-3.8
		c0-5.6-11.9-2-11.9-10.2c0-3.8,2.9-5.5,6.9-5.5c5.3,0,6.7,3.3,6.7,5.5c0,0.3-0.2,0.5-0.5,0.5h-1.3
		C1426.1,694.6,1425.9,694.4,1425.9,694.1z"/>
	<path class="st4" d="M1185.9,746.4v-20c0-0.3,0.2-0.5,0.5-0.5h6.6c4.4,0,7.7,3.1,7.7,8.2v4.7c0,5-3.4,8.2-7.7,8.2h-6.6
		C1186.1,746.9,1185.9,746.7,1185.9,746.4z M1188.2,744.8h4.8c3,0,5.4-2.2,5.4-6.1v-4.6c0-3.8-2.4-6.1-5.4-6.1h-4.8V744.8z"/>
	<path class="st4" d="M1205.7,746.4v-20c0-0.3,0.2-0.5,0.5-0.5h1.3c0.3,0,0.5,0.2,0.5,0.5v20c0,0.3-0.2,0.5-0.5,0.5h-1.3
		C1205.9,746.9,1205.7,746.7,1205.7,746.4z"/>
	<path class="st4" d="M1226.3,746.9h-12.1c-0.3,0-0.5-0.2-0.5-0.5v-20c0-0.3,0.2-0.5,0.5-0.5h1.3c0.3,0,0.5,0.2,0.5,0.5v18.4h10.4
		c0.3,0,0.5,0.2,0.5,0.5v1.1C1226.9,746.7,1226.6,746.9,1226.3,746.9z"/>
	<path class="st4" d="M1243.1,725.9h1.3c0.3,0,0.5,0.2,0.5,0.5v12.7c0,5-3.1,8.1-7.4,8.1s-7.4-3.1-7.4-8.1v-12.7
		c0-0.3,0.2-0.5,0.5-0.5h1.3c0.3,0,0.5,0.2,0.5,0.5v12.7c0,3.8,2.1,6,5.1,6c2.9,0,5.1-2.2,5.1-6v-12.7
		C1242.6,726.1,1242.8,725.9,1243.1,725.9z"/>
	<path class="st4" d="M1248.4,727.5v-1.1c0-0.3,0.2-0.5,0.5-0.5h14.9c0.3,0,0.5,0.2,0.5,0.5v1.1c0,0.3-0.2,0.5-0.5,0.5h-6.3v18.4
		c0,0.3-0.2,0.5-0.5,0.5h-1.3c-0.3,0-0.5-0.2-0.5-0.5V728h-6.3C1248.6,728,1248.4,727.8,1248.4,727.5z"/>
	<path class="st4" d="M1268,746.4v-20c0-0.3,0.2-0.5,0.5-0.5h1.3c0.3,0,0.5,0.2,0.5,0.5v20c0,0.3-0.2,0.5-0.5,0.5h-1.3
		C1268.3,746.9,1268,746.7,1268,746.4z"/>
	<path class="st4" d="M1291.6,726.2c0,0.1-0.1,0.4-0.2,0.6l-7.3,19.7c-0.1,0.2-0.2,0.4-0.5,0.4h-1.7c-0.2,0-0.4-0.1-0.5-0.4
		l-7.3-19.9c0-0.1-0.1-0.3-0.1-0.4c0-0.2,0.1-0.3,0.3-0.3h1.5c0.3,0,0.5,0.2,0.6,0.6l6.3,17.6l6.4-17.7c0.1-0.3,0.2-0.5,0.5-0.5h1.5
		C1291.4,725.9,1291.6,726,1291.6,726.2z"/>
	<path class="st4" d="M1307.8,728h-10.2v7.2h8.2c0.3,0,0.5,0.2,0.5,0.5v1.1c0,0.3-0.2,0.5-0.5,0.5h-8.2v7.4h10.2
		c0.3,0,0.5,0.2,0.5,0.5v1.1c0,0.3-0.2,0.5-0.5,0.5h-11.9c-0.3,0-0.5-0.2-0.5-0.5v-20c0-0.3,0.2-0.5,0.5-0.5h11.9
		c0.3,0,0.5,0.2,0.5,0.5v1.1C1308.3,727.8,1308.1,728,1307.8,728z"/>
	<path class="st4" d="M1332.8,728h-10.2v7.8h8.2c0.3,0,0.5,0.2,0.5,0.5v1.1c0,0.3-0.2,0.5-0.5,0.5h-8.2v8.4c0,0.3-0.2,0.5-0.5,0.5
		h-1.3c-0.3,0-0.5-0.2-0.5-0.5v-20c0-0.3,0.2-0.5,0.5-0.5h11.9c0.3,0,0.5,0.2,0.5,0.5v1.1C1333.3,727.8,1333.1,728,1332.8,728z"/>
	<path class="st4" d="M1350.1,725.9h1.3c0.3,0,0.5,0.2,0.5,0.5v12.7c0,5-3.1,8.1-7.4,8.1s-7.4-3.1-7.4-8.1v-12.7
		c0-0.3,0.2-0.5,0.5-0.5h1.3c0.3,0,0.5,0.2,0.5,0.5v12.7c0,3.8,2.1,6,5.1,6c2.9,0,5.1-2.2,5.1-6v-12.7
		C1349.6,726.1,1349.8,725.9,1350.1,725.9z"/>
	<path class="st4" d="M1372.4,726.4v20c0,0.3-0.2,0.5-0.5,0.5h-1c-0.2,0-0.5,0-0.8-0.6l-10.5-16.6v16.7c0,0.3-0.2,0.5-0.5,0.5h-1.2
		c-0.3,0-0.5-0.2-0.5-0.5v-20c0-0.3,0.2-0.5,0.5-0.5h1.5c0.3,0,0.5,0.2,0.6,0.4l10.3,16.3v-16.2c0-0.3,0.2-0.5,0.5-0.5h1.2
		C1372.1,725.9,1372.4,726.1,1372.4,726.4z"/>
	<path class="st4" d="M1378.1,746.4v-20c0-0.3,0.2-0.5,0.5-0.5h6.6c4.4,0,7.7,3.1,7.7,8.2v4.7c0,5-3.4,8.2-7.7,8.2h-6.6
		C1378.3,746.9,1378.1,746.7,1378.1,746.4z M1380.4,744.8h4.8c3,0,5.4-2.2,5.4-6.1v-4.6c0-3.8-2.4-6.1-5.4-6.1h-4.8V744.8z"/>
	<path class="st4" d="M1397.9,746.4v-20c0-0.3,0.2-0.5,0.5-0.5h1.3c0.3,0,0.5,0.2,0.5,0.5v20c0,0.3-0.2,0.5-0.5,0.5h-1.3
		C1398.1,746.9,1397.9,746.7,1397.9,746.4z"/>
	<path class="st4" d="M1421,726.4v20c0,0.3-0.2,0.5-0.5,0.5h-1c-0.2,0-0.5,0-0.8-0.6l-10.5-16.6v16.7c0,0.3-0.2,0.5-0.5,0.5h-1.2
		c-0.3,0-0.5-0.2-0.5-0.5v-20c0-0.3,0.2-0.5,0.5-0.5h1.5c0.3,0,0.5,0.2,0.6,0.4l10.3,16.3v-16.2c0-0.3,0.2-0.5,0.5-0.5h1.2
		C1420.7,725.9,1421,726.1,1421,726.4z"/>
	<path class="st4" d="M1433.4,737.8v-1.1c0-0.3,0.2-0.5,0.5-0.5h6.8c0.3,0,0.5,0.2,0.5,0.5v9.7c0,0.3-0.2,0.5-0.5,0.5h-1
		c-0.3,0-0.5-0.2-0.5-0.5v-2.1c-1,1.8-3.1,2.9-5.5,2.9c-4.8,0-7.7-3.7-7.7-8.2v-5.2c0-5,3.3-8.2,7.7-8.2s6.9,2.9,7.5,6.4
		c0.1,0.2,0.1,0.4,0.1,0.5c0,0.2-0.1,0.3-0.3,0.3h-1.6c-0.2,0-0.4-0.1-0.4-0.4c-0.3-2.2-2-4.6-5.2-4.6c-3,0-5.4,2.2-5.4,6.1v5.2
		c0,3.8,2.5,6.1,5.5,6.1c3.8,0,5.3-3.2,5.3-5.2v-1.6h-5.2C1433.6,738.3,1433.4,738.1,1433.4,737.8z"/>
</g>
<g>
	<path class="st1" d="M1244.1,1237c-0.1-1.8-1-3.5-4.5-3.5c-2.7,0-4.6,0.7-4.6,3.5c0,6.1,11.9,2.3,11.9,10.2c0,4.3-3.7,5.8-7.2,5.8
		c-5.7,0-7.6-4-7.6-6.4c0-0.3,0.2-0.5,0.5-0.5h1.3c0.3,0,0.5,0.2,0.5,0.5c0.1,1.3,0.9,4.4,5.3,4.4c2.8,0,5-1,5-3.8
		c0-5.6-11.9-2-11.9-10.2c0-3.8,2.9-5.5,6.9-5.5c5.3,0,6.7,3.3,6.7,5.5c0,0.3-0.2,0.5-0.5,0.5h-1.3
		C1244.3,1237.5,1244.1,1237.3,1244.1,1237z"/>
	<path class="st1" d="M1249.4,1233.5v-1.1c0-0.3,0.2-0.5,0.5-0.5h14.9c0.3,0,0.5,0.2,0.5,0.5v1.1c0,0.3-0.2,0.5-0.5,0.5h-6.3v18.4
		c0,0.3-0.2,0.5-0.5,0.5h-1.3c-0.3,0-0.5-0.2-0.5-0.5V1234h-6.3C1249.6,1234,1249.4,1233.8,1249.4,1233.5z"/>
	<path class="st1" d="M1270.8,1252.8h-1.3c-0.3,0-0.5-0.2-0.5-0.5v-20c0-0.3,0.2-0.5,0.5-0.5h7.2c3.8,0,6.5,2,6.5,6v0.4
		c0,2.6-1.4,4.8-4.5,5.7l4.3,8.1c0.1,0.2,0.1,0.3,0.1,0.4c0,0.2-0.1,0.3-0.3,0.3h-1.7c-0.3,0-0.4-0.2-0.5-0.4l-4.2-8.1h-5v8
		C1271.3,1252.6,1271.1,1252.8,1270.8,1252.8z M1276.6,1242.2c2.2,0,4.3-1.2,4.3-3.8v-0.5c0-3-2.1-3.9-4.3-3.9h-5.3v8.2H1276.6z"/>
	<path class="st1" d="M1300.4,1234h-10.2v7.2h8.2c0.3,0,0.5,0.2,0.5,0.5v1.1c0,0.3-0.2,0.5-0.5,0.5h-8.2v7.4h10.2
		c0.3,0,0.5,0.2,0.5,0.5v1.1c0,0.3-0.2,0.5-0.5,0.5h-11.9c-0.3,0-0.5-0.2-0.5-0.5v-20c0-0.3,0.2-0.5,0.5-0.5h11.9
		c0.3,0,0.5,0.2,0.5,0.5v1.1C1300.9,1233.8,1300.7,1234,1300.4,1234z"/>
	<path class="st1" d="M1321.1,1252.5c0,0.2-0.1,0.3-0.4,0.3h-1.5c-0.3,0-0.4-0.1-0.5-0.3l-1.9-5.3h-9.1l-1.9,5.3
		c-0.1,0.3-0.3,0.3-0.4,0.3h-1.5c-0.2,0-0.4-0.1-0.4-0.3c0-0.1,0.1-0.4,0.2-0.6l7.1-19.6c0.1-0.3,0.2-0.5,0.5-0.5h1.7
		c0.3,0,0.5,0.2,0.5,0.4l7.3,19.8C1321,1252.2,1321.1,1252.4,1321.1,1252.5z M1316.1,1245.2l-3.8-10.7l-3.8,10.7H1316.1z"/>
	<path class="st1" d="M1344.9,1232.4v20c0,0.3-0.2,0.5-0.5,0.5h-1.2c-0.3,0-0.5-0.2-0.5-0.5v-17.3l-6.7,17.4
		c-0.1,0.2-0.3,0.4-0.5,0.4h-1.2c-0.3,0-0.4-0.1-0.5-0.3l-6.7-17.5v17.3c0,0.3-0.2,0.5-0.5,0.5h-1.2c-0.3,0-0.5-0.2-0.5-0.5v-20
		c0-0.3,0.2-0.5,0.5-0.5h2.4c0.2,0,0.4,0.1,0.4,0.3l6.6,17.5l6.7-17.5c0.1-0.2,0.2-0.3,0.4-0.3h2.3
		C1344.7,1231.9,1344.9,1232.1,1344.9,1232.4z"/>
	<path class="st1" d="M1350.7,1252.3v-20c0-0.3,0.2-0.5,0.5-0.5h1.3c0.3,0,0.5,0.2,0.5,0.5v20c0,0.3-0.2,0.5-0.5,0.5h-1.3
		C1350.9,1252.8,1350.7,1252.6,1350.7,1252.3z"/>
	<path class="st1" d="M1373.8,1232.4v20c0,0.3-0.2,0.5-0.5,0.5h-1c-0.2,0-0.5,0-0.8-0.6l-10.5-16.6v16.7c0,0.3-0.2,0.5-0.5,0.5h-1.2
		c-0.3,0-0.5-0.2-0.5-0.5v-20c0-0.3,0.2-0.5,0.5-0.5h1.5c0.3,0,0.5,0.2,0.6,0.4l10.3,16.3v-16.2c0-0.3,0.2-0.5,0.5-0.5h1.2
		C1373.5,1231.9,1373.8,1232.1,1373.8,1232.4z"/>
	<path class="st1" d="M1386.2,1243.8v-1.1c0-0.3,0.2-0.5,0.5-0.5h6.8c0.3,0,0.5,0.2,0.5,0.5v9.7c0,0.3-0.2,0.5-0.5,0.5h-1
		c-0.3,0-0.5-0.2-0.5-0.5v-2.1c-1,1.8-3.1,2.9-5.5,2.9c-4.8,0-7.7-3.7-7.7-8.2v-5.2c0-5,3.3-8.2,7.7-8.2s6.9,2.9,7.5,6.4
		c0.1,0.2,0.1,0.4,0.1,0.5c0,0.2-0.1,0.3-0.3,0.3h-1.6c-0.2,0-0.4-0.1-0.4-0.5c-0.3-2.2-2-4.6-5.2-4.6c-3,0-5.4,2.2-5.4,6.1v5.2
		c0,3.8,2.5,6.1,5.5,6.1c3.8,0,5.3-3.1,5.3-5.2v-1.6h-5.2C1386.4,1244.3,1386.2,1244.1,1386.2,1243.8z"/>
	<path class="st1" d="M1259,1282h-5.4v7.4c0,0.3-0.2,0.5-0.5,0.5h-1.3c-0.3,0-0.5-0.2-0.5-0.5v-20c0-0.3,0.2-0.5,0.5-0.5h7.2
		c3.8,0,6.5,2.1,6.5,6.1v0.6C1265.5,1279.5,1262.9,1282,1259,1282z M1253.6,1271v8.8h5.3c2.2,0,4.3-1.3,4.3-4.2v-0.6
		c0-3-2.1-4-4.3-4H1253.6z"/>
	<path class="st1" d="M1283.8,1289.5c0,0.2-0.2,0.3-0.4,0.3h-1.5c-0.3,0-0.4-0.1-0.5-0.3l-1.9-5.3h-9.1l-1.9,5.3
		c-0.1,0.3-0.3,0.3-0.4,0.3h-1.5c-0.2,0-0.4-0.1-0.4-0.3c0-0.1,0.1-0.4,0.2-0.6l7.1-19.6c0.1-0.3,0.2-0.5,0.5-0.5h1.7
		c0.3,0,0.4,0.2,0.5,0.4l7.3,19.8C1283.7,1289.2,1283.8,1289.4,1283.8,1289.5z M1278.8,1282.2l-3.8-10.7l-3.8,10.7H1278.8z"/>
	<path class="st1" d="M1289.4,1289.8h-1.3c-0.3,0-0.5-0.2-0.5-0.5v-20c0-0.3,0.2-0.5,0.5-0.5h7.2c3.8,0,6.5,2,6.5,6v0.4
		c0,2.6-1.4,4.8-4.5,5.7l4.3,8.1c0.1,0.2,0.1,0.3,0.1,0.4c0,0.2-0.1,0.3-0.3,0.3h-1.7c-0.3,0-0.4-0.2-0.5-0.4l-4.2-8.1h-5v8
		C1289.9,1289.6,1289.7,1289.8,1289.4,1289.8z M1295.2,1279.2c2.2,0,4.3-1.2,4.3-3.8v-0.5c0-3-2.1-3.9-4.3-3.9h-5.3v8.2H1295.2z"/>
	<path class="st1" d="M1304.4,1270.5v-1.1c0-0.3,0.2-0.5,0.5-0.5h14.9c0.3,0,0.5,0.2,0.5,0.5v1.1c0,0.3-0.2,0.5-0.5,0.5h-6.3v18.4
		c0,0.3-0.2,0.5-0.5,0.5h-1.3c-0.3,0-0.5-0.2-0.5-0.5V1271h-6.3C1304.6,1271,1304.4,1270.8,1304.4,1270.5z"/>
	<path class="st1" d="M1339.2,1269.4v20c0,0.3-0.2,0.5-0.5,0.5h-1c-0.2,0-0.5,0-0.8-0.6l-10.5-16.6v16.7c0,0.3-0.2,0.5-0.5,0.5h-1.2
		c-0.3,0-0.5-0.2-0.5-0.5v-20c0-0.3,0.2-0.5,0.5-0.5h1.5c0.3,0,0.5,0.2,0.6,0.4l10.3,16.3v-16.2c0-0.3,0.2-0.5,0.5-0.5h1.2
		C1339,1268.9,1339.2,1269.1,1339.2,1269.4z"/>
	<path class="st1" d="M1357.4,1271h-10.2v7.2h8.2c0.3,0,0.5,0.2,0.5,0.5v1.1c0,0.3-0.2,0.5-0.5,0.5h-8.2v7.4h10.2
		c0.3,0,0.5,0.2,0.5,0.5v1.1c0,0.3-0.2,0.5-0.5,0.5h-11.9c-0.3,0-0.5-0.2-0.5-0.5v-20c0-0.3,0.2-0.5,0.5-0.5h11.9
		c0.3,0,0.5,0.2,0.5,0.5v1.1C1357.9,1270.8,1357.7,1271,1357.4,1271z"/>
	<path class="st1" d="M1364.2,1289.8h-1.3c-0.3,0-0.5-0.2-0.5-0.5v-20c0-0.3,0.2-0.5,0.5-0.5h7.2c3.8,0,6.5,2,6.5,6v0.4
		c0,2.6-1.4,4.8-4.5,5.7l4.3,8.1c0.1,0.2,0.2,0.3,0.2,0.4c0,0.2-0.2,0.3-0.3,0.3h-1.7c-0.3,0-0.4-0.2-0.5-0.4l-4.2-8.1h-5v8
		C1364.7,1289.6,1364.5,1289.8,1364.2,1289.8z M1370,1279.2c2.2,0,4.3-1.2,4.3-3.8v-0.5c0-3-2.1-3.9-4.3-3.9h-5.3v8.2H1370z"/>
</g>
<line class="st2" x1="1313.5" y1="827.1" x2="1313.5" y2="989.1"/>
<g>
	<defs>
		<rect id="SVGID_3_" x="1254.7" y="1074.4" width="114.4" height="107.6"/>
	</defs>
	<clipPath id="SVGID_4_">
		<use xlink:href="#SVGID_3_"  style="overflow:visible;"/>
	</clipPath>
	<path class="st6" d="M1259.3,1098.3c-0.2-0.1-0.5-0.1-0.7,0c-0.2,0.1-0.3,0.4-0.2,0.6c3.7,16,11.7,29.9,23.9,41.4
		c7.1,6.7,14.2,11.2,19.3,14.1c-8.2-3.1-22.2-7.5-37.4-7.5c-3,0-6,0.2-8.9,0.5c-0.2,0-0.5,0.2-0.5,0.4c-0.1,0.2,0,0.5,0.2,0.7
		c11.6,9.5,24.4,14.3,38,14.3c3.7,0,6.9-0.4,9.4-0.8c-6.5,2.4-17.1,7.4-25.8,17.8c-0.2,0.2-0.2,0.5,0,0.7c0.1,0.2,0.4,0.3,0.7,0.3
		c10.4-2.6,18.8-6.1,25.1-10.4c4.8-3.3,7.1-6.2,8.2-7.7c0.1,2.8-0.1,9.8-0.2,13.5c-0.1,4.7-0.1,4.7,0,4.9c0.2,0.3,1.1,0.8,1.6,0.8
		c0.5,0,1.4-0.4,1.7-0.8c0.1-0.2,0.1-0.2,0-4.6c-0.1-3.8-0.4-11-0.2-13.8c1.1,1.5,3.4,4.4,8.2,7.7c6.3,4.3,14.7,7.8,25.1,10.4
		c0.3,0.1,0.5,0,0.7-0.3c0.1-0.2,0.1-0.5,0-0.7c-8.7-10.4-19.3-15.4-25.8-17.8c2.5,0.4,5.7,0.8,9.4,0.8c13.7,0,26.5-4.8,38-14.3
		c0.2-0.2,0.3-0.4,0.2-0.7c-0.1-0.2-0.3-0.4-0.5-0.4c-2.9-0.4-5.8-0.5-8.9-0.5c-15.2,0-29.2,4.4-37.4,7.5c5-2.8,12.2-7.4,19.3-14.1
		c12.2-11.5,20.2-25.4,23.9-41.4c0.1-0.2,0-0.5-0.2-0.6c-0.2-0.1-0.5-0.2-0.7,0c-28.4,17.1-43,41.8-48.9,52.4
		c1.6-4.8,3.9-12.6,4.8-22.6c1.7-17.6-1-35.6-7.9-53.3c-0.1-0.2-0.3-0.4-0.6-0.4c-0.3,0-0.5,0.2-0.6,0.4
		c-6.9,17.8-9.6,35.7-7.9,53.4c1,10,3.2,17.9,4.8,22.6C1302.3,1140.1,1287.8,1115.4,1259.3,1098.3"/>
</g>
<polygon class="st4" points="1313.5,807.8 1298.3,834 1328.6,834 "/>
<polygon class="st4" points="1313.5,1004.5 1328.6,978.3 1298.3,978.3 "/>
<polygon class="st4" points="985.2,1004.5 1000.4,978.3 970.1,978.3 "/>
<polygon class="st4" points="700.8,1004.5 716,978.3 685.7,978.3 "/>
<polygon class="st4" points="1632.7,1004.5 1647.8,978.3 1617.5,978.3 "/>
<polygon class="st4" points="1917.1,1004.5 1932.2,978.3 1901.9,978.3 "/>
<polygon class="st4" points="2220.7,1004.5 2235.9,978.3 2205.6,978.3 "/>
<polygon class="st4" points="377.8,1004.5 392.9,978.3 362.6,978.3 "/>
<line class="st3" x1="377.8" y1="598.5" x2="377.8" y2="659.1"/>
<line class="st3" x1="2220.7" y1="598.5" x2="2220.7" y2="659.1"/>
</svg>
