<svg xmlns="http://www.w3.org/2000/svg" xmlns:xlink="http://www.w3.org/1999/xlink" viewBox="0 0 2616 1540"><defs><clipPath id="clip-path"><rect x="1244.64" y="1057.11" width="136.25" height="128.09" fill="none"/></clipPath></defs><title>Asset 9</title><g id="Layer_2" data-name="Layer 2"><g id="Layer_1-2" data-name="Layer 1"><rect width="2616" height="1540" fill="#4b4e53"/><path d="M1291.75,354.76c-19.13,0-37.35.54-55.27-.24-8.4-.37-15.55-4.14-19-10.62-8.05-15.06-67-130.69-69.36-135.3-.47-.91-.36-4,3.55-4,15.71,0,31.44-.16,47.11,0,10.93.12,19,4.06,23.2,11.83,5.85,10.83,69.26,136.53,69.78,138.32" fill="#a5b993"/><path d="M1397.23,354.76c-19.13,0-37.35.54-55.27-.24-8.4-.37-15.55-4.14-19-10.62-8.05-15.06-67-130.69-69.36-135.3-.47-.91-.36-4,3.54-4,15.71,0,31.44-.16,47.11,0,10.94.12,19,4.06,23.21,11.83,5.85,10.83,69.26,136.53,69.78,138.32" fill="#a5b993"/><path d="M1458.35,205.15h0c-2.27-.4-17.24-.59-32.12-.62-10.69,0-18.81,5.27-23.91,15-7.3,13.88-14.24,28-21.37,42-1.77,3.49,1.66,5.07,2.9,5.09,2.27.4,17.24.59,32.12.62,10.69,0,18.81-5.27,23.91-15,7.3-13.89,14.24-28,21.37-42,1.77-3.49-1.66-5.07-2.9-5.09" fill="#a5b993"/><line x1="1308" y1="436.57" x2="1308" y2="598.53"/><rect x="1307" y="436.57" width="2" height="161.97" fill="#fff"/><line x1="372.28" y1="827.14" x2="372.28" y2="989.1"/><rect x="371.28" y="827.14" width="2" height="161.97" fill="#fff"/><line x1="695.33" y1="827.14" x2="695.33" y2="989.1"/><rect x="694.33" y="827.14" width="2" height="161.97" fill="#fff"/><line x1="979.74" y1="827.14" x2="979.74" y2="989.1"/><rect x="978.74" y="827.14" width="2" height="161.97" fill="#fff"/><line x1="1627.17" y1="827.14" x2="1627.17" y2="989.1"/><rect x="1626.17" y="827.14" width="2" height="161.97" fill="#fff"/><line x1="2215.23" y1="827.14" x2="2215.23" y2="989.1"/><rect x="2214.23" y="827.14" width="2" height="161.97" fill="#fff"/><line x1="1308" y1="827.14" x2="1308" y2="989.1"/><rect x="1307" y="827.14" width="2" height="161.97" fill="#fff"/><rect x="372.28" y="597.53" width="1842.94" height="2" fill="#fff"/><path d="M289.09,703.17a7.5,7.5,0,0,1-7.71,7c-4.56,0-8-3.36-8-8.46v-4.68c0-5.1,3.42-8.46,8-8.46a7.42,7.42,0,0,1,7.68,6.84.5.5,0,0,1-.54.6H286.3c-.24,0-.48-.15-.54-.6a4.29,4.29,0,0,0-4.38-3.81c-2.64,0-4.74,2-4.74,5.46v4.65c0,3.48,2.13,5.43,4.74,5.43a4.21,4.21,0,0,0,4.41-3.9c0-.33.15-.63.54-.63h2.28A.49.49,0,0,1,289.09,703.17Z" fill="#fff"/><path d="M309.58,709.41a.48.48,0,0,1-.51.48h-2.19a.61.61,0,0,1-.63-.39l-1.59-4.56h-8.49l-1.56,4.53a.6.6,0,0,1-.57.42h-2.1a.48.48,0,0,1-.51-.48,2.12,2.12,0,0,1,.18-.6l6.93-19.38a.79.79,0,0,1,.72-.54h2.49a.75.75,0,0,1,.69.54l7,19.35A3.94,3.94,0,0,1,309.58,709.41ZM303.7,702l-3.24-9.39L297.19,702Z" fill="#fff"/><path d="M321.19,702.6h-5v6.6a.68.68,0,0,1-.69.69h-1.83a.68.68,0,0,1-.69-.69V689.61a.69.69,0,0,1,.69-.72h7.56c3.81,0,6.48,2.25,6.48,6.33V696C327.67,700.05,325,702.6,321.19,702.6Zm-5-10.68v7.65H321a3.33,3.33,0,0,0,3.48-3.63v-.54a3.21,3.21,0,0,0-3.48-3.48Z" fill="#fff"/><path d="M331.57,709.2V689.61a.69.69,0,0,1,.69-.72h1.83a.69.69,0,0,1,.69.72V709.2a.68.68,0,0,1-.69.69h-1.83A.68.68,0,0,1,331.57,709.2Z" fill="#fff"/><path d="M338.08,691.23v-1.62a.69.69,0,0,1,.69-.72h14.64a.69.69,0,0,1,.69.72v1.62a.68.68,0,0,1-.69.69h-5.7V709.2a.7.7,0,0,1-.72.69h-1.83a.68.68,0,0,1-.69-.69V691.92h-5.7A.68.68,0,0,1,338.08,691.23Z" fill="#fff"/><path d="M371.44,709.41a.48.48,0,0,1-.51.48h-2.19a.61.61,0,0,1-.63-.39l-1.59-4.56H358l-1.56,4.53a.6.6,0,0,1-.57.42h-2.1a.48.48,0,0,1-.51-.48,2.12,2.12,0,0,1,.18-.6l6.93-19.38a.79.79,0,0,1,.72-.54h2.49a.75.75,0,0,1,.69.54l7,19.35A3.94,3.94,0,0,1,371.44,709.41ZM365.56,702l-3.24-9.39L359,702Z" fill="#fff"/><path d="M387.31,709.89H375.49a.68.68,0,0,1-.69-.69V689.61a.69.69,0,0,1,.69-.72h1.83a.69.69,0,0,1,.69.72v17.25h9.3a.71.71,0,0,1,.69.72v1.62A.68.68,0,0,1,387.31,709.89Z" fill="#fff"/><path d="M411.42,691.92h-9.18v6.57h7.26a.68.68,0,0,1,.69.69v1.65a.68.68,0,0,1-.69.69h-7.26v7.68a.68.68,0,0,1-.69.69h-1.83a.68.68,0,0,1-.69-.69V689.61a.69.69,0,0,1,.69-.72h11.7a.69.69,0,0,1,.69.72v1.62A.68.68,0,0,1,411.42,691.92Z" fill="#fff"/><path d="M422.52,688.59c4.56,0,8,3.36,8,8.46v4.68c0,5.1-3.45,8.46-8,8.46s-8-3.36-8-8.46v-4.68C414.55,692,418,688.59,422.52,688.59Zm0,18.57c2.61,0,4.77-1.95,4.77-5.43v-4.65c0-3.48-2.16-5.46-4.77-5.46s-4.74,2-4.74,5.46v4.65C417.78,705.21,419.92,707.16,422.52,707.16Z" fill="#fff"/><path d="M437.44,709.89h-1.83a.68.68,0,0,1-.69-.69V689.61a.69.69,0,0,1,.69-.72h7.56c3.81,0,6.48,2.07,6.48,6.15v.66a5.46,5.46,0,0,1-4.14,5.7l3.9,7.38a1.19,1.19,0,0,1,.24.63.47.47,0,0,1-.48.48h-2.31a.84.84,0,0,1-.75-.57l-3.78-7.38h-4.2v7.26A.68.68,0,0,1,437.44,709.89Zm5.52-11c1.86,0,3.48-1,3.48-3.24v-.45c0-2.46-1.62-3.3-3.48-3.3h-4.83v7Z" fill="#fff"/><path d="M245.54,746.2V726.61a.69.69,0,0,1,.69-.72h1.83a.69.69,0,0,1,.69.72V746.2a.68.68,0,0,1-.69.69h-1.83A.68.68,0,0,1,245.54,746.2Z" fill="#fff"/><path d="M269.51,726.61V746.2a.69.69,0,0,1-.72.69h-1.65c-.27,0-.6,0-1.08-.81L256.94,731V746.2a.7.7,0,0,1-.72.69h-1.74a.68.68,0,0,1-.69-.69V726.61a.69.69,0,0,1,.69-.72h2.31a1,1,0,0,1,.81.57L266.36,741v-14.4a.69.69,0,0,1,.69-.72h1.74A.69.69,0,0,1,269.51,726.61Z" fill="#fff"/><path d="M274.55,746.2V726.61a.69.69,0,0,1,.69-.72h1.83a.69.69,0,0,1,.69.72V746.2a.68.68,0,0,1-.69.69h-1.83A.68.68,0,0,1,274.55,746.2Z" fill="#fff"/><path d="M281.06,728.23v-1.62a.69.69,0,0,1,.69-.72h14.64a.69.69,0,0,1,.69.72v1.62a.68.68,0,0,1-.69.69h-5.7V746.2a.7.7,0,0,1-.72.69h-1.83a.68.68,0,0,1-.69-.69V728.92h-5.7A.68.68,0,0,1,281.06,728.23Z" fill="#fff"/><path d="M300.38,746.2V726.61a.69.69,0,0,1,.69-.72h1.83a.69.69,0,0,1,.69.72V746.2a.68.68,0,0,1-.69.69h-1.83A.68.68,0,0,1,300.38,746.2Z" fill="#fff"/><path d="M325.1,746.41a.48.48,0,0,1-.51.48H322.4a.61.61,0,0,1-.63-.39l-1.59-4.56h-8.49l-1.56,4.53a.6.6,0,0,1-.57.42h-2.1a.48.48,0,0,1-.51-.48,2.12,2.12,0,0,1,.18-.6l6.93-19.38a.79.79,0,0,1,.72-.54h2.49a.75.75,0,0,1,.69.54l7,19.35A3.94,3.94,0,0,1,325.1,746.41ZM319.22,739,316,729.64,312.71,739Z" fill="#fff"/><path d="M341,746.89H329.15a.68.68,0,0,1-.69-.69V726.61a.69.69,0,0,1,.69-.72H331a.69.69,0,0,1,.69.72v17.25H341a.71.71,0,0,1,.69.72v1.62A.68.68,0,0,1,341,746.89Z" fill="#fff"/><path d="M367.67,740.83v.3c0,4.59-3.54,5.76-7.41,5.76h-6.87a.68.68,0,0,1-.69-.69V726.61a.69.69,0,0,1,.69-.72h7c4,0,6.75,1.74,6.75,5.55v.45a4.38,4.38,0,0,1-2.64,4.2A5,5,0,0,1,367.67,740.83Zm-11.76-6.21h4.44c1.89,0,3.6-.42,3.6-2.61v-.42c0-2.31-1.8-2.67-3.72-2.67h-4.32Zm8.55,6.06c0-2.25-1.77-3-3.93-3h-4.62v6.21h4.62c2.13,0,3.93-.57,3.93-2.91Z" fill="#fff"/><path d="M384.29,725.89h1.83a.69.69,0,0,1,.69.72v12.3c0,5.1-3.12,8.28-7.65,8.28s-7.62-3.18-7.62-8.28v-12.3a.69.69,0,0,1,.69-.72h1.83a.69.69,0,0,1,.69.72v12.3c0,3.48,1.83,5.25,4.41,5.25s4.44-1.77,4.44-5.25v-12.3A.69.69,0,0,1,384.29,725.89Z" fill="#fff"/><path d="M391.55,746.2V726.61a.69.69,0,0,1,.69-.72h1.83a.69.69,0,0,1,.69.72V746.2a.68.68,0,0,1-.69.69h-1.83A.68.68,0,0,1,391.55,746.2Z" fill="#fff"/><path d="M412.31,746.89H400.49a.68.68,0,0,1-.69-.69V726.61a.69.69,0,0,1,.69-.72h1.83a.69.69,0,0,1,.69.72v17.25h9.3a.7.7,0,0,1,.69.72v1.62A.68.68,0,0,1,412.31,746.89Z" fill="#fff"/><path d="M416.54,746.2V726.61a.69.69,0,0,1,.69-.72h6.54c4.59,0,8.07,3.33,8.07,8.43v4.11c0,5.1-3.48,8.46-8,8.46h-6.57A.68.68,0,0,1,416.54,746.2Zm3.21-2.37h4c2.58,0,4.77-1.92,4.77-5.4v-4c0-3.48-2.19-5.43-4.8-5.43h-4Z" fill="#fff"/><path d="M451,725.59c4.56,0,8,3.36,8,8.46v4.68c0,5.1-3.45,8.46-8,8.46s-8-3.36-8-8.46v-4.68C443.06,729,446.48,725.59,451,725.59Zm0,18.57c2.61,0,4.77-1.95,4.77-5.43v-4.65c0-3.48-2.16-5.46-4.77-5.46s-4.74,2-4.74,5.46v4.65C446.3,742.21,448.43,744.16,451,744.16Z" fill="#fff"/><path d="M465.95,746.89h-1.83a.68.68,0,0,1-.69-.69V726.61a.69.69,0,0,1,.69-.72h7.56c3.81,0,6.48,2.07,6.48,6.15v.66a5.46,5.46,0,0,1-4.14,5.7l3.9,7.38a1.18,1.18,0,0,1,.24.63.47.47,0,0,1-.48.48h-2.31a.84.84,0,0,1-.75-.57l-3.78-7.38h-4.2v7.26A.68.68,0,0,1,465.95,746.89Zm5.52-11c1.86,0,3.48-1,3.48-3.24v-.45c0-2.46-1.62-3.3-3.48-3.3h-4.83v7Z" fill="#fff"/><path d="M296.32,765.92h-9.18v5.82h7.26a.69.69,0,0,1,.69.72v1.62a.68.68,0,0,1-.69.69h-7.26v6.09h9.18a.68.68,0,0,1,.69.69v1.65a.68.68,0,0,1-.69.69h-11.7a.68.68,0,0,1-.69-.69V763.61a.69.69,0,0,1,.69-.72h11.7a.69.69,0,0,1,.69.72v1.62A.68.68,0,0,1,296.32,765.92Z" fill="#fff"/><path d="M316,783.41a.47.47,0,0,1-.48.48H313.3a1.12,1.12,0,0,1-1-.57l-4.74-7.44-4.68,7.44a1,1,0,0,1-.9.57h-2a.48.48,0,0,1-.51-.48.87.87,0,0,1,.18-.48l6.06-9.54L300,764.33c-.18-.3-.48-.66-.48-.93a.51.51,0,0,1,.51-.51h2.25a1.06,1.06,0,0,1,.93.6l4.59,7.23,4.65-7.23a1,1,0,0,1,.93-.6h2a.48.48,0,0,1,.48.51,1.58,1.58,0,0,1-.33.72l-5.91,9.12,6,9.33A2.27,2.27,0,0,1,316,783.41Z" fill="#fff"/><path d="M327.69,776.6h-5v6.6a.68.68,0,0,1-.69.69h-1.83a.68.68,0,0,1-.69-.69V763.61a.69.69,0,0,1,.69-.72h7.56c3.81,0,6.48,2.25,6.48,6.33V770C334.18,774.05,331.51,776.6,327.69,776.6Zm-5-10.68v7.65h4.83a3.33,3.33,0,0,0,3.48-3.63v-.54a3.21,3.21,0,0,0-3.48-3.48Z" fill="#fff"/><path d="M352.74,783.41a.48.48,0,0,1-.51.48H350a.6.6,0,0,1-.63-.39l-1.59-4.56h-8.49l-1.56,4.53a.6.6,0,0,1-.57.42h-2.1a.48.48,0,0,1-.51-.48,2.15,2.15,0,0,1,.18-.6l6.93-19.38a.79.79,0,0,1,.72-.54h2.49a.75.75,0,0,1,.69.54l7,19.35A3.84,3.84,0,0,1,352.74,783.41ZM346.86,776l-3.24-9.39L340.36,776Z" fill="#fff"/><path d="M371.82,763.61V783.2a.69.69,0,0,1-.72.69h-1.65c-.27,0-.6,0-1.08-.81L359.26,768V783.2a.7.7,0,0,1-.72.69h-1.74a.68.68,0,0,1-.69-.69V763.61a.69.69,0,0,1,.69-.72h2.31a1,1,0,0,1,.81.57L368.68,778v-14.4a.69.69,0,0,1,.69-.72h1.74A.69.69,0,0,1,371.82,763.61Z" fill="#fff"/><path d="M387.36,768.26c-.21-1.44-1-2.82-3.75-2.82-2.37,0-4,.57-4,2.82,0,5,11.37,1.83,11.37,9.93,0,4.44-3.75,6-7.41,6-5.58,0-7.71-3.81-7.71-6.45a.68.68,0,0,1,.69-.69h1.8a.68.68,0,0,1,.66.63c.09,1,.69,3.66,4.56,3.66,2.61,0,4.2-.84,4.2-3.15,0-4.95-11.37-1.8-11.37-9.93,0-3.69,2.64-5.67,7.23-5.67,5,0,6.93,3.06,6.93,5.61a.7.7,0,0,1-.72.69h-1.8A.69.69,0,0,1,387.36,768.26Z" fill="#fff"/><path d="M395.23,783.2V763.61a.69.69,0,0,1,.69-.72h1.83a.69.69,0,0,1,.69.72V783.2a.68.68,0,0,1-.69.69h-1.83A.68.68,0,0,1,395.23,783.2Z" fill="#fff"/><path d="M410.79,762.59c4.56,0,8,3.36,8,8.46v4.68c0,5.1-3.45,8.46-8,8.46s-8-3.36-8-8.46v-4.68C402.82,766,406.24,762.59,410.79,762.59Zm0,18.57c2.61,0,4.77-1.95,4.77-5.43v-4.65c0-3.48-2.16-5.46-4.77-5.46s-4.74,2-4.74,5.46v4.65C406.06,779.21,408.19,781.16,410.79,781.16Z" fill="#fff"/><path d="M438.9,763.61V783.2a.69.69,0,0,1-.72.69h-1.65c-.27,0-.6,0-1.08-.81L426.33,768V783.2a.7.7,0,0,1-.72.69h-1.74a.68.68,0,0,1-.69-.69V763.61a.69.69,0,0,1,.69-.72h2.31a1,1,0,0,1,.81.57L435.75,778v-14.4a.69.69,0,0,1,.69-.72h1.74A.69.69,0,0,1,438.9,763.61Z" fill="#fff"/><path d="M603.2,703.17a7.49,7.49,0,0,1-7.71,7c-4.56,0-8-3.36-8-8.46v-4.68c0-5.1,3.42-8.46,8-8.46a7.42,7.42,0,0,1,7.68,6.84.5.5,0,0,1-.54.6h-2.22c-.24,0-.48-.15-.54-.6a4.29,4.29,0,0,0-4.38-3.81c-2.64,0-4.74,2-4.74,5.46v4.65c0,3.48,2.13,5.43,4.74,5.43a4.22,4.22,0,0,0,4.41-3.9c0-.33.15-.63.54-.63h2.28A.49.49,0,0,1,603.2,703.17Z" fill="#fff"/><path d="M614.75,688.59c4.56,0,8,3.36,8,8.46v4.68c0,5.1-3.45,8.46-8,8.46s-8-3.36-8-8.46v-4.68C606.77,692,610.19,688.59,614.75,688.59Zm0,18.57c2.61,0,4.77-1.95,4.77-5.43v-4.65c0-3.48-2.16-5.46-4.77-5.46s-4.74,2-4.74,5.46v4.65C610,705.21,612.14,707.16,614.75,707.16Z" fill="#fff"/><path d="M642.86,689.61V709.2a.69.69,0,0,1-.72.69h-1.65c-.27,0-.6,0-1.08-.81L630.29,694V709.2a.7.7,0,0,1-.72.69h-1.74a.68.68,0,0,1-.69-.69V689.61a.69.69,0,0,1,.69-.72h2.31a1,1,0,0,1,.81.57L639.71,704v-14.4a.69.69,0,0,1,.69-.72h1.74A.69.69,0,0,1,642.86,689.61Z" fill="#fff"/><path d="M658.4,694.26c-.21-1.44-1-2.82-3.75-2.82-2.37,0-4,.57-4,2.82,0,5,11.37,1.83,11.37,9.93,0,4.44-3.75,6-7.41,6-5.58,0-7.71-3.81-7.71-6.45a.68.68,0,0,1,.69-.69h1.8a.68.68,0,0,1,.66.63c.09,1,.69,3.66,4.56,3.66,2.61,0,4.2-.84,4.2-3.15,0-4.95-11.37-1.8-11.37-9.93,0-3.69,2.64-5.67,7.23-5.67,5,0,6.93,3.06,6.93,5.61a.7.7,0,0,1-.72.69h-1.8A.69.69,0,0,1,658.4,694.26Z" fill="#fff"/><path d="M664.31,691.23v-1.62a.69.69,0,0,1,.69-.72h14.64a.69.69,0,0,1,.69.72v1.62a.68.68,0,0,1-.69.69h-5.7V709.2a.7.7,0,0,1-.72.69h-1.83a.68.68,0,0,1-.69-.69V691.92H665A.68.68,0,0,1,664.31,691.23Z" fill="#fff"/><path d="M686.15,709.89h-1.83a.68.68,0,0,1-.69-.69V689.61a.69.69,0,0,1,.69-.72h7.56c3.81,0,6.48,2.07,6.48,6.15v.66a5.46,5.46,0,0,1-4.14,5.7l3.9,7.38a1.18,1.18,0,0,1,.24.63.47.47,0,0,1-.48.48h-2.31a.84.84,0,0,1-.75-.57L691,701.94h-4.2v7.26A.68.68,0,0,1,686.15,709.89Zm5.52-11c1.86,0,3.48-1,3.48-3.24v-.45c0-2.46-1.62-3.3-3.48-3.3h-4.83v7Z" fill="#fff"/><path d="M715,688.89h1.83a.69.69,0,0,1,.69.72v12.3c0,5.1-3.12,8.28-7.65,8.28s-7.62-3.18-7.62-8.28v-12.3a.69.69,0,0,1,.69-.72h1.83a.69.69,0,0,1,.69.72v12.3c0,3.48,1.83,5.25,4.41,5.25s4.44-1.77,4.44-5.25v-12.3A.69.69,0,0,1,715,688.89Z" fill="#fff"/><path d="M737.27,703.17a7.5,7.5,0,0,1-7.71,7c-4.56,0-8-3.36-8-8.46v-4.68c0-5.1,3.42-8.46,8-8.46a7.42,7.42,0,0,1,7.68,6.84.5.5,0,0,1-.54.6h-2.22c-.24,0-.48-.15-.54-.6a4.29,4.29,0,0,0-4.38-3.81c-2.64,0-4.74,2-4.74,5.46v4.65c0,3.48,2.13,5.43,4.74,5.43a4.21,4.21,0,0,0,4.41-3.9c0-.33.15-.63.54-.63h2.28A.49.49,0,0,1,737.27,703.17Z" fill="#fff"/><path d="M739.49,691.23v-1.62a.69.69,0,0,1,.69-.72h14.64a.69.69,0,0,1,.69.72v1.62a.68.68,0,0,1-.69.69h-5.7V709.2a.7.7,0,0,1-.72.69h-1.83a.68.68,0,0,1-.69-.69V691.92h-5.7A.68.68,0,0,1,739.49,691.23Z" fill="#fff"/><path d="M758.81,709.2V689.61a.69.69,0,0,1,.69-.72h1.83a.69.69,0,0,1,.69.72V709.2a.68.68,0,0,1-.69.69H759.5A.68.68,0,0,1,758.81,709.2Z" fill="#fff"/><path d="M774.38,688.59c4.56,0,8,3.36,8,8.46v4.68c0,5.1-3.45,8.46-8,8.46s-8-3.36-8-8.46v-4.68C766.4,692,769.82,688.59,774.38,688.59Zm0,18.57c2.61,0,4.77-1.95,4.77-5.43v-4.65c0-3.48-2.16-5.46-4.77-5.46s-4.74,2-4.74,5.46v4.65C769.64,705.21,771.77,707.16,774.38,707.16Z" fill="#fff"/><path d="M802.49,689.61V709.2a.69.69,0,0,1-.72.69h-1.65c-.27,0-.6,0-1.08-.81L789.92,694V709.2a.7.7,0,0,1-.72.69h-1.74a.68.68,0,0,1-.69-.69V689.61a.69.69,0,0,1,.69-.72h2.31a1,1,0,0,1,.81.57L799.34,704v-14.4a.69.69,0,0,1,.69-.72h1.74A.69.69,0,0,1,802.49,689.61Z" fill="#fff"/><path d="M616.67,726.61V746.2a.7.7,0,0,1-.72.69h-1.71a.68.68,0,0,1-.69-.69V730.75l-5.79,15.66a.63.63,0,0,1-.63.48h-1.68a.59.59,0,0,1-.6-.45L599,730.72V746.2a.68.68,0,0,1-.69.69h-1.68a.68.68,0,0,1-.69-.69V726.61a.69.69,0,0,1,.69-.72h3.21a.56.56,0,0,1,.57.36l5.91,16.14,6-16.11a.56.56,0,0,1,.54-.39h3.12A.71.71,0,0,1,616.67,726.61Z" fill="#fff"/><path d="M638.15,746.41a.48.48,0,0,1-.51.48h-2.19a.61.61,0,0,1-.63-.39l-1.59-4.56h-8.49l-1.56,4.53a.6.6,0,0,1-.57.42h-2.1a.48.48,0,0,1-.51-.48,2.15,2.15,0,0,1,.18-.6l6.93-19.38a.79.79,0,0,1,.72-.54h2.49a.75.75,0,0,1,.69.54l7,19.35A3.94,3.94,0,0,1,638.15,746.41ZM632.27,739,629,729.64,625.76,739Z" fill="#fff"/><path d="M657.23,726.61V746.2a.69.69,0,0,1-.72.69h-1.65c-.27,0-.6,0-1.08-.81L644.66,731V746.2a.7.7,0,0,1-.72.69H642.2a.68.68,0,0,1-.69-.69V726.61a.69.69,0,0,1,.69-.72h2.31a1,1,0,0,1,.81.57L654.08,741v-14.4a.69.69,0,0,1,.69-.72h1.74A.69.69,0,0,1,657.23,726.61Z" fill="#fff"/><path d="M678.74,746.41a.48.48,0,0,1-.51.48H676a.61.61,0,0,1-.63-.39l-1.59-4.56h-8.49l-1.56,4.53a.6.6,0,0,1-.57.42h-2.1a.48.48,0,0,1-.51-.48,2.15,2.15,0,0,1,.18-.6l6.93-19.38a.79.79,0,0,1,.72-.54h2.49a.75.75,0,0,1,.69.54l7,19.35A3.94,3.94,0,0,1,678.74,746.41ZM672.86,739l-3.24-9.39L666.35,739Z" fill="#fff"/><path d="M688.58,737.89v-1.53a.71.71,0,0,1,.69-.72H696a.73.73,0,0,1,.72.72v9.84a.7.7,0,0,1-.72.69h-1.44a.68.68,0,0,1-.69-.69v-1.47a5.81,5.81,0,0,1-5.1,2.46c-4.86,0-7.86-3.66-7.86-8.46v-4.68c0-5.1,3.42-8.46,8-8.46a7.4,7.4,0,0,1,7.68,6.54,2.63,2.63,0,0,1,.06.45.45.45,0,0,1-.48.45h-2.28c-.3,0-.48-.18-.54-.6a4.31,4.31,0,0,0-4.44-3.81c-2.67,0-4.8,2-4.8,5.46v4.65c0,3.48,2.13,5.43,4.8,5.43a4.51,4.51,0,0,0,4.65-4.38v-1.2h-4.32A.68.68,0,0,1,688.58,737.89Z" fill="#fff"/><path d="M713.81,728.92h-9.18v5.82h7.26a.69.69,0,0,1,.69.72v1.62a.68.68,0,0,1-.69.69h-7.26v6.09h9.18a.68.68,0,0,1,.69.69v1.65a.68.68,0,0,1-.69.69h-11.7a.68.68,0,0,1-.69-.69V726.61a.69.69,0,0,1,.69-.72h11.7a.69.69,0,0,1,.69.72v1.62A.68.68,0,0,1,713.81,728.92Z" fill="#fff"/><path d="M739.28,726.61V746.2a.7.7,0,0,1-.72.69h-1.71a.68.68,0,0,1-.69-.69V730.75l-5.79,15.66a.63.63,0,0,1-.63.48h-1.68a.59.59,0,0,1-.6-.45l-5.85-15.72V746.2a.68.68,0,0,1-.69.69h-1.68a.68.68,0,0,1-.69-.69V726.61a.69.69,0,0,1,.69-.72h3.21a.56.56,0,0,1,.57.36l5.91,16.14,6-16.11a.56.56,0,0,1,.54-.39h3.12A.71.71,0,0,1,739.28,726.61Z" fill="#fff"/><path d="M756.68,728.92H747.5v5.82h7.26a.69.69,0,0,1,.69.72v1.62a.68.68,0,0,1-.69.69H747.5v6.09h9.18a.68.68,0,0,1,.69.69v1.65a.68.68,0,0,1-.69.69H745a.68.68,0,0,1-.69-.69V726.61a.69.69,0,0,1,.69-.72h11.7a.69.69,0,0,1,.69.72v1.62A.68.68,0,0,1,756.68,728.92Z" fill="#fff"/><path d="M777.14,726.61V746.2a.69.69,0,0,1-.72.69h-1.65c-.27,0-.6,0-1.08-.81L764.57,731V746.2a.7.7,0,0,1-.72.69h-1.74a.68.68,0,0,1-.69-.69V726.61a.69.69,0,0,1,.69-.72h2.31a1,1,0,0,1,.81.57L774,741v-14.4a.69.69,0,0,1,.69-.72h1.74A.69.69,0,0,1,777.14,726.61Z" fill="#fff"/><path d="M780.44,728.23v-1.62a.69.69,0,0,1,.69-.72h14.64a.69.69,0,0,1,.69.72v1.62a.68.68,0,0,1-.69.69h-5.7V746.2a.7.7,0,0,1-.72.69h-1.83a.68.68,0,0,1-.69-.69V728.92h-5.7A.68.68,0,0,1,780.44,728.23Z" fill="#fff"/><path d="M906.77,700.89v-1.53a.71.71,0,0,1,.69-.72h6.72a.73.73,0,0,1,.72.72v9.84a.7.7,0,0,1-.72.69h-1.44a.68.68,0,0,1-.69-.69v-1.47a5.81,5.81,0,0,1-5.1,2.46c-4.86,0-7.86-3.66-7.86-8.46v-4.68c0-5.1,3.42-8.46,8-8.46a7.4,7.4,0,0,1,7.68,6.54,2.63,2.63,0,0,1,.06.45.45.45,0,0,1-.48.45h-2.28c-.3,0-.48-.18-.54-.6a4.31,4.31,0,0,0-4.44-3.81c-2.67,0-4.8,2-4.8,5.46v4.65c0,3.48,2.13,5.43,4.8,5.43a4.51,4.51,0,0,0,4.65-4.38v-1.2h-4.32A.68.68,0,0,1,906.77,700.89Z" fill="#fff"/><path d="M932,691.92h-9.18v5.82h7.26a.69.69,0,0,1,.69.72v1.62a.68.68,0,0,1-.69.69h-7.26v6.09H932a.68.68,0,0,1,.69.69v1.65a.68.68,0,0,1-.69.69H920.3a.68.68,0,0,1-.69-.69V689.61a.69.69,0,0,1,.69-.72H932a.69.69,0,0,1,.69.72v1.62A.68.68,0,0,1,932,691.92Z" fill="#fff"/><path d="M952.46,689.61V709.2a.69.69,0,0,1-.72.69h-1.65c-.27,0-.6,0-1.08-.81L939.89,694V709.2a.7.7,0,0,1-.72.69h-1.74a.68.68,0,0,1-.69-.69V689.61a.69.69,0,0,1,.69-.72h2.31a1,1,0,0,1,.81.57L949.31,704v-14.4a.69.69,0,0,1,.69-.72h1.74A.69.69,0,0,1,952.46,689.61Z" fill="#fff"/><path d="M969.89,691.92h-9.18v5.82H968a.69.69,0,0,1,.69.72v1.62a.68.68,0,0,1-.69.69h-7.26v6.09h9.18a.68.68,0,0,1,.69.69v1.65a.68.68,0,0,1-.69.69h-11.7a.68.68,0,0,1-.69-.69V689.61a.69.69,0,0,1,.69-.72h11.7a.69.69,0,0,1,.69.72v1.62A.68.68,0,0,1,969.89,691.92Z" fill="#fff"/><path d="M972.89,691.23v-1.62a.69.69,0,0,1,.69-.72h14.64a.69.69,0,0,1,.69.72v1.62a.68.68,0,0,1-.69.69h-5.7V709.2a.7.7,0,0,1-.72.69H980a.68.68,0,0,1-.69-.69V691.92h-5.7A.68.68,0,0,1,972.89,691.23Z" fill="#fff"/><path d="M992.21,709.2V689.61a.69.69,0,0,1,.69-.72h1.83a.69.69,0,0,1,.69.72V709.2a.68.68,0,0,1-.69.69H992.9A.68.68,0,0,1,992.21,709.2Z" fill="#fff"/><path d="M1015.49,703.17a7.49,7.49,0,0,1-7.71,7c-4.56,0-8-3.36-8-8.46v-4.68c0-5.1,3.42-8.46,8-8.46a7.42,7.42,0,0,1,7.68,6.84.5.5,0,0,1-.54.6h-2.22c-.24,0-.48-.15-.54-.6a4.29,4.29,0,0,0-4.38-3.81c-2.64,0-4.74,2-4.74,5.46v4.65c0,3.48,2.13,5.43,4.74,5.43a4.22,4.22,0,0,0,4.41-3.9c0-.33.15-.63.54-.63H1015A.49.49,0,0,1,1015.49,703.17Z" fill="#fff"/><path d="M1030.22,694.26c-.21-1.44-1-2.82-3.75-2.82-2.37,0-4,.57-4,2.82,0,5,11.37,1.83,11.37,9.93,0,4.44-3.75,6-7.41,6-5.58,0-7.71-3.81-7.71-6.45a.68.68,0,0,1,.69-.69h1.8a.68.68,0,0,1,.66.63c.09,1,.69,3.66,4.56,3.66,2.61,0,4.2-.84,4.2-3.15,0-4.95-11.37-1.8-11.37-9.93,0-3.69,2.64-5.67,7.23-5.67,5,0,6.93,3.06,6.93,5.61a.7.7,0,0,1-.72.69h-1.8A.69.69,0,0,1,1030.22,694.26Z" fill="#fff"/><path d="M1051.85,710.19c-5.49,0-7-3.33-7-5.76,0-2.64,1.5-4.23,3.63-5.7-1.11-1.41-2.4-3-2.4-5.07,0-3.78,3.06-5.07,5.79-5.07,3.15,0,5.55,2,5.55,5,0,2.82-2.37,4.32-4.77,5.7l4,4.5a11.68,11.68,0,0,0,.63-3.93.68.68,0,0,1,.69-.69h1.56a.7.7,0,0,1,.72.69,14.53,14.53,0,0,1-1.47,6.39l2.22,2.52c.21.24.36.36.36.66a.46.46,0,0,1-.48.48h-2.16a.74.74,0,0,1-.57-.27l-1.14-1.26A7.73,7.73,0,0,1,1051.85,710.19Zm-1.59-9.42c-1.41,1-2.37,2-2.37,3.48,0,1.74,1.23,3.12,4,3.12a4.87,4.87,0,0,0,3.24-1.17Zm4.14-7.17a2.25,2.25,0,0,0-2.52-2.37c-1.77,0-2.79.93-2.79,2.4a5.34,5.34,0,0,0,1.8,3.63C1052.78,696.24,1054.4,695.28,1054.4,693.6Z" fill="#fff"/><path d="M907.59,740.17a7.49,7.49,0,0,1-7.71,7c-4.56,0-8-3.36-8-8.46v-4.68c0-5.1,3.42-8.46,8-8.46a7.42,7.42,0,0,1,7.68,6.84.5.5,0,0,1-.54.6H904.8c-.24,0-.48-.15-.54-.6a4.29,4.29,0,0,0-4.38-3.81c-2.64,0-4.74,2-4.74,5.46v4.65c0,3.48,2.13,5.43,4.74,5.43a4.22,4.22,0,0,0,4.41-3.9c0-.33.15-.63.54-.63h2.28A.49.49,0,0,1,907.59,740.17Z" fill="#fff"/><path d="M924.27,725.89h1.83a.69.69,0,0,1,.69.72v12.3c0,5.1-3.12,8.28-7.65,8.28s-7.62-3.18-7.62-8.28v-12.3a.69.69,0,0,1,.69-.72H914a.69.69,0,0,1,.69.72v12.3c0,3.48,1.83,5.25,4.41,5.25s4.44-1.77,4.44-5.25v-12.3A.69.69,0,0,1,924.27,725.89Z" fill="#fff"/><path d="M944,746.89H932.22a.68.68,0,0,1-.69-.69V726.61a.69.69,0,0,1,.69-.72h1.83a.69.69,0,0,1,.69.72v17.25H944a.7.7,0,0,1,.69.72v1.62A.68.68,0,0,1,944,746.89Z" fill="#fff"/><path d="M943.71,728.23v-1.62a.69.69,0,0,1,.69-.72H959a.69.69,0,0,1,.69.72v1.62a.68.68,0,0,1-.69.69h-5.7V746.2a.7.7,0,0,1-.72.69h-1.83a.68.68,0,0,1-.69-.69V728.92h-5.7A.68.68,0,0,1,943.71,728.23Z" fill="#fff"/><path d="M963,746.2V726.61a.69.69,0,0,1,.69-.72h1.83a.69.69,0,0,1,.69.72V746.2a.68.68,0,0,1-.69.69h-1.83A.68.68,0,0,1,963,746.2Z" fill="#fff"/><path d="M987.33,726.4a3.91,3.91,0,0,1-.24.81l-6.9,19.2a.66.66,0,0,1-.66.48h-2.19a.61.61,0,0,1-.66-.48l-7-19.5a1.75,1.75,0,0,1-.15-.51.5.5,0,0,1,.48-.51h2.16c.51,0,.69.33.87.84l5.46,15.87L984,726.67c.15-.42.3-.78.75-.78h2.07A.53.53,0,0,1,987.33,726.4Z" fill="#fff"/><path d="M1004.73,746.41a.48.48,0,0,1-.51.48H1002a.6.6,0,0,1-.63-.39l-1.59-4.56h-8.49l-1.56,4.53a.6.6,0,0,1-.57.42h-2.1a.48.48,0,0,1-.51-.48,2.15,2.15,0,0,1,.18-.6l6.93-19.38a.79.79,0,0,1,.72-.54h2.49a.75.75,0,0,1,.69.54l7,19.35A3.84,3.84,0,0,1,1004.73,746.41ZM998.85,739l-3.24-9.39L992.34,739Z" fill="#fff"/><path d="M1003.92,728.23v-1.62a.69.69,0,0,1,.69-.72h14.64a.69.69,0,0,1,.69.72v1.62a.68.68,0,0,1-.69.69h-5.7V746.2a.7.7,0,0,1-.72.69H1011a.68.68,0,0,1-.69-.69V728.92h-5.7A.68.68,0,0,1,1003.92,728.23Z" fill="#fff"/><path d="M1023.24,746.2V726.61a.69.69,0,0,1,.69-.72h1.83a.69.69,0,0,1,.69.72V746.2a.68.68,0,0,1-.69.69h-1.83A.68.68,0,0,1,1023.24,746.2Z" fill="#fff"/><path d="M1038.81,725.59c4.56,0,8,3.36,8,8.46v4.68c0,5.1-3.45,8.46-8,8.46s-8-3.36-8-8.46v-4.68C1030.83,729,1034.25,725.59,1038.81,725.59Zm0,18.57c2.61,0,4.77-1.95,4.77-5.43v-4.65c0-3.48-2.16-5.46-4.77-5.46s-4.74,2-4.74,5.46v4.65C1034.07,742.21,1036.2,744.16,1038.81,744.16Z" fill="#fff"/><path d="M1066.92,726.61V746.2a.69.69,0,0,1-.72.69h-1.65c-.27,0-.6,0-1.08-.81L1054.35,731V746.2a.7.7,0,0,1-.72.69h-1.74a.68.68,0,0,1-.69-.69V726.61a.69.69,0,0,1,.69-.72h2.31a1,1,0,0,1,.81.57l8.76,14.55v-14.4a.69.69,0,0,1,.69-.72h1.74A.69.69,0,0,1,1066.92,726.61Z" fill="#fff"/><path d="M919,765.92h-9.18v5.82H917a.69.69,0,0,1,.69.72v1.62a.68.68,0,0,1-.69.69h-7.26v6.09H919a.68.68,0,0,1,.69.69v1.65a.68.68,0,0,1-.69.69h-11.7a.68.68,0,0,1-.69-.69V763.61a.69.69,0,0,1,.69-.72H919a.69.69,0,0,1,.69.72v1.62A.68.68,0,0,1,919,765.92Z" fill="#fff"/><path d="M938.64,783.41a.47.47,0,0,1-.48.48h-2.22a1.12,1.12,0,0,1-1-.57l-4.74-7.44-4.68,7.44a1,1,0,0,1-.9.57h-2a.48.48,0,0,1-.51-.48.88.88,0,0,1,.18-.48l6.06-9.54-5.73-9.06c-.18-.3-.48-.66-.48-.93a.51.51,0,0,1,.51-.51h2.25a1.06,1.06,0,0,1,.93.6l4.59,7.23,4.65-7.23a1,1,0,0,1,.93-.6h2a.48.48,0,0,1,.48.51,1.6,1.6,0,0,1-.33.72l-5.91,9.12,6,9.33A2.27,2.27,0,0,1,938.64,783.41Z" fill="#fff"/><path d="M950.34,776.6h-5v6.6a.68.68,0,0,1-.69.69h-1.83a.68.68,0,0,1-.69-.69V763.61a.69.69,0,0,1,.69-.72h7.56c3.81,0,6.48,2.25,6.48,6.33V770C956.82,774.05,954.15,776.6,950.34,776.6Zm-5-10.68v7.65h4.83a3.33,3.33,0,0,0,3.48-3.63v-.54a3.21,3.21,0,0,0-3.48-3.48Z" fill="#fff"/><path d="M973.11,765.92h-9.18v5.82h7.26a.69.69,0,0,1,.69.72v1.62a.68.68,0,0,1-.69.69h-7.26v6.09h9.18a.68.68,0,0,1,.69.69v1.65a.68.68,0,0,1-.69.69h-11.7a.68.68,0,0,1-.69-.69V763.61a.69.69,0,0,1,.69-.72h11.7a.69.69,0,0,1,.69.72v1.62A.68.68,0,0,1,973.11,765.92Z" fill="#fff"/><path d="M980.37,783.89h-1.83a.68.68,0,0,1-.69-.69V763.61a.69.69,0,0,1,.69-.72h7.56c3.81,0,6.48,2.07,6.48,6.15v.66a5.46,5.46,0,0,1-4.14,5.7l3.9,7.38a1.18,1.18,0,0,1,.24.63.47.47,0,0,1-.48.48h-2.31a.84.84,0,0,1-.75-.57l-3.78-7.38h-4.2v7.26A.68.68,0,0,1,980.37,783.89Zm5.52-11c1.86,0,3.48-1,3.48-3.24v-.45c0-2.46-1.62-3.3-3.48-3.3h-4.83v7Z" fill="#fff"/><path d="M994.89,765.23v-1.62a.69.69,0,0,1,.69-.72h14.64a.69.69,0,0,1,.69.72v1.62a.68.68,0,0,1-.69.69h-5.7V783.2a.7.7,0,0,1-.72.69H1002a.68.68,0,0,1-.69-.69V765.92h-5.7A.68.68,0,0,1,994.89,765.23Z" fill="#fff"/><path d="M1014.21,783.2V763.61a.69.69,0,0,1,.69-.72h1.83a.69.69,0,0,1,.69.72V783.2a.68.68,0,0,1-.69.69h-1.83A.68.68,0,0,1,1014.21,783.2Z" fill="#fff"/><path d="M1033,768.26c-.21-1.44-1-2.82-3.75-2.82-2.37,0-4,.57-4,2.82,0,5,11.37,1.83,11.37,9.93,0,4.44-3.75,6-7.41,6-5.58,0-7.71-3.81-7.71-6.45a.68.68,0,0,1,.69-.69h1.8a.68.68,0,0,1,.66.63c.09,1,.69,3.66,4.56,3.66,2.61,0,4.2-.84,4.2-3.15,0-4.95-11.37-1.8-11.37-9.93,0-3.69,2.64-5.67,7.23-5.67,5,0,6.93,3.06,6.93,5.61a.7.7,0,0,1-.72.69h-1.8A.69.69,0,0,1,1033,768.26Z" fill="#fff"/><path d="M1053.21,765.92H1044v5.82h7.26a.69.69,0,0,1,.69.72v1.62a.68.68,0,0,1-.69.69H1044v6.09h9.18a.68.68,0,0,1,.69.69v1.65a.68.68,0,0,1-.69.69h-11.7a.68.68,0,0,1-.69-.69V763.61a.69.69,0,0,1,.69-.72h11.7a.69.69,0,0,1,.69.72v1.62A.68.68,0,0,1,1053.21,765.92Z" fill="#fff"/><path d="M1525.59,703.83v.3c0,4.59-3.54,5.76-7.41,5.76h-6.87a.68.68,0,0,1-.69-.69V689.61a.69.69,0,0,1,.69-.72h7c4,0,6.75,1.74,6.75,5.55v.45a4.38,4.38,0,0,1-2.64,4.2A5,5,0,0,1,1525.59,703.83Zm-11.76-6.21h4.44c1.89,0,3.6-.42,3.6-2.61v-.42c0-2.31-1.8-2.67-3.72-2.67h-4.32Zm8.55,6.06c0-2.25-1.77-3-3.93-3h-4.62v6.21h4.62c2.13,0,3.93-.57,3.93-2.91Z" fill="#fff"/><path d="M1532.28,709.89h-1.83a.68.68,0,0,1-.69-.69V689.61a.69.69,0,0,1,.69-.72H1538c3.81,0,6.48,2.07,6.48,6.15v.66a5.46,5.46,0,0,1-4.14,5.7l3.9,7.38a1.18,1.18,0,0,1,.24.63.47.47,0,0,1-.48.48h-2.31a.84.84,0,0,1-.75-.57l-3.78-7.38H1533v7.26A.68.68,0,0,1,1532.28,709.89Zm5.52-11c1.86,0,3.48-1,3.48-3.24v-.45c0-2.46-1.62-3.3-3.48-3.3H1533v7Z" fill="#fff"/><path d="M1565.07,709.41a.48.48,0,0,1-.51.48h-2.19a.6.6,0,0,1-.63-.39l-1.59-4.56h-8.49l-1.56,4.53a.6.6,0,0,1-.57.42h-2.1a.48.48,0,0,1-.51-.48,2.12,2.12,0,0,1,.18-.6l6.93-19.38a.79.79,0,0,1,.72-.54h2.49a.75.75,0,0,1,.69.54l7,19.35A3.84,3.84,0,0,1,1565.07,709.41Zm-5.88-7.38-3.24-9.39-3.27,9.39Z" fill="#fff"/><path d="M1584.15,689.61V709.2a.69.69,0,0,1-.72.69h-1.65c-.27,0-.6,0-1.08-.81L1571.58,694V709.2a.7.7,0,0,1-.72.69h-1.74a.68.68,0,0,1-.69-.69V689.61a.69.69,0,0,1,.69-.72h2.31a1,1,0,0,1,.81.57L1581,704v-14.4a.69.69,0,0,1,.69-.72h1.74A.69.69,0,0,1,1584.15,689.61Z" fill="#fff"/><path d="M1589.19,709.2V689.61a.69.69,0,0,1,.69-.72h6.54c4.59,0,8.07,3.33,8.07,8.43v4.11c0,5.1-3.48,8.46-8,8.46h-6.57A.68.68,0,0,1,1589.19,709.2Zm3.21-2.37h4c2.58,0,4.77-1.92,4.77-5.4v-4c0-3.48-2.19-5.43-4.8-5.43h-4Z" fill="#fff"/><path d="M1631.34,703.83v.3c0,4.59-3.54,5.76-7.41,5.76h-6.87a.68.68,0,0,1-.69-.69V689.61a.69.69,0,0,1,.69-.72h7c4,0,6.75,1.74,6.75,5.55v.45a4.38,4.38,0,0,1-2.64,4.2A5,5,0,0,1,1631.34,703.83Zm-11.76-6.21H1624c1.89,0,3.6-.42,3.6-2.61v-.42c0-2.31-1.8-2.67-3.72-2.67h-4.32Zm8.55,6.06c0-2.25-1.77-3-3.93-3h-4.62v6.21h4.62c2.13,0,3.93-.57,3.93-2.91Z" fill="#fff"/><path d="M1648,688.89h1.83a.69.69,0,0,1,.69.72v12.3c0,5.1-3.12,8.28-7.65,8.28s-7.62-3.18-7.62-8.28v-12.3a.69.69,0,0,1,.69-.72h1.83a.69.69,0,0,1,.69.72v12.3c0,3.48,1.83,5.25,4.41,5.25s4.44-1.77,4.44-5.25v-12.3A.69.69,0,0,1,1648,688.89Z" fill="#fff"/><path d="M1655.22,709.2V689.61a.69.69,0,0,1,.69-.72h1.83a.69.69,0,0,1,.69.72V709.2a.68.68,0,0,1-.69.69h-1.83A.68.68,0,0,1,1655.22,709.2Z" fill="#fff"/><path d="M1676,709.89h-11.82a.68.68,0,0,1-.69-.69V689.61a.69.69,0,0,1,.69-.72H1666a.69.69,0,0,1,.69.72v17.25h9.3a.7.7,0,0,1,.69.72v1.62A.68.68,0,0,1,1676,709.89Z" fill="#fff"/><path d="M1680.21,709.2V689.61a.69.69,0,0,1,.69-.72h6.54c4.59,0,8.07,3.33,8.07,8.43v4.11c0,5.1-3.48,8.46-8,8.46h-6.57A.68.68,0,0,1,1680.21,709.2Zm3.21-2.37h4.05c2.58,0,4.77-1.92,4.77-5.4v-4c0-3.48-2.19-5.43-4.8-5.43h-4Z" fill="#fff"/><path d="M1699.89,709.2V689.61a.69.69,0,0,1,.69-.72h1.83a.69.69,0,0,1,.69.72V709.2a.68.68,0,0,1-.69.69h-1.83A.68.68,0,0,1,1699.89,709.2Z" fill="#fff"/><path d="M1723.86,689.61V709.2a.69.69,0,0,1-.72.69h-1.65c-.27,0-.6,0-1.08-.81L1711.29,694V709.2a.7.7,0,0,1-.72.69h-1.74a.68.68,0,0,1-.69-.69V689.61a.69.69,0,0,1,.69-.72h2.31a1,1,0,0,1,.81.57l8.76,14.55v-14.4a.69.69,0,0,1,.69-.72h1.74A.69.69,0,0,1,1723.86,689.61Z" fill="#fff"/><path d="M1735.92,700.89v-1.53a.7.7,0,0,1,.69-.72h6.72a.73.73,0,0,1,.72.72v9.84a.7.7,0,0,1-.72.69h-1.44a.68.68,0,0,1-.69-.69v-1.47a5.81,5.81,0,0,1-5.1,2.46c-4.86,0-7.86-3.66-7.86-8.46v-4.68c0-5.1,3.42-8.46,8-8.46a7.4,7.4,0,0,1,7.68,6.54,2.63,2.63,0,0,1,.06.45.45.45,0,0,1-.48.45h-2.28c-.3,0-.48-.18-.54-.6a4.31,4.31,0,0,0-4.44-3.81c-2.67,0-4.8,2-4.8,5.46v4.65c0,3.48,2.13,5.43,4.8,5.43a4.51,4.51,0,0,0,4.65-4.38v-1.2h-4.32A.68.68,0,0,1,1735.92,700.89Z" fill="#fff"/><path d="M1566.39,728.92h-9.18v5.82h7.26a.69.69,0,0,1,.69.72v1.62a.68.68,0,0,1-.69.69h-7.26v6.09h9.18a.68.68,0,0,1,.69.69v1.65a.68.68,0,0,1-.69.69h-11.7a.68.68,0,0,1-.69-.69V726.61a.69.69,0,0,1,.69-.72h11.7a.69.69,0,0,1,.69.72v1.62A.68.68,0,0,1,1566.39,728.92Z" fill="#fff"/><path d="M1586.07,746.41a.47.47,0,0,1-.48.48h-2.22a1.12,1.12,0,0,1-1-.57l-4.74-7.44-4.68,7.44a1,1,0,0,1-.9.57h-2a.48.48,0,0,1-.51-.48.87.87,0,0,1,.18-.48l6.06-9.54-5.73-9.06c-.18-.3-.48-.66-.48-.93a.51.51,0,0,1,.51-.51h2.25a1.06,1.06,0,0,1,.93.6l4.59,7.23,4.65-7.23a1,1,0,0,1,.93-.6h2a.48.48,0,0,1,.48.51,1.6,1.6,0,0,1-.33.72l-5.91,9.12,6,9.33A2.26,2.26,0,0,1,1586.07,746.41Z" fill="#fff"/><path d="M1597.77,739.6h-5v6.6a.68.68,0,0,1-.69.69h-1.83a.68.68,0,0,1-.69-.69V726.61a.69.69,0,0,1,.69-.72h7.56c3.81,0,6.48,2.25,6.48,6.33V733C1604.25,737.05,1601.58,739.6,1597.77,739.6Zm-5-10.68v7.65h4.83a3.33,3.33,0,0,0,3.48-3.63v-.54a3.21,3.21,0,0,0-3.48-3.48Z" fill="#fff"/><path d="M1620.54,728.92h-9.18v5.82h7.26a.69.69,0,0,1,.69.72v1.62a.68.68,0,0,1-.69.69h-7.26v6.09h9.18a.68.68,0,0,1,.69.69v1.65a.68.68,0,0,1-.69.69h-11.7a.68.68,0,0,1-.69-.69V726.61a.69.69,0,0,1,.69-.72h11.7a.69.69,0,0,1,.69.72v1.62A.68.68,0,0,1,1620.54,728.92Z" fill="#fff"/><path d="M1627.8,746.89H1626a.68.68,0,0,1-.69-.69V726.61a.69.69,0,0,1,.69-.72h7.56c3.81,0,6.48,2.07,6.48,6.15v.66a5.46,5.46,0,0,1-4.14,5.7l3.9,7.38a1.18,1.18,0,0,1,.24.63.47.47,0,0,1-.48.48h-2.31a.84.84,0,0,1-.75-.57l-3.78-7.38h-4.2v7.26A.68.68,0,0,1,1627.8,746.89Zm5.52-11c1.86,0,3.48-1,3.48-3.24v-.45c0-2.46-1.62-3.3-3.48-3.3h-4.83v7Z" fill="#fff"/><path d="M1642.32,728.23v-1.62a.69.69,0,0,1,.69-.72h14.64a.69.69,0,0,1,.69.72v1.62a.68.68,0,0,1-.69.69h-5.7V746.2a.7.7,0,0,1-.72.69h-1.83a.68.68,0,0,1-.69-.69V728.92H1643A.68.68,0,0,1,1642.32,728.23Z" fill="#fff"/><path d="M1661.64,746.2V726.61a.69.69,0,0,1,.69-.72h1.83a.69.69,0,0,1,.69.72V746.2a.68.68,0,0,1-.69.69h-1.83A.68.68,0,0,1,1661.64,746.2Z" fill="#fff"/><path d="M1680.39,731.26c-.21-1.44-1-2.82-3.75-2.82-2.37,0-4,.57-4,2.82,0,5,11.37,1.83,11.37,9.93,0,4.44-3.75,6-7.41,6-5.58,0-7.71-3.81-7.71-6.45a.68.68,0,0,1,.69-.69h1.8a.68.68,0,0,1,.66.63c.09,1,.69,3.66,4.56,3.66,2.61,0,4.2-.84,4.2-3.15,0-4.95-11.37-1.8-11.37-9.93,0-3.69,2.64-5.67,7.23-5.67,5,0,6.93,3.06,6.93,5.61a.7.7,0,0,1-.72.69h-1.8A.69.69,0,0,1,1680.39,731.26Z" fill="#fff"/><path d="M1700.64,728.92h-9.18v5.82h7.26a.69.69,0,0,1,.69.72v1.62a.68.68,0,0,1-.69.69h-7.26v6.09h9.18a.68.68,0,0,1,.69.69v1.65a.68.68,0,0,1-.69.69h-11.7a.68.68,0,0,1-.69-.69V726.61a.69.69,0,0,1,.69-.72h11.7a.69.69,0,0,1,.69.72v1.62A.68.68,0,0,1,1700.64,728.92Z" fill="#fff"/><line x1="1911.58" y1="827.14" x2="1911.58" y2="989.1"/><rect x="1910.58" y="827.14" width="2" height="161.97" fill="#fff"/><path d="M1308,988.64" stroke="#fff" stroke-miterlimit="10" stroke-width="2"/><path d="M2215.23,826.67" stroke="#fff" stroke-miterlimit="10" stroke-width="2"/><path d="M1864.59,702.6h-5v6.6a.68.68,0,0,1-.69.69H1857a.68.68,0,0,1-.69-.69V689.61a.69.69,0,0,1,.69-.72h7.56c3.81,0,6.48,2.25,6.48,6.33V696C1871.07,700.05,1868.4,702.6,1864.59,702.6Zm-5-10.68v7.65h4.83a3.33,3.33,0,0,0,3.48-3.63v-.54a3.21,3.21,0,0,0-3.48-3.48Z" fill="#fff"/><path d="M1889.64,709.41a.48.48,0,0,1-.51.48h-2.19a.61.61,0,0,1-.63-.39l-1.59-4.56h-8.49l-1.56,4.53a.6.6,0,0,1-.57.42H1872a.48.48,0,0,1-.51-.48,2.12,2.12,0,0,1,.18-.6l6.93-19.38a.79.79,0,0,1,.72-.54h2.49a.75.75,0,0,1,.69.54l7,19.35A3.94,3.94,0,0,1,1889.64,709.41Zm-5.88-7.38-3.24-9.39-3.27,9.39Z" fill="#fff"/><path d="M1888.83,691.23v-1.62a.69.69,0,0,1,.69-.72h14.64a.69.69,0,0,1,.69.72v1.62a.68.68,0,0,1-.69.69h-5.7V709.2a.7.7,0,0,1-.72.69h-1.83a.68.68,0,0,1-.69-.69V691.92h-5.7A.68.68,0,0,1,1888.83,691.23Z" fill="#fff"/><path d="M1908.15,709.2V689.61a.69.69,0,0,1,.69-.72h1.83a.69.69,0,0,1,.69.72V709.2a.68.68,0,0,1-.69.69h-1.83A.68.68,0,0,1,1908.15,709.2Z" fill="#fff"/><path d="M1928.79,691.92h-9.18v5.82h7.26a.69.69,0,0,1,.69.72v1.62a.68.68,0,0,1-.69.69h-7.26v6.09h9.18a.68.68,0,0,1,.69.69v1.65a.68.68,0,0,1-.69.69h-11.7a.68.68,0,0,1-.69-.69V689.61a.69.69,0,0,1,.69-.72h11.7a.69.69,0,0,1,.69.72v1.62A.68.68,0,0,1,1928.79,691.92Z" fill="#fff"/><path d="M1949.25,689.61V709.2a.69.69,0,0,1-.72.69h-1.65c-.27,0-.6,0-1.08-.81L1936.68,694V709.2a.7.7,0,0,1-.72.69h-1.74a.68.68,0,0,1-.69-.69V689.61a.69.69,0,0,1,.69-.72h2.31a1,1,0,0,1,.81.57L1946.1,704v-14.4a.69.69,0,0,1,.69-.72h1.74A.69.69,0,0,1,1949.25,689.61Z" fill="#fff"/><path d="M1952.55,691.23v-1.62a.69.69,0,0,1,.69-.72h14.64a.69.69,0,0,1,.69.72v1.62a.68.68,0,0,1-.69.69h-5.7V709.2a.7.7,0,0,1-.72.69h-1.83a.68.68,0,0,1-.69-.69V691.92h-5.7A.68.68,0,0,1,1952.55,691.23Z" fill="#fff"/><path d="M1859.1,737.89v-1.53a.7.7,0,0,1,.69-.72h6.72a.73.73,0,0,1,.72.72v9.84a.7.7,0,0,1-.72.69h-1.44a.68.68,0,0,1-.69-.69v-1.47a5.82,5.82,0,0,1-5.1,2.46c-4.86,0-7.86-3.66-7.86-8.46v-4.68c0-5.1,3.42-8.46,8-8.46a7.4,7.4,0,0,1,7.68,6.54,2.73,2.73,0,0,1,.06.45.45.45,0,0,1-.48.45h-2.28c-.3,0-.48-.18-.54-.6a4.31,4.31,0,0,0-4.44-3.81c-2.67,0-4.8,2-4.8,5.46v4.65c0,3.48,2.13,5.43,4.8,5.43a4.51,4.51,0,0,0,4.65-4.38v-1.2h-4.32A.68.68,0,0,1,1859.1,737.89Z" fill="#fff"/><path d="M1874.46,746.89h-1.83a.68.68,0,0,1-.69-.69V726.61a.69.69,0,0,1,.69-.72h7.56c3.81,0,6.48,2.07,6.48,6.15v.66a5.46,5.46,0,0,1-4.14,5.7l3.9,7.38a1.18,1.18,0,0,1,.24.63.47.47,0,0,1-.48.48h-2.31a.84.84,0,0,1-.75-.57l-3.78-7.38h-4.2v7.26A.68.68,0,0,1,1874.46,746.89Zm5.52-11c1.86,0,3.48-1,3.48-3.24v-.45c0-2.46-1.62-3.3-3.48-3.3h-4.83v7Z" fill="#fff"/><path d="M1898.16,725.59c4.56,0,8,3.36,8,8.46v4.68c0,5.1-3.45,8.46-8,8.46s-8-3.36-8-8.46v-4.68C1890.18,729,1893.6,725.59,1898.16,725.59Zm0,18.57c2.61,0,4.77-1.95,4.77-5.43v-4.65c0-3.48-2.16-5.46-4.77-5.46s-4.74,2-4.74,5.46v4.65C1893.42,742.21,1895.55,744.16,1898.16,744.16Z" fill="#fff"/><path d="M1934.85,726.4a1.64,1.64,0,0,1-.12.51l-5.31,19.44a.75.75,0,0,1-.69.54h-2.34a.75.75,0,0,1-.69-.54l-4-15.63-4,15.63a.69.69,0,0,1-.69.54h-2.28a.7.7,0,0,1-.69-.54l-5.34-19.29a4.63,4.63,0,0,1-.15-.66.48.48,0,0,1,.48-.51h2.22a.74.74,0,0,1,.75.69l3.9,15.51,4-15.48q.18-.72.72-.72h2.13c.3,0,.6.15.75.72l4,15.48,3.87-15.48c.09-.33.27-.72.75-.72h2.16A.49.49,0,0,1,1934.85,726.4Z" fill="#fff"/><path d="M1936.56,728.23v-1.62a.69.69,0,0,1,.69-.72h14.64a.69.69,0,0,1,.69.72v1.62a.68.68,0,0,1-.69.69h-5.7V746.2a.7.7,0,0,1-.72.69h-1.83a.68.68,0,0,1-.69-.69V728.92h-5.7A.68.68,0,0,1,1936.56,728.23Z" fill="#fff"/><path d="M1967.88,746.2v-8.46h-8.79v8.46a.68.68,0,0,1-.69.69h-1.83a.68.68,0,0,1-.69-.69V726.61a.69.69,0,0,1,.69-.72h1.83a.69.69,0,0,1,.69.72v8.1h8.79v-8.1a.69.69,0,0,1,.69-.72h1.83a.69.69,0,0,1,.69.72V746.2a.68.68,0,0,1-.69.69h-1.83A.68.68,0,0,1,1967.88,746.2Z" fill="#fff"/><path d="M2172,709.89h-11.82a.68.68,0,0,1-.69-.69V689.61a.69.69,0,0,1,.69-.72H2162a.69.69,0,0,1,.69.72v17.25h9.3a.7.7,0,0,1,.69.72v1.62A.68.68,0,0,1,2172,709.89Z" fill="#fff"/><path d="M2188.6,691.92h-9.18v5.82h7.26a.69.69,0,0,1,.69.72v1.62a.68.68,0,0,1-.69.69h-7.26v6.09h9.18a.68.68,0,0,1,.69.69v1.65a.68.68,0,0,1-.69.69h-11.7a.68.68,0,0,1-.69-.69V689.61a.69.69,0,0,1,.69-.72h11.7a.69.69,0,0,1,.69.72v1.62A.68.68,0,0,1,2188.6,691.92Z" fill="#fff"/><path d="M2199.91,700.89v-1.53a.7.7,0,0,1,.69-.72h6.72a.73.73,0,0,1,.72.72v9.84a.7.7,0,0,1-.72.69h-1.44a.68.68,0,0,1-.69-.69v-1.47a5.81,5.81,0,0,1-5.1,2.46c-4.86,0-7.86-3.66-7.86-8.46v-4.68c0-5.1,3.42-8.46,8-8.46a7.4,7.4,0,0,1,7.68,6.54,2.63,2.63,0,0,1,.06.45.45.45,0,0,1-.48.45h-2.28c-.3,0-.48-.18-.54-.6a4.31,4.31,0,0,0-4.44-3.81c-2.67,0-4.8,2-4.8,5.46v4.65c0,3.48,2.13,5.43,4.8,5.43a4.51,4.51,0,0,0,4.65-4.38v-1.2h-4.32A.68.68,0,0,1,2199.91,700.89Z" fill="#fff"/><path d="M2229.22,709.41a.48.48,0,0,1-.51.48h-2.19a.61.61,0,0,1-.63-.39l-1.59-4.56h-8.49l-1.56,4.53a.6.6,0,0,1-.57.42h-2.1a.48.48,0,0,1-.51-.48,2.15,2.15,0,0,1,.18-.6l6.93-19.38a.79.79,0,0,1,.72-.54h2.49a.75.75,0,0,1,.69.54l7,19.35A3.94,3.94,0,0,1,2229.22,709.41Zm-5.88-7.38-3.24-9.39-3.27,9.39Z" fill="#fff"/><path d="M2245.09,709.89h-11.82a.68.68,0,0,1-.69-.69V689.61a.69.69,0,0,1,.69-.72h1.83a.69.69,0,0,1,.69.72v17.25h9.3a.7.7,0,0,1,.69.72v1.62A.68.68,0,0,1,2245.09,709.89Z" fill="#fff"/><path d="M2263.09,710.19c-5.49,0-7-3.33-7-5.76,0-2.64,1.5-4.23,3.63-5.7-1.11-1.41-2.4-3-2.4-5.07,0-3.78,3.06-5.07,5.79-5.07,3.15,0,5.55,2,5.55,5,0,2.82-2.37,4.32-4.77,5.7l4,4.5a11.68,11.68,0,0,0,.63-3.93.68.68,0,0,1,.69-.69h1.56a.7.7,0,0,1,.72.69,14.54,14.54,0,0,1-1.47,6.39l2.22,2.52c.21.24.36.36.36.66a.46.46,0,0,1-.48.48H2270a.74.74,0,0,1-.57-.27l-1.14-1.26A7.74,7.74,0,0,1,2263.09,710.19Zm-1.59-9.42c-1.41,1-2.37,2-2.37,3.48,0,1.74,1.23,3.12,4,3.12a4.87,4.87,0,0,0,3.24-1.17Zm4.14-7.17a2.25,2.25,0,0,0-2.52-2.37c-1.77,0-2.79.93-2.79,2.4a5.34,5.34,0,0,0,1.8,3.63C2264,696.24,2265.64,695.28,2265.64,693.6Z" fill="#fff"/><path d="M2155,728.92h-9.18v6.57H2153a.68.68,0,0,1,.69.69v1.65a.68.68,0,0,1-.69.69h-7.26v7.68a.68.68,0,0,1-.69.69h-1.83a.68.68,0,0,1-.69-.69V726.61a.69.69,0,0,1,.69-.72H2155a.69.69,0,0,1,.69.72v1.62A.68.68,0,0,1,2155,728.92Z" fill="#fff"/><path d="M2159.25,746.2V726.61a.69.69,0,0,1,.69-.72h1.83a.69.69,0,0,1,.69.72V746.2a.68.68,0,0,1-.69.69h-1.83A.68.68,0,0,1,2159.25,746.2Z" fill="#fff"/><path d="M2183.22,726.61V746.2a.69.69,0,0,1-.72.69h-1.65c-.27,0-.6,0-1.08-.81L2170.65,731V746.2a.7.7,0,0,1-.72.69h-1.74a.68.68,0,0,1-.69-.69V726.61a.69.69,0,0,1,.69-.72h2.31a1,1,0,0,1,.81.57l8.76,14.55v-14.4a.69.69,0,0,1,.69-.72h1.74A.69.69,0,0,1,2183.22,726.61Z" fill="#fff"/><path d="M2204.73,746.41a.48.48,0,0,1-.51.48H2202a.61.61,0,0,1-.63-.39l-1.59-4.56h-8.49l-1.56,4.53a.6.6,0,0,1-.57.42h-2.1a.48.48,0,0,1-.51-.48,2.15,2.15,0,0,1,.18-.6l6.93-19.38a.79.79,0,0,1,.72-.54h2.49a.75.75,0,0,1,.69.54l7,19.35A3.84,3.84,0,0,1,2204.73,746.41Zm-5.88-7.38-3.24-9.39-3.27,9.39Z" fill="#fff"/><path d="M2223.81,726.61V746.2a.69.69,0,0,1-.72.69h-1.65c-.27,0-.6,0-1.08-.81L2211.24,731V746.2a.7.7,0,0,1-.72.69h-1.74a.68.68,0,0,1-.69-.69V726.61a.69.69,0,0,1,.69-.72h2.31a1,1,0,0,1,.81.57l8.76,14.55v-14.4a.69.69,0,0,1,.69-.72h1.74A.69.69,0,0,1,2223.81,726.61Z" fill="#fff"/><path d="M2243.88,740.17a7.49,7.49,0,0,1-7.71,7c-4.56,0-8-3.36-8-8.46v-4.68c0-5.1,3.42-8.46,8-8.46a7.42,7.42,0,0,1,7.68,6.84.5.5,0,0,1-.54.6h-2.22c-.24,0-.48-.15-.54-.6a4.29,4.29,0,0,0-4.38-3.81c-2.64,0-4.74,2-4.74,5.46v4.65c0,3.48,2.13,5.43,4.74,5.43a4.21,4.21,0,0,0,4.41-3.9c0-.33.15-.63.54-.63h2.28A.49.49,0,0,1,2243.88,740.17Z" fill="#fff"/><path d="M2248.11,746.2V726.61a.69.69,0,0,1,.69-.72h1.83a.69.69,0,0,1,.69.72V746.2a.68.68,0,0,1-.69.69h-1.83A.68.68,0,0,1,2248.11,746.2Z" fill="#fff"/><path d="M2272.83,746.41a.48.48,0,0,1-.51.48h-2.19a.61.61,0,0,1-.63-.39l-1.59-4.56h-8.49l-1.56,4.53a.6.6,0,0,1-.57.42h-2.1a.48.48,0,0,1-.51-.48,2.15,2.15,0,0,1,.18-.6l6.93-19.38a.79.79,0,0,1,.72-.54H2265a.75.75,0,0,1,.69.54l7,19.35A3.84,3.84,0,0,1,2272.83,746.41Zm-5.88-7.38-3.24-9.39-3.27,9.39Z" fill="#fff"/><path d="M2288.7,746.89h-11.82a.68.68,0,0,1-.69-.69V726.61a.69.69,0,0,1,.69-.72h1.83a.69.69,0,0,1,.69.72v17.25h9.3a.71.71,0,0,1,.69.72v1.62A.68.68,0,0,1,2288.7,746.89Z" fill="#fff"/><path d="M2154.45,765.92h-9.18v5.82h7.26a.69.69,0,0,1,.69.72v1.62a.68.68,0,0,1-.69.69h-7.26v6.09h9.18a.68.68,0,0,1,.69.69v1.65a.68.68,0,0,1-.69.69h-11.7a.68.68,0,0,1-.69-.69V763.61a.69.69,0,0,1,.69-.72h11.7a.69.69,0,0,1,.69.72v1.62A.68.68,0,0,1,2154.45,765.92Z" fill="#fff"/><path d="M2174.13,783.41a.47.47,0,0,1-.48.48h-2.22a1.12,1.12,0,0,1-1-.57l-4.74-7.44-4.68,7.44a1,1,0,0,1-.9.57h-2a.48.48,0,0,1-.51-.48.87.87,0,0,1,.18-.48l6.06-9.54-5.73-9.06c-.18-.3-.48-.66-.48-.93a.51.51,0,0,1,.51-.51h2.25a1.06,1.06,0,0,1,.93.6l4.59,7.23,4.65-7.23a1,1,0,0,1,.93-.6h2a.48.48,0,0,1,.48.51,1.6,1.6,0,0,1-.33.72l-5.91,9.12,6,9.33A2.26,2.26,0,0,1,2174.13,783.41Z" fill="#fff"/><path d="M2185.83,776.6h-5v6.6a.68.68,0,0,1-.69.69h-1.83a.68.68,0,0,1-.69-.69V763.61a.69.69,0,0,1,.69-.72h7.56c3.81,0,6.48,2.25,6.48,6.33V770C2192.31,774.05,2189.64,776.6,2185.83,776.6Zm-5-10.68v7.65h4.83a3.33,3.33,0,0,0,3.48-3.63v-.54a3.21,3.21,0,0,0-3.48-3.48Z" fill="#fff"/><path d="M2208.6,765.92h-9.18v5.82h7.26a.69.69,0,0,1,.69.72v1.62a.68.68,0,0,1-.69.69h-7.26v6.09h9.18a.68.68,0,0,1,.69.69v1.65a.68.68,0,0,1-.69.69h-11.7a.68.68,0,0,1-.69-.69V763.61a.69.69,0,0,1,.69-.72h11.7a.69.69,0,0,1,.69.72v1.62A.68.68,0,0,1,2208.6,765.92Z" fill="#fff"/><path d="M2215.86,783.89H2214a.68.68,0,0,1-.69-.69V763.61a.69.69,0,0,1,.69-.72h7.56c3.81,0,6.48,2.07,6.48,6.15v.66a5.46,5.46,0,0,1-4.14,5.7l3.9,7.38a1.18,1.18,0,0,1,.24.63.47.47,0,0,1-.48.48h-2.31a.84.84,0,0,1-.75-.57l-3.78-7.38h-4.2v7.26A.68.68,0,0,1,2215.86,783.89Zm5.52-11c1.86,0,3.48-1,3.48-3.24v-.45c0-2.46-1.62-3.3-3.48-3.3h-4.83v7Z" fill="#fff"/><path d="M2230.38,765.23v-1.62a.69.69,0,0,1,.69-.72h14.64a.69.69,0,0,1,.69.72v1.62a.68.68,0,0,1-.69.69H2240V783.2a.7.7,0,0,1-.72.69h-1.83a.68.68,0,0,1-.69-.69V765.92h-5.7A.68.68,0,0,1,2230.38,765.23Z" fill="#fff"/><path d="M2249.7,783.2V763.61a.69.69,0,0,1,.69-.72h1.83a.69.69,0,0,1,.69.72V783.2a.68.68,0,0,1-.69.69h-1.83A.68.68,0,0,1,2249.7,783.2Z" fill="#fff"/><path d="M2268.45,768.26c-.21-1.44-1-2.82-3.75-2.82-2.37,0-4,.57-4,2.82,0,5,11.37,1.83,11.37,9.93,0,4.44-3.75,6-7.41,6-5.58,0-7.71-3.81-7.71-6.45a.68.68,0,0,1,.69-.69h1.8a.68.68,0,0,1,.66.63c.09,1,.69,3.66,4.56,3.66,2.61,0,4.2-.84,4.2-3.15,0-4.95-11.37-1.8-11.37-9.93,0-3.69,2.64-5.67,7.23-5.67,5,0,6.93,3.06,6.93,5.61a.7.7,0,0,1-.72.69h-1.8A.69.69,0,0,1,2268.45,768.26Z" fill="#fff"/><path d="M2288.7,765.92h-9.18v5.82h7.26a.69.69,0,0,1,.69.72v1.62a.68.68,0,0,1-.69.69h-7.26v6.09h9.18a.68.68,0,0,1,.69.69v1.65a.68.68,0,0,1-.69.69H2277a.68.68,0,0,1-.69-.69V763.61a.69.69,0,0,1,.69-.72h11.7a.69.69,0,0,1,.69.72v1.62A.68.68,0,0,1,2288.7,765.92Z" fill="#fff"/><path d="M1210.68,709.41a.48.48,0,0,1-.51.48H1208a.61.61,0,0,1-.63-.39l-1.59-4.56h-8.49l-1.56,4.53a.6.6,0,0,1-.57.42H1193a.48.48,0,0,1-.51-.48,2.15,2.15,0,0,1,.18-.6l6.93-19.38a.79.79,0,0,1,.72-.54h2.49a.75.75,0,0,1,.69.54l7,19.35A3.94,3.94,0,0,1,1210.68,709.41ZM1204.8,702l-3.24-9.39-3.27,9.39Z" fill="#fff"/><path d="M1228.53,703.17a7.49,7.49,0,0,1-7.71,7c-4.56,0-8-3.36-8-8.46v-4.68c0-5.1,3.42-8.46,8-8.46a7.42,7.42,0,0,1,7.68,6.84.5.5,0,0,1-.54.6h-2.22c-.24,0-.48-.15-.54-.6a4.29,4.29,0,0,0-4.38-3.81c-2.64,0-4.74,2-4.74,5.46v4.65c0,3.48,2.13,5.43,4.74,5.43a4.22,4.22,0,0,0,4.41-3.9c0-.33.15-.63.54-.63h2.28A.49.49,0,0,1,1228.53,703.17Z" fill="#fff"/><path d="M1247.79,703.17a7.49,7.49,0,0,1-7.71,7c-4.56,0-8-3.36-8-8.46v-4.68c0-5.1,3.42-8.46,8-8.46a7.42,7.42,0,0,1,7.68,6.84.5.5,0,0,1-.54.6H1245c-.24,0-.48-.15-.54-.6a4.29,4.29,0,0,0-4.38-3.81c-2.64,0-4.74,2-4.74,5.46v4.65c0,3.48,2.13,5.43,4.74,5.43a4.22,4.22,0,0,0,4.41-3.9c0-.33.15-.63.54-.63h2.28A.49.49,0,0,1,1247.79,703.17Z" fill="#fff"/><path d="M1264.41,691.92h-9.18v5.82h7.26a.69.69,0,0,1,.69.72v1.62a.68.68,0,0,1-.69.69h-7.26v6.09h9.18a.68.68,0,0,1,.69.69v1.65a.68.68,0,0,1-.69.69h-11.7a.68.68,0,0,1-.69-.69V689.61a.69.69,0,0,1,.69-.72h11.7a.69.69,0,0,1,.69.72v1.62A.68.68,0,0,1,1264.41,691.92Z" fill="#fff"/><path d="M1279.35,694.26c-.21-1.44-1-2.82-3.75-2.82-2.37,0-4,.57-4,2.82,0,5,11.37,1.83,11.37,9.93,0,4.44-3.75,6-7.41,6-5.58,0-7.71-3.81-7.71-6.45a.68.68,0,0,1,.69-.69h1.8a.68.68,0,0,1,.66.63c.09,1,.69,3.66,4.56,3.66,2.61,0,4.2-.84,4.2-3.15,0-4.95-11.37-1.8-11.37-9.93,0-3.69,2.64-5.67,7.23-5.67,5,0,6.93,3.06,6.93,5.61a.7.7,0,0,1-.72.69h-1.8A.69.69,0,0,1,1279.35,694.26Z" fill="#fff"/><path d="M1297.41,694.26c-.21-1.44-1-2.82-3.75-2.82-2.37,0-4,.57-4,2.82,0,5,11.37,1.83,11.37,9.93,0,4.44-3.75,6-7.41,6-5.58,0-7.71-3.81-7.71-6.45a.68.68,0,0,1,.69-.69h1.8a.68.68,0,0,1,.66.63c.09,1,.69,3.66,4.56,3.66,2.61,0,4.2-.84,4.2-3.15,0-4.95-11.37-1.8-11.37-9.93,0-3.69,2.64-5.67,7.23-5.67,5,0,6.93,3.06,6.93,5.61a.7.7,0,0,1-.72.69h-1.8A.69.69,0,0,1,1297.41,694.26Z" fill="#fff"/><path d="M1311,691.23v-1.62a.69.69,0,0,1,.69-.72h14.64a.69.69,0,0,1,.69.72v1.62a.68.68,0,0,1-.69.69h-5.7V709.2a.7.7,0,0,1-.72.69h-1.83a.68.68,0,0,1-.69-.69V691.92h-5.7A.68.68,0,0,1,1311,691.23Z" fill="#fff"/><path d="M1336.95,688.59c4.56,0,8,3.36,8,8.46v4.68c0,5.1-3.45,8.46-8,8.46s-8-3.36-8-8.46v-4.68C1329,692,1332.39,688.59,1336.95,688.59Zm0,18.57c2.61,0,4.77-1.95,4.77-5.43v-4.65c0-3.48-2.16-5.46-4.77-5.46s-4.74,2-4.74,5.46v4.65C1332.21,705.21,1334.34,707.16,1336.95,707.16Z" fill="#fff"/><path d="M1369.35,709.89h-11.82a.68.68,0,0,1-.69-.69V689.61a.69.69,0,0,1,.69-.72h1.83a.69.69,0,0,1,.69.72v17.25h9.3a.7.7,0,0,1,.69.72v1.62A.68.68,0,0,1,1369.35,709.89Z" fill="#fff"/><path d="M1386,691.92h-9.18v5.82H1384a.69.69,0,0,1,.69.72v1.62a.68.68,0,0,1-.69.69h-7.26v6.09H1386a.68.68,0,0,1,.69.69v1.65a.68.68,0,0,1-.69.69h-11.7a.68.68,0,0,1-.69-.69V689.61a.69.69,0,0,1,.69-.72H1386a.69.69,0,0,1,.69.72v1.62A.68.68,0,0,1,1386,691.92Z" fill="#fff"/><path d="M1400.91,694.26c-.21-1.44-1-2.82-3.75-2.82-2.37,0-4,.57-4,2.82,0,5,11.37,1.83,11.37,9.93,0,4.44-3.75,6-7.41,6-5.58,0-7.71-3.81-7.71-6.45a.68.68,0,0,1,.69-.69h1.8a.68.68,0,0,1,.66.63c.09,1,.69,3.66,4.56,3.66,2.61,0,4.2-.84,4.2-3.15,0-4.95-11.37-1.8-11.37-9.93,0-3.69,2.64-5.67,7.23-5.67,5,0,6.93,3.06,6.93,5.61a.7.7,0,0,1-.72.69h-1.8A.69.69,0,0,1,1400.91,694.26Z" fill="#fff"/><path d="M1419,694.26c-.21-1.44-1-2.82-3.75-2.82-2.37,0-4,.57-4,2.82,0,5,11.37,1.83,11.37,9.93,0,4.44-3.75,6-7.41,6-5.58,0-7.71-3.81-7.71-6.45a.68.68,0,0,1,.69-.69h1.8a.68.68,0,0,1,.66.63c.09,1,.69,3.66,4.56,3.66,2.61,0,4.2-.84,4.2-3.15,0-4.95-11.37-1.8-11.37-9.93,0-3.69,2.64-5.67,7.23-5.67,5,0,6.93,3.06,6.93,5.61a.7.7,0,0,1-.72.69h-1.8A.69.69,0,0,1,1419,694.26Z" fill="#fff"/><path d="M1180.82,746.2V726.61a.69.69,0,0,1,.69-.72H1188c4.59,0,8.07,3.33,8.07,8.43v4.11c0,5.1-3.48,8.46-8,8.46h-6.57A.68.68,0,0,1,1180.82,746.2Zm3.21-2.37h4c2.58,0,4.77-1.92,4.77-5.4v-4c0-3.48-2.19-5.43-4.8-5.43h-4Z" fill="#fff"/><path d="M1200.5,746.2V726.61a.69.69,0,0,1,.69-.72H1203a.69.69,0,0,1,.69.72V746.2a.68.68,0,0,1-.69.69h-1.83A.68.68,0,0,1,1200.5,746.2Z" fill="#fff"/><path d="M1221.26,746.89h-11.82a.68.68,0,0,1-.69-.69V726.61a.69.69,0,0,1,.69-.72h1.83a.69.69,0,0,1,.69.72v17.25h9.3a.7.7,0,0,1,.69.72v1.62A.68.68,0,0,1,1221.26,746.89Z" fill="#fff"/><path d="M1237.48,725.89h1.83a.69.69,0,0,1,.69.72v12.3c0,5.1-3.12,8.28-7.65,8.28s-7.62-3.18-7.62-8.28v-12.3a.69.69,0,0,1,.69-.72h1.83a.69.69,0,0,1,.69.72v12.3c0,3.48,1.83,5.25,4.41,5.25s4.44-1.77,4.44-5.25v-12.3A.69.69,0,0,1,1237.48,725.89Z" fill="#fff"/><path d="M1243,728.23v-1.62a.69.69,0,0,1,.69-.72h14.64a.69.69,0,0,1,.69.72v1.62a.68.68,0,0,1-.69.69h-5.7V746.2a.7.7,0,0,1-.72.69h-1.83a.68.68,0,0,1-.69-.69V728.92h-5.7A.68.68,0,0,1,1243,728.23Z" fill="#fff"/><path d="M1262.33,746.2V726.61a.69.69,0,0,1,.69-.72h1.83a.69.69,0,0,1,.69.72V746.2a.68.68,0,0,1-.69.69H1263A.68.68,0,0,1,1262.33,746.2Z" fill="#fff"/><path d="M1286.62,726.4a3.91,3.91,0,0,1-.24.81l-6.9,19.2a.66.66,0,0,1-.66.48h-2.19a.61.61,0,0,1-.66-.48l-7-19.5a1.72,1.72,0,0,1-.15-.51.5.5,0,0,1,.48-.51h2.16c.51,0,.69.33.87.84l5.46,15.87,5.52-15.93c.15-.42.3-.78.75-.78h2.07A.53.53,0,0,1,1286.62,726.4Z" fill="#fff"/><path d="M1302.28,728.92h-9.18v5.82h7.26a.69.69,0,0,1,.69.72v1.62a.68.68,0,0,1-.69.69h-7.26v6.09h9.18a.68.68,0,0,1,.69.69v1.65a.68.68,0,0,1-.69.69h-11.7a.68.68,0,0,1-.69-.69V726.61a.69.69,0,0,1,.69-.72h11.7a.69.69,0,0,1,.69.72v1.62A.68.68,0,0,1,1302.28,728.92Z" fill="#fff"/><path d="M1326.91,728.92h-9.18v6.57H1325a.68.68,0,0,1,.69.69v1.65a.68.68,0,0,1-.69.69h-7.26v7.68a.68.68,0,0,1-.69.69h-1.83a.68.68,0,0,1-.69-.69V726.61a.69.69,0,0,1,.69-.72h11.7a.69.69,0,0,1,.69.72v1.62A.68.68,0,0,1,1326.91,728.92Z" fill="#fff"/><path d="M1343.65,725.89h1.83a.69.69,0,0,1,.69.72v12.3c0,5.1-3.12,8.28-7.65,8.28s-7.62-3.18-7.62-8.28v-12.3a.69.69,0,0,1,.69-.72h1.83a.69.69,0,0,1,.69.72v12.3c0,3.48,1.83,5.25,4.41,5.25s4.44-1.77,4.44-5.25v-12.3A.69.69,0,0,1,1343.65,725.89Z" fill="#fff"/><path d="M1366.63,726.61V746.2a.69.69,0,0,1-.72.69h-1.65c-.27,0-.6,0-1.08-.81L1354.06,731V746.2a.7.7,0,0,1-.72.69h-1.74a.68.68,0,0,1-.69-.69V726.61a.69.69,0,0,1,.69-.72h2.31a1,1,0,0,1,.81.57l8.76,14.55v-14.4a.69.69,0,0,1,.69-.72h1.74A.69.69,0,0,1,1366.63,726.61Z" fill="#fff"/><path d="M1371.68,746.2V726.61a.69.69,0,0,1,.69-.72h6.54c4.59,0,8.07,3.33,8.07,8.43v4.11c0,5.1-3.48,8.46-8,8.46h-6.57A.68.68,0,0,1,1371.68,746.2Zm3.21-2.37h4.05c2.58,0,4.77-1.92,4.77-5.4v-4c0-3.48-2.19-5.43-4.8-5.43h-4Z" fill="#fff"/><path d="M1391.35,746.2V726.61a.69.69,0,0,1,.69-.72h1.83a.69.69,0,0,1,.69.72V746.2a.68.68,0,0,1-.69.69H1392A.68.68,0,0,1,1391.35,746.2Z" fill="#fff"/><path d="M1415.32,726.61V746.2a.69.69,0,0,1-.72.69H1413c-.27,0-.6,0-1.08-.81L1402.75,731V746.2a.7.7,0,0,1-.72.69h-1.74a.68.68,0,0,1-.69-.69V726.61a.69.69,0,0,1,.69-.72h2.31a1,1,0,0,1,.81.57l8.76,14.55v-14.4a.69.69,0,0,1,.69-.72h1.74A.69.69,0,0,1,1415.32,726.61Z" fill="#fff"/><path d="M1427.38,737.89v-1.53a.7.7,0,0,1,.69-.72h6.72a.73.73,0,0,1,.72.72v9.84a.7.7,0,0,1-.72.69h-1.44a.68.68,0,0,1-.69-.69v-1.47a5.81,5.81,0,0,1-5.1,2.46c-4.86,0-7.86-3.66-7.86-8.46v-4.68c0-5.1,3.42-8.46,8-8.46a7.4,7.4,0,0,1,7.68,6.54,2.63,2.63,0,0,1,.06.45.45.45,0,0,1-.48.45h-2.28c-.3,0-.48-.18-.54-.6a4.31,4.31,0,0,0-4.44-3.81c-2.67,0-4.8,2-4.8,5.46v4.65c0,3.48,2.13,5.43,4.8,5.43a4.51,4.51,0,0,0,4.65-4.38v-1.2h-4.32A.68.68,0,0,1,1427.38,737.89Z" fill="#fff"/><path d="M1237.92,1237.22c-.21-1.44-1-2.82-3.75-2.82-2.37,0-4,.57-4,2.82,0,5,11.37,1.83,11.37,9.93,0,4.44-3.75,6-7.41,6-5.58,0-7.71-3.81-7.71-6.45a.68.68,0,0,1,.69-.69h1.8a.68.68,0,0,1,.66.63c.09,1,.69,3.66,4.56,3.66,2.61,0,4.2-.84,4.2-3.15,0-4.95-11.37-1.8-11.37-9.93,0-3.69,2.64-5.67,7.23-5.67,5,0,6.93,3.06,6.93,5.61a.7.7,0,0,1-.72.69h-1.8A.69.69,0,0,1,1237.92,1237.22Z" fill="#a5b993"/><path d="M1243.83,1234.19v-1.62a.69.69,0,0,1,.69-.72h14.64a.69.69,0,0,1,.69.72v1.62a.68.68,0,0,1-.69.69h-5.7v17.28a.7.7,0,0,1-.72.69h-1.83a.68.68,0,0,1-.69-.69v-17.28h-5.7A.68.68,0,0,1,1243.83,1234.19Z" fill="#a5b993"/><path d="M1265.67,1252.85h-1.83a.68.68,0,0,1-.69-.69v-19.59a.69.69,0,0,1,.69-.72h7.56c3.81,0,6.48,2.07,6.48,6.15v.66a5.46,5.46,0,0,1-4.14,5.7l3.9,7.38a1.18,1.18,0,0,1,.24.63.47.47,0,0,1-.48.48h-2.31a.84.84,0,0,1-.75-.57l-3.78-7.38h-4.2v7.26A.68.68,0,0,1,1265.67,1252.85Zm5.52-11c1.86,0,3.48-1,3.48-3.24v-.45c0-2.46-1.62-3.3-3.48-3.3h-4.83v7Z" fill="#a5b993"/><path d="M1294.44,1234.88h-9.18v5.82h7.26a.69.69,0,0,1,.69.72V1243a.68.68,0,0,1-.69.69h-7.26v6.09h9.18a.68.68,0,0,1,.69.69v1.65a.68.68,0,0,1-.69.69h-11.7a.68.68,0,0,1-.69-.69v-19.59a.69.69,0,0,1,.69-.72h11.7a.69.69,0,0,1,.69.72v1.62A.68.68,0,0,1,1294.44,1234.88Z" fill="#a5b993"/><path d="M1315.65,1252.37a.48.48,0,0,1-.51.48h-2.19a.61.61,0,0,1-.63-.39l-1.59-4.56h-8.49l-1.56,4.53a.6.6,0,0,1-.57.42H1298a.48.48,0,0,1-.51-.48,2.12,2.12,0,0,1,.18-.6l6.93-19.38a.79.79,0,0,1,.72-.54h2.49a.75.75,0,0,1,.69.54l7,19.35A3.94,3.94,0,0,1,1315.65,1252.37Zm-5.88-7.38-3.24-9.39-3.27,9.39Z" fill="#a5b993"/><path d="M1339.74,1232.57v19.59a.7.7,0,0,1-.72.69h-1.71a.68.68,0,0,1-.69-.69v-15.45l-5.79,15.66a.63.63,0,0,1-.63.48h-1.68a.59.59,0,0,1-.6-.45l-5.85-15.72v15.48a.68.68,0,0,1-.69.69h-1.68a.68.68,0,0,1-.69-.69v-19.59a.69.69,0,0,1,.69-.72h3.21a.56.56,0,0,1,.57.36l5.91,16.14,6-16.11a.56.56,0,0,1,.54-.39H1339A.71.71,0,0,1,1339.74,1232.57Z" fill="#a5b993"/><path d="M1344.75,1252.16v-19.59a.69.69,0,0,1,.69-.72h1.83a.69.69,0,0,1,.69.72v19.59a.68.68,0,0,1-.69.69h-1.83A.68.68,0,0,1,1344.75,1252.16Z" fill="#a5b993"/><path d="M1368.72,1232.57v19.59a.69.69,0,0,1-.72.69h-1.65c-.27,0-.6,0-1.08-.81l-9.12-15.06v15.18a.7.7,0,0,1-.72.69h-1.74a.68.68,0,0,1-.69-.69v-19.59a.69.69,0,0,1,.69-.72H1356a1,1,0,0,1,.81.57l8.76,14.55v-14.4a.69.69,0,0,1,.69-.72H1368A.69.69,0,0,1,1368.72,1232.57Z" fill="#a5b993"/><path d="M1380.78,1243.85v-1.53a.7.7,0,0,1,.69-.72h6.72a.73.73,0,0,1,.72.72v9.84a.7.7,0,0,1-.72.69h-1.44a.68.68,0,0,1-.69-.69v-1.47a5.82,5.82,0,0,1-5.1,2.46c-4.86,0-7.86-3.66-7.86-8.46V1240c0-5.1,3.42-8.46,8-8.46a7.4,7.4,0,0,1,7.68,6.54,2.74,2.74,0,0,1,.06.45.45.45,0,0,1-.48.45h-2.28c-.3,0-.48-.18-.54-.6a4.31,4.31,0,0,0-4.44-3.81c-2.67,0-4.8,2-4.8,5.46v4.65c0,3.48,2.13,5.43,4.8,5.43a4.51,4.51,0,0,0,4.65-4.38v-1.2h-4.32A.68.68,0,0,1,1380.78,1243.85Z" fill="#a5b993"/><path d="M1253.86,1282.56h-5v6.6a.68.68,0,0,1-.69.69h-1.83a.68.68,0,0,1-.69-.69v-19.59a.69.69,0,0,1,.69-.72h7.56c3.81,0,6.48,2.25,6.48,6.33v.75C1260.35,1280,1257.68,1282.56,1253.86,1282.56Zm-5-10.68v7.65h4.83a3.33,3.33,0,0,0,3.48-3.63v-.54a3.21,3.21,0,0,0-3.48-3.48Z" fill="#a5b993"/><path d="M1278.92,1289.37a.48.48,0,0,1-.51.48h-2.19a.6.6,0,0,1-.63-.39l-1.59-4.56h-8.49l-1.56,4.53a.6.6,0,0,1-.57.42h-2.1a.48.48,0,0,1-.51-.48,2.15,2.15,0,0,1,.18-.6l6.93-19.38a.79.79,0,0,1,.72-.54h2.49a.75.75,0,0,1,.69.54l7,19.35A3.84,3.84,0,0,1,1278.92,1289.37ZM1273,1282l-3.24-9.39-3.27,9.39Z" fill="#a5b993"/><path d="M1284.8,1289.85H1283a.68.68,0,0,1-.69-.69v-19.59a.69.69,0,0,1,.69-.72h7.56c3.81,0,6.48,2.07,6.48,6.15v.66a5.46,5.46,0,0,1-4.14,5.7l3.9,7.38a1.18,1.18,0,0,1,.24.63.47.47,0,0,1-.48.48h-2.31a.84.84,0,0,1-.75-.57l-3.78-7.38h-4.2v7.26A.68.68,0,0,1,1284.8,1289.85Zm5.52-11c1.86,0,3.48-1,3.48-3.24v-.45c0-2.46-1.62-3.3-3.48-3.3h-4.83v7Z" fill="#a5b993"/><path d="M1299.31,1271.19v-1.62a.69.69,0,0,1,.69-.72h14.64a.69.69,0,0,1,.69.72v1.62a.68.68,0,0,1-.69.69h-5.7v17.28a.7.7,0,0,1-.72.69h-1.83a.68.68,0,0,1-.69-.69v-17.28H1300A.68.68,0,0,1,1299.31,1271.19Z" fill="#a5b993"/><path d="M1334.36,1269.57v19.59a.69.69,0,0,1-.72.69H1332c-.27,0-.6,0-1.08-.81l-9.12-15.06v15.18a.7.7,0,0,1-.72.69h-1.74a.68.68,0,0,1-.69-.69v-19.59a.69.69,0,0,1,.69-.72h2.31a1,1,0,0,1,.81.57l8.76,14.55v-14.4a.69.69,0,0,1,.69-.72h1.74A.69.69,0,0,1,1334.36,1269.57Z" fill="#a5b993"/><path d="M1351.78,1271.88h-9.18v5.82h7.26a.69.69,0,0,1,.69.72V1280a.68.68,0,0,1-.69.69h-7.26v6.09h9.18a.68.68,0,0,1,.69.69v1.65a.68.68,0,0,1-.69.69h-11.7a.68.68,0,0,1-.69-.69v-19.59a.69.69,0,0,1,.69-.72h11.7a.69.69,0,0,1,.69.72v1.62A.68.68,0,0,1,1351.78,1271.88Z" fill="#a5b993"/><path d="M1359,1289.85h-1.83a.68.68,0,0,1-.69-.69v-19.59a.69.69,0,0,1,.69-.72h7.56c3.81,0,6.48,2.07,6.48,6.15v.66a5.46,5.46,0,0,1-4.14,5.7l3.9,7.38a1.19,1.19,0,0,1,.24.63.47.47,0,0,1-.48.48h-2.31a.84.84,0,0,1-.75-.57l-3.78-7.38h-4.2v7.26A.68.68,0,0,1,1359,1289.85Zm5.52-11c1.86,0,3.48-1,3.48-3.24v-.45c0-2.46-1.62-3.3-3.48-3.3h-4.83v7Z" fill="#a5b993"/><line x1="1308" y1="827.14" x2="1308" y2="989.1"/><rect x="1307" y="827.14" width="2" height="161.97" fill="#fff"/><g clip-path="url(#clip-path)"><path d="M1250.12,1085.63a.74.74,0,0,0-1.1.8,96.38,96.38,0,0,0,28.44,49.23,118.69,118.69,0,0,0,22.94,16.74c-9.82-3.65-26.48-8.9-44.57-8.9a86.25,86.25,0,0,0-10.54.63.73.73,0,0,0-.38,1.3c13.78,11.29,29,17,45.29,17a70.45,70.45,0,0,0,11.21-.91c-7.78,2.87-20.39,8.75-30.71,21.18a.74.74,0,0,0,.74,1.18c12.32-3.09,22.37-7.27,29.87-12.42a39.41,39.41,0,0,0,9.76-9.16c.13,3.32-.14,11.7-.28,16.11-.18,5.6-.18,5.6,0,5.87a3.16,3.16,0,0,0,1.93.9,2.78,2.78,0,0,0,2-1c.14-.25.14-.25,0-5.45-.15-4.5-.42-13.08-.28-16.43a39.49,39.49,0,0,0,9.76,9.15c7.5,5.15,17.55,9.33,29.87,12.42a.74.74,0,0,0,.75-1.18c-10.32-12.43-22.93-18.31-30.71-21.18a70.4,70.4,0,0,0,11.21.91c16.27,0,31.51-5.72,45.29-17a.73.73,0,0,0-.38-1.3,86.25,86.25,0,0,0-10.54-.63c-18.09,0-34.75,5.25-44.57,8.9a118.7,118.7,0,0,0,22.94-16.74,96.43,96.43,0,0,0,28.44-49.24.74.74,0,0,0-1.1-.8c-33.84,20.37-51.15,49.75-58.26,62.41a118.84,118.84,0,0,0,5.73-27c2-21-1.16-42.37-9.43-63.51a.73.73,0,0,0-1.37,0c-8.27,21.15-11.44,42.52-9.43,63.52a118.84,118.84,0,0,0,5.73,27c-7.11-12.66-24.42-42-58.26-62.42" fill="#fff"/></g><polygon points="1308 807.76 1292.85 834.01 1323.15 834.01 1308 807.76" fill="#fff"/><polygon points="1308 1004.52 1323.15 978.27 1292.85 978.27 1308 1004.52" fill="#fff"/><polygon points="979.74 1004.52 994.9 978.27 964.59 978.27 979.74 1004.52" fill="#fff"/><polygon points="695.33 1004.52 710.49 978.27 680.17 978.27 695.33 1004.52" fill="#fff"/><polygon points="1627.17 1004.52 1642.33 978.27 1612.02 978.27 1627.17 1004.52" fill="#fff"/><polygon points="1911.58 1004.52 1926.74 978.27 1896.43 978.27 1911.58 1004.52" fill="#fff"/><polygon points="2215.23 1004.52 2230.39 978.27 2200.07 978.27 2215.23 1004.52" fill="#fff"/><polygon points="372.29 1004.52 387.44 978.27 357.13 978.27 372.29 1004.52" fill="#fff"/><rect x="371.28" y="598.53" width="2" height="60.53" fill="#fff"/><rect x="2214.23" y="598.53" width="2" height="60.53" fill="#fff"/></g></g></svg>