<svg xmlns="http://www.w3.org/2000/svg" xmlns:xlink="http://www.w3.org/1999/xlink" viewBox="0 0 2616 1540"><defs><style>.cls-1,.cls-5{fill:none;}.cls-2{fill:#4b4e53;}.cls-26,.cls-3{fill:#a5b993;}.cls-4,.cls-5{stroke:#fff;stroke-miterlimit:10;stroke-width:2px;}.cls-14,.cls-20,.cls-23,.cls-26,.cls-6{font-size:30px;font-family:Rubik-Regular, Rubik;}.cls-14,.cls-20,.cls-23,.cls-30,.cls-6{fill:#fff;}.cls-6{letter-spacing:0.01em;}.cls-14,.cls-7{letter-spacing:0.02em;}.cls-8{letter-spacing:-0.05em;}.cls-9{letter-spacing:-0.01em;}.cls-10{letter-spacing:0.02em;}.cls-11{letter-spacing:0.01em;}.cls-12{letter-spacing:-0.01em;}.cls-13{letter-spacing:-0.02em;}.cls-15,.cls-26{letter-spacing:0.01em;}.cls-16,.cls-23{letter-spacing:0.01em;}.cls-17{letter-spacing:-0.1em;}.cls-18{letter-spacing:-0.03em;}.cls-19{letter-spacing:-0.05em;}.cls-20,.cls-27{letter-spacing:-0.02em;}.cls-21{letter-spacing:0.01em;}.cls-22{letter-spacing:0.01em;}.cls-24{letter-spacing:0em;}.cls-25{letter-spacing:0em;}.cls-28{letter-spacing:0.01em;}.cls-29{clip-path:url(#clip-path);}</style><clipPath id="clip-path"><rect class="cls-1" x="1249.26" y="1074.36" width="114.44" height="107.59"/></clipPath></defs><title>Asset 9 1</title><g id="Layer_2" data-name="Layer 2"><g id="Layer_1-2" data-name="Layer 1"><rect class="cls-2" width="2616" height="1540"/><path class="cls-3" d="M1297.5,363.91c-10.72,0-20.93.3-31-.14-4.71-.21-8.71-2.32-10.66-6-4.51-8.44-37.52-73.23-38.87-75.82-.26-.51-.2-2.23,2-2.23,8.8,0,17.62-.09,26.4,0,6.13.07,10.66,2.28,13,6.63,3.28,6.07,38.81,76.51,39.1,77.51"/><path class="cls-3" d="M1356.61,363.91c-10.72,0-20.93.3-31-.14-4.71-.21-8.71-2.32-10.66-6-4.51-8.44-37.52-73.23-38.87-75.82-.27-.51-.2-2.23,2-2.23,8.8,0,17.62-.09,26.4,0,6.13.07,10.66,2.28,13,6.63,3.28,6.07,38.81,76.51,39.1,77.51"/><path class="cls-3" d="M1390.85,280.08h0c-1.27-.23-9.66-.33-18-.35-6,0-10.54,3-13.4,8.39-4.09,7.78-8,15.68-12,23.52a1.91,1.91,0,0,0,1.62,2.85c1.27.23,9.66.33,18,.35,6,0,10.54-3,13.4-8.38,4.09-7.78,8-15.69,12-23.53a1.91,1.91,0,0,0-1.62-2.85"/><line class="cls-4" x1="1308" y1="436.57" x2="1308" y2="598.53"/><line class="cls-4" x1="372.28" y1="827.14" x2="372.28" y2="989.1"/><line class="cls-4" x1="695.33" y1="827.14" x2="695.33" y2="989.1"/><line class="cls-4" x1="979.74" y1="827.14" x2="979.74" y2="989.1"/><line class="cls-4" x1="1627.17" y1="827.14" x2="1627.17" y2="989.1"/><line class="cls-4" x1="2215.23" y1="827.14" x2="2215.23" y2="989.1"/><line class="cls-4" x1="1308" y1="827.14" x2="1308" y2="989.1"/><line class="cls-5" x1="2215.23" y1="598.53" x2="372.28" y2="598.53"/><text class="cls-6" transform="translate(266.89 710.19)">C<tspan class="cls-7" x="20.43" y="0">API</tspan><tspan class="cls-8" x="69.84" y="0">T</tspan><tspan class="cls-7" x="85.35" y="0">A</tspan><tspan class="cls-9" x="106.35" y="0">L</tspan><tspan class="cls-10" x="123.15" y="0"> </tspan><tspan class="cls-11" x="131.07" y="0">F</tspan><tspan class="cls-10" x="148.77" y="0">OR </tspan><tspan class="cls-7"><tspan x="-29.68" y="37">INITIA</tspan><tspan class="cls-12" x="56.23" y="37">L</tspan><tspan class="cls-10" x="73.03" y="37" xml:space="preserve"> BUILD OR</tspan><tspan x="10.32" y="74">EX</tspan><tspan class="cls-13" x="48.42" y="74">P</tspan><tspan x="66.99" y="74">ANSION</tspan></tspan></text><text class="cls-14" transform="translate(580.6 710.19)">CON<tspan class="cls-15" x="62.79" y="0">S</tspan><tspan x="81.66" y="0">TRUCTION</tspan><tspan x="11.01" y="37">MAN</tspan><tspan class="cls-16" x="77.85" y="37">A</tspan><tspan x="98.49" y="37">GEMEN</tspan><tspan class="cls-9" x="202.17" y="37">T</tspan></text><text class="cls-14" transform="translate(892.7 710.19)">GENETICS &amp; <tspan x="-6.83" y="37">CU</tspan><tspan class="cls-17" x="35.32" y="37">L</tspan><tspan x="49.33" y="37">TI</tspan><tspan class="cls-18" x="75.61" y="37">V</tspan><tspan class="cls-19" x="94.21" y="37">A</tspan><tspan class="cls-10" x="113.05" y="37">TION </tspan><tspan x="7.39" y="74">EXPE</tspan><tspan class="cls-15" x="83.65" y="74">R</tspan><tspan x="103.51" y="74">TISE</tspan></text><text class="cls-14" transform="translate(1500.95 710.19)">BRAND BUILDING<tspan x="46.57" y="37">EXPE</tspan><tspan class="cls-15" x="122.83" y="37">R</tspan><tspan x="142.69" y="37">TISE</tspan></text><line class="cls-4" x1="1911.58" y1="827.14" x2="1911.58" y2="989.1"/><path class="cls-4" d="M1308,988.64"/><path class="cls-4" d="M2215.23,826.67"/><text class="cls-20" transform="translate(1851.7 710.19)">P<tspan class="cls-19" x="18.57" y="0">A</tspan><tspan class="cls-10" x="37.41" y="0">TIEN</tspan><tspan class="cls-12" x="103.47" y="0">T</tspan><tspan class="cls-10" x="120.36" y="0"></tspan><tspan class="cls-7"><tspan x="-2.77" y="37">GR</tspan><tspan class="cls-21" x="38.48" y="37">O</tspan><tspan x="59.08" y="37">WTH</tspan></tspan></text><text class="cls-14" transform="translate(2153.68 710.19)">L<tspan class="cls-11" x="17.58" y="0">E</tspan><tspan class="cls-22" x="35.73" y="0">G</tspan><tspan x="56.49" y="0">A</tspan><tspan class="cls-12" x="77.49" y="0">L</tspan><tspan x="94.29" y="0" xml:space="preserve"> &amp; </tspan><tspan x="-16.84" y="37">FINANCIA</tspan><tspan class="cls-12" x="123.73" y="37">L</tspan><tspan x="140.53" y="37" xml:space="preserve"> </tspan><tspan x="-18.1" y="74">EXPE</tspan><tspan class="cls-15" x="58.15" y="74">R</tspan><tspan x="78.02" y="74">TISE</tspan></text><text class="cls-23" transform="translate(1185.45 710.19)">A<tspan class="cls-7" x="20.64" y="0">CCESS</tspan><tspan class="cls-9" x="118.5" y="0"> </tspan><tspan class="cls-24" x="125.64" y="0">T</tspan><tspan class="cls-7" x="142.8" y="0">O LESS </tspan><tspan class="cls-7"><tspan x="-14.26" y="37">DI</tspan><tspan class="cls-25" x="15.59" y="37">L</tspan><tspan x="32.6" y="37">UTIVE FUNDING</tspan></tspan></text><text class="cls-26" transform="translate(1222.5 1253.15)">S<tspan class="cls-7" x="18.87" y="0">TREAMING </tspan><tspan class="cls-27"><tspan x="17.29" y="37">P</tspan><tspan class="cls-7" x="35.87" y="37">A</tspan><tspan class="cls-28" x="56.87" y="37">R</tspan><tspan class="cls-7" x="76.73" y="37">TNER</tspan></tspan></text><line class="cls-4" x1="1308" y1="827.14" x2="1308" y2="989.1"/><g class="cls-29"><path class="cls-3" d="M1253.86,1098.32a.62.62,0,0,0-.92.67,81,81,0,0,0,23.88,41.35,99.7,99.7,0,0,0,19.27,14.06c-8.25-3.07-22.24-7.48-37.43-7.48a72.45,72.45,0,0,0-8.86.53.62.62,0,0,0-.32,1.09c11.57,9.48,24.37,14.29,38,14.29a59.18,59.18,0,0,0,9.42-.77,60.34,60.34,0,0,0-25.8,17.79.62.62,0,0,0,.62,1c10.35-2.59,18.79-6.1,25.09-10.43a33.1,33.1,0,0,0,8.2-7.69c.11,2.79-.11,9.83-.23,13.53-.15,4.7-.15,4.7,0,4.93a2.65,2.65,0,0,0,1.62.75,2.34,2.34,0,0,0,1.67-.83c.12-.21.12-.21,0-4.58-.12-3.78-.35-11-.24-13.8a33.17,33.17,0,0,0,8.2,7.69c6.3,4.33,14.74,7.84,25.09,10.43a.62.62,0,0,0,.63-1,60.36,60.36,0,0,0-25.8-17.79,59.14,59.14,0,0,0,9.41.77c13.67,0,26.47-4.81,38-14.29a.62.62,0,0,0-.32-1.09,72.45,72.45,0,0,0-8.86-.53c-15.19,0-29.19,4.41-37.43,7.48a99.7,99.7,0,0,0,19.27-14.06A81,81,0,0,0,1360,1099a.62.62,0,0,0-.92-.67c-28.42,17.11-43,41.79-48.94,52.43a99.82,99.82,0,0,0,4.81-22.64c1.69-17.64-1-35.59-7.92-53.35a.62.62,0,0,0-1.15,0c-6.95,17.76-9.61,35.71-7.92,53.35a99.82,99.82,0,0,0,4.81,22.64c-6-10.64-20.51-35.32-48.94-52.43"/></g><polygon class="cls-30" points="1308 807.76 1292.85 834.01 1323.15 834.01 1308 807.76"/><polygon class="cls-30" points="1308 1004.52 1323.15 978.27 1292.85 978.27 1308 1004.52"/><polygon class="cls-30" points="979.74 1004.52 994.9 978.27 964.59 978.27 979.74 1004.52"/><polygon class="cls-30" points="695.33 1004.52 710.49 978.27 680.17 978.27 695.33 1004.52"/><polygon class="cls-30" points="1627.17 1004.52 1642.33 978.27 1612.02 978.27 1627.17 1004.52"/><polygon class="cls-30" points="1911.58 1004.52 1926.74 978.27 1896.43 978.27 1911.58 1004.52"/><polygon class="cls-30" points="2215.23 1004.52 2230.39 978.27 2200.07 978.27 2215.23 1004.52"/><polygon class="cls-30" points="372.29 1004.52 387.44 978.27 357.13 978.27 372.29 1004.52"/><line class="cls-5" x1="372.28" y1="598.53" x2="372.28" y2="659.07"/><line class="cls-5" x1="2215.23" y1="598.53" x2="2215.23" y2="659.07"/></g></g></svg>