<?xml version="1.0" encoding="utf-8"?>
<!-- Generator: Adobe Illustrator 20.1.0, SVG Export Plug-In . SVG Version: 6.00 Build 0)  -->
<!DOCTYPE svg PUBLIC "-//W3C//DTD SVG 1.1//EN" "http://www.w3.org/Graphics/SVG/1.1/DTD/svg11.dtd">
<svg version="1.1" id="Layer_1" xmlns="http://www.w3.org/2000/svg" xmlns:xlink="http://www.w3.org/1999/xlink" x="0px" y="0px"
	 viewBox="0 0 3056.8 1642.6" style="enable-background:new 0 0 3056.8 1642.6;" xml:space="preserve">
<style type="text/css">
	.st0{fill:#A5B993;}
	.st1{fill:#FFFFFF;}
	.st2{clip-path:url(#SVGID_2_);fill:#A5B993;}
	.st3{fill:none;stroke:#FFFFFF;stroke-width:0.8405;stroke-miterlimit:10;}
	.st4{stroke:#FFFFFF;stroke-width:2;stroke-miterlimit:10;}
	.st5{fill:none;stroke:#FFFFFF;stroke-width:2;stroke-miterlimit:10;}
	.st6{clip-path:url(#SVGID_4_);fill:#A5B993;}
	.st7{clip-path:url(#SVGID_6_);fill:#A5B993;}
</style>
<g>
	<path class="st0" d="M1517.9,300.6c-10.7,0-20.9,0.3-31-0.1c-4.7-0.2-8.7-2.3-10.7-6c-4.5-8.4-37.5-73.2-38.9-75.8
		c-0.3-0.5-0.2-2.2,2-2.2c8.8,0,17.6-0.1,26.4,0c6.1,0.1,10.7,2.3,13,6.6C1482.1,229.2,1517.6,299.6,1517.9,300.6"/>
	<path class="st0" d="M1577,300.6c-10.7,0-20.9,0.3-31-0.1c-4.7-0.2-8.7-2.3-10.7-6c-4.5-8.4-37.5-73.2-38.9-75.8
		c-0.3-0.5-0.2-2.2,2-2.2c8.8,0,17.6-0.1,26.4,0c6.1,0.1,10.7,2.3,13,6.6C1541.2,229.2,1576.7,299.6,1577,300.6"/>
	<path class="st0" d="M1611.3,216.8L1611.3,216.8c-1.3-0.2-9.7-0.3-18-0.3c-6,0-10.5,3-13.4,8.4c-4.1,7.8-8,15.7-12,23.5
		c-1,2,0.9,2.8,1.6,2.9c1.3,0.2,9.7,0.3,18,0.3c6,0,10.5-3,13.4-8.4c4.1-7.8,8-15.7,12-23.5C1613.9,217.7,1612,216.8,1611.3,216.8"
		/>
</g>
<line class="st4" x1="1528.4" y1="373.2" x2="1528.4" y2="636.9"/>
<line class="st4" x1="1528.4" y1="865.5" x2="1528.4" y2="1078.4"/>
<line class="st5" x1="2435.6" y1="636.9" x2="602" y2="636.9"/>
<g>
	<path class="st1" d="M518.7,741.6c-0.2,3.7-3.2,7-7.5,7c-4.4,0-7.7-3.2-7.7-8.2v-5.2c0-5,3.3-8.2,7.7-8.2c4.4,0,7.1,3,7.5,6.7
		c0,0.3-0.1,0.5-0.4,0.5h-1.5c-0.2,0-0.3-0.1-0.4-0.5c-0.4-2.5-2.2-4.6-5.2-4.6c-3,0-5.4,2.2-5.4,6.1v5.2c0,3.8,2.4,6.1,5.4,6.1
		c3,0,4.9-2,5.2-4.9c0-0.2,0.1-0.4,0.4-0.4h1.6C518.6,741.2,518.7,741.3,518.7,741.6z"/>
	<path class="st1" d="M539,747.9c0,0.2-0.1,0.3-0.4,0.3h-1.5c-0.3,0-0.4-0.1-0.5-0.3l-1.9-5.3h-9.1l-1.9,5.3
		c-0.1,0.3-0.3,0.3-0.4,0.3h-1.5c-0.2,0-0.4-0.1-0.4-0.3c0-0.1,0.1-0.4,0.2-0.6l7.1-19.6c0.1-0.3,0.2-0.5,0.5-0.5h1.7
		c0.3,0,0.5,0.2,0.5,0.5l7.3,19.8C538.9,747.6,539,747.8,539,747.9z M534,740.6l-3.8-10.7l-3.8,10.7H534z"/>
	<path class="st1" d="M550.6,740.4h-5.4v7.4c0,0.3-0.2,0.5-0.5,0.5h-1.3c-0.3,0-0.5-0.2-0.5-0.5v-20c0-0.3,0.2-0.5,0.5-0.5h7.2
		c3.8,0,6.5,2.1,6.5,6.1v0.6C557,737.9,554.4,740.4,550.6,740.4z M545.2,729.4v8.8h5.3c2.2,0,4.3-1.3,4.3-4.2v-0.6c0-3-2.1-4-4.3-4
		H545.2z"/>
	<path class="st1" d="M561.4,747.7v-20c0-0.3,0.2-0.5,0.5-0.5h1.3c0.3,0,0.5,0.2,0.5,0.5v20c0,0.3-0.2,0.5-0.5,0.5h-1.3
		C561.6,748.3,561.4,748,561.4,747.7z"/>
	<path class="st1" d="M567.4,728.9v-1.1c0-0.3,0.2-0.5,0.5-0.5h14.9c0.3,0,0.5,0.2,0.5,0.5v1.1c0,0.3-0.2,0.5-0.5,0.5h-6.3v18.4
		c0,0.3-0.2,0.5-0.5,0.5h-1.3c-0.3,0-0.5-0.2-0.5-0.5v-18.4h-6.3C567.7,729.4,567.4,729.2,567.4,728.9z"/>
	<path class="st1" d="M600.2,747.9c0,0.2-0.1,0.3-0.4,0.3h-1.5c-0.3,0-0.4-0.1-0.5-0.3l-1.9-5.3h-9.1l-1.9,5.3
		c-0.1,0.3-0.3,0.3-0.4,0.3h-1.5c-0.2,0-0.4-0.1-0.4-0.3c0-0.1,0.1-0.4,0.2-0.6l7.1-19.6c0.1-0.3,0.2-0.5,0.5-0.5h1.7
		c0.3,0,0.5,0.2,0.5,0.5l7.3,19.8C600.1,747.6,600.2,747.8,600.2,747.9z M595.2,740.6l-3.8-10.7l-3.8,10.7H595.2z"/>
	<path class="st1" d="M616.8,748.3h-12.1c-0.3,0-0.5-0.2-0.5-0.5v-20c0-0.3,0.2-0.5,0.5-0.5h1.3c0.3,0,0.5,0.2,0.5,0.5v18.4h10.4
		c0.3,0,0.5,0.2,0.5,0.5v1.1C617.3,748,617.1,748.3,616.8,748.3z"/>
	<path class="st1" d="M641.2,729.4H631v7.8h8.2c0.3,0,0.5,0.2,0.5,0.5v1.1c0,0.3-0.2,0.5-0.5,0.5H631v8.4c0,0.3-0.2,0.5-0.5,0.5
		h-1.3c-0.3,0-0.5-0.2-0.5-0.5v-20c0-0.3,0.2-0.5,0.5-0.5h11.9c0.3,0,0.5,0.2,0.5,0.5v1.1C641.7,729.2,641.5,729.4,641.2,729.4z"/>
	<path class="st1" d="M652.3,727c4.4,0,7.7,3.2,7.7,8.2v5.2c0,5-3.4,8.2-7.7,8.2c-4.4,0-7.7-3.2-7.7-8.2v-5.2
		C644.6,730.2,647.9,727,652.3,727z M652.3,746.4c3,0,5.4-2.2,5.4-6.1v-5.2c0-3.9-2.4-6.1-5.4-6.1s-5.4,2.2-5.4,6.1v5.2
		C646.9,744.2,649.3,746.4,652.3,746.4z"/>
	<path class="st1" d="M666.7,748.3h-1.3c-0.3,0-0.5-0.2-0.5-0.5v-20c0-0.3,0.2-0.5,0.5-0.5h7.2c3.8,0,6.5,2,6.5,6v0.4
		c0,2.6-1.4,4.8-4.5,5.7l4.3,8.1c0.1,0.2,0.1,0.3,0.1,0.4c0,0.2-0.1,0.3-0.3,0.3h-1.7c-0.3,0-0.4-0.2-0.5-0.4l-4.2-8.1h-5v8
		C667.3,748,667,748.3,666.7,748.3z M672.5,737.6c2.2,0,4.3-1.2,4.3-3.8v-0.5c0-3-2.1-3.9-4.3-3.9h-5.3v8.2H672.5z"/>
	<path class="st1" d="M475.4,784.7v-20c0-0.3,0.2-0.5,0.5-0.5h1.3c0.3,0,0.5,0.2,0.5,0.5v20c0,0.3-0.2,0.5-0.5,0.5H476
		C475.7,785.3,475.4,785,475.4,784.7z"/>
	<path class="st1" d="M498.5,764.8v20c0,0.3-0.2,0.5-0.5,0.5h-1c-0.2,0-0.5,0-0.8-0.6l-10.5-16.6v16.7c0,0.3-0.2,0.5-0.5,0.5h-1.2
		c-0.3,0-0.5-0.2-0.5-0.5v-20c0-0.3,0.2-0.5,0.5-0.5h1.5c0.3,0,0.5,0.2,0.6,0.4l10.3,16.3v-16.2c0-0.3,0.2-0.5,0.5-0.5h1.2
		C498.3,764.3,498.5,764.5,498.5,764.8z"/>
	<path class="st1" d="M504.2,784.7v-20c0-0.3,0.2-0.5,0.5-0.5h1.3c0.3,0,0.5,0.2,0.5,0.5v20c0,0.3-0.2,0.5-0.5,0.5h-1.3
		C504.5,785.3,504.2,785,504.2,784.7z"/>
	<path class="st1" d="M510.3,765.9v-1.1c0-0.3,0.2-0.5,0.5-0.5h14.9c0.3,0,0.5,0.2,0.5,0.5v1.1c0,0.3-0.2,0.5-0.5,0.5h-6.3v18.4
		c0,0.3-0.2,0.5-0.5,0.5h-1.3c-0.3,0-0.5-0.2-0.5-0.5v-18.4h-6.3C510.5,766.4,510.3,766.2,510.3,765.9z"/>
	<path class="st1" d="M530,784.7v-20c0-0.3,0.2-0.5,0.5-0.5h1.3c0.3,0,0.5,0.2,0.5,0.5v20c0,0.3-0.2,0.5-0.5,0.5h-1.3
		C530.2,785.3,530,785,530,784.7z"/>
	<path class="st1" d="M553.6,784.9c0,0.2-0.1,0.3-0.4,0.3h-1.5c-0.3,0-0.4-0.1-0.5-0.3l-1.9-5.3h-9.1l-1.9,5.3
		c-0.1,0.3-0.3,0.3-0.4,0.3h-1.5c-0.2,0-0.4-0.1-0.4-0.3c0-0.1,0.1-0.4,0.2-0.6l7.1-19.6c0.1-0.3,0.2-0.5,0.5-0.5h1.7
		c0.3,0,0.5,0.2,0.5,0.5l7.3,19.8C553.6,784.6,553.6,784.8,553.6,784.9z M548.6,777.6l-3.8-10.7l-3.8,10.7H548.6z"/>
	<path class="st1" d="M570.2,785.3H558c-0.3,0-0.5-0.2-0.5-0.5v-20c0-0.3,0.2-0.5,0.5-0.5h1.3c0.3,0,0.5,0.2,0.5,0.5v18.4h10.4
		c0.3,0,0.5,0.2,0.5,0.5v1.1C570.7,785,570.5,785.3,570.2,785.3z"/>
	<path class="st1" d="M596.9,779.3v0.4c0,4.3-3.4,5.6-7.1,5.6h-7.2c-0.3,0-0.5-0.2-0.5-0.5v-20c0-0.3,0.2-0.5,0.5-0.5h7.1
		c3.9,0,6.6,1.6,6.6,5.3v0.5c0,2-0.9,3.5-2.8,4.3C595.7,775.2,596.9,777.1,596.9,779.3z M584.5,773.3h5.5c2.2,0,4.2-0.7,4.2-3.2
		v-0.5c0-2.6-2.1-3.2-4.4-3.2h-5.2V773.3z M594.7,779.2c0-2.9-2.3-3.8-4.7-3.8h-5.5v7.7h5.5c2.3,0,4.7-0.7,4.7-3.6V779.2z"/>
	<path class="st1" d="M614.4,764.3h1.3c0.3,0,0.5,0.2,0.5,0.5v12.7c0,5-3.1,8.1-7.4,8.1s-7.4-3.1-7.4-8.1v-12.7
		c0-0.3,0.2-0.5,0.5-0.5h1.3c0.3,0,0.5,0.2,0.5,0.5v12.7c0,3.8,2.1,6,5.1,6c2.9,0,5.1-2.2,5.1-6v-12.7
		C613.9,764.5,614.1,764.3,614.4,764.3z"/>
	<path class="st1" d="M621.6,784.7v-20c0-0.3,0.2-0.5,0.5-0.5h1.3c0.3,0,0.5,0.2,0.5,0.5v20c0,0.3-0.2,0.5-0.5,0.5h-1.3
		C621.8,785.3,621.6,785,621.6,784.7z"/>
	<path class="st1" d="M642.2,785.3h-12.1c-0.3,0-0.5-0.2-0.5-0.5v-20c0-0.3,0.2-0.5,0.5-0.5h1.3c0.3,0,0.5,0.2,0.5,0.5v18.4h10.4
		c0.3,0,0.5,0.2,0.5,0.5v1.1C642.7,785,642.5,785.3,642.2,785.3z"/>
	<path class="st1" d="M646.7,784.7v-20c0-0.3,0.2-0.5,0.5-0.5h6.6c4.4,0,7.7,3.2,7.7,8.2v4.6c0,5-3.4,8.2-7.7,8.2h-6.6
		C646.9,785.3,646.7,785,646.7,784.7z M649,783.1h4.8c3,0,5.4-2.2,5.4-6.1v-4.6c0-3.8-2.4-6.1-5.4-6.1H649V783.1z"/>
	<path class="st1" d="M681,764c4.4,0,7.7,3.2,7.7,8.2v5.2c0,5-3.4,8.2-7.7,8.2c-4.4,0-7.7-3.2-7.7-8.2v-5.2
		C673.3,767.2,676.6,764,681,764z M681,783.4c3,0,5.4-2.2,5.4-6.1v-5.2c0-3.9-2.4-6.1-5.4-6.1s-5.4,2.2-5.4,6.1v5.2
		C675.6,781.2,678,783.4,681,783.4z"/>
	<path class="st1" d="M695.5,785.3h-1.3c-0.3,0-0.5-0.2-0.5-0.5v-20c0-0.3,0.2-0.5,0.5-0.5h7.2c3.8,0,6.5,2,6.5,6v0.4
		c0,2.6-1.4,4.8-4.5,5.7l4.3,8.1c0.1,0.2,0.1,0.3,0.1,0.4c0,0.2-0.1,0.3-0.3,0.3h-1.7c-0.3,0-0.4-0.2-0.5-0.4l-4.2-8.1h-5v8
		C696,785,695.8,785.3,695.5,785.3z M701.3,774.6c2.2,0,4.3-1.2,4.3-3.8v-0.5c0-3-2.1-3.9-4.3-3.9H696v8.2H701.3z"/>
	<path class="st1" d="M526.7,803.4h-10.2v7.2h8.2c0.3,0,0.5,0.2,0.5,0.5v1.1c0,0.3-0.2,0.5-0.5,0.5h-8.2v7.4h10.2
		c0.3,0,0.5,0.2,0.5,0.5v1.1c0,0.3-0.2,0.5-0.5,0.5h-11.9c-0.3,0-0.5-0.2-0.5-0.5v-20c0-0.3,0.2-0.5,0.5-0.5h11.9
		c0.3,0,0.5,0.2,0.5,0.5v1.1C527.2,803.2,527,803.4,526.7,803.4z"/>
	<path class="st1" d="M545.9,821.9c0,0.2-0.1,0.3-0.3,0.3H544c-0.4,0-0.6-0.2-0.8-0.4l-5.4-8.3l-5.4,8.3c-0.1,0.2-0.3,0.4-0.7,0.4
		h-1.4c-0.2,0-0.3-0.1-0.3-0.3c0-0.1,0.1-0.3,0.2-0.4l6.4-9.8l-6.2-9.5c-0.1-0.2-0.3-0.4-0.3-0.6c0-0.2,0.1-0.3,0.4-0.3h1.6
		c0.3,0,0.5,0.2,0.7,0.5l5.3,8.1l5.3-8.1c0.2-0.3,0.4-0.5,0.7-0.5h1.5c0.2,0,0.3,0.2,0.3,0.3s-0.1,0.4-0.2,0.5l-6.3,9.6l6.4,9.7
		C545.7,821.6,545.9,821.7,545.9,821.9z"/>
	<path class="st1" d="M557.5,814.4h-5.4v7.4c0,0.3-0.2,0.5-0.5,0.5h-1.3c-0.3,0-0.5-0.2-0.5-0.5v-20c0-0.3,0.2-0.5,0.5-0.5h7.2
		c3.8,0,6.5,2.1,6.5,6.1v0.6C564,811.9,561.3,814.4,557.5,814.4z M552.1,803.4v8.8h5.3c2.2,0,4.3-1.3,4.3-4.2v-0.6c0-3-2.1-4-4.3-4
		H552.1z"/>
	<path class="st1" d="M582.2,821.9c0,0.2-0.1,0.3-0.4,0.3h-1.5c-0.3,0-0.4-0.1-0.5-0.3l-1.9-5.3h-9.1l-1.9,5.3
		c-0.1,0.3-0.3,0.3-0.4,0.3H565c-0.2,0-0.4-0.1-0.4-0.3c0-0.1,0.1-0.4,0.2-0.6l7.1-19.6c0.1-0.3,0.2-0.5,0.5-0.5h1.7
		c0.3,0,0.5,0.2,0.5,0.5l7.3,19.8C582.1,821.6,582.2,821.8,582.2,821.9z M577.2,814.6l-3.8-10.7l-3.8,10.7H577.2z"/>
	<path class="st1" d="M601.2,801.8v20c0,0.3-0.2,0.5-0.5,0.5h-1c-0.2,0-0.5,0-0.8-0.6l-10.5-16.6v16.7c0,0.3-0.2,0.5-0.5,0.5h-1.2
		c-0.3,0-0.5-0.2-0.5-0.5v-20c0-0.3,0.2-0.5,0.5-0.5h1.5c0.3,0,0.5,0.2,0.6,0.4l10.3,16.3v-16.2c0-0.3,0.2-0.5,0.5-0.5h1.2
		C600.9,801.3,601.2,801.5,601.2,801.8z"/>
	<path class="st1" d="M617.9,806.4c-0.1-1.8-1-3.4-4.5-3.4c-2.7,0-4.6,0.7-4.6,3.5c0,6.1,11.9,2.3,11.9,10.2c0,4.3-3.7,5.8-7.2,5.8
		c-5.7,0-7.6-4-7.6-6.4c0-0.3,0.2-0.5,0.5-0.5h1.3c0.3,0,0.5,0.2,0.5,0.5c0.1,1.3,0.9,4.4,5.3,4.4c2.8,0,4.9-1,4.9-3.8
		c0-5.6-11.9-1.9-11.9-10.2c0-3.8,2.9-5.5,6.9-5.5c5.3,0,6.7,3.3,6.7,5.5c0,0.3-0.2,0.5-0.5,0.5h-1.3
		C618.1,806.9,617.9,806.7,617.9,806.4z"/>
	<path class="st1" d="M625.3,821.7v-20c0-0.3,0.2-0.5,0.5-0.5h1.3c0.3,0,0.5,0.2,0.5,0.5v20c0,0.3-0.2,0.5-0.5,0.5h-1.3
		C625.5,822.3,625.3,822,625.3,821.7z"/>
	<path class="st1" d="M640.3,801c4.4,0,7.7,3.2,7.7,8.2v5.2c0,5-3.4,8.2-7.7,8.2c-4.4,0-7.7-3.2-7.7-8.2v-5.2
		C632.6,804.2,635.9,801,640.3,801z M640.3,820.4c3,0,5.4-2.2,5.4-6.1v-5.2c0-3.9-2.4-6.1-5.4-6.1s-5.4,2.2-5.4,6.1v5.2
		C634.9,818.2,637.3,820.4,640.3,820.4z"/>
	<path class="st1" d="M668.1,801.8v20c0,0.3-0.2,0.5-0.5,0.5h-1c-0.2,0-0.5,0-0.8-0.6l-10.5-16.6v16.7c0,0.3-0.2,0.5-0.5,0.5h-1.2
		c-0.3,0-0.5-0.2-0.5-0.5v-20c0-0.3,0.2-0.5,0.5-0.5h1.5c0.3,0,0.5,0.2,0.6,0.4l10.3,16.3v-16.2c0-0.3,0.2-0.5,0.5-0.5h1.2
		C667.9,801.3,668.1,801.5,668.1,801.8z"/>
</g>
<g>
	<path class="st1" d="M823.2,741.6c-0.2,3.7-3.2,7-7.5,7c-4.4,0-7.7-3.2-7.7-8.2v-5.2c0-5,3.3-8.2,7.7-8.2c4.4,0,7.1,3,7.5,6.7
		c0,0.3-0.1,0.5-0.4,0.5h-1.5c-0.2,0-0.3-0.1-0.4-0.5c-0.4-2.5-2.2-4.6-5.2-4.6s-5.4,2.2-5.4,6.1v5.2c0,3.8,2.4,6.1,5.4,6.1
		c3,0,4.9-2,5.2-4.9c0-0.2,0.1-0.4,0.4-0.4h1.6C823,741.2,823.2,741.3,823.2,741.6z"/>
	<path class="st1" d="M835,727c4.4,0,7.7,3.2,7.7,8.2v5.2c0,5-3.4,8.2-7.7,8.2c-4.4,0-7.7-3.2-7.7-8.2v-5.2
		C827.3,730.2,830.6,727,835,727z M835,746.4c3,0,5.4-2.2,5.4-6.1v-5.2c0-3.9-2.4-6.1-5.4-6.1s-5.4,2.2-5.4,6.1v5.2
		C829.6,744.2,832,746.4,835,746.4z"/>
	<path class="st1" d="M862.8,727.8v20c0,0.3-0.2,0.5-0.5,0.5h-1c-0.2,0-0.5,0-0.8-0.6L850,731.1v16.7c0,0.3-0.2,0.5-0.5,0.5h-1.2
		c-0.3,0-0.5-0.2-0.5-0.5v-20c0-0.3,0.2-0.5,0.5-0.5h1.5c0.3,0,0.5,0.2,0.6,0.4l10.3,16.3v-16.2c0-0.3,0.2-0.5,0.5-0.5h1.2
		C862.6,727.3,862.8,727.5,862.8,727.8z"/>
	<path class="st1" d="M879.5,732.4c-0.1-1.8-1-3.4-4.5-3.4c-2.7,0-4.6,0.7-4.6,3.5c0,6.1,11.9,2.3,11.9,10.2c0,4.3-3.7,5.8-7.2,5.8
		c-5.7,0-7.6-4-7.6-6.4c0-0.3,0.2-0.5,0.5-0.5h1.3c0.3,0,0.5,0.2,0.5,0.5c0.1,1.3,0.9,4.4,5.3,4.4c2.8,0,4.9-1,4.9-3.8
		c0-5.6-11.9-1.9-11.9-10.2c0-3.8,2.9-5.5,6.9-5.5c5.3,0,6.7,3.3,6.7,5.5c0,0.3-0.2,0.5-0.5,0.5H880
		C879.7,732.9,879.5,732.7,879.5,732.4z"/>
	<path class="st1" d="M884.8,728.9v-1.1c0-0.3,0.2-0.5,0.5-0.5h14.9c0.3,0,0.5,0.2,0.5,0.5v1.1c0,0.3-0.2,0.5-0.5,0.5h-6.3v18.4
		c0,0.3-0.2,0.5-0.5,0.5h-1.3c-0.3,0-0.5-0.2-0.5-0.5v-18.4h-6.3C885,729.4,884.8,729.2,884.8,728.9z"/>
	<path class="st1" d="M906.2,748.3H905c-0.3,0-0.5-0.2-0.5-0.5v-20c0-0.3,0.2-0.5,0.5-0.5h7.2c3.8,0,6.5,2,6.5,6v0.4
		c0,2.6-1.4,4.8-4.5,5.7l4.3,8.1c0.1,0.2,0.1,0.3,0.1,0.4c0,0.2-0.1,0.3-0.3,0.3h-1.7c-0.3,0-0.4-0.2-0.5-0.4l-4.2-8.1h-5v8
		C906.7,748,906.5,748.3,906.2,748.3z M912,737.6c2.2,0,4.3-1.2,4.3-3.8v-0.5c0-3-2.1-3.9-4.3-3.9h-5.3v8.2H912z"/>
	<path class="st1" d="M936.1,727.3h1.3c0.3,0,0.5,0.2,0.5,0.5v12.7c0,5-3.1,8.1-7.4,8.1s-7.4-3.1-7.4-8.1v-12.7
		c0-0.3,0.2-0.5,0.5-0.5h1.3c0.3,0,0.5,0.2,0.5,0.5v12.7c0,3.8,2.1,6,5.1,6c2.9,0,5.1-2.2,5.1-6v-12.7
		C935.6,727.5,935.8,727.3,936.1,727.3z"/>
	<path class="st1" d="M957.8,741.6c-0.2,3.7-3.2,7-7.5,7c-4.4,0-7.7-3.2-7.7-8.2v-5.2c0-5,3.3-8.2,7.7-8.2c4.4,0,7.1,3,7.5,6.7
		c0,0.3-0.1,0.5-0.4,0.5h-1.5c-0.2,0-0.3-0.1-0.4-0.5c-0.4-2.5-2.2-4.6-5.2-4.6s-5.4,2.2-5.4,6.1v5.2c0,3.8,2.4,6.1,5.4,6.1
		c3,0,4.9-2,5.2-4.9c0-0.2,0.1-0.4,0.4-0.4h1.6C957.7,741.2,957.8,741.3,957.8,741.6z"/>
	<path class="st1" d="M960.4,728.9v-1.1c0-0.3,0.2-0.5,0.5-0.5h14.9c0.3,0,0.5,0.2,0.5,0.5v1.1c0,0.3-0.2,0.5-0.5,0.5h-6.3v18.4
		c0,0.3-0.2,0.5-0.5,0.5h-1.3c-0.3,0-0.5-0.2-0.5-0.5v-18.4h-6.3C960.6,729.4,960.4,729.2,960.4,728.9z"/>
	<path class="st1" d="M980,747.7v-20c0-0.3,0.2-0.5,0.5-0.5h1.3c0.3,0,0.5,0.2,0.5,0.5v20c0,0.3-0.2,0.5-0.5,0.5h-1.3
		C980.2,748.3,980,748,980,747.7z"/>
	<path class="st1" d="M995,727c4.4,0,7.7,3.2,7.7,8.2v5.2c0,5-3.4,8.2-7.7,8.2c-4.4,0-7.7-3.2-7.7-8.2v-5.2
		C987.3,730.2,990.7,727,995,727z M995,746.4c3,0,5.4-2.2,5.4-6.1v-5.2c0-3.9-2.4-6.1-5.4-6.1s-5.4,2.2-5.4,6.1v5.2
		C989.6,744.2,992,746.4,995,746.4z"/>
	<path class="st1" d="M1022.8,727.8v20c0,0.3-0.2,0.5-0.5,0.5h-1c-0.2,0-0.5,0-0.8-0.6l-10.5-16.6v16.7c0,0.3-0.2,0.5-0.5,0.5h-1.2
		c-0.3,0-0.5-0.2-0.5-0.5v-20c0-0.3,0.2-0.5,0.5-0.5h1.5c0.3,0,0.5,0.2,0.6,0.4l10.3,16.3v-16.2c0-0.3,0.2-0.5,0.5-0.5h1.2
		C1022.6,727.3,1022.8,727.5,1022.8,727.8z"/>
	<path class="st1" d="M836.3,764.8v20c0,0.3-0.2,0.5-0.5,0.5h-1.2c-0.3,0-0.5-0.2-0.5-0.5v-17.3l-6.7,17.4c-0.1,0.2-0.3,0.4-0.5,0.4
		h-1.2c-0.3,0-0.4-0.1-0.5-0.3l-6.7-17.5v17.3c0,0.3-0.2,0.5-0.5,0.5h-1.2c-0.3,0-0.5-0.2-0.5-0.5v-20c0-0.3,0.2-0.5,0.5-0.5h2.4
		c0.2,0,0.4,0.1,0.4,0.3l6.6,17.5l6.7-17.5c0.1-0.2,0.2-0.3,0.4-0.3h2.3C836.1,764.3,836.3,764.5,836.3,764.8z"/>
	<path class="st1" d="M857.7,784.9c0,0.2-0.1,0.3-0.4,0.3h-1.5c-0.3,0-0.4-0.1-0.5-0.3l-1.9-5.3h-9.1l-1.9,5.3
		c-0.1,0.3-0.3,0.3-0.4,0.3h-1.5c-0.2,0-0.4-0.1-0.4-0.3c0-0.1,0.1-0.4,0.2-0.6l7.1-19.6c0.1-0.3,0.2-0.5,0.5-0.5h1.7
		c0.3,0,0.5,0.2,0.5,0.5l7.3,19.8C857.7,784.6,857.7,784.8,857.7,784.9z M852.7,777.6l-3.8-10.7l-3.8,10.7H852.7z"/>
	<path class="st1" d="M876.7,764.8v20c0,0.3-0.2,0.5-0.5,0.5h-1c-0.2,0-0.5,0-0.8-0.6l-10.5-16.6v16.7c0,0.3-0.2,0.5-0.5,0.5h-1.2
		c-0.3,0-0.5-0.2-0.5-0.5v-20c0-0.3,0.2-0.5,0.5-0.5h1.5c0.3,0,0.5,0.2,0.6,0.4l10.3,16.3v-16.2c0-0.3,0.2-0.5,0.5-0.5h1.2
		C876.5,764.3,876.7,764.5,876.7,764.8z"/>
	<path class="st1" d="M898.1,784.9c0,0.2-0.1,0.3-0.4,0.3h-1.5c-0.3,0-0.4-0.1-0.5-0.3l-1.9-5.3h-9.1l-1.9,5.3
		c-0.1,0.3-0.3,0.3-0.4,0.3H881c-0.2,0-0.4-0.1-0.4-0.3c0-0.1,0.1-0.4,0.2-0.6l7.1-19.6c0.1-0.3,0.2-0.5,0.5-0.5h1.7
		c0.3,0,0.5,0.2,0.5,0.5l7.3,19.8C898,784.6,898.1,784.8,898.1,784.9z M893.1,777.6l-3.8-10.7l-3.8,10.7H893.1z"/>
	<path class="st1" d="M908.2,776.2v-1.1c0-0.3,0.2-0.5,0.5-0.5h6.8c0.3,0,0.5,0.2,0.5,0.5v9.7c0,0.3-0.2,0.5-0.5,0.5h-1
		c-0.3,0-0.5-0.2-0.5-0.5v-2.1c-1,1.8-3.1,2.9-5.5,2.9c-4.8,0-7.6-3.7-7.6-8.2v-5.2c0-5,3.3-8.2,7.7-8.2c4.4,0,6.9,2.9,7.5,6.4
		c0.1,0.2,0.1,0.4,0.1,0.5c0,0.2-0.1,0.3-0.3,0.3h-1.6c-0.2,0-0.4-0.1-0.4-0.5c-0.3-2.2-2-4.6-5.2-4.6c-3,0-5.4,2.2-5.4,6.1v5.2
		c0,3.8,2.5,6.1,5.5,6.1c3.8,0,5.3-3.1,5.3-5.2v-1.6h-5.2C908.4,776.7,908.2,776.5,908.2,776.2z"/>
	<path class="st1" d="M934,766.4h-10.2v7.2h8.2c0.3,0,0.5,0.2,0.5,0.5v1.1c0,0.3-0.2,0.5-0.5,0.5h-8.2v7.4H934
		c0.3,0,0.5,0.2,0.5,0.5v1.1c0,0.3-0.2,0.5-0.5,0.5h-11.9c-0.3,0-0.5-0.2-0.5-0.5v-20c0-0.3,0.2-0.5,0.5-0.5H934
		c0.3,0,0.5,0.2,0.5,0.5v1.1C934.5,766.2,934.3,766.4,934,766.4z"/>
	<path class="st1" d="M959,764.8v20c0,0.3-0.2,0.5-0.5,0.5h-1.2c-0.3,0-0.5-0.2-0.5-0.5v-17.3l-6.7,17.4c-0.1,0.2-0.3,0.4-0.5,0.4
		h-1.2c-0.3,0-0.4-0.1-0.5-0.3l-6.7-17.5v17.3c0,0.3-0.2,0.5-0.5,0.5h-1.2c-0.3,0-0.5-0.2-0.5-0.5v-20c0-0.3,0.2-0.5,0.5-0.5h2.4
		c0.2,0,0.4,0.1,0.4,0.3l6.6,17.5l6.7-17.5c0.1-0.2,0.2-0.3,0.4-0.3h2.3C958.8,764.3,959,764.5,959,764.8z"/>
	<path class="st1" d="M977.2,766.4H967v7.2h8.2c0.3,0,0.5,0.2,0.5,0.5v1.1c0,0.3-0.2,0.5-0.5,0.5H967v7.4h10.2
		c0.3,0,0.5,0.2,0.5,0.5v1.1c0,0.3-0.2,0.5-0.5,0.5h-11.9c-0.3,0-0.5-0.2-0.5-0.5v-20c0-0.3,0.2-0.5,0.5-0.5h11.9
		c0.3,0,0.5,0.2,0.5,0.5v1.1C977.7,766.2,977.5,766.4,977.2,766.4z"/>
	<path class="st1" d="M997.3,764.8v20c0,0.3-0.2,0.5-0.5,0.5h-1c-0.2,0-0.5,0-0.8-0.6l-10.5-16.6v16.7c0,0.3-0.2,0.5-0.5,0.5h-1.2
		c-0.3,0-0.5-0.2-0.5-0.5v-20c0-0.3,0.2-0.5,0.5-0.5h1.5c0.3,0,0.5,0.2,0.6,0.4l10.3,16.3v-16.2c0-0.3,0.2-0.5,0.5-0.5h1.2
		C997.1,764.3,997.3,764.5,997.3,764.8z"/>
	<path class="st1" d="M1001.1,765.9v-1.1c0-0.3,0.2-0.5,0.5-0.5h14.9c0.3,0,0.5,0.2,0.5,0.5v1.1c0,0.3-0.2,0.5-0.5,0.5h-6.3v18.4
		c0,0.3-0.2,0.5-0.5,0.5h-1.3c-0.3,0-0.5-0.2-0.5-0.5v-18.4h-6.3C1001.3,766.4,1001.1,766.2,1001.1,765.9z"/>
</g>
<g>
	<path class="st1" d="M1126.5,739.2v-1.1c0-0.3,0.2-0.5,0.5-0.5h6.8c0.3,0,0.5,0.2,0.5,0.5v9.7c0,0.3-0.2,0.5-0.5,0.5h-1
		c-0.3,0-0.5-0.2-0.5-0.5v-2.1c-1,1.8-3.1,2.9-5.5,2.9c-4.8,0-7.6-3.7-7.6-8.2v-5.2c0-5,3.3-8.2,7.7-8.2c4.4,0,6.9,2.9,7.5,6.4
		c0.1,0.2,0.1,0.4,0.1,0.5c0,0.2-0.1,0.3-0.3,0.3h-1.6c-0.2,0-0.4-0.1-0.4-0.5c-0.3-2.2-2-4.6-5.2-4.6c-3,0-5.4,2.2-5.4,6.1v5.2
		c0,3.8,2.5,6.1,5.5,6.1c3.8,0,5.3-3.1,5.3-5.2v-1.6h-5.2C1126.7,739.7,1126.5,739.5,1126.5,739.2z"/>
	<path class="st1" d="M1152.3,729.4h-10.2v7.2h8.2c0.3,0,0.5,0.2,0.5,0.5v1.1c0,0.3-0.2,0.5-0.5,0.5h-8.2v7.4h10.2
		c0.3,0,0.5,0.2,0.5,0.5v1.1c0,0.3-0.2,0.5-0.5,0.5h-11.9c-0.3,0-0.5-0.2-0.5-0.5v-20c0-0.3,0.2-0.5,0.5-0.5h11.9
		c0.3,0,0.5,0.2,0.5,0.5v1.1C1152.8,729.2,1152.6,729.4,1152.3,729.4z"/>
	<path class="st1" d="M1172.5,727.8v20c0,0.3-0.2,0.5-0.5,0.5h-1c-0.2,0-0.5,0-0.8-0.6l-10.5-16.6v16.7c0,0.3-0.2,0.5-0.5,0.5h-1.2
		c-0.3,0-0.5-0.2-0.5-0.5v-20c0-0.3,0.2-0.5,0.5-0.5h1.5c0.3,0,0.5,0.2,0.6,0.4l10.3,16.3v-16.2c0-0.3,0.2-0.5,0.5-0.5h1.2
		C1172.2,727.3,1172.5,727.5,1172.5,727.8z"/>
	<path class="st1" d="M1190.6,729.4h-10.2v7.2h8.2c0.3,0,0.5,0.2,0.5,0.5v1.1c0,0.3-0.2,0.5-0.5,0.5h-8.2v7.4h10.2
		c0.3,0,0.5,0.2,0.5,0.5v1.1c0,0.3-0.2,0.5-0.5,0.5h-11.9c-0.3,0-0.5-0.2-0.5-0.5v-20c0-0.3,0.2-0.5,0.5-0.5h11.9
		c0.3,0,0.5,0.2,0.5,0.5v1.1C1191.1,729.2,1190.9,729.4,1190.6,729.4z"/>
	<path class="st1" d="M1193.7,728.9v-1.1c0-0.3,0.2-0.5,0.5-0.5h14.9c0.3,0,0.5,0.2,0.5,0.5v1.1c0,0.3-0.2,0.5-0.5,0.5h-6.3v18.4
		c0,0.3-0.2,0.5-0.5,0.5h-1.3c-0.3,0-0.5-0.2-0.5-0.5v-18.4h-6.3C1194,729.4,1193.7,729.2,1193.7,728.9z"/>
	<path class="st1" d="M1213.4,747.7v-20c0-0.3,0.2-0.5,0.5-0.5h1.3c0.3,0,0.5,0.2,0.5,0.5v20c0,0.3-0.2,0.5-0.5,0.5h-1.3
		C1213.6,748.3,1213.4,748,1213.4,747.7z"/>
	<path class="st1" d="M1235.9,741.6c-0.2,3.7-3.2,7-7.5,7c-4.4,0-7.7-3.2-7.7-8.2v-5.2c0-5,3.3-8.2,7.7-8.2c4.4,0,7.1,3,7.5,6.7
		c0,0.3-0.1,0.5-0.4,0.5h-1.5c-0.2,0-0.3-0.1-0.4-0.5c-0.4-2.5-2.2-4.6-5.2-4.6s-5.4,2.2-5.4,6.1v5.2c0,3.8,2.4,6.1,5.4,6.1
		c3,0,4.9-2,5.2-4.9c0-0.2,0.1-0.4,0.4-0.4h1.6C1235.8,741.2,1235.9,741.3,1235.9,741.6z"/>
	<path class="st1" d="M1251.8,732.4c-0.1-1.8-1-3.4-4.5-3.4c-2.7,0-4.6,0.7-4.6,3.5c0,6.1,11.9,2.3,11.9,10.2c0,4.3-3.7,5.8-7.2,5.8
		c-5.7,0-7.6-4-7.6-6.4c0-0.3,0.2-0.5,0.5-0.5h1.3c0.3,0,0.5,0.2,0.5,0.5c0.1,1.3,0.9,4.4,5.3,4.4c2.8,0,4.9-1,4.9-3.8
		c0-5.6-11.9-1.9-11.9-10.2c0-3.8,2.9-5.5,6.9-5.5c5.3,0,6.7,3.3,6.7,5.5c0,0.3-0.2,0.5-0.5,0.5h-1.3
		C1252,732.9,1251.8,732.7,1251.8,732.4z"/>
	<path class="st1" d="M1272.7,748.6c-5.1,0-6.8-3.1-6.8-5.6c0-2.9,1.8-4.5,4-5.9c-1-1.2-2.5-2.9-2.5-5.2c0-3.7,3-4.9,5.5-4.9
		c3.2,0,5.1,2.2,5.1,4.8c0,2.9-2.5,4.3-5,5.7l4.9,5.5c0.8-1.7,0.9-3.8,0.9-4.9c0-0.3,0.2-0.5,0.5-0.5h1.1c0.3,0,0.5,0.2,0.5,0.5
		c0,1.3-0.2,4.2-1.5,6.7l2.4,2.7c0.1,0.1,0.3,0.3,0.3,0.5c0,0.2-0.1,0.3-0.3,0.3h-1.7c-0.2,0-0.3-0.1-0.5-0.2l-1.5-1.7
		C1276.8,747.7,1275.1,748.6,1272.7,748.6z M1271.2,738.5c-1.8,1.1-3.1,2.3-3.1,4.3c0,1.8,1.2,3.6,4.6,3.6c1.8,0,3.1-0.7,4.1-1.7
		L1271.2,738.5z M1275.8,731.8c0-2-1.4-2.8-2.9-2.8c-2.5,0-3.3,1.4-3.3,2.9c0,1.4,0.6,2.5,2.1,4.2
		C1273.8,734.8,1275.8,733.8,1275.8,731.8z"/>
	<path class="st1" d="M1127.8,778.6c-0.2,3.7-3.2,7-7.5,7c-4.4,0-7.7-3.2-7.7-8.2v-5.2c0-5,3.3-8.2,7.7-8.2c4.4,0,7.1,3,7.5,6.7
		c0,0.3-0.1,0.5-0.4,0.5h-1.5c-0.2,0-0.3-0.1-0.4-0.5c-0.4-2.5-2.2-4.6-5.2-4.6s-5.4,2.2-5.4,6.1v5.2c0,3.8,2.4,6.1,5.4,6.1
		c3,0,4.9-2,5.2-4.9c0-0.2,0.1-0.4,0.4-0.4h1.6C1127.6,778.2,1127.8,778.3,1127.8,778.6z"/>
	<path class="st1" d="M1145.3,764.3h1.3c0.3,0,0.5,0.2,0.5,0.5v12.7c0,5-3.1,8.1-7.4,8.1s-7.4-3.1-7.4-8.1v-12.7
		c0-0.3,0.2-0.5,0.5-0.5h1.3c0.3,0,0.5,0.2,0.5,0.5v12.7c0,3.8,2.1,6,5.1,6c2.9,0,5.1-2.2,5.1-6v-12.7
		C1144.8,764.5,1145,764.3,1145.3,764.3z"/>
	<path class="st1" d="M1165.2,785.3H1153c-0.3,0-0.5-0.2-0.5-0.5v-20c0-0.3,0.2-0.5,0.5-0.5h1.3c0.3,0,0.5,0.2,0.5,0.5v18.4h10.4
		c0.3,0,0.5,0.2,0.5,0.5v1.1C1165.7,785,1165.5,785.3,1165.2,785.3z"/>
	<path class="st1" d="M1164.8,765.9v-1.1c0-0.3,0.2-0.5,0.5-0.5h14.9c0.3,0,0.5,0.2,0.5,0.5v1.1c0,0.3-0.2,0.5-0.5,0.5h-6.3v18.4
		c0,0.3-0.2,0.5-0.5,0.5h-1.3c-0.3,0-0.5-0.2-0.5-0.5v-18.4h-6.3C1165,766.4,1164.8,766.2,1164.8,765.9z"/>
	<path class="st1" d="M1184.5,784.7v-20c0-0.3,0.2-0.5,0.5-0.5h1.3c0.3,0,0.5,0.2,0.5,0.5v20c0,0.3-0.2,0.5-0.5,0.5h-1.3
		C1184.7,785.3,1184.5,785,1184.5,784.7z"/>
	<path class="st1" d="M1208,764.6c0,0.1-0.1,0.4-0.1,0.6l-7.3,19.7c-0.1,0.2-0.2,0.4-0.5,0.4h-1.6c-0.2,0-0.4-0.1-0.5-0.4l-7.3-19.9
		c0-0.1-0.1-0.3-0.1-0.4c0-0.2,0.1-0.3,0.3-0.3h1.5c0.3,0,0.5,0.2,0.6,0.6l6.3,17.6l6.4-17.7c0.1-0.3,0.2-0.5,0.5-0.5h1.5
		C1207.9,764.3,1208,764.4,1208,764.6z"/>
	<path class="st1" d="M1225.2,784.9c0,0.2-0.1,0.3-0.4,0.3h-1.5c-0.3,0-0.4-0.1-0.5-0.3l-1.9-5.3h-9.1l-1.9,5.3
		c-0.1,0.3-0.3,0.3-0.4,0.3h-1.5c-0.2,0-0.4-0.1-0.4-0.3c0-0.1,0.1-0.4,0.2-0.6l7.1-19.6c0.1-0.3,0.2-0.5,0.5-0.5h1.7
		c0.3,0,0.5,0.2,0.5,0.5l7.3,19.8C1225.1,784.6,1225.2,784.8,1225.2,784.9z M1220.2,777.6l-3.8-10.7l-3.8,10.7H1220.2z"/>
	<path class="st1" d="M1224.6,765.9v-1.1c0-0.3,0.2-0.5,0.5-0.5h14.9c0.3,0,0.5,0.2,0.5,0.5v1.1c0,0.3-0.2,0.5-0.5,0.5h-6.3v18.4
		c0,0.3-0.2,0.5-0.5,0.5h-1.3c-0.3,0-0.5-0.2-0.5-0.5v-18.4h-6.3C1224.8,766.4,1224.6,766.2,1224.6,765.9z"/>
	<path class="st1" d="M1244.3,784.7v-20c0-0.3,0.2-0.5,0.5-0.5h1.3c0.3,0,0.5,0.2,0.5,0.5v20c0,0.3-0.2,0.5-0.5,0.5h-1.3
		C1244.5,785.3,1244.3,785,1244.3,784.7z"/>
	<path class="st1" d="M1259.2,764c4.4,0,7.7,3.2,7.7,8.2v5.2c0,5-3.4,8.2-7.7,8.2c-4.4,0-7.7-3.2-7.7-8.2v-5.2
		C1251.5,767.2,1254.9,764,1259.2,764z M1259.3,783.4c3,0,5.4-2.2,5.4-6.1v-5.2c0-3.9-2.4-6.1-5.4-6.1s-5.4,2.2-5.4,6.1v5.2
		C1253.8,781.2,1256.3,783.4,1259.3,783.4z"/>
	<path class="st1" d="M1287.1,764.8v20c0,0.3-0.2,0.5-0.5,0.5h-1c-0.2,0-0.5,0-0.8-0.6l-10.5-16.6v16.7c0,0.3-0.2,0.5-0.5,0.5h-1.2
		c-0.3,0-0.5-0.2-0.5-0.5v-20c0-0.3,0.2-0.5,0.5-0.5h1.5c0.3,0,0.5,0.2,0.6,0.4l10.3,16.3v-16.2c0-0.3,0.2-0.5,0.5-0.5h1.2
		C1286.8,764.3,1287.1,764.5,1287.1,764.8z"/>
	<path class="st1" d="M1139.5,803.4h-10.2v7.2h8.2c0.3,0,0.5,0.2,0.5,0.5v1.1c0,0.3-0.2,0.5-0.5,0.5h-8.2v7.4h10.2
		c0.3,0,0.5,0.2,0.5,0.5v1.1c0,0.3-0.2,0.5-0.5,0.5h-11.9c-0.3,0-0.5-0.2-0.5-0.5v-20c0-0.3,0.2-0.5,0.5-0.5h11.9
		c0.3,0,0.5,0.2,0.5,0.5v1.1C1140,803.2,1139.8,803.4,1139.5,803.4z"/>
	<path class="st1" d="M1158.7,821.9c0,0.2-0.1,0.3-0.3,0.3h-1.6c-0.4,0-0.6-0.2-0.8-0.4l-5.4-8.3l-5.4,8.3c-0.1,0.2-0.3,0.4-0.7,0.4
		h-1.4c-0.2,0-0.3-0.1-0.3-0.3c0-0.1,0.1-0.3,0.2-0.4l6.4-9.8l-6.2-9.5c-0.1-0.2-0.3-0.4-0.3-0.6c0-0.2,0.1-0.3,0.4-0.3h1.6
		c0.3,0,0.5,0.2,0.7,0.5l5.3,8.1l5.3-8.1c0.2-0.3,0.4-0.5,0.7-0.5h1.5c0.2,0,0.3,0.2,0.3,0.3s-0.1,0.4-0.2,0.5l-6.3,9.6l6.4,9.7
		C1158.5,821.6,1158.7,821.7,1158.7,821.9z"/>
	<path class="st1" d="M1170.3,814.4h-5.4v7.4c0,0.3-0.2,0.5-0.5,0.5h-1.3c-0.3,0-0.5-0.2-0.5-0.5v-20c0-0.3,0.2-0.5,0.5-0.5h7.2
		c3.8,0,6.5,2.1,6.5,6.1v0.6C1176.8,811.9,1174.1,814.4,1170.3,814.4z M1164.9,803.4v8.8h5.3c2.2,0,4.3-1.3,4.3-4.2v-0.6
		c0-3-2.1-4-4.3-4H1164.9z"/>
	<path class="st1" d="M1193.6,803.4h-10.2v7.2h8.2c0.3,0,0.5,0.2,0.5,0.5v1.1c0,0.3-0.2,0.5-0.5,0.5h-8.2v7.4h10.2
		c0.3,0,0.5,0.2,0.5,0.5v1.1c0,0.3-0.2,0.5-0.5,0.5h-11.9c-0.3,0-0.5-0.2-0.5-0.5v-20c0-0.3,0.2-0.5,0.5-0.5h11.9
		c0.3,0,0.5,0.2,0.5,0.5v1.1C1194.1,803.2,1193.9,803.4,1193.6,803.4z"/>
	<path class="st1" d="M1200.4,822.3h-1.3c-0.3,0-0.5-0.2-0.5-0.5v-20c0-0.3,0.2-0.5,0.5-0.5h7.2c3.8,0,6.5,2,6.5,6v0.4
		c0,2.6-1.4,4.8-4.5,5.7l4.3,8.1c0.1,0.2,0.1,0.3,0.1,0.4c0,0.2-0.1,0.3-0.3,0.3h-1.7c-0.3,0-0.4-0.2-0.5-0.4l-4.2-8.1h-5v8
		C1200.9,822,1200.7,822.3,1200.4,822.3z M1206.2,811.6c2.2,0,4.3-1.2,4.3-3.8v-0.5c0-3-2.1-3.9-4.3-3.9h-5.3v8.2H1206.2z"/>
	<path class="st1" d="M1215.4,802.9v-1.1c0-0.3,0.2-0.5,0.5-0.5h14.9c0.3,0,0.5,0.2,0.5,0.5v1.1c0,0.3-0.2,0.5-0.5,0.5h-6.3v18.4
		c0,0.3-0.2,0.5-0.5,0.5h-1.3c-0.3,0-0.5-0.2-0.5-0.5v-18.4h-6.3C1215.6,803.4,1215.4,803.2,1215.4,802.9z"/>
	<path class="st1" d="M1235.1,821.7v-20c0-0.3,0.2-0.5,0.5-0.5h1.3c0.3,0,0.5,0.2,0.5,0.5v20c0,0.3-0.2,0.5-0.5,0.5h-1.3
		C1235.3,822.3,1235.1,822,1235.1,821.7z"/>
	<path class="st1" d="M1254,806.4c-0.1-1.8-1-3.4-4.5-3.4c-2.7,0-4.6,0.7-4.6,3.5c0,6.1,11.9,2.3,11.9,10.2c0,4.3-3.7,5.8-7.2,5.8
		c-5.7,0-7.6-4-7.6-6.4c0-0.3,0.2-0.5,0.5-0.5h1.3c0.3,0,0.5,0.2,0.5,0.5c0.1,1.3,0.9,4.4,5.3,4.4c2.8,0,4.9-1,4.9-3.8
		c0-5.6-11.9-1.9-11.9-10.2c0-3.8,2.9-5.5,6.9-5.5c5.3,0,6.7,3.3,6.7,5.5c0,0.3-0.2,0.5-0.5,0.5h-1.3
		C1254.2,806.9,1254,806.7,1254,806.4z"/>
	<path class="st1" d="M1273.9,803.4h-10.2v7.2h8.2c0.3,0,0.5,0.2,0.5,0.5v1.1c0,0.3-0.2,0.5-0.5,0.5h-8.2v7.4h10.2
		c0.3,0,0.5,0.2,0.5,0.5v1.1c0,0.3-0.2,0.5-0.5,0.5H1262c-0.3,0-0.5-0.2-0.5-0.5v-20c0-0.3,0.2-0.5,0.5-0.5h11.9
		c0.3,0,0.5,0.2,0.5,0.5v1.1C1274.4,803.2,1274.2,803.4,1273.9,803.4z"/>
</g>
<g>
	<path class="st1" d="M1745.6,742.3v0.4c0,4.3-3.5,5.6-7.1,5.6h-7.2c-0.3,0-0.5-0.2-0.5-0.5v-20c0-0.3,0.2-0.5,0.5-0.5h7.1
		c3.9,0,6.6,1.6,6.6,5.3v0.5c0,2-0.9,3.5-2.8,4.3C1744.4,738.2,1745.6,740.1,1745.6,742.3z M1733.1,736.3h5.5c2.2,0,4.2-0.7,4.2-3.2
		v-0.5c0-2.6-2.1-3.2-4.4-3.2h-5.2V736.3z M1743.3,742.2c0-2.9-2.3-3.8-4.7-3.8h-5.5v7.7h5.5c2.3,0,4.7-0.7,4.7-3.6V742.2z"/>
	<path class="st1" d="M1752.1,748.3h-1.3c-0.3,0-0.5-0.2-0.5-0.5v-20c0-0.3,0.2-0.5,0.5-0.5h7.2c3.8,0,6.5,2,6.5,6v0.4
		c0,2.6-1.4,4.8-4.5,5.7l4.3,8.1c0.1,0.2,0.1,0.3,0.1,0.4c0,0.2-0.1,0.3-0.3,0.3h-1.7c-0.3,0-0.4-0.2-0.5-0.4l-4.2-8.1h-5v8
		C1752.6,748,1752.4,748.3,1752.1,748.3z M1757.9,737.6c2.2,0,4.3-1.2,4.3-3.8v-0.5c0-3-2.1-3.9-4.3-3.9h-5.3v8.2H1757.9z"/>
	<path class="st1" d="M1784.8,747.9c0,0.2-0.1,0.3-0.4,0.3h-1.5c-0.3,0-0.4-0.1-0.5-0.3l-1.9-5.3h-9.1l-1.9,5.3
		c-0.1,0.3-0.3,0.3-0.4,0.3h-1.5c-0.2,0-0.4-0.1-0.4-0.3c0-0.1,0.1-0.4,0.2-0.6l7.1-19.6c0.1-0.3,0.2-0.5,0.5-0.5h1.7
		c0.3,0,0.5,0.2,0.5,0.5l7.3,19.8C1784.7,747.6,1784.8,747.8,1784.8,747.9z M1779.8,740.6l-3.8-10.7l-3.8,10.7H1779.8z"/>
	<path class="st1" d="M1803.8,727.8v20c0,0.3-0.2,0.5-0.5,0.5h-1c-0.2,0-0.5,0-0.8-0.6l-10.5-16.6v16.7c0,0.3-0.2,0.5-0.5,0.5h-1.2
		c-0.3,0-0.5-0.2-0.5-0.5v-20c0-0.3,0.2-0.5,0.5-0.5h1.5c0.3,0,0.5,0.2,0.6,0.4l10.3,16.3v-16.2c0-0.3,0.2-0.5,0.5-0.5h1.2
		C1803.6,727.3,1803.8,727.5,1803.8,727.8z"/>
	<path class="st1" d="M1809.5,747.7v-20c0-0.3,0.2-0.5,0.5-0.5h6.6c4.3,0,7.7,3.2,7.7,8.2v4.6c0,5-3.4,8.2-7.7,8.2h-6.6
		C1809.7,748.3,1809.5,748,1809.5,747.7z M1811.8,746.1h4.8c3,0,5.4-2.2,5.4-6.1v-4.6c0-3.8-2.4-6.1-5.4-6.1h-4.8V746.1z"/>
	<path class="st1" d="M1851.6,742.3v0.4c0,4.3-3.4,5.6-7.1,5.6h-7.2c-0.3,0-0.5-0.2-0.5-0.5v-20c0-0.3,0.2-0.5,0.5-0.5h7.1
		c3.9,0,6.6,1.6,6.6,5.3v0.5c0,2-0.9,3.5-2.8,4.3C1850.4,738.2,1851.6,740.1,1851.6,742.3z M1839.1,736.3h5.5c2.2,0,4.2-0.7,4.2-3.2
		v-0.5c0-2.6-2.1-3.2-4.4-3.2h-5.2V736.3z M1849.3,742.2c0-2.9-2.3-3.8-4.7-3.8h-5.5v7.7h5.5c2.3,0,4.7-0.7,4.7-3.6V742.2z"/>
	<path class="st1" d="M1869,727.3h1.3c0.3,0,0.5,0.2,0.5,0.5v12.7c0,5-3.1,8.1-7.4,8.1c-4.3,0-7.4-3.1-7.4-8.1v-12.7
		c0-0.3,0.2-0.5,0.5-0.5h1.3c0.3,0,0.5,0.2,0.5,0.5v12.7c0,3.8,2.1,6,5.1,6c2.9,0,5.1-2.2,5.1-6v-12.7
		C1868.5,727.5,1868.7,727.3,1869,727.3z"/>
	<path class="st1" d="M1876.2,747.7v-20c0-0.3,0.2-0.5,0.5-0.5h1.3c0.3,0,0.5,0.2,0.5,0.5v20c0,0.3-0.2,0.5-0.5,0.5h-1.3
		C1876.4,748.3,1876.2,748,1876.2,747.7z"/>
	<path class="st1" d="M1896.8,748.3h-12.1c-0.3,0-0.5-0.2-0.5-0.5v-20c0-0.3,0.2-0.5,0.5-0.5h1.3c0.3,0,0.5,0.2,0.5,0.5v18.4h10.4
		c0.3,0,0.5,0.2,0.5,0.5v1.1C1897.3,748,1897.1,748.3,1896.8,748.3z"/>
	<path class="st1" d="M1901.3,747.7v-20c0-0.3,0.2-0.5,0.5-0.5h6.6c4.4,0,7.7,3.2,7.7,8.2v4.6c0,5-3.4,8.2-7.7,8.2h-6.6
		C1901.5,748.3,1901.3,748,1901.3,747.7z M1903.6,746.1h4.8c3,0,5.4-2.2,5.4-6.1v-4.6c0-3.8-2.4-6.1-5.4-6.1h-4.8V746.1z"/>
	<path class="st1" d="M1921.1,747.7v-20c0-0.3,0.2-0.5,0.5-0.5h1.3c0.3,0,0.5,0.2,0.5,0.5v20c0,0.3-0.2,0.5-0.5,0.5h-1.3
		C1921.3,748.3,1921.1,748,1921.1,747.7z"/>
	<path class="st1" d="M1944.2,727.8v20c0,0.3-0.2,0.5-0.5,0.5h-1c-0.2,0-0.5,0-0.8-0.6l-10.5-16.6v16.7c0,0.3-0.2,0.5-0.5,0.5h-1.2
		c-0.3,0-0.5-0.2-0.5-0.5v-20c0-0.3,0.2-0.5,0.5-0.5h1.5c0.3,0,0.5,0.2,0.6,0.4l10.3,16.3v-16.2c0-0.3,0.2-0.5,0.5-0.5h1.2
		C1944,727.3,1944.2,727.5,1944.2,727.8z"/>
	<path class="st1" d="M1956.6,739.2v-1.1c0-0.3,0.2-0.5,0.5-0.5h6.8c0.3,0,0.5,0.2,0.5,0.5v9.7c0,0.3-0.2,0.5-0.5,0.5h-1
		c-0.3,0-0.5-0.2-0.5-0.5v-2.1c-1,1.8-3.1,2.9-5.5,2.9c-4.8,0-7.6-3.7-7.6-8.2v-5.2c0-5,3.3-8.2,7.7-8.2c4.4,0,6.9,2.9,7.5,6.4
		c0.1,0.2,0.1,0.4,0.1,0.5c0,0.2-0.1,0.3-0.3,0.3h-1.6c-0.2,0-0.4-0.1-0.4-0.5c-0.3-2.2-2-4.6-5.2-4.6c-3,0-5.4,2.2-5.4,6.1v5.2
		c0,3.8,2.5,6.1,5.5,6.1c3.8,0,5.3-3.1,5.3-5.2v-1.6h-5.2C1956.8,739.7,1956.6,739.5,1956.6,739.2z"/>
	<path class="st1" d="M1786.9,766.4h-10.2v7.2h8.2c0.3,0,0.5,0.2,0.5,0.5v1.1c0,0.3-0.2,0.5-0.5,0.5h-8.2v7.4h10.2
		c0.3,0,0.5,0.2,0.5,0.5v1.1c0,0.3-0.2,0.5-0.5,0.5H1775c-0.3,0-0.5-0.2-0.5-0.5v-20c0-0.3,0.2-0.5,0.5-0.5h11.9
		c0.3,0,0.5,0.2,0.5,0.5v1.1C1787.4,766.2,1787.2,766.4,1786.9,766.4z"/>
	<path class="st1" d="M1806.1,784.9c0,0.2-0.1,0.3-0.3,0.3h-1.6c-0.4,0-0.6-0.2-0.8-0.4l-5.4-8.3l-5.4,8.3c-0.1,0.2-0.3,0.4-0.7,0.4
		h-1.4c-0.2,0-0.3-0.1-0.3-0.3c0-0.1,0.1-0.3,0.2-0.4l6.4-9.8l-6.2-9.5c-0.1-0.2-0.3-0.4-0.3-0.6c0-0.2,0.2-0.3,0.4-0.3h1.6
		c0.3,0,0.5,0.2,0.7,0.5l5.3,8.1l5.3-8.1c0.2-0.3,0.4-0.5,0.7-0.5h1.5c0.2,0,0.3,0.2,0.3,0.3s-0.1,0.4-0.2,0.5l-6.3,9.6l6.4,9.7
		C1805.9,784.6,1806.1,784.7,1806.1,784.9z"/>
	<path class="st1" d="M1817.7,777.4h-5.4v7.4c0,0.3-0.2,0.5-0.5,0.5h-1.3c-0.3,0-0.5-0.2-0.5-0.5v-20c0-0.3,0.2-0.5,0.5-0.5h7.2
		c3.8,0,6.5,2.1,6.5,6.1v0.6C1824.2,774.9,1821.5,777.4,1817.7,777.4z M1812.3,766.4v8.8h5.3c2.2,0,4.3-1.3,4.3-4.2v-0.6
		c0-3-2.1-4-4.3-4H1812.3z"/>
	<path class="st1" d="M1841,766.4h-10.2v7.2h8.2c0.3,0,0.5,0.2,0.5,0.5v1.1c0,0.3-0.2,0.5-0.5,0.5h-8.2v7.4h10.2
		c0.3,0,0.5,0.2,0.5,0.5v1.1c0,0.3-0.2,0.5-0.5,0.5H1829c-0.3,0-0.5-0.2-0.5-0.5v-20c0-0.3,0.2-0.5,0.5-0.5h11.9
		c0.3,0,0.5,0.2,0.5,0.5v1.1C1841.5,766.2,1841.3,766.4,1841,766.4z"/>
	<path class="st1" d="M1847.8,785.3h-1.3c-0.3,0-0.5-0.2-0.5-0.5v-20c0-0.3,0.2-0.5,0.5-0.5h7.2c3.8,0,6.5,2,6.5,6v0.4
		c0,2.6-1.4,4.8-4.5,5.7l4.3,8.1c0.1,0.2,0.2,0.3,0.2,0.4c0,0.2-0.2,0.3-0.3,0.3h-1.7c-0.3,0-0.4-0.2-0.5-0.4l-4.2-8.1h-5v8
		C1848.3,785,1848.1,785.3,1847.8,785.3z M1853.6,774.6c2.2,0,4.3-1.2,4.3-3.8v-0.5c0-3-2.1-3.9-4.3-3.9h-5.3v8.2H1853.6z"/>
	<path class="st1" d="M1862.8,765.9v-1.1c0-0.3,0.2-0.5,0.5-0.5h14.9c0.3,0,0.5,0.2,0.5,0.5v1.1c0,0.3-0.2,0.5-0.5,0.5h-6.3v18.4
		c0,0.3-0.2,0.5-0.5,0.5h-1.3c-0.3,0-0.5-0.2-0.5-0.5v-18.4h-6.3C1863,766.4,1862.8,766.2,1862.8,765.9z"/>
	<path class="st1" d="M1882.5,784.7v-20c0-0.3,0.2-0.5,0.5-0.5h1.3c0.3,0,0.5,0.2,0.5,0.5v20c0,0.3-0.2,0.5-0.5,0.5h-1.3
		C1882.7,785.3,1882.5,785,1882.5,784.7z"/>
	<path class="st1" d="M1901.4,769.4c-0.2-1.8-1-3.4-4.5-3.4c-2.7,0-4.6,0.7-4.6,3.5c0,6.1,11.9,2.3,11.9,10.2c0,4.3-3.7,5.8-7.2,5.8
		c-5.7,0-7.6-4-7.6-6.4c0-0.3,0.2-0.5,0.5-0.5h1.3c0.3,0,0.5,0.2,0.5,0.5c0.1,1.3,0.9,4.4,5.3,4.4c2.8,0,4.9-1,4.9-3.8
		c0-5.6-11.9-1.9-11.9-10.2c0-3.8,2.9-5.5,6.9-5.5c5.3,0,6.7,3.3,6.7,5.5c0,0.3-0.2,0.5-0.5,0.5h-1.3
		C1901.6,769.9,1901.5,769.7,1901.4,769.4z"/>
	<path class="st1" d="M1921.3,766.4h-10.2v7.2h8.2c0.3,0,0.5,0.2,0.5,0.5v1.1c0,0.3-0.2,0.5-0.5,0.5h-8.2v7.4h10.2
		c0.3,0,0.5,0.2,0.5,0.5v1.1c0,0.3-0.2,0.5-0.5,0.5h-11.9c-0.3,0-0.5-0.2-0.5-0.5v-20c0-0.3,0.2-0.5,0.5-0.5h11.9
		c0.3,0,0.5,0.2,0.5,0.5v1.1C1921.8,766.2,1921.6,766.4,1921.3,766.4z"/>
</g>
<g>
	<path class="st1" d="M2084.8,740.4h-5.4v7.4c0,0.3-0.2,0.5-0.5,0.5h-1.3c-0.3,0-0.5-0.2-0.5-0.5v-20c0-0.3,0.2-0.5,0.5-0.5h7.2
		c3.8,0,6.5,2.1,6.5,6.1v0.6C2091.2,737.9,2088.6,740.4,2084.8,740.4z M2079.4,729.4v8.8h5.3c2.2,0,4.3-1.3,4.3-4.2v-0.6
		c0-3-2.1-4-4.3-4H2079.4z"/>
	<path class="st1" d="M2109.5,747.9c0,0.2-0.1,0.3-0.4,0.3h-1.5c-0.3,0-0.4-0.1-0.5-0.3l-1.9-5.3h-9.1l-1.9,5.3
		c-0.1,0.3-0.3,0.3-0.4,0.3h-1.5c-0.2,0-0.4-0.1-0.4-0.3c0-0.1,0.1-0.4,0.2-0.6l7.1-19.6c0.1-0.3,0.2-0.5,0.5-0.5h1.7
		c0.3,0,0.5,0.2,0.5,0.5l7.3,19.8C2109.4,747.6,2109.5,747.8,2109.5,747.9z M2104.5,740.6l-3.8-10.7l-3.8,10.7H2104.5z"/>
	<path class="st1" d="M2108.9,728.9v-1.1c0-0.3,0.2-0.5,0.5-0.5h14.9c0.3,0,0.5,0.2,0.5,0.5v1.1c0,0.3-0.2,0.5-0.5,0.5h-6.3v18.4
		c0,0.3-0.2,0.5-0.5,0.5h-1.3c-0.3,0-0.5-0.2-0.5-0.5v-18.4h-6.3C2109.1,729.4,2108.9,729.2,2108.9,728.9z"/>
	<path class="st1" d="M2128.5,747.7v-20c0-0.3,0.2-0.5,0.5-0.5h1.3c0.3,0,0.5,0.2,0.5,0.5v20c0,0.3-0.2,0.5-0.5,0.5h-1.3
		C2128.7,748.3,2128.5,748,2128.5,747.7z"/>
	<path class="st1" d="M2149,729.4h-10.2v7.2h8.2c0.3,0,0.5,0.2,0.5,0.5v1.1c0,0.3-0.2,0.5-0.5,0.5h-8.2v7.4h10.2
		c0.3,0,0.5,0.2,0.5,0.5v1.1c0,0.3-0.2,0.5-0.5,0.5H2137c-0.3,0-0.5-0.2-0.5-0.5v-20c0-0.3,0.2-0.5,0.5-0.5h11.9
		c0.3,0,0.5,0.2,0.5,0.5v1.1C2149.5,729.2,2149.3,729.4,2149,729.4z"/>
	<path class="st1" d="M2169.1,727.8v20c0,0.3-0.2,0.5-0.5,0.5h-1c-0.2,0-0.5,0-0.8-0.6l-10.5-16.6v16.7c0,0.3-0.2,0.5-0.5,0.5h-1.2
		c-0.3,0-0.5-0.2-0.5-0.5v-20c0-0.3,0.2-0.5,0.5-0.5h1.5c0.3,0,0.5,0.2,0.6,0.4l10.3,16.3v-16.2c0-0.3,0.2-0.5,0.5-0.5h1.2
		C2168.9,727.3,2169.1,727.5,2169.1,727.8z"/>
	<path class="st1" d="M2172.9,728.9v-1.1c0-0.3,0.2-0.5,0.5-0.5h14.9c0.3,0,0.5,0.2,0.5,0.5v1.1c0,0.3-0.2,0.5-0.5,0.5h-6.3v18.4
		c0,0.3-0.2,0.5-0.5,0.5h-1.3c-0.3,0-0.5-0.2-0.5-0.5v-18.4h-6.3C2173.1,729.4,2172.9,729.2,2172.9,728.9z"/>
	<path class="st1" d="M2079.3,776.2v-1.1c0-0.3,0.2-0.5,0.5-0.5h6.8c0.3,0,0.5,0.2,0.5,0.5v9.7c0,0.3-0.2,0.5-0.5,0.5h-1
		c-0.3,0-0.5-0.2-0.5-0.5v-2.1c-1,1.8-3.1,2.9-5.5,2.9c-4.8,0-7.7-3.7-7.7-8.2v-5.2c0-5,3.3-8.2,7.7-8.2s6.9,2.9,7.5,6.4
		c0.1,0.2,0.1,0.4,0.1,0.5c0,0.2-0.1,0.3-0.3,0.3h-1.6c-0.2,0-0.4-0.1-0.4-0.5c-0.3-2.2-2-4.6-5.2-4.6c-3,0-5.4,2.2-5.4,6.1v5.2
		c0,3.8,2.5,6.1,5.5,6.1c3.8,0,5.3-3.1,5.3-5.2v-1.6h-5.2C2079.5,776.7,2079.3,776.5,2079.3,776.2z"/>
	<path class="st1" d="M2094.5,785.3h-1.3c-0.3,0-0.5-0.2-0.5-0.5v-20c0-0.3,0.2-0.5,0.5-0.5h7.2c3.8,0,6.5,2,6.5,6v0.4
		c0,2.6-1.4,4.8-4.5,5.7l4.3,8.1c0.1,0.2,0.1,0.3,0.1,0.4c0,0.2-0.1,0.3-0.3,0.3h-1.7c-0.3,0-0.4-0.2-0.5-0.4l-4.2-8.1h-5v8
		C2095,785,2094.8,785.3,2094.5,785.3z M2100.2,774.6c2.2,0,4.3-1.2,4.3-3.8v-0.5c0-3-2.1-3.9-4.3-3.9h-5.3v8.2H2100.2z"/>
	<path class="st1" d="M2118.6,764c4.4,0,7.7,3.2,7.7,8.2v5.2c0,5-3.4,8.2-7.7,8.2s-7.7-3.2-7.7-8.2v-5.2
		C2110.9,767.2,2114.2,764,2118.6,764z M2118.6,783.4c3,0,5.4-2.2,5.4-6.1v-5.2c0-3.9-2.4-6.1-5.4-6.1s-5.4,2.2-5.4,6.1v5.2
		C2113.2,781.2,2115.6,783.4,2118.6,783.4z"/>
	<path class="st1" d="M2155,764.6c0,0.1,0,0.2-0.1,0.5l-5.5,19.8c-0.1,0.2-0.2,0.4-0.5,0.4h-1.7c-0.2,0-0.4-0.1-0.5-0.4l-4.6-17.1
		l-4.6,17.1c0,0.2-0.2,0.4-0.5,0.4h-1.7c-0.2,0-0.4-0.1-0.5-0.4l-5.5-19.8c0-0.2-0.1-0.4-0.1-0.5c0-0.2,0.1-0.3,0.3-0.3h1.6
		c0.2,0,0.5,0.1,0.5,0.5l4.6,17.3l4.6-17.3c0.1-0.3,0.2-0.5,0.5-0.5h1.5c0.2,0,0.5,0.2,0.5,0.5l4.6,17.3l4.6-17.3
		c0.1-0.2,0.2-0.5,0.5-0.5h1.5C2154.8,764.3,2155,764.4,2155,764.6z"/>
	<path class="st1" d="M2156.9,765.9v-1.1c0-0.3,0.2-0.5,0.5-0.5h14.9c0.3,0,0.5,0.2,0.5,0.5v1.1c0,0.3-0.2,0.5-0.5,0.5h-6.3v18.4
		c0,0.3-0.2,0.5-0.5,0.5h-1.3c-0.3,0-0.5-0.2-0.5-0.5v-18.4h-6.3C2157.2,766.4,2156.9,766.2,2156.9,765.9z"/>
	<path class="st1" d="M2189.1,784.7v-9.2h-10.2v9.2c0,0.3-0.2,0.5-0.5,0.5h-1.3c-0.3,0-0.5-0.2-0.5-0.5v-20c0-0.3,0.2-0.5,0.5-0.5
		h1.3c0.3,0,0.5,0.2,0.5,0.5v8.6h10.2v-8.6c0-0.3,0.2-0.5,0.5-0.5h1.3c0.3,0,0.5,0.2,0.5,0.5v20c0,0.3-0.2,0.5-0.5,0.5h-1.3
		C2189.3,785.3,2189.1,785,2189.1,784.7z"/>
</g>
<g>
	<path class="st1" d="M2303.6,748.3h-12.1c-0.3,0-0.5-0.2-0.5-0.5v-20c0-0.3,0.2-0.5,0.5-0.5h1.3c0.3,0,0.5,0.2,0.5,0.5v18.4h10.4
		c0.3,0,0.5,0.2,0.5,0.5v1.1C2304.1,748,2303.9,748.3,2303.6,748.3z"/>
	<path class="st1" d="M2320.6,729.4h-10.2v7.2h8.2c0.3,0,0.5,0.2,0.5,0.5v1.1c0,0.3-0.2,0.5-0.5,0.5h-8.2v7.4h10.2
		c0.3,0,0.5,0.2,0.5,0.5v1.1c0,0.3-0.2,0.5-0.5,0.5h-11.9c-0.3,0-0.5-0.2-0.5-0.5v-20c0-0.3,0.2-0.5,0.5-0.5h11.9
		c0.3,0,0.5,0.2,0.5,0.5v1.1C2321.1,729.2,2320.9,729.4,2320.6,729.4z"/>
	<path class="st1" d="M2331.9,739.2v-1.1c0-0.3,0.2-0.5,0.5-0.5h6.8c0.3,0,0.5,0.2,0.5,0.5v9.7c0,0.3-0.2,0.5-0.5,0.5h-1
		c-0.3,0-0.5-0.2-0.5-0.5v-2.1c-1,1.8-3.1,2.9-5.5,2.9c-4.8,0-7.6-3.7-7.6-8.2v-5.2c0-5,3.3-8.2,7.7-8.2c4.4,0,6.9,2.9,7.5,6.4
		c0.1,0.2,0.1,0.4,0.1,0.5c0,0.2-0.1,0.3-0.3,0.3h-1.6c-0.2,0-0.4-0.1-0.4-0.5c-0.3-2.2-2-4.6-5.2-4.6c-3,0-5.4,2.2-5.4,6.1v5.2
		c0,3.8,2.5,6.1,5.5,6.1c3.8,0,5.3-3.1,5.3-5.2v-1.6h-5.2C2332.1,739.7,2331.9,739.5,2331.9,739.2z"/>
	<path class="st1" d="M2360.9,747.9c0,0.2-0.1,0.3-0.4,0.3h-1.5c-0.3,0-0.4-0.1-0.5-0.3l-1.9-5.3h-9.1l-1.9,5.3
		c-0.1,0.3-0.3,0.3-0.4,0.3h-1.5c-0.2,0-0.4-0.1-0.4-0.3c0-0.1,0.1-0.4,0.2-0.6l7.1-19.6c0.1-0.3,0.2-0.5,0.5-0.5h1.7
		c0.3,0,0.5,0.2,0.5,0.5l7.3,19.8C2360.8,747.6,2360.9,747.8,2360.9,747.9z M2355.9,740.6l-3.8-10.7l-3.8,10.7H2355.9z"/>
	<path class="st1" d="M2377.5,748.3h-12.1c-0.3,0-0.5-0.2-0.5-0.5v-20c0-0.3,0.2-0.5,0.5-0.5h1.3c0.3,0,0.5,0.2,0.5,0.5v18.4h10.4
		c0.3,0,0.5,0.2,0.5,0.5v1.1C2378,748,2377.8,748.3,2377.5,748.3z"/>
	<path class="st1" d="M2395.4,748.6c-5.1,0-6.8-3.1-6.8-5.6c0-2.9,1.8-4.5,4-5.9c-1-1.2-2.5-2.9-2.5-5.2c0-3.7,3-4.9,5.5-4.9
		c3.2,0,5.1,2.2,5.1,4.8c0,2.9-2.5,4.3-5,5.7l4.9,5.5c0.8-1.7,0.9-3.8,0.9-4.9c0-0.3,0.2-0.5,0.5-0.5h1.1c0.3,0,0.5,0.2,0.5,0.5
		c0,1.3-0.2,4.2-1.5,6.7l2.4,2.7c0.2,0.1,0.3,0.3,0.3,0.5c0,0.2-0.1,0.3-0.3,0.3h-1.7c-0.2,0-0.3-0.1-0.4-0.2l-1.5-1.7
		C2399.6,747.7,2397.9,748.6,2395.4,748.6z M2394,738.5c-1.8,1.1-3.1,2.3-3.1,4.3c0,1.8,1.2,3.6,4.6,3.6c1.8,0,3.1-0.7,4.1-1.7
		L2394,738.5z M2398.6,731.8c0-2-1.4-2.8-2.9-2.8c-2.5,0-3.3,1.4-3.3,2.9c0,1.4,0.6,2.5,2.1,4.2
		C2396.6,734.8,2398.6,733.8,2398.6,731.8z"/>
	<path class="st1" d="M2428.9,729.4h-10.2v7.8h8.2c0.3,0,0.5,0.2,0.5,0.5v1.1c0,0.3-0.2,0.5-0.5,0.5h-8.2v8.4c0,0.3-0.2,0.5-0.5,0.5
		h-1.3c-0.3,0-0.5-0.2-0.5-0.5v-20c0-0.3,0.2-0.5,0.5-0.5h11.9c0.3,0,0.5,0.2,0.5,0.5v1.1C2429.4,729.2,2429.2,729.4,2428.9,729.4z"
		/>
	<path class="st1" d="M2433.5,747.7v-20c0-0.3,0.2-0.5,0.5-0.5h1.3c0.3,0,0.5,0.2,0.5,0.5v20c0,0.3-0.2,0.5-0.5,0.5h-1.3
		C2433.7,748.3,2433.5,748,2433.5,747.7z"/>
	<path class="st1" d="M2456.6,727.8v20c0,0.3-0.2,0.5-0.5,0.5h-1c-0.2,0-0.5,0-0.8-0.6l-10.5-16.6v16.7c0,0.3-0.2,0.5-0.5,0.5h-1.2
		c-0.3,0-0.5-0.2-0.5-0.5v-20c0-0.3,0.2-0.5,0.5-0.5h1.5c0.3,0,0.5,0.2,0.6,0.4l10.3,16.3v-16.2c0-0.3,0.2-0.5,0.5-0.5h1.2
		C2456.4,727.3,2456.6,727.5,2456.6,727.8z"/>
	<path class="st1" d="M2478,747.9c0,0.2-0.2,0.3-0.4,0.3h-1.5c-0.3,0-0.4-0.1-0.5-0.3l-1.9-5.3h-9.1l-1.9,5.3
		c-0.1,0.3-0.3,0.3-0.4,0.3h-1.5c-0.2,0-0.4-0.1-0.4-0.3c0-0.1,0.1-0.4,0.2-0.6l7.1-19.6c0.1-0.3,0.2-0.5,0.5-0.5h1.7
		c0.3,0,0.5,0.2,0.5,0.5l7.3,19.8C2477.9,747.6,2478,747.8,2478,747.9z M2473,740.6l-3.8-10.7l-3.8,10.7H2473z"/>
	<path class="st1" d="M2497,727.8v20c0,0.3-0.2,0.5-0.5,0.5h-1c-0.2,0-0.5,0-0.8-0.6l-10.5-16.6v16.7c0,0.3-0.2,0.5-0.5,0.5h-1.2
		c-0.3,0-0.5-0.2-0.5-0.5v-20c0-0.3,0.2-0.5,0.5-0.5h1.5c0.3,0,0.5,0.2,0.6,0.4l10.3,16.3v-16.2c0-0.3,0.2-0.5,0.5-0.5h1.2
		C2496.7,727.3,2497,727.5,2497,727.8z"/>
	<path class="st1" d="M2517.2,741.6c-0.2,3.7-3.2,7-7.5,7s-7.7-3.2-7.7-8.2v-5.2c0-5,3.3-8.2,7.7-8.2c4.4,0,7.1,3,7.5,6.7
		c0,0.3-0.2,0.5-0.4,0.5h-1.5c-0.2,0-0.3-0.1-0.4-0.5c-0.4-2.5-2.2-4.6-5.2-4.6s-5.4,2.2-5.4,6.1v5.2c0,3.8,2.4,6.1,5.4,6.1
		c3,0,4.9-2,5.2-4.9c0-0.2,0.1-0.4,0.4-0.4h1.6C2517.1,741.2,2517.2,741.3,2517.2,741.6z"/>
	<path class="st1" d="M2522.1,747.7v-20c0-0.3,0.2-0.5,0.5-0.5h1.3c0.3,0,0.5,0.2,0.5,0.5v20c0,0.3-0.2,0.5-0.5,0.5h-1.3
		C2522.3,748.3,2522.1,748,2522.1,747.7z"/>
	<path class="st1" d="M2545.7,747.9c0,0.2-0.2,0.3-0.4,0.3h-1.5c-0.3,0-0.4-0.1-0.5-0.3l-1.9-5.3h-9.1l-1.9,5.3
		c-0.1,0.3-0.3,0.3-0.4,0.3h-1.5c-0.2,0-0.4-0.1-0.4-0.3c0-0.1,0.1-0.4,0.2-0.6l7.1-19.6c0.1-0.3,0.2-0.5,0.5-0.5h1.7
		c0.3,0,0.5,0.2,0.5,0.5l7.3,19.8C2545.6,747.6,2545.7,747.8,2545.7,747.9z M2540.7,740.6l-3.8-10.7l-3.8,10.7H2540.7z"/>
	<path class="st1" d="M2562.3,748.3h-12.1c-0.3,0-0.5-0.2-0.5-0.5v-20c0-0.3,0.2-0.5,0.5-0.5h1.3c0.3,0,0.5,0.2,0.5,0.5v18.4h10.4
		c0.3,0,0.5,0.2,0.5,0.5v1.1C2562.8,748,2562.6,748.3,2562.3,748.3z"/>
	<path class="st1" d="M2365.4,766.4h-10.2v7.2h8.2c0.3,0,0.5,0.2,0.5,0.5v1.1c0,0.3-0.2,0.5-0.5,0.5h-8.2v7.4h10.2
		c0.3,0,0.5,0.2,0.5,0.5v1.1c0,0.3-0.2,0.5-0.5,0.5h-11.9c-0.3,0-0.5-0.2-0.5-0.5v-20c0-0.3,0.2-0.5,0.5-0.5h11.9
		c0.3,0,0.5,0.2,0.5,0.5v1.1C2365.9,766.2,2365.7,766.4,2365.4,766.4z"/>
	<path class="st1" d="M2384.5,784.9c0,0.2-0.1,0.3-0.3,0.3h-1.6c-0.4,0-0.6-0.2-0.8-0.4l-5.4-8.3l-5.4,8.3c-0.1,0.2-0.3,0.4-0.7,0.4
		h-1.4c-0.2,0-0.3-0.1-0.3-0.3c0-0.1,0.1-0.3,0.2-0.4l6.4-9.8l-6.2-9.5c-0.1-0.2-0.3-0.4-0.3-0.6c0-0.2,0.1-0.3,0.4-0.3h1.6
		c0.3,0,0.5,0.2,0.7,0.5l5.3,8.1l5.3-8.1c0.2-0.3,0.4-0.5,0.7-0.5h1.5c0.2,0,0.3,0.2,0.3,0.3s-0.1,0.4-0.2,0.5l-6.3,9.6l6.4,9.7
		C2384.4,784.6,2384.5,784.7,2384.5,784.9z"/>
	<path class="st1" d="M2396.2,777.4h-5.4v7.4c0,0.3-0.2,0.5-0.5,0.5h-1.3c-0.3,0-0.5-0.2-0.5-0.5v-20c0-0.3,0.2-0.5,0.5-0.5h7.2
		c3.8,0,6.5,2.1,6.5,6.1v0.6C2402.6,774.9,2400,777.4,2396.2,777.4z M2390.8,766.4v8.8h5.3c2.2,0,4.3-1.3,4.3-4.2v-0.6
		c0-3-2.1-4-4.3-4H2390.8z"/>
	<path class="st1" d="M2419.4,766.4h-10.2v7.2h8.2c0.3,0,0.5,0.2,0.5,0.5v1.1c0,0.3-0.2,0.5-0.5,0.5h-8.2v7.4h10.2
		c0.3,0,0.5,0.2,0.5,0.5v1.1c0,0.3-0.2,0.5-0.5,0.5h-11.9c-0.3,0-0.5-0.2-0.5-0.5v-20c0-0.3,0.2-0.5,0.5-0.5h11.9
		c0.3,0,0.5,0.2,0.5,0.5v1.1C2419.9,766.2,2419.7,766.4,2419.4,766.4z"/>
	<path class="st1" d="M2426.2,785.3h-1.3c-0.3,0-0.5-0.2-0.5-0.5v-20c0-0.3,0.2-0.5,0.5-0.5h7.2c3.8,0,6.5,2,6.5,6v0.4
		c0,2.6-1.4,4.8-4.5,5.7l4.3,8.1c0.1,0.2,0.1,0.3,0.1,0.4c0,0.2-0.1,0.3-0.3,0.3h-1.7c-0.3,0-0.4-0.2-0.5-0.4l-4.2-8.1h-5v8
		C2426.8,785,2426.5,785.3,2426.2,785.3z M2432,774.6c2.2,0,4.3-1.2,4.3-3.8v-0.5c0-3-2.1-3.9-4.3-3.9h-5.3v8.2H2432z"/>
	<path class="st1" d="M2441.2,765.9v-1.1c0-0.3,0.2-0.5,0.5-0.5h14.9c0.3,0,0.5,0.2,0.5,0.5v1.1c0,0.3-0.2,0.5-0.5,0.5h-6.3v18.4
		c0,0.3-0.2,0.5-0.5,0.5h-1.3c-0.3,0-0.5-0.2-0.5-0.5v-18.4h-6.3C2441.5,766.4,2441.2,766.2,2441.2,765.9z"/>
	<path class="st1" d="M2460.9,784.7v-20c0-0.3,0.2-0.5,0.5-0.5h1.3c0.3,0,0.5,0.2,0.5,0.5v20c0,0.3-0.2,0.5-0.5,0.5h-1.3
		C2461.1,785.3,2460.9,785,2460.9,784.7z"/>
	<path class="st1" d="M2479.9,769.4c-0.2-1.8-1-3.4-4.5-3.4c-2.7,0-4.6,0.7-4.6,3.5c0,6.1,11.9,2.3,11.9,10.2c0,4.3-3.7,5.8-7.2,5.8
		c-5.7,0-7.6-4-7.6-6.4c0-0.3,0.2-0.5,0.5-0.5h1.3c0.3,0,0.5,0.2,0.5,0.5c0.1,1.3,0.9,4.4,5.3,4.4c2.8,0,4.9-1,4.9-3.8
		c0-5.6-11.9-1.9-11.9-10.2c0-3.8,2.9-5.5,6.9-5.5c5.3,0,6.7,3.3,6.7,5.5c0,0.3-0.2,0.5-0.5,0.5h-1.3
		C2480.1,769.9,2479.9,769.7,2479.9,769.4z"/>
	<path class="st1" d="M2499.8,766.4h-10.2v7.2h8.2c0.3,0,0.5,0.2,0.5,0.5v1.1c0,0.3-0.2,0.5-0.5,0.5h-8.2v7.4h10.2
		c0.3,0,0.5,0.2,0.5,0.5v1.1c0,0.3-0.2,0.5-0.5,0.5h-11.9c-0.3,0-0.5-0.2-0.5-0.5v-20c0-0.3,0.2-0.5,0.5-0.5h11.9
		c0.3,0,0.5,0.2,0.5,0.5v1.1C2500.3,766.2,2500.1,766.4,2499.8,766.4z"/>
</g>
<g>
	<path class="st1" d="M1429.9,747.9c0,0.2-0.2,0.3-0.4,0.3h-1.5c-0.3,0-0.4-0.1-0.5-0.3l-1.9-5.3h-9.1l-1.9,5.3
		c-0.1,0.3-0.3,0.3-0.4,0.3h-1.5c-0.2,0-0.4-0.1-0.4-0.3c0-0.1,0.1-0.4,0.2-0.6l7.1-19.6c0.1-0.3,0.2-0.5,0.5-0.5h1.7
		c0.3,0,0.5,0.2,0.5,0.5l7.3,19.8C1429.8,747.6,1429.9,747.8,1429.9,747.9z M1424.9,740.6l-3.8-10.7l-3.8,10.7H1424.9z"/>
	<path class="st1" d="M1447.8,741.6c-0.2,3.7-3.2,7-7.5,7s-7.7-3.2-7.7-8.2v-5.2c0-5,3.3-8.2,7.7-8.2c4.4,0,7.1,3,7.5,6.7
		c0,0.3-0.2,0.5-0.4,0.5h-1.5c-0.2,0-0.3-0.1-0.4-0.5c-0.4-2.5-2.2-4.6-5.2-4.6s-5.4,2.2-5.4,6.1v5.2c0,3.8,2.4,6.1,5.4,6.1
		c3,0,4.9-2,5.2-4.9c0-0.2,0.2-0.4,0.4-0.4h1.6C1447.7,741.2,1447.8,741.3,1447.8,741.6z"/>
	<path class="st1" d="M1467.2,741.6c-0.2,3.7-3.2,7-7.5,7s-7.7-3.2-7.7-8.2v-5.2c0-5,3.3-8.2,7.7-8.2c4.4,0,7.1,3,7.5,6.7
		c0,0.3-0.2,0.5-0.4,0.5h-1.5c-0.2,0-0.3-0.1-0.4-0.5c-0.4-2.5-2.2-4.6-5.2-4.6s-5.4,2.2-5.4,6.1v5.2c0,3.8,2.4,6.1,5.4,6.1
		c3,0,4.9-2,5.2-4.9c0-0.2,0.2-0.4,0.4-0.4h1.6C1467.1,741.2,1467.2,741.3,1467.2,741.6z"/>
	<path class="st1" d="M1484.5,729.4h-10.2v7.2h8.2c0.3,0,0.5,0.2,0.5,0.5v1.1c0,0.3-0.2,0.5-0.5,0.5h-8.2v7.4h10.2
		c0.3,0,0.5,0.2,0.5,0.5v1.1c0,0.3-0.2,0.5-0.5,0.5h-11.9c-0.3,0-0.5-0.2-0.5-0.5v-20c0-0.3,0.2-0.5,0.5-0.5h11.9
		c0.3,0,0.5,0.2,0.5,0.5v1.1C1485,729.2,1484.8,729.4,1484.5,729.4z"/>
	<path class="st1" d="M1500.2,732.4c-0.2-1.8-1-3.4-4.5-3.4c-2.7,0-4.6,0.7-4.6,3.5c0,6.1,11.9,2.3,11.9,10.2c0,4.3-3.7,5.8-7.2,5.8
		c-5.7,0-7.6-4-7.6-6.4c0-0.3,0.2-0.5,0.5-0.5h1.3c0.3,0,0.5,0.2,0.5,0.5c0.1,1.3,0.9,4.4,5.3,4.4c2.8,0,4.9-1,4.9-3.8
		c0-5.6-11.9-1.9-11.9-10.2c0-3.8,2.9-5.5,6.9-5.5c5.3,0,6.7,3.3,6.7,5.5c0,0.3-0.2,0.5-0.5,0.5h-1.3
		C1500.4,732.9,1500.2,732.7,1500.2,732.4z"/>
	<path class="st1" d="M1518.3,732.4c-0.2-1.8-1-3.4-4.5-3.4c-2.7,0-4.6,0.7-4.6,3.5c0,6.1,11.9,2.3,11.9,10.2c0,4.3-3.7,5.8-7.2,5.8
		c-5.7,0-7.6-4-7.6-6.4c0-0.3,0.2-0.5,0.5-0.5h1.3c0.3,0,0.5,0.2,0.5,0.5c0.1,1.3,0.9,4.4,5.3,4.4c2.8,0,4.9-1,4.9-3.8
		c0-5.6-11.9-1.9-11.9-10.2c0-3.8,2.9-5.5,6.9-5.5c5.3,0,6.7,3.3,6.7,5.5c0,0.3-0.2,0.5-0.5,0.5h-1.3
		C1518.5,732.9,1518.4,732.7,1518.3,732.4z"/>
	<path class="st1" d="M1531.3,728.9v-1.1c0-0.3,0.2-0.5,0.5-0.5h14.9c0.3,0,0.5,0.2,0.5,0.5v1.1c0,0.3-0.2,0.5-0.5,0.5h-6.3v18.4
		c0,0.3-0.2,0.5-0.5,0.5h-1.3c-0.3,0-0.5-0.2-0.5-0.5v-18.4h-6.3C1531.6,729.4,1531.3,729.2,1531.3,728.9z"/>
	<path class="st1" d="M1557.2,727c4.4,0,7.7,3.2,7.7,8.2v5.2c0,5-3.4,8.2-7.7,8.2s-7.7-3.2-7.7-8.2v-5.2
		C1549.5,730.2,1552.8,727,1557.2,727z M1557.2,746.4c3,0,5.4-2.2,5.4-6.1v-5.2c0-3.9-2.4-6.1-5.4-6.1s-5.4,2.2-5.4,6.1v5.2
		C1551.8,744.2,1554.2,746.4,1557.2,746.4z"/>
	<path class="st1" d="M1590.1,748.3h-12.1c-0.3,0-0.5-0.2-0.5-0.5v-20c0-0.3,0.2-0.5,0.5-0.5h1.3c0.3,0,0.5,0.2,0.5,0.5v18.4h10.4
		c0.3,0,0.5,0.2,0.5,0.5v1.1C1590.6,748,1590.4,748.3,1590.1,748.3z"/>
	<path class="st1" d="M1607,729.4h-10.2v7.2h8.2c0.3,0,0.5,0.2,0.5,0.5v1.1c0,0.3-0.2,0.5-0.5,0.5h-8.2v7.4h10.2
		c0.3,0,0.5,0.2,0.5,0.5v1.1c0,0.3-0.2,0.5-0.5,0.5h-11.9c-0.3,0-0.5-0.2-0.5-0.5v-20c0-0.3,0.2-0.5,0.5-0.5h11.9
		c0.3,0,0.5,0.2,0.5,0.5v1.1C1607.5,729.2,1607.3,729.4,1607,729.4z"/>
	<path class="st1" d="M1622.7,732.4c-0.2-1.8-1-3.4-4.5-3.4c-2.7,0-4.6,0.7-4.6,3.5c0,6.1,11.9,2.3,11.9,10.2c0,4.3-3.7,5.8-7.2,5.8
		c-5.7,0-7.6-4-7.6-6.4c0-0.3,0.2-0.5,0.5-0.5h1.3c0.3,0,0.5,0.2,0.5,0.5c0.1,1.3,0.9,4.4,5.3,4.4c2.8,0,4.9-1,4.9-3.8
		c0-5.6-11.9-1.9-11.9-10.2c0-3.8,2.9-5.5,6.9-5.5c5.3,0,6.7,3.3,6.7,5.5c0,0.3-0.2,0.5-0.5,0.5h-1.3
		C1622.9,732.9,1622.8,732.7,1622.7,732.4z"/>
	<path class="st1" d="M1640.8,732.4c-0.1-1.8-1-3.4-4.5-3.4c-2.7,0-4.6,0.7-4.6,3.5c0,6.1,11.9,2.3,11.9,10.2c0,4.3-3.7,5.8-7.2,5.8
		c-5.7,0-7.6-4-7.6-6.4c0-0.3,0.2-0.5,0.5-0.5h1.3c0.3,0,0.5,0.2,0.5,0.5c0.1,1.3,0.9,4.4,5.3,4.4c2.8,0,5-1,5-3.8
		c0-5.6-11.9-1.9-11.9-10.2c0-3.8,2.9-5.5,6.9-5.5c5.3,0,6.7,3.3,6.7,5.5c0,0.3-0.2,0.5-0.5,0.5h-1.3
		C1641.1,732.9,1640.9,732.7,1640.8,732.4z"/>
	<path class="st1" d="M1400.8,784.7v-20c0-0.3,0.2-0.5,0.5-0.5h6.6c4.4,0,7.7,3.2,7.7,8.2v4.6c0,5-3.4,8.2-7.7,8.2h-6.6
		C1401,785.3,1400.8,785,1400.8,784.7z M1403.1,783.1h4.8c3,0,5.4-2.2,5.4-6.1v-4.6c0-3.8-2.4-6.1-5.4-6.1h-4.8V783.1z"/>
	<path class="st1" d="M1420.6,784.7v-20c0-0.3,0.2-0.5,0.5-0.5h1.3c0.3,0,0.5,0.2,0.5,0.5v20c0,0.3-0.2,0.5-0.5,0.5h-1.3
		C1420.8,785.3,1420.6,785,1420.6,784.7z"/>
	<path class="st1" d="M1441.3,785.3h-12.1c-0.3,0-0.5-0.2-0.5-0.5v-20c0-0.3,0.2-0.5,0.5-0.5h1.3c0.3,0,0.5,0.2,0.5,0.5v18.4h10.4
		c0.3,0,0.5,0.2,0.5,0.5v1.1C1441.8,785,1441.6,785.3,1441.3,785.3z"/>
	<path class="st1" d="M1458,764.3h1.3c0.3,0,0.5,0.2,0.5,0.5v12.7c0,5-3.1,8.1-7.4,8.1c-4.3,0-7.4-3.1-7.4-8.1v-12.7
		c0-0.3,0.2-0.5,0.5-0.5h1.3c0.3,0,0.5,0.2,0.5,0.5v12.7c0,3.8,2.1,6,5.1,6c2.9,0,5.1-2.2,5.1-6v-12.7
		C1457.5,764.5,1457.7,764.3,1458,764.3z"/>
	<path class="st1" d="M1463.3,765.9v-1.1c0-0.3,0.2-0.5,0.5-0.5h14.9c0.3,0,0.5,0.2,0.5,0.5v1.1c0,0.3-0.2,0.5-0.5,0.5h-6.3v18.4
		c0,0.3-0.2,0.5-0.5,0.5h-1.3c-0.3,0-0.5-0.2-0.5-0.5v-18.4h-6.3C1463.5,766.4,1463.3,766.2,1463.3,765.9z"/>
	<path class="st1" d="M1483,784.7v-20c0-0.3,0.2-0.5,0.5-0.5h1.3c0.3,0,0.5,0.2,0.5,0.5v20c0,0.3-0.2,0.5-0.5,0.5h-1.3
		C1483.2,785.3,1483,785,1483,784.7z"/>
	<path class="st1" d="M1506.5,764.6c0,0.1-0.1,0.4-0.2,0.6l-7.3,19.7c-0.1,0.2-0.2,0.4-0.5,0.4h-1.7c-0.2,0-0.4-0.1-0.5-0.4
		l-7.3-19.9c0-0.1-0.1-0.3-0.1-0.4c0-0.2,0.1-0.3,0.3-0.3h1.5c0.3,0,0.5,0.2,0.6,0.6l6.3,17.6l6.4-17.7c0.1-0.3,0.2-0.5,0.5-0.5h1.5
		C1506.3,764.3,1506.5,764.4,1506.5,764.6z"/>
	<path class="st1" d="M1522.7,766.4h-10.2v7.2h8.2c0.3,0,0.5,0.2,0.5,0.5v1.1c0,0.3-0.2,0.5-0.5,0.5h-8.2v7.4h10.2
		c0.3,0,0.5,0.2,0.5,0.5v1.1c0,0.3-0.2,0.5-0.5,0.5h-11.9c-0.3,0-0.5-0.2-0.5-0.5v-20c0-0.3,0.2-0.5,0.5-0.5h11.9
		c0.3,0,0.5,0.2,0.5,0.5v1.1C1523.2,766.2,1523,766.4,1522.7,766.4z"/>
	<path class="st1" d="M1547.7,766.4h-10.2v7.8h8.2c0.3,0,0.5,0.2,0.5,0.5v1.1c0,0.3-0.2,0.5-0.5,0.5h-8.2v8.4c0,0.3-0.2,0.5-0.5,0.5
		h-1.3c-0.3,0-0.5-0.2-0.5-0.5v-20c0-0.3,0.2-0.5,0.5-0.5h11.9c0.3,0,0.5,0.2,0.5,0.5v1.1C1548.2,766.2,1548,766.4,1547.7,766.4z"/>
	<path class="st1" d="M1565,764.3h1.3c0.3,0,0.5,0.2,0.5,0.5v12.7c0,5-3.1,8.1-7.4,8.1c-4.3,0-7.4-3.1-7.4-8.1v-12.7
		c0-0.3,0.2-0.5,0.5-0.5h1.3c0.3,0,0.5,0.2,0.5,0.5v12.7c0,3.8,2.1,6,5.1,6c2.9,0,5.1-2.2,5.1-6v-12.7
		C1564.5,764.5,1564.7,764.3,1565,764.3z"/>
	<path class="st1" d="M1587.3,764.8v20c0,0.3-0.2,0.5-0.5,0.5h-1c-0.2,0-0.5,0-0.8-0.6l-10.5-16.6v16.7c0,0.3-0.2,0.5-0.5,0.5h-1.2
		c-0.3,0-0.5-0.2-0.5-0.5v-20c0-0.3,0.2-0.5,0.5-0.5h1.5c0.3,0,0.5,0.2,0.6,0.4l10.3,16.3v-16.2c0-0.3,0.2-0.5,0.5-0.5h1.2
		C1587.1,764.3,1587.3,764.5,1587.3,764.8z"/>
	<path class="st1" d="M1593,784.7v-20c0-0.3,0.2-0.5,0.5-0.5h6.6c4.4,0,7.7,3.2,7.7,8.2v4.6c0,5-3.4,8.2-7.7,8.2h-6.6
		C1593.2,785.3,1593,785,1593,784.7z M1595.3,783.1h4.8c3,0,5.4-2.2,5.4-6.1v-4.6c0-3.8-2.4-6.1-5.4-6.1h-4.8V783.1z"/>
	<path class="st1" d="M1612.8,784.7v-20c0-0.3,0.2-0.5,0.5-0.5h1.3c0.3,0,0.5,0.2,0.5,0.5v20c0,0.3-0.2,0.5-0.5,0.5h-1.3
		C1613,785.3,1612.8,785,1612.8,784.7z"/>
	<path class="st1" d="M1635.9,764.8v20c0,0.3-0.2,0.5-0.5,0.5h-1c-0.2,0-0.5,0-0.8-0.6l-10.5-16.6v16.7c0,0.3-0.2,0.5-0.5,0.5h-1.2
		c-0.3,0-0.5-0.2-0.5-0.5v-20c0-0.3,0.2-0.5,0.5-0.5h1.5c0.3,0,0.5,0.2,0.6,0.4l10.3,16.3v-16.2c0-0.3,0.2-0.5,0.5-0.5h1.2
		C1635.7,764.3,1635.9,764.5,1635.9,764.8z"/>
	<path class="st1" d="M1648.3,776.2v-1.1c0-0.3,0.2-0.5,0.5-0.5h6.8c0.3,0,0.5,0.2,0.5,0.5v9.7c0,0.3-0.2,0.5-0.5,0.5h-1
		c-0.3,0-0.5-0.2-0.5-0.5v-2.1c-1,1.8-3.1,2.9-5.5,2.9c-4.8,0-7.6-3.7-7.6-8.2v-5.2c0-5,3.3-8.2,7.7-8.2c4.4,0,6.9,2.9,7.5,6.4
		c0.1,0.2,0.1,0.4,0.1,0.5c0,0.2-0.1,0.3-0.3,0.3h-1.6c-0.2,0-0.4-0.1-0.4-0.5c-0.3-2.2-2-4.6-5.2-4.6c-3,0-5.4,2.2-5.4,6.1v5.2
		c0,3.8,2.5,6.1,5.5,6.1c3.8,0,5.3-3.1,5.3-5.2v-1.6h-5.2C1648.5,776.7,1648.3,776.5,1648.3,776.2z"/>
</g>
<g>
	<path class="st0" d="M1459,1363c-0.2-1.8-1-3.5-4.5-3.5c-2.7,0-4.6,0.7-4.6,3.5c0,6.1,11.9,2.3,11.9,10.2c0,4.3-3.7,5.8-7.2,5.8
		c-5.7,0-7.6-4-7.6-6.4c0-0.3,0.2-0.5,0.5-0.5h1.3c0.3,0,0.5,0.2,0.5,0.5c0.1,1.3,0.9,4.4,5.3,4.4c2.8,0,4.9-1,4.9-3.8
		c0-5.6-11.9-2-11.9-10.2c0-3.8,2.9-5.5,6.9-5.5c5.3,0,6.7,3.3,6.7,5.5c0,0.3-0.2,0.5-0.5,0.5h-1.3
		C1459.2,1363.4,1459,1363.3,1459,1363z"/>
	<path class="st0" d="M1464.3,1359.4v-1.1c0-0.3,0.2-0.5,0.5-0.5h14.9c0.3,0,0.5,0.2,0.5,0.5v1.1c0,0.3-0.2,0.5-0.5,0.5h-6.3v18.4
		c0,0.3-0.2,0.5-0.5,0.5h-1.3c-0.3,0-0.5-0.2-0.5-0.5v-18.4h-6.3C1464.5,1359.9,1464.3,1359.7,1464.3,1359.4z"/>
	<path class="st0" d="M1485.7,1378.8h-1.3c-0.3,0-0.5-0.2-0.5-0.5v-20c0-0.3,0.2-0.5,0.5-0.5h7.2c3.8,0,6.5,2,6.5,6v0.4
		c0,2.6-1.4,4.8-4.5,5.7l4.3,8.1c0.1,0.2,0.1,0.3,0.1,0.4c0,0.2-0.1,0.3-0.3,0.3h-1.7c-0.3,0-0.4-0.2-0.5-0.4l-4.2-8.1h-5v8
		C1486.3,1378.6,1486,1378.8,1485.7,1378.8z M1491.5,1368.1c2.2,0,4.3-1.2,4.3-3.8v-0.5c0-3-2.1-3.9-4.3-3.9h-5.3v8.2H1491.5z"/>
	<path class="st0" d="M1515.3,1359.9h-10.2v7.2h8.2c0.3,0,0.5,0.2,0.5,0.5v1.1c0,0.3-0.2,0.5-0.5,0.5h-8.2v7.4h10.2
		c0.3,0,0.5,0.2,0.5,0.5v1.1c0,0.3-0.2,0.5-0.5,0.5h-11.9c-0.3,0-0.5-0.2-0.5-0.5v-20c0-0.3,0.2-0.5,0.5-0.5h11.9
		c0.3,0,0.5,0.2,0.5,0.5v1.1C1515.8,1359.7,1515.6,1359.9,1515.3,1359.9z"/>
	<path class="st0" d="M1536.1,1378.4c0,0.2-0.2,0.3-0.4,0.3h-1.5c-0.3,0-0.4-0.2-0.5-0.3l-1.9-5.3h-9.1l-1.9,5.3
		c-0.1,0.3-0.3,0.3-0.4,0.3h-1.5c-0.2,0-0.4-0.2-0.4-0.3c0-0.2,0.1-0.4,0.2-0.6l7.1-19.6c0.1-0.3,0.2-0.5,0.5-0.5h1.7
		c0.3,0,0.5,0.2,0.5,0.5l7.3,19.8C1536,1378.1,1536.1,1378.3,1536.1,1378.4z M1531,1371.1l-3.8-10.7l-3.8,10.7H1531z"/>
	<path class="st0" d="M1559.9,1358.3v20c0,0.3-0.2,0.5-0.5,0.5h-1.2c-0.3,0-0.5-0.2-0.5-0.5V1361l-6.7,17.4
		c-0.1,0.2-0.3,0.4-0.5,0.4h-1.2c-0.3,0-0.4-0.2-0.5-0.3l-6.7-17.5v17.3c0,0.3-0.2,0.5-0.5,0.5h-1.2c-0.3,0-0.5-0.2-0.5-0.5v-20
		c0-0.3,0.2-0.5,0.5-0.5h2.4c0.2,0,0.4,0.1,0.4,0.3l6.6,17.5l6.7-17.5c0.1-0.2,0.2-0.3,0.4-0.3h2.3
		C1559.7,1357.8,1559.9,1358,1559.9,1358.3z"/>
	<path class="st0" d="M1565.6,1378.3v-20c0-0.3,0.2-0.5,0.5-0.5h1.3c0.3,0,0.5,0.2,0.5,0.5v20c0,0.3-0.2,0.5-0.5,0.5h-1.3
		C1565.8,1378.8,1565.6,1378.6,1565.6,1378.3z"/>
	<path class="st0" d="M1588.7,1358.3v20c0,0.3-0.2,0.5-0.5,0.5h-1c-0.2,0-0.5,0-0.8-0.6l-10.5-16.6v16.7c0,0.3-0.2,0.5-0.5,0.5h-1.2
		c-0.3,0-0.5-0.2-0.5-0.5v-20c0-0.3,0.2-0.5,0.5-0.5h1.5c0.3,0,0.5,0.2,0.6,0.4l10.3,16.3v-16.2c0-0.3,0.2-0.5,0.5-0.5h1.2
		C1588.5,1357.8,1588.7,1358,1588.7,1358.3z"/>
	<path class="st0" d="M1601.1,1369.7v-1.1c0-0.3,0.2-0.5,0.5-0.5h6.8c0.3,0,0.5,0.2,0.5,0.5v9.7c0,0.3-0.2,0.5-0.5,0.5h-1
		c-0.3,0-0.5-0.2-0.5-0.5v-2.1c-1,1.8-3.1,2.9-5.5,2.9c-4.8,0-7.6-3.7-7.6-8.2v-5.2c0-5,3.3-8.2,7.7-8.2c4.4,0,6.9,2.9,7.5,6.4
		c0.1,0.2,0.1,0.4,0.1,0.5c0,0.2-0.1,0.3-0.3,0.3h-1.6c-0.2,0-0.4-0.1-0.4-0.4c-0.3-2.2-2-4.6-5.2-4.6c-3,0-5.4,2.2-5.4,6.1v5.2
		c0,3.8,2.5,6.1,5.5,6.1c3.8,0,5.3-3.2,5.3-5.2v-1.6h-5.2C1601.3,1370.2,1601.1,1370,1601.1,1369.7z"/>
	<path class="st0" d="M1474,1407.9h-5.4v7.4c0,0.3-0.2,0.5-0.5,0.5h-1.3c-0.3,0-0.5-0.2-0.5-0.5v-20c0-0.3,0.2-0.5,0.5-0.5h7.2
		c3.8,0,6.5,2.1,6.5,6.1v0.6C1480.4,1405.5,1477.8,1407.9,1474,1407.9z M1468.6,1396.9v8.8h5.3c2.2,0,4.3-1.3,4.3-4.2v-0.6
		c0-3-2.1-4-4.3-4H1468.6z"/>
	<path class="st0" d="M1498.7,1415.4c0,0.2-0.2,0.3-0.4,0.3h-1.5c-0.3,0-0.4-0.2-0.5-0.3l-1.9-5.3h-9.1l-1.9,5.3
		c-0.1,0.3-0.3,0.3-0.4,0.3h-1.5c-0.2,0-0.4-0.2-0.4-0.3c0-0.2,0.1-0.4,0.2-0.6l7.1-19.6c0.1-0.3,0.2-0.5,0.5-0.5h1.7
		c0.3,0,0.5,0.2,0.5,0.5l7.3,19.8C1498.6,1415.1,1498.7,1415.3,1498.7,1415.4z M1493.7,1408.1l-3.8-10.7l-3.8,10.7H1493.7z"/>
	<path class="st0" d="M1504.3,1415.8h-1.3c-0.3,0-0.5-0.2-0.5-0.5v-20c0-0.3,0.2-0.5,0.5-0.5h7.2c3.8,0,6.5,2,6.5,6v0.4
		c0,2.6-1.4,4.8-4.5,5.7l4.3,8.1c0.1,0.2,0.2,0.3,0.2,0.4c0,0.2-0.2,0.3-0.3,0.3h-1.7c-0.3,0-0.4-0.2-0.5-0.4l-4.2-8.1h-5v8
		C1504.8,1415.6,1504.6,1415.8,1504.3,1415.8z M1510.1,1405.1c2.2,0,4.3-1.2,4.3-3.8v-0.5c0-3-2.1-3.9-4.3-3.9h-5.3v8.2H1510.1z"/>
	<path class="st0" d="M1519.3,1396.4v-1.1c0-0.3,0.2-0.5,0.5-0.5h14.9c0.3,0,0.5,0.2,0.5,0.5v1.1c0,0.3-0.2,0.5-0.5,0.5h-6.3v18.4
		c0,0.3-0.2,0.5-0.5,0.5h-1.3c-0.3,0-0.5-0.2-0.5-0.5v-18.4h-6.3C1519.5,1396.9,1519.3,1396.7,1519.3,1396.4z"/>
	<path class="st0" d="M1554.1,1395.3v20c0,0.3-0.2,0.5-0.5,0.5h-1c-0.2,0-0.5,0-0.8-0.6l-10.5-16.6v16.7c0,0.3-0.2,0.5-0.5,0.5h-1.2
		c-0.3,0-0.5-0.2-0.5-0.5v-20c0-0.3,0.2-0.5,0.5-0.5h1.5c0.3,0,0.5,0.2,0.6,0.4l10.3,16.3v-16.2c0-0.3,0.2-0.5,0.5-0.5h1.2
		C1553.9,1394.8,1554.1,1395,1554.1,1395.3z"/>
	<path class="st0" d="M1572.3,1396.9h-10.2v7.2h8.2c0.3,0,0.5,0.2,0.5,0.5v1.1c0,0.3-0.2,0.5-0.5,0.5h-8.2v7.4h10.2
		c0.3,0,0.5,0.2,0.5,0.5v1.1c0,0.3-0.2,0.5-0.5,0.5h-11.9c-0.3,0-0.5-0.2-0.5-0.5v-20c0-0.3,0.2-0.5,0.5-0.5h11.9
		c0.3,0,0.5,0.2,0.5,0.5v1.1C1572.8,1396.7,1572.6,1396.9,1572.3,1396.9z"/>
	<path class="st0" d="M1579.1,1415.8h-1.3c-0.3,0-0.5-0.2-0.5-0.5v-20c0-0.3,0.2-0.5,0.5-0.5h7.2c3.8,0,6.5,2,6.5,6v0.4
		c0,2.6-1.4,4.8-4.5,5.7l4.3,8.1c0.1,0.2,0.2,0.3,0.2,0.4c0,0.2-0.2,0.3-0.3,0.3h-1.7c-0.3,0-0.4-0.2-0.5-0.4l-4.2-8.1h-5v8
		C1579.6,1415.6,1579.4,1415.8,1579.1,1415.8z M1584.9,1405.1c2.2,0,4.3-1.2,4.3-3.8v-0.5c0-3-2.1-3.9-4.3-3.9h-5.3v8.2H1584.9z"/>
</g>
<line class="st4" x1="1528.4" y1="865.5" x2="1528.4" y2="1078.4"/>
<g>
	<defs>
		<rect id="SVGID_5_" x="1469.7" y="1200.3" width="114.4" height="107.6"/>
	</defs>
	<clipPath id="SVGID_2_">
		<use xlink:href="#SVGID_5_"  style="overflow:visible;"/>
	</clipPath>
	<path class="st2" d="M1474.3,1224.2c-0.2-0.1-0.5-0.1-0.7,0c-0.2,0.1-0.3,0.4-0.2,0.6c3.7,16,11.7,29.9,23.9,41.4
		c7.1,6.7,14.2,11.2,19.3,14.1c-8.2-3.1-22.2-7.5-37.4-7.5c-3,0-6,0.2-8.9,0.5c-0.2,0-0.5,0.2-0.5,0.4c-0.1,0.2,0,0.5,0.2,0.7
		c11.6,9.5,24.4,14.3,38,14.3c3.7,0,6.9-0.4,9.4-0.8c-6.5,2.4-17.1,7.4-25.8,17.8c-0.2,0.2-0.2,0.5,0,0.7c0.1,0.2,0.4,0.3,0.7,0.3
		c10.4-2.6,18.8-6.1,25.1-10.4c4.8-3.3,7.1-6.2,8.2-7.7c0.1,2.8-0.1,9.8-0.2,13.5c-0.1,4.7-0.1,4.7,0,4.9c0.2,0.3,1.1,0.8,1.6,0.8
		c0.5,0,1.4-0.4,1.7-0.8c0.1-0.2,0.1-0.2,0-4.6c-0.1-3.8-0.4-11-0.2-13.8c1.1,1.5,3.4,4.4,8.2,7.7c6.3,4.3,14.7,7.8,25.1,10.4
		c0.3,0.1,0.5,0,0.7-0.3c0.1-0.2,0.1-0.5,0-0.7c-8.7-10.4-19.3-15.4-25.8-17.8c2.5,0.4,5.7,0.8,9.4,0.8c13.7,0,26.5-4.8,38-14.3
		c0.2-0.2,0.3-0.4,0.2-0.7c-0.1-0.2-0.3-0.4-0.5-0.4c-2.9-0.4-5.8-0.5-8.9-0.5c-15.2,0-29.2,4.4-37.4,7.5c5-2.8,12.2-7.4,19.3-14.1
		c12.2-11.5,20.2-25.4,23.9-41.4c0.1-0.2,0-0.5-0.2-0.6c-0.2-0.1-0.5-0.2-0.7,0c-28.4,17.1-43,41.8-48.9,52.4
		c1.6-4.8,3.9-12.6,4.8-22.6c1.7-17.6-1-35.6-7.9-53.3c-0.1-0.2-0.3-0.4-0.6-0.4c-0.3,0-0.5,0.2-0.6,0.4
		c-6.9,17.8-9.6,35.7-7.9,53.4c1,10,3.2,17.9,4.8,22.6C1517.2,1266,1502.7,1241.4,1474.3,1224.2"/>
</g>
<polygon class="st1" points="1528.4,846.1 1513.2,872.4 1543.6,872.4 "/>
<polygon class="st1" points="1528.4,1093.8 1543.6,1067.5 1513.2,1067.5 "/>
<line class="st5" x1="602" y1="636.9" x2="602" y2="685.9"/>
<line class="st5" x1="915.7" y1="636.9" x2="915.7" y2="685.9"/>
<line class="st5" x1="1200.1" y1="636.9" x2="1200.1" y2="685.9"/>
<line class="st5" x1="1528.4" y1="636.9" x2="1528.4" y2="685.9"/>
<line class="st5" x1="1843.3" y1="636.9" x2="1843.3" y2="685.9"/>
<line class="st5" x1="2127.7" y1="636.9" x2="2127.7" y2="685.9"/>
<line class="st5" x1="2435.6" y1="636.9" x2="2435.6" y2="685.9"/>
<g>
	<g>
		<path class="st5" d="M602,865.5c0,128.4,56.3,373.9,520.3,373.9H1342"/>
	</g>
	<g>
		<polygon class="st1" points="1363.3,1239.4 1337.1,1254.6 1337.1,1224.2 		"/>
		<path class="st5" d="M915.7,865.5c0,128.4,30.7,373.9,426.3,373.9"/>
	</g>
	<path class="st5" d="M1200.1,865.5c0,128.4,12,373.9,136.9,373.9"/>
</g>
<g>
	<g>
		<path class="st5" d="M2435.6,865.5c0,128.4-56.3,373.9-520.3,373.9h-219.6"/>
	</g>
	<g>
		<polygon class="st1" points="1674.4,1239.4 1700.6,1254.6 1700.6,1224.2 		"/>
		<path class="st5" d="M2127.7,865.5c0,128.4-36.4,373.9-432,373.9"/>
	</g>
	<path class="st5" d="M1843.3,865.5c0,128.4-17.8,373.9-142.7,373.9"/>
</g>
</svg>
