<?xml version="1.0" encoding="utf-8"?>
<!-- Generator: Adobe Illustrator 21.1.0, SVG Export Plug-In . SVG Version: 6.00 Build 0)  -->
<!DOCTYPE svg PUBLIC "-//W3C//DTD SVG 1.1//EN" "http://www.w3.org/Graphics/SVG/1.1/DTD/svg11.dtd">
<svg version="1.1" id="Layer_1" xmlns="http://www.w3.org/2000/svg" xmlns:xlink="http://www.w3.org/1999/xlink" x="0px" y="0px"
	 viewBox="0 0 32 32" enable-background="new 0 0 32 32" xml:space="preserve">
<title>Asset 3</title>
<g id="Layer_2">
	<g id="Layer_1-2">
		<path fill="#888888" d="M30,19.7v10.2h-5.8v-9.1c0-2.2,0-4.9-3-4.9s-3.5,2.4-3.5,4.8v9.2h-5.8V11.3h5.6v2.5h0.1
			c1.1-1.9,3.2-3.1,5.5-3C28.9,10.9,30,14.7,30,19.7z"/>
		<rect x="2.5" y="11.3" fill="#888888" width="5.8" height="18.6"/>
		<path fill="#888888" d="M8.8,5.4c0,1.9-1.5,3.4-3.3,3.4S2,7.3,2,5.4c0-1.9,1.5-3.4,3.3-3.4c0,0,0,0,0,0C7.3,2.1,8.8,3.6,8.8,5.4z"
			/>
	</g>
</g>
</svg>
