<svg xmlns="http://www.w3.org/2000/svg" viewBox="0 0 544.44 448.32"><defs><style>.cls-1{fill:#666;}.cls-2{fill:#4b4e53;}.cls-2,.cls-3{stroke:#4b4e53;stroke-miterlimit:10;stroke-width:0.43px;}.cls-3{fill:none;}</style></defs><title>Asset 1</title><g id="Layer_2" data-name="Layer 2"><g id="Layer_1-2" data-name="Layer 1"><path class="cls-1" d="M217.33,141.39l-.48-.8-1.15-.92a5.48,5.48,0,0,0-.78,1.49c0,.21.58.77.9.76a4.65,4.65,0,0,0,1.51-.54m14.4-52.49-.4-.69c-1.26-.17-2,.38-1.83,2.19l2.23-1.5m44.39-9.51c1.28.16,2.09-.28,2.08-1.55,0-.38-.74-1.13-1-1.07-1.29.38-1.4,1.4-1.13,2.62M217.81,67.09l1.32-1.24c-.48-.43-.9-1.09-1.45-1.22-.35-.08-.89.61-1.34,1l1.47,1.5M207.5,89.44c-.52.6-1.19,1.2-1.12,1.32a3.23,3.23,0,0,0,1.43,1.36c.35.12.94-.49,1.43-.77l-1.74-1.91m40.58-20.8a23.82,23.82,0,0,0-2.37-1.78c-.09-.05-.92.78-.86.88a5.44,5.44,0,0,0,1.42,1.67c.2.14.84-.34,1.81-.77M383.53,225.37a11.73,11.73,0,0,0,1.23-2.52c.06-.33-.55-.79-.86-1.19a7.86,7.86,0,0,0-1.29,1.8c-.12.33.4.89.92,1.91m-89.67-79.71a2.51,2.51,0,0,0,3.24-.41c.18-.16,0-.74,0-1.12-.89.24-1.8.45-2.67.73-.18.06-.27.38-.55.79M308,142.48c-.48,1.06-1,1.66-.95,2.26,0,.38.72.75,1.12,1.12a5.86,5.86,0,0,0,1.2-1.69c.08-.3-.64-.82-1.37-1.7m9,6.46-.45.43,3,3.23c.42-2.26-.28-3.07-2.59-3.66m-32.16,42.35.62-.33c-.53-1.11-1-2.23-1.62-3.31-.09-.17-.56-.23-.83-.19s-.43.46-.38.52c.74,1.1.67,2.83,2.23,3.3M327,204.15l-.36.54c.41.5.72,1.2,1.24,1.44a7,7,0,0,0,2.17.29,6.88,6.88,0,0,0-1.21-1.72,5.48,5.48,0,0,0-1.85-.56m-57.27-57.44c-1.53-2.77-3-2.94-4.6-.76l4.6.76M22.28,305l4.6-1.84c-1.88-1.35-3.83-.63-4.6,1.84M391.7,205.31c.08,1.54,1.09,2.21,2.52,2.35.24,0,.78-.63.76-1,0-1.19-1.48-1.9-3.06-1.6-.05,0-.09.08-.22.21M186.83,56.3l-.7,0a8.67,8.67,0,0,0-1.06,2.21c-.07.41.55,1,.86,1.44a14.25,14.25,0,0,0,1.64-2.26c.13-.26-.47-.88-.74-1.33m206,139.48-2-1.89a9.07,9.07,0,0,0-1.41,1.93c-.07.17.89,1.08,1.4,1.11s1.12-.59,2-1.14m-100.64-5.63L286.9,187c.83,2.24,1.88,4.11,5.29,3.18M208.74,77.74l2,2.44c.3-.52.93-1.12.82-1.53A13.58,13.58,0,0,0,210.23,76l-1.49,1.75M325.87,156c-.65-1.57-2.36-2.84-3.16-2.22a2.14,2.14,0,0,0-.44,1.8c.22,1,2,1.2,3.6.42M210.56,69.9l-1.62-6.07-.65.15c-.8,1.64-.08,3.23.46,4.76.15.43,1,.63,1.81,1.15m17.8-26.25c-.48-1.62-.78-2.86-1.25-4a1.43,1.43,0,0,0-1.19-.55c-.25,0-.6.61-.66,1-.22,1.29,1.05,3,3.11,3.61M18.28,286.54c.83-1.2-.06-4.67-1.44-5.61-.86,1.52-.18,4.16,1.44,5.61m-3.11,1.24a3.73,3.73,0,0,0-2.62-5.7l2.62,5.7M271.87,163.84l-.81.23,1.19,5.18c.48-.27,1.35-.5,1.39-.82a4.68,4.68,0,0,0-1.78-4.58M20.48,289.18c-.65,1.58-1.23,2.78-1.6,4-.12.41.25,1.32.56,1.4a2.13,2.13,0,0,0,1.63-.45c1.37-1.13,1.29-3-.6-5m304.91-78.92c.18-.27.79-.79.83-1.35.07-1.2-1.93-2.68-3.35-2.48a1.62,1.62,0,0,0-1.08,1.09c-.12,1.42,1.5,2.78,3.61,2.73m-25.52-59.16c1-.35,1.6-.53,2.16-.74,1.59-.6,2.11-3.64.73-4.61-.27-.19-1.24,0-1.33.23-.57,1.54-1,3.14-1.57,5.12m34.25,140.62.32.61c.86-.31,2.16-.37,2.5-1a20.14,20.14,0,0,0,1.67-4.79c.11-.43-.38-1-.6-1.53a6.56,6.56,0,0,0-1.16,1.24c-.67,1.24-1.22,2.55-1.84,3.82-.27.55-.59,1.08-.89,1.62M172.76,74c-1.86,1.28-3.46,2.33-5,3.47a1.25,1.25,0,0,0-.09,1.17,1.44,1.44,0,0,0,1,.66c2.13.1,4.41-2.5,4.05-5.3m62.15-8.74a4.79,4.79,0,0,0-1.38,0A2.48,2.48,0,0,0,232,66c-.16.23.24,1.06.59,1.42a3.08,3.08,0,0,0,3.85.56,10.61,10.61,0,0,0,2-1.88c-.83-.27-1.65-.54-2.48-.79a6.09,6.09,0,0,0-1.09,0M336.21,404c2.19.76,4.34,1.64,6.58,2.2.5.12,1.52-.8,1.85-1.47.19-.4-.33-1.45-.82-1.82-1.71-1.31-5.66-1-7.6,1.1M3.17,293.71c1.76-1.4,1.06-2.66.85-3.85-.4-2.23-1.75-4.42-.08-6.73.16-.22-.34-1.24-.75-1.47a6.12,6.12,0,0,0-2.46-.56,2.16,2.16,0,0,0-.46,1.42c.44,2.67.91,5.34,1.52,8a19.8,19.8,0,0,0,1.39,3.21M191.08,54.33c.12.17.17.32.27.36q2.2,1.1,4.41,2.17a.5.5,0,0,0,.36.05c1.52-.76,2,.35,2.8,1.31a1.85,1.85,0,0,0,1.77.07c1.37-1.89-.31-5.11-2.62-5.23-1.32-.07-2.63-.23-4-.31s-2.51.17-3,1.58M332.46,323.18a15.1,15.1,0,0,0-2.43,1.1c-1,.65-1.12,1.73,0,2.26a44.93,44.93,0,0,0,6.48,2.56c1.21.37,1.93-.45,1.69-1.76-.33-1.77-3.39-4.19-5.72-4.16m-10.94-98.36a22.88,22.88,0,0,0-1.61-3.73,1.91,1.91,0,0,0-3-.36,4.06,4.06,0,0,0-1.13,2.67,11.22,11.22,0,0,0,.77,4,3.56,3.56,0,0,0,1.78,2.1c.59.17,1.75-.63,2.2-1.31a12.75,12.75,0,0,0,1-3.35M204.39,111.42c.21-4.14-3-6.73-6.12-5.23-1.49.71-1.74,1.68-.68,3q2.24,2.81,4.57,5.55c.75.88,1.46.79,1.75-.36a29.88,29.88,0,0,0,.48-3m26.22-46.79c1.37-.5,2.41-.8,3.36-1.26a1.86,1.86,0,0,0,.87-3c-1.39-2.11-2.82-4.2-4.37-6.19-.4-.5-1.34-.58-2-.85-.23.79-.82,1.7-.62,2.36a16.57,16.57,0,0,0,1.91,3.44c.45.73.95,1.31-.11,2.06-.35.25-.38,1.28-.21,1.86s.78,1,1.2,1.56m67.83,155.59-.08-.27c-.44.15-1.15.17-1.27.46a10.11,10.11,0,0,0-1.13,3.49,3.19,3.19,0,0,0,1.14,2.55c.63.34,1.87-.16,2.7-.57.63-.31,1-1.1,1.54-1.63,1-1,2-2,3.07-2.94.46-.43,1.15-.71,1.41-1.22s.44-1.58.16-1.82A2.27,2.27,0,0,0,304,218c-1.48.57-2.86,1.4-4.3,2.07a4.48,4.48,0,0,1-1.28.18M194,66.24c.45-.18,1.46-.28,1.59-.68a12.08,12.08,0,0,0,1-4.71c-.05-.66-1.72-1.33-2.75-1.72-2.21-.83-4.46.43-5.32,2.84-.56,1.57.45,2.89,2.88,3.68.77.25,1.59.36,2.65.59M2.56,268.19a9.79,9.79,0,0,0-1.19,1.72,16.48,16.48,0,0,0-.88,2.86,9.39,9.39,0,0,0-.33,2.31c0,1.16.2,2.32.32,3.49l-.48.1a1.92,1.92,0,0,0,3.19.55,52.41,52.41,0,0,0,4.75-4.6c.39-.41.41-1.17.6-1.77a7.75,7.75,0,0,0-2-.08,14,14,0,0,0-2.34,1l-.26-.52c.33-.35.8-.64,1-1.05a1.83,1.83,0,0,0,0-1.44,27.3,27.3,0,0,0-2.24-2.55m467.23,84a3.5,3.5,0,0,0,.14,5c2.06,1.88,4.67,1.42,7,2,.52.12,1.16-.36,1.76-.51a10.87,10.87,0,0,1,3.17-.66,2.35,2.35,0,0,0,2.79-1.92,9,9,0,0,0,.45-1.84,19.42,19.42,0,0,0-.13-2.39,25.83,25.83,0,0,0-2.57.83c-.38.16-.64.6-.93.93A3.45,3.45,0,0,1,477.7,355a3.14,3.14,0,0,0-2.41.57c-1.66,1.33-3.44,1-4.37-1l-1.12-2.41M236,98.69a8.13,8.13,0,0,0,2.52-.63c.58-.36,1.28-1.36,1.15-1.87-.69-2.55-1.46-5.13-3.94-6.68-1.75-1.09-3.11-.71-4,1.14-.49,1-1.2,1.93-1.68,3-.18.39-.2,1.17,0,1.38,1.75,1.51,2.93,4,5.91,3.7M475.27,322.5l-.15-.72-2.49-.13c-1.82-.09-3.64-.16-5.46-.28a29.87,29.87,0,0,0-5.22-.33,58.27,58.27,0,0,0-7.1,1.57c-.36.09-.64.49-1,.75.26.31.47.83.79.9,2.52.58,5,1.2,7.59,1.56,4.08.56,7.81-1,11.56-2.3a6.18,6.18,0,0,0,1.44-1M312.19,160.58c1,2.37,1.78,4.41,2.71,6.38.15.32.88.52,1.34.51,2.76,0,4.64-1.87,4.36-4.63a34,34,0,0,0-1.41-6.62c-.74-2.37-2.83-3-4.43-1.07-1.25,1.48-1.74,3.61-2.56,5.43m179.48,189c-.09,3.87.88,5.34,3.77,6.28,2.21.73,2.77.42,4.88-2.69.32-.47.66-.93,1-1.41,1.13-1.8.67-3.3-1.36-3.76a2.58,2.58,0,0,1-2.23-2.78c-.12-1.88-.55-3.68-2.32-4.72a9.86,9.86,0,0,0-2.21-.68,14.89,14.89,0,0,0-.6,2.29c-.16,1.49-.12,3-.29,4.49a29.84,29.84,0,0,1-.59,3M221.34,152.94c-.21,1.24-.11,2.43-.62,3.26-.94,1.54-.94,2.58.65,3.4,2.13,1.1,4.31,2.1,6.49,3.09a7.81,7.81,0,0,0,2.33.75c1.47.16,3.45-1.49,3.4-2.74-.07-1.68-1.34-1.54-2.48-1.58-.1,0-.2-.12-.47-.3.61-2.48-.63-4.45-2.27-6.21a24.59,24.59,0,0,0-3.22-2.88c-.89-.66-1.9,0-1.93,1.14,0,.67,0,1.33,0,2.07Zm63.49-51.86c-3-.5-4.1.89-3.14,3.64.35,1,.78,2,1.17,3,1.06,2.74,3.21,3.54,5.94,2.47a48.77,48.77,0,0,1,5.05-1.39,23.05,23.05,0,0,0,2.52-.74c1.38-.55,1.78-1.57.58-2.58a73,73,0,0,0-7-5.3c-.63-.41-1.89.06-2.84.23a20.86,20.86,0,0,0-2.27.66M213.05,52.21l-.82.91.86.78-.32,3.38-3.86-1.74a9.81,9.81,0,0,0,.68,2.67c.92,1.39,2.4,1.48,3.92,1.32A6,6,0,0,1,219.85,63c.55,1.11,1.18,2.57,2.47,2.1.76-.28,1.06-1.92,1.51-3a2.54,2.54,0,0,0,0-.94c0-1.44-.08-2.89-.08-4.33a3.47,3.47,0,0,0-2.55-3.57A22.87,22.87,0,0,1,219,51.76c-.56-.29-1.45-.68-1.85-.44-1.09.65-1.48.14-1.89-.7a13.7,13.7,0,0,0-.94-1.86,2.86,2.86,0,0,0-3.84-.94c-.39.28-.76,1.31-.6,1.5a39.46,39.46,0,0,0,3.2,2.9M179.27,63a6,6,0,0,1-1.34-.64c-1.74-1.53-3.53-1.43-5.41-.28a13.59,13.59,0,0,1-2.34,1.25c-1.26.47-2.58.77-3.86,1.17-.57.18-1.42.27-1.64.67-1,1.85-2.71,2.48-4.49,3.22a3.35,3.35,0,0,0-1.54,2.23c-.25,1.29.78,1.89,1.95,2.1.56.1,1.15,0,1.69.18a2.16,2.16,0,0,1,1.2.62c1,1.46,1.77,1.49,2.85,0l1.42-1.95,1.89,1.54c.76-1.29,1.44-2.48,2.15-3.64,1.09-1.78,1.64-1.85,3.08-.36a2.85,2.85,0,0,0,3.78.64,2.7,2.7,0,0,0,1.46-3.35,1.6,1.6,0,0,1,.47-1.37c1.68-1.25,1.56-2.82-.44-3.9L179.27,63M226.2,89.43l2.55-.2c-.1-.59,0-1.18-.28-1.51-1.1-1.39-.64-2.73-.34-4.28a13.1,13.1,0,0,0-.26-4.95c-.11-.56-1.38-1.44-1.78-1.28-1.81.69-3-.17-4.3-1.13A1.87,1.87,0,0,0,220,76a2.35,2.35,0,0,0-.17,1.87c.17.64.87,1.16,1,1.8a2.66,2.66,0,0,1-.38,2c-.22.27-1.25.07-1.8-.19s-1.15-1.08-1.82-1.32a5.92,5.92,0,0,0-2.1.08c.11.63,0,1.49.36,1.84,1.56,1.44,1.2,2.36-.49,3.29a1.72,1.72,0,0,0-.58,1.42c0,.25.77.56,1.22.62.81.1,1.66-.08,2.47.05a23.47,23.47,0,0,1,2.75.77,17.16,17.16,0,0,1-1.67,2.15c-1.42,1.35-1.54,2.75.16,3.71a9.21,9.21,0,0,0,4.13.85,32.32,32.32,0,0,0,4.71-.56l-1.58-5m6.36,18.44c.2,2,.3,3.72.57,5.42.65,4.11,1.42,8.21,2.07,12.32.21,1.33,1.05,1.44,1.9,1a8.38,8.38,0,0,0,2.63-2.12c1.93-2.52,1.58-4.11-1-5.8-.18-.12-.26-.38-.39-.57l.14-.59a29.11,29.11,0,0,1,3.86.52c2.54.68,3.68-.09,4.05-2.66a5.31,5.31,0,0,1,1.32-3,9.31,9.31,0,0,0,2.65-4.9c.33-1.32-.18-1.84-1.35-1.84-1.52,0-3,.2-4.55.2-.56,0-1.37-.11-1.64-.48-1.75-2.46-3.76-.88-5.65-.42-1.72.42-3,1.3-2.32,3.6l-2.25-.67M18.46,335.76A6.3,6.3,0,0,1,23,340.31a5.85,5.85,0,0,0,1.92,2.45A5.57,5.57,0,0,1,27,346.62a6.87,6.87,0,0,0,1.6,3,64.8,64.8,0,0,0,4.29,4.95,10.46,10.46,0,0,0,2.2,1.39,8.33,8.33,0,0,0,1.21-2.68,16.46,16.46,0,0,0-.54-3.93c-.61-3.27-.71-6.75-4-8.86a2.41,2.41,0,0,1-.87-1.43c-.52-2.57-1.1-5.15-1.38-7.76-.33-3.07-1.64-5.25-4.64-6a8.69,8.69,0,0,1-5.69-4.54,16.75,16.75,0,0,0-4.37-4.28,2.55,2.55,0,0,0-2.32.55,2.08,2.08,0,0,0,1.58,2.76c.62.17,1.25.31,1.88.46a2.21,2.21,0,0,1-1.2.77,2,2,0,0,0-1,3.31,5.86,5.86,0,0,0,1.43.9c1.11.68,2.46,1.13,1.92,3-.1.33.82,1,1.32,1.44s1.23.61,1.22.9c-.05,1.7,1.41,3.65-1.21,5.15M227.93,111.15c.26-1.42.83-2.86.5-3.1a6,6,0,0,0-3-.8c-.57,0-1.16.46-1.77.6s-1.5.41-1.78.13c-1.55-1.54-2.46-.94-3.28.56a3.57,3.57,0,0,0-2.27.73c-.44.46-.42,1.37-.67,2.33l2.16,1.42c-.25.35-.44.58-.6.84s-.28.54-.4.78c1.67,1.58,1.66,1.58-.29,2.55-.26.13-.43.44-.68.6-.46.31-1.11.91-1.4.77a3.66,3.66,0,0,1-1.41-1.48,8.37,8.37,0,0,1-.59-1.84l-.8-.08c-.38,1.31-1.08,2.62-1.06,3.93a11.89,11.89,0,0,0,1.16,4.38c.27.61,1.2,1,1.91,1.34,1.14.56,2.68.68,3.44,1.54a60.21,60.21,0,0,1,4.24,6.05c.61.89,1.29,1.69,2.44.75.95-.77,1.79-1.57.31-2.68-.32-.24-.42-.76-.63-1.14a2,2,0,0,1,1.6.19c2,1.26,3.75,1.28,5.21,0s1.51-3.1.55-5.22a2.05,2.05,0,0,1,.2-1.76c1.09-1.42,1-1.81-.57-2.68a2.24,2.24,0,0,1-1-1.32c-.57-2.42-1.37-2.91-3.71-2.17-.2.06-.46-.07-.59-.09-.17-2.37,4.39-2.42,2.76-5.14m-34.28-20.4c0-.05.16.08.19.24.24,1.75.84,2.55,2.53,1.14.21-.17.82.07,1.21.21a19.63,19.63,0,0,0,2.12.8c1.79.38,2.17-.12,1.91-1.86A3.36,3.36,0,0,1,202,88.9a7.38,7.38,0,0,0,1.45-5.74,7.46,7.46,0,0,0-.84-2.05l-.63.11-.68,3.33-.85-1.83-1,1.63-.44-.17a9.61,9.61,0,0,0,.58-2.41,4.82,4.82,0,0,0-.75-2c-.3-.57-.9-1-1-1.62-.24-1-.15-2.16-.36-3.21-.12-.63-.42-1.52-.88-1.69a2.42,2.42,0,0,0-1.84.59,3.76,3.76,0,0,0-1.19,4.61c.22.64.56,1.84.38,1.94-2.17,1.18-.76,2.79-.65,4.24a3.56,3.56,0,0,1-.34,1c-2.2-1.68-4.9-2.41-5.92-5.32l.73-1.11c-.49-.86-1.26-1.6-1.31-2.39-.15-2.27-2.84-2.28-3.4-4.11,0-.12-.46-.11-.7-.2-.8-.29-1.58-.63-2.39-.87a16.21,16.21,0,0,0-1.85-.33,6.84,6.84,0,0,0,.34,2.07c.21.43.93.59,1.38.94s.88.78,1.32,1.18q0,.58,0,1.17c-3.25-3.44-5-1.17-6.58.92-.47.63.16,2.07.34,3.53a14.87,14.87,0,0,0-2.36.18c-.67.14-1.68.45-1.82.9a2.62,2.62,0,0,0,.71,2,27.22,27.22,0,0,0,2.78,2.46l1.21-.91c.54.61,1.06,1.61,1.44,1.56A5,5,0,0,0,179,86.11a14,14,0,0,0,1.53-1.68c.58,3.22.58,3.23,3.59,3.44.76.06,1.53,0,2.28.16a5.65,5.65,0,0,1,1.24.5,71.63,71.63,0,0,1-8.3,1.75,9.61,9.61,0,0,0-1.68.62c.35.54.58,1.29,1.08,1.6a8.55,8.55,0,0,0,6.94,1.18c2.65-.74,5.18-1.87,8-2.92M310.77,208.28c0-2.24-1.28-3.38-4.16-3.27-1.88.07-2.91-.43-3.48-2.32a5.19,5.19,0,0,0-4.24-3.71,8.65,8.65,0,0,1-5.09-2.69,3.12,3.12,0,0,0-3.4-1.06c-.59.17-1.55-.49-2.17-1s-1.26-1.25-2-.27c-1.29,1.64-2,.68-2.63-.54s-.86-2.53-1.47-3.7a1.81,1.81,0,0,0-1.47-.81c-.45.06-.93.7-1.18,1.2a3,3,0,0,0-.11,1.5c.24,3,.39,6,.8,8.92.36,2.61,1,5.19,1.58,7.76.3,1.3.12,2.17-1.29,2.7-.58.22-.93,1-1.39,1.57.51.4,1,.83,1.54,1.2a50.83,50.83,0,0,1,4.57,3.16c1.29,1.12,2.63,1.56,3.86.39a21,21,0,0,0,2.27-3.39c.51-.74,1-1.74,1.72-2a2.48,2.48,0,0,0,1.81-2.53c.12-2,1.77-2.74,3.49-1.66a4.57,4.57,0,0,0,1.16.61c2.79.76,5.61,1.45,8.4,2.21,2.16.59,2.94,0,2.91-2.25M278.39,88.9a25.75,25.75,0,0,1-.37-3.1c0-.8-2.84-4.17-3.64-4.1-.23,0-.44.23-.68.28a19.35,19.35,0,0,1-3,.61c-1.2.08-2.42-.19-3.61-.06-2.41.27-4.86,1-5.7,3.46-.63,1.88-1.41,1.44-2.63,1a17,17,0,0,0-3.38-.85,26.87,26.87,0,0,0-3.38,0l-.45,1.28-.53.52c0-3.32-2-3.91-4.55-3.84A20.47,20.47,0,0,1,248,82.31c.24-.32.46-1,.3-1.21a38.9,38.9,0,0,0-3.63-3.41,2.56,2.56,0,0,0-1.64-.19,10.23,10.23,0,0,0-2,.44c-1.43.44-2,0-2.31-1.55A5.18,5.18,0,0,0,237,73.62a4.09,4.09,0,0,0-5.4-.21c-2.33,1.55-2.5,2.22-.47,4.05.22.2.59.55.53.68-.79,1.83.6,1.76,1.68,2.05a2.76,2.76,0,0,1,1.25.75c1.42,1.55,2.15,1.58,3.6,0,.94-1,1.79-1,2.39.21a12.15,12.15,0,0,1,1.06,3.22c.57,3.23,1,6.49,1.54,9.73.41,2.61,2.12,3.88,4.7,3.44,1.12-.19,2.2-.59,3.32-.76a7.45,7.45,0,0,1,3-.15c4.12,1.11,8.19.44,12.27-.08a2,2,0,0,0,1.31-.68c1.13-1.71,2.63-1.16,4.24-1.05a13,13,0,0,0,5.13-.64c.71-.25,1.18-1.72,1.38-2.71a8.12,8.12,0,0,0-.15-2.52M158.81,92.82c-.91-1.64-1.74-3.11-2.53-4.59-1.25-2.31-3.12-3.24-5.61-2.49a3.31,3.31,0,0,1-3.36-.48c-1-.82-1.76-.37-2.13.78a5.16,5.16,0,0,0-.37,1.66c.11,3.75-2.4,6.4-3.94,9.45a.92.92,0,0,1-.79.32c-1.33-.21-1.24.59-1.23,1.5a4,4,0,0,1-2.66,4.29c-1.36.6-3.84,1.08-3,3.71-2.39.71-2.65,1.29-1.23,3.28a9.23,9.23,0,0,1,1.91,5.81c-.05,2.21.92,2.85,3.16,2.71a23.55,23.55,0,0,1,3.94,0c2.28.25,4-.28,4.79-2.67a5.27,5.27,0,0,1,.84-1.69c.41-.51,1.08-1.28,1.53-1.22,2.87.42,3.94-1.73,5.46-3.4a15.73,15.73,0,0,1,3.9-3.14,32.9,32.9,0,0,1,5.26-2.07,10.47,10.47,0,0,1,2.92-.67c4.31-.17,5.48-2.1,3.47-5.88-.35-.66-.92-1.2-1.32-1.84-.58-.93-1-1.93-1.66-2.83-.43-.63-1-1.53-1.55-1.6s-1.28.72-1.83,1.23a8.56,8.56,0,0,0-1,1.48l-.4-.19-.16-3-2.34,1.6m366.09,223,.7.19a23.65,23.65,0,0,1-.29,3.13c-.17.79-.74,1.48-1,2.26a5.07,5.07,0,0,0,.06,1.59,5.07,5.07,0,0,0,1.55-.15c1.79-.77,2.26-2.25,2-4.07s-.38-3.52,1.16-4.94c.37-.34.35-1.17.37-1.78s-.18-1.53-.12-2.28a8.11,8.11,0,0,1,.51-1.73,4.94,4.94,0,0,1,1.67.68,30,30,0,0,1,3.16,3.51c.92,1.23,1.19,3.26,3.58,2.3.29-.12.94.53,1.38.88s.71,1,1.1,1a14,14,0,0,0,3.44-.21c.16,0,.34-1.11.18-1.6-.85-2.64-1.78-5.26-2.74-7.86a9.93,9.93,0,0,0-1.21-2.33c-.25-.35-.83-.46-1.26-.68a6.66,6.66,0,0,0-.52,1.3,16.44,16.44,0,0,0-.13,1.94l-.73.09-1.16-5.65-.69,0c-.15.68-.34,1.35-.44,2a13.74,13.74,0,0,1-.39,3c-.23.59-1.09.94-1.67,1.4a7.14,7.14,0,0,1-.9-2.07c-.08-.85.53-1.83.31-2.6-.56-1.95-.81-3.73.45-5.52.19-.27-.26-1-.42-1.5-.5.16-1.2.16-1.46.51-.68.9-1.14,2-1.76,2.92a15.2,15.2,0,0,1-1.36,1.58c-.55-1.16-.8-2.57-1.34-2.68-1.65-.35-1.6-1.34-1.81-2.62A4.24,4.24,0,0,0,523.5,293a3.76,3.76,0,0,0-3.29.31,21.51,21.51,0,0,0-3.41,3.75c-.42.5-.78,1.05-1.15,1.56-.33-.18-.48-.21-.54-.3-1.59-2.42-1.55-2.37-3.59-.4a1.91,1.91,0,0,1-1.83,0,3.76,3.76,0,0,1-.69-2.55c.4-1.63-.37-2.11-1.66-2.32-2.08-.33-3.85,1.16-4.29,3.6-.21,1.13-.38,2.26-.57,3.39H502c-.13-.52-.31-1-.39-1.57-.32-2.06-.61-4.13-.9-6.2-.37-2.63-2.15-5.06-1.09-7.91.13-.36-.21-1-.5-1.38-.85-1.11-2.65-1.62-2.15-3.54a5.73,5.73,0,0,0-2.09-.12c-.33.1-.54,1-.6,1.51-.3,2.84-.24,5.75-.86,8.51a12.38,12.38,0,0,0,1.33,8.43,29.58,29.58,0,0,1,1.07,3.22c1,3-.86,6.41,1.39,9.21a.38.38,0,0,1,0,.36c-1.2,1.59-.33,3.11,0,4.69a1.93,1.93,0,0,1-.78,1.68c-1.7.74-2,2-.47,3.47a5.12,5.12,0,0,0,.75-.55c.78-.83,1.8-1.73,2.71-.71.49.55.28,2,0,2.87-.36,1.12-1.2,2.08-1.68,3.18a3.16,3.16,0,0,0,1.35,4.1c1.47.88,2.56.12,3.51-.91a7.9,7.9,0,0,0,1.42-2,4.08,4.08,0,0,1,3.83-2.38c2.73-.05,4.59-2,6.84-2.93,1.38-.6,2.1-2.69,3.17-4.08a4.85,4.85,0,0,1,1.23-1c.05,0,.53.41.66.7.92,2,2.67,2.29,4.06.58.37-.45.71-.93,1.06-1.4M170.27,112.22c.64-.59,1.29-1.16,1.91-1.77a3.15,3.15,0,0,0,.44-4c-.7-1.36-1.93-1.22-3.16-.94a25.18,25.18,0,0,1-4.07.89,7,7,0,0,0-4.54,2.09,11.09,11.09,0,0,1-3.37,2.41c-1.25.46-1.92.93-2,2.31a1.88,1.88,0,0,1-1.2,1.33c-1.3.19-2.36.43-2.61,2s1.09,1.72,2.06,2.18c.09,0,.11.2.19.34l-.31.43-1.37,1.79c.81.23,1.62.47,2.44.68.17,0,.38-.06.57,0,2.2.27,4.44.47,6.08,2.51a13.69,13.69,0,0,1-4,.7c-1.7.08-3.43-.05-5.1.17a2.41,2.41,0,0,0-1.53,1.46,11.72,11.72,0,0,0-.22,2.94,1.43,1.43,0,0,0,1.16,1.17c4.12.92,8.26,1.76,12.4,2.62a.9.9,0,0,0,.38,0c3.63-.85,5.8,1.6,8.11,3.64a2,2,0,0,1,.54,1.65c-.08.37-.84.79-1.32.83-2.12.16-4.15,0-5.81-1.66a3.7,3.7,0,0,0-2.3-1.15,86.66,86.66,0,0,0-10.62.38c-2.57.31-3.35,2-2.48,4.5a10.44,10.44,0,0,0,8.48,7.06c3.19.62,3.38.88,2.45,4-1,3.48-.17,5.27,3.43,5.58,4.24.36,8.53,1.37,12.77-.65,3.8-1.81,8.22-2.14,11.71-4.79a1.55,1.55,0,0,1,1.43-.09c1.21.81,2.67,1.55,3.41,2.72,1.6,2.54,4.06,3.31,6.63,3.51a17.11,17.11,0,0,0,5.87-1c1.61-.46,1-2.14,1.21-3.31a4.9,4.9,0,0,0-.17-1.51,6.13,6.13,0,0,0-1.91.31,7.58,7.58,0,0,0-1.54,1.41l-.66-.23c1.2-1.28,2-2.59.18-4.39l2.69.28.58-1.84,1.72,1.37c.91-.33,1.51-.57,2.13-.75s1.76-.19,1.82-.46a6.19,6.19,0,0,0-.15-2.63c-.1-.43-.82-.73-.88-1.14-.34-2.6-2.42-3.94-4-5.61-.29-.31-1.16,0-1.77-.1s-1.66.06-1.92-.31c-1.2-1.74-2.2-3.63-3.34-5.59l1.84-.45a25,25,0,0,0,0-3.7c-.38-2.4-1.51-4.61-.17-7.25.66-1.31-.11-3.37-.33-5.08,0-.35-.51-.66-.82-1a21.11,21.11,0,0,1-3.32-3.35c-.79-1.25-1.46-2-2.59-1.39l-1.89-1.43-1,1.72c-.75.72-1.63,1.17-1.65,1.67-.09,1.78-.63,3.69.87,5.26a1.37,1.37,0,0,1,.13,1.3c-1.22,1.13-.77,2.41-.56,3.73a5.79,5.79,0,0,1-.08,2,.79.79,0,0,1-1.56,0,23.33,23.33,0,0,1-1.15-5.55c0-2.8-1.46-4.95-2.46-7.31a1.52,1.52,0,0,0-1.25-.56c-.25,0-.61.59-.68,1-.14.74-.1,1.52-.18,2.27-.14,1.18-.49,1.73-1.86,1a3.29,3.29,0,0,0-2.35.35c-.69.3-1.22,1.39-2,.2s0-1.64.92-2c1.28-.45,1.32-1.38.64-2.24a8.11,8.11,0,0,0-2.36-2.11c-1.51-.84-2.47-.38-3.09,1.23-.81,2.1-1.63,2.21-3.46.31m101.09,5.35,2.43,5.38-.45.31-3.69-3c-1.12,2.09-.36,5.94,1.47,6.38,3.23.78,2.78,3.78,4,5.72.25.38-.38,1.33-.71,2.32-.62-.69-.89-.94-1.1-1.24-1.34-1.9-1.59-1.9-3.25-.16-.53.55-1.15,1-2.09,1.83,0-3.39,3.36-3.28,4-4.77l-5-5.1c-3.07-3.12-1.89-7.5-3.32-11.11,0-.1,0-.25.07-.37.7-2.67.9-5.55,3.52-7.35.37-.25.45-1.29.27-1.82-.1-.29-1.05-.43-1.61-.4a22.79,22.79,0,0,0-4.14.46,6.19,6.19,0,0,0-3,1.36c-2.55,2.65-4.63,5.62-4.72,9.53,0,.56,0,1.37-.33,1.64-1.72,1.42-.73,2.93-.4,4.49.2.93.42,2.19,0,2.84-.86,1.24-.56,2.18-.11,3.36a3.84,3.84,0,0,1,.26,2.45c-.46,1.18,0,1.8.93,2,2,.48,4.09.78,6.14,1.14a16.49,16.49,0,0,1,2.77.45c.48.17.78.87,1.16,1.32a6.22,6.22,0,0,1-2.12.73c-.62,0-1.19-.86-1.82-.91a3.35,3.35,0,0,0-2.34.6c-.3.29,0,1.47.35,2.13s1,1.13,1.42,1.78c1.8,2.91,4.08,3.71,7.19,2,.42-.24,1.73.15,1.83.49.5,1.64,1.73,1.65,3,1.73,4.68.3,9.36.61,14,.9a13.15,13.15,0,0,0,1.95-.26l-2.46-2.17.23-.45,6.67,3,.41-.58L291,141c1,.08,1.57.14,2.19.17a25.52,25.52,0,0,0,4.67.18c.83-.11,2.08-.94,2.2-1.61a5,5,0,0,0-.91-3c-.47-.78-1.45-1.24-2-2-.3-.4-.19-1.11-.26-1.67.5.14,1.12.13,1.47.43,2.29,2,4.49,4.07,6.78,6.05.6.52,1.58,1.31,2.05,1.12,1.79-.7,2.9.44,4.19,1.14,2.72,1.47,2.73,1.83.78,4.1-.41.47-.23,1.46-.31,2.21a16.52,16.52,0,0,0,2-.28c.26-.06.44-.44.64-.68,2.5-3,4.18-2.84,6,.57a11.9,11.9,0,0,0,1.38,1.57l1.08-2.15.59,0c.08,3.91,2.88,4.22,5.52,4.83.41.1.78.74,1,1.21,1.08,2.43,2.26,3.08,4.91,2.58,1.84-.35,2.89.32,3.29,2.29-1-.22-1.89-.38-2.78-.62-1.13-.3-1.71.17-1.43,1.23a4.74,4.74,0,0,1-.61,3.53,3.82,3.82,0,0,0,.33,3.09c.3.51,1.61.53,2.48.59a18.31,18.31,0,0,0,2.25-.27c3.22-.2,3.57-.57,3.28-3.78.56,0,1.31-.23,1.61,0,2.09,1.84,4.24,1.41,6.56.57.43-.16,1.73.65,1.74,1a11,11,0,0,1-.59,4c-.15.43-1.41.41-2.12.69a10.68,10.68,0,0,0-1.82,1c-.56.35-1.06.79-1.69,1.28-.26-.52-.41-.79-.52-1.07-1.41-3.53-1.4-3.52-4.93-2.6a2.7,2.7,0,0,1-.76.08c-3.61-.1-6,1.94-7.74,4.73-1.63,2.6-1.11,4.15,1.38,5.14,3.3,1.32,3.32,3.4.65,5.65s-5.77,2.54-8.76,3.48c-1.08.34-2.39-.07-3.6-.06a1.88,1.88,0,0,0-2.1,1.72c-.26,1.31-1,2.52-1.28,3.82s-.6,2.77-.08,3.74c1.66,3.12,5,4.23,8.43,3.06a6.08,6.08,0,0,0,2.93-1.84,3.39,3.39,0,0,1,3.15-1.65c1.14,0,2.57.54,3.19-1s-.74-1.82-1.52-2.5c-.09-.08-.24-.18-.25-.28,0-.45,0-.91,0-1.37.4,0,.92-.12,1.18.08a15.56,15.56,0,0,1,1.77,1.7c.73.75,1.34,1,2.22.06a1.92,1.92,0,0,1,1.81,0c1.6,1,3.1,2.18,4.61,3.34a14.48,14.48,0,0,1,3.17,2.7c.88,1.24,1.47,2,2.94.82.32-.25,1.05,0,1.6.06-.06.46-.13.92-.17,1.38s-.24,1.1,0,1.31c1.11,1.08,2.33,1.91,4.06,1.56a9.55,9.55,0,0,1,3.14-.21c2.53.35,4.67,2.28,7.43,1.83.34-.06.75.5,1.16.58,2,.39,4,1.07,6.05,1,3.52-.14,7-.74,10.53-1.2a10.62,10.62,0,0,0,2-.65c-.38-.81-.54-2-1.17-2.35a35.77,35.77,0,0,0-5.15-2.06c-.19-.07-.49.17-.72.14a18.4,18.4,0,0,1-2.76-.39,22.77,22.77,0,0,1-2.8-1c-.64-.26-1.51-.41-1.83-.9-1.27-1.93-3.16-2.62-5.26-3.05a5.6,5.6,0,0,1-1.6-.57c-.34-.19-.85-.69-.78-.88.14-.4.59-.94.94-1a7.14,7.14,0,0,1,2.4.27,21.64,21.64,0,0,1,2.58,1.1l-1.12-2.68c.91.44,1.37.71,1.86.9a50.85,50.85,0,0,0,6.9,2.69,67.67,67.67,0,0,0,7.84,1c1,.12,1.87-.24,1.46-1.27a30.71,30.71,0,0,0-2.85-5.54,24.76,24.76,0,0,0-3.15-3.32l.51-.74,3.53,1.73c-.09-.51,0-1-.23-1.16-1.49-1.11-3-2.2-4.56-3.2-.93-.6-2.67-.89-2.81-1.57a4.7,4.7,0,0,0-4-4c-.06,0-.1-.08-.15-.11-2.18-1.68-2.18-1.68-3.2.75,0,.08-.2.09-.08,0-1-.53-1.82-1.31-2.69-1.37-2.29-.14-3.47-1.41-4.5-3.26a7.6,7.6,0,0,0-2.34-2.15c-1.33-1-2.77-1.76-4.1-2.72-.29-.21-.31-.78-.53-1.4l3.49.73.18-.39-2.78-2.81.31-.39h2.37l.36-.43L358.54,160c1.48-.82,2.87-.31,4.16.34s2.19,1.56,3.68.8c.23-.12.83.23,1.1.51,1.65,1.7,1.85,1.66,2.75-.63a8.9,8.9,0,0,1,.74-1.13c.32,1,.58,1.59.7,2.22a8.62,8.62,0,0,0,7.52,6.57c1.37.09,2.08-.68,1.73-2a7.09,7.09,0,0,0-.87-1.67c-1.09-1.85-.84-3,.68-4.49a4,4,0,0,0,1-2.12,32.29,32.29,0,0,0,.21-3.79,4.87,4.87,0,0,1-1.28-.55,3,3,0,0,1-1-1.27c-.08-.18.28-.73.55-.84.9-.37,2.1-.34,1.41-2-.39-.91-.07-2.48-.66-2.89a23.06,23.06,0,0,0-4.66-2l-.3.56,1.2,2.39c-2.9-1.53-3.58.45-4.42,2.77l-1.16-5.14-.81.07-1,3.39c-1-2.32-2.11-1.25-3.45-.29l.49-2.42c-2-.71-2-5-5.57-2.86l-.45-2.64h-.48c-.12.63-.28,1.26-.33,1.9s0,1.33,0,2.28c-1.47-.83-2.62-2.6-3.78-.81l-5.47-1.51.92-2.47-.4-.5a20,20,0,0,1-4.3,1.55,25.15,25.15,0,0,1-4.75-.34c-.29,0-.59.23-.9.26a4.53,4.53,0,0,1-1.13-.32l5.22-3.26-5.52-2,0-.46a25.53,25.53,0,0,0,3.25,0,12.32,12.32,0,0,0,3.37-.87c.38-.17.63-1.08.58-1.62,0-.26-.95-.69-1.38-.6-2.63.53-5.24,1.2-7.86,1.77a10.59,10.59,0,0,1-1.83.09,6.81,6.81,0,0,1,1.26-1.36c.84-.52,1.83-.79,2.68-1.3s1.68-1.39,2.64-1.87,1.35-1.12.46-2c-1.26-1.25-2.54-2.48-3.87-3.65a7.32,7.32,0,0,0-1.61-.83c-.26.53-.57,1.05-.77,1.6-.69,1.88-1.35,3.77-2,5.65l-.54-.16a16.41,16.41,0,0,0,.25-2.4,2,2,0,0,0-.57-1.44c-.3-.18-1,.15-1.45.38a8.23,8.23,0,0,0-1.23.92l-.42-.43c.42-.45.81-.93,1.26-1.35a16.19,16.19,0,0,0,2.22-2.06,2.81,2.81,0,0,0,.36-2.07c-.07-.31-1-.51-1.62-.58a12.57,12.57,0,0,0-2.28,0c-3.5.22-5.05,2.52-4,5.84a20.51,20.51,0,0,1,.45,2.36c-2.35-2.2-2.63-3.71-1.53-6.22a2.35,2.35,0,0,0,.32-.88,8.52,8.52,0,0,0-.26-1.42c-.51.13-1.15.12-1.51.43-.7.63-1.19,1.49-1.87,2.15a5.52,5.52,0,0,1-1.43.75c-.2-.56-.73-1.3-.54-1.65a15,15,0,0,1,1.87-2.22c.52-.63,1.5-1.51,1.34-1.92a3,3,0,0,0-2-1.7,24.41,24.41,0,0,0-5.32-.09c-1.53.11-2,1.07-1.41,2.57.28.73.61,1.44.87,2.06h-2.58l-.3-3.5-1.76.72-.64-2.32c-2.94,1.33-.93,4.06-1.85,5.9-1.47-1.51-1.65-3.5-.58-5.61,1.5-3,1.48-3-1-5.15-.73-.61-1.39-1.31-2.13-1.9-1.16-.92-2.27-.72-3.49.06a9.21,9.21,0,0,1-2.84,1c-1.77.41-3.6.61-5.34,1.11-.47.13-.72,1-1.07,1.57a11.22,11.22,0,0,0,1.52.86c.72.28,1.49.43,2.23.64l-.17.84-3.91-.25-.09.52,1.86,2.16-1.75.17.18,1.41-.55.33c-.48-.66-.94-1.33-1.44-2s-1-1.15-1.51-1.72c-.45.64-.93,1.25-1.35,1.91s-.81,1.41-1.21,2.11a65.31,65.31,0,0,1-3-7.78,22.05,22.05,0,0,0-1.26-3.14c-.81-1.55-1.86-3-2.58-4.55s-1.51-1.93-3.12-1.27a12.17,12.17,0,0,1-3.6.59c-1.08.09-1.54.47-1.16,1.57.24.7.46,1.42.8,2.49l-2.46-.68a17.27,17.27,0,0,0-1.19,1.26c-.48.62-1.27,1.29-1.27,1.94,0,1.15.95,1.63,2.13,1.7a10.84,10.84,0,0,1,2.24.71,6.33,6.33,0,0,1-1.12.71c-.9.23-1.81.41-2.72.61.27.87.6,1.72.79,2.6.22,1,.72,1.41,1.75,1.06a9.17,9.17,0,0,1,1.14-.27m-238,211.62c.56.3.92.53,1.3.71,1.89.83,2,1.54.55,3-1.31,1.32-1.16,2,.23,3.26a6.5,6.5,0,0,1,2.08,2.9c.31,1.26.57,2.24,1.82,2.86a2.71,2.71,0,0,1,1.19,1.42,27.3,27.3,0,0,1,1.28,4.55c.28,1.69,1.05,2.64,2.8,2.75a6.06,6.06,0,0,1,1.29.31c12,3.58,23.94,7.58,36.09,10.64,14.43,3.64,29.07,6.45,43.6,9.67,2.77.62,5.45,1.79,8.24,2.17,7.54,1,15.12,1.81,22.7,2.61,6.94.74,13.89,1.46,20.85,2,9.62.8,19.24,1.58,28.88,2.12a120.39,120.39,0,0,0,17.11.1,109.56,109.56,0,0,1,14-.16,4.65,4.65,0,0,1,2.73,1.08,7.64,7.64,0,0,0,6.06,2.15c.85-.06,1.78.61,2.64,1s1.59,1.28,2.39,1.29c3,0,6-.18,8.94-.39a4.39,4.39,0,0,1,4.46,2.24,3.59,3.59,0,0,0,4.75,1.67c3.28-1.31,6.43-.83,9.63.36s3.91.81,5.38-2.38c.24-.52.78-1.34,1.12-1.31,1.69.15,1.92-1.14,2.47-2.17.36-.68.47-1.63,1.74-1.16,1.76.65,2.39-.44,2.67-2,.54-2.91.58-2.85,3.59-2.33,2,.35,4,1.55,6.2.18,1.93-1.19,3.09-.58,4,1.51a26.8,26.8,0,0,0,1.87,3.94c2.28,3.46,3.45,3.69,6.6,2.74,2.4-.73,3.44.19,3.38,2.8a3.69,3.69,0,0,0,1.22,2.77c1.4,1.56,2.7,3.29,2.63,5.66,0,.64.6,1.77,1.09,1.87a75.1,75.1,0,0,0,8.72,1.24c3,.22,6-.13,8.89.22,3.82.46,7.56,1.64,11.39-.1,1.48-.67,2.33.14,3,1.66a30.38,30.38,0,0,0,3.25,5.24,26.77,26.77,0,0,0,2.45,2.71c-.58,1.12-.92,1.9-1.37,2.61-.26.42-.63,1-1.05,1.08-1.94.48-3.75.33-5.16-1.4a20.55,20.55,0,0,0-3.16-3.28c-.54-.42-1.55-.23-2.35-.31.09.74.16,1.48.3,2.21,0,.22.28.42.46.6,2,2.1,2.28,4.28.78,6.9-1.68,2.93-2.32,6,0,9.1,1,1.33.73,2.7-.47,3.95-2.05,2.15-3.81,4.45-4.41,7.53a14.86,14.86,0,0,1-1.83,3.73c-.53,1-1.15,2-1.64,3s0,1.59,1,1.79a4.86,4.86,0,0,0,4.89-1.87,5.54,5.54,0,0,1,1.92-1.76,7.78,7.78,0,0,0,4.08-3.52,5.36,5.36,0,0,1,5.13-2.67c1.21.05,2.41.12,3.62.13s2.08-.48,2.16-2a3.28,3.28,0,0,1,1.37-1.89,6.68,6.68,0,0,1,2-.7c2.31-.8,2.65-2,1.12-3.78-1.79-2.13-2.09-4.6-.3-6.75,3.47-4.17,9.36-8.64,15.35-6.16,1.87.78,2.83,0,2.81-2a4.18,4.18,0,0,1,2.46-4.17,14.08,14.08,0,0,0,7.09-7.59,7.87,7.87,0,0,1,5.43-4.7c6.06-1.46,12.15-2.85,18.17-4.48,7.66-2.07,11.52-6.86,11.35-15.57-.06-3.18-.26-6.37,0-9.53a10,10,0,0,1,1.81-4.36c.76-1.16,2.09-1.92,3-3s1.71-2.25,3.42-1.7a1.24,1.24,0,0,0,.73-.06c2.08-.72,2.5-.54,3.31,1.46.5,1.23.73,2.66,1.51,3.66a14.52,14.52,0,0,1,2.7,6.18c.5,2.31,1.13,4.92,4,5.45a10.41,10.41,0,0,1,5,2.52,3.79,3.79,0,0,0,3,.76c2.19-.7,3.78-2.6,5.63-3.88,2.37-1.64,3.64-4.85,5.4-7.37.68-1,1.39-1.91,2.09-2.86l.78.48a23.2,23.2,0,0,0-1.19,2.57,4.43,4.43,0,0,0,.07,1.55,5.19,5.19,0,0,0,1.7-.2c.48-.23.76-.86,1.22-1.18,1.49-1.06,3-2.08,4.57-3,.25-.16.77.12,1.16.19-.1.33-.09.78-.31,1-1.87,1.73-3.82,3.39-5.69,5.14a50.2,50.2,0,0,0-4.42,4.46c-3,3.6-3,11-.08,14.66,1.68,2.16,3.84,2.4,5.6.26a14.7,14.7,0,0,0,2.49-4.82c.79-2.46,1.1-5.08,1.83-7.56a3.16,3.16,0,0,1,1.83-2,6.09,6.09,0,0,0,4.06-3.12c.81-1.23,2.09-2.13,3-3.33,1.49-2,2.95-4.07,5.21-5.34,0,0,.05-.12.09-.16.72-.87,1.43-1.76,2.17-2.62a23.15,23.15,0,0,0,1.89-2.11c1-1.54.6-2.28-1.24-2.47-.93-.1-2.15,0-2.71-.53-1.28-1.24-2.5-.91-3.86-.5-4.23,1.28-8.49,2.49-12.69,3.84-1.34.43-2.4.89-3.38-.64-.24-.38-1.29-.37-1.95-.32-1.75.14-3.62.82-4.52-1.53a.56.56,0,0,0-.45-.29c-2.5.46-2.26-1.45-2.59-2.92a11.79,11.79,0,0,0-.74-1.83l-1.61.84c-.21.11-.44.2-1.25.57.12-1.28.2-2.17.29-3a37.46,37.46,0,0,0,.49-5.4c-.07-1.56-1.42-2-2.58-.91a27.36,27.36,0,0,0-2.15,2.66c-.75.89-1.7,1.32-2.61.36a3.32,3.32,0,0,0-3.48-.85,8.55,8.55,0,0,1-1.65,0c1.62-2.67,3-3.6,5.66-3.23,2.27.32,3.4-.56,4.17-2.56a31.38,31.38,0,0,1,2.15-4.19,2,2,0,0,0-.78-3.05c-.52-.32-1.08-.58-1.66-.88l.92-1.87c-3.43-.65-6.59-.93-9.69.54a35,35,0,0,0-13.6,11.92c-4,5.68-6.14,12.19-8.55,18.61a86.08,86.08,0,0,1-4,8.36c-.23.45-.78.74-1.3,1.2-.15-.48-.24-.61-.21-.7.28-.77.55-1.55.89-2.3a66.69,66.69,0,0,0,5.77-19,27.09,27.09,0,0,1,1.12-4.41c1.05-3.46,3.35-6.08,5.86-8.55a4.19,4.19,0,0,0,1.45-4.25,10,10,0,0,1-.25-4.35c.7-3,2.87-5,5.62-6.22.72-.33,1.61-.3,2.33-.64,3.45-1.64,6.85-3.36,10.29-5,.56-.27,1.26-.24,1.83-.49a20.86,20.86,0,0,0,4-2,12.47,12.47,0,0,1,7.16-2.71,4.9,4.9,0,0,0,2.74-1.06c2-1.66,3.94-3.51,5.93-5.25.29-.25.89-.5,1.15-.36,2.14,1.1,2.16-.34,2.34-1.8s.53-2.86.74-4.3a35.12,35.12,0,0,0,.66-5.62,4.11,4.11,0,0,1,2.33-4c.54-.31,1.4-.67,1.45-1.08.29-2.37,2-3.22,3.85-4a3.87,3.87,0,0,0,1.57-1.34,17.45,17.45,0,0,0,3-10,4.49,4.49,0,0,0-1-2.11,11.06,11.06,0,0,0-1.33-1.43l.17-.2L489,267l.4-.25L487.92,264a6.13,6.13,0,0,1-.59-1.17c-.59-2.1-1.64-3.57-4.13-3.35-.32,0-.68-.27-1-.44a1.82,1.82,0,0,0-2.82.92,23.52,23.52,0,0,1-1.15,2.39A1.56,1.56,0,0,1,477,263c-.3,0-.59-.68-.74-1.1s-.15-1.14-.32-1.68a3.84,3.84,0,0,0-4-2.28c-1.65.11-2,1.15-2.13,2.6a4.59,4.59,0,0,1-.93,1.79c-.9,1.44-1.89,2.83-2.73,4.31s-1.41,3-2.24,4.4c-.48.82-1.17,2.09-2.27,1.19-.47-.38-.21-1.8-.07-2.72a2.06,2.06,0,0,1,1-1.13c2.13-1.35,3.13-3.45,3.87-5.71.68-2.07,1.45-4,3.31-5.41.53-.4.53-1.52.77-2.31-.76-.16-1.7-.69-2.24-.41-1.6.81-3.91-.92-5,1.45-.05.12-.48.1-.73.08-1.74-.18-3.48-1.44-5.22,0-.05,0-.27,0-.34-.1-1-1.07-1.87-.45-2.8.26-1.45,1.11-3,.61-3.6-1.1-.15-.4-.31-1.12-.52-1.14-2.26-.22-3.93-2.6-6.56-1.69-.76.27-2.5-.13-2.63-.56-.61-2.1-1.88-2.09-3.73-1.35-.24-3.43-3-3.58-5.44-4.4a3.45,3.45,0,0,1,2.09-.52c1.21.15,1.84-.2,1.77-1.51a4,4,0,0,1,.08-1.51c.55-1.54-.32-1.93-1.56-2.08a6.07,6.07,0,0,1-2.22-.29,28.93,28.93,0,0,1-3.22-2.53l1.18-1.68-5.59-2.42,0-.53-1.58,1.19c-.54-3.43-.71-3.52-2.89-1.93a5.64,5.64,0,0,1-1.91.52,6,6,0,0,1,.57-1.89c.55-.76.79-1.48-.18-1.82-1.55-.55-2.77-2.16-4.72-1.49-.25.08-.63-.23-.81-.3l.68-2.22-3.14-.62c.24-2.27-1.36-2.87-3.49-3.06-.5,0-.92-.84-1.39-1.26a10.38,10.38,0,0,0-1.47-1.17,7,7,0,0,0-1.4-.48l-1.63-.55a6.61,6.61,0,0,0-.47,1.73c0,1.06.54,2.23.24,3.15-1.08,3.25-.34,6.05,1.41,8.82a2.35,2.35,0,0,1,.06,2.15c-.95,1.21-.66,2.2,0,3.3.43.69.79,1.43,1.18,2.14l-.51.33a17.82,17.82,0,0,0-1.31-1.44c-.68-.61-1.45-.55-1.46.44a6.47,6.47,0,0,1-2.35,5c-.44.4-.45,1.28-.61,2s-.22,1.17-.34,1.88c-1.74-1-1-3.78-3.37-3.87-1.22,2.1,1.57,4.57-1,6.5a12.38,12.38,0,0,1-.71-3.53,5.59,5.59,0,0,0-3.38-4.73c-1.81-.88-3,.62-4.15,1.89-.13.14-.21.36-.36.43-.86.4-1.73.77-2.77,1.23-.07-.77-.11-1-.1-1.14,0-.94.1-1.87.16-2.8l1.95,1.14a15.94,15.94,0,0,0,1.74-1.79c.23-.32.33-1.12.13-1.28-.84-.71-1.77-1.69-2.74-1.79-1.55-.15-1.94-.81-2-2.15,0-2-.86-3.4-3-3.82-.35-.07-.64-.43-1.14-.79,1.28-.72,2.33-1.38,1.36-2.83a9.22,9.22,0,0,1-1.94-6.17c.14-1.54-.88-1.82-2.24-1.1a7.59,7.59,0,0,1-2.47.51,13.24,13.24,0,0,0-2.64.27c-2.65,1-5.68.6-6.54-2.76a5,5,0,0,0-2.46-2.56c-1.74-1-4.14-.57-5.38-2.71-.22-.38-1.17-.34-1.79-.47a8.89,8.89,0,0,1-1.66-.3c-3.17-1.35-3.2-1.39-5.34,1.5-1.3,1.76-3.11,2.11-5.06,2-2.25-.11-4.51-.32-6.74-.62-2.71-.36-4.41.31-5.48,3.21-1.24,3.37-1.38,4.58,1.4,6.88a5.66,5.66,0,0,1,2.3,5.14c-.09,1,0,2-.06,3.05s.09,2,1.58,2.05a2,2,0,0,1,1.33,1.14c.88,2,1.62,4.07,2.43,6.11,0,.1.19.14.37.27l1.42-.76c.38,3.31-.23,4.51-2.73,4.77.38,1.15.78,2.22,1.09,3.31a3.8,3.8,0,0,1,.28,2,30.07,30.07,0,0,1-1.57,3.46c-1.43,3.07-1,5.18,1.87,6.41,1.88.8,4,1.51,4.34,4.06.06.44.78.78,1.16,1.19,2.85,3,6.73,5.38,7,10.21.09,1.46.35,2.9.49,4.35.11,1.13.46,1.92,1.79,1.7v-2.77l3.52,1.82a3.89,3.89,0,0,1-.29.48.74.74,0,0,1-.29.23c-3.21,1-4.82,3.07-4.3,6.58.33,2.21-.85,3.87-2.26,5.43-1.19,1.31-2.26,2.73-3.4,4.09s-2.46,2.83-3.59,4.33c-.43.57-.95,1.59-.72,2,.82,1.54,2,2.89,2.94,4.36a13.93,13.93,0,0,1,2.17,3.87c.79,3.2,1.79,6.18,4.39,8.41a2.33,2.33,0,0,1,.56,1.15c.47,1.81.94,3.63,1.33,5.46.22,1,.65,2.24.35,3.16a7.65,7.65,0,0,0,.38,6.41c.19.35-.21,1-.33,1.53a4.79,4.79,0,0,1-1.49-.46,27.06,27.06,0,0,1-2.27-2.11l-1.25,4.71-5.18.43c0-2.21-1.53-3.38-3-5a13.48,13.48,0,0,0-6.16-3.63,1.45,1.45,0,0,1-.82-1.07c.07-1.86-1.06-2.95-2.37-3.89s-3-1.91-4.45-2.92a1.77,1.77,0,0,1-.8-1.14c0-.3.59-.74,1-.87,1.82-.61,2.07-1.15,1.49-3-.45-1.5-.73-3.05-1.15-4.57-.24-.84-.61-1.64-.93-2.46-.41-1.05-.9-2.08-1.21-3.16-.7-2.45-1.29-4.94-2-7.39a1.57,1.57,0,0,0-1-.92,19.25,19.25,0,0,0-3.68-.42c-1,0-2.4-.07-2.85.5C313,305.41,311,305,309,304.38a3.82,3.82,0,0,0-2-.21c-3,1-5.3-.41-7.57-2-2.73-1.9-5.59-3.15-9.07-2.64-2,.29-3.25-.65-3.7-2.71a3.91,3.91,0,0,0-3.45-3.09c-1.42-.28-2.83-.66-4.22-1.08q-2.79-.84-5.54-1.81a15.9,15.9,0,0,1-3.63-1.5c-3.1-2.08-5-2.07-8.21-.17a14.57,14.57,0,0,1-4.59,1.52c-1,.2-1.43-.54-.91-1.47,1.08-1.93.3-3.65-.42-5.43-.4-1-.58-2-.91-3a25.94,25.94,0,0,0-1.15-3.13c-.6-1.25-1.43-2.38-2-3.64-1.26-2.82-2.19-3.18-5.2-2.57a17,17,0,0,1-4.38-.18.59.59,0,0,1-.4-.37c-.48-1.84-1.35-3.7-1.31-5.54.07-3.33.68-6.64,1.06-10,0-.25.14-.58,0-.75-1.28-1.79-1-3.05.7-4.63a7.63,7.63,0,0,0,2.61-6.6,2,2,0,0,1,.46-1.22,13.86,13.86,0,0,0,2.06-2.71c.35-.92.07-2.08.07-3.28a9.74,9.74,0,0,0,1.09.32c.35.06.95.16,1,0a2.11,2.11,0,0,0,.1-1.18c-.05-.37-.35-.71-.37-1.07a14.07,14.07,0,0,1,.07-1.78c.49.19,1,.4,1.48.56a7.17,7.17,0,0,0,1,.16l-.36-2.86,2.62-.19-1-2c.46-.11.75-.18,1-.24l1.1-.19c-1.25-2.18-1.13-2.66.61-2.9,4-.56,4-.56,4-4.33,0-2.4-.22-2.7-2.56-2.91-1.06-.09-2.15,0-3.21-.07a4,4,0,0,1-1.36-.42c-.82-.38-1.61-.84-2.44-1.23-1-.47-2-.9-3-1.34l.28-.76c.7.11,1.4.17,2.09.33,3.39.79,6.78,1.56,10.15,2.43,1.73.44,2.64,0,2.91-1.85.09-.6,1.08-1.62,1.41-1.54,1.29.34,2.32-.61,3.14-.63,2.29-.07,3.82-.47,4.35-2.86,1.92-.24,2-1.62,2-3.11,0-.38.42-.74.6-1.13.34-.77.67-1.54.94-2.33a20.63,20.63,0,0,1,1-3c.83-1.57.45-2.63-1.31-2.79a39.45,39.45,0,0,0-4,0c-3.84,0-7.39-.7-10.28-3.74.84-.63,1.71-1.82,2.47-1.76a36.25,36.25,0,0,1,5.89,1.44c-.19,2.14,1.74,2.5,3.33,2.86a3.39,3.39,0,0,0,2.84-.7,18.08,18.08,0,0,0,2.8-4.71c1.33-3.18,1-3.66-2.24-4.88-.37-.14-.49-1-.72-1.45,1.6-.42,3.21-.84,4.82-1.23.12,0,.3.21.45.32a6.27,6.27,0,0,0,6.89.55l2.26,1.61.5-.62c-1.35-3.47-4.48-5.1-7.6-6.79l.72-1.33c1.38.67,2.64,1.19,3.81,1.89.43.26.63.91.92,1.39a7.78,7.78,0,0,0,1.07,1.77c.86.8,2.07,1.57,3,.31a32.8,32.8,0,0,0,2.51-4.86,13.23,13.23,0,0,0,1.71-6.84c-.11-1.72-.36-2.81-1.6-3.87a13.62,13.62,0,0,1-2.33-2.63c-.28-.4.08-1.27-.21-1.64-.86-1.08-1.91-2-3.05-3.17,1.92-.73,4.58-.33,4.41-3-.06-.91-1.62-1.72-2.8-2.88a3,3,0,0,0,1-.68,10.79,10.79,0,0,0,1-1.86,7.56,7.56,0,0,0-1.91-.37,8.61,8.61,0,0,1-6.12-1.5l2.37-1-.12-.69c-.67,0-1.35,0-2,0-1.74-.05-3.57.21-5.2-.24-4-1.11-4.82-.57-4.47,3.71a3.47,3.47,0,0,0,.26,1.49,7.34,7.34,0,0,0,1.42,1.48c.42.38,1.32.75,1.28,1-.11.73-.48,1.91-1,2-1.91.45-1.7,1.79-1.64,3.12a43.48,43.48,0,0,1,.25,5.51,66.75,66.75,0,0,1-1.32,8.82,3.2,3.2,0,0,1-2.16,2c-.56.1-1.44-1.1-2-1.85s-.79-1.76-1.4-2.43a7.51,7.51,0,0,1-2-7.14c.63-3.16.43-5.9-3.23-6.9-.53-.15-.8-1.26-1.2-1.91s-.73-1.17-1.1-1.75c-.41.62-1.09,1.2-1.18,1.87-.36,2.63-.4,5.31-.85,7.93a6.5,6.5,0,0,1-1.75,2.74c-.16.19-1.42-.17-1.44-.32a7,7,0,0,1,.22-2.78c.83-2.29,1-4.05-1.25-5.76a18.2,18.2,0,0,1-2.4-2.77c.46-.36.62-.47.76-.59l1.6-1.39c-.69-.46-1.39-1.32-2.07-1.3a23.25,23.25,0,0,0-4.3.91,9,9,0,0,1-1.42-1.56c-.26-.43-.39-1.38-.14-1.6,1.23-1.09,1.56-2.09,0-3.3l1.7-1.06c-.11-.33-.11-.68-.27-.78-3-2-3.23-5-3.45-8.19-.32-4.72-1.68-5.92-6.41-6.79a2.85,2.85,0,0,1-1.76-.89c-1.05-1.62-1.89-1-2.82,0s-1.55,2.14-.89,3.62c.5,1.12,0,1.61-1.21,1.72a1.67,1.67,0,0,0-1.23.83c-.75,2.35.42,4.85,3.13,6.3-.26.35-.78.43-1.27.58-3.24,1-2.12,3.74-2.22,5.95-.09,1.88,1.43,1.94,2.74,2.24a2.28,2.28,0,0,1,1,.58c.92.87,1.85,1.26,3.07.49.32-.2,1.21-.13,1.32.09.91,1.73,2.21,1.54,3.74,1,.36-.12.92.37,1.38.58a13.31,13.31,0,0,1-1.16,1.24c-.15.13-.49,0-.75,0-1.84.14-2.6,1.48-1.94,3.21a2.58,2.58,0,0,1-.26,1.49c-.2.59-.69,1.14-.7,1.7s.45,1.09.71,1.64a10.79,10.79,0,0,0,1.35-1,5,5,0,0,0,.64-1.12l.55.18c.24,2.89.53,5.86-1.44,8.35a4.41,4.41,0,0,1-3,1.2c-2.59.12-3.34.71-3.07,3.33.2,1.95.64,3.88,1,5.81.41,2.31-.75,4.45-2.74,4.71a3.27,3.27,0,0,1-1.95-.75c-.16-.11.11-.86.1-.8,1.22.11,2.27.54,2.74.18,1.29-1,1.08-2.25,0-3.39l-1.8.59c-.12-1.69-.84-3.55-.21-4.62,1.22-2.07.17-4.17.83-6.21.52-1.62-.89-3.12-2-2.62-1.78.77-2.67-.23-3.82-1.17a5.4,5.4,0,0,0-2-.57c-.38,1.63-1.74,1.79-3.17,1.86.4.77,1,1.38.94,1.92-.28,2.77-.15,3,2.74,3.31a4.5,4.5,0,0,1,2.26.79c.47.4.55,1.27.8,1.94-.62.22-1.41.8-1.84.6a30.43,30.43,0,0,1-4.12-2.52,8.56,8.56,0,0,1-1.3-1.51,3.84,3.84,0,0,0-.18.95c.42,1.89.24,2-1.64,1.75-1.5-.24-3-.27-4.54-.5-3.18-.48-6.35-1-9.51-1.6a2.41,2.41,0,0,1-1.53-1c-.82-1.54-1.7-1.9-3.34-1-1.41.75-2.29.12-2.45-1.49-.1-1-.7-1.47-1.41-2.15s-2.74-.86-2-2.75c1.11-2.85-.19-4.87-3.28-4.81a21.36,21.36,0,0,0-6,.88,11.39,11.39,0,0,0-4.23,2.65c-1.4,1.35.21,2.24,1,3.08s1.51.82,2.1-.34c.16-.31.78-.5,1.21-.53,1-.07,2.08,0,3.52,0,1.24.92,1.22.91,2.13-.93.13-.27.53-.4.8-.6l.53.25a15,15,0,0,1-.62,2.06c-1.25,2.71-3.9,1.82-6,2.18-1.46.25-3.2,1.76-2.94,3.22.33,1.89.94,3.73,1.22,5.62.12.82-.19,2.43-.45,2.46-2.21.27-1.48,1.81-1.5,3,0,.84,0,1.68,0,2.53l-.63,0c-.17-.31-.5-.61-.5-.92,0-1.61-.89-3.1-1.37-4.42-.78-2.13-.31-2.26,1.41-2.57,1.27-.23,1.71-1.65.67-2.2-2.41-1.27-1.86-5.26-5.25-5.49-.15,0-.34-.38-.4-.61-.35-1.33-1.23-1.1-2.25-.91-1.67.3-3.43.84-5,.56-5.42-1-10.79-2.19-16.17-3.38-1.24-.28-1.63-1.06-.9-2.27a4,4,0,0,1,4.3-1.84c1.94.42,3.06-.57,2.24-2.33a29.9,29.9,0,0,0-3.76-5.62c-.94-1.21-2.15-1.76-2.79.17-1.66-.83-3.27-1.51-4.74-2.42a32.4,32.4,0,0,1-3.88-2.94c-1-.82-1.71-1.92-2.72-2.65a7.45,7.45,0,0,1-3.33-5.86c-.18-2.41-2.1-4.12-4.66-4.64-2.33-.47-4.33-.16-5.32,2.39-.07.17-.21.43-.33.44-.92.07-2,.41-2.73,0-1.16-.58-.49-1.42.2-2.12a2,2,0,0,0,.67-1.26,3.65,3.65,0,0,1,1.17-3.24,1.64,1.64,0,0,0,0-1.61,2.85,2.85,0,0,0-3.74-.24l1.84,1.59c-1.64.48-3.27.49-4.06,1.32s-.77,2.47-1.11,3.76l-.68.09a12.33,12.33,0,0,1-.85-2.83c-.16-2.92-.1-5.85-.23-8.77a4.93,4.93,0,0,0-2.11-4.36l-.53,2.91c-1.94-1-2.79-.15-3.61,1.36-.48.88-1.6,1.41-2.7,2.32l-.4-2.8-8.93,3.69c-1-2.86-1.32-2.92-3.86-2.06a7.37,7.37,0,0,1-3,.13c-.34,0-.63-.62-.94-1a10.24,10.24,0,0,1,1.14-.59c.39-.15,1-.06,1.2-.32,1.38-1.82,2.67-1,4.11-.08a4.34,4.34,0,0,0,2.58.89,51.76,51.76,0,0,0,6.26-1.5c.35-.1.87-.6.84-.85a1.73,1.73,0,0,0-.81-1.08c-1.48-.85-3-1.93-4.35.11a7.5,7.5,0,0,0-1.28-1.42c-2-1.18-5.89-.77-7.67.77a2,2,0,0,1-3-.23c-.93-1,.1-1.46.77-2.06a1.53,1.53,0,0,0,.39-1.39c-.2-.39-.85-.62-1.35-.77-.23-.07-.57.2-.86.31-1.86.67-3.81,0-5.85.88-1.43.62-2.17.75-2.23,2.34a25.75,25.75,0,0,1-.55,3.32l-.77.15c-1.32-1.78-2.69-3.52-4-5.34-.74-1.07-1.12-2.43-2-3.37-2.54-2.76-4.73-5.65-5.07-9.56a5.09,5.09,0,0,0-.53-1.34l-.81-.64a8.66,8.66,0,0,1-.92,1.9c-11.39,13.67-22.84,27.29-34.2,41-3.07,3.71-5.84,7.67-8.83,11.45-2.31,2.92-4.81,5.69-7.12,8.6-2,2.51-3.78,5.19-5.78,7.7-3,3.79-6.15,7.48-9.18,11.25a5.6,5.6,0,0,0-.59,1.89,14.85,14.85,0,0,1,1.7.5c.75.31,2,.58,2.1,1.1C4.5,188.49,6,188.86,8,189a5.38,5.38,0,0,1,1.76.79c-.36.48-.61,1.13-1.09,1.4a2.9,2.9,0,0,0-1.5,3.21c.25,2.2.35,4.44.79,6.61a6.84,6.84,0,0,1-.85,5.28,6.47,6.47,0,0,0-.45,2.08,6.38,6.38,0,0,0,2.3.18c2.88-.9,6-1.21,8.44-3.27a3.64,3.64,0,0,1,1.56-.66c1.34-.28,2.15.22,2,1.68a10,10,0,0,1-.6,3c-1,2.19-.43,4,.83,5.87a8.4,8.4,0,0,1,1.57,4.35c0,6.6-.21,13.21-.63,19.81-.3,4.75,0,9.15,3,13.22A7.61,7.61,0,0,1,26.39,258c-1.22,5-1.6,10.52-7.1,13.35-2,1-2,2.47-.71,4.47.29.47.58,1.35.35,1.67-2.18,3,1.39,5,1,7.72.71-.39,1-.92,1.4-1.22a13.45,13.45,0,0,1,2.84-1.63c.41-.16,1.06.3,1.6.48a5.25,5.25,0,0,1-.75,1.58c-1.46,1.45-1.28,2.57.68,3.31a22.19,22.19,0,0,0,2.37.62l-.18.71-2.86-.73-1.9-.47c0,.67-.07,1.33-.09,2a2.85,2.85,0,0,0,.07.57c.49,2.76,2.06,5.59-.68,8.12-.12.11.63,1.47.7,1.44,1.7-.56,2.65.69,3.81,1.45,1.47,1,1.5,2.26-.09,3a22.18,22.18,0,0,1-3.44,1.05c-2.2.61-2.49,1.06-2.08,3.61.89,0,1.84-.07,2.76,0a27.5,27.5,0,0,1,2.71.52l-.1.63c-.8,0-1.59-.13-2.39-.13-.47,0-1.29,0-1.35.23-.5,1.57-1.68,1.43-2.91,1.39s-1.67.51-1.18,1.69.82,2.2,1.37,3.23a6.35,6.35,0,0,0,1.58,2,26.42,26.42,0,0,0,3.37,2.12c1,.57,2.16,1,1.29,2.53-.12.23.34.89.65,1.23.65.69,1.38,1.3,2.09,1.93,1.2,1.05,2.44,1.87,4.07.74.28-.2.77-.11,1.49-.18l-1.48,2.17m221-284.88c.8,1.51,2.27,3,2.25,4.54,0,2,.93,1.61,1.92,1.48.66-.09,1.24-.66,1.91-.81a4.67,4.67,0,0,1,1.56.19l0,.61c-.5.21-1.17.3-1.46.68s-.1,1-.28,1.53a1,1,0,0,1-.8.43A10.16,10.16,0,0,1,257,52.7c-3.55-1-6,.64-6.47,4.3-.24,1.89.54,2.79,2.46,2.64,1.34-.1,3.15-1,3.89-.4s.5,2.61,1,3.85a3.14,3.14,0,0,0,2,1.67c.46.09,1.27-.92,1.7-1.58a11.76,11.76,0,0,0,.91-2.32l.79.13a38.71,38.71,0,0,1-.54,5.43c-.14.62-1.23,1.28-2,1.47-1.87.44-3.17-.37-4.25-2.05a14.07,14.07,0,0,0-3.79-4A1.81,1.81,0,0,0,250,63.9a9.88,9.88,0,0,0,1.35,2.9c.91,1.51,1,2.82-.49,4-1.8,1.45-2.11,3.37-1.6,5.51.31,1.32,2.61,2.69,3.94,2.55a7,7,0,0,1,2.85.24c2.63.87,4.48.18,5.8-2,.42-.69,1.65-1.56,2.21-1.39,1.88.58,3.62,1.5,5.52.14.13-.09.48.1.72.18A6.21,6.21,0,0,0,278.23,72a11.48,11.48,0,0,0,.15-3.75c0-.26-1-.76-1.14-.67-1.32,1.31-2.1.93-2.84-.61a2.15,2.15,0,0,0-1.64-.74,14.18,14.18,0,0,0-2.8.39c-.37.07-.75.39-1.07.32a2,2,0,0,1-1.18-.73,1.26,1.26,0,0,1,0-1.2,1.45,1.45,0,0,1,1.32-.24c2.48,1.45,4.38-.14,6.31-1.21.45-.25.69-1.27.64-1.91a5.2,5.2,0,0,0-.91-1.86c-1.19-2.11-1.12-2.29,1.22-2.83a3.47,3.47,0,0,0,2.47-4.7,8.31,8.31,0,0,1-.58-1.79c-.43-2.71-2.53-3.91-5-2.86a6.54,6.54,0,0,1-1.75,0l3.87-4.09c-2-.91-3.75,1.15-5.67-.78,1.28-.44,2.19-.78,3.13-1.06.73-.22,1.51-.26,2.21-.54,1.73-.69,2-1.89.9-3.42-.26-.36-.54-1.16-.41-1.26a2.51,2.51,0,0,1,1.48-.54c2.93,0,3.73-1,3.21-3.93-.19-1-.52-2.31-.12-3.17,1.88-4,1.72-8.42,2.36-12.66a10.15,10.15,0,0,0-.16-2.26c-2.11,2.24-3.37,4.93-5.82,6.52l-.58-.43,3.56-5.09-1.52-.94c1.23-2,2.67-3.69,3.42-5.68a16.18,16.18,0,0,0,.59-5.55c0-.38-1.44-1.21-1.61-1.07-1.61,1.29-2.68.28-3.85-.66s-2.2-1.7-3.33,0a.89.89,0,0,1-.85.19c-2.2-1.38-4.31.34-6.48.2-1.31-.08-1.82,1-1.43,2.28.19.65.31,1.33.46,2a20.85,20.85,0,0,0-4.08-.85c-1.21,0-1.91.65-.92,2a12.46,12.46,0,0,1,1.08,2.33l-.48.29c-.25-.14-.67-.24-.72-.43-.59-2.52-2.48-2.24-4.36-2.14-1.52.08-2.11.48-1.37,2.12a2.3,2.3,0,0,1-.61,2.13c-2,1.42-2.09,1.38-.24,3.13a8.22,8.22,0,0,1,1.36,1.32,6.41,6.41,0,0,1,.38,1.91l-2-1.64-.62,1.06c-1.23-1.14-2.36-2.28-3.59-3.28-.35-.28-1-.17-1.53-.24a6.66,6.66,0,0,0,.18,1.74,9.12,9.12,0,0,0,.95,1.61l-2.52,1.79c-1.55-1-1.54-1-3.14.49-.13.12-.37.13-.51.25-1.23,1.06-2.45,2.12-3.92,3.4a12.77,12.77,0,0,1,1.87.63c.38.2.94.59.94.91,0,1.27.72,1.42,1.76,1.4a1.69,1.69,0,0,1,1.23.6c.14.19-.22.78-.43,1.15-.34.6-.75,1.17-1.12,1.75l.31.46,6.27-.7.11.68a15,15,0,0,1-1.8.64c-.75.17-2-.12-1.59,1.14a2.53,2.53,0,0,0,2.25,1c.89-.21,1.59-1.16,2.43-1.72s1.66-1,2.49-1.42l.38.68a11.89,11.89,0,0,0-1.3.89,7,7,0,0,0-1.31,1.45c-.05.09.61.9,1,.91a5.54,5.54,0,0,0,2-.45c.48-.17.87-.6,1.35-.76a10.79,10.79,0,0,0,2.15-.53c2.15-1.33,4-2.95,4.33-5.69,0-.32.38-.6.9-1.37.21,1.39,0,2.57.55,3.13,1.25,1.36.39,1.65-.69,2.07a10.86,10.86,0,0,0-1.39.82c1.51,1.27.74,2.18-.3,3a12.42,12.42,0,0,1-1.85,1c-1.64.84-2,1.93-.83,3.36a26.43,26.43,0,0,0,2.79,2.55c.49.45.94.94,1.41,1.41l-.46.65c-3.49-2.16-5.75-6.93-11.45-5.63.94,1.94,1.73,3.68,2.63,5.36a25.71,25.71,0,0,0,1.68,2.46c-.92-.48-1.89-.89-2.76-1.45a20.44,20.44,0,0,1-3-2.29c-.78-.74-1.2-1.89-2-2.55-2.08-1.65-4.72-2.57-6-5.29a24,24,0,0,0-3.31-4.85c-.37-.46-1.27-.5-1.93-.74,0,.54,0,1.09,0,1.63.12,1.69-2.35,2.84-1,4.8,0,.05-.29.35-.45.53a.47.47,0,0,1-.16.1c-1.95.85-1.12,2.25-.63,3.51.18.47.68.81,1.21,1.4l-2.67.4a41.25,41.25,0,0,0,2,4.44c.23.4,1.22.35,1.59.44l.45,3.36,3.72-.51a12.73,12.73,0,0,0,1.09,1.77c.89,1.08.57,1.6-.7,1.65S238,51.23,238,52.4c-.1,2.1,3.14,7.37,5.13,8a2.94,2.94,0,0,0,2.56-.34c1.23-1.55,3.07-2.92,2.5-5.38a4.3,4.3,0,0,1,.31-1.54c1.45,1,2.07.19,2.6-.9.66-1.37,1.47-2.66,2.06-4.06s.82-2.6,1.22-3.9"/><path class="cls-1" d="M33.32,329.19,34.8,327c-.72.08-1.2,0-1.49.18-1.63,1.13-2.87.31-4.07-.74-.71-.63-1.44-1.24-2.09-1.93-.32-.34-.78-1-.65-1.23.87-1.58-.28-2-1.3-2.53a26.66,26.66,0,0,1-3.37-2.12,6.38,6.38,0,0,1-1.58-2c-.55-1-.92-2.15-1.37-3.23s0-1.73,1.18-1.69,2.41.19,2.91-1.39c.06-.2.89-.23,1.35-.23.8,0,1.59.08,2.39.13l.1-.63c-.9-.18-1.8-.43-2.71-.52s-1.87,0-2.76,0c-.41-2.54-.12-3,2.08-3.61a22.06,22.06,0,0,0,3.44-1.05c1.6-.74,1.57-2,.09-3-1.16-.76-2.11-2-3.81-1.45-.08,0-.83-1.33-.7-1.44,2.73-2.53,1.17-5.36.68-8.12a2.85,2.85,0,0,1-.07-.57c0-.67.06-1.33.09-2l1.9.47,2.86.74.18-.71a22.76,22.76,0,0,1-2.37-.62c-2-.74-2.14-1.86-.68-3.31a5.29,5.29,0,0,0,.75-1.58c-.54-.18-1.19-.64-1.6-.48A13.48,13.48,0,0,0,21.36,284c-.43.3-.69.82-1.4,1.22.35-2.72-3.22-4.72-1-7.72.23-.32-.06-1.21-.35-1.67-1.27-2-1.25-3.46.71-4.47,5.51-2.83,5.88-8.39,7.1-13.35A7.62,7.62,0,0,0,25,252.47c-2.95-4.07-3.25-8.47-3-13.22.41-6.59.59-13.2.63-19.81a8.41,8.41,0,0,0-1.57-4.35c-1.27-1.91-1.8-3.68-.83-5.87a10,10,0,0,0,.6-3c.15-1.46-.66-2-2-1.68a3.64,3.64,0,0,0-1.56.65c-2.44,2.06-5.56,2.37-8.44,3.27a6.41,6.41,0,0,1-2.31-.18,6.46,6.46,0,0,1,.45-2.08A6.85,6.85,0,0,0,7.91,201c-.44-2.17-.54-4.4-.79-6.61a2.9,2.9,0,0,1,1.5-3.21c.47-.27.73-.92,1.09-1.4A5.39,5.39,0,0,0,8,189c-1.92-.1-3.45-.47-4-2.69-.14-.52-1.35-.79-2.1-1.1a15,15,0,0,0-1.7-.49,5.61,5.61,0,0,1,.59-1.89c3-3.78,6.16-7.47,9.18-11.25,2-2.51,3.78-5.19,5.78-7.7,2.31-2.91,4.81-5.68,7.12-8.6,3-3.78,5.75-7.74,8.83-11.45,11.36-13.7,22.81-27.32,34.2-41a8.72,8.72,0,0,0,.92-1.9l.81.64a5.08,5.08,0,0,1,.53,1.34c.34,3.91,2.53,6.8,5.06,9.56.86.94,1.24,2.3,2,3.37,1.26,1.82,2.63,3.57,4,5.34l.77-.16a25.76,25.76,0,0,0,.55-3.32c.06-1.59.8-1.72,2.23-2.34,2-.89,4-.21,5.85-.88.29-.1.63-.38.86-.31.5.15,1.15.38,1.35.77a1.54,1.54,0,0,1-.39,1.4c-.67.59-1.7,1-.77,2.06a2,2,0,0,0,3,.23c1.79-1.54,5.72-2,7.67-.77a7.46,7.46,0,0,1,1.28,1.42c1.36-2,2.88-1,4.35-.11a1.72,1.72,0,0,1,.81,1.08c0,.26-.49.76-.84.86a51.71,51.71,0,0,1-6.26,1.5,4.34,4.34,0,0,1-2.58-.89c-1.44-.92-2.73-1.74-4.11.08-.2.26-.81.17-1.2.32a10.14,10.14,0,0,0-1.14.59c.31.34.6.93.94,1a7.37,7.37,0,0,0,3-.13c2.54-.86,2.84-.8,3.86,2.06l8.93-3.69.4,2.8c1.1-.91,2.22-1.44,2.7-2.32.82-1.51,1.67-2.35,3.61-1.36l.53-2.91a4.93,4.93,0,0,1,2.11,4.36c.13,2.92.07,5.85.23,8.77a12.29,12.29,0,0,0,.85,2.83l.68-.09c.34-1.29.31-2.92,1.11-3.76s2.42-.84,4.06-1.32l-1.84-1.59a2.85,2.85,0,0,1,3.74.24,1.63,1.63,0,0,1,0,1.61,3.65,3.65,0,0,0-1.17,3.24,2,2,0,0,1-.67,1.26c-.69.7-1.36,1.54-.2,2.12.72.36,1.81,0,2.73,0,.12,0,.27-.27.33-.44,1-2.54,3-2.86,5.32-2.39,2.57.52,4.49,2.23,4.66,4.64a7.45,7.45,0,0,0,3.34,5.86c1,.73,1.76,1.83,2.72,2.65A32.29,32.29,0,0,0,146.3,149c1.47.91,3.08,1.58,4.74,2.42.64-1.93,1.84-1.37,2.79-.17a29.91,29.91,0,0,1,3.76,5.62c.82,1.76-.3,2.75-2.24,2.33A4,4,0,0,0,151,161c-.73,1.21-.34,2,.9,2.27,5.38,1.19,10.75,2.43,16.16,3.38,1.6.28,3.37-.25,5-.56,1-.19,1.9-.42,2.25.91.06.23.25.59.4.61,3.39.23,2.84,4.22,5.25,5.49,1,.55.6,2-.67,2.2-1.72.32-2.19.44-1.41,2.57.48,1.32,1.38,2.81,1.37,4.42,0,.3.32.61.5.92l.63,0c0-.84,0-1.68,0-2.53,0-1.22-.7-2.76,1.5-3,.26,0,.57-1.64.45-2.46-.28-1.89-.89-3.73-1.22-5.62-.26-1.46,1.48-3,2.94-3.22,2.11-.36,4.76.53,6-2.18a15,15,0,0,0,.62-2.06l-.53-.25c-.27.2-.67.33-.8.6-.91,1.84-.9,1.85-2.13.93-1.44,0-2.48-.05-3.52,0-.43,0-1,.22-1.21.53-.59,1.17-1.36,1.1-2.1.34s-2.43-1.73-1-3.08a11.38,11.38,0,0,1,4.23-2.65,21.36,21.36,0,0,1,6-.87c3.09-.06,4.39,2,3.28,4.81-.74,1.88,1.28,2.06,2,2.75s1.31,1.11,1.41,2.15c.16,1.61,1,2.24,2.45,1.49,1.64-.87,2.52-.51,3.34,1a2.41,2.41,0,0,0,1.53,1c3.16.59,6.33,1.11,9.51,1.6,1.5.23,3,.26,4.54.5,1.88.3,2.06.14,1.64-1.75a3.8,3.8,0,0,1,.18-.95,8.55,8.55,0,0,0,1.3,1.51,30.58,30.58,0,0,0,4.12,2.52c.42.2,1.21-.38,1.84-.6-.25-.66-.32-1.54-.8-1.94a4.5,4.5,0,0,0-2.26-.79c-2.89-.36-3-.55-2.74-3.31.06-.54-.54-1.15-.94-1.92,1.43-.07,2.79-.23,3.17-1.86a5.41,5.41,0,0,1,2,.57c1.15.94,2,1.94,3.82,1.17,1.16-.5,2.56,1,2,2.62-.66,2,.39,4.14-.83,6.21-.63,1.07.09,2.93.21,4.62l1.8-.59c1,1.14,1.25,2.41,0,3.39-.46.35-1.52-.07-2.74-.18,0-.07-.26.68-.1.79a3.27,3.27,0,0,0,1.95.75c2-.26,3.15-2.4,2.74-4.71-.35-1.93-.79-3.86-1-5.81-.27-2.62.47-3.2,3.07-3.33a4.4,4.4,0,0,0,3-1.2c2-2.49,1.68-5.46,1.44-8.35l-.55-.18a5.06,5.06,0,0,1-.64,1.12,10.67,10.67,0,0,1-1.35,1c-.26-.55-.71-1.1-.71-1.64s.5-1.12.7-1.7a2.57,2.57,0,0,0,.26-1.49c-.65-1.72.11-3.06,1.95-3.21.25,0,.6.1.75,0a13.16,13.16,0,0,0,1.17-1.23c-.47-.21-1-.7-1.38-.58-1.53.5-2.83.69-3.74-1-.12-.22-1-.29-1.32-.09-1.22.77-2.14.38-3.07-.49a2.25,2.25,0,0,0-1-.58c-1.3-.3-2.82-.36-2.73-2.24.1-2.2-1-4.91,2.22-5.95.49-.16,1-.23,1.27-.58-2.71-1.45-3.88-3.95-3.13-6.3a1.67,1.67,0,0,1,1.23-.83c1.19-.1,1.7-.6,1.21-1.72-.66-1.48,0-2.56.89-3.62s1.76-1.67,2.82-.05a2.85,2.85,0,0,0,1.76.89c4.73.87,6.09,2.07,6.41,6.79.22,3.22.48,6.21,3.44,8.19.16.11.17.45.27.78l-1.7,1.06c1.55,1.21,1.22,2.22,0,3.3-.25.22-.12,1.17.14,1.6a8.89,8.89,0,0,0,1.42,1.56,23.24,23.24,0,0,1,4.3-.9c.68,0,1.38.84,2.07,1.3l-1.6,1.39c-.14.12-.3.23-.76.59a18.14,18.14,0,0,0,2.4,2.77c2.2,1.71,2.08,3.46,1.25,5.76a7,7,0,0,0-.22,2.78c0,.15,1.27.51,1.44.32a6.51,6.51,0,0,0,1.75-2.74c.45-2.61.49-5.29.85-7.93.09-.66.77-1.25,1.18-1.87.37.58.74,1.16,1.1,1.75s.66,1.77,1.2,1.91c3.67,1,3.87,3.74,3.23,6.9a7.51,7.51,0,0,0,2,7.14c.62.67.84,1.7,1.4,2.43s1.46,1.95,2,1.85a3.2,3.2,0,0,0,2.16-2,66.92,66.92,0,0,0,1.32-8.82,43.46,43.46,0,0,0-.25-5.5c-.06-1.33-.27-2.67,1.64-3.12.48-.11.85-1.29,1-2,0-.26-.86-.64-1.28-1a7.37,7.37,0,0,1-1.42-1.48,3.47,3.47,0,0,1-.26-1.49c-.35-4.29.43-4.83,4.47-3.71,1.63.45,3.46.19,5.2.25.67,0,1.35,0,2,0l.12.69-2.37,1a8.61,8.61,0,0,0,6.12,1.5,7.51,7.51,0,0,1,1.91.37,10.88,10.88,0,0,1-1,1.86,2.93,2.93,0,0,1-1,.68c1.19,1.16,2.74,2,2.8,2.88.17,2.67-2.49,2.27-4.41,3,1.14,1.16,2.19,2.09,3.05,3.17.29.37-.07,1.24.21,1.64a13.63,13.63,0,0,0,2.33,2.63c1.25,1.06,1.49,2.15,1.6,3.87a13.23,13.23,0,0,1-1.72,6.84,32.68,32.68,0,0,1-2.51,4.86c-.89,1.25-2.1.49-3-.31a7.83,7.83,0,0,1-1.06-1.77c-.29-.48-.49-1.13-.92-1.39-1.17-.7-2.43-1.22-3.81-1.89L282,178.2c3.12,1.69,6.25,3.32,7.6,6.79l-.5.62L286.85,184a6.27,6.27,0,0,1-6.89-.55c-.15-.12-.33-.35-.45-.32-1.61.39-3.21.81-4.82,1.22.24.5.35,1.31.72,1.45,3.23,1.21,3.57,1.69,2.24,4.88a18.18,18.18,0,0,1-2.8,4.71,3.39,3.39,0,0,1-2.84.7c-1.59-.36-3.52-.72-3.33-2.86a36.22,36.22,0,0,0-5.89-1.44c-.76-.07-1.63,1.13-2.47,1.76,2.89,3,6.44,3.78,10.28,3.74a39.45,39.45,0,0,1,4,0c1.76.16,2.14,1.23,1.31,2.79a20.79,20.79,0,0,0-1,3c-.27.79-.6,1.56-.94,2.33-.17.39-.59.75-.6,1.13,0,1.48-.07,2.87-2,3.11-.53,2.39-2.06,2.79-4.35,2.86-.83,0-1.85,1-3.14.63-.34-.09-1.33.94-1.41,1.54-.27,1.9-1.18,2.3-2.91,1.85-3.37-.87-6.76-1.64-10.15-2.43-.68-.16-1.39-.22-2.09-.33l-.28.76c1,.45,2,.87,3,1.34.82.39,1.61.85,2.44,1.23a4,4,0,0,0,1.36.42c1.07.07,2.15,0,3.21.07,2.34.21,2.57.51,2.56,2.9,0,3.77,0,3.77-4,4.33-1.74.25-1.85.72-.61,2.9l-1.1.19-1,.24,1,2-2.62.19.36,2.86a7.19,7.19,0,0,1-1-.16c-.5-.16-1-.37-1.48-.56a14.29,14.29,0,0,0-.07,1.78c0,.36.32.7.38,1.07a2.11,2.11,0,0,1-.1,1.18c-.07.13-.67,0-1,0a9.86,9.86,0,0,1-1.09-.32c0,1.2.28,2.36-.07,3.28a13.79,13.79,0,0,1-2.06,2.71,2,2,0,0,0-.46,1.22,7.63,7.63,0,0,1-2.61,6.6c-1.66,1.58-2,2.84-.7,4.63.12.16,0,.5,0,.75-.38,3.32-1,6.63-1.06,10,0,1.84.83,3.7,1.31,5.54a.59.59,0,0,0,.4.37,16.93,16.93,0,0,0,4.38.17c3-.61,3.93-.24,5.2,2.57.56,1.26,1.4,2.4,2,3.64a25.88,25.88,0,0,1,1.16,3.13c.33,1,.51,2.07.91,3,.72,1.78,1.5,3.5.42,5.43-.52.92-.05,1.66.91,1.47a14.61,14.61,0,0,0,4.59-1.52c3.16-1.91,5.11-1.91,8.21.17a15.91,15.91,0,0,0,3.63,1.5q2.75,1,5.54,1.81c1.39.42,2.79.8,4.22,1.07a3.91,3.91,0,0,1,3.45,3.09c.44,2.05,1.74,3,3.7,2.71,3.47-.52,6.34.74,9.07,2.64,2.27,1.58,4.57,3,7.57,2a3.81,3.81,0,0,1,2,.21c2.08.59,4,1,5.66-1.1.45-.57,1.87-.5,2.85-.5a19.26,19.26,0,0,1,3.68.42,1.56,1.56,0,0,1,1,.92c.71,2.45,1.3,4.94,2,7.39.31,1.08.8,2.11,1.21,3.16.32.82.69,1.62.93,2.46.42,1.51.7,3.07,1.15,4.57.57,1.9.33,2.44-1.49,3-.41.14-1,.57-1,.87a1.76,1.76,0,0,0,.8,1.14c1.46,1,3,1.88,4.45,2.92s2.44,2,2.37,3.89a1.45,1.45,0,0,0,.82,1.07,13.49,13.49,0,0,1,6.16,3.63c1.43,1.59,3,2.75,3,5l5.19-.44,1.24-4.71a27,27,0,0,0,2.27,2.11,4.78,4.78,0,0,0,1.49.46c.12-.52.52-1.18.33-1.53a7.65,7.65,0,0,1-.38-6.4c.3-.92-.13-2.11-.35-3.16-.39-1.83-.86-3.65-1.33-5.46a2.32,2.32,0,0,0-.56-1.15c-2.6-2.23-3.6-5.21-4.39-8.41a13.92,13.92,0,0,0-2.17-3.87c-1-1.47-2.12-2.82-2.94-4.36-.23-.44.29-1.46.72-2,1.12-1.5,2.39-2.89,3.59-4.33s2.21-2.78,3.4-4.09c1.41-1.56,2.59-3.21,2.26-5.43-.52-3.51,1.09-5.55,4.3-6.58a.75.75,0,0,0,.29-.23,3.93,3.93,0,0,0,.29-.48l-3.52-1.82v2.77c-1.33.23-1.68-.57-1.79-1.7-.15-1.45-.4-2.9-.49-4.35-.31-4.82-4.19-7.15-7-10.2-.39-.41-1.1-.75-1.16-1.2-.37-2.55-2.46-3.26-4.34-4.06-2.9-1.23-3.3-3.34-1.87-6.41a30.08,30.08,0,0,0,1.57-3.46,3.78,3.78,0,0,0-.28-1.95c-.31-1.09-.71-2.16-1.09-3.31,2.5-.26,3.11-1.47,2.73-4.77l-1.42.76c-.18-.13-.34-.17-.37-.27-.81-2-1.55-4.1-2.43-6.11a2,2,0,0,0-1.33-1.15c-1.49-.05-1.6-.95-1.58-2.05s0-2,.07-3.05a5.67,5.67,0,0,0-2.3-5.14c-2.78-2.3-2.64-3.51-1.4-6.88,1.07-2.9,2.76-3.57,5.48-3.21,2.24.3,4.49.51,6.74.62,1.95.09,3.76-.26,5.06-2,2.14-2.9,2.17-2.85,5.34-1.5a8.83,8.83,0,0,0,1.66.3c.62.13,1.57.09,1.79.47,1.24,2.14,3.64,1.75,5.38,2.71a5,5,0,0,1,2.46,2.56c.86,3.36,3.89,3.71,6.54,2.76a13.23,13.23,0,0,1,2.64-.27,7.58,7.58,0,0,0,2.47-.51c1.36-.71,2.38-.43,2.24,1.1a9.22,9.22,0,0,0,1.94,6.17c1,1.45-.07,2.11-1.36,2.83.49.35.79.72,1.13.79,2.13.41,2.95,1.82,3,3.82,0,1.34.41,2,2,2.15,1,.1,1.9,1.08,2.74,1.79.19.17.1,1-.13,1.28a15.86,15.86,0,0,1-1.74,1.8l-1.95-1.15c-.05.94-.11,1.87-.16,2.8,0,.18,0,.37.1,1.14,1-.46,1.92-.83,2.77-1.23.16-.07.24-.29.36-.43,1.11-1.27,2.34-2.77,4.15-1.89a5.59,5.59,0,0,1,3.38,4.73,12.38,12.38,0,0,0,.71,3.53c2.55-1.92-.24-4.4,1-6.5,2.38.09,1.64,2.9,3.37,3.87.13-.71.2-1.3.34-1.88s.18-1.55.61-1.95a6.47,6.47,0,0,0,2.35-5c0-1,.77-1.06,1.46-.44a18,18,0,0,1,1.31,1.44l.51-.33c-.39-.72-.75-1.45-1.18-2.14-.68-1.11-1-2.09,0-3.3a2.36,2.36,0,0,0-.06-2.15c-1.76-2.76-2.49-5.57-1.41-8.82.31-.92-.23-2.09-.24-3.15a6.63,6.63,0,0,1,.47-1.73l1.63.55a7.07,7.07,0,0,1,1.4.48,10.31,10.31,0,0,1,1.47,1.17c.48.42.9,1.22,1.4,1.26,2.13.19,3.73.79,3.49,3.06l3.14.62-.68,2.22c.18.07.56.38.8.3,2-.67,3.18.94,4.72,1.49,1,.35.74,1.06.18,1.82a6,6,0,0,0-.57,1.89,5.64,5.64,0,0,0,1.91-.52c2.17-1.59,2.34-1.5,2.88,1.93l1.58-1.19c0,.18,0,.35,0,.53l5.59,2.42-1.18,1.68a28.93,28.93,0,0,0,3.22,2.53,6.09,6.09,0,0,0,2.22.29c1.24.15,2.11.54,1.56,2.08a4,4,0,0,0-.08,1.51c.07,1.31-.56,1.65-1.77,1.51a3.45,3.45,0,0,0-2.09.52c2.43.82,5.2,1,5.44,4.4,1.86-.74,3.13-.76,3.73,1.35.12.43,1.87.82,2.63.56,2.63-.92,4.3,1.46,6.56,1.69.21,0,.37.74.52,1.14.64,1.71,2.15,2.21,3.6,1.1.92-.71,1.75-1.33,2.8-.26.08.08.29.14.34.1,1.73-1.48,3.48-.22,5.22,0,.25,0,.68,0,.73-.08,1.11-2.37,3.42-.64,5-1.45.54-.27,1.48.25,2.24.41-.24.79-.23,1.91-.77,2.31-1.87,1.4-2.63,3.34-3.31,5.41-.74,2.26-1.74,4.36-3.87,5.71a2.05,2.05,0,0,0-1,1.13c-.14.92-.4,2.34.07,2.72,1.1.89,1.79-.37,2.27-1.19.83-1.42,1.43-3,2.24-4.4s1.83-2.87,2.73-4.31a4.58,4.58,0,0,0,.93-1.79c.1-1.45.48-2.49,2.13-2.6a3.84,3.84,0,0,1,4,2.28c.17.54.14,1.14.32,1.68s.44,1.06.74,1.1a1.55,1.55,0,0,0,1.21-.66,23.75,23.75,0,0,0,1.15-2.39,1.82,1.82,0,0,1,2.82-.92c.33.17.69.47,1,.44,2.49-.22,3.54,1.24,4.13,3.35a6.26,6.26,0,0,0,.59,1.17l1.48,2.76-.4.25,3.06,2.45-.17.2a11.15,11.15,0,0,1,1.33,1.43,4.48,4.48,0,0,1,1,2.11,17.46,17.46,0,0,1-3,10,3.87,3.87,0,0,1-1.57,1.34c-1.88.79-3.57,1.63-3.85,4-.05.42-.91.78-1.45,1.08a4.11,4.11,0,0,0-2.33,4,35.27,35.27,0,0,1-.66,5.62c-.21,1.44-.57,2.86-.74,4.3s-.2,2.9-2.34,1.8c-.26-.13-.86.11-1.15.36-2,1.74-3.88,3.59-5.93,5.25a4.91,4.91,0,0,1-2.74,1.06,12.46,12.46,0,0,0-7.16,2.71,20.93,20.93,0,0,1-4,2c-.57.25-1.27.22-1.83.49-3.44,1.65-6.85,3.37-10.29,5-.72.34-1.61.31-2.33.64-2.75,1.26-4.92,3.2-5.62,6.22a10,10,0,0,0,.25,4.35A4.18,4.18,0,0,1,436,337.7c-2.51,2.47-4.81,5.09-5.86,8.55a27,27,0,0,0-1.12,4.4,66.73,66.73,0,0,1-5.77,19c-.34.75-.61,1.53-.89,2.3,0,.09.06.22.21.7.52-.46,1.07-.75,1.3-1.2a85.83,85.83,0,0,0,4-8.36c2.41-6.41,4.54-12.93,8.55-18.61A35,35,0,0,1,450,332.58c3.1-1.47,6.26-1.19,9.69-.54l-.92,1.87c.58.31,1.14.56,1.66.88a2,2,0,0,1,.78,3.05A31.39,31.39,0,0,0,459,342c-.77,2-1.91,2.88-4.17,2.56-2.64-.37-4,.56-5.67,3.23a8.56,8.56,0,0,0,1.66,0,3.32,3.32,0,0,1,3.48.85c.91,1,1.86.54,2.61-.36a27.53,27.53,0,0,1,2.15-2.66c1.16-1.08,2.51-.65,2.58.9a37.29,37.29,0,0,1-.49,5.41c-.09.88-.17,1.77-.29,3,.82-.37,1-.46,1.25-.57l1.61-.84a11.81,11.81,0,0,1,.74,1.83c.33,1.47.08,3.38,2.59,2.92a.56.56,0,0,1,.45.29c.9,2.35,2.77,1.67,4.52,1.53.66-.05,1.71-.06,1.95.32,1,1.53,2,1.08,3.38.65,4.21-1.36,8.46-2.57,12.69-3.84,1.36-.41,2.59-.74,3.86.5.56.54,1.78.43,2.71.53,1.85.19,2.27.93,1.24,2.47a23.48,23.48,0,0,1-1.9,2.11c-.74.86-1.45,1.74-2.17,2.61,0,0,0,.14-.09.16-2.26,1.27-3.72,3.3-5.21,5.34-.87,1.2-2.15,2.1-3,3.33a6.09,6.09,0,0,1-4.06,3.12,3.16,3.16,0,0,0-1.83,2c-.74,2.48-1,5.1-1.83,7.56a14.73,14.73,0,0,1-2.49,4.82c-1.76,2.13-3.92,1.9-5.6-.26-2.87-3.69-2.9-11.06.08-14.66a50,50,0,0,1,4.42-4.46c1.86-1.75,3.81-3.4,5.69-5.14.22-.2.21-.65.31-1-.4-.07-.91-.35-1.16-.19-1.56,1-3.08,2-4.57,3-.46.32-.74,1-1.22,1.18a5.22,5.22,0,0,1-1.7.2,4.4,4.4,0,0,1-.07-1.54,23.1,23.1,0,0,1,1.19-2.57l-.78-.48c-.7,1-1.42,1.89-2.09,2.86-1.76,2.52-3,5.73-5.4,7.37-1.85,1.28-3.44,3.18-5.63,3.88a3.79,3.79,0,0,1-3-.76,10.42,10.42,0,0,0-5-2.52c-2.91-.53-3.54-3.14-4-5.45a14.51,14.51,0,0,0-2.71-6.18c-.78-1-1-2.43-1.51-3.66-.81-2-1.23-2.18-3.31-1.46a1.25,1.25,0,0,1-.73.06c-1.71-.54-2.5.57-3.42,1.7s-2.22,1.86-3,3a10,10,0,0,0-1.81,4.36c-.25,3.16-.06,6.35,0,9.52.17,8.71-3.68,13.5-11.35,15.57-6,1.62-12.11,3-18.17,4.48a7.87,7.87,0,0,0-5.43,4.69,14.08,14.08,0,0,1-7.09,7.59,4.18,4.18,0,0,0-2.46,4.17c0,2-.94,2.81-2.81,2-6-2.48-11.88,2-15.35,6.16-1.79,2.15-1.5,4.62.3,6.75,1.53,1.82,1.19,3-1.12,3.78a6.64,6.64,0,0,0-2,.7,3.28,3.28,0,0,0-1.37,1.89c-.08,1.53-.83,2-2.16,2s-2.41-.08-3.62-.13a5.36,5.36,0,0,0-5.13,2.67,7.79,7.79,0,0,1-4.08,3.52,5.54,5.54,0,0,0-1.92,1.76,4.85,4.85,0,0,1-4.89,1.87c-1-.2-1.46-.81-1-1.79s1.11-2,1.64-3a14.8,14.8,0,0,0,1.84-3.73c.59-3.08,2.35-5.38,4.41-7.53,1.2-1.25,1.45-2.62.47-3.95-2.28-3.09-1.64-6.17,0-9.1,1.5-2.62,1.23-4.8-.78-6.9-.17-.18-.41-.38-.45-.6-.14-.73-.21-1.47-.3-2.21.8.09,1.81-.1,2.35.32A20.59,20.59,0,0,1,353,413c1.42,1.73,3.22,1.88,5.16,1.4.42-.1.79-.65,1.05-1.08.44-.71.79-1.48,1.37-2.61a26.79,26.79,0,0,1-2.45-2.71,30.3,30.3,0,0,1-3.25-5.24c-.67-1.52-1.52-2.33-3-1.65-3.83,1.74-7.57.56-11.39.1-2.93-.35-5.94,0-8.89-.22a74.82,74.82,0,0,1-8.72-1.24c-.49-.09-1.1-1.23-1.09-1.87.07-2.37-1.24-4.1-2.63-5.66a3.69,3.69,0,0,1-1.22-2.77c.06-2.6-1-3.52-3.38-2.8-3.14,1-4.31.72-6.59-2.74a26.9,26.9,0,0,1-1.88-3.93c-.93-2.1-2.09-2.71-4-1.51-2.22,1.37-4.17.17-6.2-.18-3-.52-3.05-.58-3.59,2.33-.29,1.53-.92,2.62-2.67,2-1.27-.47-1.38.48-1.74,1.16-.55,1-.78,2.32-2.47,2.17-.34,0-.88.79-1.12,1.31-1.47,3.18-2.17,3.58-5.38,2.37s-6.34-1.68-9.63-.36a3.59,3.59,0,0,1-4.75-1.67,4.39,4.39,0,0,0-4.46-2.23c-3,.21-6,.42-8.94.39-.8,0-1.57-.89-2.39-1.29s-1.79-1.09-2.64-1a7.63,7.63,0,0,1-6.06-2.15,4.63,4.63,0,0,0-2.73-1.08,109.35,109.35,0,0,0-14,.16,120.56,120.56,0,0,1-17.11-.1c-9.63-.54-19.26-1.32-28.88-2.12-7-.58-13.91-1.3-20.85-2-7.57-.8-15.15-1.58-22.7-2.61-2.79-.38-5.47-1.55-8.24-2.17-14.54-3.22-29.17-6-43.6-9.67-12.15-3.06-24.07-7.06-36.09-10.64a5.94,5.94,0,0,0-1.29-.31c-1.75-.11-2.52-1.06-2.8-2.76a27.14,27.14,0,0,0-1.28-4.54,2.71,2.71,0,0,0-1.19-1.42c-1.25-.62-1.51-1.61-1.82-2.86a6.49,6.49,0,0,0-2.08-2.9c-1.39-1.25-1.54-1.94-.23-3.26,1.47-1.48,1.34-2.19-.55-3-.39-.17-.75-.4-1.3-.7"/><path class="cls-1" d="M271.35,117.57a9.11,9.11,0,0,0-1.14.26c-1,.35-1.53,0-1.75-1.06-.19-.88-.52-1.73-.79-2.6.91-.2,1.82-.38,2.72-.61a6.41,6.41,0,0,0,1.12-.71,10.77,10.77,0,0,0-2.24-.71c-1.18-.07-2.12-.56-2.13-1.7,0-.65.79-1.32,1.27-1.94a17,17,0,0,1,1.19-1.26l2.46.68c-.35-1.07-.56-1.79-.8-2.49-.38-1.1.08-1.48,1.16-1.57a12.13,12.13,0,0,0,3.6-.6c1.62-.67,2.42-.26,3.12,1.27s1.77,3,2.58,4.55a22.12,22.12,0,0,1,1.26,3.14,65.3,65.3,0,0,0,3,7.78c.4-.71.78-1.43,1.21-2.11s.9-1.27,1.35-1.91c.51.57,1,1.13,1.51,1.72s1,1.31,1.44,2l.55-.33-.18-1.41,1.75-.17-1.86-2.16.08-.52,3.92.25.17-.84c-.75-.21-1.51-.36-2.23-.64a11.21,11.21,0,0,1-1.52-.86c.35-.54.6-1.44,1.07-1.57,1.74-.5,3.57-.69,5.34-1.11a9.21,9.21,0,0,0,2.84-1c1.22-.78,2.33-1,3.49-.06.75.59,1.4,1.29,2.14,1.9,2.52,2.1,2.55,2.19,1,5.15-1.07,2.11-.9,4.1.58,5.61.93-1.84-1.09-4.57,1.85-5.9l.64,2.32,1.76-.72.3,3.5h2.58c-.27-.63-.6-1.34-.87-2.06-.57-1.51-.11-2.47,1.41-2.57a24.55,24.55,0,0,1,5.32.09,3,3,0,0,1,2,1.7c.16.41-.82,1.29-1.34,1.92a15,15,0,0,0-1.87,2.22c-.19.36.34,1.09.54,1.65a5.52,5.52,0,0,0,1.43-.75c.68-.66,1.17-1.52,1.87-2.15.35-.31,1-.3,1.51-.43a8.49,8.49,0,0,1,.26,1.42,2.35,2.35,0,0,1-.32.88c-1.1,2.51-.82,4,1.53,6.22a20.59,20.59,0,0,0-.45-2.36c-1-3.32.52-5.62,4-5.84a12.67,12.67,0,0,1,2.28,0c.58.07,1.55.27,1.62.58a2.81,2.81,0,0,1-.36,2.07,16.26,16.26,0,0,1-2.22,2.06c-.45.42-.84.9-1.26,1.35l.42.43a8.27,8.27,0,0,1,1.23-.92c.46-.23,1.15-.57,1.45-.38a2,2,0,0,1,.57,1.44,16.43,16.43,0,0,1-.25,2.4l.54.16c.67-1.88,1.33-3.77,2-5.65a17.73,17.73,0,0,1,.77-1.6,7.27,7.27,0,0,1,1.61.83c1.33,1.17,2.61,2.41,3.87,3.65.89.87.63,1.45-.46,2s-1.72,1.31-2.64,1.87-1.84.78-2.68,1.3a6.8,6.8,0,0,0-1.26,1.36,10.71,10.71,0,0,0,1.83-.09c2.62-.57,5.23-1.25,7.86-1.77.43-.09,1.35.35,1.38.6.05.54-.19,1.45-.58,1.62a12.36,12.36,0,0,1-3.37.87,25.53,25.53,0,0,1-3.25,0l0,.46,5.52,2-5.22,3.26a4.64,4.64,0,0,0,1.13.32c.31,0,.61-.28.9-.26a25.06,25.06,0,0,0,4.75.34,20.12,20.12,0,0,0,4.3-1.55l.4.5-.92,2.47,5.47,1.51c1.16-1.79,2.31,0,3.78.81,0-.95,0-1.62,0-2.28s.22-1.27.33-1.9h.48l.45,2.64c3.54-2.15,3.55,2.15,5.57,2.86l-.49,2.42c1.34-1,2.49-2,3.45.29l1-3.38.81-.07,1.16,5.14c.85-2.31,1.53-4.3,4.42-2.77l-1.2-2.39.3-.56a23,23,0,0,1,4.66,2c.59.41.27,2,.66,2.89.7,1.63-.5,1.59-1.41,2-.27.11-.62.66-.55.84a3,3,0,0,0,1,1.27,4.91,4.91,0,0,0,1.28.55,32.53,32.53,0,0,1-.21,3.79,4,4,0,0,1-1,2.12c-1.51,1.46-1.77,2.63-.68,4.49a7.11,7.11,0,0,1,.87,1.67c.35,1.32-.36,2.08-1.73,2a8.62,8.62,0,0,1-7.52-6.57c-.13-.63-.39-1.23-.7-2.22a8.89,8.89,0,0,0-.74,1.13c-.9,2.29-1.11,2.33-2.75.63-.27-.28-.87-.62-1.1-.51-1.49.76-2.51-.2-3.68-.8s-2.67-1.16-4.16-.34l2.15,2.47-.36.43H358l-.31.39,2.78,2.81-.18.39-3.49-.73c.22.61.24,1.19.53,1.4,1.33,1,2.77,1.76,4.1,2.72a7.63,7.63,0,0,1,2.34,2.15c1,1.85,2.21,3.12,4.5,3.26.87.05,1.69.84,2.69,1.37-.12.05,0,0,.08,0,1-2.42,1-2.42,3.2-.75.05,0,.09.1.15.11a4.71,4.71,0,0,1,4,4c.14.68,1.88,1,2.81,1.57,1.56,1,3.07,2.09,4.56,3.2.2.15.14.65.23,1.16l-3.53-1.73-.51.74a24.69,24.69,0,0,1,3.15,3.32,30.73,30.73,0,0,1,2.85,5.54c.41,1-.44,1.4-1.46,1.28a67.92,67.92,0,0,1-7.84-1,50.85,50.85,0,0,1-6.9-2.69c-.49-.2-.95-.46-1.86-.9l1.12,2.68a21.84,21.84,0,0,0-2.58-1.1,7.14,7.14,0,0,0-2.4-.27c-.36,0-.8.57-.94,1-.07.19.44.69.78.88a5.57,5.57,0,0,0,1.6.57c2.1.43,4,1.12,5.26,3.05.32.49,1.19.64,1.83.9a22.78,22.78,0,0,0,2.8,1.05,18.4,18.4,0,0,0,2.76.39c.23,0,.52-.21.72-.14a35.91,35.91,0,0,1,5.15,2.06c.63.35.79,1.54,1.17,2.34a10.62,10.62,0,0,1-2,.65c-3.5.46-7,1.05-10.53,1.2-2,.08-4-.6-6.05-1-.41-.08-.82-.64-1.16-.58-2.76.45-4.9-1.48-7.43-1.83a9.59,9.59,0,0,0-3.14.21c-1.73.35-3-.48-4.06-1.56-.22-.21,0-.87,0-1.31s.11-.92.17-1.38c-.54,0-1.28-.31-1.6-.06-1.47,1.17-2.06.42-2.94-.82a14.52,14.52,0,0,0-3.17-2.7c-1.5-1.16-3-2.33-4.61-3.34a1.92,1.92,0,0,0-1.81,0c-.88.95-1.49.69-2.22-.06a15.66,15.66,0,0,0-1.77-1.7c-.27-.2-.78-.06-1.18-.08,0,.46,0,.91,0,1.37,0,.1.15.2.25.28.78.68,2.09,1.11,1.52,2.5s-2,1-3.19,1a3.38,3.38,0,0,0-3.15,1.65,6.09,6.09,0,0,1-2.93,1.84c-3.47,1.17-6.77.06-8.43-3.06-.51-1-.16-2.51.08-3.74s1-2.52,1.28-3.82a1.88,1.88,0,0,1,2.1-1.72c1.2,0,2.51.4,3.6.06,3-.94,6.18-1.31,8.76-3.48s2.65-4.32-.65-5.64c-2.49-1-3-2.55-1.38-5.14,1.75-2.79,4.14-4.83,7.74-4.73a2.7,2.7,0,0,0,.76-.08c3.52-.93,3.52-.93,4.93,2.6.11.28.26.55.52,1.07.63-.49,1.13-.93,1.69-1.28a10.69,10.69,0,0,1,1.82-1c.71-.28,2-.26,2.12-.69a11.05,11.05,0,0,0,.59-4c0-.39-1.31-1.2-1.74-1-2.32.85-4.47,1.27-6.56-.57-.31-.27-1.06,0-1.61,0,.29,3.21-.06,3.58-3.28,3.78a18.53,18.53,0,0,1-2.25.27c-.87-.05-2.18-.07-2.48-.59a3.82,3.82,0,0,1-.33-3.09,4.73,4.73,0,0,0,.61-3.53c-.28-1.06.3-1.53,1.43-1.23.88.24,1.79.4,2.78.62-.4-2-1.45-2.63-3.29-2.29-2.65.5-3.83-.15-4.91-2.58-.21-.47-.58-1.12-1-1.21-2.64-.61-5.45-.92-5.52-4.83l-.59,0-1.08,2.15a12,12,0,0,1-1.38-1.57c-1.87-3.41-3.55-3.58-6-.57-.2.24-.39.62-.64.68a16.53,16.53,0,0,1-2,.28c.09-.75-.09-1.73.31-2.21,2-2.27,1.94-2.63-.78-4.1-1.29-.7-2.4-1.84-4.19-1.15-.47.19-1.46-.6-2.05-1.12-2.29-2-4.49-4.07-6.78-6.05-.35-.3-1-.3-1.47-.43.07.57,0,1.28.26,1.68.56.75,1.55,1.2,2,2a5,5,0,0,1,.91,3c-.12.68-1.37,1.51-2.2,1.61a25.52,25.52,0,0,1-4.67-.18c-.62,0-1.24-.1-2.19-.17l1.92,3.16-.41.58-6.67-3-.23.45,2.46,2.17a12.94,12.94,0,0,1-1.95.26c-4.68-.28-9.36-.6-14-.9-1.29-.08-2.53-.09-3-1.73-.1-.34-1.42-.73-1.83-.49-3.11,1.75-5.39.95-7.19-2-.4-.64-1.11-1.11-1.42-1.78s-.66-1.85-.35-2.13a3.35,3.35,0,0,1,2.34-.6c.62,0,1.2.89,1.82.91a6.2,6.2,0,0,0,2.12-.73c-.38-.46-.68-1.15-1.16-1.32a16.38,16.38,0,0,0-2.77-.45c-2.05-.35-4.12-.66-6.14-1.14-1-.23-1.38-.84-.93-2a3.84,3.84,0,0,0-.26-2.45c-.44-1.18-.75-2.12.11-3.36.45-.65.23-1.92,0-2.84-.33-1.56-1.32-3.07.4-4.49.34-.28.31-1.08.33-1.64.09-3.92,2.17-6.88,4.72-9.54a6.19,6.19,0,0,1,3-1.36,23,23,0,0,1,4.14-.46c.56,0,1.5.11,1.61.41.19.53.1,1.57-.27,1.82-2.62,1.8-2.82,4.68-3.52,7.35,0,.12-.11.27-.07.37,1.43,3.61.26,8,3.32,11.11l5,5.1c-.67,1.48-4.06,1.37-4,4.77.94-.82,1.57-1.28,2.09-1.83,1.66-1.74,1.91-1.74,3.25.16.21.3.49.55,1.1,1.24.33-1,1-1.94.71-2.32-1.25-1.93-.8-4.94-4-5.72-1.83-.44-2.59-4.28-1.47-6.38l3.69,3,.45-.31-2.43-5.38"/><path class="cls-1" d="M170.27,112.22c1.83,1.91,2.65,1.79,3.46-.31.62-1.61,1.58-2.08,3.09-1.23a8.09,8.09,0,0,1,2.36,2.11c.67.87.63,1.79-.64,2.24-1,.34-1.62.9-.92,2s1.29.11,2-.2a3.29,3.29,0,0,1,2.35-.35c1.37.71,1.73.16,1.86-1,.09-.76,0-1.53.18-2.27.07-.37.43-1,.68-1a1.52,1.52,0,0,1,1.25.56c1,2.37,2.48,4.52,2.46,7.31a23.35,23.35,0,0,0,1.15,5.55.79.79,0,0,0,1.56,0,5.79,5.79,0,0,0,.08-2c-.22-1.32-.66-2.59.56-3.73a1.37,1.37,0,0,0-.13-1.3c-1.5-1.57-1-3.48-.87-5.26,0-.49.9-.94,1.65-1.67l1-1.72,1.89,1.43c1.13-.57,1.8.13,2.59,1.39a21.2,21.2,0,0,0,3.32,3.35c.3.3.77.61.82,1,.22,1.71,1,3.77.33,5.08-1.34,2.64-.21,4.85.17,7.25a24.86,24.86,0,0,1,0,3.7l-1.84.45c1.15,2,2.14,3.85,3.34,5.59.26.37,1.26.26,1.92.31s1.48-.21,1.77.1c1.57,1.68,3.66,3,4,5.61.05.41.78.72.88,1.14a6.19,6.19,0,0,1,.15,2.64c-.06.27-1.2.28-1.82.46s-1.22.43-2.13.75L207,148.72l-.58,1.84-2.69-.28c1.87,1.81,1,3.11-.18,4.39l.66.23a7.58,7.58,0,0,1,1.54-1.41,6.16,6.16,0,0,1,1.91-.31,4.91,4.91,0,0,1,.17,1.51c-.24,1.17.39,2.85-1.21,3.31a17.12,17.12,0,0,1-5.87,1c-2.56-.2-5-1-6.63-3.51-.73-1.17-2.19-1.91-3.41-2.72a1.56,1.56,0,0,0-1.43.09c-3.49,2.65-7.91,3-11.71,4.79-4.24,2-8.53,1-12.77.65-3.59-.31-4.48-2.1-3.43-5.58.93-3.09.75-3.36-2.45-4a10.44,10.44,0,0,1-8.48-7.06c-.87-2.47-.08-4.19,2.48-4.5a86.21,86.21,0,0,1,10.62-.38,3.7,3.7,0,0,1,2.3,1.15c1.66,1.69,3.69,1.82,5.81,1.66.48,0,1.24-.46,1.32-.83a2,2,0,0,0-.54-1.65c-2.31-2-4.48-4.49-8.11-3.64a.88.88,0,0,1-.38,0c-4.13-.86-8.27-1.7-12.4-2.62a1.43,1.43,0,0,1-1.16-1.17,11.72,11.72,0,0,1,.22-2.94,2.41,2.41,0,0,1,1.53-1.46c1.68-.22,3.4-.09,5.1-.17a13.63,13.63,0,0,0,4-.7c-1.64-2-3.88-2.24-6.09-2.51-.19,0-.39.08-.57,0-.82-.21-1.63-.45-2.44-.68l1.37-1.79.31-.43c-.08-.14-.1-.3-.19-.34-1-.47-2.32-.53-2.06-2.18s1.3-1.78,2.61-2a1.88,1.88,0,0,0,1.2-1.34c.11-1.39.78-1.85,2-2.31a11.11,11.11,0,0,0,3.37-2.41,7,7,0,0,1,4.54-2.09,25.06,25.06,0,0,0,4.07-.89c1.23-.28,2.47-.42,3.16.94a3.15,3.15,0,0,1-.44,4c-.62.61-1.27,1.18-1.91,1.77"/><path class="cls-1" d="M254.4,44.37a25.69,25.69,0,0,1-1.69-2.46c-.9-1.68-1.68-3.41-2.63-5.36,5.71-1.3,8,3.47,11.45,5.63l.46-.65c-.47-.47-.92-1-1.41-1.41a26.55,26.55,0,0,1-2.79-2.55c-1.15-1.42-.81-2.52.83-3.36a12.43,12.43,0,0,0,1.85-1c1-.78,1.81-1.68.3-3a11,11,0,0,1,1.39-.82c1.08-.43,1.94-.71.69-2.07-.51-.56-.34-1.74-.55-3.13-.52.77-.86,1-.9,1.37-.35,2.74-2.19,4.36-4.33,5.69a10.8,10.8,0,0,1-2.15.53c-.48.16-.87.59-1.35.76a5.54,5.54,0,0,1-2,.45c-.35,0-1-.83-1-.91a6.91,6.91,0,0,1,1.31-1.45,12.07,12.07,0,0,1,1.3-.89l-.38-.68c-.83.47-1.7.89-2.49,1.42s-1.54,1.51-2.43,1.72a2.53,2.53,0,0,1-2.25-1c-.43-1.26.84-1,1.59-1.14a15,15,0,0,0,1.79-.64l-.11-.68-6.27.7-.31-.46c.38-.58.78-1.15,1.12-1.75.21-.37.56-1,.43-1.15a1.69,1.69,0,0,0-1.23-.6c-1,0-1.73-.13-1.76-1.4,0-.32-.56-.71-.94-.91a12.92,12.92,0,0,0-1.87-.63c1.47-1.28,2.69-2.34,3.92-3.4.14-.12.38-.13.51-.25,1.6-1.52,1.59-1.52,3.14-.49l2.52-1.79a9,9,0,0,1-.94-1.61,6.62,6.62,0,0,1-.18-1.74c.52.07,1.18,0,1.53.24,1.24,1,2.36,2.14,3.59,3.28l.62-1.06,2,1.64a6.49,6.49,0,0,0-.38-1.91A8.28,8.28,0,0,0,253,14.24c-1.85-1.75-1.79-1.72.24-3.13A2.3,2.3,0,0,0,253.89,9c-.74-1.64-.15-2,1.37-2.12,1.87-.09,3.77-.37,4.36,2.14,0,.19.47.29.71.43l.48-.29a12.5,12.5,0,0,0-1.08-2.33c-1-1.35-.28-2,.92-2a20.77,20.77,0,0,1,4.08.85c-.15-.68-.27-1.35-.46-2-.39-1.33.12-2.36,1.43-2.28,2.18.14,4.28-1.58,6.48-.2A.89.89,0,0,0,273,1c1.13-1.71,2.25-.87,3.33,0s2.24,1.95,3.85.66c.17-.14,1.62.69,1.61,1.07a16.18,16.18,0,0,1-.59,5.55c-.75,2-2.2,3.71-3.42,5.68l1.52.94L275.78,20l.58.43c2.45-1.6,3.71-4.28,5.82-6.52a10.16,10.16,0,0,1,.16,2.26c-.64,4.24-.48,8.62-2.36,12.66-.4.86-.07,2.13.12,3.17.52,2.93-.28,3.93-3.21,3.93a2.48,2.48,0,0,0-1.48.54c-.13.11.15.9.41,1.26,1.09,1.53.83,2.74-.9,3.42-.7.28-1.48.32-2.21.54-.94.28-1.85.62-3.13,1.06,1.92,1.93,3.7-.13,5.67.78l-3.87,4.09a6.56,6.56,0,0,0,1.75,0c2.5-1,4.59.15,5,2.86a8.33,8.33,0,0,0,.58,1.79,3.47,3.47,0,0,1-2.47,4.7c-2.33.54-2.41.72-1.22,2.83a5.18,5.18,0,0,1,.91,1.86c.05.64-.19,1.67-.64,1.91-1.93,1.07-3.84,2.66-6.31,1.21a1.46,1.46,0,0,0-1.32.24,1.26,1.26,0,0,0,0,1.2,2,2,0,0,0,1.18.73c.32.07.7-.25,1.07-.32a14.18,14.18,0,0,1,2.8-.39,2.14,2.14,0,0,1,1.64.74c.75,1.55,1.52,1.92,2.84.61.09-.09,1.12.41,1.14.67a11.48,11.48,0,0,1-.15,3.75A6.21,6.21,0,0,1,270.32,76c-.24-.08-.59-.27-.72-.18-1.91,1.36-3.65.44-5.52-.14-.56-.17-1.79.7-2.21,1.39-1.32,2.22-3.17,2.91-5.8,2a7,7,0,0,0-2.85-.24c-1.33.14-3.62-1.23-3.94-2.55-.51-2.14-.2-4.06,1.6-5.51,1.49-1.2,1.4-2.52.49-4A9.88,9.88,0,0,1,250,63.9a1.81,1.81,0,0,1,2.66-2.11,14.09,14.09,0,0,1,3.79,4c1.08,1.69,2.38,2.5,4.25,2.06.77-.18,1.86-.84,2-1.47a38.71,38.71,0,0,0,.54-5.43l-.79-.13a11.76,11.76,0,0,1-.91,2.32c-.43.66-1.24,1.67-1.7,1.58a3.14,3.14,0,0,1-2-1.67c-.52-1.25-.19-3.21-1-3.85s-2.54.3-3.89.4c-1.92.14-2.7-.76-2.46-2.64.47-3.66,2.92-5.27,6.47-4.3a10.17,10.17,0,0,0,2.42.25,1,1,0,0,0,.8-.43c.17-.49,0-1.17.28-1.53s1-.47,1.46-.68l0-.61a4.64,4.64,0,0,0-1.56-.19c-.66.15-1.25.72-1.91.81-1,.14-1.95.53-1.92-1.48,0-1.5-1.44-3-2.25-4.54Z"/><path class="cls-1" d="M524.9,315.85c-.35.47-.69.94-1.06,1.4-1.4,1.71-3.14,1.45-4.06-.58-.13-.29-.61-.74-.66-.7a4.85,4.85,0,0,0-1.23,1c-1.07,1.39-1.79,3.48-3.17,4.08-2.25,1-4.11,2.88-6.84,2.93A4.08,4.08,0,0,0,504,326.4a7.9,7.9,0,0,1-1.42,2c-.95,1-2,1.79-3.51.91a3.16,3.16,0,0,1-1.35-4.1c.48-1.1,1.33-2.06,1.68-3.18.28-.9.49-2.33,0-2.87-.91-1-1.93-.12-2.71.71a5.07,5.07,0,0,1-.75.55c-1.49-1.42-1.23-2.73.48-3.46a1.93,1.93,0,0,0,.78-1.68c-.36-1.59-1.23-3.11,0-4.69a.38.38,0,0,0,0-.36c-2.25-2.8-.36-6.22-1.39-9.21a29.58,29.58,0,0,0-1.07-3.22,12.37,12.37,0,0,1-1.33-8.43c.62-2.76.56-5.67.86-8.51.06-.54.27-1.4.6-1.51a5.74,5.74,0,0,1,2.09.12c-.5,1.93,1.3,2.44,2.15,3.54.29.38.63,1,.5,1.38-1.05,2.86.72,5.28,1.09,7.91.29,2.07.58,4.14.89,6.2.08.53.26,1,.39,1.57h.49c.19-1.13.37-2.26.57-3.39.44-2.44,2.2-3.93,4.29-3.6,1.29.21,2.06.69,1.66,2.32a3.76,3.76,0,0,0,.69,2.55,1.91,1.91,0,0,0,1.83,0c2-2,2-2,3.59.4.06.09.22.13.54.3.37-.5.72-1.06,1.15-1.56a21.55,21.55,0,0,1,3.41-3.75,3.77,3.77,0,0,1,3.29-.31,4.24,4.24,0,0,1,1.63,2.86c.21,1.28.16,2.26,1.81,2.62.53.11.79,1.52,1.34,2.68a15.07,15.07,0,0,0,1.36-1.58c.63-.95,1.08-2,1.76-2.92.26-.34,1-.35,1.46-.51.16.51.61,1.23.42,1.5-1.26,1.79-1,3.58-.45,5.52.22.77-.38,1.74-.31,2.6a7.14,7.14,0,0,0,.9,2.07c.58-.46,1.44-.8,1.67-1.4a13.73,13.73,0,0,0,.39-3c.1-.69.29-1.36.44-2l.69,0,1.16,5.65.73-.09a16.45,16.45,0,0,1,.13-1.94,6.73,6.73,0,0,1,.52-1.3c.43.22,1,.33,1.26.68a9.94,9.94,0,0,1,1.21,2.33c1,2.6,1.89,5.22,2.74,7.86.16.49,0,1.57-.18,1.6a14,14,0,0,1-3.44.21c-.39,0-.7-.69-1.1-1s-1.08-1-1.38-.88c-2.38,1-2.65-1.06-3.57-2.3a30.12,30.12,0,0,0-3.16-3.51,4.92,4.92,0,0,0-1.68-.68,8.14,8.14,0,0,0-.51,1.73c-.06.75.15,1.52.12,2.28s0,1.44-.37,1.78c-1.55,1.43-1.41,3.15-1.16,4.94s-.22,3.3-2,4.07a5.06,5.06,0,0,1-1.55.15,5,5,0,0,1-.06-1.59c.23-.78.79-1.48,1-2.26a23.46,23.46,0,0,0,.29-3.13l-.7-.19"/><path class="cls-1" d="M158.81,92.82l2.34-1.6.16,3,.4.19a8.56,8.56,0,0,1,1-1.48c.55-.52,1.27-1.3,1.82-1.23s1.12,1,1.55,1.6c.61.9,1.08,1.9,1.66,2.83.4.64,1,1.18,1.32,1.84,2,3.78.84,5.71-3.47,5.88a10.4,10.4,0,0,0-2.92.67,33,33,0,0,0-5.26,2.07,15.77,15.77,0,0,0-3.9,3.14c-1.53,1.67-2.59,3.83-5.46,3.4-.45-.07-1.12.71-1.53,1.22a5.27,5.27,0,0,0-.84,1.69c-.78,2.39-2.5,2.92-4.78,2.67a23.55,23.55,0,0,0-3.94,0c-2.24.14-3.21-.5-3.16-2.71a9.23,9.23,0,0,0-1.91-5.81c-1.42-2-1.16-2.57,1.23-3.28-.8-2.63,1.68-3.11,3-3.71A4,4,0,0,0,138.84,99c0-.91-.09-1.71,1.23-1.5a.93.93,0,0,0,.79-.32c1.55-3.05,4.05-5.7,3.94-9.46a5.17,5.17,0,0,1,.37-1.66c.37-1.15,1.11-1.6,2.13-.78a3.31,3.31,0,0,0,3.36.48c2.49-.75,4.36.18,5.61,2.49.8,1.48,1.63,2.94,2.53,4.59"/><path class="cls-1" d="M278.39,88.9a8.11,8.11,0,0,1,.15,2.52c-.21,1-.67,2.46-1.38,2.71a13,13,0,0,1-5.13.64c-1.61-.11-3.11-.66-4.24,1.05a2,2,0,0,1-1.31.68c-4.08.52-8.16,1.19-12.27.08a7.47,7.47,0,0,0-3,.15c-1.12.18-2.2.57-3.32.77-2.57.45-4.29-.83-4.7-3.44-.51-3.25-1-6.5-1.54-9.73a12.13,12.13,0,0,0-1.06-3.22c-.59-1.2-1.45-1.25-2.39-.21-1.46,1.63-2.18,1.59-3.6,0a2.74,2.74,0,0,0-1.25-.75c-1.08-.29-2.47-.23-1.68-2.06.05-.13-.31-.48-.53-.67-2-1.83-1.86-2.5.46-4.05a4.09,4.09,0,0,1,5.4.21,5.18,5.18,0,0,1,1.65,2.77c.29,1.52.88,2,2.31,1.55a10.23,10.23,0,0,1,2-.44,2.56,2.56,0,0,1,1.64.19,38.45,38.45,0,0,1,3.63,3.41c.16.17-.06.89-.3,1.21a19.72,19.72,0,0,0-1.48,1.75c2.59-.07,4.54.52,4.55,3.84l.53-.52.45-1.28a26.64,26.64,0,0,1,3.37,0,17,17,0,0,1,3.38.84c1.22.44,2,.88,2.63-1,.83-2.48,3.29-3.19,5.7-3.46,1.19-.13,2.41.14,3.61.06a19.32,19.32,0,0,0,3-.61c.24-.05.45-.26.68-.28.8-.07,3.65,3.31,3.64,4.1a26,26,0,0,0,.37,3.1"/><path class="cls-1" d="M310.77,208.28c0,2.27-.75,2.85-2.91,2.25-2.79-.77-5.6-1.46-8.4-2.21a4.56,4.56,0,0,1-1.16-.61c-1.72-1.08-3.37-.36-3.49,1.66a2.48,2.48,0,0,1-1.81,2.53c-.73.28-1.21,1.29-1.72,2A21,21,0,0,1,289,217.3c-1.23,1.18-2.56.73-3.86-.39a51,51,0,0,0-4.57-3.16c-.53-.37-1-.8-1.54-1.2.45-.54.81-1.35,1.39-1.57,1.41-.54,1.58-1.41,1.29-2.7-.58-2.58-1.22-5.15-1.58-7.76-.41-3-.56-5.94-.8-8.92a3,3,0,0,1,.11-1.49c.25-.5.73-1.14,1.18-1.2a1.81,1.81,0,0,1,1.47.81c.6,1.18.9,2.5,1.47,3.7s1.34,2.18,2.63.55c.77-1,1.34-.29,2,.27s1.58,1.15,2.17,1a3.12,3.12,0,0,1,3.4,1.06,8.65,8.65,0,0,0,5.09,2.69,5.19,5.19,0,0,1,4.24,3.71c.57,1.88,1.6,2.38,3.48,2.32,2.88-.1,4.14,1,4.16,3.27"/><path class="cls-1" d="M193.65,90.75c-2.83,1-5.36,2.18-8,2.92a8.56,8.56,0,0,1-6.94-1.18c-.5-.31-.73-1.05-1.08-1.6a9.62,9.62,0,0,1,1.68-.62,71.39,71.39,0,0,0,8.3-1.75,5.77,5.77,0,0,0-1.24-.5c-.75-.11-1.52-.1-2.28-.16-3-.22-3-.22-3.59-3.45A13.89,13.89,0,0,1,179,86.11a5.06,5.06,0,0,1-2.17,1.23c-.39,0-.91-.95-1.44-1.56l-1.21.91a27.08,27.08,0,0,1-2.78-2.46,2.61,2.61,0,0,1-.71-2c.14-.45,1.15-.76,1.82-.9a14.76,14.76,0,0,1,2.36-.18c-.17-1.46-.8-2.9-.34-3.53,1.53-2.1,3.33-4.36,6.58-.92q0-.58,0-1.17c-.44-.39-.85-.82-1.32-1.18s-1.16-.5-1.38-.94a6.84,6.84,0,0,1-.34-2.07,16.21,16.21,0,0,1,1.85.33c.81.24,1.59.58,2.39.87.23.08.66.07.7.2.55,1.84,3.25,1.85,3.4,4.11.05.79.82,1.53,1.31,2.39L187,80.37c1,2.91,3.73,3.64,5.92,5.32a3.54,3.54,0,0,0,.34-1c-.11-1.45-1.52-3.06.65-4.24.18-.1-.16-1.29-.38-1.94a3.76,3.76,0,0,1,1.19-4.6,2.41,2.41,0,0,1,1.84-.59c.45.17.75,1.06.88,1.69.21,1.05.12,2.17.36,3.21.14.59.74,1.05,1,1.62a4.82,4.82,0,0,1,.75,2,9.61,9.61,0,0,1-.58,2.41l.44.17,1-1.63.85,1.83.68-3.33.63-.11a7.49,7.49,0,0,1,.84,2.05A7.38,7.38,0,0,1,202,88.9a3.36,3.36,0,0,0-.42,2.37c.26,1.75-.12,2.24-1.91,1.86a19.38,19.38,0,0,1-2.12-.8c-.4-.13-1-.38-1.22-.21-1.7,1.41-2.29.61-2.53-1.14,0-.16-.23-.29-.19-.24"/><path class="cls-1" d="M254.34,44.31c-.4,1.3-.7,2.65-1.22,3.9s-1.39,2.69-2.06,4.06c-.53,1.09-1.15,1.85-2.6.9a4.3,4.3,0,0,0-.31,1.54c.58,2.46-1.27,3.83-2.5,5.38a2.94,2.94,0,0,1-2.56.34c-2-.65-5.23-5.92-5.13-8,.05-1.17.71-1.64,1.86-1.69s1.59-.57.7-1.65a12.73,12.73,0,0,1-1.09-1.77l-3.72.51-.45-3.36c-.37-.09-1.36,0-1.59-.44a41.25,41.25,0,0,1-2-4.44l2.67-.4c-.53-.59-1-.93-1.21-1.4-.49-1.26-1.32-2.66.63-3.51a.47.47,0,0,0,.16-.1c.16-.18.49-.48.45-.53-1.35-2,1.12-3.11,1-4.8,0-.54,0-1.09,0-1.63.66.23,1.55.27,1.93.74a24,24,0,0,1,3.31,4.85c1.25,2.73,3.88,3.64,6,5.29.83.66,1.25,1.8,2,2.55a20.44,20.44,0,0,0,3,2.29c.87.56,1.84,1,2.76,1.45l-.06-.06"/><path class="cls-1" d="M227.93,111.15c1.63,2.72-2.93,2.78-2.76,5.14.13,0,.39.16.59.09,2.34-.75,3.14-.25,3.71,2.17a2.24,2.24,0,0,0,1,1.32c1.6.87,1.67,1.26.57,2.68a2.05,2.05,0,0,0-.2,1.75c1,2.12.82,4-.55,5.22s-3.18,1.24-5.21,0a2,2,0,0,0-1.6-.19c.2.39.31.91.62,1.14,1.48,1.11.64,1.91-.31,2.68-1.15.94-1.83.15-2.44-.74a60,60,0,0,0-4.24-6.05c-.76-.85-2.3-1-3.44-1.54-.7-.34-1.64-.73-1.91-1.34a11.89,11.89,0,0,1-1.16-4.38c0-1.3.68-2.62,1.06-3.93l.8.08a8.31,8.31,0,0,0,.59,1.84,3.66,3.66,0,0,0,1.41,1.48c.29.13.94-.47,1.4-.77.25-.16.42-.47.68-.6,1.95-1,2-1,.29-2.55.12-.25.24-.53.4-.78s.35-.49.6-.84l-2.16-1.42c.25-1,.23-1.87.67-2.33a3.57,3.57,0,0,1,2.27-.73c.83-1.5,1.74-2.1,3.28-.56.28.28,1.19,0,1.78-.13s1.2-.64,1.77-.6a6,6,0,0,1,3,.8c.32.24-.25,1.68-.5,3.1"/><path class="cls-1" d="M18.46,335.76c2.62-1.5,1.16-3.45,1.21-5.15,0-.28-.84-.55-1.22-.9s-1.42-1.11-1.32-1.44c.54-1.86-.81-2.31-1.92-3a5.89,5.89,0,0,1-1.43-.9,2,2,0,0,1,1-3.31,2.2,2.2,0,0,0,1.2-.77c-.63-.15-1.26-.29-1.88-.46a2.08,2.08,0,0,1-1.58-2.76,2.55,2.55,0,0,1,2.32-.55,16.73,16.73,0,0,1,4.37,4.28,8.69,8.69,0,0,0,5.69,4.54c3,.73,4.31,2.91,4.64,6,.28,2.61.86,5.18,1.39,7.76a2.4,2.4,0,0,0,.86,1.43c3.26,2.11,3.37,5.6,4,8.86a16.51,16.51,0,0,1,.54,3.93A8.37,8.37,0,0,1,35.08,356a10.43,10.43,0,0,1-2.2-1.39,65.08,65.08,0,0,1-4.29-4.95,6.88,6.88,0,0,1-1.6-3,5.57,5.57,0,0,0-2.09-3.86A5.85,5.85,0,0,1,23,340.31a6.3,6.3,0,0,0-4.51-4.55"/><path class="cls-1" d="M232.56,107.87l2.25.67c-.71-2.3.6-3.18,2.32-3.6,1.89-.46,3.9-2,5.65.42.26.37,1.08.48,1.64.48,1.52,0,3-.2,4.55-.2,1.17,0,1.68.52,1.35,1.84a9.31,9.31,0,0,1-2.65,4.9,5.31,5.31,0,0,0-1.32,3c-.37,2.57-1.51,3.35-4.05,2.66a29.11,29.11,0,0,0-3.86-.52l-.14.59c.13.19.21.46.39.57,2.61,1.69,3,3.28,1,5.8a8.39,8.39,0,0,1-2.63,2.12c-.85.46-1.68.35-1.9-1-.65-4.11-1.42-8.21-2.07-12.32-.27-1.7-.37-3.43-.57-5.42"/><path class="cls-1" d="M226.2,89.43l1.58,5a32.48,32.48,0,0,1-4.72.56,9.23,9.23,0,0,1-4.13-.85c-1.7-1-1.57-2.37-.16-3.71a17.35,17.35,0,0,0,1.67-2.15,23.49,23.49,0,0,0-2.75-.77c-.8-.13-1.65,0-2.47-.05-.45-.05-1.2-.37-1.22-.62a1.72,1.72,0,0,1,.58-1.42c1.69-.93,2-1.86.49-3.29-.37-.34-.26-1.21-.36-1.84a5.9,5.9,0,0,1,2.1-.08c.68.23,1.15,1,1.82,1.32s1.58.46,1.8.19a2.65,2.65,0,0,0,.38-2c-.12-.64-.82-1.16-1-1.8A2.36,2.36,0,0,1,220,76a1.88,1.88,0,0,1,1.79.07c1.31,1,2.48,1.82,4.29,1.13.4-.15,1.67.73,1.79,1.28a13.08,13.08,0,0,1,.26,4.95c-.3,1.54-.75,2.89.34,4.28.26.33.19.92.29,1.51l-2.55.2"/><path class="cls-1" d="M179.27,63l.88-1.88c2,1.08,2.12,2.66.44,3.9a1.6,1.6,0,0,0-.47,1.37,2.7,2.7,0,0,1-1.46,3.35,2.84,2.84,0,0,1-3.78-.64c-1.44-1.5-2-1.43-3.08.36-.71,1.16-1.39,2.34-2.15,3.64l-1.89-1.54-1.42,1.95c-1.08,1.5-1.81,1.47-2.85,0a2.16,2.16,0,0,0-1.21-.62c-.55-.13-1.14-.08-1.69-.18-1.17-.21-2.2-.81-1.95-2.1a3.35,3.35,0,0,1,1.54-2.23c1.79-.74,3.5-1.36,4.49-3.22.22-.4,1.06-.49,1.64-.67,1.28-.4,2.6-.7,3.86-1.17a13.58,13.58,0,0,0,2.34-1.25c1.88-1.15,3.67-1.25,5.41.28a6.08,6.08,0,0,0,1.34.64"/><path class="cls-1" d="M213.05,52.21a39.43,39.43,0,0,1-3.2-2.9c-.17-.19.21-1.22.6-1.5a2.86,2.86,0,0,1,3.84.94,13.76,13.76,0,0,1,.94,1.86c.4.85.8,1.36,1.89.7.4-.24,1.28.15,1.85.44a23.46,23.46,0,0,0,2.23,1.48,3.47,3.47,0,0,1,2.55,3.57c0,1.44,0,2.89.08,4.33a2.54,2.54,0,0,1,0,.94c-.45,1.05-.74,2.69-1.51,3-1.29.47-1.92-1-2.47-2.1a6,6,0,0,0-6.36-3.41c-1.52.16-3,.07-3.92-1.32a9.72,9.72,0,0,1-.68-2.67l3.86,1.74.32-3.38-.86-.78.82-.91"/><path class="cls-1" d="M284.83,101.08a21.06,21.06,0,0,1,2.27-.67c1-.17,2.21-.64,2.84-.23a73.23,73.23,0,0,1,7,5.3c1.2,1,.8,2-.58,2.58a23.12,23.12,0,0,1-2.52.74,48.62,48.62,0,0,0-5.05,1.39c-2.73,1.07-4.87.26-5.94-2.47-.39-1-.82-2-1.17-3-1-2.75.15-4.14,3.14-3.64"/><path class="cls-1" d="M221.34,152.94h1.87c0-.74,0-1.41,0-2.07,0-1.15,1-1.8,1.94-1.14a24.75,24.75,0,0,1,3.22,2.89c1.64,1.76,2.88,3.73,2.27,6.21.27.18.37.3.47.3,1.14,0,2.42-.1,2.48,1.58,0,1.25-1.94,2.9-3.4,2.74a7.81,7.81,0,0,1-2.33-.75c-2.18-1-4.36-2-6.49-3.09-1.59-.82-1.59-1.86-.65-3.4.5-.83.41-2,.62-3.26"/><path class="cls-1" d="M491.68,349.55a30,30,0,0,0,.59-3c.17-1.49.14-3,.29-4.5a15,15,0,0,1,.6-2.29,9.85,9.85,0,0,1,2.21.68c1.77,1,2.21,2.84,2.32,4.72a2.58,2.58,0,0,0,2.23,2.78c2,.46,2.48,2,1.36,3.75-.3.48-.64.94-1,1.41-2.11,3.1-2.67,3.41-4.88,2.69-2.88-.95-3.85-2.41-3.77-6.28"/><path class="cls-1" d="M312.19,160.58c.82-1.81,1.3-3.94,2.56-5.43,1.6-1.9,3.69-1.3,4.43,1.07a34,34,0,0,1,1.41,6.62c.28,2.76-1.6,4.62-4.36,4.63-.46,0-1.19-.2-1.34-.52-.93-2-1.72-4-2.71-6.38"/><path class="cls-1" d="M475.26,322.5a6.18,6.18,0,0,1-1.44,1c-3.75,1.29-7.47,2.86-11.56,2.3-2.55-.35-5.07-1-7.59-1.56-.32-.07-.53-.59-.79-.91.32-.26.6-.66,1-.75a58.42,58.42,0,0,1,7.1-1.57,30,30,0,0,1,5.22.33c1.82.11,3.64.18,5.46.28l2.5.13.15.72"/><path class="cls-1" d="M236,98.69c-3,.34-4.15-2.19-5.91-3.7-.25-.21-.23-1,0-1.38.48-1,1.19-1.93,1.68-3,.89-1.85,2.26-2.23,4-1.14,2.48,1.55,3.25,4.12,3.94,6.68.14.51-.57,1.51-1.14,1.87a8.11,8.11,0,0,1-2.52.63"/><path class="cls-1" d="M469.79,352.17l1.12,2.41c.93,2,2.71,2.3,4.37,1a3.13,3.13,0,0,1,2.41-.57,3.45,3.45,0,0,0,3.82-1.39c.29-.33.56-.77.93-.93a26,26,0,0,1,2.57-.83,19.2,19.2,0,0,1,.13,2.39,8.92,8.92,0,0,1-.45,1.83A2.35,2.35,0,0,1,481.9,358a10.9,10.9,0,0,0-3.16.66c-.6.15-1.25.63-1.76.51-2.36-.56-5-.11-7-2a3.5,3.5,0,0,1-.14-5"/><path class="cls-1" d="M2.56,268.19a27,27,0,0,1,2.24,2.55,1.83,1.83,0,0,1,0,1.44c-.15.41-.62.71-1,1.05l.26.52a14,14,0,0,1,2.34-1,7.71,7.71,0,0,1,2,.08c-.19.6-.21,1.36-.6,1.77a52.71,52.71,0,0,1-4.75,4.6A1.92,1.92,0,0,1,0,278.67l.48-.1c-.11-1.16-.29-2.32-.31-3.49a9.32,9.32,0,0,1,.33-2.31,16.68,16.68,0,0,1,.88-2.86,9.85,9.85,0,0,1,1.19-1.72"/><path class="cls-1" d="M194,66.24c-1.06-.23-1.87-.34-2.65-.59-2.43-.79-3.44-2.11-2.88-3.68.86-2.4,3.11-3.67,5.32-2.84,1,.39,2.7,1.06,2.75,1.72a12.1,12.1,0,0,1-1,4.71c-.14.4-1.15.5-1.6.68"/><path class="cls-1" d="M298.44,220.22a4.54,4.54,0,0,0,1.28-.18c1.45-.67,2.82-1.51,4.3-2.07a2.26,2.26,0,0,1,1.95.29c.28.25.12,1.3-.16,1.82s-1,.79-1.42,1.22c-1,1-2.06,1.94-3.07,2.94-.53.53-.91,1.32-1.53,1.63-.83.41-2.07.91-2.7.57a3.2,3.2,0,0,1-1.14-2.55,10,10,0,0,1,1.13-3.49c.13-.29.83-.31,1.27-.46l.08.27"/><path class="cls-1" d="M230.61,64.63c-.42-.52-1-1-1.2-1.56s-.14-1.61.21-1.86c1.06-.75.57-1.33.11-2.06a16.56,16.56,0,0,1-1.91-3.44c-.21-.65.38-1.56.62-2.36.69.27,1.64.35,2,.85,1.56,2,3,4.08,4.37,6.19a1.86,1.86,0,0,1-.87,3c-1,.46-2,.75-3.36,1.26"/><path class="cls-1" d="M204.39,111.42a29.44,29.44,0,0,1-.48,3c-.3,1.16-1,1.25-1.75.36q-2.32-2.74-4.57-5.55c-1.05-1.32-.81-2.29.68-3,3.16-1.5,6.33,1.09,6.12,5.23"/><path class="cls-1" d="M321.52,224.83a12.72,12.72,0,0,1-1,3.35c-.44.68-1.61,1.47-2.2,1.31a3.56,3.56,0,0,1-1.78-2.1,11.23,11.23,0,0,1-.77-4,4.06,4.06,0,0,1,1.13-2.67,1.91,1.91,0,0,1,3,.36,22.83,22.83,0,0,1,1.61,3.73"/><path class="cls-1" d="M332.46,323.18c2.33,0,5.4,2.39,5.72,4.16.24,1.31-.48,2.13-1.69,1.76a44.72,44.72,0,0,1-6.48-2.55c-1.1-.53-1-1.62,0-2.26a15.16,15.16,0,0,1,2.43-1.1"/><path class="cls-1" d="M191.08,54.33c.54-1.42,1.72-1.66,3-1.58s2.63.24,4,.32c2.31.13,4,3.34,2.62,5.23a1.85,1.85,0,0,1-1.77-.07c-.77-1-1.28-2.07-2.8-1.31a.5.5,0,0,1-.36-.06q-2.21-1.07-4.41-2.17c-.1-.05-.15-.2-.27-.36"/><path class="cls-1" d="M3.17,293.71a19.76,19.76,0,0,1-1.39-3.21c-.61-2.64-1.08-5.3-1.52-8a2.15,2.15,0,0,1,.46-1.42,6.14,6.14,0,0,1,2.46.56c.42.22.91,1.25.75,1.47-1.67,2.3-.32,4.5.08,6.73.21,1.19.92,2.44-.85,3.85"/><path class="cls-1" d="M336.21,404c1.94-2.12,5.89-2.41,7.6-1.1.49.38,1,1.43.82,1.82-.33.67-1.35,1.59-1.85,1.47-2.24-.55-4.39-1.43-6.58-2.2"/><path class="cls-1" d="M234.91,65.31a6,6,0,0,1,1.09,0c.83.25,1.66.52,2.48.79a10.54,10.54,0,0,1-2,1.88,3.08,3.08,0,0,1-3.85-.56c-.35-.36-.75-1.18-.59-1.42a2.48,2.48,0,0,1,1.53-.74,4.79,4.79,0,0,1,1.38,0"/><path class="cls-1" d="M172.76,74c.36,2.8-1.92,5.4-4.06,5.3a1.44,1.44,0,0,1-1-.66,1.25,1.25,0,0,1,.09-1.17c1.53-1.14,3.13-2.19,5-3.47"/><path class="cls-1" d="M334.12,291.72c.3-.54.62-1.07.89-1.62.62-1.27,1.17-2.58,1.84-3.82A6.6,6.6,0,0,1,338,285c.22.51.71,1.1.6,1.53a20.14,20.14,0,0,1-1.66,4.79c-.33.6-1.63.66-2.5,1l-.32-.61"/><path class="cls-1" d="M299.88,151.11c.58-2,1-3.58,1.56-5.12.08-.23,1.05-.42,1.33-.23,1.37,1,.85,4-.73,4.61-.56.21-1.13.39-2.16.74"/><path class="cls-1" d="M325.39,210.26c-2.11.05-3.73-1.31-3.61-2.73a1.61,1.61,0,0,1,1.08-1.09c1.42-.21,3.43,1.27,3.35,2.48,0,.55-.65,1.07-.83,1.35"/><path class="cls-1" d="M20.48,289.18c1.89,2,2,3.86.6,5a2.13,2.13,0,0,1-1.63.45c-.3-.08-.68-1-.56-1.4.37-1.26,1-2.46,1.6-4"/><path class="cls-1" d="M271.87,163.84a4.68,4.68,0,0,1,1.78,4.58c0,.32-.9.55-1.39.82l-1.2-5.18.81-.22"/><path class="cls-1" d="M15.17,287.78l-2.62-5.7a3.73,3.73,0,0,1,2.62,5.7"/><path class="cls-1" d="M18.28,286.54c-1.62-1.45-2.3-4.08-1.44-5.61,1.38.94,2.27,4.41,1.44,5.61"/><path class="cls-1" d="M228.36,43.65C226.3,43,225,41.33,225.25,40c.07-.37.41-1,.66-1a1.42,1.42,0,0,1,1.19.55c.47,1.17.77,2.41,1.25,4"/><path class="cls-1" d="M210.56,69.9c-.86-.52-1.66-.72-1.81-1.15-.54-1.53-1.26-3.12-.46-4.76l.65-.15,1.61,6.07"/><path class="cls-1" d="M325.87,156c-1.56.78-3.38.62-3.6-.42a2.14,2.14,0,0,1,.44-1.8c.8-.62,2.51.65,3.16,2.22"/><path class="cls-1" d="M208.74,77.74,210.23,76a13.51,13.51,0,0,1,1.32,2.66c.11.41-.52,1-.82,1.53l-2-2.44"/><path class="cls-1" d="M292.19,190.15c-3.41.93-4.46-.94-5.29-3.18l5.29,3.18"/><path class="cls-1" d="M392.84,195.78c-.91.55-1.49,1.17-2,1.14s-1.47-.93-1.4-1.11a9.1,9.1,0,0,1,1.41-1.93l2,1.89"/><path class="cls-1" d="M186.83,56.3c.27.45.87,1.07.74,1.33a14.23,14.23,0,0,1-1.64,2.26c-.31-.48-.93-1-.86-1.44a8.7,8.7,0,0,1,1.06-2.21l.7.05"/><path class="cls-1" d="M391.7,205.31c.13-.13.17-.2.22-.21,1.58-.3,3,.41,3.06,1.6,0,.33-.53,1-.76,1a2.4,2.4,0,0,1-2.52-2.35"/><path class="cls-1" d="M22.28,305c.78-2.47,2.73-3.19,4.6-1.84L22.28,305"/><path class="cls-1" d="M269.77,146.71l-4.6-.76c1.63-2.18,3.08-2,4.6.76"/><path class="cls-1" d="M327,204.15a5.46,5.46,0,0,1,1.85.56,6.86,6.86,0,0,1,1.21,1.72,7,7,0,0,1-2.17-.29c-.52-.25-.83-.95-1.24-1.44l.36-.54"/><path class="cls-1" d="M284.82,191.28c-1.56-.48-1.48-2.21-2.23-3.3,0-.07.23-.5.38-.52s.74,0,.83.19c.59,1.08,1.09,2.2,1.62,3.31l-.61.33"/><path class="cls-1" d="M317,148.94c2.32.6,3,1.4,2.59,3.66l-3-3.23.45-.43"/><path class="cls-1" d="M308,142.48c.73.87,1.45,1.39,1.37,1.7a5.86,5.86,0,0,1-1.2,1.69c-.4-.37-1.11-.75-1.12-1.12,0-.6.47-1.2.95-2.26"/><path class="cls-1" d="M293.85,145.66c.27-.41.37-.74.55-.79.88-.28,1.78-.5,2.67-.73,0,.38.2,1,0,1.12a2.51,2.51,0,0,1-3.24.41"/><path class="cls-1" d="M383.53,225.37c-.52-1-1-1.58-.92-1.91a7.85,7.85,0,0,1,1.29-1.8c.31.4.92.86.86,1.19a11.78,11.78,0,0,1-1.23,2.52"/><path class="cls-1" d="M248.08,68.64c-1,.43-1.61.91-1.81.77a5.46,5.46,0,0,1-1.42-1.67c-.06-.1.76-.93.86-.88a23.83,23.83,0,0,1,2.37,1.78"/><path class="cls-1" d="M207.51,89.44l1.74,1.91c-.49.28-1.08.89-1.43.77a3.23,3.23,0,0,1-1.43-1.36c-.08-.12.59-.71,1.12-1.32"/><path class="cls-1" d="M217.81,67.09l-1.47-1.5c.45-.35,1-1,1.34-1,.55.13,1,.79,1.45,1.22l-1.32,1.24"/><path class="cls-1" d="M276.13,79.38c-.27-1.22-.16-2.24,1.13-2.62.21-.06,1,.69,1,1.07,0,1.27-.8,1.72-2.08,1.55"/><path class="cls-1" d="M231.73,88.9l-2.23,1.5c-.16-1.81.57-2.36,1.83-2.19l.4.69"/><path class="cls-1" d="M217.33,141.39a4.71,4.71,0,0,1-1.51.54c-.32,0-.94-.56-.9-.76a5.48,5.48,0,0,1,.78-1.49l1.15.92Z"/><circle class="cls-2" cx="63.85" cy="149.17" r="4.5"/><circle class="cls-2" cx="38.27" cy="189.63" r="4.5"/><circle class="cls-2" cx="63.85" cy="236.96" r="4.5"/><circle class="cls-2" cx="47.28" cy="288.29" r="4.5"/><circle class="cls-2" cx="181.46" cy="333.73" r="4.5"/><circle class="cls-2" cx="246.47" cy="359.15" r="4.5"/><circle class="cls-2" cx="308.21" cy="342.74" r="4.5"/><circle class="cls-2" cx="366.46" cy="389.72" r="4.5"/><circle class="cls-2" cx="397.85" cy="380.71" r="4.5"/><circle class="cls-2" cx="425.32" cy="329.7" r="4.5"/><circle class="cls-2" cx="464.58" cy="289.85" r="4.5"/><circle class="cls-2" cx="86.74" cy="338.24" r="4.5"/><circle class="cls-2" cx="130.58" cy="300.01" r="4.5"/><circle class="cls-2" cx="77.73" cy="189.63" r="4.5"/><line class="cls-2" x1="63.85" y1="149.17" x2="77.52" y2="189.01"/><line class="cls-2" x1="77.73" y1="189.63" x2="38.27" y2="189.63"/><line class="cls-2" x1="63.85" y1="149.17" x2="38.27" y2="189.63"/><line class="cls-2" x1="63.85" y1="236.96" x2="38.27" y2="189.63"/><line class="cls-2" x1="77.73" y1="189.63" x2="63.85" y2="236.96"/><line class="cls-2" x1="63.85" y1="149.17" x2="63.85" y2="241.47"/><line class="cls-2" x1="38.27" y1="189.63" x2="130.58" y2="300.01"/><line class="cls-2" x1="77.73" y1="189.63" x2="47.28" y2="288.29"/><line class="cls-2" x1="63.85" y1="149.17" x2="130.58" y2="300.01"/><line class="cls-2" x1="77.73" y1="189.63" x2="130.58" y2="300.01"/><line class="cls-2" x1="63.85" y1="236.96" x2="130.58" y2="300.01"/><line class="cls-2" x1="47.28" y1="288.29" x2="135.08" y2="300.01"/><line class="cls-3" x1="86.74" y1="342.74" x2="63.85" y2="236.96"/><line class="cls-3" x1="47.28" y1="288.29" x2="130.58" y2="300.01"/><line class="cls-3" x1="86.74" y1="342.74" x2="130.58" y2="300.01"/><line class="cls-3" x1="47.28" y1="292.79" x2="86.74" y2="342.74"/><line class="cls-3" x1="63.85" y1="149.17" x2="464.58" y2="289.85"/><line class="cls-3" x1="425.32" y1="329.7" x2="464.58" y2="289.85"/><line class="cls-3" x1="63.85" y1="149.17" x2="181.46" y2="333.73"/><line class="cls-3" x1="425.32" y1="329.7" x2="63.85" y2="236.96"/><line class="cls-3" x1="77.52" y1="189.01" x2="464.58" y2="289.85"/><line class="cls-3" x1="425.32" y1="329.7" x2="59.35" y2="149.17"/><line class="cls-3" x1="38.27" y1="189.63" x2="469.08" y2="289.85"/><line class="cls-3" x1="181.46" y1="333.73" x2="425.32" y2="329.7"/><line class="cls-3" x1="130.58" y1="300.01" x2="181.46" y2="333.73"/><line class="cls-3" x1="86.74" y1="338.24" x2="185.97" y2="333.73"/><line class="cls-3" x1="47.28" y1="288.29" x2="181.46" y2="333.73"/><line class="cls-3" x1="130.58" y1="300.01" x2="425.32" y2="329.7"/><line class="cls-3" x1="181.46" y1="333.73" x2="246.47" y2="359.15"/><line class="cls-3" x1="312.72" y1="342.74" x2="246.47" y2="359.15"/><line class="cls-3" x1="366.46" y1="389.72" x2="312.72" y2="342.74"/><line class="cls-3" x1="402.35" y1="380.71" x2="246.47" y2="359.15"/><line class="cls-3" x1="366.46" y1="389.72" x2="425.32" y2="329.7"/><line class="cls-3" x1="397.85" y1="380.71" x2="425.32" y2="329.7"/><line class="cls-3" x1="181.46" y1="333.73" x2="312.72" y2="342.74"/><line class="cls-3" x1="86.74" y1="338.24" x2="464.58" y2="289.85"/><line class="cls-3" x1="130.58" y1="300.01" x2="312.72" y2="342.74"/><line class="cls-3" x1="47.28" y1="288.29" x2="366.46" y2="389.72"/><line class="cls-3" x1="86.74" y1="338.24" x2="246.47" y2="359.15"/><line class="cls-3" x1="425.32" y1="329.7" x2="312.72" y2="342.74"/><line class="cls-3" x1="464.58" y1="289.85" x2="130.58" y2="300.01"/></g></g></svg>