<svg id="Layer_1" data-name="Layer 1" xmlns="http://www.w3.org/2000/svg" viewBox="0 0 208.62 288.51"><defs><style>.cls-1{fill:#a5b993;}.cls-2{fill:#fff;}</style></defs><title>numbers</title><circle class="cls-1" cx="81.3" cy="76.57" r="2.71"/><circle class="cls-1" cx="81.3" cy="65.06" r="2.71"/><circle class="cls-1" cx="81.3" cy="53.56" r="2.71"/><circle class="cls-1" cx="81.3" cy="42.06" r="2.71"/><circle class="cls-1" cx="92.8" cy="76.57" r="2.71"/><circle class="cls-1" cx="92.8" cy="65.06" r="2.71"/><circle class="cls-1" cx="92.8" cy="53.56" r="2.71"/><circle class="cls-1" cx="92.8" cy="42.06" r="2.71"/><circle class="cls-1" cx="104.31" cy="76.57" r="2.71"/><circle class="cls-1" cx="104.31" cy="65.06" r="2.71"/><circle class="cls-1" cx="104.31" cy="53.56" r="2.71"/><circle class="cls-1" cx="104.31" cy="42.06" r="2.71"/><circle class="cls-1" cx="115.81" cy="76.57" r="2.71"/><circle class="cls-1" cx="115.81" cy="65.06" r="2.71"/><circle class="cls-1" cx="115.81" cy="53.56" r="2.71"/><circle class="cls-1" cx="115.81" cy="42.06" r="2.71"/><circle class="cls-1" cx="127.31" cy="76.57" r="2.71"/><circle class="cls-1" cx="127.31" cy="65.06" r="2.71"/><circle class="cls-1" cx="127.31" cy="53.56" r="2.71"/><circle class="cls-1" cx="127.31" cy="42.06" r="2.71"/><path class="cls-2" d="M46.07,96l-3.53,3.82H47a.15.15,0,0,1,.16.16v.34a.14.14,0,0,1-.16.15H42a.13.13,0,0,1-.15-.15V100a.61.61,0,0,1,.21-.49L45.5,95.7a2.79,2.79,0,0,0,.85-2,1.73,1.73,0,0,0-1.87-1.9,1.7,1.7,0,0,0-1.9,1.62.14.14,0,0,1-.16.15h-.34a.13.13,0,0,1-.15-.15,2.33,2.33,0,0,1,2.55-2.23A2.44,2.44,0,0,1,47,93.69,3.5,3.5,0,0,1,46.07,96Z"/><path class="cls-2" d="M51.6,91.19c1.91,0,2.92,1.35,2.92,3.51v2.39c0,2.16-1,3.51-2.93,3.51s-2.9-1.35-2.9-3.51V94.7C48.69,92.54,49.69,91.19,51.6,91.19Zm0,8.8c1.54,0,2.28-1.07,2.28-2.9V94.7c0-1.83-.73-2.9-2.27-2.9s-2.27,1.07-2.27,2.9v2.39C49.34,99,50.05,100,51.59,100Z"/><path class="cls-2" d="M59.11,99V96.12H56.33a.13.13,0,0,1-.15-.15v-.31a.14.14,0,0,1,.15-.16h2.78V92.67a.14.14,0,0,1,.15-.16h.34a.15.15,0,0,1,.16.16v2.84h2.76a.15.15,0,0,1,.16.16V96a.14.14,0,0,1-.16.15H59.76V99a.14.14,0,0,1-.16.15h-.34A.13.13,0,0,1,59.11,99Z"/><path class="cls-2" d="M73.62,97.53a3.2,3.2,0,0,1-3.25,3.08,3.29,3.29,0,0,1-3.31-3.51V94.57a3.26,3.26,0,0,1,3.3-3.51,3.21,3.21,0,0,1,3.26,2.89c0,.13-.05.16-.15.16h-.41c-.05,0-.09,0-.11-.15a2.6,2.6,0,0,0-2.6-2.29,2.65,2.65,0,0,0-2.64,2.9v2.52a2.66,2.66,0,0,0,2.65,2.9A2.6,2.6,0,0,0,73,97.5a.09.09,0,0,1,.09-.08h.45A.09.09,0,0,1,73.62,97.53Z"/><path class="cls-2" d="M75.35,100.32v-9a.14.14,0,0,1,.15-.16h.35a.15.15,0,0,1,.16.16v9a.14.14,0,0,1-.16.15h-.35A.13.13,0,0,1,75.35,100.32Z"/><path class="cls-2" d="M78.89,91.7a.49.49,0,0,1-.52.52.52.52,0,0,1,0-1A.49.49,0,0,1,78.89,91.7Zm-.84,8.62V94a.14.14,0,0,1,.15-.16h.35a.15.15,0,0,1,.16.16v6.32a.14.14,0,0,1-.16.15H78.2A.13.13,0,0,1,78.05,100.32Z"/><path class="cls-2" d="M80.76,100.32V94a.14.14,0,0,1,.15-.16h.34a.15.15,0,0,1,.16.16v.81a2,2,0,0,1,1.88-1.1c1.63,0,2.55,1.17,2.55,2.89v3.73a.14.14,0,0,1-.16.15h-.34a.13.13,0,0,1-.15-.15V96.61c0-1.47-.76-2.28-1.9-2.28s-1.88.81-1.88,2.28v3.71a.14.14,0,0,1-.16.15H80.9A.13.13,0,0,1,80.76,100.32Z"/><path class="cls-2" d="M88.66,91.7a.49.49,0,0,1-.52.52.52.52,0,0,1,0-1A.49.49,0,0,1,88.66,91.7Zm-.84,8.62V94a.14.14,0,0,1,.15-.16h.35a.15.15,0,0,1,.16.16v6.32a.14.14,0,0,1-.16.15H88A.13.13,0,0,1,87.83,100.32Z"/><path class="cls-2" d="M92.81,100a1.73,1.73,0,0,0,1.82-1.51c0-.09.05-.12.15-.12h.4a.09.09,0,0,1,.09.09.68.68,0,0,1,0,.13,2.42,2.42,0,0,1-2.44,2,2.58,2.58,0,0,1-2.61-2.88V96.6a2.58,2.58,0,0,1,2.6-2.89,2.41,2.41,0,0,1,2.47,2.16h0a.09.09,0,0,1-.09.09h-.4a.14.14,0,0,1-.15-.13,1.74,1.74,0,0,0-1.83-1.51c-1.13,0-1.95.81-1.95,2.28V97.7C90.85,99.18,91.68,100,92.81,100Z"/><path class="cls-2" d="M99.71,100.32V94a.14.14,0,0,1,.15-.16h.32a.15.15,0,0,1,.16.16v1.06a2,2,0,0,1,1.95-1.22h.21a.15.15,0,0,1,.16.16v.32a.14.14,0,0,1-.16.15h-.21c-1.51,0-1.92,1.48-1.92,2.43v3.43a.14.14,0,0,1-.16.15h-.35A.13.13,0,0,1,99.71,100.32Z"/><path class="cls-2" d="M106.21,100a1.81,1.81,0,0,0,1.87-1.39c0-.08.05-.12.13-.12h.41a.09.09,0,0,1,.09.09.68.68,0,0,1,0,.17,2.47,2.47,0,0,1-2.47,1.87,2.58,2.58,0,0,1-2.63-2.88V96.6a2.61,2.61,0,1,1,5.2,0v.69a.14.14,0,0,1-.16.15h-4.39v.36A2,2,0,0,0,106.21,100Zm1.92-3.39c0-1.45-.81-2.25-1.95-2.25s-1.95.81-1.95,2.25v.23h3.9Z"/><path class="cls-2" d="M110.44,100.32v-9a.14.14,0,0,1,.15-.16h.34a.15.15,0,0,1,.16.16v9a.14.14,0,0,1-.16.15h-.34A.13.13,0,0,1,110.44,100.32Z"/><path class="cls-2" d="M117.43,100.47h-.34a.13.13,0,0,1-.15-.15v-.8A2.07,2.07,0,0,1,115,100.6h-.31a1.89,1.89,0,0,1-2.13-1.91c0-1.31.77-1.9,2.25-1.9h2.14v-.54c0-.85,0-1.92-1.72-1.92-1.22,0-1.54.45-1.66,1.13,0,.07,0,.15-.16.15h-.35a.13.13,0,0,1-.15-.15v0c.11-.89.62-1.72,2.31-1.72,2.29,0,2.37,1.51,2.37,2.56v4.06A.14.14,0,0,1,117.43,100.47Zm-4.23-1.78a1.31,1.31,0,0,0,1.48,1.29H115a1.87,1.87,0,0,0,1.95-2v-.52h-2.12C113.51,97.42,113.2,97.9,113.2,98.69Z"/><path class="cls-2" d="M119.64,97.95v-3.5h-1.11a.13.13,0,0,1-.15-.15V94a.14.14,0,0,1,.15-.16c.76,0,1.14-.17,1.14-1.14v-.42a.14.14,0,0,1,.15-.16h.32a.15.15,0,0,1,.16.16v1.56h1.63a.15.15,0,0,1,.16.16v.31a.14.14,0,0,1-.16.15h-1.63v3.5c0,1.55.17,1.9,1.53,1.9h.11a.15.15,0,0,1,.16.16v.32a.14.14,0,0,1-.16.15h-.11C119.82,100.47,119.64,99.66,119.64,97.95Z"/><path class="cls-2" d="M124.38,91.7a.49.49,0,0,1-.52.52.52.52,0,0,1,0-1A.49.49,0,0,1,124.38,91.7Zm-.84,8.62V94a.14.14,0,0,1,.15-.16H124a.15.15,0,0,1,.16.16v6.32a.14.14,0,0,1-.16.15h-.35A.13.13,0,0,1,123.54,100.32Z"/><path class="cls-2" d="M128.5,93.71a2.58,2.58,0,0,1,2.59,2.89v1.13a2.6,2.6,0,1,1-5.17,0V96.6A2.57,2.57,0,0,1,128.5,93.71Zm0,6.27c1.14,0,1.94-.8,1.94-2.28V96.61c0-1.47-.8-2.28-1.94-2.28s-1.94.81-1.94,2.28V97.7C126.57,99.18,127.37,100,128.5,100Z"/><path class="cls-2" d="M132.75,100.32V94a.14.14,0,0,1,.15-.16h.34a.15.15,0,0,1,.16.16v.81a2,2,0,0,1,1.88-1.1c1.63,0,2.55,1.17,2.55,2.89v3.73a.14.14,0,0,1-.16.15h-.34a.13.13,0,0,1-.15-.15V96.61c0-1.47-.76-2.28-1.9-2.28s-1.88.81-1.88,2.28v3.71a.14.14,0,0,1-.16.15h-.34A.13.13,0,0,1,132.75,100.32Z"/><path class="cls-2" d="M139.35,98.84a.12.12,0,0,1,0-.09.12.12,0,0,1,.12-.07h.35c.11,0,.13,0,.16.12a1.65,1.65,0,0,0,1.76,1.18c.92,0,1.74-.29,1.74-1.25,0-2-4-.41-4-3.27,0-1.3,1.23-1.75,2.17-1.75,2.39,0,2.33,1.75,2.33,1.75v0a.15.15,0,0,1-.15.12h-.36c-.09,0-.13,0-.15-.15-.07-.44-.27-1.13-1.68-1.13-.62,0-1.53.24-1.53,1.13,0,2.09,4,.53,4,3.27,0,1.35-1.07,1.87-2.4,1.87A2.2,2.2,0,0,1,139.35,98.84Z"/><path class="cls-2" d="M145.74,100.32v-9a.14.14,0,0,1,.15-.16h.34a.15.15,0,0,1,.16.16v3.45a2,2,0,0,1,1.88-1.09c1.63,0,2.55,1.17,2.55,2.89v3.73a.14.14,0,0,1-.16.15h-.34a.13.13,0,0,1-.15-.15V96.61c0-1.47-.76-2.28-1.9-2.28s-1.88.81-1.88,2.28v3.71a.14.14,0,0,1-.16.15h-.34A.13.13,0,0,1,145.74,100.32Z"/><path class="cls-2" d="M153.65,91.7a.49.49,0,0,1-.52.52.52.52,0,0,1,0-1A.49.49,0,0,1,153.65,91.7Zm-.84,8.62V94a.14.14,0,0,1,.15-.16h.35a.15.15,0,0,1,.16.16v6.32a.14.14,0,0,1-.16.15H153A.13.13,0,0,1,152.81,100.32Z"/><path class="cls-2" d="M156,103.12h-.35a.13.13,0,0,1-.15-.15V94a.14.14,0,0,1,.15-.16H156a.15.15,0,0,1,.16.16v.77a2.16,2.16,0,0,1,1.95-1.06,2.58,2.58,0,0,1,2.59,2.89v1.13a2.57,2.57,0,0,1-2.59,2.88,2.18,2.18,0,0,1-1.95-1.06V103A.14.14,0,0,1,156,103.12Zm2.11-3.14c1.14,0,1.94-.8,1.94-2.28V96.61c0-1.47-.78-2.28-1.94-2.28a1.94,1.94,0,0,0-1.95,2.18V97.7C156.17,99.17,157,100,158.12,100Z"/><path class="cls-2" d="M162,98.84a.12.12,0,0,1,0-.09.12.12,0,0,1,.12-.07h.35c.11,0,.13,0,.16.12a1.65,1.65,0,0,0,1.76,1.18c.92,0,1.74-.29,1.74-1.25,0-2-4-.41-4-3.27,0-1.3,1.23-1.75,2.17-1.75,2.39,0,2.33,1.75,2.33,1.75v0a.15.15,0,0,1-.15.12h-.36c-.09,0-.13,0-.15-.15-.07-.44-.27-1.13-1.68-1.13-.62,0-1.53.24-1.53,1.13,0,2.09,4,.53,4,3.27,0,1.35-1.07,1.87-2.4,1.87A2.2,2.2,0,0,1,162,98.84Z"/><path class="cls-2" d="M76.83,114h-.34a.13.13,0,0,1-.15-.15V113a2.07,2.07,0,0,1-1.95,1.07h-.31A1.89,1.89,0,0,1,72,112.2c0-1.31.77-1.9,2.25-1.9h2.14v-.54c0-.85,0-1.92-1.72-1.92-1.22,0-1.54.45-1.66,1.13,0,.07,0,.15-.16.15h-.35a.13.13,0,0,1-.15-.15v0c.11-.89.62-1.72,2.31-1.72,2.29,0,2.37,1.51,2.37,2.56v4.06A.14.14,0,0,1,76.83,114ZM72.6,112.2a1.31,1.31,0,0,0,1.48,1.29h.31a1.87,1.87,0,0,0,1.95-2v-.52H74.22C72.92,110.92,72.6,111.4,72.6,112.2Z"/><path class="cls-2" d="M78.91,113.83V107.5a.14.14,0,0,1,.15-.16h.35a.15.15,0,0,1,.16.16v.81a2,2,0,0,1,1.88-1.1c1.63,0,2.55,1.17,2.55,2.89v3.73a.14.14,0,0,1-.16.15h-.34a.13.13,0,0,1-.15-.15v-3.71c0-1.47-.76-2.28-1.9-2.28s-1.88.81-1.88,2.28v3.71a.14.14,0,0,1-.16.15h-.35A.13.13,0,0,1,78.91,113.83Z"/><path class="cls-2" d="M90.12,113.83V113a2.18,2.18,0,0,1-1.95,1.06,2.57,2.57,0,0,1-2.59-2.88V110.1a2.58,2.58,0,0,1,2.59-2.89,2.16,2.16,0,0,1,1.95,1.06v-3.42a.14.14,0,0,1,.15-.16h.34a.15.15,0,0,1,.16.16v9a.14.14,0,0,1-.16.15h-.34A.13.13,0,0,1,90.12,113.83Zm0-2.63V110a1.94,1.94,0,0,0-1.95-2.18c-1.15,0-1.94.81-1.94,2.28v1.09c0,1.48.8,2.28,1.92,2.28S90.12,112.67,90.12,111.2Z"/><path class="cls-2" d="M100.86,114.93c0,1-.73,1.83-2.16,1.83H97.29c-1.43,0-2.15-.82-2.15-1.83a1.7,1.7,0,0,1,.76-1.48,1.12,1.12,0,0,1-.76-1.11,1.19,1.19,0,0,1,1.11-1.23,2,2,0,0,1-.82-1.7,2.21,2.21,0,0,1,2.32-2.19h.38a2.36,2.36,0,0,1,1.7.68v-1.11a.14.14,0,0,1,.15-.16h.32a.15.15,0,0,1,.16.16v2.63a2.2,2.2,0,0,1-2.32,2.2H96.7c-.56,0-.89.21-.89.72s.33.7,1.18.7H98.7A1.9,1.9,0,0,1,100.86,114.93Zm-.68,0c0-.73-.42-1.29-1.53-1.29H97.33c-1.09,0-1.51.56-1.51,1.29s.42,1.23,1.51,1.23h1.33C99.76,116.15,100.19,115.64,100.19,114.91ZM96.1,109.4A1.6,1.6,0,0,0,97.83,111h.25a1.61,1.61,0,1,0,0-3.22h-.25A1.59,1.59,0,0,0,96.1,109.4Z"/><path class="cls-2" d="M102.06,113.83V107.5a.14.14,0,0,1,.15-.16h.32a.15.15,0,0,1,.16.16v1.06a2,2,0,0,1,1.95-1.22h.21a.15.15,0,0,1,.16.16v.32a.14.14,0,0,1-.16.15h-.21c-1.51,0-1.92,1.48-1.92,2.43v3.43a.14.14,0,0,1-.16.15h-.34A.13.13,0,0,1,102.06,113.83Z"/><path class="cls-2" d="M108.52,107.21a2.58,2.58,0,0,1,2.59,2.89v1.13a2.6,2.6,0,1,1-5.17,0V110.1A2.57,2.57,0,0,1,108.52,107.21Zm0,6.27c1.14,0,1.94-.8,1.94-2.28v-1.09c0-1.47-.8-2.28-1.94-2.28s-1.94.81-1.94,2.28v1.09C106.58,112.69,107.39,113.48,108.52,113.48Z"/><path class="cls-2" d="M120.7,107.44a.72.72,0,0,1,0,.17l-1.94,6.26a.16.16,0,0,1-.16.11h-.48c-.11,0-.13-.05-.16-.15l-1.7-5.5-1.64,5.54a.16.16,0,0,1-.16.11H114a.13.13,0,0,1-.15-.11l-2-6.26a.67.67,0,0,1,0-.17.09.09,0,0,1,.09-.09h.41c.07,0,.13,0,.17.16l1.78,5.71,1.67-5.71c0-.11.07-.16.17-.16h.35c.09,0,.15.05.17.16l1.76,5.71L120,107.5c0-.09.05-.16.16-.16h.42A.09.09,0,0,1,120.7,107.44Z"/><path class="cls-2" d="M122.73,105.21a.49.49,0,0,1-.52.52.52.52,0,0,1,0-1A.49.49,0,0,1,122.73,105.21Zm-.84,8.62V107.5a.14.14,0,0,1,.15-.16h.35a.15.15,0,0,1,.16.16v6.32a.14.14,0,0,1-.16.15H122A.13.13,0,0,1,121.9,113.83Z"/><path class="cls-2" d="M124.61,113.83V107.5a.14.14,0,0,1,.15-.16h.34a.15.15,0,0,1,.16.16v.81a2,2,0,0,1,1.88-1.1c1.63,0,2.55,1.17,2.55,2.89v3.73a.14.14,0,0,1-.16.15h-.34a.13.13,0,0,1-.15-.15v-3.71c0-1.47-.76-2.28-1.9-2.28s-1.88.81-1.88,2.28v3.71a.14.14,0,0,1-.16.15h-.34A.13.13,0,0,1,124.61,113.83Z"/><path class="cls-2" d="M136.93,114.93c0,1-.73,1.83-2.16,1.83h-1.41c-1.43,0-2.15-.82-2.15-1.83a1.7,1.7,0,0,1,.76-1.48,1.12,1.12,0,0,1-.76-1.11,1.19,1.19,0,0,1,1.11-1.23,2,2,0,0,1-.82-1.7,2.21,2.21,0,0,1,2.32-2.19h.38a2.36,2.36,0,0,1,1.7.68v-1.11a.14.14,0,0,1,.15-.16h.32a.15.15,0,0,1,.16.16v2.63a2.2,2.2,0,0,1-2.32,2.2h-1.44c-.56,0-.89.21-.89.72s.33.7,1.18.7h1.71A1.9,1.9,0,0,1,136.93,114.93Zm-.68,0c0-.73-.42-1.29-1.53-1.29H133.4c-1.09,0-1.51.56-1.51,1.29s.42,1.23,1.51,1.23h1.33C135.82,116.15,136.25,115.64,136.25,114.91Zm-4.08-5.52a1.6,1.6,0,0,0,1.72,1.62h.25a1.61,1.61,0,1,0,0-3.22h-.25A1.59,1.59,0,0,0,132.17,109.4Z"/><circle class="cls-1" cx="81.3" cy="198.94" r="2.71"/><circle class="cls-1" cx="81.3" cy="187.44" r="2.71"/><circle class="cls-1" cx="81.3" cy="175.93" r="2.71"/><circle class="cls-1" cx="81.3" cy="164.43" r="2.71"/><circle class="cls-1" cx="92.8" cy="198.94" r="2.71"/><circle class="cls-1" cx="92.8" cy="187.44" r="2.71"/><circle class="cls-1" cx="92.8" cy="175.93" r="2.71"/><circle class="cls-1" cx="92.8" cy="164.43" r="2.71"/><circle class="cls-1" cx="104.31" cy="198.94" r="2.71"/><circle class="cls-1" cx="104.31" cy="187.44" r="2.71"/><circle class="cls-1" cx="104.31" cy="175.93" r="2.71"/><circle class="cls-1" cx="104.31" cy="164.43" r="2.71"/><circle class="cls-1" cx="115.81" cy="198.94" r="2.71"/><circle class="cls-1" cx="115.81" cy="187.44" r="2.71"/><circle class="cls-1" cx="115.81" cy="175.93" r="2.71"/><circle class="cls-1" cx="115.81" cy="164.43" r="2.71"/><circle class="cls-1" cx="127.31" cy="198.94" r="2.71"/><circle class="cls-1" cx="127.31" cy="187.44" r="2.71"/><circle class="cls-1" cx="127.31" cy="175.93" r="2.71"/><circle class="cls-1" cx="81.3" cy="152.93" r="2.71"/><circle class="cls-1" cx="92.8" cy="152.93" r="2.71"/><circle class="cls-1" cx="104.31" cy="152.93" r="2.71"/><circle class="cls-1" cx="115.81" cy="152.93" r="2.71"/><circle class="cls-1" cx="127.31" cy="152.93" r="2.71"/><circle class="cls-1" cx="127.31" cy="164.43" r="2.71"/><path class="cls-2" d="M44.35,218l-3.53,3.82h4.45a.15.15,0,0,1,.16.16v.34a.14.14,0,0,1-.16.15h-5a.13.13,0,0,1-.15-.15V222a.61.61,0,0,1,.21-.49l3.45-3.77a2.79,2.79,0,0,0,.85-2,1.73,1.73,0,0,0-1.87-1.9,1.7,1.7,0,0,0-1.9,1.62.14.14,0,0,1-.16.15h-.34a.13.13,0,0,1-.15-.15,2.33,2.33,0,0,1,2.55-2.23,2.44,2.44,0,0,1,2.55,2.51A3.5,3.5,0,0,1,44.35,218Z"/><path class="cls-2" d="M52.53,219.54c0,1.79-1,3.1-2.82,3.1a2.64,2.64,0,0,1-2.8-2.24.09.09,0,0,1,.09-.12h.38a.18.18,0,0,1,.17.15,2.05,2.05,0,0,0,2.15,1.6c1.35,0,2.18-.9,2.18-2.49v-.21a2.08,2.08,0,0,0-2-2.24,2.47,2.47,0,0,0-2.08,1c-.17.24-.19.38-.38.38h-.23c-.09,0-.16-.05-.15-.15l.4-4.81c0-.11.05-.16.15-.16H52a.15.15,0,0,1,.16.16v.35A.14.14,0,0,1,52,214H48l-.29,3.29a3,3,0,0,1,2.16-.82,2.67,2.67,0,0,1,2.69,2.85Z"/><path class="cls-2" d="M60.55,222.27a.33.33,0,0,1,.07.15.09.09,0,0,1-.09.09H60c-.09,0-.13-.07-.17-.13l-3.09-4.85L55,219.43v2.93a.14.14,0,0,1-.16.15h-.35a.13.13,0,0,1-.15-.15v-9a.14.14,0,0,1,.15-.16h.35a.15.15,0,0,1,.16.16v5.22l4.84-5.18c.09-.09.16-.2.27-.2h.49a.09.09,0,0,1,.09.09c0,.07,0,.11-.09.17l-3.35,3.57Z"/><path class="cls-2" d="M64.65,221v-2.88H61.87a.13.13,0,0,1-.15-.15v-.31a.14.14,0,0,1,.15-.16h2.78v-2.84a.14.14,0,0,1,.15-.16h.34a.15.15,0,0,1,.16.16v2.84h2.76a.15.15,0,0,1,.16.16V218a.14.14,0,0,1-.16.15H65.3V221a.14.14,0,0,1-.16.15H64.8A.13.13,0,0,1,64.65,221Z"/><path class="cls-2" d="M79.56,222.41a.09.09,0,0,1-.09.09H79a.15.15,0,0,1-.16-.11l-1-2.63H73.67l-.94,2.63a.14.14,0,0,1-.15.11h-.42a.09.09,0,0,1-.09-.09,1.11,1.11,0,0,1,.09-.28l3.2-8.74c0-.11.09-.17.19-.17H76c.09,0,.13.07.17.16l3.33,8.9A.43.43,0,0,1,79.56,222.41Zm-1.88-3.25L75.77,214l-1.86,5.19Z"/><path class="cls-2" d="M83.1,222a1.73,1.73,0,0,0,1.82-1.51c0-.09.05-.12.15-.12h.4a.09.09,0,0,1,.09.09.68.68,0,0,1,0,.13,2.42,2.42,0,0,1-2.44,2,2.58,2.58,0,0,1-2.61-2.88v-1.13a2.58,2.58,0,0,1,2.6-2.89,2.41,2.41,0,0,1,2.47,2.16h0a.09.09,0,0,1-.09.09h-.4a.14.14,0,0,1-.15-.13,1.74,1.74,0,0,0-1.83-1.51c-1.13,0-1.95.81-1.95,2.28v1.09C81.14,221.22,82,222,83.1,222Z"/><path class="cls-2" d="M89.5,222a1.73,1.73,0,0,0,1.82-1.51c0-.09.05-.12.15-.12h.4a.09.09,0,0,1,.09.09.68.68,0,0,1,0,.13,2.42,2.42,0,0,1-2.44,2,2.58,2.58,0,0,1-2.61-2.88v-1.13a2.58,2.58,0,0,1,2.6-2.89,2.41,2.41,0,0,1,2.47,2.16h0a.09.09,0,0,1-.09.09h-.4a.14.14,0,0,1-.15-.13,1.74,1.74,0,0,0-1.83-1.51c-1.13,0-1.95.81-1.95,2.28v1.09C87.53,221.22,88.37,222,89.5,222Z"/><path class="cls-2" d="M95.9,222a1.81,1.81,0,0,0,1.87-1.39c0-.08.05-.12.13-.12h.41a.09.09,0,0,1,.09.09.68.68,0,0,1,0,.17,2.47,2.47,0,0,1-2.47,1.87,2.58,2.58,0,0,1-2.63-2.88v-1.13a2.61,2.61,0,1,1,5.2,0v.69a.14.14,0,0,1-.16.15H93.93v.36A2,2,0,0,0,95.9,222Zm1.92-3.39c0-1.45-.81-2.25-1.95-2.25s-1.95.81-1.95,2.25v.23h3.9Z"/><path class="cls-2" d="M99.74,220.88a.12.12,0,0,1,0-.09.12.12,0,0,1,.12-.07h.35c.11,0,.13,0,.16.12a1.65,1.65,0,0,0,1.76,1.18c.92,0,1.74-.29,1.74-1.25,0-2-4-.41-4-3.27,0-1.3,1.23-1.75,2.17-1.75,2.39,0,2.33,1.75,2.33,1.75v0a.15.15,0,0,1-.15.12h-.36c-.09,0-.13,0-.15-.15-.07-.44-.27-1.13-1.68-1.13-.62,0-1.53.24-1.53,1.13,0,2.09,4,.53,4,3.27,0,1.35-1.07,1.87-2.4,1.87A2.2,2.2,0,0,1,99.74,220.88Z"/><path class="cls-2" d="M105.73,220.88a.12.12,0,0,1,0-.09.12.12,0,0,1,.12-.07h.35c.11,0,.13,0,.16.12a1.65,1.65,0,0,0,1.76,1.18c.92,0,1.74-.29,1.74-1.25,0-2-4-.41-4-3.27,0-1.3,1.23-1.75,2.17-1.75,2.39,0,2.33,1.75,2.33,1.75v0a.15.15,0,0,1-.15.12h-.36c-.09,0-.13,0-.15-.15-.07-.44-.27-1.13-1.68-1.13-.62,0-1.53.24-1.53,1.13,0,2.09,4,.53,4,3.27,0,1.35-1.07,1.87-2.4,1.87A2.2,2.2,0,0,1,105.73,220.88Z"/><path class="cls-2" d="M115,220v-3.5h-1.11a.13.13,0,0,1-.15-.15V216a.14.14,0,0,1,.15-.16c.76,0,1.14-.17,1.14-1.14v-.42a.14.14,0,0,1,.15-.16h.32a.15.15,0,0,1,.16.16v1.56h1.63a.15.15,0,0,1,.16.16v.31a.14.14,0,0,1-.16.15h-1.63V220c0,1.55.17,1.9,1.53,1.9h.11a.15.15,0,0,1,.16.16v.32a.14.14,0,0,1-.16.15h-.11C115.21,222.51,115,221.7,115,220Z"/><path class="cls-2" d="M120.93,215.74a2.58,2.58,0,0,1,2.59,2.89v1.13a2.6,2.6,0,1,1-5.17,0v-1.13A2.57,2.57,0,0,1,120.93,215.74Zm0,6.27c1.14,0,1.94-.8,1.94-2.28v-1.09c0-1.47-.8-2.28-1.94-2.28s-1.94.81-1.94,2.28v1.09C119,221.22,119.8,222,120.93,222Z"/><path class="cls-2" d="M134.72,222.41a.09.09,0,0,1-.09.09h-.42a.15.15,0,0,1-.16-.11l-1-2.63h-4.24l-.94,2.63a.14.14,0,0,1-.15.11h-.42a.09.09,0,0,1-.09-.09,1.11,1.11,0,0,1,.09-.28l3.2-8.74c0-.11.09-.17.19-.17h.48c.09,0,.13.07.17.16l3.33,8.9A.43.43,0,0,1,134.72,222.41Zm-1.88-3.25L130.93,214l-1.86,5.19Z"/><path class="cls-2" d="M142.15,219.56a3.2,3.2,0,0,1-3.25,3.08,3.29,3.29,0,0,1-3.31-3.51v-2.52a3.26,3.26,0,0,1,3.3-3.51,3.21,3.21,0,0,1,3.26,2.89c0,.13-.05.16-.15.16h-.41c-.05,0-.09,0-.11-.15a2.6,2.6,0,0,0-2.6-2.29,2.65,2.65,0,0,0-2.64,2.9v2.52a2.66,2.66,0,0,0,2.65,2.9,2.6,2.6,0,0,0,2.61-2.49.09.09,0,0,1,.09-.08h.45A.09.09,0,0,1,142.15,219.56Z"/><path class="cls-2" d="M152.53,213.38v9a.14.14,0,0,1-.16.15H152a.13.13,0,0,1-.15-.15V214l-3.29,8.35a.18.18,0,0,1-.16.11h-.33a.15.15,0,0,1-.16-.11L144.66,214v8.31a.14.14,0,0,1-.16.15h-.35a.13.13,0,0,1-.15-.15v-9a.14.14,0,0,1,.15-.16h.76a.16.16,0,0,1,.16.11l3.21,8.29,3.24-8.29c0-.09.08-.11.15-.11h.72A.15.15,0,0,1,152.53,213.38Z"/><path class="cls-2" d="M157.95,218.79h-2.51v3.57a.14.14,0,0,1-.16.15h-.35a.13.13,0,0,1-.15-.15v-9a.14.14,0,0,1,.15-.16h3c1.74,0,2.86.89,2.86,2.61V216A2.6,2.6,0,0,1,157.95,218.79Zm-2.51-5v4.35h2.51a2,2,0,0,0,2.21-2.08v-.32c0-1.5-1.07-1.95-2.21-1.95Z"/><path class="cls-2" d="M162.9,222.51h-.35a.13.13,0,0,1-.15-.15v-9a.14.14,0,0,1,.15-.16h3c1.74,0,2.86.89,2.86,2.61V216a2.51,2.51,0,0,1-2.12,2.49l2.05,3.85a.2.2,0,0,1,0,.12.09.09,0,0,1-.09.09h-.5c-.09,0-.13-.05-.17-.13l-2-3.85h-2.55v3.83A.14.14,0,0,1,162.9,222.51Zm2.66-4.59a2,2,0,0,0,2.21-1.91v-.23c0-1.5-1.07-1.95-2.21-1.95h-2.51v4.08Z"/><path class="cls-2" d="M55.35,235.87v-6.32a.14.14,0,0,1,.15-.16h.32a.15.15,0,0,1,.16.16v1.06a2,2,0,0,1,1.95-1.22h.21a.15.15,0,0,1,.16.16v.32a.14.14,0,0,1-.16.15h-.21c-1.51,0-1.92,1.48-1.92,2.43v3.43a.14.14,0,0,1-.16.15H55.5A.13.13,0,0,1,55.35,235.87Z"/><path class="cls-2" d="M61.85,235.52a1.81,1.81,0,0,0,1.87-1.39c0-.08.05-.12.13-.12h.41a.09.09,0,0,1,.09.09.68.68,0,0,1,0,.17,2.47,2.47,0,0,1-2.47,1.87,2.58,2.58,0,0,1-2.63-2.88v-1.13a2.61,2.61,0,1,1,5.2,0v.69a.14.14,0,0,1-.16.15H59.87v.36A2,2,0,0,0,61.85,235.52Zm1.92-3.39c0-1.45-.81-2.25-1.95-2.25s-1.95.81-1.95,2.25v.23h3.9Z"/><path class="cls-2" d="M71.4,237c0,1-.73,1.83-2.16,1.83H67.83c-1.43,0-2.15-.82-2.15-1.83a1.7,1.7,0,0,1,.76-1.48,1.12,1.12,0,0,1-.76-1.11,1.19,1.19,0,0,1,1.11-1.23,2,2,0,0,1-.82-1.7,2.21,2.21,0,0,1,2.32-2.19h.38a2.36,2.36,0,0,1,1.7.68v-1.11a.14.14,0,0,1,.15-.16h.32a.15.15,0,0,1,.16.16v2.63a2.2,2.2,0,0,1-2.32,2.2H67.23c-.56,0-.89.21-.89.72s.33.7,1.18.7h1.71A1.9,1.9,0,0,1,71.4,237Zm-.68,0c0-.73-.42-1.29-1.53-1.29H67.87c-1.09,0-1.51.56-1.51,1.29s.42,1.23,1.51,1.23H69.2C70.3,238.19,70.72,237.68,70.72,237Zm-4.08-5.52a1.6,1.6,0,0,0,1.72,1.62h.25a1.61,1.61,0,1,0,0-3.22h-.25A1.59,1.59,0,0,0,66.64,231.44Z"/><path class="cls-2" d="M73.49,227.25a.49.49,0,0,1-.52.52.52.52,0,0,1,0-1A.49.49,0,0,1,73.49,227.25Zm-.84,8.62v-6.32a.14.14,0,0,1,.15-.16h.35a.15.15,0,0,1,.16.16v6.32a.14.14,0,0,1-.16.15H72.8A.13.13,0,0,1,72.66,235.87Z"/><path class="cls-2" d="M75,234.38a.12.12,0,0,1,0-.09.12.12,0,0,1,.12-.07h.35c.11,0,.13,0,.16.12a1.65,1.65,0,0,0,1.76,1.18c.92,0,1.74-.29,1.74-1.25,0-2-4-.41-4-3.27,0-1.3,1.23-1.75,2.17-1.75,2.39,0,2.33,1.75,2.33,1.75v0a.15.15,0,0,1-.15.12h-.36c-.09,0-.13,0-.15-.15-.07-.44-.27-1.13-1.68-1.13-.62,0-1.53.24-1.53,1.13,0,2.09,4,.53,4,3.27,0,1.35-1.07,1.87-2.4,1.87A2.2,2.2,0,0,1,75,234.38Z"/><path class="cls-2" d="M81.43,233.49V230H80.31a.13.13,0,0,1-.15-.15v-.31a.14.14,0,0,1,.15-.16c.76,0,1.14-.17,1.14-1.14v-.42a.14.14,0,0,1,.15-.16h.32a.15.15,0,0,1,.16.16v1.56h1.63a.15.15,0,0,1,.16.16v.31a.14.14,0,0,1-.16.15H82.08v3.5c0,1.55.17,1.9,1.53,1.9h.11a.15.15,0,0,1,.16.16v.32a.14.14,0,0,1-.16.15H83.6C81.6,236,81.43,235.2,81.43,233.49Z"/><path class="cls-2" d="M87.35,235.52a1.81,1.81,0,0,0,1.87-1.39c0-.08.05-.12.13-.12h.41a.09.09,0,0,1,.09.09.68.68,0,0,1,0,.17,2.47,2.47,0,0,1-2.47,1.87,2.58,2.58,0,0,1-2.63-2.88v-1.13a2.61,2.61,0,1,1,5.2,0v.69a.14.14,0,0,1-.16.15H85.38v.36A2,2,0,0,0,87.35,235.52Zm1.92-3.39c0-1.45-.81-2.25-1.95-2.25s-1.95.81-1.95,2.25v.23h3.9Z"/><path class="cls-2" d="M91.59,235.87v-6.32a.14.14,0,0,1,.15-.16h.32a.15.15,0,0,1,.16.16v1.06a2,2,0,0,1,1.95-1.22h.21a.15.15,0,0,1,.16.16v.32a.14.14,0,0,1-.16.15h-.21c-1.51,0-1.92,1.48-1.92,2.43v3.43a.14.14,0,0,1-.16.15h-.34A.13.13,0,0,1,91.59,235.87Z"/><path class="cls-2" d="M98.08,235.52a1.81,1.81,0,0,0,1.87-1.39c0-.08.05-.12.13-.12h.41a.09.09,0,0,1,.09.09.68.68,0,0,1,0,.17,2.47,2.47,0,0,1-2.47,1.87,2.58,2.58,0,0,1-2.63-2.88v-1.13a2.61,2.61,0,1,1,5.2,0v.69a.14.14,0,0,1-.16.15H96.11v.36A2,2,0,0,0,98.08,235.52Zm1.92-3.39c0-1.45-.81-2.25-1.95-2.25s-1.95.81-1.95,2.25v.23H100Z"/><path class="cls-2" d="M106.52,235.87v-.78a2.18,2.18,0,0,1-1.95,1.06,2.57,2.57,0,0,1-2.59-2.88v-1.13a2.58,2.58,0,0,1,2.59-2.89,2.16,2.16,0,0,1,1.95,1.06v-3.42a.14.14,0,0,1,.15-.16H107a.15.15,0,0,1,.16.16v9a.14.14,0,0,1-.16.15h-.34A.13.13,0,0,1,106.52,235.87Zm0-2.63V232a1.94,1.94,0,0,0-1.95-2.18c-1.15,0-1.94.81-1.94,2.28v1.09c0,1.48.8,2.28,1.92,2.28S106.52,234.71,106.52,233.24Z"/><path class="cls-2" d="M112.43,238.66h-.34a.13.13,0,0,1-.15-.15v-9a.14.14,0,0,1,.15-.16h.34a.15.15,0,0,1,.16.16v.77a2.16,2.16,0,0,1,1.95-1.06,2.58,2.58,0,0,1,2.59,2.89v1.13a2.57,2.57,0,0,1-2.59,2.88,2.18,2.18,0,0,1-1.95-1.06v3.43A.14.14,0,0,1,112.43,238.66Zm2.11-3.14c1.14,0,1.94-.8,1.94-2.28v-1.09c0-1.47-.78-2.28-1.94-2.28a1.94,1.94,0,0,0-1.95,2.18v1.19C112.59,234.71,113.42,235.52,114.54,235.52Z"/><path class="cls-2" d="M123.14,236h-.34a.13.13,0,0,1-.15-.15v-.8a2.07,2.07,0,0,1-1.95,1.07h-.31a1.89,1.89,0,0,1-2.13-1.91c0-1.31.77-1.9,2.25-1.9h2.14v-.54c0-.85,0-1.92-1.72-1.92-1.22,0-1.54.45-1.66,1.13,0,.07,0,.15-.16.15h-.35a.13.13,0,0,1-.15-.15v0c.11-.89.62-1.72,2.31-1.72,2.29,0,2.37,1.51,2.37,2.56v4.06A.14.14,0,0,1,123.14,236Zm-4.23-1.78a1.31,1.31,0,0,0,1.48,1.29h.31a1.87,1.87,0,0,0,1.95-2V233h-2.12C119.23,233,118.91,233.44,118.91,234.23Z"/><path class="cls-2" d="M125.35,233.49V230h-1.11a.13.13,0,0,1-.15-.15v-.31a.14.14,0,0,1,.15-.16c.76,0,1.14-.17,1.14-1.14v-.42a.14.14,0,0,1,.15-.16h.32a.15.15,0,0,1,.16.16v1.56h1.63a.15.15,0,0,1,.16.16v.31a.14.14,0,0,1-.16.15H126v3.5c0,1.55.17,1.9,1.53,1.9h.11a.15.15,0,0,1,.16.16v.32a.14.14,0,0,1-.16.15h-.11C125.53,236,125.35,235.2,125.35,233.49Z"/><path class="cls-2" d="M130.09,227.25a.49.49,0,0,1-.52.52.52.52,0,0,1,0-1A.49.49,0,0,1,130.09,227.25Zm-.84,8.62v-6.32a.14.14,0,0,1,.15-.16h.35a.15.15,0,0,1,.16.16v6.32a.14.14,0,0,1-.16.15h-.35A.13.13,0,0,1,129.25,235.87Z"/><path class="cls-2" d="M134.25,235.52a1.81,1.81,0,0,0,1.87-1.39c0-.08.05-.12.13-.12h.41a.09.09,0,0,1,.09.09.68.68,0,0,1,0,.17,2.47,2.47,0,0,1-2.47,1.87,2.58,2.58,0,0,1-2.63-2.88v-1.13a2.61,2.61,0,1,1,5.2,0v.69a.14.14,0,0,1-.16.15h-4.39v.36A2,2,0,0,0,134.25,235.52Zm1.92-3.39c0-1.45-.81-2.25-1.95-2.25s-1.95.81-1.95,2.25v.23h3.9Z"/><path class="cls-2" d="M138.48,235.87v-6.32a.14.14,0,0,1,.15-.16H139a.15.15,0,0,1,.16.16v.81a2,2,0,0,1,1.88-1.1c1.63,0,2.55,1.17,2.55,2.89v3.73a.14.14,0,0,1-.16.15h-.34a.13.13,0,0,1-.15-.15v-3.71c0-1.47-.76-2.28-1.9-2.28s-1.88.81-1.88,2.28v3.71a.14.14,0,0,1-.16.15h-.35A.13.13,0,0,1,138.48,235.87Z"/><path class="cls-2" d="M145.62,233.49V230h-1.11a.13.13,0,0,1-.15-.15v-.31a.14.14,0,0,1,.15-.16c.76,0,1.14-.17,1.14-1.14v-.42a.14.14,0,0,1,.15-.16h.32a.15.15,0,0,1,.16.16v1.56h1.63a.15.15,0,0,1,.16.16v.31a.14.14,0,0,1-.16.15h-1.63v3.5c0,1.55.17,1.9,1.53,1.9h.11a.15.15,0,0,1,.16.16v.32a.14.14,0,0,1-.16.15h-.11C145.79,236,145.62,235.2,145.62,233.49Z"/><path class="cls-2" d="M148.86,234.38a.12.12,0,0,1,0-.09.12.12,0,0,1,.12-.07h.35c.11,0,.13,0,.16.12a1.65,1.65,0,0,0,1.76,1.18c.92,0,1.74-.29,1.74-1.25,0-2-4-.41-4-3.27,0-1.3,1.23-1.75,2.17-1.75,2.39,0,2.33,1.75,2.33,1.75v0a.15.15,0,0,1-.15.12H153c-.09,0-.13,0-.15-.15-.07-.44-.27-1.13-1.68-1.13-.62,0-1.53.24-1.53,1.13,0,2.09,4,.53,4,3.27,0,1.35-1.07,1.87-2.4,1.87A2.2,2.2,0,0,1,148.86,234.38Z"/></svg>