<svg id="Layer_1" data-name="Layer 1" xmlns="http://www.w3.org/2000/svg" viewBox="0 0 778.98 223.85"><defs><style>.cls-1{fill:#a5b993;}.cls-2{fill:#fff;}</style></defs><title>numbers-03</title><circle class="cls-1" cx="210.46" cy="106.84" r="3.03"/><circle class="cls-1" cx="210.46" cy="93.98" r="3.03"/><circle class="cls-1" cx="210.46" cy="81.13" r="3.03"/><circle class="cls-1" cx="210.46" cy="68.28" r="3.03"/><circle class="cls-1" cx="223.32" cy="106.84" r="3.03"/><circle class="cls-1" cx="223.32" cy="93.98" r="3.03"/><circle class="cls-1" cx="223.32" cy="81.13" r="3.03"/><circle class="cls-1" cx="223.32" cy="68.28" r="3.03"/><circle class="cls-1" cx="236.17" cy="106.84" r="3.03"/><circle class="cls-1" cx="236.17" cy="93.98" r="3.03"/><circle class="cls-1" cx="236.17" cy="81.13" r="3.03"/><circle class="cls-1" cx="236.17" cy="68.28" r="3.03"/><circle class="cls-1" cx="249.02" cy="106.84" r="3.03"/><circle class="cls-1" cx="249.02" cy="93.98" r="3.03"/><circle class="cls-1" cx="249.02" cy="81.13" r="3.03"/><circle class="cls-1" cx="249.02" cy="68.28" r="3.03"/><circle class="cls-1" cx="261.88" cy="106.84" r="3.03"/><circle class="cls-1" cx="261.88" cy="93.98" r="3.03"/><circle class="cls-1" cx="261.88" cy="81.13" r="3.03"/><circle class="cls-1" cx="261.88" cy="68.28" r="3.03"/><path class="cls-2" d="M171.1,128.55l-3.94,4.27h5a.17.17,0,0,1,.18.18v.38a.16.16,0,0,1-.18.16h-5.6a.15.15,0,0,1-.16-.16V133a.68.68,0,0,1,.24-.55l3.85-4.21a3.11,3.11,0,0,0,.95-2.24,1.93,1.93,0,0,0-2.09-2.12,1.89,1.89,0,0,0-2.12,1.81.16.16,0,0,1-.18.16h-.38a.15.15,0,0,1-.16-.16,2.61,2.61,0,0,1,2.84-2.49,2.73,2.73,0,0,1,2.84,2.8A3.91,3.91,0,0,1,171.1,128.55Z"/><path class="cls-2" d="M177.28,123.17c2.13,0,3.26,1.51,3.26,3.93v2.67c0,2.42-1.14,3.93-3.27,3.93s-3.25-1.51-3.25-3.93V127.1C174,124.68,175.15,123.17,177.28,123.17Zm0,9.84c1.72,0,2.55-1.2,2.55-3.25V127.1c0-2-.81-3.24-2.53-3.24s-2.53,1.2-2.53,3.24v2.67C174.75,131.86,175.55,133,177.27,133Z"/><path class="cls-2" d="M185.67,131.9v-3.21h-3.11a.15.15,0,0,1-.16-.16v-.34a.16.16,0,0,1,.16-.18h3.11v-3.17a.16.16,0,0,1,.16-.18h.38a.17.17,0,0,1,.18.18V128h3.08a.17.17,0,0,1,.18.18v.34a.16.16,0,0,1-.18.16H186.4v3.21a.16.16,0,0,1-.18.16h-.38A.15.15,0,0,1,185.67,131.9Z"/><path class="cls-2" d="M201.88,130.26a3.58,3.58,0,0,1-3.63,3.44,3.67,3.67,0,0,1-3.7-3.93V127a3.64,3.64,0,0,1,3.69-3.93,3.58,3.58,0,0,1,3.64,3.23c0,.15-.06.18-.16.18h-.46c-.06,0-.1,0-.12-.16a2.9,2.9,0,0,0-2.9-2.56,3,3,0,0,0-2.95,3.25v2.81a3,3,0,0,0,3,3.25,2.9,2.9,0,0,0,2.92-2.79.1.1,0,0,1,.1-.09h.5A.11.11,0,0,1,201.88,130.26Z"/><path class="cls-2" d="M203.81,133.38v-10a.16.16,0,0,1,.16-.18h.39a.17.17,0,0,1,.18.18v10a.16.16,0,0,1-.18.16H204A.15.15,0,0,1,203.81,133.38Z"/><path class="cls-2" d="M207.77,123.75a.55.55,0,0,1-.58.58.58.58,0,0,1,0-1.16A.55.55,0,0,1,207.77,123.75Zm-.93,9.63v-7.07a.16.16,0,0,1,.16-.18h.39a.17.17,0,0,1,.18.18v7.07a.16.16,0,0,1-.18.16H207A.15.15,0,0,1,206.83,133.38Z"/><path class="cls-2" d="M209.86,133.38v-7.07a.16.16,0,0,1,.16-.18h.38a.17.17,0,0,1,.18.18v.9a2.22,2.22,0,0,1,2.1-1.23c1.82,0,2.84,1.3,2.84,3.23v4.16a.16.16,0,0,1-.18.16H215a.15.15,0,0,1-.16-.16v-4.15c0-1.64-.84-2.55-2.12-2.55s-2.1.9-2.1,2.55v4.15a.16.16,0,0,1-.18.16H210A.15.15,0,0,1,209.86,133.38Z"/><path class="cls-2" d="M218.69,123.75a.55.55,0,0,1-.58.58.58.58,0,0,1,0-1.16A.55.55,0,0,1,218.69,123.75Zm-.93,9.63v-7.07a.16.16,0,0,1,.16-.18h.39a.17.17,0,0,1,.18.18v7.07a.16.16,0,0,1-.18.16h-.39A.15.15,0,0,1,217.75,133.38Z"/><path class="cls-2" d="M223.33,133a1.93,1.93,0,0,0,2-1.69c0-.1.06-.13.16-.13H226a.1.1,0,0,1,.1.1.76.76,0,0,1,0,.15,2.7,2.7,0,0,1-2.73,2.27,2.88,2.88,0,0,1-2.92-3.22v-1.26c0-2.07,1.25-3.23,2.9-3.23a2.69,2.69,0,0,1,2.76,2.42v0a.1.1,0,0,1-.1.1h-.44a.16.16,0,0,1-.16-.15,2,2,0,0,0-2-1.69c-1.26,0-2.18.9-2.18,2.55v1.21C221.13,132.11,222.07,133,223.33,133Z"/><path class="cls-2" d="M231,133.38v-7.07a.16.16,0,0,1,.16-.18h.36a.17.17,0,0,1,.18.18v1.19a2.18,2.18,0,0,1,2.18-1.36h.24a.17.17,0,0,1,.18.18v.36a.16.16,0,0,1-.18.16h-.24c-1.69,0-2.15,1.66-2.15,2.71v3.84a.16.16,0,0,1-.18.16h-.39A.15.15,0,0,1,231,133.38Z"/><path class="cls-2" d="M238.29,133a2,2,0,0,0,2.09-1.56c0-.09.06-.13.15-.13H241a.1.1,0,0,1,.1.1.76.76,0,0,1,0,.19,2.76,2.76,0,0,1-2.76,2.09,2.88,2.88,0,0,1-2.93-3.22v-1.26c0-2.07,1.25-3.23,2.9-3.23s2.9,1.16,2.9,3.23V130a.16.16,0,0,1-.18.16h-4.9v.4A2.19,2.19,0,0,0,238.29,133Zm2.15-3.79c0-1.62-.9-2.52-2.18-2.52s-2.18.9-2.18,2.52v.25h4.36Z"/><path class="cls-2" d="M243,133.38v-10a.16.16,0,0,1,.16-.18h.38a.17.17,0,0,1,.18.18v10a.16.16,0,0,1-.18.16h-.38A.15.15,0,0,1,243,133.38Z"/><path class="cls-2" d="M250.83,133.55h-.38a.15.15,0,0,1-.16-.16v-.89a2.31,2.31,0,0,1-2.18,1.2h-.34a2.11,2.11,0,0,1-2.38-2.13c0-1.47.86-2.12,2.52-2.12h2.39v-.61c0-.95,0-2.15-1.93-2.15-1.36,0-1.72.5-1.85,1.26,0,.07,0,.16-.18.16h-.39a.15.15,0,0,1-.16-.16v0c.12-1,.7-1.93,2.58-1.93,2.56,0,2.65,1.69,2.65,2.86v4.53A.16.16,0,0,1,250.83,133.55Zm-4.73-2a1.47,1.47,0,0,0,1.66,1.44h.34a2.09,2.09,0,0,0,2.18-2.28v-.58h-2.37C246.46,130.14,246.1,130.67,246.1,131.56Z"/><path class="cls-2" d="M253.31,130.73v-3.91h-1.24a.15.15,0,0,1-.16-.16v-.34a.16.16,0,0,1,.16-.18c.84,0,1.27-.19,1.27-1.27v-.47a.16.16,0,0,1,.16-.18h.36a.17.17,0,0,1,.18.18v1.75h1.82a.17.17,0,0,1,.18.18v.34a.16.16,0,0,1-.18.16H254v3.91c0,1.73.19,2.12,1.7,2.12h.12a.17.17,0,0,1,.18.18v.36a.16.16,0,0,1-.18.16h-.12C253.5,133.55,253.31,132.64,253.31,130.73Z"/><path class="cls-2" d="M258.6,123.75a.55.55,0,0,1-.58.58.58.58,0,0,1,0-1.16A.55.55,0,0,1,258.6,123.75Zm-.93,9.63v-7.07a.16.16,0,0,1,.16-.18h.39a.17.17,0,0,1,.18.18v7.07a.16.16,0,0,1-.18.16h-.39A.15.15,0,0,1,257.66,133.38Z"/><path class="cls-2" d="M263.21,126c1.64,0,2.89,1.16,2.89,3.23v1.26c0,2.07-1.24,3.22-2.89,3.22s-2.89-1.14-2.89-3.22v-1.26C260.32,127.14,261.55,126,263.21,126Zm0,7c1.27,0,2.16-.89,2.16-2.55v-1.21c0-1.64-.89-2.55-2.16-2.55s-2.16.9-2.16,2.55v1.21C261,132.11,261.95,133,263.21,133Z"/><path class="cls-2" d="M267.95,133.38v-7.07a.16.16,0,0,1,.16-.18h.38a.17.17,0,0,1,.18.18v.9a2.22,2.22,0,0,1,2.1-1.23c1.82,0,2.84,1.3,2.84,3.23v4.16a.16.16,0,0,1-.18.16h-.38a.15.15,0,0,1-.16-.16v-4.15c0-1.64-.84-2.55-2.12-2.55s-2.1.9-2.1,2.55v4.15a.16.16,0,0,1-.18.16h-.38A.15.15,0,0,1,267.95,133.38Z"/><path class="cls-2" d="M275.33,131.72a.14.14,0,0,1,0-.1.14.14,0,0,1,.13-.07h.39c.12,0,.15,0,.18.13a1.85,1.85,0,0,0,2,1.32c1,0,1.94-.33,1.94-1.39,0-2.24-4.52-.46-4.52-3.66,0-1.45,1.38-2,2.43-2,2.67,0,2.61,2,2.61,2v0a.17.17,0,0,1-.16.13h-.4c-.1,0-.15,0-.16-.16-.07-.49-.3-1.26-1.88-1.26-.7,0-1.7.27-1.7,1.26,0,2.34,4.52.59,4.52,3.66,0,1.51-1.2,2.09-2.68,2.09A2.46,2.46,0,0,1,275.33,131.72Z"/><path class="cls-2" d="M282.47,133.38v-10a.16.16,0,0,1,.16-.18H283a.17.17,0,0,1,.18.18v3.85a2.23,2.23,0,0,1,2.1-1.21c1.82,0,2.84,1.3,2.84,3.23v4.16a.16.16,0,0,1-.18.16h-.38a.15.15,0,0,1-.16-.16v-4.15c0-1.64-.84-2.55-2.12-2.55s-2.1.9-2.1,2.55v4.15a.16.16,0,0,1-.18.16h-.38A.15.15,0,0,1,282.47,133.38Z"/><path class="cls-2" d="M291.3,123.75a.55.55,0,0,1-.58.58.58.58,0,0,1,0-1.16A.55.55,0,0,1,291.3,123.75Zm-.93,9.63v-7.07a.16.16,0,0,1,.16-.18h.39a.17.17,0,0,1,.18.18v7.07a.16.16,0,0,1-.18.16h-.39A.15.15,0,0,1,290.37,133.38Z"/><path class="cls-2" d="M293.94,136.51h-.39a.15.15,0,0,1-.16-.16v-10a.16.16,0,0,1,.16-.18h.39a.17.17,0,0,1,.18.18v.86A2.41,2.41,0,0,1,296.3,126c1.64,0,2.89,1.16,2.89,3.23v1.26c0,2.07-1.25,3.22-2.89,3.22a2.43,2.43,0,0,1-2.18-1.19v3.84A.16.16,0,0,1,293.94,136.51ZM296.3,133c1.27,0,2.16-.89,2.16-2.55v-1.21c0-1.64-.87-2.55-2.16-2.55a2.17,2.17,0,0,0-2.18,2.43v1.33C294.12,132.09,295,133,296.3,133Z"/><path class="cls-2" d="M300.6,131.72a.14.14,0,0,1,0-.1.14.14,0,0,1,.13-.07h.39c.12,0,.15,0,.18.13a1.85,1.85,0,0,0,2,1.32c1,0,1.94-.33,1.94-1.39,0-2.24-4.52-.46-4.52-3.66,0-1.45,1.38-2,2.43-2,2.67,0,2.61,2,2.61,2v0a.17.17,0,0,1-.16.13h-.4c-.1,0-.15,0-.16-.16-.07-.49-.3-1.26-1.88-1.26-.7,0-1.7.27-1.7,1.26,0,2.34,4.52.59,4.52,3.66,0,1.51-1.2,2.09-2.68,2.09A2.46,2.46,0,0,1,300.6,131.72Z"/><path class="cls-2" d="M205.47,148.63h-.38a.15.15,0,0,1-.16-.16v-.89a2.31,2.31,0,0,1-2.18,1.2h-.34a2.11,2.11,0,0,1-2.38-2.13c0-1.47.86-2.12,2.52-2.12h2.39v-.61c0-.95,0-2.15-1.93-2.15-1.36,0-1.72.5-1.85,1.26,0,.07,0,.16-.18.16h-.39a.15.15,0,0,1-.16-.16v0c.12-1,.7-1.93,2.58-1.93,2.56,0,2.65,1.69,2.65,2.86v4.53A.16.16,0,0,1,205.47,148.63Zm-4.73-2a1.47,1.47,0,0,0,1.66,1.44h.34a2.09,2.09,0,0,0,2.18-2.28v-.58h-2.37C201.1,145.23,200.74,145.76,200.74,146.65Z"/><path class="cls-2" d="M207.8,148.47V141.4a.16.16,0,0,1,.16-.18h.39a.17.17,0,0,1,.18.18v.9a2.22,2.22,0,0,1,2.1-1.23c1.82,0,2.84,1.3,2.84,3.23v4.16a.16.16,0,0,1-.18.16h-.38a.15.15,0,0,1-.16-.16v-4.15c0-1.64-.84-2.55-2.12-2.55s-2.1.9-2.1,2.55v4.15a.16.16,0,0,1-.18.16H208A.15.15,0,0,1,207.8,148.47Z"/><path class="cls-2" d="M220.32,148.47v-.87a2.43,2.43,0,0,1-2.18,1.19c-1.64,0-2.89-1.14-2.89-3.22v-1.26c0-2.07,1.25-3.23,2.89-3.23a2.41,2.41,0,0,1,2.18,1.19v-3.82a.16.16,0,0,1,.16-.18h.38a.17.17,0,0,1,.18.18v10a.16.16,0,0,1-.18.16h-.38A.15.15,0,0,1,220.32,148.47Zm0-2.93v-1.33a2.17,2.17,0,0,0-2.18-2.43c-1.29,0-2.16.9-2.16,2.55v1.21c0,1.66.89,2.55,2.15,2.55S220.32,147.18,220.32,145.54Z"/><path class="cls-2" d="M232.32,149.7c0,1.16-.82,2-2.42,2h-1.57c-1.6,0-2.4-.92-2.4-2a1.9,1.9,0,0,1,.84-1.66,1.25,1.25,0,0,1-.84-1.24,1.33,1.33,0,0,1,1.25-1.38,2.2,2.2,0,0,1-.92-1.9,2.47,2.47,0,0,1,2.59-2.45h.43a2.64,2.64,0,0,1,1.9.76v-1.24a.16.16,0,0,1,.16-.18h.36a.17.17,0,0,1,.18.18v2.93a2.46,2.46,0,0,1-2.59,2.46h-1.61c-.62,0-1,.24-1,.8s.37.79,1.32.79h1.91A2.12,2.12,0,0,1,232.32,149.7Zm-.76,0c0-.81-.47-1.44-1.7-1.44h-1.48c-1.21,0-1.69.62-1.69,1.44s.47,1.38,1.69,1.38h1.48C231.09,151.06,231.57,150.5,231.57,149.69ZM227,143.52a1.79,1.79,0,0,0,1.93,1.81h.28a1.8,1.8,0,1,0,0-3.6h-.28A1.78,1.78,0,0,0,227,143.52Z"/><path class="cls-2" d="M233.66,148.47V141.4a.16.16,0,0,1,.16-.18h.36a.17.17,0,0,1,.18.18v1.19a2.18,2.18,0,0,1,2.18-1.36h.24a.17.17,0,0,1,.18.18v.36a.16.16,0,0,1-.18.16h-.24c-1.69,0-2.15,1.66-2.15,2.71v3.84a.16.16,0,0,1-.18.16h-.38A.15.15,0,0,1,233.66,148.47Z"/><path class="cls-2" d="M240.87,141.08c1.64,0,2.89,1.16,2.89,3.23v1.26c0,2.07-1.24,3.22-2.89,3.22s-2.89-1.14-2.89-3.22v-1.26C238,142.23,239.21,141.08,240.87,141.08Zm0,7c1.27,0,2.16-.89,2.16-2.55v-1.21c0-1.64-.89-2.55-2.16-2.55s-2.16.9-2.16,2.55v1.21C238.71,147.2,239.61,148.09,240.87,148.09Z"/><path class="cls-2" d="M254.49,141.33a.81.81,0,0,1,0,.19l-2.16,7a.18.18,0,0,1-.18.12h-.53c-.12,0-.15-.06-.18-.16l-1.9-6.15-1.84,6.19a.18.18,0,0,1-.18.12H247a.15.15,0,0,1-.16-.12l-2.24-7a.75.75,0,0,1,0-.19.1.1,0,0,1,.1-.1h.46c.07,0,.15,0,.19.18l2,6.39,1.87-6.39c0-.12.07-.18.19-.18h.39c.1,0,.16.06.19.18l2,6.39,1.88-6.39c0-.1.06-.18.18-.18h.47A.1.1,0,0,1,254.49,141.33Z"/><path class="cls-2" d="M256.76,138.84a.55.55,0,0,1-.58.58.58.58,0,0,1,0-1.16A.55.55,0,0,1,256.76,138.84Zm-.93,9.63V141.4a.16.16,0,0,1,.16-.18h.39a.17.17,0,0,1,.18.18v7.07a.16.16,0,0,1-.18.16H256A.15.15,0,0,1,255.83,148.47Z"/><path class="cls-2" d="M258.85,148.47V141.4a.16.16,0,0,1,.16-.18h.38a.17.17,0,0,1,.18.18v.9a2.22,2.22,0,0,1,2.1-1.23c1.82,0,2.84,1.3,2.84,3.23v4.16a.16.16,0,0,1-.18.16H264a.15.15,0,0,1-.16-.16v-4.15c0-1.64-.84-2.55-2.12-2.55s-2.1.9-2.1,2.55v4.15a.16.16,0,0,1-.18.16H259A.15.15,0,0,1,258.85,148.47Z"/><path class="cls-2" d="M272.62,149.7c0,1.16-.82,2-2.42,2h-1.57c-1.6,0-2.4-.92-2.4-2a1.9,1.9,0,0,1,.84-1.66,1.25,1.25,0,0,1-.84-1.24,1.33,1.33,0,0,1,1.25-1.38,2.2,2.2,0,0,1-.92-1.9,2.47,2.47,0,0,1,2.59-2.45h.43a2.64,2.64,0,0,1,1.9.76v-1.24a.16.16,0,0,1,.16-.18H272a.17.17,0,0,1,.18.18v2.93a2.46,2.46,0,0,1-2.59,2.46H268c-.62,0-1,.24-1,.8s.37.79,1.32.79h1.91A2.12,2.12,0,0,1,272.62,149.7Zm-.76,0c0-.81-.47-1.44-1.7-1.44h-1.48c-1.21,0-1.69.62-1.69,1.44s.47,1.38,1.69,1.38h1.48C271.39,151.06,271.86,150.5,271.86,149.69Zm-4.56-6.16a1.79,1.79,0,0,0,1.93,1.81h.28a1.8,1.8,0,1,0,0-3.6h-.28A1.78,1.78,0,0,0,267.3,143.52Z"/><circle class="cls-1" cx="482.46" cy="107.32" r="3.03"/><circle class="cls-1" cx="482.46" cy="94.47" r="3.03"/><circle class="cls-1" cx="482.46" cy="81.61" r="3.03"/><circle class="cls-1" cx="482.46" cy="68.76" r="3.03"/><circle class="cls-1" cx="495.31" cy="107.32" r="3.03"/><circle class="cls-1" cx="495.31" cy="94.47" r="3.03"/><circle class="cls-1" cx="495.31" cy="81.61" r="3.03"/><circle class="cls-1" cx="495.31" cy="68.76" r="3.03"/><circle class="cls-1" cx="508.17" cy="107.32" r="3.03"/><circle class="cls-1" cx="508.17" cy="94.47" r="3.03"/><circle class="cls-1" cx="508.17" cy="81.61" r="3.03"/><circle class="cls-1" cx="508.17" cy="68.76" r="3.03"/><circle class="cls-1" cx="521.02" cy="107.32" r="3.03"/><circle class="cls-1" cx="521.02" cy="94.47" r="3.03"/><circle class="cls-1" cx="521.02" cy="81.61" r="3.03"/><circle class="cls-1" cx="521.02" cy="68.76" r="3.03"/><circle class="cls-1" cx="533.87" cy="107.32" r="3.03"/><circle class="cls-1" cx="533.87" cy="94.47" r="3.03"/><circle class="cls-1" cx="533.87" cy="81.61" r="3.03"/><circle class="cls-1" cx="482.46" cy="55.91" r="3.03"/><circle class="cls-1" cx="495.31" cy="55.91" r="3.03"/><circle class="cls-1" cx="508.17" cy="55.91" r="3.03"/><circle class="cls-1" cx="521.02" cy="55.91" r="3.03"/><circle class="cls-1" cx="533.87" cy="55.91" r="3.03"/><circle class="cls-1" cx="533.87" cy="68.76" r="3.03"/><path class="cls-2" d="M441.17,128.66l-3.94,4.27h5a.17.17,0,0,1,.18.18v.38a.16.16,0,0,1-.18.16h-5.6a.15.15,0,0,1-.16-.16v-.42a.68.68,0,0,1,.24-.55l3.85-4.21a3.11,3.11,0,0,0,.95-2.24,1.93,1.93,0,0,0-2.09-2.12,1.89,1.89,0,0,0-2.12,1.81.16.16,0,0,1-.18.16h-.38a.15.15,0,0,1-.16-.16,2.61,2.61,0,0,1,2.84-2.49,2.73,2.73,0,0,1,2.84,2.8A3.91,3.91,0,0,1,441.17,128.66Z"/><path class="cls-2" d="M450.31,130.34c0,2-1.07,3.47-3.16,3.47a3,3,0,0,1-3.13-2.5.11.11,0,0,1,.1-.13h.43a.21.21,0,0,1,.19.16,2.29,2.29,0,0,0,2.4,1.79c1.51,0,2.43-1,2.43-2.79v-.24a2.32,2.32,0,0,0-2.28-2.5,2.76,2.76,0,0,0-2.33,1.13c-.19.27-.21.43-.43.43h-.25c-.1,0-.18-.06-.16-.16l.45-5.38c0-.12.06-.18.16-.18h4.93a.17.17,0,0,1,.18.18V124a.16.16,0,0,1-.18.16h-4.46l-.33,3.67a3.4,3.4,0,0,1,2.42-.92,3,3,0,0,1,3,3.19Z"/><path class="cls-2" d="M459.28,133.39a.36.36,0,0,1,.07.16.1.1,0,0,1-.1.1h-.58c-.1,0-.15-.07-.19-.15L455,128.08l-2,2.13v3.27a.16.16,0,0,1-.18.16h-.39a.15.15,0,0,1-.16-.16v-10a.16.16,0,0,1,.16-.18h.39a.17.17,0,0,1,.18.18v5.84l5.41-5.79c.1-.1.18-.22.3-.22h.55a.1.1,0,0,1,.1.1c0,.07,0,.12-.1.19l-3.75,4Z"/><path class="cls-2" d="M463.86,132V128.8h-3.11a.15.15,0,0,1-.16-.16v-.34a.16.16,0,0,1,.16-.18h3.11v-3.17a.16.16,0,0,1,.16-.18h.38a.17.17,0,0,1,.18.18v3.17h3.08a.17.17,0,0,1,.18.18v.34a.16.16,0,0,1-.18.16h-3.08V132a.16.16,0,0,1-.18.16H464A.15.15,0,0,1,463.86,132Z"/><path class="cls-2" d="M480.52,133.55a.1.1,0,0,1-.1.1h-.47a.17.17,0,0,1-.18-.12l-1.08-2.93h-4.74l-1.05,2.93a.16.16,0,0,1-.16.12h-.47a.1.1,0,0,1-.1-.1,1.24,1.24,0,0,1,.1-.31l3.57-9.76c0-.12.1-.19.21-.19h.53c.1,0,.15.07.19.18l3.72,9.94A.48.48,0,0,1,480.52,133.55Zm-2.1-3.63-2.13-5.79-2.07,5.79Z"/><path class="cls-2" d="M484.47,133.11a1.93,1.93,0,0,0,2-1.69c0-.1.06-.13.16-.13h.44a.1.1,0,0,1,.1.1.76.76,0,0,1,0,.15,2.7,2.7,0,0,1-2.73,2.27,2.88,2.88,0,0,1-2.92-3.22v-1.26c0-2.07,1.25-3.23,2.9-3.23a2.69,2.69,0,0,1,2.76,2.42v0a.1.1,0,0,1-.1.1h-.44a.16.16,0,0,1-.16-.15,2,2,0,0,0-2-1.69c-1.26,0-2.18.9-2.18,2.55v1.21C482.28,132.22,483.22,133.11,484.47,133.11Z"/><path class="cls-2" d="M491.62,133.11a1.93,1.93,0,0,0,2-1.69c0-.1.06-.13.16-.13h.44a.1.1,0,0,1,.1.1.76.76,0,0,1,0,.15,2.7,2.7,0,0,1-2.73,2.27,2.88,2.88,0,0,1-2.92-3.22v-1.26c0-2.07,1.25-3.23,2.9-3.23a2.69,2.69,0,0,1,2.76,2.42v0a.1.1,0,0,1-.1.1h-.44a.16.16,0,0,1-.16-.15,2,2,0,0,0-2-1.69c-1.26,0-2.18.9-2.18,2.55v1.21C489.42,132.22,490.36,133.11,491.62,133.11Z"/><path class="cls-2" d="M498.78,133.11a2,2,0,0,0,2.09-1.56c0-.09.06-.13.15-.13h.46a.1.1,0,0,1,.1.1.76.76,0,0,1,0,.19,2.76,2.76,0,0,1-2.76,2.09,2.88,2.88,0,0,1-2.93-3.22v-1.26c0-2.07,1.25-3.23,2.9-3.23s2.9,1.16,2.9,3.23v.77a.16.16,0,0,1-.18.16h-4.9v.4A2.19,2.19,0,0,0,498.78,133.11Zm2.15-3.79c0-1.62-.9-2.52-2.18-2.52s-2.18.9-2.18,2.52v.25h4.36Z"/><path class="cls-2" d="M503.06,131.83a.14.14,0,0,1,0-.1.14.14,0,0,1,.13-.07h.39c.12,0,.15,0,.18.13a1.85,1.85,0,0,0,2,1.32c1,0,1.94-.33,1.94-1.39,0-2.24-4.52-.46-4.52-3.66,0-1.45,1.38-2,2.43-2,2.67,0,2.61,2,2.61,2v0a.17.17,0,0,1-.16.13h-.4c-.1,0-.15,0-.16-.16-.07-.49-.3-1.26-1.88-1.26-.7,0-1.7.27-1.7,1.26,0,2.34,4.52.59,4.52,3.66,0,1.51-1.2,2.09-2.68,2.09A2.46,2.46,0,0,1,503.06,131.83Z"/><path class="cls-2" d="M509.76,131.83a.14.14,0,0,1,0-.1.14.14,0,0,1,.13-.07h.39c.12,0,.15,0,.18.13a1.85,1.85,0,0,0,2,1.32c1,0,1.94-.33,1.94-1.39,0-2.24-4.52-.46-4.52-3.66,0-1.45,1.38-2,2.43-2,2.67,0,2.61,2,2.61,2v0a.17.17,0,0,1-.16.13h-.4c-.1,0-.15,0-.16-.16-.07-.49-.3-1.26-1.88-1.26-.7,0-1.7.27-1.7,1.26,0,2.34,4.52.59,4.52,3.66,0,1.51-1.2,2.09-2.68,2.09A2.46,2.46,0,0,1,509.76,131.83Z"/><path class="cls-2" d="M520.16,130.84v-3.91h-1.24a.15.15,0,0,1-.16-.16v-.34a.16.16,0,0,1,.16-.18c.84,0,1.27-.19,1.27-1.27v-.47a.16.16,0,0,1,.16-.18h.36a.17.17,0,0,1,.18.18v1.75h1.82a.17.17,0,0,1,.18.18v.34a.16.16,0,0,1-.18.16h-1.82v3.91c0,1.73.19,2.12,1.7,2.12h.12a.17.17,0,0,1,.18.18v.36a.16.16,0,0,1-.18.16h-.12C520.35,133.65,520.16,132.75,520.16,130.84Z"/><path class="cls-2" d="M526.74,126.1c1.64,0,2.89,1.16,2.89,3.23v1.26c0,2.07-1.24,3.22-2.89,3.22s-2.89-1.14-2.89-3.22v-1.26C523.85,127.25,525.08,126.1,526.74,126.1Zm0,7c1.27,0,2.16-.89,2.16-2.55v-1.21c0-1.64-.89-2.55-2.16-2.55s-2.16.9-2.16,2.55v1.21C524.58,132.22,525.48,133.11,526.74,133.11Z"/><path class="cls-2" d="M542.15,133.55a.1.1,0,0,1-.1.1h-.47a.17.17,0,0,1-.18-.12l-1.08-2.93h-4.74l-1.05,2.93a.16.16,0,0,1-.16.12h-.47a.1.1,0,0,1-.1-.1,1.24,1.24,0,0,1,.1-.31l3.57-9.76c0-.12.1-.19.21-.19h.53c.1,0,.15.07.19.18l3.72,9.94A.48.48,0,0,1,542.15,133.55Zm-2.1-3.63-2.13-5.79-2.07,5.79Z"/><path class="cls-2" d="M550.45,130.37a3.58,3.58,0,0,1-3.63,3.44,3.67,3.67,0,0,1-3.7-3.93v-2.81a3.64,3.64,0,0,1,3.69-3.93,3.58,3.58,0,0,1,3.64,3.23c0,.15-.06.18-.16.18h-.46c-.06,0-.1,0-.12-.16a2.9,2.9,0,0,0-2.9-2.56,3,3,0,0,0-2.95,3.25v2.81a3,3,0,0,0,3,3.25,2.9,2.9,0,0,0,2.92-2.79.1.1,0,0,1,.1-.09h.5A.11.11,0,0,1,550.45,130.37Z"/><path class="cls-2" d="M562.06,123.46v10a.16.16,0,0,1-.18.16h-.39a.15.15,0,0,1-.16-.16V124.2l-3.67,9.33a.2.2,0,0,1-.18.12h-.37a.17.17,0,0,1-.18-.12l-3.67-9.33v9.29a.16.16,0,0,1-.18.16h-.39a.15.15,0,0,1-.16-.16v-10a.16.16,0,0,1,.16-.18h.84a.18.18,0,0,1,.18.12l3.59,9.26,3.62-9.26c0-.1.09-.12.16-.12h.8A.17.17,0,0,1,562.06,123.46Z"/><path class="cls-2" d="M568.1,129.51h-2.8v4a.16.16,0,0,1-.18.16h-.39a.15.15,0,0,1-.16-.16v-10a.16.16,0,0,1,.16-.18h3.36c1.94,0,3.2,1,3.2,2.92v.24A2.91,2.91,0,0,1,568.1,129.51ZM565.3,124v4.86h2.8a2.23,2.23,0,0,0,2.47-2.33v-.36c0-1.67-1.2-2.18-2.47-2.18Z"/><path class="cls-2" d="M573.63,133.65h-.39a.15.15,0,0,1-.16-.16v-10a.16.16,0,0,1,.16-.18h3.36c1.94,0,3.2,1,3.2,2.92v.13a2.8,2.8,0,0,1-2.37,2.79l2.3,4.3a.22.22,0,0,1,0,.13.1.1,0,0,1-.1.1h-.56c-.1,0-.15-.06-.19-.15l-2.27-4.3h-2.84v4.28A.16.16,0,0,1,573.63,133.65Zm3-5.13a2.21,2.21,0,0,0,2.47-2.13v-.25c0-1.67-1.2-2.18-2.47-2.18h-2.8v4.56Z"/><path class="cls-2" d="M453.46,148.58v-7.07a.16.16,0,0,1,.16-.18H454a.17.17,0,0,1,.18.18v1.19a2.18,2.18,0,0,1,2.18-1.36h.24a.17.17,0,0,1,.18.18v.36a.16.16,0,0,1-.18.16h-.24c-1.69,0-2.15,1.66-2.15,2.71v3.84a.16.16,0,0,1-.18.16h-.38A.15.15,0,0,1,453.46,148.58Z"/><path class="cls-2" d="M460.72,148.2a2,2,0,0,0,2.09-1.56c0-.09.06-.13.15-.13h.46a.1.1,0,0,1,.1.1.76.76,0,0,1,0,.19,2.76,2.76,0,0,1-2.76,2.09,2.88,2.88,0,0,1-2.93-3.22v-1.26c0-2.07,1.25-3.23,2.9-3.23s2.9,1.16,2.9,3.23v.77a.16.16,0,0,1-.18.16h-4.9v.4A2.19,2.19,0,0,0,460.72,148.2Zm2.15-3.79c0-1.62-.9-2.52-2.18-2.52s-2.18.9-2.18,2.52v.25h4.36Z"/><path class="cls-2" d="M471.4,149.81c0,1.16-.82,2-2.42,2h-1.57c-1.6,0-2.4-.92-2.4-2a1.9,1.9,0,0,1,.84-1.66,1.25,1.25,0,0,1-.84-1.24,1.33,1.33,0,0,1,1.25-1.38,2.2,2.2,0,0,1-.92-1.9,2.47,2.47,0,0,1,2.59-2.45h.43a2.64,2.64,0,0,1,1.9.76V140.7a.16.16,0,0,1,.16-.18h.36a.17.17,0,0,1,.18.18v2.93a2.46,2.46,0,0,1-2.59,2.46h-1.61c-.62,0-1,.24-1,.8s.37.79,1.32.79H469A2.12,2.12,0,0,1,471.4,149.81Zm-.76,0c0-.81-.47-1.44-1.7-1.44h-1.48c-1.21,0-1.69.62-1.69,1.44s.47,1.38,1.69,1.38h1.48C470.17,151.17,470.64,150.61,470.64,149.8Zm-4.56-6.16a1.79,1.79,0,0,0,1.93,1.81h.28a1.8,1.8,0,1,0,0-3.6H468A1.78,1.78,0,0,0,466.08,143.63Z"/><path class="cls-2" d="M473.74,139a.55.55,0,0,1-.58.58.58.58,0,0,1,0-1.16A.55.55,0,0,1,473.74,139Zm-.93,9.63v-7.07a.16.16,0,0,1,.16-.18h.39a.17.17,0,0,1,.18.18v7.07a.16.16,0,0,1-.18.16H473A.15.15,0,0,1,472.8,148.58Z"/><path class="cls-2" d="M475.38,146.92a.14.14,0,0,1,0-.1.14.14,0,0,1,.13-.07h.39c.12,0,.15,0,.18.13a1.85,1.85,0,0,0,2,1.32c1,0,1.94-.33,1.94-1.39,0-2.24-4.52-.46-4.52-3.66,0-1.45,1.38-2,2.43-2,2.67,0,2.61,2,2.61,2v0a.17.17,0,0,1-.16.13H480c-.1,0-.15,0-.16-.16-.07-.49-.3-1.26-1.88-1.26-.7,0-1.7.27-1.7,1.26,0,2.34,4.52.59,4.52,3.66,0,1.51-1.2,2.09-2.68,2.09A2.46,2.46,0,0,1,475.38,146.92Z"/><path class="cls-2" d="M482.6,145.93V142h-1.24a.15.15,0,0,1-.16-.16v-.34a.16.16,0,0,1,.16-.18c.84,0,1.27-.19,1.27-1.27v-.47a.16.16,0,0,1,.16-.18h.36a.17.17,0,0,1,.18.18v1.75h1.82a.17.17,0,0,1,.18.18v.34a.16.16,0,0,1-.18.16h-1.82v3.91c0,1.73.19,2.12,1.7,2.12h.12a.17.17,0,0,1,.18.18v.36a.16.16,0,0,1-.18.16H485C482.79,148.74,482.6,147.84,482.6,145.93Z"/><path class="cls-2" d="M489.22,148.2a2,2,0,0,0,2.09-1.56c0-.09.06-.13.15-.13h.46a.1.1,0,0,1,.1.1.76.76,0,0,1,0,.19,2.76,2.76,0,0,1-2.76,2.09,2.88,2.88,0,0,1-2.93-3.22v-1.26c0-2.07,1.25-3.23,2.9-3.23s2.9,1.16,2.9,3.23v.77a.16.16,0,0,1-.18.16H487v.4A2.19,2.19,0,0,0,489.22,148.2Zm2.15-3.79c0-1.62-.9-2.52-2.18-2.52s-2.18.9-2.18,2.52v.25h4.36Z"/><path class="cls-2" d="M494,148.58v-7.07a.16.16,0,0,1,.16-.18h.36a.17.17,0,0,1,.18.18v1.19a2.18,2.18,0,0,1,2.18-1.36h.24a.17.17,0,0,1,.18.18v.36a.16.16,0,0,1-.18.16h-.24c-1.69,0-2.15,1.66-2.15,2.71v3.84a.16.16,0,0,1-.18.16h-.38A.15.15,0,0,1,494,148.58Z"/><path class="cls-2" d="M501.21,148.2a2,2,0,0,0,2.09-1.56c0-.09.06-.13.15-.13h.46a.1.1,0,0,1,.1.1.76.76,0,0,1,0,.19,2.76,2.76,0,0,1-2.76,2.09,2.88,2.88,0,0,1-2.93-3.22v-1.26c0-2.07,1.25-3.23,2.9-3.23s2.9,1.16,2.9,3.23v.77a.16.16,0,0,1-.18.16H499v.4A2.19,2.19,0,0,0,501.21,148.2Zm2.15-3.79c0-1.62-.9-2.52-2.18-2.52s-2.18.9-2.18,2.52v.25h4.36Z"/><path class="cls-2" d="M510.64,148.58v-.87a2.43,2.43,0,0,1-2.18,1.19c-1.64,0-2.89-1.14-2.89-3.22v-1.26c0-2.07,1.25-3.23,2.89-3.23a2.41,2.41,0,0,1,2.18,1.19v-3.82a.16.16,0,0,1,.16-.18h.38a.17.17,0,0,1,.18.18v10a.16.16,0,0,1-.18.16h-.38A.15.15,0,0,1,510.64,148.58Zm0-2.93v-1.33a2.17,2.17,0,0,0-2.18-2.43c-1.29,0-2.16.9-2.16,2.55v1.21c0,1.66.89,2.55,2.15,2.55S510.64,147.29,510.64,145.65Z"/><path class="cls-2" d="M517.25,151.71h-.38a.15.15,0,0,1-.16-.16v-10a.16.16,0,0,1,.16-.18h.38a.17.17,0,0,1,.18.18v.86a2.41,2.41,0,0,1,2.18-1.19c1.64,0,2.89,1.16,2.89,3.23v1.26c0,2.07-1.25,3.22-2.89,3.22a2.43,2.43,0,0,1-2.18-1.19v3.84A.16.16,0,0,1,517.25,151.71Zm2.36-3.51c1.27,0,2.16-.89,2.16-2.55v-1.21c0-1.64-.87-2.55-2.16-2.55a2.17,2.17,0,0,0-2.18,2.43v1.33C517.43,147.29,518.35,148.2,519.6,148.2Z"/><path class="cls-2" d="M529.21,148.74h-.38a.15.15,0,0,1-.16-.16v-.89a2.31,2.31,0,0,1-2.18,1.2h-.34a2.11,2.11,0,0,1-2.38-2.13c0-1.47.86-2.12,2.52-2.12h2.39V144c0-.95,0-2.15-1.93-2.15-1.36,0-1.72.5-1.85,1.26,0,.07,0,.16-.18.16h-.39a.15.15,0,0,1-.16-.16v0c.12-1,.7-1.93,2.58-1.93,2.56,0,2.65,1.69,2.65,2.86v4.53A.16.16,0,0,1,529.21,148.74Zm-4.73-2a1.47,1.47,0,0,0,1.66,1.44h.34a2.09,2.09,0,0,0,2.18-2.28v-.58h-2.37C524.84,145.34,524.48,145.87,524.48,146.76Z"/><path class="cls-2" d="M531.68,145.93V142h-1.24a.15.15,0,0,1-.16-.16v-.34a.16.16,0,0,1,.16-.18c.84,0,1.27-.19,1.27-1.27v-.47a.16.16,0,0,1,.16-.18h.36a.17.17,0,0,1,.18.18v1.75h1.82a.17.17,0,0,1,.18.18v.34a.16.16,0,0,1-.18.16h-1.82v3.91c0,1.73.19,2.12,1.7,2.12h.12a.17.17,0,0,1,.18.18v.36a.16.16,0,0,1-.18.16h-.12C531.88,148.74,531.68,147.84,531.68,145.93Z"/><path class="cls-2" d="M537,139a.55.55,0,0,1-.58.58.58.58,0,0,1,0-1.16A.55.55,0,0,1,537,139Zm-.93,9.63v-7.07a.16.16,0,0,1,.16-.18h.39a.17.17,0,0,1,.18.18v7.07a.16.16,0,0,1-.18.16h-.39A.15.15,0,0,1,536,148.58Z"/><path class="cls-2" d="M541.63,148.2a2,2,0,0,0,2.09-1.56c0-.09.06-.13.15-.13h.46a.1.1,0,0,1,.1.1.76.76,0,0,1,0,.19,2.76,2.76,0,0,1-2.76,2.09,2.88,2.88,0,0,1-2.93-3.22v-1.26c0-2.07,1.25-3.23,2.9-3.23s2.9,1.16,2.9,3.23v.77a.16.16,0,0,1-.18.16h-4.9v.4A2.19,2.19,0,0,0,541.63,148.2Zm2.15-3.79c0-1.62-.9-2.52-2.18-2.52s-2.18.9-2.18,2.52v.25h4.36Z"/><path class="cls-2" d="M546.36,148.58v-7.07a.16.16,0,0,1,.16-.18h.39a.17.17,0,0,1,.18.18v.9a2.22,2.22,0,0,1,2.1-1.23c1.82,0,2.84,1.3,2.84,3.23v4.16a.16.16,0,0,1-.18.16h-.38a.15.15,0,0,1-.16-.16v-4.15c0-1.64-.84-2.55-2.12-2.55s-2.1.9-2.1,2.55v4.15a.16.16,0,0,1-.18.16h-.39A.15.15,0,0,1,546.36,148.58Z"/><path class="cls-2" d="M554.33,145.93V142h-1.24a.15.15,0,0,1-.16-.16v-.34a.16.16,0,0,1,.16-.18c.84,0,1.27-.19,1.27-1.27v-.47a.16.16,0,0,1,.16-.18h.36a.17.17,0,0,1,.18.18v1.75h1.82a.17.17,0,0,1,.18.18v.34a.16.16,0,0,1-.18.16h-1.82v3.91c0,1.73.19,2.12,1.7,2.12h.12a.17.17,0,0,1,.18.18v.36a.16.16,0,0,1-.18.16h-.12C554.52,148.74,554.33,147.84,554.33,145.93Z"/><path class="cls-2" d="M557.95,146.92a.14.14,0,0,1,0-.1.14.14,0,0,1,.13-.07h.39c.12,0,.15,0,.18.13a1.85,1.85,0,0,0,2,1.32c1,0,1.94-.33,1.94-1.39,0-2.24-4.52-.46-4.52-3.66,0-1.45,1.38-2,2.43-2,2.67,0,2.61,2,2.61,2v0a.17.17,0,0,1-.16.13h-.4c-.1,0-.15,0-.16-.16-.07-.49-.3-1.26-1.88-1.26-.7,0-1.7.27-1.7,1.26,0,2.34,4.52.59,4.52,3.66,0,1.51-1.2,2.09-2.68,2.09A2.46,2.46,0,0,1,557.95,146.92Z"/></svg>