<?xml version="1.0" standalone="no"?>
<!DOCTYPE svg PUBLIC "-//W3C//DTD SVG 20010904//EN"
 "http://www.w3.org/TR/2001/REC-SVG-20010904/DTD/svg10.dtd">
<svg version="1.0" xmlns="http://www.w3.org/2000/svg"
 width="16.000000pt" height="16.000000pt" viewBox="0 0 16.000000 16.000000"
 preserveAspectRatio="xMidYMid meet">
<metadata>
Created by potrace 1.11, written by Peter Selinger 2001-2013
</metadata>
<g transform="translate(0.000000,16.000000) scale(0.001730,-0.001730)"
fill="#000000" stroke="none">
<path d="M317 6840 l-269 -5 -24 -28 c-29 -34 -26 -74 9 -138 13 -24 102 -197
197 -384 95 -187 220 -432 278 -545 57 -113 161 -315 229 -450 69 -135 172
-335 228 -445 56 -110 171 -335 256 -500 84 -165 186 -363 225 -440 40 -77
125 -243 189 -370 65 -126 134 -261 155 -300 21 -38 83 -158 138 -265 154
-298 146 -286 227 -365 107 -105 261 -166 457 -181 105 -8 1533 -12 1590 -4
l36 5 -299 595 c-164 327 -301 602 -305 610 -22 50 -739 1471 -1181 2340 -310
609 -327 636 -437 717 -146 108 -295 149 -551 153 -315 5 -902 5 -1148 0z"/>
<path d="M3420 6840 c-140 -3 -262 -9 -271 -13 -16 -8 -31 -33 -42 -69 -3 -9
16 -58 42 -110 26 -51 119 -232 206 -403 87 -170 202 -395 255 -500 111 -216
286 -560 480 -940 73 -143 174 -341 225 -440 51 -99 143 -279 205 -400 197
-386 360 -701 526 -1020 42 -82 84 -163 92 -180 58 -116 147 -204 267 -263
106 -53 176 -68 360 -79 141 -9 1562 -9 1571 -1 7 8 -605 1233 -1428 2858
-505 995 -622 1223 -658 1275 -85 123 -255 229 -420 261 -14 3 -41 9 -60 13
-57 13 -916 20 -1350 11z"/>
<path d="M8167 6844 c-1 -1 -29 -4 -62 -7 -231 -22 -428 -142 -559 -342 -37
-56 -108 -191 -301 -570 -73 -144 -148 -290 -166 -325 -18 -36 -33 -67 -34
-70 -1 -5 -41 -84 -149 -295 -55 -108 -59 -149 -18 -187 15 -14 38 -28 52 -32
57 -15 953 -27 1068 -15 151 17 302 85 416 190 71 66 186 221 186 252 0 7 4
17 9 22 13 13 47 79 251 480 346 683 380 753 380 785 0 33 -45 89 -72 91 -7 0
-22 2 -33 5 -26 5 -962 23 -968 18z"/>
</g>
</svg>
